<svg width="98" height="60" viewBox="0 0 98 60" fill="none" xmlns="http://www.w3.org/2000/svg">
<g clip-path="url(#clip0_301_2980)">
<path fill-rule="evenodd" clip-rule="evenodd" d="M0 7.47198L7.53846 0H15.0769V7.47198H22.6154L30.1538 0H37.6923V7.47198V14.944V22.4159V29.8879L30.1538 37.3599H22.6154V29.8879H15.0769L7.53846 37.3599H0V29.8879V22.4159V14.944V7.47198Z" fill="url(#paint0_linear_301_2980)"/>
<path fill-rule="evenodd" clip-rule="evenodd" d="M67.8462 0V7.47198L60.3077 14.944V22.4159L52.7692 29.8879L45.2308 37.3599H37.6923V29.8879V22.4159V14.944L45.2308 7.47198L52.7692 0H60.3077H67.8462Z" fill="url(#paint1_linear_301_2980)"/>
<path fill-rule="evenodd" clip-rule="evenodd" d="M75.3846 7.47198V0L67.8462 7.47198V14.944H75.3846V22.4159V29.8879V37.3599H82.9231L90.4615 29.8879H82.9231V22.4159V14.944H90.4615L98 7.47198H90.4615H82.9231H75.3846Z" fill="url(#paint2_linear_301_2980)"/>
<mask id="mask0_301_2980" style="mask-type:alpha" maskUnits="userSpaceOnUse" x="7" y="0" width="31" height="30">
<path fill-rule="evenodd" clip-rule="evenodd" d="M15.0769 0H7.53845V7.47198V14.944V22.4159V29.8879H15.0769V22.4159V14.944H22.6154V22.4159H30.1538V29.8879H37.6923V22.4159V14.944V7.47198V0H30.1538V7.47198V14.944H22.6154V7.47198H15.0769V0Z" fill="white"/>
</mask>
<g mask="url(#mask0_301_2980)">
<path fill-rule="evenodd" clip-rule="evenodd" d="M15.0769 0H7.53845V7.47198V14.944V22.4159V29.8879H15.0769V22.4159V14.944H22.6154V22.4159H30.1538V29.8879H37.6923V22.4159V14.944V7.47198V0H30.1538V7.47198V14.944H22.6154V7.47198H15.0769V0Z" fill="white"/>
<path d="M7.53845 -1.19209e-07V-0.747198H6.78461V-1.19209e-07H7.53845ZM15.0769 -1.19209e-07H15.8308V-0.747198H15.0769V-1.19209e-07ZM7.53845 29.8879H6.78461V30.6351H7.53845V29.8879ZM15.0769 29.8879V30.6351H15.8308V29.8879H15.0769ZM15.0769 14.944V14.1968H14.3231V14.944H15.0769ZM22.6154 22.4159H21.8615V23.1631H22.6154V22.4159ZM30.1538 22.4159H30.9077V21.6687H30.1538V22.4159ZM30.1538 29.8879H29.4V30.6351H30.1538V29.8879ZM37.6923 29.8879V30.6351H38.4461V29.8879H37.6923ZM37.6923 -1.19209e-07H38.4461V-0.747198H37.6923V-1.19209e-07ZM30.1538 -1.19209e-07V-0.747198H29.4V-1.19209e-07H30.1538ZM30.1538 14.944V15.6912H30.9077V14.944H30.1538ZM22.6154 7.47198H23.3692V6.72478H22.6154V7.47198ZM15.0769 7.47198H14.3231V8.21918H15.0769V7.47198ZM7.53845 0.747198H15.0769V-0.747198H7.53845V0.747198ZM8.2923 7.47198V-1.19209e-07H6.78461V7.47198H8.2923ZM8.2923 14.944V7.47198H6.78461V14.944H8.2923ZM8.2923 22.4159V14.944H6.78461V22.4159H8.2923ZM8.2923 29.8879V22.4159H6.78461V29.8879H8.2923ZM15.0769 29.1407H7.53845V30.6351H15.0769V29.1407ZM14.3231 22.4159V29.8879H15.8308V22.4159H14.3231ZM14.3231 14.944V22.4159H15.8308V14.944H14.3231ZM22.6154 14.1968H15.0769V15.6912H22.6154V14.1968ZM21.8615 14.944V22.4159H23.3692V14.944H21.8615ZM22.6154 23.1631H30.1538V21.6687H22.6154V23.1631ZM29.4 22.4159V29.8879H30.9077V22.4159H29.4ZM30.1538 30.6351H37.6923V29.1407H30.1538V30.6351ZM38.4461 29.8879V22.4159H36.9385V29.8879H38.4461ZM38.4461 22.4159V14.944H36.9385V22.4159H38.4461ZM36.9385 7.47198V14.944H38.4461V7.47198H36.9385ZM36.9385 -1.19209e-07V7.47198H38.4461V-1.19209e-07H36.9385ZM30.1538 0.747198H37.6923V-0.747198H30.1538V0.747198ZM30.9077 7.47198V-1.19209e-07H29.4V7.47198H30.9077ZM30.9077 14.944V7.47198H29.4V14.944H30.9077ZM30.1538 14.1968H22.6154V15.6912H30.1538V14.1968ZM21.8615 7.47198V14.944H23.3692V7.47198H21.8615ZM15.0769 8.21918H22.6154V6.72478H15.0769V8.21918ZM14.3231 -1.19209e-07V7.47198H15.8308V-1.19209e-07H14.3231Z" fill="url(#paint3_linear_301_2980)"/>
</g>
<mask id="mask1_301_2980" style="mask-type:alpha" maskUnits="userSpaceOnUse" x="45" y="0" width="23" height="30">
<path fill-rule="evenodd" clip-rule="evenodd" d="M52.7692 7.47198H60.3077H67.8462V0H60.3077H52.7692V7.47198ZM52.7692 14.944V7.47198H45.2308V14.944V22.4159V29.8879H52.7692V22.4159H60.3077V14.944H52.7692Z" fill="white"/>
</mask>
<g mask="url(#mask1_301_2980)">
<path fill-rule="evenodd" clip-rule="evenodd" d="M52.7692 7.47198H60.3077H67.8462V0H60.3077H52.7692V7.47198ZM52.7692 14.944V7.47198H45.2308V14.944V22.4159V29.8879H52.7692V22.4159H60.3077V14.944H52.7692Z" fill="white"/>
<path d="M67.8462 7.47198V8.21918H68.6V7.47198H67.8462ZM67.8462 -1.19209e-07H68.6V-0.747198H67.8462V-1.19209e-07ZM52.7693 -1.19209e-07V-0.747198H52.0154V-1.19209e-07H52.7693ZM52.7693 14.944H52.0154V15.6912H52.7693V14.944ZM45.2308 7.47198V6.72478H44.477V7.47198H45.2308ZM45.2308 29.8879H44.477V30.6351H45.2308V29.8879ZM52.7693 29.8879V30.6351H53.5231V29.8879H52.7693ZM52.7693 22.4159V21.6687H52.0154V22.4159H52.7693ZM60.3077 22.4159V23.1631H61.0616V22.4159H60.3077ZM60.3077 14.944H61.0616V14.1968H60.3077V14.944ZM60.3077 6.72478H52.7693V8.21918H60.3077V6.72478ZM67.8462 6.72478H60.3077V8.21918H67.8462V6.72478ZM67.0923 -1.19209e-07V7.47198H68.6V-1.19209e-07H67.0923ZM60.3077 0.747198H67.8462V-0.747198H60.3077V0.747198ZM52.7693 0.747198H60.3077V-0.747198H52.7693V0.747198ZM53.5231 7.47198V-1.19209e-07H52.0154V7.47198H53.5231ZM53.5231 14.944V7.47198H52.0154V14.944H53.5231ZM52.7693 6.72478H45.2308V8.21918H52.7693V6.72478ZM44.477 7.47198V14.944H45.9847V7.47198H44.477ZM44.477 14.944V22.4159H45.9847V14.944H44.477ZM44.477 22.4159V29.8879H45.9847V22.4159H44.477ZM45.2308 30.6351H52.7693V29.1407H45.2308V30.6351ZM53.5231 29.8879V22.4159H52.0154V29.8879H53.5231ZM52.7693 23.1631H60.3077V21.6687H52.7693V23.1631ZM61.0616 22.4159V14.944H59.5539V22.4159H61.0616ZM60.3077 14.1968H52.7693V15.6912H60.3077V14.1968Z" fill="url(#paint4_linear_301_2980)"/>
</g>
<mask id="mask2_301_2980" style="mask-type:alpha" maskUnits="userSpaceOnUse" x="75" y="0" width="23" height="30">
<path fill-rule="evenodd" clip-rule="evenodd" d="M82.9231 7.47198H75.3846V0H82.9231H90.4616H98V7.47198H90.4616V14.944V22.4159V29.8879H82.9231V22.4159V14.944V7.47198Z" fill="white"/>
</mask>
<g mask="url(#mask2_301_2980)">
<path fill-rule="evenodd" clip-rule="evenodd" d="M82.9231 7.47198H75.3846V0H82.9231H90.4616H98V7.47198H90.4616V14.944V22.4159V29.8879H82.9231V22.4159V14.944V7.47198Z" fill="white"/>
<path d="M75.3846 7.47198H74.6308V8.21918H75.3846V7.47198ZM82.9231 7.47198H83.6769V6.72478H82.9231V7.47198ZM75.3846 -1.19209e-07V-0.747198H74.6308V-1.19209e-07H75.3846ZM98 -1.19209e-07H98.7539V-0.747198H98V-1.19209e-07ZM98 7.47198V8.21918H98.7539V7.47198H98ZM90.4615 7.47198V6.72478H89.7077V7.47198H90.4615ZM90.4615 29.8879V30.6351H91.2154V29.8879H90.4615ZM82.9231 29.8879H82.1692V30.6351H82.9231V29.8879ZM75.3846 8.21918H82.9231V6.72478H75.3846V8.21918ZM74.6308 -1.19209e-07V7.47198H76.1385V-1.19209e-07H74.6308ZM82.9231 -0.747198H75.3846V0.747198H82.9231V-0.747198ZM90.4615 -0.747198H82.9231V0.747198H90.4615V-0.747198ZM98 -0.747198H90.4615V0.747198H98V-0.747198ZM98.7539 7.47198V-1.19209e-07H97.2462V7.47198H98.7539ZM90.4615 8.21918H98V6.72478H90.4615V8.21918ZM91.2154 14.944V7.47198H89.7077V14.944H91.2154ZM91.2154 22.4159V14.944H89.7077V22.4159H91.2154ZM91.2154 29.8879V22.4159H89.7077V29.8879H91.2154ZM82.9231 30.6351H90.4615V29.1407H82.9231V30.6351ZM82.1692 22.4159V29.8879H83.6769V22.4159H82.1692ZM82.1692 14.944V22.4159H83.6769V14.944H82.1692ZM82.1692 7.47198V14.944H83.6769V7.47198H82.1692Z" fill="url(#paint5_linear_301_2980)"/>
</g>
<path d="M0 60V45.6164H4.14615V47.6712H6.21923V49.726H8.29231V47.6712H10.3654V45.6164H14.5115V60H10.3654V53.8356H8.29231V55.8904H6.21923V53.8356H4.14615V60H0ZM16.5846 60V57.9452H20.7308V47.6712H16.5846V45.6164H29.0231V47.6712H24.8769V57.9452H29.0231V60H16.5846ZM31.0962 60V45.6164H35.2423V47.6712H37.3154V49.726H39.3885V51.7808H41.4615V45.6164H45.6077V60H41.4615V57.9452H39.3885V55.8904H37.3154V53.8356H35.2423V60H31.0962ZM55.9731 57.9452V55.8904H58.0462V49.726H55.9731V47.6712H51.8269V57.9452H55.9731ZM47.6808 60V45.6164H58.0462V47.6712H60.1192V49.726H62.1923V55.8904H60.1192V57.9452H58.0462V60H47.6808ZM66.3385 60V57.9452H64.2654V55.8904H68.4115V57.9452H74.6308V53.8356H66.3385V51.7808H64.2654V47.6712H66.3385V45.6164H74.6308V47.6712H76.7039V49.726H72.5577V47.6712H68.4115V51.7808H76.7039V53.8356H78.7769V57.9452H76.7039V60H66.3385Z" fill="url(#paint6_linear_301_2980)"/>
</g>
<defs>
<linearGradient id="paint0_linear_301_2980" x1="18.8462" y1="0" x2="18.8462" y2="37.3599" gradientUnits="userSpaceOnUse">
<stop stop-color="#F30269"/>
<stop offset="1" stop-color="#570191"/>
</linearGradient>
<linearGradient id="paint1_linear_301_2980" x1="52.7692" y1="0" x2="52.7692" y2="37.3599" gradientUnits="userSpaceOnUse">
<stop stop-color="#F30269"/>
<stop offset="1" stop-color="#570191"/>
</linearGradient>
<linearGradient id="paint2_linear_301_2980" x1="82.9231" y1="0" x2="82.9231" y2="37.3599" gradientUnits="userSpaceOnUse">
<stop stop-color="#F30269"/>
<stop offset="1" stop-color="#570191"/>
</linearGradient>
<linearGradient id="paint3_linear_301_2980" x1="22.6154" y1="-0.747198" x2="22.6154" y2="30.6351" gradientUnits="userSpaceOnUse">
<stop stop-color="#F30269"/>
<stop offset="1" stop-color="#570191"/>
</linearGradient>
<linearGradient id="paint4_linear_301_2980" x1="56.5385" y1="-0.747198" x2="56.5385" y2="30.6351" gradientUnits="userSpaceOnUse">
<stop stop-color="#F30269"/>
<stop offset="1" stop-color="#570191"/>
</linearGradient>
<linearGradient id="paint5_linear_301_2980" x1="86.6923" y1="-0.747198" x2="86.6923" y2="30.6351" gradientUnits="userSpaceOnUse">
<stop stop-color="#F30269"/>
<stop offset="1" stop-color="#570191"/>
</linearGradient>
<linearGradient id="paint6_linear_301_2980" x1="39.3885" y1="45.6164" x2="39.3885" y2="60" gradientUnits="userSpaceOnUse">
<stop stop-color="#F30269"/>
<stop offset="1" stop-color="#570191"/>
</linearGradient>
<clipPath id="clip0_301_2980">
<rect width="98" height="60" fill="white"/>
</clipPath>
</defs>
</svg>
