<svg width="36" height="36" viewBox="0 0 36 36" fill="none" xmlns="http://www.w3.org/2000/svg">
<path d="M36 18.001C36 27.9005 27.9 36 18 36C8.1 36 0 27.9005 0 18.001C0 8.10159 8.1 0.0020501 18 0.0020501C27.9 -0.147941 36 7.9516 36 18.001Z" fill="#141414"/>
<path d="M28.2247 16.7312C28.9711 22.2541 24.9409 27.4784 19.418 28.2247C13.8952 28.971 8.67088 24.9409 7.92455 19.418C7.17822 13.8952 11.2084 8.67088 16.7312 7.92455C22.4033 7.17822 27.4784 11.2084 28.2247 16.7312ZM21.2092 0.311993C19.418 0.0134616 17.6268 -0.135808 15.6864 0.162724C13.7459 0.461256 12.104 0.909054 10.4621 1.65538C12.104 2.40171 14.0444 2.84951 15.9849 2.55098C17.9254 2.25245 19.8658 1.50612 21.2092 0.311993ZM14.7908 35.688C16.582 35.9865 18.3732 36.1358 20.3136 35.8373C22.2541 35.5387 23.896 35.0909 25.5379 34.3446C23.896 33.5983 21.9556 33.1505 20.0151 33.449C18.0746 33.7476 16.2835 34.4939 14.7908 35.688ZM34.3446 10.4621C33.5983 12.104 33.1505 14.0445 33.449 15.9849C33.7476 17.9254 34.4939 19.7166 35.688 21.2092C35.9865 19.418 36.1358 17.6268 35.8373 15.6864C35.688 13.8952 35.0909 12.104 34.3446 10.4621ZM0.311982 14.7908C0.0134501 16.582 -0.135802 18.3732 0.16273 20.3136C0.461261 22.2541 0.909059 23.896 1.65539 25.5379C2.40172 23.896 2.8495 21.9555 2.55097 20.0151C2.25244 18.0746 1.50611 16.2834 0.311982 14.7908Z" fill="#E50A14"/>
<path d="M17.9035 24.16C16.3568 24.16 15.1782 23.6373 14.3675 22.592C13.5675 21.5467 13.1675 20.0853 13.1675 18.208C13.1675 16.3307 13.5995 14.9333 14.4635 14.016C15.3275 13.088 16.5062 12.624 17.9995 12.624C19.5035 12.624 20.6822 13.0827 21.5355 14C22.3995 14.9173 22.8315 16.3787 22.8315 18.384C22.8315 20.3893 22.3995 21.856 21.5355 22.784C20.6715 23.7013 19.4608 24.16 17.9035 24.16ZM16.4475 17.792V19.216C16.4475 20.2507 16.4528 20.9813 16.4635 21.408C16.4848 21.8347 16.5435 22.2773 16.6395 22.736C16.7355 23.1947 16.8902 23.4933 17.1035 23.632C17.3168 23.76 17.5675 23.824 17.8555 23.824C18.1435 23.824 18.3568 23.808 18.4955 23.776C18.6448 23.744 18.7728 23.68 18.8795 23.584C18.9968 23.4773 19.0928 23.376 19.1675 23.28C19.2422 23.1733 19.3008 23.0133 19.3435 22.8C19.3968 22.5867 19.4395 22.3893 19.4715 22.208C19.5035 22.0267 19.5248 21.76 19.5355 21.408C19.5568 20.7253 19.5675 20.0373 19.5675 19.344V17.936C19.5675 15.8453 19.4875 14.496 19.3275 13.888C19.1782 13.2693 18.7408 12.96 18.0155 12.96C17.2902 12.96 16.8475 13.2747 16.6875 13.904C16.5275 14.5333 16.4475 15.8293 16.4475 17.792Z" fill="white"/>
</svg>
