<svg width="36" height="36" viewBox="0 0 36 36" fill="none" xmlns="http://www.w3.org/2000/svg">
<path d="M36 18.001C36 27.9005 27.9 36 18 36C8.1 36 0 27.9005 0 18.001C0 8.10159 8.1 0.0020501 18 0.0020501C27.9 -0.147941 36 7.9516 36 18.001Z" fill="#E50A14"/>
<path d="M27.749 15.2365C29.249 20.6141 26.249 26.2904 20.699 27.9336C15.299 29.4274 9.59901 26.4398 7.94901 20.9129C6.44901 15.5353 9.44901 9.85891 14.999 8.21576C20.549 6.5726 26.249 9.70953 27.749 15.2365Z" fill="#141414"/>
<path d="M18.4477 0C16.6477 0 14.8477 0.149378 13.0477 0.746888C11.2477 1.3444 9.59766 2.09129 8.09766 2.98755C9.89766 3.58506 11.8477 3.58506 13.7977 2.98755C15.5977 2.53942 17.2477 1.49378 18.4477 0Z" fill="#141414"/>
<path d="M17.5488 36C19.3488 36 21.1488 35.8506 22.9488 35.2531C24.7488 34.6556 26.3988 33.9087 27.8988 33.0124C26.0988 32.4149 24.1488 32.4149 22.1988 33.0124C20.3988 33.4606 18.7488 34.5062 17.5488 36Z" fill="#141414"/>
<path d="M32.9988 8.06638C32.3988 9.85891 32.3988 11.8008 32.9988 13.7427C33.5988 15.6846 34.6488 17.3278 35.9988 18.5228C35.9988 16.7303 35.8488 14.9377 35.2488 13.1452C34.7988 11.2033 34.0488 9.56016 32.9988 8.06638Z" fill="#141414"/>
<path d="M0 17.6265C0 19.4191 0.15 21.2116 0.75 23.0041C1.35 24.7967 2.1 26.4398 3 27.9336C3.6 26.1411 3.6 24.1991 3 22.2572C2.4 20.4647 1.35 18.8216 0 17.6265Z" fill="#141414"/>
<path d="M16.6336 13.216L14.8736 13.44L14.8416 13.12L18.4576 12.624H19.7536V23.696H21.0016V24H14.9536V23.696H16.6336V13.216Z" fill="white"/>
</svg>
