<svg width="37" height="36" viewBox="0 0 37 36" fill="none" xmlns="http://www.w3.org/2000/svg">
<path d="M36.5469 18.001C36.5469 27.9005 28.4469 36 18.5469 36C8.64688 36 0.546875 27.9005 0.546875 18.001C0.546875 8.10159 8.64688 0.0020501 18.5469 0.0020501C28.4469 -0.147941 36.5469 7.9516 36.5469 18.001Z" fill="#141414"/>
<path d="M28.6151 19.7227C27.5682 25.2655 22.3339 29.0106 16.8005 27.962C11.2671 26.9134 7.52833 21.6702 8.57519 16.1274C9.62205 10.5847 14.8563 6.83958 20.3897 7.88821C25.9231 8.93684 29.5124 14.18 28.6151 19.7227Z" fill="#E50A14"/>
<path d="M26.8202 2.04586C25.1751 1.14703 23.5301 0.547813 21.5859 0.248204C19.7913 -0.0514043 17.8471 -0.0514049 16.0525 0.0983994C17.3985 1.44664 19.1931 2.34546 21.1372 2.64507C23.231 2.94468 25.1751 2.79488 26.8202 2.04586Z" fill="#E50A14"/>
<path d="M10.2159 33.9541C11.861 34.853 13.506 35.4522 15.4502 35.7518C17.2448 36.0514 19.189 36.0514 20.9836 35.9016C19.6376 34.5534 17.843 33.6545 15.8989 33.3549C13.8052 33.0553 11.861 33.2051 10.2159 33.9541Z" fill="#E50A14"/>
<path d="M36.3838 15.6781C35.0379 17.0263 34.1406 18.824 33.8415 20.7714C33.5424 22.7189 33.6919 24.6663 34.4397 26.464C35.337 24.8161 35.9352 23.1683 36.2343 21.2208C36.5334 19.2734 36.6829 17.4757 36.3838 15.6781Z" fill="#E50A14"/>
<path d="M2.58927 9.68589C1.69197 11.3337 1.09376 12.9816 0.794658 14.929C0.495556 16.7267 0.495558 18.6742 0.645109 20.4718C1.84152 19.1236 2.88838 17.3259 3.18748 15.3785C3.48658 13.2812 3.33703 11.3337 2.58927 9.68589Z" fill="#E50A14"/>
<path d="M15.1459 15.072C15.1459 14.3573 15.4553 13.7707 16.0739 13.312C16.6926 12.8533 17.6206 12.624 18.8579 12.624C20.0953 12.624 21.0446 12.8533 21.7059 13.312C22.3779 13.7707 22.7139 14.4587 22.7139 15.376C22.7139 15.6747 22.6873 15.9467 22.6339 16.192C22.5806 16.4267 22.4579 16.6773 22.2659 16.944C22.0846 17.2 21.9033 17.4293 21.7219 17.632C21.5513 17.8347 21.2526 18.1013 20.8259 18.432C20.1859 18.944 19.5139 19.456 18.8099 19.968C18.1059 20.4693 17.6953 20.7627 17.5779 20.848L16.6019 21.552H20.4419C21.1779 21.552 21.7006 21.392 22.0099 21.072C22.3193 20.752 22.5379 20.2507 22.6659 19.568H22.9379L22.7779 24H15.2579V22.144L16.8739 20.656C17.9726 19.6533 18.7513 18.7627 19.2099 17.984C19.6686 17.1947 19.8979 16.3307 19.8979 15.392C19.8979 14.4427 19.7966 13.7973 19.5939 13.456C19.3913 13.104 19.0499 12.928 18.5699 12.928C18.0899 12.928 17.7539 13.0507 17.5619 13.296C17.3699 13.5413 17.2739 13.776 17.2739 14C17.2739 14.224 17.3059 14.4213 17.3699 14.592H17.8499C17.9353 14.816 17.9779 15.088 17.9779 15.408C17.9779 15.7173 17.8446 15.9893 17.5779 16.224C17.3113 16.448 16.9593 16.56 16.5219 16.56C16.0846 16.56 15.7433 16.4213 15.4979 16.144C15.2633 15.856 15.1459 15.4987 15.1459 15.072Z" fill="white"/>
</svg>
