<svg width="36" height="36" viewBox="0 0 36 36" fill="none" xmlns="http://www.w3.org/2000/svg">
<path d="M36 18.001C36 27.9005 27.9 36 18 36C8.1 36 0 27.9005 0 18.001C0 8.10159 8.1 0.0020501 18 0.0020501C27.9 -0.147941 36 7.9516 36 18.001Z" fill="#E50A14"/>
<path d="M27.7819 21.0622C26.1389 26.4398 20.463 29.4274 15.0859 27.7842C9.70874 26.1411 6.72144 20.4647 8.36445 15.0871C10.0075 9.70954 15.6834 6.72199 21.0605 8.36515C26.2883 9.85892 29.425 15.5353 27.7819 21.0622ZM28.23 3.13693C26.7364 2.09129 25.0934 1.3444 23.301 0.746888C21.5086 0.149378 19.7162 0 17.9238 0C19.1188 1.49378 20.7618 2.53942 22.7035 3.13693C24.4959 3.73444 26.4377 3.73444 28.23 3.13693ZM7.76699 32.8631C9.26064 33.9087 10.9037 34.6556 12.696 35.2531C14.4884 35.8506 16.2808 36 18.0732 36C16.8783 34.5062 15.2353 33.4606 13.2935 32.8631C11.5011 32.2656 9.55937 32.2656 7.76699 32.8631ZM35.997 17.7759C34.5034 18.971 33.4578 20.6141 32.8604 22.556C32.2629 24.4979 32.2629 26.4398 32.8604 28.2324C33.9059 26.7386 34.6527 25.0954 35.2502 23.3029C35.6983 21.5104 35.997 19.5685 35.997 17.7759ZM3.13667 7.76764C2.09111 9.26141 1.34429 10.9046 0.746826 12.6971C0.149365 14.4896 0 16.2822 0 18.0747C1.49365 16.8797 2.53921 15.2365 3.13667 13.2946C3.73413 11.5021 3.73413 9.56017 3.13667 7.76764Z" fill="#141414"/>
<path d="M14.0861 15.072C14.0861 14.368 14.4061 13.7867 15.0461 13.328C15.6861 12.8587 16.6354 12.624 17.8941 12.624C20.3261 12.624 21.5421 13.472 21.5421 15.168C21.5421 15.8613 21.2541 16.4373 20.6781 16.896C20.1127 17.344 19.2967 17.6587 18.2301 17.84V17.872C19.5527 17.968 20.5287 18.2773 21.1581 18.8C21.7874 19.3227 22.1021 20 22.1021 20.832C22.1021 21.856 21.6861 22.6667 20.8541 23.264C20.0327 23.8613 18.8861 24.16 17.4141 24.16C16.8381 24.16 16.2994 24.096 15.7981 23.968C15.3074 23.84 14.8647 23.5893 14.4701 23.216C14.0861 22.832 13.8941 22.3787 13.8941 21.856C13.8941 21.3333 14.0167 20.928 14.2621 20.64C14.5181 20.352 14.8647 20.208 15.3021 20.208C15.7394 20.208 16.0861 20.3253 16.3421 20.56C16.5981 20.784 16.7261 21.056 16.7261 21.376C16.7261 21.6853 16.6834 21.952 16.5981 22.176H16.1021C16.0381 22.3467 16.0061 22.5227 16.0061 22.704C16.0061 23.4613 16.4541 23.84 17.3501 23.84C17.9794 23.84 18.4061 23.6 18.6301 23.12C18.8647 22.64 18.9821 21.9467 18.9821 21.04C18.9821 20.1333 18.8701 19.4773 18.6461 19.072C18.4327 18.656 18.1127 18.3413 17.6861 18.128C17.3021 18.2133 16.8381 18.2827 16.2941 18.336L16.2461 17.984C17.1847 17.888 17.7981 17.664 18.0861 17.312C18.3847 16.96 18.5341 16.336 18.5341 15.44C18.5341 14.5333 18.4434 13.888 18.2621 13.504C18.0914 13.1093 17.7981 12.912 17.3821 12.912C16.9661 12.912 16.6674 13.04 16.4861 13.296C16.3154 13.5413 16.2301 13.776 16.2301 14C16.2301 14.224 16.2621 14.4213 16.3261 14.592H16.7901C16.8754 14.816 16.9181 15.088 16.9181 15.408C16.9181 15.7173 16.7847 15.9893 16.5181 16.224C16.2514 16.448 15.8994 16.56 15.4621 16.56C15.0247 16.56 14.6834 16.4213 14.4381 16.144C14.2034 15.856 14.0861 15.4987 14.0861 15.072Z" fill="white"/>
</svg>
