<svg width="36" height="36" viewBox="0 0 36 36" fill="none" xmlns="http://www.w3.org/2000/svg">
<path d="M36 18.001C36 27.9004 27.9 36 18 36C8.1 36 0 27.9004 0 18.001C0 8.10158 8.1 0.00205009 18 0.00205009C28.05 -0.147941 36 7.95159 36 18.001Z" fill="#141414"/>
<path d="M28.1595 16.425C29.0558 21.975 25.1718 27.225 19.6445 28.125C14.1172 29.025 8.88876 25.125 7.99244 19.575C7.09613 14.025 10.9802 8.77501 16.5074 7.87501C22.0347 6.97501 27.2631 10.875 28.1595 16.425Z" fill="#E50A14"/>
<path d="M20.8403 0.225C19.0476 -0.075 17.255 -0.075 15.313 0.225C13.371 0.525 11.7277 1.125 10.0845 1.875C11.7277 2.625 13.6698 2.925 15.6118 2.625C17.7032 2.325 19.3464 1.425 20.8403 0.225Z" fill="#E50A14"/>
<path d="M15.3113 35.775C17.104 36.075 18.8966 36.075 20.8386 35.775C22.7806 35.475 24.4239 34.875 26.0671 34.125C24.4239 33.375 22.4818 33.075 20.5398 33.375C18.4484 33.675 16.6558 34.575 15.3113 35.775Z" fill="#E50A14"/>
<path d="M34.1327 9.97498C33.3857 11.625 33.087 13.575 33.3857 15.675C33.6845 17.625 34.5808 19.425 35.7759 20.775C36.0747 18.975 36.0747 17.175 35.7759 15.225C35.4771 13.425 34.8796 11.625 34.1327 9.97498Z" fill="#E50A14"/>
<path d="M0.224078 15.225C-0.0746926 17.025 -0.0746926 18.825 0.224078 20.775C0.522849 22.575 1.12039 24.375 1.86731 26.025C2.61424 24.375 2.91301 22.425 2.61424 20.475C2.31547 18.375 1.41916 16.575 0.224078 15.225Z" fill="#E50A14"/>
<path d="M16.0917 24V23.696H17.5957V21.136H13.2597V20.832L17.7717 12.8H20.5397V20.752H22.1237V19.36H22.4277V22.32H22.1237V21.136H20.5397V23.696H21.6437V24H16.0917ZM13.7717 20.752H17.5957V14.016L13.7717 20.752Z" fill="white"/>
</svg>
