<svg width="420" height="149" viewBox="0 0 420 149" fill="none" xmlns="http://www.w3.org/2000/svg">
<g clip-path="url(#clip0_44_14827)">
<path d="M116.205 14.99H67.1954L32.7254 64.3H68.6254L83.5354 40.89V91.85H51.0654L58.6054 80.02H21.7354L12.0254 93.91V122.27H81.0654V130.76H116.205V122.27H133.055V91.85H116.205V14.99Z" fill="#570191"/>
<path d="M116.204 140.76H81.0645V148.98H116.204V140.76Z" fill="#570191"/>
<path d="M208.066 115.49C204.086 115.49 200.636 114.7 197.686 113.13C194.736 111.56 192.476 109.6 190.906 107.27C189.326 104.94 188.066 101.86 187.106 98.0199C186.146 94.1899 185.526 90.4899 185.256 86.9199C184.976 83.3599 184.846 79.1099 184.846 74.1799C184.846 69.2499 184.976 65.1399 185.246 61.6099H150.826C150.496 65.6199 150.326 69.7999 150.326 74.1799C150.326 85.1399 151.356 94.9699 153.406 103.67C155.456 112.37 158.676 120.14 163.066 126.99C167.446 133.84 173.446 139.11 181.046 142.81C188.646 146.51 197.656 148.36 208.066 148.36C218.476 148.36 227.486 146.51 235.086 142.81C242.686 139.11 248.676 133.84 253.066 126.99C255.606 123.02 257.746 118.73 259.506 114.14H216.176C213.766 115.04 211.066 115.48 208.066 115.48V115.49Z" fill="#570191"/>
<path d="M190.905 41.1C192.475 38.77 194.735 36.82 197.685 35.24C200.635 33.67 204.085 32.88 208.065 32.88C212.045 32.88 215.495 33.67 218.445 35.24C221.385 36.82 223.645 38.77 225.225 41.1C226.805 43.43 228.065 46.51 229.025 50.35C229.985 54.19 230.605 57.89 230.875 61.45C231.145 65.01 231.285 69.26 231.285 74.19C231.285 79.12 231.145 83.37 230.875 86.93C230.595 90.49 229.985 94.19 229.025 98.03C228.835 98.79 228.625 99.52 228.415 100.22H263.475C265.025 92.4 265.815 83.73 265.815 74.2C265.815 63.24 264.785 53.41 262.725 44.71C260.675 36.01 257.455 28.24 253.065 21.39C248.675 14.54 242.685 9.27002 235.085 5.57002C227.475 1.87002 218.475 0.0200195 208.065 0.0200195C197.655 0.0200195 188.645 1.87002 181.045 5.57002C173.445 9.27002 167.445 14.54 163.065 21.39C158.675 28.24 155.465 36.02 153.405 44.71C153.335 44.99 153.285 45.27 153.225 45.55H188.635C189.305 43.85 190.065 42.37 190.915 41.11L190.905 41.1Z" fill="#570191"/>
<path d="M58.9154 64.3H23.0154L12.0254 80.02H48.8954L58.9154 64.3Z" fill="#570191"/>
<path d="M123.355 130.76H88.2148V140.76H123.355V130.76Z" fill="#570191"/>
<path d="M128.006 1.02979H88.7561L78.9961 14.9898H128.006V1.02979Z" fill="#570191"/>
<path d="M393.485 14.9902H344.475L310.005 64.3002H345.905L360.815 40.8902V91.8502H328.345L335.885 80.0202H299.015L289.305 93.9102V122.27H358.345V130.76H393.485V122.27H410.335V91.8502H393.485V14.9902Z" fill="#570191"/>
<path d="M393.486 140.76H358.346V148.98H393.486V140.76Z" fill="#570191"/>
<path d="M336.195 64.2998H300.295L289.305 80.0198H326.175L336.195 64.2998Z" fill="#570191"/>
<path d="M400.636 130.76H365.496V140.76H400.636V130.76Z" fill="#570191"/>
<path d="M405.276 1.03003H366.026L356.266 14.99H405.276V1.03003Z" fill="#570191"/>
<path d="M177.616 61.4398C177.886 57.8798 178.506 54.1798 179.466 50.3398C179.906 48.5798 180.416 46.9798 180.986 45.5298H145.576C144.446 50.5198 143.646 55.8798 143.176 61.6098H177.596C177.596 61.5498 177.596 61.4898 177.606 61.4398H177.616Z" fill="#570191"/>
<path d="M270.165 100.21H235.105C234.235 103.04 233.175 105.4 231.915 107.27C230.335 109.6 228.075 111.55 225.135 113.13C224.405 113.52 223.655 113.86 222.865 114.15H266.195C267.465 110.82 268.555 107.34 269.415 103.68C269.685 102.55 269.935 101.39 270.165 100.22V100.21Z" fill="#570191"/>
<path d="M104.715 14.99H55.7152L21.2352 64.3H57.1352L72.0452 40.89V91.85H39.5752L47.1152 80.02H10.2452L0.535156 93.91V122.27H69.5852V130.76H104.715V122.27H121.565V91.85H104.715V14.99Z" fill="#F30269"/>
<path d="M104.726 140.76H69.5859V148.98H104.726V140.76Z" fill="#F30269"/>
<path d="M196.576 115.49C192.596 115.49 189.146 114.7 186.196 113.13C183.246 111.56 180.986 109.6 179.416 107.27C177.836 104.94 176.576 101.86 175.616 98.0199C174.656 94.1899 174.036 90.4899 173.766 86.9199C173.486 83.3599 173.356 79.1099 173.356 74.1799C173.356 69.2499 173.486 65.1399 173.756 61.6099H139.336C139.006 65.6199 138.836 69.7999 138.836 74.1799C138.836 85.1399 139.866 94.9699 141.916 103.67C143.966 112.37 147.186 120.14 151.576 126.99C155.956 133.84 161.956 139.11 169.556 142.81C177.156 146.51 186.166 148.36 196.576 148.36C206.986 148.36 215.996 146.51 223.596 142.81C231.196 139.11 237.186 133.84 241.576 126.99C244.116 123.02 246.256 118.73 248.016 114.14H204.686C202.276 115.04 199.576 115.48 196.576 115.48V115.49Z" fill="#F30269"/>
<path d="M179.414 41.1C180.984 38.77 183.244 36.82 186.194 35.24C189.144 33.67 192.594 32.88 196.574 32.88C200.554 32.88 204.004 33.67 206.954 35.24C209.894 36.82 212.154 38.77 213.734 41.1C215.314 43.43 216.574 46.51 217.534 50.35C218.494 54.19 219.114 57.89 219.384 61.45C219.654 65.01 219.794 69.26 219.794 74.19C219.794 79.12 219.654 83.37 219.384 86.93C219.104 90.49 218.494 94.19 217.534 98.03C217.344 98.79 217.134 99.52 216.924 100.22H251.984C253.534 92.4 254.324 83.73 254.324 74.2C254.324 63.24 253.294 53.41 251.234 44.71C249.184 36.01 245.964 28.24 241.574 21.39C237.184 14.54 231.194 9.27002 223.594 5.57002C215.984 1.87002 206.984 0.0200195 196.574 0.0200195C186.164 0.0200195 177.154 1.87002 169.554 5.57002C161.954 9.27002 155.954 14.54 151.574 21.39C147.184 28.24 143.974 36.02 141.914 44.71C141.844 44.99 141.794 45.27 141.734 45.55H177.144C177.814 43.85 178.574 42.37 179.424 41.11L179.414 41.1Z" fill="#F30269"/>
<path d="M47.4252 64.3H11.5252L0.535156 80.02H37.4052L47.4252 64.3Z" fill="#F30269"/>
<path d="M111.865 130.76H76.7246V140.76H111.865V130.76Z" fill="#F30269"/>
<path d="M116.516 1.02979H77.2659L67.5059 14.9898H116.516V1.02979Z" fill="#F30269"/>
<path d="M381.994 14.9902H332.984L298.514 64.3002H334.414L349.324 40.8902V91.8502H316.854L324.394 80.0202H287.524L277.814 93.9102V122.27H346.854V130.76H381.994V122.27H398.844V91.8502H381.994V14.9902Z" fill="#F30269"/>
<path d="M381.995 140.76H346.855V148.98H381.995V140.76Z" fill="#F30269"/>
<path d="M324.704 64.2998H288.804L277.814 80.0198H314.684L324.704 64.2998Z" fill="#F30269"/>
<path d="M389.146 130.76H354.006V140.76H389.146V130.76Z" fill="#F30269"/>
<path d="M393.785 1.03003H354.535L344.785 14.99H393.785V1.03003Z" fill="#F30269"/>
<path d="M166.126 61.4398C166.396 57.8798 167.016 54.1798 167.976 50.3398C168.416 48.5798 168.926 46.9798 169.496 45.5298H134.086C132.956 50.5198 132.156 55.8798 131.686 61.6098H166.106C166.106 61.5498 166.106 61.4898 166.116 61.4398H166.126Z" fill="#F30269"/>
<path d="M258.675 100.21H223.615C222.745 103.04 221.685 105.4 220.425 107.27C218.845 109.6 216.585 111.55 213.645 113.13C212.915 113.52 212.165 113.86 211.375 114.15H254.705C255.975 110.82 257.065 107.34 257.925 103.68C258.195 102.55 258.445 101.39 258.675 100.22V100.21Z" fill="#F30269"/>
<path d="M109.776 14.99H60.7657L26.2957 64.3H62.1957L77.1057 40.89V91.85H44.6357L52.1757 80.02H15.3057L5.5957 93.91V122.27H74.6357V130.76H109.776V122.27H126.626V91.85H109.776V14.99Z" fill="#182633"/>
<path d="M109.775 140.76H74.6348V148.98H109.775V140.76Z" fill="#182633"/>
<path d="M201.625 115.49C197.645 115.49 194.195 114.7 191.245 113.13C188.295 111.56 186.035 109.6 184.465 107.27C182.885 104.94 181.625 101.86 180.665 98.0199C179.705 94.1899 179.085 90.4899 178.815 86.9199C178.535 83.3599 178.405 79.1099 178.405 74.1799C178.405 69.2499 178.535 65.1399 178.805 61.6099H144.385C144.055 65.6199 143.885 69.7999 143.885 74.1799C143.885 85.1399 144.915 94.9699 146.965 103.67C149.015 112.37 152.235 120.14 156.625 126.99C161.005 133.84 167.005 139.11 174.605 142.81C182.205 146.51 191.215 148.36 201.625 148.36C212.035 148.36 221.045 146.51 228.645 142.81C236.245 139.11 242.235 133.84 246.625 126.99C249.165 123.02 251.305 118.73 253.065 114.14H209.735C207.325 115.04 204.625 115.48 201.625 115.48V115.49Z" fill="#182633"/>
<path d="M184.475 41.1C186.045 38.77 188.305 36.82 191.255 35.24C194.205 33.67 197.655 32.88 201.635 32.88C205.615 32.88 209.065 33.67 212.015 35.24C214.955 36.82 217.215 38.77 218.795 41.1C220.375 43.43 221.635 46.51 222.595 50.35C223.555 54.19 224.175 57.89 224.445 61.45C224.715 65.01 224.855 69.26 224.855 74.19C224.855 79.12 224.715 83.37 224.445 86.93C224.165 90.49 223.555 94.19 222.595 98.03C222.405 98.79 222.195 99.52 221.985 100.22H257.045C258.595 92.4 259.385 83.73 259.385 74.2C259.385 63.24 258.355 53.41 256.295 44.71C254.245 36.01 251.025 28.24 246.635 21.39C242.245 14.54 236.255 9.27002 228.655 5.57002C221.045 1.87002 212.045 0.0200195 201.635 0.0200195C191.225 0.0200195 182.215 1.87002 174.615 5.57002C167.015 9.27002 161.015 14.54 156.635 21.39C152.245 28.24 149.035 36.02 146.975 44.71C146.905 44.99 146.855 45.27 146.795 45.55H182.205C182.875 43.85 183.635 42.37 184.485 41.11L184.475 41.1Z" fill="#182633"/>
<path d="M52.4857 64.3H16.5857L5.5957 80.02H42.4657L52.4857 64.3Z" fill="#182633"/>
<path d="M116.925 130.76H81.7852V140.76H116.925V130.76Z" fill="#182633"/>
<path d="M121.567 1.02979H82.3166L72.5566 14.9898H121.567V1.02979Z" fill="#182633"/>
<path d="M387.055 14.9902H338.045L303.575 64.3002H339.475L354.385 40.8902V91.8502H321.915L329.455 80.0202H292.585L282.875 93.9102V122.27H351.915V130.76H387.055V122.27H403.905V91.8502H387.055V14.9902Z" fill="#182633"/>
<path d="M387.056 140.76H351.916V148.98H387.056V140.76Z" fill="#182633"/>
<path d="M329.765 64.2998H293.865L282.875 80.0198H319.745L329.765 64.2998Z" fill="#182633"/>
<path d="M394.206 130.76H359.066V140.76H394.206V130.76Z" fill="#182633"/>
<path d="M398.846 1.02979H359.596L349.836 14.9898H398.846V1.02979Z" fill="#182633"/>
<path d="M171.186 61.4398C171.456 57.8798 172.076 54.1798 173.036 50.3398C173.476 48.5798 173.986 46.9798 174.556 45.5298H139.146C138.016 50.5198 137.216 55.8798 136.746 61.6098H171.166C171.166 61.5498 171.166 61.4898 171.176 61.4398H171.186Z" fill="#182633"/>
<path d="M263.736 100.21H228.676C227.806 103.04 226.746 105.4 225.486 107.27C223.906 109.6 221.646 111.55 218.706 113.13C217.976 113.52 217.226 113.86 216.436 114.15H259.766C261.036 110.82 262.126 107.34 262.986 103.68C263.256 102.55 263.506 101.39 263.736 100.22V100.21Z" fill="#182633"/>
<path d="M58.9041 44.1499H18.6641V45.5399H58.9041V44.1499Z" fill="#182633"/>
<path d="M58.9041 45.54H18.6641V46.93H58.9041V45.54Z" fill="white"/>
<path d="M15.1048 44.1499H13.7148V45.5399H15.1048V44.1499Z" fill="#F30269"/>
<path d="M11.1556 44.1499H9.76562V45.5399H11.1556V44.1499Z" fill="#F30269"/>
<path d="M6.38469 44.1499H0.804688V45.5399H6.38469V44.1499Z" fill="#F30269"/>
<path d="M318.355 87.8701H278.115V89.2601H318.355V87.8701Z" fill="#182633"/>
<path d="M318.355 89.26H278.115V90.65H318.355V89.26Z" fill="white"/>
<path d="M274.544 87.8701H273.154V89.2601H274.544V87.8701Z" fill="#F30269"/>
<path d="M270.595 87.8701H269.205V89.2601H270.595V87.8701Z" fill="#F30269"/>
<path d="M96.0061 142.15H136.246V140.76H96.0061V142.15Z" fill="#182633"/>
<path d="M96.0061 143.54H136.246V142.15H96.0061V143.54Z" fill="white"/>
<path d="M139.805 142.15H141.195V140.76H139.805V142.15Z" fill="#570191"/>
<path d="M143.766 142.15H145.156V140.76H143.766V142.15Z" fill="#570191"/>
<path d="M148.525 142.15H154.105V140.76H148.525V142.15Z" fill="#570191"/>
<path d="M222.875 10.98L263.115 10.98V9.58998L222.875 9.58998V10.98Z" fill="#182633"/>
<path d="M369.026 45.5298L409.266 45.5298V44.1398L369.026 44.1398V45.5298Z" fill="#182633"/>
<path d="M376.635 108.57H416.875V107.18H376.635V108.57Z" fill="#182633"/>
<path d="M141.965 129.32H182.205V127.93H141.965V129.32Z" fill="#182633"/>
<path d="M269.506 51.8599H267.756V53.6099H269.506V51.8599Z" fill="#570191"/>
<path d="M274.814 51.8599H273.064V53.6099H274.814V51.8599Z" fill="#570191"/>
<path d="M339.465 6.25977H337.715V8.00977H339.465V6.25977Z" fill="#F30269"/>
<path d="M414.336 43.9702H412.586V45.7202H414.336V43.9702Z" fill="#182633"/>
<path d="M419.465 43.9702H417.715V45.7202H419.465V43.9702Z" fill="#182633"/>
<path d="M344.785 6.26001H343.035V8.01001H344.785V6.26001Z" fill="#F30269"/>
</g>
<defs>
<clipPath id="clip0_44_14827">
<rect width="418.93" height="148.98" fill="white" transform="translate(0.535156)"/>
</clipPath>
</defs>
</svg>
