<svg width="230" height="36" viewBox="0 0 230 36" fill="none" xmlns="http://www.w3.org/2000/svg">
<path d="M90 26.9799L104.194 10H108.067V26.4805H111.722V30.1263H108.067V35.9692H103.728V30.1263H92.1395L90 26.9799ZM95.3289 26.5205H103.728V16.3026L95.3289 26.5205Z" fill="#014586"/>
<path d="M116.873 10.2197H121.816L116.873 15.2138V10.2197Z" fill="#0089D0"/>
<path d="M139.001 18.0109C138.364 16.4712 137.424 15.0781 136.237 13.9159C134.993 12.7342 133.529 11.8141 131.929 11.2091C130.166 10.5361 128.296 10.1974 126.412 10.2103H125.114L116.873 18.5203V35.9996H126.412C128.296 36.0174 130.168 35.6786 131.929 35.0008C133.534 34.3977 135.001 33.4698 136.237 32.274C137.424 31.1118 138.364 29.7187 139.001 28.179C140.334 24.9196 140.334 21.2603 139.001 18.0009V18.0109ZM132.83 29.4375C131.976 30.2619 130.965 30.9029 129.859 31.3218C128.752 31.7407 127.573 31.9287 126.392 31.8746H121.35V14.3653H126.392C127.576 14.3166 128.758 14.5119 129.865 14.9396C130.972 15.3672 131.981 16.0181 132.83 16.8523C134.407 18.5679 135.283 20.8207 135.283 23.1598C135.283 25.4989 134.407 27.7517 132.83 29.4673V29.4375Z" fill="#014586"/>
</svg>
