<svg width="20" height="20" viewBox="0 0 20 20" fill="none" xmlns="http://www.w3.org/2000/svg">
<g clip-path="url(#clip0_1503_36511)">
<path d="M0 9C0 8.44771 0.447715 8 1 8H6.17C6.72228 8 7.17 8.44772 7.17 9V18C7.17 18.5523 6.72228 19 6.17 19H1C0.447716 19 0 18.5523 0 18V9Z" fill="white"/>
<path d="M0 9C0 8.44772 0.447715 8 1 8H6.17C6.72228 8 7.17 8.44772 7.17 9V10C7.17 11.1046 6.27457 12 5.17 12H2C0.895431 12 0 11.1046 0 10V9Z" fill="#141414"/>
<path d="M7 8C7 8.55228 5.433 9 3.5 9C1.567 9 0 8.55228 0 8C0 7.44772 1.567 6.5 3.5 6.5C5.433 6.5 7 7.44772 7 8Z" fill="#141414"/>
<path d="M3.58315 11.1046C1.60435 11.1046 0 10.459 0 9.67133V11.1046C0 11.8976 1.60435 12.5378 3.58315 12.5378C5.56195 12.5378 7.16738 11.8922 7.16738 11.1046V9.67133C7.1663 10.4622 5.56303 11.1046 3.58315 11.1046Z" fill="#141414"/>
<path d="M3.58315 12.9693C1.60435 12.9693 0 12.3237 0 11.5371V12.9693C0 13.7623 1.60435 14.4036 3.58315 14.4036C5.56195 14.4036 7.16738 13.758 7.16738 12.9693V11.5371C7.1663 12.3291 5.56303 12.9693 3.58315 12.9693Z" fill="#141414"/>
<path d="M3.58315 14.8351C1.60435 14.8351 0 14.1895 0 13.4019V14.8351C0 15.6281 1.60435 16.2684 3.58315 16.2684C5.56195 16.2684 7.16738 15.6228 7.16738 14.8351V13.4019C7.1663 14.1949 5.56303 14.8351 3.58315 14.8351Z" fill="#141414"/>
<path d="M3.58315 16.701C1.60435 16.701 0 16.0553 0 15.2677V16.701C0 17.4929 1.60435 18.1353 3.58315 18.1353C5.56195 18.1353 7.16738 17.4897 7.16738 16.701V15.2677C7.1663 16.0597 5.56303 16.701 3.58315 16.701Z" fill="#141414"/>
<path d="M3.58315 18.5667C1.60435 18.5667 0 17.9211 0 17.1335V18.5667C0 19.3587 1.60435 20 3.58315 20C5.56195 20 7.16738 19.3544 7.16738 18.5667V17.1335C7.1663 17.9254 5.56303 18.5667 3.58315 18.5667Z" fill="#141414"/>
<path d="M3.58315 6.383C1.60435 6.383 0 7.02861 0 7.81625V9.25382C0 10.0468 1.60435 10.6871 3.58315 10.6871C5.56195 10.6871 7.16738 10.0415 7.16738 9.25382V7.81625C7.1663 7.0243 5.56303 6.383 3.58315 6.383ZM3.58315 8.89227C1.61511 8.89227 0.355087 8.25527 0.355087 7.81625C0.355087 7.37724 1.61188 6.74023 3.58315 6.74023C5.55442 6.74023 6.81122 7.37616 6.81122 7.81625C6.81122 8.25635 5.55227 8.89227 3.58315 8.89227Z" fill="white"/>
<path d="M3.85647 7.65266C3.4422 7.58594 3.27111 7.54505 3.27111 7.47296C3.27111 7.40087 3.37871 7.35675 3.68968 7.35675C3.92562 7.35707 4.16096 7.38049 4.39233 7.42669L4.53436 7.19212C4.30129 7.14785 4.06465 7.12516 3.82741 7.12433V6.94141H3.34858V7.13832C2.82779 7.18243 2.52543 7.32555 2.52543 7.50955C2.52543 7.71076 2.88159 7.81514 3.40239 7.88938C3.76285 7.94211 3.91888 7.99698 3.91888 8.07015C3.91888 8.14332 3.7295 8.19928 3.45081 8.19928C3.17922 8.19927 2.90849 8.16859 2.64379 8.10781L2.49745 8.34992C2.76953 8.40779 3.04675 8.43808 3.32491 8.4403V8.63722H3.80267V8.42201C4.36327 8.38005 4.66994 8.22187 4.66994 8.0368C4.66994 7.85172 4.43644 7.73981 3.85647 7.65266Z" fill="white"/>
<path d="M12.6324 3.70381H15.4021C15.5498 3.14419 15.8416 2.59865 16.1299 2.06465C16.4289 1.50905 16.709 0.988118 16.7364 0.59478C16.7403 0.522632 16.7292 0.450473 16.7038 0.382741C16.6784 0.31501 16.6392 0.25314 16.5888 0.200939C16.5296 0.137887 16.458 0.087521 16.3784 0.0529582C16.2987 0.0183955 16.2128 0.00037103 16.1259 0H11.8741C11.7834 0.00107861 11.6939 0.0204314 11.611 0.0568782C11.5281 0.093325 11.4536 0.146102 11.392 0.211991C11.3446 0.261562 11.3086 0.320656 11.2865 0.385243C11.2643 0.44983 11.2565 0.518388 11.2635 0.58624C11.3062 0.964508 11.5787 1.45781 11.863 1.97473C12.1584 2.50772 12.4771 3.102 12.6324 3.70331V3.70381Z" fill="#141414"/>
<path d="M8 11.32C8 8.55859 10.2386 6.32001 13 6.32001H15C17.7614 6.32001 20 8.55858 20 11.32V20H8V11.32Z" fill="white"/>
<path d="M12.2822 4.0896C12.0352 4.0896 11.7983 4.18672 11.6236 4.35959C11.449 4.53246 11.3508 4.76693 11.3508 5.01141C11.3508 5.25589 11.449 5.49035 11.6236 5.66323C11.7983 5.8361 12.0352 5.93322 12.2822 5.93322H12.6984C12.7182 5.93322 12.7375 5.9292 12.7608 5.9292H15.2387C15.2585 5.9292 15.2813 5.93322 15.3011 5.93322H15.7173C15.8396 5.93322 15.9607 5.90938 16.0737 5.86305C16.1867 5.81672 16.2894 5.74882 16.3759 5.66323C16.4623 5.57763 16.5309 5.47601 16.5778 5.36417C16.6246 5.25233 16.6487 5.13246 16.6487 5.01141C16.6487 4.89036 16.6246 4.77049 16.5778 4.65865C16.5309 4.54681 16.4623 4.44519 16.3759 4.35959C16.2894 4.27399 16.1867 4.20609 16.0737 4.15977C15.9607 4.11344 15.8396 4.0896 15.7173 4.0896H12.2822Z" fill="#141414"/>
<path d="M13.6397 15.7791V16.4784C13.6397 16.6922 13.8132 16.8658 14.0271 16.8658C14.2409 16.8658 14.4144 16.6922 14.4144 16.4784V15.7979C15.359 15.6483 15.9653 14.8873 16.0219 14.1477C16.0747 13.4622 15.671 12.6623 14.4144 12.373V10.6951C14.8635 10.8725 15.0999 11.3378 15.2106 11.641C15.2836 11.8422 15.5062 11.9453 15.7074 11.8724C15.9087 11.7994 16.0118 11.5768 15.9389 11.3756C15.7905 10.9681 15.3616 10.0826 14.4132 9.88762V9.52412C14.4132 9.31029 14.2396 9.13672 14.0258 9.13672C13.812 9.13672 13.6384 9.31029 13.6384 9.52412V9.8851C12.8108 10.0511 12.2825 10.7328 12.2322 11.3957C12.1844 12.017 12.5404 12.7378 13.6384 13.017V14.9691C13.1202 14.7691 12.8485 14.237 12.7215 13.8924C12.6485 13.6911 12.4259 13.588 12.2246 13.661C12.0234 13.7339 11.9203 13.9565 11.9932 14.159C12.1567 14.6005 12.6196 15.559 13.6397 15.7791ZM15.2509 14.0874C15.2219 14.4685 14.9062 14.8722 14.417 15.0043V13.1755C14.9754 13.3478 15.2823 13.6735 15.2509 14.0874ZM13.007 11.4548C13.0296 11.1504 13.2673 10.8284 13.6397 10.6913V12.2057C13.2133 12.0497 12.9818 11.7844 13.007 11.4548Z" fill="#141414"/>
</g>
<defs>
<clipPath id="clip0_1503_36511">
<rect width="20" height="20" fill="white"/>
</clipPath>
</defs>
</svg>
