<svg width="160" height="80" viewBox="0 0 160 80" fill="none" xmlns="http://www.w3.org/2000/svg">
<path d="M55 43.9799L69.3274 27H73.2368V43.4805H76.9261V47.1263H73.2368V52.9692H68.8575V47.1263H57.1597L55 43.9799ZM60.3791 43.5205H68.8575V33.3026L60.3791 43.5205Z" fill="white"/>
<path d="M82.125 27.2199H87.1141L82.125 32.214V27.2199Z" fill="white"/>
<path d="M104.461 35.0107C103.818 33.471 102.869 32.0779 101.671 30.9157C100.416 29.7341 98.9375 28.814 97.3223 28.2089C95.5435 27.5359 93.6554 27.1972 91.7533 27.2101H90.4435L82.125 35.5201V52.9994H91.7533C93.6558 53.0172 95.5448 52.6784 97.3223 52.0006C98.943 51.3975 100.423 50.4696 101.671 49.2738C102.869 48.1116 103.818 46.7185 104.461 45.1788C105.807 41.9194 105.807 38.2601 104.461 35.0007V35.0107ZM98.2322 46.4374C97.3703 47.2617 96.35 47.9027 95.2329 48.3216C94.1159 48.7405 92.9253 48.9285 91.7333 48.8744H86.6442V31.3651H91.7333C92.9289 31.3164 94.122 31.5118 95.2394 31.9394C96.3568 32.367 97.3751 33.0179 98.2322 33.8522C99.8238 35.5678 100.708 37.8205 100.708 40.1596C100.708 42.4988 99.8238 44.7515 98.2322 46.4671V46.4374Z" fill="white"/>
</svg>
