<svg width="320" height="36" viewBox="0 0 320 36" fill="none" xmlns="http://www.w3.org/2000/svg">
<path d="M135 21.9799L149.194 5H153.067V21.4805H156.722V25.1263H153.067V30.9692H148.728V25.1263H137.14L135 21.9799ZM140.329 21.5205H148.728V11.3026L140.329 21.5205Z" fill="#014586"/>
<path d="M161.872 5.21973H166.815L161.872 10.2138V5.21973Z" fill="#0089D0"/>
<path d="M184 13.0109C183.363 11.4712 182.423 10.0781 181.236 8.91589C179.992 7.73425 178.528 6.81414 176.928 6.20913C175.165 5.53606 173.295 5.19743 171.411 5.21032H170.113L161.872 13.5203V30.9996H171.411C173.295 31.0174 175.167 30.6786 176.928 30.0008C178.533 29.3977 180 28.4698 181.236 27.274C182.423 26.1118 183.363 24.7187 184 23.179C185.333 19.9196 185.333 16.2603 184 13.0009V13.0109ZM177.829 24.4375C176.975 25.2619 175.964 25.9029 174.858 26.3218C173.751 26.7407 172.572 26.9287 171.391 26.8746H166.349V9.3653H171.391C172.575 9.31658 173.757 9.51195 174.864 9.93958C175.971 10.3672 176.98 11.0181 177.829 11.8523C179.406 13.5679 180.282 15.8207 180.282 18.1598C180.282 20.4989 179.406 22.7517 177.829 24.4673V24.4375Z" fill="#014586"/>
</svg>
