<svg width="36" height="36" viewBox="0 0 36 36" fill="none" xmlns="http://www.w3.org/2000/svg">
<path d="M36 18.001C36 27.9005 27.9 36 18 36C8.1 36 0 27.9005 0 18.001C0 8.10159 8.1 0.0020501 18 0.0020501C27.9 -0.147941 36 7.9516 36 18.001Z" fill="#E50A14"/>
<path d="M28.0914 20.0101C27.0475 25.5191 21.6792 29.0925 16.1617 28.0503C10.6442 27.008 7.06533 21.6479 8.10918 16.1389C9.15303 10.6298 14.5214 7.05639 20.0389 8.09864C25.5563 9.14089 29.1352 14.501 28.0914 20.0101Z" fill="#141414"/>
<path d="M26.7548 2.2918C25.1145 1.39845 23.4742 0.802877 21.6847 0.356198C19.8953 0.0584123 17.9567 -0.0904817 16.1672 0.0584112C17.5093 1.39845 19.1497 2.29181 21.0882 2.73848C23.0268 3.18516 24.9654 3.03627 26.7548 2.2918Z" fill="#141414"/>
<path d="M9.45189 33.7082C11.0922 34.6016 12.7325 35.1971 14.522 35.6438C16.3114 35.9416 18.25 36.0905 20.0395 35.9416C18.6974 34.6016 17.0571 33.7082 15.1185 33.2615C13.0308 32.8148 11.0922 32.9637 9.45189 33.7082Z" fill="#141414"/>
<path d="M35.8435 15.9899C34.5014 17.33 33.6067 18.9678 33.1593 20.9034C32.7119 22.839 33.0102 24.7746 33.6067 26.5613C34.5014 24.9235 35.0979 23.2857 35.5452 21.3501C35.9926 19.7123 36.1417 17.7767 35.8435 15.9899Z" fill="#141414"/>
<path d="M2.29532 9.28977C1.40059 10.9276 0.804102 12.5654 0.356739 14.3521C0.0584972 16.1388 -0.0906193 18.0744 0.0585017 19.8612C1.40059 18.5211 2.29532 16.8833 2.74268 14.9477C3.19005 13.0121 3.04092 11.0765 2.29532 9.28977Z" fill="#141414"/>
<path d="M18.6077 20.256C18.6077 19.2427 18.517 18.5333 18.3357 18.128C18.165 17.7227 17.7704 17.52 17.1517 17.52C16.533 17.52 15.8557 17.7493 15.1197 18.208L14.8477 18.08V12.976L15.1037 12.784C15.7544 12.88 16.741 12.9973 18.0637 13.136C19.3864 13.264 20.149 13.328 20.3517 13.328C20.565 13.328 20.7144 13.28 20.7997 13.184C20.8957 13.0773 20.9757 12.9013 21.0397 12.656L21.2797 12.688C21.1197 14.32 20.9117 15.2907 20.6557 15.6C20.517 15.76 20.341 15.84 20.1277 15.84C19.9144 15.84 19.4664 15.7493 18.7837 15.568L15.2957 14.656L15.2157 17.76C15.9944 17.344 16.7997 17.136 17.6317 17.136C18.4637 17.136 19.157 17.232 19.7117 17.424C20.2664 17.6053 20.693 17.8613 20.9917 18.192C21.557 18.8213 21.8397 19.584 21.8397 20.48C21.8397 21.6213 21.429 22.5227 20.6077 23.184C19.797 23.8347 18.677 24.16 17.2477 24.16C16.4797 24.16 15.7704 24 15.1197 23.68C14.7677 23.4987 14.4797 23.2427 14.2557 22.912C14.0424 22.5707 13.9357 22.1813 13.9357 21.744C13.9357 21.296 14.0584 20.928 14.3037 20.64C14.5597 20.352 14.9064 20.208 15.3437 20.208C15.7917 20.208 16.1384 20.32 16.3837 20.544C16.6397 20.7573 16.7677 21.04 16.7677 21.392C16.7677 21.7333 16.7197 22.0267 16.6237 22.272H16.0957C16.0317 22.4427 15.9997 22.6453 15.9997 22.88C15.9997 23.104 16.0904 23.3227 16.2717 23.536C16.453 23.7387 16.7197 23.84 17.0717 23.84C17.4237 23.84 17.6904 23.7867 17.8717 23.68C18.053 23.5627 18.1917 23.424 18.2877 23.264C18.3837 23.104 18.4584 22.8533 18.5117 22.512C18.5757 22.0213 18.6077 21.2693 18.6077 20.256Z" fill="white"/>
</svg>
