<svg width="36" height="36" viewBox="0 0 36 36" fill="none" xmlns="http://www.w3.org/2000/svg">
<path d="M36 18.001C36 27.9005 27.9 36 18 36C8.1 36 0 27.9005 0 18.001C0 8.10159 8.1 0.0020501 18 0.0020501C27.9 -0.147941 36 7.9516 36 18.001Z" fill="#141414"/>
<path d="M28.1445 16.7267C28.8904 22.2694 25.0116 27.5126 19.3427 28.2616C13.8229 29.0106 8.60145 25.1157 7.85553 19.4231C7.10961 13.8804 10.9884 8.63724 16.6573 7.88822C22.1771 7.1392 27.3986 11.0341 28.1445 16.7267ZM20.9837 0.248206C19.1935 -0.0514025 17.4033 -0.051406 15.4639 0.0983982C13.5245 0.398007 11.8835 0.847419 10.2425 1.59644C11.8835 2.34546 13.8229 2.79488 15.7622 2.49527C17.8508 2.34546 19.641 1.44664 20.9837 0.248206ZM14.8671 35.7518C16.6574 36.0514 18.4475 36.0514 20.3869 35.9016C22.3263 35.602 23.9673 35.1526 25.6084 34.4036C23.9673 33.6545 22.028 33.2051 20.0886 33.5047C18.1492 33.8043 16.359 34.5534 14.8671 35.7518ZM34.261 10.2851C33.5151 11.9329 33.0675 13.8804 33.3659 15.8278C33.6643 17.7753 34.4102 19.5729 35.7528 21.071C36.0512 19.2733 36.0512 17.4757 35.902 15.5282C35.4545 13.7306 35.0069 11.9329 34.261 10.2851ZM0.247175 14.929C-0.0511922 16.7267 -0.0511913 18.5243 0.0979921 20.4718C0.396359 22.4192 0.843909 24.0671 1.58983 25.7149C2.33574 24.0671 2.78329 22.1196 2.48493 20.1722C2.33574 18.0749 1.44064 16.4271 0.247175 14.929Z" fill="#E50A14"/>
<path d="M13.6143 19.072C13.6143 17.0133 14.073 15.424 14.9903 14.304C15.9183 13.184 17.1876 12.624 18.7983 12.624C19.897 12.624 20.7396 12.848 21.3263 13.296C21.913 13.7333 22.2063 14.3093 22.2063 15.024C22.2063 15.4293 22.073 15.7813 21.8063 16.08C21.5503 16.368 21.209 16.512 20.7823 16.512C20.3556 16.512 20.0143 16.4 19.7583 16.176C19.5023 15.9413 19.3743 15.6693 19.3743 15.36C19.3743 15.04 19.417 14.7627 19.5023 14.528H20.0143C20.0783 14.3573 20.1103 14.1653 20.1103 13.952C20.1103 13.28 19.7316 12.944 18.9743 12.944C18.217 12.944 17.6623 13.3387 17.3103 14.128C16.9583 14.9067 16.777 16.256 16.7663 18.176C17.321 17.312 18.1263 16.88 19.1823 16.88C20.2383 16.88 21.0703 17.168 21.6783 17.744C22.2863 18.3093 22.5903 19.1627 22.5903 20.304C22.5903 21.4453 22.1903 22.3733 21.3903 23.088C20.5903 23.8027 19.5183 24.16 18.1743 24.16C15.1343 24.16 13.6143 22.464 13.6143 19.072ZM18.3663 17.408C18.0036 17.408 17.6943 17.5467 17.4383 17.824C17.193 18.0907 17.0223 18.4107 16.9263 18.784C16.841 19.1467 16.7983 19.6267 16.7983 20.224C16.7983 20.8107 16.7983 21.2213 16.7983 21.456C16.809 21.68 16.825 21.952 16.8463 22.272C16.8783 22.5813 16.921 22.8107 16.9743 22.96C17.0276 23.0987 17.1023 23.248 17.1983 23.408C17.369 23.6853 17.641 23.824 18.0143 23.824C18.3876 23.824 18.665 23.7547 18.8463 23.616C19.0383 23.4667 19.177 23.2213 19.2623 22.88C19.3903 22.3787 19.4543 21.7547 19.4543 21.008C19.4543 20.2613 19.449 19.7653 19.4383 19.52C19.4383 19.2747 19.4276 19.0187 19.4063 18.752C19.385 18.4747 19.3476 18.2667 19.2943 18.128C19.2516 17.9893 19.193 17.856 19.1183 17.728C18.9796 17.5147 18.729 17.408 18.3663 17.408Z" fill="white"/>
</svg>
