<svg width="36" height="36" viewBox="0 0 36 36" fill="none" xmlns="http://www.w3.org/2000/svg">
<path d="M36 18.001C36 27.9005 27.9 36 18 36C8.1 36 0 27.9005 0 18.001C0 8.10159 8.1 0.0020501 18 0.0020501C27.9 -0.147941 36 7.9516 36 18.001Z" fill="#E50A14"/>
<path d="M28.0755 19.8658C27.0306 25.3887 21.8063 29.1203 16.1342 28.0755C10.6113 27.0306 6.87969 21.8063 7.92455 16.1342C8.96942 10.6113 14.1937 6.87969 19.8658 7.92455C25.3887 8.96941 29.1203 14.343 28.0755 19.8658ZM26.4335 2.10318C24.7916 1.20758 23.1497 0.610525 21.2092 0.311993C19.418 0.0134616 17.4776 -0.135808 15.6864 0.162724C17.0298 1.50612 18.821 2.40171 20.7614 2.70025C22.7019 2.99878 24.6423 2.84951 26.4335 2.10318ZM9.56648 33.8968C11.2084 34.7924 12.8503 35.3895 14.7908 35.688C16.582 35.9865 18.5224 36.1358 20.3136 35.8373C18.9702 34.4939 17.179 33.5983 15.2386 33.2998C13.2981 33.0012 11.3577 33.1505 9.56648 33.8968ZM35.8373 15.8356C34.4939 17.179 33.5983 18.9702 33.2998 20.9107C33.0012 22.8511 33.1505 24.7916 33.8968 26.5828C34.7924 24.9409 35.3895 23.2989 35.688 21.3585C35.9865 19.418 36.1358 17.4776 35.8373 15.8356ZM2.10318 9.56648C1.20759 11.2084 0.610521 12.8503 0.31199 14.7908C0.0134578 16.582 -0.135806 18.5224 0.162726 20.3136C1.50612 18.9702 2.40172 17.179 2.70025 15.2386C3.14805 13.2981 2.84951 11.3577 2.10318 9.56648Z" fill="#141414"/>
<path d="M17.6819 24.16C17.1059 24.16 16.6525 24.0053 16.3219 23.696C15.9912 23.376 15.8259 22.9867 15.8259 22.528C15.8259 22.0587 15.9805 21.5467 16.2899 20.992C16.6099 20.4267 17.2979 19.5307 18.3539 18.304L20.9939 15.248H16.8979C16.1405 15.248 15.6392 15.344 15.3939 15.536C15.1592 15.7173 14.9725 16.16 14.8339 16.864H14.5779L14.7539 12.8H21.9219V14.528L20.1459 17.632C19.3565 19.0293 18.8499 20.032 18.6259 20.64C18.4125 21.2373 18.3059 21.808 18.3059 22.352C18.3059 22.896 18.4659 23.3973 18.7859 23.856L18.6739 24.048C18.3752 24.1227 18.0445 24.16 17.6819 24.16Z" fill="white"/>
</svg>
