<svg width="36" height="36" viewBox="0 0 36 36" fill="none" xmlns="http://www.w3.org/2000/svg">
<path d="M36 18.001C36 27.9005 27.9 36 18 36C8.1 36 0 27.9005 0 18.001C0 8.10159 8.1 0.0020501 18 0.0020501C27.9 -0.147941 36 7.9516 36 18.001Z" fill="#141414"/>
<path d="M28.0503 16.8039C28.6458 22.4853 24.6257 27.4192 18.9678 28.0172C13.3099 28.6153 8.39641 24.5785 7.80084 18.8971C7.20526 13.2156 11.2254 8.28177 16.8833 7.68373C22.5412 7.23519 27.4547 11.272 28.0503 16.8039ZM21.499 0.357677C19.7123 0.0586549 17.9256 -0.0908574 15.9899 0.0586538C14.0543 0.208165 12.4165 0.806212 10.7787 1.40426C12.4165 2.30132 14.3521 2.60035 16.2877 2.45084C18.3722 2.30133 20.159 1.55377 21.499 0.357677ZM14.501 35.6423C16.2877 35.9413 18.0744 36.0909 20.0101 35.9413C21.9457 35.7918 23.5835 35.1938 25.2213 34.5957C23.5835 33.6987 21.6479 33.3996 19.7123 33.5492C17.7767 33.6987 15.8411 34.4462 14.501 35.6423ZM34.4527 10.674C33.5593 12.3186 33.2615 14.2622 33.4104 16.2059C33.5593 18.1495 34.4527 19.9436 35.6438 21.4388C35.9416 19.6446 36.0905 17.8505 35.9416 15.9068C35.6438 14.1127 35.0482 12.3186 34.4527 10.674ZM0.356193 14.4117C0.0584077 16.2059 -0.0904807 18 0.0584122 19.9436C0.207305 21.8873 0.802879 23.5319 1.39845 25.1765C2.29181 23.5319 2.58959 21.5883 2.4407 19.6446C2.2918 17.5515 1.54734 15.9068 0.356193 14.4117Z" fill="#E50A14"/>
<path d="M17.0934 18.112C16.0587 18.0587 15.2534 17.8027 14.6774 17.344C14.1014 16.8747 13.8134 16.272 13.8134 15.536C13.8134 14.64 14.1707 13.9307 14.8854 13.408C15.6 12.8853 16.6454 12.624 18.0214 12.624C19.3974 12.624 20.4374 12.8693 21.1414 13.36C21.8454 13.8507 22.1974 14.512 22.1974 15.344C22.1974 16.1653 21.9254 16.816 21.3814 17.296C20.8374 17.7653 20.0534 18.0373 19.0294 18.112V18.16C21.3334 18.352 22.4854 19.328 22.4854 21.088C22.4854 22.112 22.1227 22.88 21.3974 23.392C20.6827 23.904 19.5627 24.16 18.0374 24.16C15.0187 24.16 13.5094 23.1413 13.5094 21.104C13.5094 19.3013 14.704 18.32 17.0934 18.16V18.112ZM19.4294 21.088C19.4294 20.096 19.3334 19.3867 19.1414 18.96C18.9494 18.5333 18.576 18.32 18.0214 18.32C17.4774 18.32 17.1094 18.5387 16.9174 18.976C16.7254 19.4027 16.6294 20.112 16.6294 21.104C16.6294 22.0853 16.72 22.784 16.9014 23.2C17.0934 23.616 17.472 23.824 18.0374 23.824C18.6027 23.824 18.976 23.616 19.1574 23.2C19.3387 22.7733 19.4294 22.0693 19.4294 21.088ZM18.0374 12.96C17.568 12.96 17.264 13.152 17.1254 13.536C16.9974 13.9093 16.9334 14.4213 16.9334 15.072C16.9334 15.712 16.9387 16.144 16.9494 16.368C16.96 16.5813 16.9814 16.8053 17.0134 17.04C17.056 17.2747 17.12 17.4507 17.2054 17.568C17.3867 17.824 17.68 17.952 18.0854 17.952C18.448 17.952 18.72 17.824 18.9014 17.568C19.04 17.3653 19.1147 17.0667 19.1254 16.672C19.136 16.2667 19.1414 15.7387 19.1414 15.088C19.1414 14.4267 19.072 13.9093 18.9334 13.536C18.8054 13.152 18.5067 12.96 18.0374 12.96Z" fill="white"/>
</svg>
