<svg width="36" height="36" viewBox="0 0 36 36" fill="none" xmlns="http://www.w3.org/2000/svg">
<path d="M36 18.001C36 27.9005 27.9 36 18 36C8.1 36 0 27.9005 0 18.001C0 8.10159 8.1 0.0020501 18 0.0020501C28.05 -0.147941 36 7.9516 36 18.001Z" fill="#E50A14"/>
<path d="M28.1577 19.575C27.2614 25.125 22.0332 29.025 16.5062 28.125C10.9793 27.225 7.09543 21.975 7.9917 16.425C8.88796 10.875 14.1162 6.975 19.6432 7.875C25.1701 8.775 28.9046 14.025 28.1577 19.575ZM26.0664 1.875C24.4232 1.125 22.7801 0.525 20.8382 0.225C19.0456 -0.075 17.1037 -0.075 15.3112 0.225C16.6556 1.425 18.4481 2.325 20.39 2.625C22.3319 2.925 24.2739 2.625 26.0664 1.875ZM9.93361 34.125C11.5768 34.875 13.2199 35.475 15.1618 35.775C16.9544 36.075 18.8963 36.075 20.6888 35.775C19.3444 34.575 17.5519 33.675 15.61 33.375C13.6681 33.075 11.7261 33.375 9.93361 34.125ZM35.7759 15.375C34.5809 16.725 33.6846 18.525 33.3859 20.475C33.0871 22.425 33.3859 24.375 34.1328 26.175C34.8797 24.525 35.4772 22.725 35.7759 20.925C36.0747 18.975 36.0747 17.175 35.7759 15.375ZM1.86722 9.975C1.12033 11.625 0.522822 13.275 0.224066 15.225C-0.0746888 17.025 -0.0746888 18.975 0.224066 20.775C1.41909 19.425 2.31535 17.625 2.61411 15.675C2.91286 13.575 2.61411 11.625 1.86722 9.975Z" fill="#141414"/>
<path d="M22.4143 17.712C22.4143 19.7813 21.961 21.376 21.0543 22.496C20.1583 23.6053 18.9103 24.16 17.3103 24.16C16.1903 24.16 15.3103 23.9467 14.6703 23.52C14.041 23.0933 13.7263 22.5387 13.7263 21.856C13.7263 21.4293 13.8543 21.0613 14.1103 20.752C14.377 20.432 14.7236 20.272 15.1503 20.272C15.5876 20.272 15.929 20.3893 16.1743 20.624C16.4303 20.848 16.5583 21.12 16.5583 21.44C16.5583 21.7493 16.5156 22.0213 16.4303 22.256H15.9503C15.8756 22.416 15.8383 22.624 15.8383 22.88C15.8383 23.1253 15.9503 23.3493 16.1743 23.552C16.409 23.744 16.7503 23.84 17.1983 23.84C17.913 23.84 18.4303 23.4507 18.7503 22.672C19.081 21.8933 19.2516 20.5387 19.2623 18.608C18.7076 19.472 17.865 19.904 16.7343 19.904C15.7743 19.904 14.985 19.5947 14.3663 18.976C13.7476 18.3573 13.4383 17.5093 13.4383 16.432C13.4383 15.152 13.8596 14.1973 14.7023 13.568C15.5556 12.9387 16.6436 12.624 17.9663 12.624C20.9316 12.624 22.4143 14.32 22.4143 17.712ZM17.6623 19.376C18.025 19.376 18.329 19.2427 18.5743 18.976C18.8303 18.6987 19.001 18.3787 19.0863 18.016C19.1823 17.6427 19.2303 17.1627 19.2303 16.576C19.2303 15.9787 19.225 15.568 19.2143 15.344C19.2143 15.1093 19.2036 14.8373 19.1823 14.528C19.161 14.208 19.1236 13.9787 19.0703 13.84C19.017 13.6907 18.9476 13.536 18.8623 13.376C18.7023 13.0987 18.409 12.96 17.9823 12.96C17.5023 12.96 17.145 13.152 16.9103 13.536C16.729 13.8453 16.6223 14.3787 16.5903 15.136C16.5796 15.4027 16.5743 15.7653 16.5743 16.224C16.5743 16.672 16.5743 17.0187 16.5743 17.264C16.585 17.5093 16.601 17.7707 16.6223 18.048C16.6436 18.3147 16.6756 18.5173 16.7183 18.656C16.7716 18.7947 16.8356 18.928 16.9103 19.056C17.049 19.2693 17.2996 19.376 17.6623 19.376Z" fill="white"/>
</svg>
