<svg width="40" height="40" viewBox="0 0 40 40" fill="none" xmlns="http://www.w3.org/2000/svg">
<g clip-path="url(#clip0_1701_6246)">
<path fill-rule="evenodd" clip-rule="evenodd" d="M28 25.8081C28 32.9863 22.1763 38.8081 14.9958 38.8081C7.81524 38.8081 2 32.9863 2 25.8081C2 18.6299 7.82366 12.8081 15.0042 12.8081C19.2519 12.8081 18.2574 18.335 20.6256 21.486C22.2606 23.6681 28 22.8846 28 25.8081Z" fill="#141414"/>
<path fill-rule="evenodd" clip-rule="evenodd" d="M19.053 8.57129C20.003 8.57129 20.9121 8.9468 21.5837 9.61619C22.2553 10.2856 22.632 11.1917 22.632 12.1386V15.7141H29.7982C31.2315 15.6815 31.944 16.155 31.944 17.1427C31.944 18.0652 31.3134 18.5468 30.0521 18.5713H22.6238L22.7303 20.0488C22.7876 20.8244 23.4346 21.4284 24.2127 21.4284H29.3805C30.5107 21.4284 31.5427 22.0652 32.0505 23.0774L37.7015 34.4978C38.3076 35.6244 38.0373 37.0121 36.4566 37.6325C34.876 38.2529 33.754 37.6325 33.2544 36.7264L28.365 27.1509L18.4306 27.1019C17.6443 27.1019 16.8909 26.7835 16.334 26.2284C15.777 25.6733 15.4658 24.9223 15.4658 24.1386V12.1468C15.4658 11.1999 15.8426 10.2937 16.5141 9.62435C17.1857 8.9468 18.103 8.57129 19.053 8.57129Z" fill="#E50A14"/>
<path fill-rule="evenodd" clip-rule="evenodd" d="M19.0528 0C20.3305 0 21.518 0.677551 22.1568 1.78776C22.7956 2.8898 22.7956 4.25306 22.1568 5.36327C21.518 6.46531 20.3305 7.15102 19.0528 7.15102C17.7752 7.15102 16.5877 6.47347 15.9488 5.36327C15.31 4.26122 15.31 2.89796 15.9488 1.78776C16.5877 0.677551 17.767 0 19.0528 0Z" fill="#E50A14"/>
</g>
<defs>
<clipPath id="clip0_1701_6246">
<rect width="40" height="40" fill="white"/>
</clipPath>
</defs>
</svg>
