<svg width="50" height="50" viewBox="0 0 50 50" fill="none" xmlns="http://www.w3.org/2000/svg">
<g clip-path="url(#clip0_1813_1121)">
<path d="M24.6766 13.695C19.7296 13.695 15.7188 12.0809 15.7188 10.1118V13.695C15.7188 15.6748 19.7296 17.2781 24.6766 17.2781C29.6236 17.2781 33.6264 15.6748 33.6264 13.695V10.1118C33.6264 12.1051 29.6263 13.695 24.6766 13.695Z" fill="#141414"/>
<path d="M33.25 6.25C33.25 7.63071 29.8325 8.75 25 8.75C20.1675 8.75 16.25 6.38071 16.25 5C16.25 3.61929 20.1675 2.5 25 2.5C31.25 2.5 33.25 4.86929 33.25 6.25Z" fill="#141414"/>
<rect x="19.8008" y="32.5" width="17.925" height="15" rx="1" fill="#E50A14"/>
<rect x="19.8008" y="32.5" width="17.925" height="5" fill="#141414"/>
<path d="M0 22.5C0 21.1193 1.11929 20 2.5 20H15.425C16.8057 20 17.925 21.1193 17.925 22.5V45C17.925 46.3807 16.8057 47.5 15.425 47.5H2.5C1.11929 47.5 0 46.3807 0 45V22.5Z" fill="#E50A14"/>
<path d="M0 21C0 20.4477 0.447715 20 1 20H16.925C17.4773 20 17.925 20.4477 17.925 21V28C17.925 29.1046 17.0296 30 15.925 30H2C0.895432 30 0 29.1046 0 28V21Z" fill="#141414"/>
<path d="M17.5 20C17.5 21.3807 13.5825 22.5 8.75 22.5C3.91751 22.5 0 21.3807 0 20C0 18.6193 3.91751 16.25 8.75 16.25C13.5825 16.25 17.5 18.6193 17.5 20Z" fill="#141414"/>
<path d="M37.6582 29.478C37.6582 30.8587 33.7407 31.978 28.9082 31.978C24.0757 31.978 20.1582 30.8587 20.1582 29.478C20.1582 28.0973 24.0757 25.728 28.9082 25.728C33.7407 25.728 37.6582 28.0973 37.6582 29.478Z" fill="#141414"/>
<path d="M24.6766 1.88281C19.7296 1.88281 15.7188 3.49684 15.7188 5.46596V9.05987C15.7188 11.0424 19.7296 12.643 24.6766 12.643C29.6236 12.643 33.6264 11.029 33.6264 9.05987V5.47672C33.6264 3.49684 29.6263 1.88281 24.6766 1.88281ZM24.6766 8.15332C19.7538 8.15332 16.6065 6.56081 16.6065 5.46327C16.6065 4.36573 19.7458 2.77322 24.6766 2.77322C29.6075 2.77322 32.7468 4.36573 32.7468 5.46327C32.7468 6.56081 29.5914 8.16408 24.6766 8.16408V8.15332Z" fill="#E50A14"/>
<path d="M25.3585 5.06523C24.3228 4.89845 23.8951 4.79623 23.8951 4.61869C23.8951 4.44114 24.1641 4.32547 24.9415 4.32547C25.5313 4.32626 26.1197 4.38483 26.6981 4.50032L27.0532 3.91389C26.4705 3.80311 25.8789 3.74638 25.2858 3.74442V3.28711H24.0915V3.77939C22.7868 3.88699 22.0309 4.24746 22.0309 4.70477C22.0309 5.2105 22.9186 5.46874 24.226 5.65436C25.1244 5.78348 25.5172 5.90991 25.5172 6.10629C25.5172 6.30266 25.041 6.42909 24.3443 6.42909C23.6653 6.42908 22.9885 6.35237 22.3268 6.20044L21.9609 6.80839C22.6424 6.95078 23.3362 7.02557 24.0323 7.03166V7.53201H25.2213V6.994C26.6228 6.89178 27.3894 6.49634 27.3894 6.03096C27.3894 5.56558 26.8057 5.28582 25.3585 5.06523Z" fill="#E50A14"/>
<path d="M24.6766 18.3598C22.9833 18.3778 21.2949 18.1743 19.6543 17.7545C19.9576 18.3059 20.1168 18.9249 20.117 19.5542V21.4372C21.6161 21.7866 23.1508 21.9599 24.6901 21.9537C29.6398 21.9537 33.648 20.3397 33.648 18.3678V14.7739C33.6264 16.7565 29.6263 18.3598 24.6766 18.3598Z" fill="#141414"/>
<path d="M24.6766 23.0243C23.1375 23.03 21.603 22.8576 20.1035 22.5105V25.0445C22.2905 23.7183 25.5858 23.0862 28.744 23.0862C30.336 23.0828 31.9239 23.2478 33.4811 23.5785C33.5619 23.4031 33.6093 23.2143 33.621 23.0216V19.4385C33.6264 21.4183 29.6263 23.0243 24.6766 23.0243Z" fill="#141414"/>
<path d="M8.95788 27.7614C4.01087 27.7614 0 26.1473 0 24.1782V27.7614C0 29.7439 4.01087 31.3445 8.95788 31.3445C13.9049 31.3445 17.9184 29.7305 17.9184 27.7614V24.1782C17.9158 26.1554 13.9076 27.7614 8.95788 27.7614Z" fill="#141414"/>
<path d="M8.95788 32.4232C4.01087 32.4232 0 30.8092 0 28.8428V32.4232C0 34.4058 4.01087 36.0091 8.95788 36.0091C13.9049 36.0091 17.9184 34.395 17.9184 32.4232V28.8428C17.9158 30.8227 13.9076 32.4232 8.95788 32.4232Z" fill="#141414"/>
<path d="M8.95788 37.0875C4.01087 37.0875 0 35.4735 0 33.5044V37.0875C0 39.0701 4.01087 40.6707 8.95788 40.6707C13.9049 40.6707 17.9184 39.0567 17.9184 37.0875V33.5044C17.9158 35.487 13.9076 37.0875 8.95788 37.0875Z" fill="#141414"/>
<path d="M8.95788 41.7521C4.01087 41.7521 0 40.1381 0 38.1689V41.7521C0 43.732 4.01087 45.3379 8.95788 45.3379C13.9049 45.3379 17.9184 43.7239 17.9184 41.7521V38.1689C17.9158 40.1488 13.9076 41.7521 8.95788 41.7521Z" fill="#141414"/>
<path d="M8.95788 46.4166C4.01087 46.4166 0 44.8026 0 42.8335V46.4166C0 48.3965 4.01087 49.9998 8.95788 49.9998C13.9049 49.9998 17.9184 48.3858 17.9184 46.4166V42.8335C17.9158 44.8134 13.9076 46.4166 8.95788 46.4166Z" fill="#141414"/>
<path d="M8.95788 15.9575C4.01087 15.9575 0 17.5715 0 19.5407V23.1346C0 25.1171 4.01087 26.7177 8.95788 26.7177C13.9049 26.7177 17.9184 25.1037 17.9184 23.1346V19.5407C17.9158 17.5608 13.9076 15.9575 8.95788 15.9575ZM8.95788 22.2307C4.03777 22.2307 0.887718 20.6382 0.887718 19.5407C0.887718 18.4431 4.0297 16.8506 8.95788 16.8506C13.8861 16.8506 17.028 18.4404 17.028 19.5407C17.028 20.6409 13.8807 22.2307 8.95788 22.2307Z" fill="#E50A14"/>
<path d="M9.64168 19.1316C8.60601 18.9649 8.17829 18.8626 8.17829 18.6824C8.17829 18.5022 8.44729 18.3919 9.22472 18.3919C9.81456 18.3927 10.4029 18.4512 10.9813 18.5667L11.3364 17.9803C10.7537 17.8696 10.1621 17.8129 9.56905 17.8108V17.3535H8.37197V17.8458C7.06999 17.9561 6.31408 18.3139 6.31408 18.7739C6.31408 19.2769 7.20449 19.5378 8.50648 19.7235C9.40764 19.8553 9.7977 19.9925 9.7977 20.1754C9.7977 20.3583 9.32425 20.4982 8.62753 20.4982C7.94855 20.4982 7.27175 20.4215 6.60999 20.2695L6.24414 20.8748C6.92434 21.0195 7.6174 21.0952 8.31279 21.1008V21.593H9.50718V21.055C10.9087 20.9501 11.6754 20.5547 11.6754 20.092C11.6754 19.6293 11.0916 19.3495 9.64168 19.1316Z" fill="#E50A14"/>
<path d="M28.7567 37.0878C23.8097 37.0878 19.7988 35.4738 19.7988 33.5073V37.0878C19.7988 39.0704 23.8124 40.6709 28.7567 40.6709C33.701 40.6709 37.7173 39.0704 37.7173 37.0878V33.5073C37.7173 35.4872 33.7064 37.0878 28.7567 37.0878Z" fill="#141414"/>
<path d="M28.7567 41.7523C23.8097 41.7523 19.7988 40.1383 19.7988 38.1665V41.7523C19.7988 43.7322 23.8124 45.3382 28.7567 45.3382C33.701 45.3382 37.7173 43.7242 37.7173 41.7523V38.1665C37.7173 40.1491 33.7064 41.7523 28.7567 41.7523Z" fill="#141414"/>
<path d="M28.7567 46.4166C23.8097 46.4166 19.7988 44.8026 19.7988 42.8335V46.4166C19.7988 48.3938 23.8124 49.9998 28.7567 49.9998C33.701 49.9998 37.7173 48.3858 37.7173 46.4166V42.8335C37.7173 44.8134 33.7064 46.4166 28.7567 46.4166Z" fill="#141414"/>
<path d="M28.7567 25.2866C23.8097 25.2866 19.7988 26.9007 19.7988 28.8698V32.4529C19.7988 34.4328 23.8124 36.0469 28.7567 36.0469C33.701 36.0469 37.7173 34.4328 37.7173 32.4637V28.8698C37.7173 26.9007 33.7064 25.2866 28.7567 25.2866ZM28.7567 31.5571C23.8339 31.5571 20.6865 29.9673 20.6865 28.8671C20.6865 27.7669 23.8231 26.177 28.7567 26.177C33.6903 26.177 36.8269 27.7669 36.8269 28.8671C36.8269 29.9673 33.6822 31.5571 28.7567 31.5571Z" fill="#E50A14"/>
<path d="M29.4398 28.4583C28.4041 28.2915 27.9764 28.1893 27.9764 28.0091C27.9764 27.8288 28.2454 27.7212 29.0228 27.7212C29.6128 27.7213 30.2013 27.7807 30.7794 27.8988L31.1345 27.3096C30.552 27.1978 29.9603 27.1402 29.3671 27.1375V26.6802H28.1728V27.1698C26.8681 27.2774 26.1122 27.6351 26.1122 28.0951C26.1122 28.5982 26.9999 28.8591 28.3073 29.042C29.2057 29.1739 29.5985 29.311 29.5985 29.4967C29.5985 29.6823 29.1223 29.8195 28.4256 29.8195C27.7467 29.8181 27.0701 29.7414 26.4081 29.5908L26.0449 30.1988C26.725 30.344 27.4182 30.4188 28.1136 30.422V30.9358H29.3053V30.3978C30.7041 30.2929 31.4735 29.9002 31.4735 29.4348C31.4735 28.9694 30.8897 28.6762 29.4398 28.4583Z" fill="#E50A14"/>
<path d="M41.1176 39.4782C41.1176 39.7664 41.3599 40 41.6589 40H45.8441C46.143 40 46.3853 39.7664 46.3853 39.4782V11.0445C46.3853 10.7563 46.6276 10.5227 46.9265 10.5227H49.4579C49.8752 10.5227 50.1355 10.0869 49.926 9.73905L44.2181 0.25982C44.0095 -0.0866074 43.4905 -0.0866065 43.2819 0.259821L37.574 9.73906C37.3645 10.0869 37.6248 10.5227 38.0421 10.5227H40.5764C40.8753 10.5227 41.1176 10.7563 41.1176 11.0445V39.4782Z" fill="#E50A14"/>
</g>
<defs>
<clipPath id="clip0_1813_1121">
<rect width="50" height="50" fill="white"/>
</clipPath>
</defs>
</svg>
