<svg width="80" height="80" viewBox="0 0 80 80" fill="none" xmlns="http://www.w3.org/2000/svg">
<g clip-path="url(#clip0_1801_1330)">
<path d="M75.9309 64.3387C72.7014 51.6684 60.9767 42.6707 47.5512 42.6707H34.8128C33.5838 42.7175 32.421 43.2294 31.5684 44.0988C30.7157 44.9682 30.2395 46.1277 30.2395 47.3341C30.2395 48.5404 30.7157 49.6999 31.5684 50.5694C32.421 51.4388 33.5838 51.9506 34.8128 51.9975H51.4588C51.9001 52.0115 52.3185 52.1934 52.6256 52.5045C52.9327 52.8157 53.1044 53.2318 53.1044 53.6648C53.1044 54.0979 52.9327 54.514 52.6256 54.8252C52.3185 55.1363 51.9001 55.3182 51.4588 55.3322H28.8526C26.8584 55.3391 24.8858 54.9261 23.0683 54.121C21.2508 53.3158 19.6307 52.1374 18.3174 50.6653L9.14579 40.6716C7.10586 38.5053 3.70775 38.3381 1.66782 40.339C-0.370328 42.1709 -0.540773 45.3385 1.15828 47.5048L12.3752 60.5059C17.4724 66.3396 24.9504 69.8327 32.7675 69.8327H42.9546C44.3183 69.8238 45.6703 70.0807 46.932 70.5884C48.1937 71.0962 49.34 71.8446 50.3044 72.7904C51.2688 73.7362 52.0321 74.8604 52.5499 76.0978C53.0678 77.3353 53.3299 78.6613 53.3211 79.9989H80L75.9309 64.3387Z" fill="#E50A14"/>
<path d="M47.0287 13.8231C45.7128 9.76975 43.1389 6.28505 39.7649 3.82689C36.4664 1.42407 32.4055 0.00251603 28.0125 0H27.9974C23.6044 0.00251603 19.5436 1.42407 16.245 3.82689C12.871 6.28253 10.2971 9.76724 8.98125 13.8231C8.34721 15.7705 8 17.8462 8 20.005C8 22.1612 8.3447 24.2369 8.97622 26.1843C10.2921 30.2402 12.866 33.7249 16.24 36.1805C19.541 38.5859 23.6044 40.0074 27.9999 40.0074H28.0075C32.4005 40.0049 36.4614 38.5834 39.7599 36.1805C43.1339 33.7224 45.7078 30.2377 47.0237 26.1843C47.6552 24.2369 47.9999 22.1612 47.9999 20.005C48.0074 17.8462 47.6602 15.7705 47.0287 13.8231ZM28.0025 38.7394C23.8862 38.7394 20.082 37.4084 16.9898 35.1565L18.8793 32.5575C21.4406 34.4218 24.5932 35.5264 28.005 35.5264H28.01V38.7394H28.0025ZM28.0025 7.88021C34.7001 7.88021 40.1272 13.3098 40.1272 20.005C40.1272 26.7027 34.6976 32.1297 28.0025 32.1297C21.3048 32.1297 15.8777 26.7001 15.8777 20.005C15.8777 13.3073 21.3073 7.88021 28.0025 7.88021ZM39.0176 35.1565L37.1281 32.5575C39.7448 30.6503 41.7425 27.9481 42.764 24.8005C44.0724 25.2257 45.1542 25.578 45.821 25.7944C44.5881 29.5911 42.1778 32.8543 39.0176 35.1565ZM45.821 14.2156L42.764 15.2094C41.7425 12.0644 39.7448 9.35964 37.1281 7.455C37.9408 6.33789 38.605 5.42205 39.0176 4.85594C42.1778 7.1556 44.5881 10.4189 45.821 14.2156ZM28.0025 1.2706H28.0075V4.48357H27.9949C24.5857 4.48357 21.4356 5.58811 18.8768 7.45249C18.0641 6.33537 17.3999 5.41953 16.9873 4.85343C20.082 2.60409 23.8862 1.2706 28.0025 1.2706ZM10.1864 14.2156L13.2434 15.2094C12.7528 16.719 12.4836 18.3318 12.4836 20.005C12.4836 21.6781 12.7528 23.2884 13.2409 24.798C11.9326 25.2232 10.8507 25.5755 10.1839 25.7918C9.59265 23.9677 9.26808 22.0253 9.26808 20.005C9.2706 17.9846 9.59516 16.0397 10.1864 14.2156Z" fill="#141414"/>
<path d="M28.002 38.7393C23.8857 38.7393 20.0815 37.4083 16.9893 35.1564L18.8788 32.5574C21.4401 34.4217 24.5927 35.5263 28.0045 35.5263H28.0095V38.7393H28.002ZM39.0171 35.1564L37.1276 32.5574C39.7443 30.6502 41.742 27.948 42.7635 24.8004C44.0719 25.2257 45.1537 25.5779 45.8205 25.7943C44.5876 29.591 42.1773 32.8543 39.0171 35.1564ZM45.8205 14.2155L42.7635 15.2093C41.742 12.0643 39.7443 9.35955 37.1276 7.45492C37.9403 6.3378 38.6045 5.42196 39.0171 4.85585C42.1773 7.15551 44.5876 10.4188 45.8205 14.2155ZM28.002 1.27051H28.007V4.48348H27.9944C24.5852 4.48348 21.4351 5.58802 18.8763 7.4524C18.0636 6.33528 17.3994 5.41944 16.9868 4.85334C20.0815 2.604 23.8857 1.27051 28.002 1.27051ZM10.1859 14.2155L13.2429 15.2093C12.7523 16.7189 12.4831 18.3317 12.4831 20.0049C12.4831 21.678 12.7523 23.2883 13.2404 24.7979C11.9321 25.2231 10.8502 25.5754 10.1834 25.7918C9.59215 23.9676 9.26758 22.0253 9.26758 20.0049C9.27009 17.9845 9.59466 16.0396 10.1859 14.2155Z" fill="#E50A14"/>
<path d="M27.2837 25.563V26.962C27.2837 27.3897 27.6309 27.7369 28.0586 27.7369C28.4863 27.7369 28.8336 27.3897 28.8336 26.962V25.6008C30.7231 25.3014 31.9358 23.7792 32.049 22.2998C32.1547 20.9285 31.3471 19.3283 28.8336 18.7496V15.3932C29.7318 15.748 30.2048 16.6789 30.4262 17.2853C30.5721 17.6879 31.0175 17.8942 31.42 17.7482C31.8226 17.6023 32.0289 17.157 31.883 16.7544C31.5861 15.9392 30.7281 14.1679 28.831 13.778V13.0508C28.831 12.6231 28.4838 12.2759 28.0561 12.2759C27.6284 12.2759 27.2812 12.6231 27.2812 13.0508V13.7729C25.6256 14.105 24.5689 15.4687 24.4682 16.7947C24.3726 18.0376 25.0847 19.4793 27.2812 20.0378V23.9427C26.2446 23.5427 25.7011 22.4784 25.447 21.789C25.301 21.3864 24.8557 21.1801 24.4531 21.326C24.0506 21.472 23.8443 21.9173 23.9902 22.3224C24.3173 23.2055 25.2432 25.1227 27.2837 25.563ZM30.5067 22.179C30.4488 22.9413 29.8173 23.749 28.8386 24.0132V20.3549C29.9557 20.6996 30.5696 21.3512 30.5067 22.179ZM26.0181 16.9129C26.0634 16.304 26.5389 15.6599 27.2837 15.3857V18.415C26.4307 18.103 25.9678 17.5721 26.0181 16.9129Z" fill="#141414"/>
</g>
<defs>
<clipPath id="clip0_1801_1330">
<rect width="80" height="80" fill="white"/>
</clipPath>
</defs>
</svg>
