<svg width="26" height="26" viewBox="0 0 26 26" fill="none" xmlns="http://www.w3.org/2000/svg">
<g clip-path="url(#clip0_1401_2917)">
<path d="M8.81096 11.1916C7.89598 10.9862 7.06947 11.4551 6.71093 12.1922C6.26973 11.924 5.92633 11.5178 5.7424 11.0291C6.46414 10.7738 6.98449 10.0936 6.98449 9.28573C6.98449 8.25966 6.151 7.42859 5.12194 7.42859C4.09287 7.42859 3.25938 8.25966 3.25938 9.28573C3.25938 10.0936 3.77973 10.7738 4.50147 11.0291C4.31755 11.5178 3.97414 11.924 3.53294 12.1922C3.17324 11.4551 2.34789 10.9862 1.43292 11.1916C0.74377 11.346 0.181512 11.9194 0.0406561 12.61C-0.206132 13.8056 0.704191 14.8572 1.8613 14.8572C2.59934 14.8572 3.23144 14.4254 3.53294 13.8056C3.63539 13.8682 3.732 13.9379 3.8228 14.0156C4.46888 14.5647 4.65281 15.4886 4.40834 16.2999L3.72386 18.5714H6.51769L5.83436 16.2988C5.5899 15.4886 5.77383 14.5635 6.4199 14.0145C6.5107 13.9379 6.60732 13.8671 6.70976 13.8044C7.01126 14.4254 7.64337 14.856 8.38141 14.856C9.53852 14.856 10.4488 13.8044 10.2044 12.6077C10.0612 11.9194 9.5001 11.346 8.81096 11.1916Z" fill="#141414"/>
<path d="M20.9525 7.42859C20.9525 7.42859 15.905 12.0134 15.905 13.4086C15.905 14.5867 17.0691 15.47 18.2238 15.7114C18.4287 15.7672 18.6429 15.7857 18.8571 15.7857C19.3041 15.7857 19.7232 15.6929 20.105 15.5072C20.3751 16.0272 20.2354 16.2964 20.2354 16.2964L19.5556 18.5714H22.3494L21.6696 16.2964C21.6696 16.2964 21.5299 16.0272 21.7999 15.5072C22.1818 15.6929 22.6008 15.7857 23.0479 15.7857C23.262 15.7857 23.4762 15.7672 23.6811 15.7114C24.8359 15.47 26 14.5867 26 13.4086C26 12.0134 20.9525 7.42859 20.9525 7.42859Z" fill="#141414"/>
<path d="M18.3519 5.43562C16.111 4.31786 14.2927 2.50598 13.1728 0.271607L13.0366 0L12.9004 0.271607C11.7794 2.50598 9.96224 4.31902 7.72136 5.43562L7.44896 5.57143L7.72136 5.70723C9.96224 6.825 11.7806 8.63687 12.9004 10.8712L13.0366 11.1429L13.1728 10.8712C14.2938 8.63687 16.111 6.82384 18.3519 5.70723L18.6243 5.57143L18.3519 5.43562Z" fill="#E50A14"/>
<path d="M18.6243 19.0357H18.5777C18.3496 17.4629 17.0062 16.25 15.3648 16.25C14.451 16.25 13.628 16.6272 13.0366 17.2296C12.4453 16.6261 11.6222 16.25 10.7084 16.25C9.06822 16.25 7.72369 17.4629 7.49552 19.0357H7.44896L7.49087 19.0879C7.47341 19.2249 7.44896 19.3596 7.44896 19.5C7.44896 20.6271 8.02635 21.6137 8.90292 22.1917C10.1811 23.0355 11.4022 23.9618 12.3591 25.155L13.0366 26L13.7141 25.155C14.671 23.9618 15.8922 23.0355 17.1703 22.1917C18.0457 21.6137 18.6243 20.6271 18.6243 19.5C18.6243 19.3584 18.5998 19.2237 18.5824 19.0879L18.6243 19.0357Z" fill="#E50A14"/>
</g>
<defs>
<clipPath id="clip0_1401_2917">
<rect width="26" height="26" fill="white"/>
</clipPath>
</defs>
</svg>
