<svg width="81" height="80" viewBox="0 0 81 80" fill="none" xmlns="http://www.w3.org/2000/svg">
<path d="M8.5 71.4286C8.5 73.7022 9.41947 75.882 11.0558 77.4898C12.6929 79.0969 14.9123 80 17.2273 80H63.7727C66.0877 80 68.3071 79.0969 69.9442 77.4898C71.5805 75.882 72.5 73.7022 72.5 71.4286V14.2857C72.5 12.0121 71.5805 9.83233 69.9442 8.22449C68.3071 6.61734 66.0877 5.71429 63.7727 5.71429H57.9545C57.9545 4.19899 57.3416 2.74547 56.2506 1.67347C55.1591 0.602041 53.6792 0 52.1364 0H28.8636C27.3208 0 25.8408 0.602041 24.7493 1.67347C23.6584 2.74553 23.0455 4.19902 23.0455 5.71429H17.2273C14.9123 5.71429 12.6929 6.61734 11.0558 8.22449C9.41947 9.83228 8.5 12.0121 8.5 14.2857V71.4286Z" fill="#E50A14"/>
<path d="M28.864 9.71436H52.1367V15.4286H28.864V9.71436ZM28.864 26.8572H60.864V32.5715H28.864V26.8572ZM28.864 38.2858H60.864V44.0001H28.864V38.2858ZM28.864 49.7144H60.864V55.4286H28.864V49.7144ZM28.864 61.1429H60.864V66.8572H28.864V61.1429ZM20.1367 26.8572H25.9549V32.5715H20.1367V26.8572ZM20.1367 38.2858H25.9549V44.0001H20.1367V38.2858ZM20.1367 49.7144H25.9549V55.4286H20.1367V49.7144ZM20.1367 61.1429H25.9549V66.8572H20.1367V61.1429Z" fill="#141414"/>
</svg>
