<svg width="80" height="80" viewBox="0 0 80 80" fill="none" xmlns="http://www.w3.org/2000/svg">
<g clip-path="url(#clip0_1801_1362)">
<path d="M62.2758 44.7981C58.7734 44.7977 55.3496 45.8297 52.4373 47.7636C49.5251 49.6974 47.2552 52.4463 45.9147 55.6626C44.5742 58.8788 44.2234 62.4179 44.9066 65.8324C45.5897 69.2468 47.2762 72.3832 49.7528 74.8449C52.2293 77.3066 55.3846 78.9829 58.8197 79.662C62.2548 80.3411 65.8153 79.9923 69.051 78.6599C72.2866 77.3275 75.0521 75.0712 76.9977 72.1764C78.9432 69.2816 79.9815 65.8784 79.9811 62.3971C79.9784 57.7304 78.1121 53.2556 74.7923 49.9557C71.4725 46.6558 66.9707 44.8008 62.2758 44.7981V44.7981ZM70.0251 56.8774L62.1391 69.5182C62.0588 69.6521 61.9553 69.7708 61.8332 69.8688C61.684 70.0202 61.506 70.1406 61.3097 70.223C61.1133 70.3055 60.9024 70.3484 60.6892 70.3492C60.3728 70.3534 60.0631 70.2584 59.8041 70.0776L54.975 66.8789C54.7995 66.7623 54.6488 66.6125 54.5315 66.438C54.4142 66.2635 54.3326 66.0678 54.2914 65.8619C54.2502 65.6561 54.2502 65.4442 54.2914 65.2384C54.3326 65.0326 54.4142 64.8368 54.5315 64.6623C54.6488 64.4878 54.7995 64.338 54.9751 64.2214C55.1506 64.1048 55.3476 64.0237 55.5546 63.9828C55.7617 63.9419 55.9749 63.9419 56.1819 63.9828C56.389 64.0238 56.5859 64.1048 56.7615 64.2214L60.2283 66.5262L67.3108 55.1746C67.5369 54.8161 67.897 54.5614 68.312 54.4668C68.7269 54.3721 69.1627 54.4452 69.5235 54.6699C69.8842 54.8946 70.1404 55.2526 70.2356 55.665C70.3309 56.0775 70.2573 56.5107 70.0313 56.8693L70.0251 56.8774Z" fill="#141414"/>
<path d="M18.8157 34.0627V20.751H5.27876C3.87253 20.751 2.52389 21.3062 1.52954 22.2946C0.535184 23.283 -0.0234375 24.6235 -0.0234375 26.0213V69.9882C-0.021798 70.79 0.166241 71.5806 0.526004 72.2983C0.885767 73.016 1.40752 73.6413 2.05054 74.1254L10.9521 40.3506C11.4165 38.6046 12.4314 37.0524 13.848 35.9215C15.2646 34.7906 17.0084 34.1406 18.8238 34.0667L18.8157 34.0627Z" fill="#141414"/>
<path d="M70.3238 1.59935C70.3227 1.17551 70.1529 0.769327 69.8513 0.469623C69.5498 0.169919 69.1412 0.00107032 68.7148 0H23.6462C23.2196 0.00106775 22.8108 0.169849 22.5089 0.469496C22.2071 0.769143 22.0368 1.17532 22.0352 1.59935V34.0322H70.3238V1.59935ZM33.3023 30.3977H30.0822C29.6652 30.383 29.2701 30.2079 28.9803 29.9094C28.6905 29.6109 28.5285 29.2122 28.5285 28.7974C28.5285 28.3825 28.6905 27.9839 28.9803 27.6854C29.2701 27.3868 29.6652 27.2118 30.0822 27.197H33.3023C33.7194 27.2118 34.1144 27.3868 34.4043 27.6854C34.6941 27.9839 34.856 28.3825 34.856 28.7974C34.856 29.2122 34.6941 29.6109 34.4043 29.9094C34.1144 30.2079 33.7194 30.383 33.3023 30.3977ZM33.3023 20.7976H30.0822C29.6652 20.7828 29.2701 20.6078 28.9803 20.3093C28.6905 20.0107 28.5285 19.6121 28.5285 19.1972C28.5285 18.7824 28.6905 18.3837 28.9803 18.0852C29.2701 17.7867 29.6652 17.6116 30.0822 17.5969H33.3023C33.7194 17.6116 34.1144 17.7867 34.4043 18.0852C34.6941 18.3837 34.856 18.7824 34.856 19.1972C34.856 19.6121 34.6941 20.0107 34.4043 20.3093C34.1144 20.6078 33.7194 20.7828 33.3023 20.7976V20.7976ZM33.3023 11.1975H30.0822C29.6652 11.1827 29.2701 11.0076 28.9803 10.7091C28.6905 10.4106 28.5285 10.0119 28.5285 9.5971C28.5285 9.18225 28.6905 8.78359 28.9803 8.48508C29.2701 8.18656 29.6652 8.0115 30.0822 7.99674H33.3023C33.7194 8.0115 34.1144 8.18656 34.4043 8.48508C34.6941 8.78359 34.856 9.18225 34.856 9.5971C34.856 10.0119 34.6941 10.4106 34.4043 10.7091C34.1144 11.0076 33.7194 11.1827 33.3023 11.1975V11.1975ZM62.2747 30.3977H39.7404C39.3233 30.383 38.9282 30.2079 38.6384 29.9094C38.3486 29.6109 38.1866 29.2122 38.1866 28.7974C38.1866 28.3825 38.3486 27.9839 38.6384 27.6854C38.9282 27.3868 39.3233 27.2118 39.7404 27.197H62.2747C62.6918 27.2118 63.0868 27.3868 63.3766 27.6854C63.6664 27.9839 63.8284 28.3825 63.8284 28.7974C63.8284 29.2122 63.6664 29.6109 63.3766 29.9094C63.0868 30.2079 62.6918 30.383 62.2747 30.3977V30.3977ZM62.2747 20.7976H39.7404C39.3233 20.7828 38.9282 20.6078 38.6384 20.3093C38.3486 20.0107 38.1866 19.6121 38.1866 19.1972C38.1866 18.7824 38.3486 18.3837 38.6384 18.0852C38.9282 17.7867 39.3233 17.6116 39.7404 17.5969H62.2747C62.6918 17.6116 63.0868 17.7867 63.3766 18.0852C63.6664 18.3837 63.8284 18.7824 63.8284 19.1972C63.8284 19.6121 63.6664 20.0107 63.3766 20.3093C63.0868 20.6078 62.6918 20.7828 62.2747 20.7976V20.7976ZM62.2747 11.1975H39.7404C39.3233 11.1827 38.9282 11.0076 38.6384 10.7091C38.3486 10.4106 38.1866 10.0119 38.1866 9.5971C38.1866 9.18225 38.3486 8.78359 38.6384 8.48508C38.9282 8.18656 39.3233 8.0115 39.7404 7.99674H62.2747C62.6918 8.0115 63.0868 8.18656 63.3766 8.48508C63.6664 8.78359 63.8284 9.18225 63.8284 9.5971C63.8284 10.0119 63.6664 10.4106 63.3766 10.7091C63.0868 11.0076 62.6918 11.1827 62.2747 11.1975V11.1975Z" fill="#E50A14"/>
<path d="M62.276 41.5971C65.2638 41.5987 68.2163 42.2382 70.9339 43.4723C73.6515 44.7065 76.0706 46.5065 78.0276 48.7506L79.3266 43.8492C79.5312 43.0705 79.5537 42.2556 79.3923 41.467C79.231 40.6783 78.89 39.9369 78.3957 39.2995C77.9013 38.6621 77.2667 38.1458 76.5404 37.79C75.8142 37.4342 75.0156 37.2485 74.2059 37.2471H19.1814C18.0126 37.2486 16.877 37.6341 15.9513 38.3434C15.0257 39.0528 14.3617 40.0463 14.0628 41.1694L5.5609 73.2415C5.49817 73.4782 5.49093 73.7261 5.53973 73.966C5.58853 74.2059 5.69208 74.4314 5.84239 74.6253C5.9927 74.8192 6.18578 74.9761 6.40674 75.0842C6.6277 75.1922 6.87065 75.2483 7.11689 75.2483H45.8514C43.4145 72.1853 41.8957 68.5014 41.4695 64.6194C41.0433 60.7373 41.7269 56.8145 43.4418 53.3011C45.1567 49.7877 47.8335 46.8262 51.1649 44.7563C54.4963 42.6865 58.3473 41.5922 62.276 41.5992V41.5971Z" fill="#E50A14"/>
</g>
<defs>
<clipPath id="clip0_1801_1362">
<rect width="80" height="80" fill="white"/>
</clipPath>
</defs>
</svg>
