<svg width="84" height="84" viewBox="0 0 84 84" fill="none" xmlns="http://www.w3.org/2000/svg">
<g clip-path="url(#clip0_47_5266)">
<path d="M16.9502 27.5211L15.2422 29.301L16.2183 30.2436L17.9263 28.4637L16.9502 27.5211Z" fill="#570191"/>
<path d="M13.8857 30.7115L12.1777 32.4914L13.1538 33.434L14.8618 31.6541L13.8857 30.7115Z" fill="#570191"/>
<path d="M26.1533 17.9303L24.4453 19.7101L25.4214 20.6527L27.1294 18.8729L26.1533 17.9303Z" fill="#570191"/>
<path d="M23.0898 21.1228L21.3818 22.9026L22.3579 23.8452L24.0659 22.0654L23.0898 21.1228Z" fill="#570191"/>
<path d="M20.0352 24.3043L18.3271 26.0842L19.3032 27.0268L21.0112 25.2469L20.0352 24.3043Z" fill="#570191"/>
<path d="M45.4187 21.9142L44.7139 23.0749L47.1162 24.5431L47.8211 23.3824L45.4187 21.9142Z" fill="#570191"/>
<path d="M41.1082 19.2805L40.4033 20.4412L42.8057 21.9094L43.5106 20.7487L41.1082 19.2805Z" fill="#570191"/>
<path d="M36.8123 16.6536L36.1074 17.8143L38.5098 19.2825L39.2147 18.1218L36.8123 16.6536Z" fill="#570191"/>
<path d="M64.9736 14.6163L63.2715 16.3078L64.225 17.2734L65.9271 15.5819L64.9736 14.6163Z" fill="#570191"/>
<path d="M61.9209 17.6506L60.2188 19.3421L61.1722 20.3077L62.8744 18.6162L61.9209 17.6506Z" fill="#570191"/>
<path d="M58.8769 20.6742L57.1748 22.3657L58.1283 23.3312L59.8304 21.6397L58.8769 20.6742Z" fill="#570191"/>
<path d="M71.0918 8.538L69.3896 10.2295L70.3431 11.1951L72.0453 9.50356L71.0918 8.538Z" fill="#570191"/>
<path d="M68.0488 11.5625L66.3467 13.254L67.3002 14.2195L69.0023 12.528L68.0488 11.5625Z" fill="#570191"/>
<path d="M28.5381 15.3049L27.2822 16.6137L28.2618 17.5597L29.5177 16.2509L28.5381 15.3049Z" fill="#570191"/>
<path d="M33.5848 14.6808L32.8799 15.8416L34.4254 16.7861L35.1302 15.6253L33.5848 14.6808Z" fill="#570191"/>
<path d="M49.558 24.0848L48.8506 25.2497L50.3597 26.172L51.0671 25.0071L49.558 24.0848Z" fill="#570191"/>
<path d="M55.6334 23.3413L54.3779 24.5889L55.3314 25.5545L56.5868 24.3069L55.6334 23.3413Z" fill="#570191"/>
<path d="M37.9083 37.8433H25.8242V82.6409H37.9083V37.8433Z" fill="#570191"/>
<path d="M60.2765 46.8948H48.1924V82.6409H60.2765V46.8948Z" fill="#570191"/>
<path d="M82.6456 24.2422H70.5615V82.6408H82.6456V24.2422Z" fill="#570191"/>
<path d="M16.2189 55.9561H4.13477V82.6421H16.2189V55.9561Z" fill="#570191"/>
<path d="M38.4295 31.5625H23.4642C22.7321 31.5625 22.1094 32.1847 22.1094 32.9216V82.6421C22.1094 83.3765 22.7296 84.0012 23.4642 84.0012H38.4295C38.8442 84.0012 39.1604 83.8462 39.3781 83.6108C39.6226 83.3924 39.7843 83.0703 39.7843 82.6421V32.9216C39.7843 32.1872 39.164 31.5625 38.4295 31.5625ZM24.8191 39.067V34.2808H37.0746V81.2829H24.8191V39.067Z" fill="#182633"/>
<path d="M60.5369 40.8702H45.5716C44.8395 40.8702 44.2168 41.4925 44.2168 42.2294V82.6409C44.2168 83.3753 44.8371 84 45.5716 84H60.5369C60.9516 84 61.2678 83.8451 61.4855 83.6096C61.73 83.3912 61.8917 83.0691 61.8917 82.6409V42.2294C61.8917 41.4949 61.2715 40.8702 60.5369 40.8702ZM46.9265 47.2425V43.5885H59.182V81.2817H46.9265V47.2425Z" fill="#182633"/>
<path d="M82.6453 18.3104H67.68C66.9479 18.3104 66.3252 18.9326 66.3252 19.6696V82.6409C66.3252 83.3753 66.9455 84 67.68 84H82.6453C83.06 84 83.3762 83.8451 83.5939 83.6096C83.8384 83.3912 84.0001 83.0679 84.0001 82.6409V19.6696C84.0001 18.9351 83.3799 18.3104 82.6453 18.3104ZM69.0349 27.4351V21.0287H81.2905V81.2817H69.0349V27.4351Z" fill="#182633"/>
<path d="M16.3201 49.9315H1.35484C0.622691 49.9315 0 50.5537 0 51.2906V82.6409C0 83.3754 0.620258 84 1.35484 84H16.3201C16.7348 84 17.051 83.8451 17.2687 83.6096C17.5132 83.3912 17.6749 83.0679 17.6749 82.6409V51.2906C17.6749 50.5562 17.0547 49.9315 16.3201 49.9315ZM2.70968 52.6498H14.9653V81.2818H2.70968V52.6498Z" fill="#182633"/>
<path d="M8.77119 41.9109C11.5441 41.9109 13.6396 39.7332 13.9047 37.0747C13.9254 36.9698 13.9351 36.8575 13.9291 36.7355C13.9339 36.6147 13.9242 36.5025 13.9047 36.3988C13.6396 33.7342 11.5429 31.5723 8.77119 31.5613C5.9776 31.5503 3.60237 33.9343 3.61332 36.7355C3.62426 39.5465 5.96057 41.9097 8.77119 41.9097V41.9109ZM11.2194 36.7367C11.0917 39.8954 6.32178 39.9125 6.32178 36.7367C6.32178 33.561 11.0917 33.5744 11.2194 36.7367Z" fill="#182633"/>
<path d="M30.946 18.8057C33.7189 18.8057 35.8144 16.6279 36.0795 13.9695C36.1002 13.8645 36.11 13.7523 36.1039 13.6303C36.1087 13.5095 36.099 13.3973 36.0795 13.2936C35.8144 10.629 33.7177 8.46707 30.946 8.45609C28.1524 8.44511 25.7772 10.8291 25.7881 13.6303C25.7991 16.4413 28.1354 18.8045 30.946 18.8045V18.8057ZM33.3942 13.6315C33.2665 16.7902 28.4966 16.8073 28.4966 13.6315C28.4966 10.4557 33.2665 10.4692 33.3942 13.6315Z" fill="#182633"/>
<path d="M53.0544 32.3177C55.8273 32.3177 57.9228 30.14 58.1879 27.4815C58.2086 27.3766 58.2184 27.2643 58.2123 27.1423C58.2171 27.0215 58.2074 26.9093 58.1879 26.8056C57.9228 24.141 55.8261 21.9791 53.0544 21.9681C50.2608 21.9571 47.8856 24.3411 47.8965 27.1423C47.9075 29.9533 50.2438 32.3165 53.0544 32.3165V32.3177ZM55.5026 27.1435C55.3749 30.3022 50.605 30.3193 50.605 27.1435C50.605 23.9678 55.3749 23.9812 55.5026 27.1435Z" fill="#182633"/>
<path d="M75.1618 10.3496C77.9347 10.3496 80.0302 8.17183 80.2954 5.51335C80.316 5.40843 80.3258 5.29619 80.3197 5.17418C80.3246 5.0534 80.3148 4.94115 80.2954 4.83745C80.0315 2.17287 77.9335 0.0109571 75.1618 -2.3254e-05C72.3682 -0.0110036 69.993 2.37296 70.0039 5.17418C70.0149 7.98516 72.3512 10.3484 75.1618 10.3484V10.3496ZM77.61 5.1754C77.4823 8.33409 72.7124 8.35118 72.7124 5.1754C72.7124 1.99963 77.4823 2.01305 77.61 5.1754Z" fill="#182633"/>
</g>
<defs>
<clipPath id="clip0_47_5266">
<rect width="84" height="84" fill="white"/>
</clipPath>
</defs>
</svg>
