<svg width="18" height="18" viewBox="0 0 18 18" fill="none" xmlns="http://www.w3.org/2000/svg">
<path d="M5.18142 14.0913L12.7291 6.54365L13.1936 11.6285C13.2045 11.7463 13.2385 11.8608 13.2936 11.9655C13.3487 12.0703 13.424 12.1631 13.515 12.2387C13.6988 12.3915 13.9357 12.465 14.1737 12.443C14.4117 12.4211 14.6312 12.3055 14.784 12.1217C14.9367 11.9379 15.0102 11.701 14.9883 11.463L14.3519 4.46263C14.3429 4.41085 14.3302 4.3598 14.3137 4.3099C14.2819 4.27808 14.2946 4.22717 14.2755 4.18262C14.2314 4.08081 14.1688 3.98803 14.091 3.90897C14.0119 3.83111 13.9191 3.76854 13.8173 3.72441C13.7855 3.69259 13.7346 3.70532 13.69 3.68623C13.6401 3.66977 13.5891 3.65701 13.5373 3.64805L6.53694 3.01165C6.40527 2.99965 6.27256 3.01681 6.14827 3.0619C6.02398 3.107 5.91115 3.17893 5.81781 3.27257C5.66883 3.42098 5.57651 3.61687 5.55689 3.82624C5.54587 3.9441 5.55822 4.06298 5.59322 4.17607C5.62822 4.28916 5.68518 4.39423 5.76085 4.48527C5.83652 4.57631 5.9294 4.65152 6.03418 4.70661C6.13896 4.76169 6.25358 4.79557 6.37148 4.80629L11.4563 5.27086L3.90862 12.8185C3.73984 12.9873 3.64502 13.2162 3.64502 13.4549C3.64502 13.6936 3.73984 13.9225 3.90862 14.0913C4.07741 14.2601 4.30632 14.3549 4.54502 14.3549C4.78371 14.3549 5.01263 14.2601 5.18142 14.0913Z" fill="#570191"/>
</svg>
