<svg width="21" height="20" viewBox="0 0 21 20" fill="none" xmlns="http://www.w3.org/2000/svg">
<path d="M20.5 10C20.5 15.5225 16.0225 20 10.5 20C4.97746 20 0.5 15.5225 0.5 10C0.5 4.47746 4.97746 0 10.5 0C16.0237 0 20.5 4.47746 20.5 10Z" fill="#FEDA03"/>
<path d="M14.3004 9.92682C14.9304 9.76312 15.4909 9.29192 15.4909 8.34447C15.4909 6.76712 14.1516 6.40002 12.4354 6.40002H5.6001V13.5032H8.47705V11.0925H11.8897C12.4155 11.0925 12.7231 11.3008 12.7231 11.8167V13.5032H15.6001V11.7274C15.6001 10.7602 15.0544 10.15 14.3004 9.92682ZM11.9393 9.17782H8.47705V8.48337H11.9393C12.3163 8.48337 12.5445 8.53297 12.5445 8.83062C12.5445 9.12822 12.3163 9.17782 11.9393 9.17782Z" fill="black"/>
</svg>
