<svg width="21" height="20" viewBox="0 0 21 20" fill="none" xmlns="http://www.w3.org/2000/svg">
<path d="M20.5 10C20.5 15.5225 16.0225 20 10.5 20C4.97746 20 0.5 15.5225 0.5 10C0.5 4.47746 4.97746 0 10.5 0C16.0237 0 20.5 4.47746 20.5 10Z" fill="#2081E2"/>
<path d="M5.43372 10.3361L5.47686 10.2683L8.07826 6.19872C8.11628 6.13914 8.20566 6.1453 8.23442 6.21002C8.66902 7.184 9.04402 8.39532 8.86834 9.14944C8.79334 9.45972 8.58786 9.87992 8.35668 10.2683C8.3269 10.3248 8.29402 10.3803 8.25908 10.4337C8.24264 10.4584 8.2149 10.4727 8.1851 10.4727H5.50974C5.43782 10.4727 5.3957 10.3947 5.43372 10.3361Z" fill="white"/>
<path d="M17.0291 11.0922V11.7364C17.0291 11.7734 17.0065 11.8062 16.9736 11.8206C16.7722 11.9069 16.0828 12.2234 15.7962 12.622C15.0647 13.6402 14.5058 15.096 13.2564 15.096H8.0444C6.19714 15.096 4.7002 13.5939 4.7002 11.7405V11.6809C4.7002 11.6316 4.74026 11.5915 4.78958 11.5915H7.6951C7.75262 11.5915 7.79474 11.6449 7.78962 11.7014C7.76906 11.8905 7.804 12.0836 7.89338 12.2593C8.06598 12.6097 8.42352 12.8285 8.80982 12.8285H10.2482V11.7056H8.82626C8.75332 11.7056 8.71018 11.6213 8.7523 11.5617C8.7677 11.5381 8.78518 11.5134 8.80366 11.4857C8.93826 11.2946 9.13038 10.9977 9.32148 10.6597C9.45196 10.4316 9.57832 10.1881 9.68004 9.94356C9.7006 9.89938 9.71702 9.85416 9.73346 9.80998C9.7612 9.7319 9.78998 9.65896 9.81052 9.58602C9.83108 9.52436 9.8475 9.45964 9.86394 9.39902C9.91224 9.19148 9.93278 8.97162 9.93278 8.74354C9.93278 8.65416 9.92868 8.56066 9.92046 8.47128C9.91634 8.37368 9.90402 8.27606 9.89168 8.17846C9.88346 8.09216 9.86806 8.00688 9.85162 7.9175C9.83108 7.78702 9.8023 7.65758 9.76942 7.52708L9.75812 7.47778C9.73346 7.38838 9.71292 7.30312 9.68416 7.21374C9.60298 6.93324 9.5095 6.65996 9.41086 6.40414C9.3749 6.30242 9.3338 6.20482 9.2927 6.10722C9.2321 5.9603 9.17044 5.82674 9.11394 5.70036C9.08518 5.64282 9.06052 5.59042 9.03586 5.537C9.00812 5.47638 8.97936 5.41576 8.95058 5.35824C8.93004 5.31406 8.9064 5.27296 8.88996 5.23186L8.71428 4.9072C8.68962 4.86302 8.73072 4.81062 8.779 4.82398L9.87834 5.12192H9.88142C9.88346 5.12192 9.8845 5.12296 9.88552 5.12296L10.0304 5.16302L10.1896 5.20824L10.2482 5.22466V4.57124C10.2482 4.25582 10.5009 4 10.8133 4C10.9694 4 11.1112 4.0637 11.2129 4.16746C11.3146 4.27124 11.3783 4.41302 11.3783 4.57124V5.54112L11.4955 5.57398C11.5047 5.57708 11.514 5.58118 11.5222 5.58734C11.551 5.60892 11.592 5.64076 11.6444 5.67982C11.6855 5.71268 11.7297 5.75276 11.7831 5.79386C11.889 5.87912 12.0153 5.98906 12.154 6.11544C12.191 6.14728 12.227 6.18016 12.2599 6.21304C12.4386 6.37948 12.639 6.57468 12.8301 6.79044C12.8835 6.85106 12.9359 6.9127 12.9893 6.97742C13.0427 7.04318 13.0993 7.1079 13.1486 7.17264C13.2133 7.25894 13.2832 7.34832 13.3438 7.44182C13.3725 7.486 13.4054 7.5312 13.4332 7.57538C13.5112 7.69352 13.5801 7.8158 13.6458 7.93806C13.6736 7.99456 13.7023 8.0562 13.727 8.11682C13.7999 8.28018 13.8575 8.44662 13.8945 8.61306C13.9058 8.64902 13.914 8.68806 13.9181 8.723V8.73122C13.9304 8.78052 13.9345 8.83292 13.9386 8.88634C13.9551 9.0569 13.9469 9.22744 13.9099 9.39902C13.8945 9.47198 13.8739 9.5408 13.8493 9.61376C13.8246 9.68362 13.7999 9.75656 13.7681 9.8254C13.7065 9.9682 13.6335 10.111 13.5472 10.2446C13.5195 10.2939 13.4866 10.3463 13.4537 10.3956C13.4177 10.448 13.3808 10.4973 13.3479 10.5456C13.3027 10.6073 13.2544 10.672 13.2051 10.7295C13.1609 10.7901 13.1157 10.8508 13.0664 10.9042C12.9975 10.9853 12.9318 11.0624 12.8629 11.1364C12.8219 11.1847 12.7777 11.234 12.7325 11.2782C12.6883 11.3275 12.6431 11.3716 12.602 11.4127C12.5332 11.4816 12.4756 11.535 12.4273 11.5792L12.3143 11.683C12.2979 11.6973 12.2763 11.7056 12.2537 11.7056H11.3783V12.8285H12.4797C12.7263 12.8285 12.9606 12.7412 13.1496 12.5809C13.2143 12.5244 13.4969 12.2799 13.8308 11.911C13.8421 11.8987 13.8565 11.8895 13.8729 11.8854L16.915 11.0059C16.9716 10.9895 17.0291 11.0326 17.0291 11.0922Z" fill="white"/>
</svg>
