<svg width="50" height="50" viewBox="0 0 50 50" fill="none" xmlns="http://www.w3.org/2000/svg">
<path d="M50 3.94677C50 2.89806 49.5828 1.89445 48.8385 1.16148C48.0943 0.417231 47.0907 0 46.0532 0H3.94677C2.89806 0 1.89445 0.417231 1.16148 1.16148C0.417231 1.90573 0 2.90934 0 3.94677V10.521H49.9887L50 3.94677Z" fill="#141414"/>
<path d="M11.8398 0V3.94677C11.8398 4.66847 12.4262 5.26612 13.1592 5.26612C13.8922 5.26612 14.4785 4.67975 14.4785 3.94677V0H23.6914V3.94677C23.6914 4.66847 24.2778 5.26612 25.0108 5.26612C25.7438 5.26612 26.3301 4.67975 26.3301 3.94677V0H35.543V3.94677C35.543 4.66847 36.1294 5.26612 36.8624 5.26612C37.5954 5.26612 38.1817 4.67975 38.1817 3.94677V0" fill="#E50A14"/>
<path d="M0 10.521H49.9887V46.042C49.9887 47.0907 49.5715 48.0943 48.8272 48.8273C48.083 49.5715 47.0794 49.9775 46.0419 49.9887H3.94677C2.89806 49.9887 1.89445 49.5715 1.16148 48.8273C0.417231 48.083 0 47.0794 0 46.042V10.521Z" fill="#E50A14"/>
<path d="M21.4375 23.6243C21.4375 24.8985 22.1141 26.0713 23.2192 26.714C24.3243 27.3455 25.6775 27.3455 26.7826 26.714C27.8877 26.0825 28.5642 24.8985 28.5642 23.6243C28.1921 21.82 27.4028 20.1285 26.2638 18.6851C25.9594 18.2905 25.497 18.0649 25.0122 18.0649C24.516 18.0649 24.0536 18.2905 23.7605 18.6851C22.599 20.1285 21.8096 21.82 21.4375 23.6243Z" fill="#141414"/>
<path d="M20.4219 40.9225C20.4219 41.3284 20.5797 41.7118 20.8729 42.005C21.1548 42.2869 21.5495 42.4561 21.9555 42.4561H28.0673C28.4733 42.4561 28.8567 42.2982 29.1499 42.005C29.4318 41.7231 29.6009 41.3284 29.6009 40.9225V30.2323C29.6009 29.8264 29.4431 29.443 29.1499 29.1498C28.868 28.8679 28.4733 28.6987 28.0673 28.6987H21.9555C21.1097 28.6987 20.4332 29.3866 20.4332 30.2211L20.4219 40.9225Z" fill="#141414"/>
</svg>
