<svg width="80" height="80" viewBox="0 0 80 80" fill="none" xmlns="http://www.w3.org/2000/svg">
<path d="M8 71.4286C8 73.7022 8.91947 75.882 10.5558 77.4898C12.1929 79.0969 14.4123 80 16.7273 80H63.2727C65.5877 80 67.8071 79.0969 69.4442 77.4898C71.0805 75.882 72 73.7022 72 71.4286V14.2857C72 12.0121 71.0805 9.83233 69.4442 8.22449C67.8071 6.61734 65.5877 5.71429 63.2727 5.71429H57.4545C57.4545 4.19899 56.8416 2.74547 55.7506 1.67347C54.6591 0.602041 53.1792 0 51.6364 0H28.3636C26.8208 0 25.3408 0.602041 24.2493 1.67347C23.1584 2.74553 22.5455 4.19902 22.5455 5.71429H16.7273C14.4123 5.71429 12.1929 6.61734 10.5558 8.22449C8.91947 9.83228 8 12.0121 8 14.2857V71.4286Z" fill="#E50A14"/>
<path d="M28.364 9.71436H51.6367V15.4286H28.364V9.71436ZM28.364 26.8572H60.364V32.5715H28.364V26.8572ZM28.364 38.2858H60.364V44.0001H28.364V38.2858ZM28.364 49.7144H60.364V55.4286H28.364V49.7144ZM28.364 61.1429H60.364V66.8572H28.364V61.1429ZM19.6367 26.8572H25.4549V32.5715H19.6367V26.8572ZM19.6367 38.2858H25.4549V44.0001H19.6367V38.2858ZM19.6367 49.7144H25.4549V55.4286H19.6367V49.7144ZM19.6367 61.1429H25.4549V66.8572H19.6367V61.1429Z" fill="#141414"/>
</svg>
