<svg width="70" height="70" viewBox="0 0 70 70" fill="none" xmlns="http://www.w3.org/2000/svg">
<path d="M54.1611 18.1006C53.8006 18.0771 53.433 18.0654 53.0631 18.0654C52.4403 18.0654 51.9346 18.5712 51.9346 19.1939C51.9346 19.51 51.9252 19.8214 51.9065 20.1328C51.8924 20.3552 51.8784 20.5753 51.8573 20.7977C51.8433 20.9335 51.8292 21.0693 51.8128 21.2051C51.7941 21.3643 51.773 21.5165 51.7496 21.6757C51.7215 21.8653 51.6911 22.055 51.6536 22.2493C51.6302 22.3804 51.6045 22.5162 51.5764 22.6473C51.4897 23.036 51.3961 23.4293 51.2884 23.8133C51.2486 23.9538 51.2064 24.0989 51.162 24.2371C50.2418 27.1684 48.5327 29.8328 46.1984 31.8978C46.0813 32.0008 45.9643 32.1062 45.8425 32.2045C45.5546 32.4433 45.2595 32.6798 44.9528 32.8999C44.6461 33.1223 44.3394 33.333 44.0187 33.5273C43.8524 33.635 43.6792 33.7404 43.5083 33.8387C43.3373 33.9371 43.1641 34.0331 42.9885 34.1267C42.8574 34.204 42.7216 34.2765 42.5811 34.3444C42.4992 34.3842 42.4196 34.4264 42.3376 34.4615C42.0215 34.616 41.7055 34.7589 41.38 34.8853C40.8392 35.11 40.2773 35.3044 39.7083 35.4683C39.5234 35.5268 39.3291 35.576 39.1394 35.6228C38.9896 35.6579 38.8374 35.6954 38.6875 35.7258C38.615 35.7492 38.5377 35.7609 38.4651 35.775C38.3434 35.8031 38.2216 35.8241 38.0952 35.8476C38.0226 35.8663 37.9547 35.8757 37.8821 35.8827C37.7604 35.9108 37.634 35.9272 37.5075 35.9459C37.4045 35.9646 37.2991 35.9763 37.1961 35.9857C37.1001 35.9997 37.0018 36.0138 36.9035 36.0208C36.7185 36.0442 36.5335 36.0606 36.3439 36.0747C36.1215 36.0934 35.8967 36.1074 35.6766 36.1145C35.4519 36.1238 35.2248 36.1285 35 36.1285C34.7752 36.1285 34.5481 36.1238 34.3234 36.1145C34.1009 36.1051 33.8762 36.091 33.6561 36.0747C33.4665 36.0606 33.2815 36.0442 33.0965 36.0208C32.9982 36.0114 32.8975 35.9974 32.8039 35.9857C32.7008 35.9763 32.5955 35.9623 32.4925 35.9459C32.366 35.9272 32.2396 35.9108 32.1179 35.8827C32.0453 35.8733 31.9774 35.8639 31.9048 35.8476C31.7784 35.8241 31.6566 35.8031 31.5349 35.775C31.4623 35.7609 31.385 35.7469 31.3125 35.7258C31.1626 35.6954 31.0104 35.6579 30.8606 35.6228C30.6709 35.5783 30.4766 35.5268 30.2917 35.4683C29.7227 35.3067 29.1632 35.1124 28.62 34.8853C28.2945 34.7589 27.9785 34.6137 27.6624 34.4615C27.5804 34.4264 27.5008 34.3842 27.4189 34.3444C27.2784 34.2765 27.1426 34.204 27.0115 34.1267C26.8359 34.0307 26.6627 33.9371 26.4917 33.8387C26.3208 33.7404 26.1476 33.635 25.9813 33.5273C25.6606 33.333 25.3539 33.1199 25.0472 32.8999C24.7404 32.6774 24.4454 32.4433 24.1575 32.2045C24.0357 32.1062 23.9187 32.0008 23.8016 31.8978C21.4673 29.8328 19.7605 27.1684 18.838 24.2371C18.7936 24.0966 18.7514 23.9514 18.7116 23.8133C18.6039 23.4293 18.5079 23.036 18.4236 22.6473C18.3955 22.5162 18.3698 22.3804 18.3464 22.2493C18.3113 22.055 18.2785 21.8653 18.2504 21.6757C18.227 21.5165 18.2059 21.3643 18.1872 21.2051C18.1684 21.0693 18.1544 20.9335 18.1427 20.7977C18.1193 20.5753 18.1076 20.3552 18.0935 20.1328C18.0748 19.8214 18.0654 19.51 18.0654 19.1939C18.0654 18.5712 17.5597 18.0654 16.9369 18.0654C16.567 18.0654 16.2018 18.0795 15.8389 18.1006C7.00983 18.6648 0 26.0305 0 35V59.8388C0 65.4438 4.55616 70 10.1612 70H59.8388C65.4438 70 70 65.4438 70 59.8388V35C69.9977 26.0305 62.9902 18.6648 54.1611 18.1006ZM67.7407 59.8388C67.7407 64.1959 64.1959 67.743 59.8364 67.743H10.1589C5.80173 67.743 2.25467 64.1983 2.25467 59.8388V35C2.25467 27.2737 8.25306 20.9218 15.8389 20.3622C15.8623 20.7322 15.8927 21.1021 15.9372 21.4697C15.97 21.7272 16.0051 21.9801 16.0496 22.2376C16.0683 22.3828 16.0941 22.5233 16.1221 22.6661C16.1502 22.8112 16.176 22.9541 16.2088 23.0992C16.2181 23.139 16.2275 23.1858 16.2369 23.2256C16.2697 23.3849 16.3048 23.5417 16.3446 23.6962C16.6958 25.1549 17.2202 26.569 17.9015 27.9012C17.9882 28.0674 18.0724 28.2313 18.1638 28.3976C19.1658 30.2308 20.4676 31.9072 22.0292 33.3377C22.1416 33.4407 22.2587 33.5461 22.3781 33.6491C22.8019 34.0237 23.249 34.3796 23.715 34.7191C27.0068 37.1165 30.9051 38.3855 34.9977 38.3855C39.0902 38.3855 42.9862 37.1165 46.2804 34.7191C46.7463 34.3796 47.1935 34.0237 47.6172 33.6491C47.7343 33.5461 47.8514 33.4407 47.9661 33.3377C49.1367 32.2677 50.1575 31.062 51.0144 29.7555C51.2041 29.4699 51.3844 29.1819 51.5553 28.8845C51.6513 28.723 51.7402 28.5591 51.8316 28.3976C51.9229 28.2313 52.0072 28.0674 52.0938 27.9012C52.7751 26.569 53.2996 25.1549 53.6507 23.6962C53.6905 23.5417 53.728 23.3849 53.7584 23.2256C53.7678 23.1858 53.7772 23.139 53.7865 23.0992C53.8193 22.9541 53.8451 22.8112 53.8732 22.6661C53.9013 22.5209 53.927 22.3804 53.9457 22.2376C53.9902 21.9801 54.0277 21.7272 54.0581 21.4697C54.1026 21.1044 54.1354 20.7345 54.1565 20.3622C61.7446 20.9218 67.7407 27.2714 67.7407 35V59.8388Z" fill="white"/>
<path d="M54.1565 20.3622C54.133 20.7321 54.1026 21.102 54.0581 21.4696C54.0254 21.7272 53.9902 21.98 53.9457 22.2376C53.927 22.3827 53.9013 22.5232 53.8732 22.666C53.8451 22.8112 53.8193 22.954 53.7865 23.0992C53.7772 23.139 53.7678 23.1858 53.7584 23.2256C53.7257 23.3848 53.6906 23.5417 53.6507 23.6962C53.2996 25.1548 52.7751 26.569 52.0938 27.9011C52.0072 28.0674 51.9229 28.2313 51.8316 28.3975C51.7402 28.5591 51.6513 28.7229 51.5553 28.8845C51.3844 29.1818 51.2041 29.4722 51.0145 29.7555C50.1552 31.0596 49.1367 32.2677 47.9661 33.3376C47.8537 33.4406 47.7366 33.546 47.6172 33.649C47.1935 34.0236 46.7463 34.3795 46.2804 34.719C42.9885 37.1165 39.0902 38.3855 34.9977 38.3855C30.9051 38.3855 27.0092 37.1165 23.715 34.719C23.249 34.3795 22.8019 34.0236 22.3781 33.649C22.261 33.546 22.144 33.4406 22.0292 33.3376C20.4676 31.9071 19.1658 30.2307 18.1638 28.3975C18.0724 28.2313 17.9882 28.0674 17.9015 27.9011C17.2202 26.569 16.6958 25.1548 16.3446 23.6962C16.3048 23.5417 16.2673 23.3848 16.2369 23.2256C16.2275 23.1858 16.2181 23.139 16.2088 23.0992C16.176 22.954 16.1502 22.8112 16.1221 22.666C16.0941 22.5209 16.0683 22.3804 16.0496 22.2376C16.0051 21.98 15.9676 21.7272 15.9372 21.4696C15.8927 21.1044 15.8599 20.7344 15.8389 20.3622C8.25306 20.9218 2.25467 27.2737 2.25467 35V59.8387C2.25467 64.1959 5.79939 67.7429 10.1589 67.7429H59.8364C64.1936 67.7429 67.7407 64.1982 67.7407 59.8387V35C67.7407 27.2737 61.7423 20.9218 54.1565 20.3622ZM27.0935 57.5817C27.0935 60.6933 24.5602 63.2266 21.4486 63.2266H12.4159C9.3043 63.2266 6.77102 60.6933 6.77102 57.5817V44.0327C6.77102 40.9211 9.3043 38.3878 12.4159 38.3878H21.4486C24.5602 38.3878 27.0935 40.9211 27.0935 44.0327V57.5817ZM34.9977 58.7102C33.127 58.7102 31.6098 57.1931 31.6098 55.3224C31.6098 53.4517 33.127 51.9345 34.9977 51.9345C36.8684 51.9345 38.3855 53.4517 38.3855 55.3224C38.3855 57.1931 36.8684 58.7102 34.9977 58.7102ZM34.9977 49.6775C33.127 49.6775 31.6098 48.1604 31.6098 46.2897C31.6098 44.419 33.127 42.9018 34.9977 42.9018C36.8684 42.9018 38.3855 44.419 38.3855 46.2897C38.3855 48.1604 36.8684 49.6775 34.9977 49.6775ZM63.2243 57.5817C63.2243 60.6933 60.691 63.2266 57.5794 63.2266H48.5467C45.4351 63.2266 42.9019 60.6933 42.9019 57.5817V44.0327C42.9019 40.9211 45.4351 38.3878 48.5467 38.3878H57.5794C60.691 38.3878 63.2243 40.9211 63.2243 44.0327V57.5817Z" fill="white"/>
<path d="M27.0934 57.5817C27.0934 60.6933 24.5602 63.2266 21.4486 63.2266H12.4159C9.30429 63.2266 6.77101 60.6933 6.77101 57.5817V44.0327C6.77101 40.9211 9.30429 38.3878 12.4159 38.3878H21.4486C24.5602 38.3878 27.0934 40.9211 27.0934 44.0327V57.5817ZM63.2243 57.5817C63.2243 60.6933 60.691 63.2266 57.5794 63.2266H48.5467C45.4351 63.2266 42.9018 60.6933 42.9018 57.5817V44.0327C42.9018 40.9211 45.4351 38.3878 48.5467 38.3878H57.5794C60.691 38.3878 63.2243 40.9211 63.2243 44.0327V57.5817Z" fill="#141414"/>
<path d="M34.9977 58.7103C33.127 58.7103 31.6098 57.1931 31.6098 55.3224C31.6098 53.4517 33.127 51.9346 34.9977 51.9346C36.8683 51.9346 38.3855 53.4517 38.3855 55.3224C38.3855 57.1931 36.8683 58.7103 34.9977 58.7103ZM34.9977 49.6776C33.127 49.6776 31.6098 48.1604 31.6098 46.2897C31.6098 44.419 33.127 42.9019 34.9977 42.9019C36.8683 42.9019 38.3855 44.419 38.3855 46.2897C38.3855 48.1604 36.8683 49.6776 34.9977 49.6776Z" fill="#141414"/>
<path d="M54.1611 18.1005C54.0698 16.4476 53.7631 14.8227 53.2574 13.2634C50.682 5.32879 43.3444 0 34.9977 0C26.6509 0 19.3133 5.32878 16.7379 13.2587V13.2634C16.2322 14.8251 15.9255 16.4476 15.8342 18.1005C15.8108 18.4611 15.8014 18.8287 15.8014 19.1939C15.8014 19.5873 15.8154 19.9759 15.8365 20.3646C15.8599 20.7345 15.8904 21.1044 15.9348 21.472C15.9676 21.7295 16.0027 21.9824 16.0472 22.2399C16.066 22.3851 16.0917 22.5256 16.1198 22.6684C16.1479 22.8136 16.1737 22.9564 16.2064 23.1015C16.2158 23.1413 16.2252 23.1882 16.2345 23.228C16.2673 23.3872 16.3024 23.544 16.3422 23.6986C16.6934 25.1572 17.2179 26.5713 17.8992 27.9035C17.9858 28.0698 18.0701 28.2337 18.1614 28.3999C19.1635 30.2331 20.4652 31.9095 22.0269 33.34C22.1393 33.443 22.2563 33.5484 22.3757 33.6514C22.7995 34.026 23.2467 34.3819 23.7126 34.7214C27.0045 37.1189 30.9027 38.3879 34.9953 38.3879C39.0879 38.3879 42.9838 37.1189 46.278 34.7214C46.7439 34.3819 47.1911 34.026 47.6149 33.6514C47.732 33.5484 47.849 33.443 47.9637 33.34C49.1344 32.2701 50.1552 31.0643 51.0121 29.7578C51.1971 29.4722 51.3773 29.1795 51.5529 28.8869C51.6489 28.7253 51.7379 28.5614 51.8292 28.3999C51.9205 28.2337 52.0048 28.0698 52.0914 27.9035C52.7728 26.5713 53.2972 25.1572 53.6484 23.6986C53.6882 23.544 53.7257 23.3872 53.7561 23.228C53.7655 23.1882 53.7748 23.1413 53.7842 23.1015C53.817 22.9564 53.8427 22.8136 53.8708 22.6684C53.8989 22.5232 53.9247 22.3828 53.9434 22.2399C53.9879 21.9824 54.0253 21.7295 54.0558 21.472C54.1003 21.1068 54.133 20.7368 54.1541 20.3646C54.1775 19.9759 54.1892 19.5873 54.1892 19.1939C54.1916 18.8263 54.1822 18.4611 54.1611 18.1005ZM51.9065 20.1328C51.8924 20.3552 51.8784 20.5753 51.8573 20.7977C51.8433 20.9335 51.8292 21.0693 51.8128 21.2051C51.7941 21.3596 51.7777 21.5165 51.7496 21.6757C51.7215 21.8653 51.6911 22.055 51.6536 22.2493C51.6302 22.3804 51.6044 22.5162 51.5764 22.6473C51.4897 23.036 51.3961 23.4293 51.2884 23.8133C51.2486 23.9538 51.2064 24.0989 51.1619 24.2371C50.2418 27.1684 48.5327 29.8328 46.1984 31.8978C46.0813 32.0008 45.9643 32.1062 45.8425 32.2045C45.5545 32.4433 45.2595 32.6798 44.9528 32.8999C44.6461 33.1223 44.3394 33.333 44.0187 33.5273C43.8524 33.6397 43.6792 33.7451 43.5083 33.8387C43.3373 33.9417 43.1641 34.0377 42.9885 34.1267C42.8574 34.204 42.7216 34.2765 42.5811 34.3444C42.4992 34.3842 42.4196 34.4264 42.3376 34.4615C42.0215 34.616 41.7055 34.7588 41.38 34.8853C40.8392 35.11 40.2773 35.3044 39.7083 35.4683C39.5234 35.5268 39.329 35.576 39.1394 35.6228C38.9896 35.6626 38.8421 35.7 38.6875 35.7258C38.615 35.7492 38.5377 35.7609 38.4651 35.775C38.3434 35.8031 38.2216 35.8288 38.0952 35.8475C38.0226 35.8663 37.9547 35.8756 37.8821 35.8827C37.7604 35.9108 37.634 35.9271 37.5075 35.9459C37.4045 35.9646 37.2991 35.9763 37.1961 35.9857C37.1001 36.0044 37.0018 36.0138 36.9035 36.0208C36.7185 36.0442 36.5335 36.0606 36.3439 36.0747C36.1215 36.0934 35.8967 36.1074 35.6766 36.1145C35.4519 36.1238 35.2248 36.1285 35 36.1285C34.7752 36.1285 34.5481 36.1238 34.3234 36.1145C34.1009 36.1051 33.8762 36.091 33.6561 36.0747C33.4665 36.0606 33.2815 36.0442 33.0965 36.0208C32.9982 36.0114 32.8975 36.0021 32.8039 35.9857C32.7008 35.9763 32.5955 35.9623 32.4925 35.9459C32.366 35.9271 32.2396 35.9108 32.1179 35.8827C32.0453 35.8733 31.9774 35.8639 31.9048 35.8475C31.7784 35.8288 31.6566 35.8031 31.5349 35.775C31.4623 35.7609 31.385 35.7469 31.3125 35.7258C31.1579 35.6977 31.0104 35.6626 30.8606 35.6228C30.6709 35.5783 30.4766 35.5268 30.2917 35.4683C29.7227 35.3067 29.1632 35.1124 28.62 34.8853C28.2945 34.7588 27.9785 34.6137 27.6624 34.4615C27.5804 34.4264 27.5008 34.3842 27.4189 34.3444C27.2784 34.2765 27.1426 34.204 27.0115 34.1267C26.8359 34.0354 26.6627 33.9417 26.4917 33.8387C26.3208 33.7427 26.1476 33.6397 25.9813 33.5273C25.6606 33.333 25.3539 33.1199 25.0472 32.8999C24.7404 32.6774 24.4454 32.4433 24.1575 32.2045C24.0357 32.1062 23.9187 32.0008 23.8016 31.8978C21.4673 29.8328 19.7605 27.1684 18.838 24.2371C18.7936 24.0966 18.7514 23.9514 18.7116 23.8133C18.6039 23.4293 18.5079 23.036 18.4236 22.6473C18.3955 22.5162 18.3698 22.3804 18.3464 22.2493C18.3113 22.055 18.2785 21.8653 18.2504 21.6757C18.2223 21.5165 18.2059 21.3596 18.1872 21.2051C18.1684 21.0693 18.1544 20.9335 18.1427 20.7977C18.1193 20.5753 18.1076 20.3552 18.0935 20.1328C18.0748 19.8214 18.0654 19.51 18.0654 19.1939C18.0654 17.7845 18.2363 16.3937 18.5805 15.0475C18.6718 14.6823 18.7748 14.3194 18.8919 13.9588C19.009 13.5982 19.1354 13.2447 19.2759 12.8982C21.6921 6.83658 27.3557 2.72293 33.8715 2.29915C34.2461 2.27106 34.6207 2.25935 35 2.25935C35.3793 2.25935 35.7539 2.2734 36.1285 2.29915C42.6443 2.72293 48.3032 6.83424 50.7194 12.8982C50.8646 13.247 50.991 13.6029 51.1081 13.9635C51.2252 14.3194 51.3305 14.6823 51.4195 15.0475C51.7637 16.3891 51.9346 17.7845 51.9346 19.1939C51.9346 19.51 51.9252 19.8214 51.9065 20.1328Z" fill="white"/>
<path d="M20.3201 58.7103H13.5467C13.1557 58.7103 12.7928 58.5089 12.5868 58.1741C12.3808 57.8417 12.362 57.4249 12.5376 57.0761C14.0922 53.9668 16.087 51.2767 18.4658 49.0782C18.9458 48.6357 19.2103 48.0059 19.1916 47.3527C19.1588 46.1773 18.1755 45.194 17.0001 45.1612C16.3867 45.1472 15.8014 45.3696 15.3612 45.8004C14.9211 46.2289 14.6776 46.8048 14.6776 47.4206C14.6776 48.0433 14.1719 48.5491 13.5491 48.5491C12.9263 48.5491 12.4206 48.0433 12.4206 47.4206C12.4206 46.1914 12.9052 45.0418 13.7879 44.1826C14.6705 43.3256 15.8412 42.8691 17.0634 42.9066C19.4164 42.9721 21.3854 44.9388 21.4509 47.2941C21.4861 48.5982 20.9593 49.8555 19.9993 50.7405C18.248 52.3584 16.7192 54.2759 15.4432 56.4556H20.3224C20.9452 56.4556 21.4509 56.9613 21.4509 57.5841C21.4486 58.2046 20.9429 58.7103 20.3201 58.7103Z" fill="white"/>
<path d="M53.0631 42.9042C50.5743 42.9042 48.5467 44.9317 48.5467 47.4205V54.1939C48.5467 56.6827 50.5743 58.7103 53.0631 58.7103C55.5519 58.7103 57.5794 56.6827 57.5794 54.1939V47.4205C57.5794 44.9317 55.5519 42.9042 53.0631 42.9042ZM55.3201 54.1939C55.3201 55.4395 54.3086 56.4509 53.0631 56.4509C51.8175 56.4509 50.8061 55.4395 50.8061 54.1939V47.4205C50.8061 46.175 51.8175 45.1635 53.0631 45.1635C54.3086 45.1635 55.3201 46.175 55.3201 47.4205V54.1939Z" fill="white"/>
<path d="M33.8532 27.9853V30.2021C33.8532 30.8799 34.4034 31.4301 35.0812 31.4301C35.759 31.4301 36.3092 30.8799 36.3092 30.2021V28.0451C39.3034 27.5707 41.2251 25.1585 41.4045 22.8142C41.572 20.6413 40.2922 18.1056 36.3092 17.1886V11.8699C37.7325 12.4321 38.4821 13.9073 38.8329 14.8681C39.0642 15.5061 39.7699 15.833 40.4078 15.6017C41.0457 15.3705 41.3726 14.6648 41.1414 14.0269C40.6709 12.7351 39.3114 9.92826 36.3052 9.31028V8.15804C36.3052 7.48026 35.755 6.93005 35.0772 6.93005C34.3994 6.93005 33.8492 7.48026 33.8492 8.15804V9.30231C31.2258 9.82859 29.5512 11.9895 29.3918 14.0907C29.2402 16.0602 30.3686 18.3448 33.8492 19.2299V25.4177C32.2066 24.7838 31.3454 23.0973 30.9427 22.0048C30.7114 21.3669 30.0058 21.04 29.3678 21.2712C28.7299 21.5025 28.403 22.2082 28.6342 22.8501C29.1525 24.2495 30.6197 27.2876 33.8532 27.9853ZM38.9605 22.6228C38.8688 23.8309 37.8681 25.1107 36.3171 25.5293V19.7323C38.0874 20.2785 39.0602 21.3111 38.9605 22.6228ZM31.8477 14.2781C31.9195 13.3132 32.673 12.2925 33.8532 11.858V16.6583C32.5016 16.1639 31.768 15.3226 31.8477 14.2781Z" fill="#141414"/>
</svg>
