<svg width="80" height="80" viewBox="0 0 80 80" fill="none" xmlns="http://www.w3.org/2000/svg">
<g clip-path="url(#clip0_1701_9323)">
<path d="M72.4362 3.33252C73.5623 3.33363 74.642 3.7854 75.4387 4.58883C76.2354 5.39225 76.684 6.48177 76.6862 7.61853V57.5328C76.6851 58.6703 76.237 59.7609 75.4402 60.5652C74.6434 61.3695 73.563 61.8219 72.4362 61.823H7.56382C6.43699 61.8219 5.35662 61.3695 4.55983 60.5652C3.76304 59.7609 3.31493 58.6703 3.31383 57.5328V7.61853C3.31493 6.48104 3.76304 5.39046 4.55983 4.58613C5.35662 3.78181 6.43699 3.32944 7.56382 3.32833H72.4362V3.33252ZM72.4362 -0.0168446H7.56382C6.57037 -0.0173942 5.58655 0.179732 4.66862 0.563251C3.75069 0.946769 2.91664 1.50916 2.21417 2.21828C1.51169 2.9274 0.954572 3.76934 0.574647 4.69595C0.194723 5.62257 -0.000543369 6.61569 1.13563e-06 7.61853V57.5328C-0.000543369 58.5356 0.194723 59.5287 0.574647 60.4554C0.954572 61.382 1.51169 62.2239 2.21417 62.933C2.91664 63.6422 3.75069 64.2045 4.66862 64.5881C5.58655 64.9716 6.57037 65.1687 7.56382 65.1682H72.4362C73.4296 65.1687 74.4134 64.9716 75.3314 64.5881C76.2493 64.2045 77.0834 63.6422 77.7858 62.933C78.4883 62.2239 79.0454 61.382 79.4254 60.4554C79.8053 59.5287 80.0005 58.5356 80 57.5328V7.61853C80.0005 6.61569 79.8053 5.62257 79.4254 4.69595C79.0454 3.76934 78.4883 2.9274 77.7858 2.21828C77.0834 1.50916 76.2493 0.946769 75.3314 0.563251C74.4134 0.179732 73.4296 -0.0173942 72.4362 -0.0168446V-0.0168446Z" fill="#E50A14"/>
<path d="M54.835 66.4937H25.168V74.7646H54.835V66.4937Z" fill="#141414"/>
<path d="M61.3436 74.7646H18.6573C17.2275 74.7646 16.0684 75.9338 16.0684 77.376C16.0684 78.8182 17.2275 79.9873 18.6573 79.9873H61.3436C62.7734 79.9873 63.9325 78.8182 63.9325 77.376C63.9325 75.9338 62.7734 74.7646 61.3436 74.7646Z" fill="#141414"/>
<path d="M17.4092 25.511H10.5786C9.53308 25.511 8.68555 26.3665 8.68555 27.4219V51.2187C8.68555 52.2741 9.53308 53.1296 10.5786 53.1296H17.4092C18.4547 53.1296 19.3022 52.2741 19.3022 51.2187V27.4219C19.3022 26.3665 18.4547 25.511 17.4092 25.511Z" fill="#141414"/>
<path d="M31.167 7.79004H24.3364C23.2909 7.79004 22.4434 8.64559 22.4434 9.70097V51.2188C22.4434 52.2742 23.2909 53.1298 24.3364 53.1298H31.167C32.2125 53.1298 33.06 52.2742 33.06 51.2188V9.70097C33.06 8.64559 32.2125 7.79004 31.167 7.79004Z" fill="#E50A14"/>
<path d="M47.0896 12.8497V20.7192C42.72 22.1621 38.9717 25.0722 36.4688 28.965V12.8497C36.4688 12.3428 36.6682 11.8568 37.0232 11.4984C37.3782 11.1401 37.8597 10.9387 38.3618 10.9387H45.1965C45.6986 10.9387 46.1801 11.1401 46.5351 11.4984C46.8901 11.8568 47.0896 12.3428 47.0896 12.8497V12.8497Z" fill="#E50A14"/>
<path d="M61.0151 9.70928V21.2752C57.6592 19.876 53.9914 19.4166 50.3984 19.9455V9.70928C50.3995 9.2028 50.5993 8.7174 50.9541 8.35927C51.3089 8.00114 51.7897 7.79944 52.2915 7.79834H59.1221C59.6242 7.79834 60.1057 7.99967 60.4607 8.35804C60.8157 8.71641 61.0151 9.20247 61.0151 9.70928Z" fill="#E50A14"/>
<path d="M35.4793 38.9209L51.746 40.1754C51.9463 40.1903 52.1333 40.2825 52.2682 40.4327C52.4032 40.5829 52.4757 40.7797 52.4709 40.9824L52.1147 57.9884C52.1126 58.0996 52.0874 58.2091 52.0408 58.3098C51.9941 58.4106 51.927 58.5003 51.8439 58.5732C51.7607 58.6461 51.6633 58.7006 51.558 58.7331C51.4527 58.7657 51.3417 58.7755 51.2324 58.762C46.6608 58.2476 42.4375 56.0497 39.3707 52.5889C36.3038 49.1281 34.6086 44.6474 34.6094 40.0039V39.6987C34.6111 39.5883 34.6355 39.4796 34.6812 39.3793C34.7268 39.279 34.7926 39.1894 34.8745 39.1163C34.9563 39.0431 35.0524 38.9879 35.1565 38.9543C35.2606 38.9207 35.3706 38.9093 35.4793 38.9209V38.9209Z" fill="#141414"/>
<path d="M62.7233 24.9592L53.196 38.5866C53.0947 38.7308 52.9575 38.8454 52.7982 38.9189C52.6389 38.9923 52.4632 39.0219 52.2889 39.0048L35.8689 37.4827C35.729 37.4707 35.5931 37.4291 35.4702 37.3605C35.3473 37.2919 35.2402 37.1979 35.1557 37.0846C35.0713 36.9713 35.0115 36.8414 34.9802 36.7032C34.9489 36.565 34.9468 36.4217 34.9741 36.2827C35.5552 33.371 36.8086 30.6389 38.6325 28.3083C40.4563 25.9776 42.7992 24.1142 45.4706 22.8696C48.1421 21.6249 51.0668 21.034 54.007 21.145C56.9472 21.256 59.82 22.0657 62.3919 23.5082C62.5124 23.5775 62.6174 23.6712 62.7001 23.7834C62.7829 23.8956 62.8417 24.024 62.8729 24.1604C62.904 24.2967 62.9068 24.4381 62.8811 24.5756C62.8553 24.7131 62.8016 24.8437 62.7233 24.9592Z" fill="#E50A14"/>
<path d="M54.4012 41.133L67.5281 50.7085C67.6049 50.7647 67.6693 50.8363 67.7174 50.9188C67.7654 51.0013 67.7961 51.093 67.8073 51.188C67.8186 51.283 67.8103 51.3794 67.7829 51.471C67.7556 51.5627 67.7097 51.6476 67.6483 51.7205C64.3924 55.6343 59.5957 58.6074 54.1983 58.8624C54.1064 58.8647 54.0151 58.8482 53.9297 58.814C53.8443 58.7798 53.7666 58.7286 53.7012 58.6634C53.6359 58.5983 53.5842 58.5204 53.5493 58.4347C53.5145 58.3489 53.4971 58.2569 53.4982 58.1641L53.3242 41.6849C53.3264 41.5596 53.3624 41.4372 53.4283 41.331C53.4941 41.2247 53.5875 41.1386 53.6982 41.0818C53.8089 41.0251 53.9329 40.9999 54.0568 41.0089C54.1806 41.0179 54.2997 41.0608 54.4012 41.133V41.133Z" fill="#E50A14"/>
<path d="M72.0223 40.0041C72.0286 43.4087 71.1164 46.7508 69.3837 49.6717C69.3355 49.7557 69.2707 49.8287 69.1932 49.8861C69.1157 49.9435 69.0273 49.9841 68.9335 50.0053C68.8397 50.0265 68.7426 50.0279 68.6482 50.0093C68.5539 49.9908 68.4644 49.9527 68.3854 49.8975L54.5625 40.1923C54.4856 40.1383 54.4204 40.0691 54.3707 39.9889C54.3211 39.9087 54.2881 39.8192 54.2738 39.7257C54.2594 39.6323 54.2641 39.5369 54.2873 39.4453C54.3106 39.3537 54.3521 39.2678 54.4093 39.1929L64.4916 25.7871C64.5496 25.7102 64.6227 25.6463 64.7062 25.5992C64.7898 25.5522 64.8821 25.523 64.9774 25.5136C65.0726 25.5042 65.1688 25.5147 65.2598 25.5445C65.3508 25.5743 65.4348 25.6227 65.5065 25.6867C67.5531 27.456 69.1955 29.6521 70.3204 32.1238C71.4452 34.5955 72.0259 37.2841 72.0223 40.0041V40.0041Z" fill="#141414"/>
</g>
<defs>
<clipPath id="clip0_1701_9323">
<rect width="80" height="80" fill="white"/>
</clipPath>
</defs>
</svg>
