<svg width="26" height="26" viewBox="0 0 26 26" fill="none" xmlns="http://www.w3.org/2000/svg">
<path d="M2.6001 7.80001C2.6001 6.36407 3.76416 5.20001 5.2001 5.20001H20.8001C22.236 5.20001 23.4001 6.36407 23.4001 7.80001V23.4C23.4001 24.836 22.236 26 20.8001 26H5.2001C3.76416 26 2.6001 24.836 2.6001 23.4V7.80001Z" fill="#E50A14"/>
<path d="M16.4559 5.2C17.362 4.85281 18.2043 4.44667 18.584 4.13551C19.7421 3.1267 19.806 1.56763 18.7532 0.650528C18.2268 0.191978 17.5124 -0.0274711 16.7529 0.00855781C16.0159 0.0445867 15.3204 0.319717 14.7752 0.797919C14.2262 1.27612 13.5344 2.61247 13.008 3.75229C12.4816 2.61574 11.786 1.29577 11.2408 0.797919C10.0827 -0.210891 8.29294 -0.266572 7.24014 0.650528C6.18734 1.56763 6.27006 3.1267 7.40934 4.13551C7.7891 4.46632 8.63133 4.84954 9.53749 5.2" fill="#141414"/>
<path d="M17.6377 17.5315C16.9267 19.4947 15.0537 20.8001 13.0002 20.8001C10.9202 20.8001 9.04713 19.4947 8.36264 17.5633C8.18224 17.0274 8.45285 16.465 8.95693 16.258C9.49285 16.0511 10.0553 16.3482 10.2622 16.8523C10.6761 18.009 11.7798 18.7519 12.9949 18.7519C14.21 18.7519 15.3137 17.9772 15.7275 16.8523C15.9079 16.3164 16.5022 16.0511 17.0328 16.2262C17.5741 16.4331 17.8447 16.9956 17.6377 17.5315Z" fill="#141414"/>
<path d="M9.49295 13.8172C10.4278 13.8172 11.1856 13.0594 11.1856 12.1245C11.1856 11.1897 10.4278 10.4319 9.49295 10.4319C8.55812 10.4319 7.80029 11.1897 7.80029 12.1245C7.80029 13.0594 8.55812 13.8172 9.49295 13.8172Z" fill="#141414"/>
<path d="M16.5076 13.7853C17.4424 13.7853 18.2002 13.0275 18.2002 12.0927C18.2002 11.1579 17.4424 10.4 16.5076 10.4C15.5728 10.4 14.8149 11.1579 14.8149 12.0927C14.8149 13.0275 15.5728 13.7853 16.5076 13.7853Z" fill="#141414"/>
</svg>
