<svg width="300" height="160" viewBox="0 0 300 160" fill="none" xmlns="http://www.w3.org/2000/svg">
<path d="M0 10C0 4.47715 4.47715 0 10 0H290C295.523 0 300 4.47715 300 10V160H0V10Z" fill="white"/>
<path d="M118 64C118 59.5817 121.582 56 126 56H174C178.418 56 182 59.5817 182 64V112C182 116.418 178.418 120 174 120H126C121.582 120 118 116.418 118 112V64Z" fill="#E50A14"/>
<path d="M160.633 56C163.422 54.9317 166.013 53.6821 167.182 52.7246C170.745 49.6206 170.942 44.8235 167.702 42.0016C166.083 40.5907 163.884 39.9155 161.547 40.0263C159.28 40.1372 157.14 40.9837 155.462 42.4551C153.773 43.9265 151.644 48.0384 150.024 51.5455C148.405 48.0484 146.265 43.987 144.587 42.4551C141.024 39.3511 135.517 39.1798 132.277 42.0016C129.038 44.8235 129.293 49.6206 132.798 52.7246C133.966 53.7425 136.558 54.9217 139.346 56" fill="#141414"/>
<path d="M164.269 93.9428C162.081 99.9836 156.318 104 150 104C143.6 104 137.837 99.9836 135.73 94.0408C135.175 92.3918 136.008 90.6612 137.559 90.0244C139.208 89.3877 140.939 90.302 141.575 91.853C142.849 95.4122 146.245 97.6979 149.983 97.6979C153.722 97.6979 157.118 95.3142 158.392 91.853C158.947 90.204 160.775 89.3877 162.408 89.9265C164.073 90.5632 164.906 92.2938 164.269 93.9428Z" fill="#141414"/>
<path d="M139.208 82.5142C142.085 82.5142 144.416 80.1825 144.416 77.3061C144.416 74.4297 142.085 72.0979 139.208 72.0979C136.332 72.0979 134 74.4297 134 77.3061C134 80.1825 136.332 82.5142 139.208 82.5142Z" fill="#141414"/>
<path d="M160.792 82.4163C163.668 82.4163 166 80.0846 166 77.2082C166 74.3318 163.668 72 160.792 72C157.915 72 155.583 74.3318 155.583 77.2082C155.583 80.0846 157.915 82.4163 160.792 82.4163Z" fill="#141414"/>
</svg>
