<svg width="80" height="80" viewBox="0 0 80 80" fill="none" xmlns="http://www.w3.org/2000/svg">
<g clip-path="url(#clip0_1801_150)">
<path d="M0 36C0 33.7909 1.79086 32 4 32H24.68C26.8891 32 28.68 33.7909 28.68 36V72C28.68 74.2091 26.8891 76 24.68 76H4C1.79086 76 0 74.2091 0 72V36Z" fill="#E50A14"/>
<path d="M0 33C0 32.4477 0.447715 32 1 32H27.68C28.2323 32 28.68 32.4477 28.68 33V46C28.68 47.1046 27.7846 48 26.68 48H2C0.895432 48 0 47.1046 0 46V33Z" fill="#141414"/>
<path d="M28 32C28 34.2091 21.732 36 14 36C6.26801 36 0 34.2091 0 32C0 29.7909 6.26801 26 14 26C21.732 26 28 29.7909 28 32Z" fill="#141414"/>
<path d="M14.3326 44.4186C6.41739 44.4186 0 41.8361 0 38.6855V44.4186C0 47.5907 6.41739 50.1516 14.3326 50.1516C22.2478 50.1516 28.6695 47.5692 28.6695 44.4186V38.6855C28.6652 41.849 22.2521 44.4186 14.3326 44.4186Z" fill="#141414"/>
<path d="M14.3326 51.8772C6.41739 51.8772 0 49.2947 0 46.1484V51.8772C0 55.0493 6.41739 57.6145 14.3326 57.6145C22.2478 57.6145 28.6695 55.0321 28.6695 51.8772V46.1484C28.6652 49.3162 22.2521 51.8772 14.3326 51.8772Z" fill="#141414"/>
<path d="M14.3326 59.3405C6.41739 59.3405 0 56.758 0 53.6074V59.3405C0 62.5126 6.41739 65.0735 14.3326 65.0735C22.2478 65.0735 28.6695 62.4911 28.6695 59.3405V53.6074C28.6652 56.7795 22.2521 59.3405 14.3326 59.3405Z" fill="#141414"/>
<path d="M14.3326 66.8043C6.41739 66.8043 0 64.2219 0 61.0713V66.8043C0 69.9721 6.41739 72.5417 14.3326 72.5417C22.2478 72.5417 28.6695 69.9592 28.6695 66.8043V61.0713C28.6652 64.2391 22.2521 66.8043 14.3326 66.8043Z" fill="#141414"/>
<path d="M14.3326 74.2672C6.41739 74.2672 0 71.6848 0 68.5342V74.2672C0 77.435 6.41739 80.0003 14.3326 80.0003C22.2478 80.0003 28.6695 77.4178 28.6695 74.2672V68.5342C28.6652 71.702 22.2521 74.2672 14.3326 74.2672Z" fill="#141414"/>
<path d="M14.3326 25.5322C6.41739 25.5322 0 28.1147 0 31.2653V37.0155C0 40.1876 6.41739 42.7485 14.3326 42.7485C22.2478 42.7485 28.6695 40.1661 28.6695 37.0155V31.2653C28.6652 28.0975 22.2521 25.5322 14.3326 25.5322ZM14.3326 35.5693C6.46043 35.5693 1.42035 33.0213 1.42035 31.2653C1.42035 29.5092 6.44752 26.9612 14.3326 26.9612C22.2177 26.9612 27.2449 29.5049 27.2449 31.2653C27.2449 33.0256 22.2091 35.5693 14.3326 35.5693Z" fill="#E50A14"/>
<path d="M15.4263 30.6106C13.7692 30.3438 13.0849 30.1802 13.0849 29.8918C13.0849 29.6035 13.5153 29.427 14.7592 29.427C15.7029 29.4283 16.6443 29.522 17.5697 29.7068L18.1379 28.7685C17.2056 28.5914 16.259 28.5006 15.3101 28.4973V27.7656H13.3948V28.5533C11.3116 28.7297 10.1021 29.3022 10.1021 30.0382C10.1021 30.843 11.5268 31.2605 13.61 31.5575C15.0518 31.7684 15.6759 31.9879 15.6759 32.2806C15.6759 32.5733 14.9184 32.7971 13.8037 32.7971C12.7173 32.7971 11.6344 32.6744 10.5756 32.4313L9.99023 33.3997C11.0786 33.6312 12.1874 33.7523 13.3001 33.7612V34.5489H15.2111V33.688C17.4535 33.5202 18.6802 32.8875 18.6802 32.1472C18.6802 31.4069 17.7462 30.9593 15.4263 30.6106Z" fill="#E50A14"/>
<path d="M50.5304 14.8152H61.6092C62.2 12.5768 63.3674 10.3946 64.5205 8.2586C65.7163 6.03621 66.837 3.95247 66.9466 2.37912C66.9619 2.09053 66.9174 1.80189 66.8158 1.53097C66.7142 1.26004 66.5577 1.01256 66.3558 0.803756C66.1192 0.551547 65.8327 0.350084 65.5143 0.211833C65.1958 0.073582 64.852 0.00148412 64.5043 0H47.4973C47.1345 0.00431444 46.7764 0.0817258 46.4448 0.227513C46.1132 0.3733 45.8151 0.584408 45.5686 0.847963C45.3793 1.04625 45.2354 1.28263 45.1467 1.54097C45.0581 1.79932 45.0268 2.07355 45.055 2.34496C45.2255 3.85803 46.3157 5.83125 47.4526 7.89892C48.6342 10.0309 49.9092 12.408 50.5304 14.8132V14.8152Z" fill="#141414"/>
<path d="M32 30.2803C32 27.5189 34.2386 25.2803 37 25.2803H75C77.7614 25.2803 80 27.5188 80 30.2803V80.0003H32V30.2803Z" fill="#E50A14"/>
<path d="M49.1278 16.3584C48.1397 16.3584 47.1922 16.7469 46.4935 17.4384C45.7948 18.1299 45.4023 19.0677 45.4023 20.0456C45.4023 21.0236 45.7948 21.9614 46.4935 22.6529C47.1922 23.3444 48.1397 23.7329 49.1278 23.7329H50.7925C50.8717 23.7329 50.9489 23.7168 51.0423 23.7168H60.9537C61.0329 23.7168 61.1243 23.7329 61.2034 23.7329H62.8682C63.3574 23.7329 63.8419 23.6375 64.2939 23.4522C64.7458 23.2669 65.1565 22.9953 65.5025 22.6529C65.8484 22.3105 66.1228 21.904 66.31 21.4567C66.4973 21.0093 66.5936 20.5299 66.5936 20.0456C66.5936 19.5614 66.4973 19.0819 66.31 18.6346C66.1228 18.1872 65.8484 17.7808 65.5025 17.4384C65.1565 17.096 64.7458 16.8244 64.2939 16.6391C63.8419 16.4538 63.3574 16.3584 62.8682 16.3584H49.1278Z" fill="#141414"/>
<path d="M54.5583 63.1163V65.9136C54.5583 66.7689 55.2526 67.4632 56.1079 67.4632C56.9632 67.4632 57.6575 66.7689 57.6575 65.9136V63.1917C61.4359 62.593 63.8609 59.5492 64.0873 56.5909C64.2986 53.8489 62.6836 50.6491 57.6575 49.492V42.7804C59.4536 43.4898 60.3995 45.3514 60.8422 46.5639C61.134 47.3688 62.0245 47.7814 62.8295 47.4896C63.6345 47.1978 64.047 46.3073 63.7552 45.5023C63.1615 43.8722 61.4459 40.3303 57.6525 39.5505V38.0965C57.6525 37.2412 56.9582 36.5469 56.1029 36.5469C55.2476 36.5469 54.5533 37.2412 54.5533 38.0965V39.5404C51.2428 40.2045 49.1297 42.9314 48.9285 45.5828C48.7373 48.0682 50.1611 50.951 54.5533 52.0679V59.8762C52.4805 59.0763 51.3937 56.9481 50.8856 55.5696C50.5938 54.7646 49.7033 54.352 48.8983 54.6438C48.0933 54.9357 47.6808 55.8262 47.9726 56.6362C48.6266 58.4021 50.4781 62.2358 54.5583 63.1163ZM61.0032 56.3494C60.8875 57.8738 59.6247 59.4888 57.6675 60.0171V52.7018C59.9014 53.3911 61.129 54.6942 61.0032 56.3494ZM52.0277 45.8192C52.1182 44.6017 53.0691 43.3137 54.5583 42.7654V48.8228C52.8528 48.199 51.927 47.1374 52.0277 45.8192Z" fill="#141414"/>
</g>
<defs>
<clipPath id="clip0_1801_150">
<rect width="80" height="80" fill="white"/>
</clipPath>
</defs>
</svg>
