<svg width="70" height="70" viewBox="0 0 70 70" fill="none" xmlns="http://www.w3.org/2000/svg">
<g clip-path="url(#clip0_1401_11400)">
<path d="M19.0091 48.1807H3.05302C1.68081 48.1807 0.564484 49.3442 0.564484 50.7754V67.4062C0.564484 68.8364 1.68084 70 3.05302 70H19.0091C20.3813 70 21.4976 68.8364 21.4976 67.4062L21.4981 50.7754C21.4981 49.3447 20.3812 48.1811 19.009 48.1811L19.0091 48.1807ZM5.354 67.0579C4.26585 67.0579 3.38715 66.1426 3.38715 65.0079C3.38715 63.8874 4.26582 62.9579 5.354 62.9579C6.44218 62.9579 7.32085 63.8874 7.32085 65.0079C7.32085 66.1421 6.44218 67.0579 5.354 67.0579V67.0579ZM5.354 55.2234C4.26585 55.2234 3.38715 54.3081 3.38715 53.1734C3.38715 52.0529 4.26532 51.1234 5.354 51.1234C6.44215 51.1234 7.32085 52.0529 7.32085 53.1734C7.32085 54.3076 6.44218 55.2234 5.354 55.2234V55.2234ZM11.0314 61.1404C9.94327 61.1404 9.06457 60.2246 9.06457 59.0904C9.06457 57.9699 9.94325 57.0403 11.0314 57.0403C12.1196 57.0403 12.9983 57.9698 12.9983 59.0904C12.9978 60.2251 12.1196 61.1404 11.0314 61.1404ZM16.7083 67.0579C15.6202 67.0579 14.7415 66.1426 14.7415 65.0079C14.7415 63.8874 15.6202 62.9579 16.7083 62.9579C17.7965 62.9579 18.6752 63.8874 18.6752 65.0079C18.6752 66.1421 17.7965 67.0579 16.7083 67.0579ZM16.7083 55.2234C15.6202 55.2234 14.7415 54.3081 14.7415 53.1734C14.7415 52.0529 15.6202 51.1234 16.7083 51.1234C17.7965 51.1234 18.6752 52.0529 18.6752 53.1734C18.6752 54.3076 17.7965 55.2234 16.7083 55.2234Z" fill="white"/>
<path d="M5.354 67.058C4.26585 67.058 3.38715 66.1427 3.38715 65.0079C3.38715 63.8874 4.26582 62.9579 5.354 62.9579C6.44218 62.9579 7.32085 63.8874 7.32085 65.0079C7.32085 66.1421 6.44218 67.058 5.354 67.058ZM5.354 55.2235C4.26585 55.2235 3.38715 54.3082 3.38715 53.1734C3.38715 52.0529 4.26532 51.1234 5.354 51.1234C6.44215 51.1234 7.32085 52.0529 7.32085 53.1734C7.32085 54.3076 6.44218 55.2235 5.354 55.2235ZM11.0314 61.1405C9.94327 61.1405 9.06457 60.2246 9.06457 59.0904C9.06457 57.9699 9.94325 57.0404 11.0314 57.0404C12.1196 57.0404 12.9983 57.9699 12.9983 59.0904C12.9978 60.2251 12.1196 61.1405 11.0314 61.1405ZM16.7083 67.058C15.6202 67.058 14.7415 66.1427 14.7415 65.0079C14.7415 63.8874 15.6202 62.9579 16.7083 62.9579C17.7965 62.9579 18.6752 63.8874 18.6752 65.0079C18.6752 66.1421 17.7965 67.058 16.7083 67.058ZM16.7083 55.2235C15.6202 55.2235 14.7415 54.3082 14.7415 53.1734C14.7415 52.0529 15.6202 51.1234 16.7083 51.1234C17.7965 51.1234 18.6752 52.0529 18.6752 53.1734C18.6752 54.3076 17.7965 55.2235 16.7083 55.2235Z" fill="#141414"/>
<path d="M4.49935 11.8503L1.54559 13.8158C-0.00682693 14.8613 -0.468054 17.0315 0.521393 18.6532L11.35 36.3455C11.3148 36.2206 4.5492 12.0294 4.49932 11.8494L4.49935 11.8503Z" fill="white"/>
<path d="M14.6868 44.0921V4.06689L7.47412 5.89389C5.76405 6.42031 4.68807 8.33853 5.22084 10.2259C5.13373 9.91306 6.36237 14.2996 14.687 44.0921H14.6868Z" fill="#141414"/>
<path d="M55.313 18.321V59.6454L62.4884 57.2815C64.277 56.7321 65.3001 54.7854 64.7786 52.9386C60.5962 38.5959 55.3483 18.4543 55.313 18.3199V18.321Z" fill="#141414"/>
<path d="M50.8296 0.000488281H19.1689C17.3199 0.000488281 15.8158 1.57395 15.8158 3.50749V47.0031H19.0088C21.0034 47.0031 22.6267 48.6947 22.6267 50.7746L22.6262 63.1638H50.8296C52.6786 63.1638 54.1832 61.5904 54.1832 59.6568V3.50736C54.1832 1.57328 52.6786 0.000488281 50.8296 0.000488281Z" fill="white"/>
<path d="M69.4785 44.5141L59.2299 28.3508L65.5056 51.3045L68.4554 49.3432C70.0078 48.3014 70.4675 46.1343 69.4786 44.5142L69.4785 44.5141Z" fill="white"/>
<path d="M39.0759 22.834C37.6448 22.834 36.2928 23.5625 35.4589 24.7838C35.2474 25.094 34.7509 25.094 34.5395 24.7838C33.7056 23.5625 32.3496 22.834 30.911 22.834C28.4542 22.834 26.4552 24.9228 26.4552 27.4908C26.4552 32.5691 33.3602 38.7653 34.9993 40.1645C36.6383 38.7653 43.5433 32.5686 43.5433 27.4908C43.5433 24.9228 41.5392 22.834 39.0759 22.834H39.0759Z" fill="#141414"/>
<path d="M24.0661 3.98608C23.6365 3.98608 23.2312 4.20494 22.9814 4.57128C22.7709 4.88146 22.2739 4.88355 22.0615 4.5718C21.8107 4.20494 21.4033 3.98609 20.9713 3.98609C20.2336 3.98609 19.6334 4.61431 19.6334 5.38582C19.6334 6.85691 21.4803 8.79569 22.5211 9.71671C23.562 8.79562 25.4089 6.85691 25.4089 5.38582C25.4089 4.61379 24.8062 3.98609 24.066 3.98609L24.0661 3.98608Z" fill="#141414"/>
<path d="M49.0223 53.2769C48.5933 53.2769 48.187 53.4957 47.9367 53.8621C47.831 54.0174 47.6593 54.1092 47.477 54.1092C47.2937 54.1092 47.123 54.0174 47.0172 53.8621C46.767 53.4962 46.3596 53.2769 45.9276 53.2769C45.1894 53.2769 44.5891 53.9046 44.5891 54.6761C44.5891 56.1471 46.4361 58.0865 47.4769 59.008C48.5177 58.0869 50.3652 56.1471 50.3652 54.6761C50.3657 53.9045 49.7629 53.2769 49.0222 53.2769H49.0223Z" fill="#141414"/>
</g>
<defs>
<clipPath id="clip0_1401_11400">
<rect width="70" height="70" fill="white"/>
</clipPath>
</defs>
</svg>
