<svg width="17" height="16" viewBox="0 0 17 16" fill="none" xmlns="http://www.w3.org/2000/svg">
<path fill-rule="evenodd" clip-rule="evenodd" d="M8.5 0C12.9183 0 16.5 3.58172 16.5 8C16.5 12.4183 12.9183 16 8.5 16C4.08172 16 0.5 12.4183 0.5 8C0.5 3.58172 4.08172 0 8.5 0Z" fill="#182633"/>
<path fill-rule="evenodd" clip-rule="evenodd" d="M11.4822 5.8189C11.192 5.527 10.7212 5.527 10.4312 5.8189L7.80415 8.46163C7.73077 8.53517 7.61188 8.53517 7.53864 8.46163L6.56843 7.48577C6.27827 7.19387 5.80745 7.19387 5.51743 7.48577C5.22726 7.77753 5.22726 8.25116 5.51743 8.54292L7.14582 10.1811C7.43585 10.4729 7.90666 10.4729 8.19683 10.1811L11.4822 6.87605C11.6215 6.73588 11.6998 6.54569 11.6998 6.34747C11.6998 6.14926 11.6215 5.95907 11.4822 5.8189Z" fill="white"/>
</svg>
