<svg width="80" height="80" viewBox="0 0 80 80" fill="none" xmlns="http://www.w3.org/2000/svg">
<path d="M0.00187501 79.9216C26.5122 80.0973 53.4897 79.9216 80 79.9216V75.7948H4.3299V0H0L0.00187501 79.9216Z" fill="#141414"/>
<path d="M8.84961 57.2197H22.0176V71.2904H8.84961V57.2197Z" fill="#E50A14"/>
<path d="M62.3105 48.5903H75.4785V71.2923H62.3105V48.5903Z" fill="#141414"/>
<path d="M26.7578 41.9316H39.9258V71.2885H26.7578V41.9316Z" fill="#E50A14"/>
<path d="M44.5234 40.6284H57.6914V71.2941H44.5234V40.6284Z" fill="#E50A14"/>
<path d="M8.85352 38.3359H22.0214V55.4077H8.85352V38.3359Z" fill="#E50A14"/>
<path d="M26.7363 15.7441H39.908V40.1328H26.7363V15.7441Z" fill="#E50A14"/>
<path d="M44.4102 7.15405H57.578V38.6725H44.4102V7.15405Z" fill="#E50A14"/>
<path d="M62.373 18.8071H75.541V46.7616H62.373V18.8071Z" fill="#141414"/>
</svg>
