<svg width="300" height="160" viewBox="0 0 300 160" fill="none" xmlns="http://www.w3.org/2000/svg">
<path d="M0 10C0 4.47715 4.47715 0 10 0H290C295.523 0 300 4.47715 300 10V160H0V10Z" fill="white"/>
<g clip-path="url(#clip0_1701_466)">
<path d="M137.111 74.4357C134.295 73.8036 131.752 75.2465 130.649 77.5143C129.291 76.6893 128.235 75.4393 127.669 73.9357C129.89 73.15 131.491 71.0572 131.491 68.5715C131.491 65.4143 128.926 62.8572 125.76 62.8572C122.593 62.8572 120.029 65.4143 120.029 68.5715C120.029 71.0572 121.63 73.15 123.851 73.9357C123.285 75.4393 122.228 76.6893 120.871 77.5143C119.764 75.2465 117.224 73.8036 114.409 74.4357C112.289 74.9107 110.558 76.675 110.125 78.8C109.366 82.4786 112.167 85.7143 115.727 85.7143C117.998 85.7143 119.943 84.3858 120.871 82.4786C121.186 82.6715 121.483 82.8857 121.762 83.125C123.75 84.8143 124.316 87.6572 123.564 90.1536L121.458 97.1429H130.054L127.952 90.15C127.2 87.6572 127.766 84.8108 129.754 83.1215C130.033 82.8858 130.33 82.6679 130.645 82.475C131.573 84.3857 133.518 85.7108 135.789 85.7108C139.349 85.7108 142.15 82.475 141.398 78.7929C140.958 76.675 139.231 74.9107 137.111 74.4357Z" fill="#141414"/>
<path d="M174.469 62.8572C174.469 62.8572 158.938 76.9643 158.938 81.2572C158.938 84.8822 162.52 87.6 166.073 88.3429C166.704 88.5143 167.363 88.5715 168.022 88.5715C169.397 88.5715 170.687 88.2858 171.862 87.7143C172.693 89.3143 172.263 90.1429 172.263 90.1429L170.171 97.1429H178.767L176.676 90.1429C176.676 90.1429 176.246 89.3143 177.077 87.7143C178.252 88.2858 179.541 88.5715 180.916 88.5715C181.576 88.5715 182.235 88.5143 182.865 88.3429C186.418 87.6 190 84.8822 190 81.2572C190 76.9643 174.469 62.8572 174.469 62.8572Z" fill="#141414"/>
<path d="M166.467 56.725C159.572 53.2857 153.978 47.7107 150.532 40.8357L150.113 40L149.694 40.8357C146.244 47.7107 140.653 53.2893 133.758 56.725L132.92 57.1429L133.758 57.5607C140.653 61 146.248 66.575 149.694 73.45L150.113 74.2857L150.532 73.45C153.981 66.575 159.572 60.9964 166.467 57.5607L167.306 57.1429L166.467 56.725Z" fill="#E50A14"/>
<path d="M167.306 98.5714H167.162C166.46 93.7321 162.327 90 157.276 90C154.465 90 151.932 91.1607 150.113 93.0143C148.293 91.1571 145.761 90 142.949 90C137.902 90 133.765 93.7321 133.063 98.5714H132.92L133.049 98.7321C132.995 99.1536 132.92 99.5679 132.92 100C132.92 103.468 134.697 106.504 137.394 108.282C141.326 110.879 145.084 113.729 148.028 117.4L150.113 120L152.197 117.4C155.142 113.729 158.899 110.879 162.832 108.282C165.525 106.504 167.306 103.468 167.306 100C167.306 99.5643 167.23 99.15 167.177 98.7321L167.306 98.5714Z" fill="#E50A14"/>
</g>
<defs>
<clipPath id="clip0_1701_466">
<rect width="80" height="80" fill="white" transform="translate(110 40)"/>
</clipPath>
</defs>
</svg>
