<svg width="70" height="70" viewBox="0 0 70 70" fill="none" xmlns="http://www.w3.org/2000/svg">
<path d="M69.9998 34.8505C70.044 49.0112 61.6131 61.8044 48.5475 67.2746C35.4818 72.7448 20.4299 69.8333 10.3658 59.8634C0.301721 49.8935 -2.74399 34.8505 2.59703 21.7485C7.93805 8.64653 20.6947 0.0883224 34.8197 9.34963e-05C54.1975 -0.044021 69.9115 15.5284 69.9998 34.8505Z" fill="#8DC63F"/>
<path d="M67.3953 34.8505C67.4394 47.9525 59.6265 59.7752 47.532 64.8483C35.4375 69.9215 21.5331 67.1864 12.2195 58.0106C2.90579 48.7907 0.0807816 34.8946 5.02454 22.8073C9.96829 10.6758 21.7538 2.77931 34.8195 2.69108C52.7406 2.60285 67.307 16.9842 67.3953 34.8505Z" fill="#F9E988"/>
<path d="M35.6143 4.76444C37.6889 4.41153 39.7635 4.41153 41.8381 4.76444C43.9127 5.07324 45.9432 5.77907 47.7971 6.74959C49.651 7.76423 51.24 9.13177 52.8291 10.4111C54.4182 11.6904 56.0072 13.0139 57.508 14.4696C59.0529 15.8813 60.3772 17.5135 61.4807 19.2781C62.6283 21.0427 63.5553 22.9396 64.2615 24.8806C65.6299 28.8509 66.0713 33.13 65.4092 37.1886H65.1885C64.5264 33.13 63.5994 29.2921 62.1428 25.6306C61.4807 23.7778 60.642 21.9691 59.7592 20.2486C58.7881 18.5281 57.7729 16.8077 56.6252 15.2196C55.4776 13.5873 54.0209 12.1316 52.3877 10.9405C50.7545 9.74938 48.8565 8.99944 47.0467 8.29361C45.2369 7.58777 43.383 6.83783 41.485 6.26434C39.5869 5.73496 37.6447 5.29382 35.6143 4.89679V4.76444Z" fill="white"/>
<path d="M51.4164 23.4248C49.077 22.7631 46.6493 21.7926 44.1774 20.8221C44.045 20.2045 43.4711 19.4545 42.3676 18.484C40.7785 17.0723 37.7328 17.1164 35.1285 17.734C32.2594 17.0723 29.3903 16.8076 26.6535 17.4694C4.27421 23.6454 16.9426 38.6443 8.73242 53.7755C9.88008 56.2459 22.5043 70.7155 40.7344 66.8334C40.7344 66.8334 34.5106 51.8786 48.5914 44.688C60.0239 38.8649 68.234 28.0127 51.4164 23.4248Z" fill="#8BC53F"/>
<path d="M35.1289 17.7344C36.7621 17.8668 42.677 19.7648 44.1777 20.8242C42.8977 17.1605 38.6602 16.675 35.1289 17.7344Z" fill="#009345"/>
<path d="M54.198 33.2624C54.198 34.4535 52.7414 35.0711 51.9027 34.2329C51.064 33.3947 51.6378 31.939 52.8296 31.8948C53.58 31.939 54.198 32.5124 54.198 33.2624ZM36.6742 27.0423C36.6742 29.5568 35.1292 31.8507 32.7898 32.8212C30.4503 33.7918 27.7577 33.2624 25.948 31.4537C24.1382 29.645 23.6085 26.954 24.5796 24.616C25.5507 22.2779 27.846 20.7339 30.362 20.7339C32.0394 20.7339 33.6284 21.3956 34.7761 22.5426C36.012 23.7778 36.6742 25.3659 36.6742 27.0423Z" fill="white"/>
<path d="M34.8198 27.0864C34.8198 28.851 33.7604 30.4832 32.083 31.1449C30.4498 31.8067 28.5518 31.4537 27.2717 30.1744C25.9916 28.8951 25.6385 27.0423 26.3006 25.3659C26.9627 23.7337 28.5959 22.6309 30.3616 22.6309C32.8334 22.675 34.8198 24.6601 34.8198 27.0864Z" fill="#58595B"/>
<path d="M59.2741 36.0416C54.1979 39.6149 48.4155 42.3059 40.2494 42.3059C36.4092 42.3059 35.6588 38.2473 33.0987 40.2325C31.7744 41.2471 27.1838 43.5411 23.5201 43.4087C19.8565 43.2323 13.9416 41.0707 12.3084 33.3065C11.6463 41.1148 11.3373 46.8497 8.37988 53.4227C14.2064 62.775 28.1108 69.9656 40.735 66.8776C39.3666 57.393 47.6651 48.129 52.2998 43.4087C54.1096 41.5559 57.5084 38.6444 59.2741 36.0416Z" fill="#8BC53F"/>
<path d="M59.0528 36.2622C57.4637 37.718 55.6098 38.7767 53.7117 39.7031C51.7695 40.6295 49.7832 41.3354 47.7086 41.9089C45.634 42.4382 43.4711 42.8353 41.3082 42.6588C39.1012 42.4823 36.8941 41.7324 35.4375 40.1002L35.5258 40.0119C37.2914 41.1589 39.366 41.5559 41.3965 41.6442C43.4711 41.6883 45.5457 41.5559 47.5762 41.1589C49.6067 40.7178 51.6371 40.1002 53.5793 39.3061C55.5215 38.512 57.4196 37.5856 59.0969 36.2622H59.0528Z" fill="#58595B"/>
</svg>
