<svg width="70" height="70" viewBox="0 0 70 70" fill="none" xmlns="http://www.w3.org/2000/svg">
<path d="M70 35C70 54.3289 54.3289 70 35 70C15.6711 70 0 54.3289 0 35C0 15.6711 15.6711 0 35 0C54.3329 0 70 15.6711 70 35Z" fill="#E75C0D"/>
<path d="M39.897 28.4169C43.3562 27.8033 46.324 27.144 49.3163 26.8111C50.5452 26.674 52.8002 26.9025 53.003 27.5291C53.5558 29.6301 53.78 31.8133 53.6665 33.9916C53.6665 35.2579 53.0521 36.5178 52.7817 37.7907C52.5605 38.8025 52.4684 39.8404 52.241 40.8457C52.0506 41.6616 51.6573 42.4319 51.516 43.2544C51.0245 46.1527 50.9016 49.1293 50.0844 51.9428C49.2303 54.8346 47.2149 56.5122 44.2042 57.4196C38.2011 59.293 32.4745 57.8634 26.6435 56.93C25.7403 56.7864 24.8309 56.6297 23.9154 56.5448C18.3854 56.0422 19.7188 57.1976 18.4715 51.3553C17.642 47.4387 17.2426 43.4437 16.4377 39.5205C16.0444 37.5622 16.8063 36.7854 18.281 35.7214C22.2784 32.9645 26.0704 29.8852 29.6235 26.5108C32.7756 23.384 34.0045 18.9713 34.1827 14.3953C34.2687 12.3652 35.2457 11.8561 36.8739 11.6929C38.6189 11.5166 39.8171 12.202 39.8662 14.0494C39.9768 18.5796 39.897 23.1229 39.897 28.4169Z" fill="white"/>
</svg>
