<svg width="97" height="85" viewBox="0 0 97 85" fill="none" xmlns="http://www.w3.org/2000/svg">
<path d="M76.8465 67.4586C80.4972 67.4586 83.4567 64.5012 83.4567 60.8531C83.4567 57.205 80.4972 54.2476 76.8465 54.2476C73.1958 54.2476 70.2363 57.205 70.2363 60.8531C70.2363 64.5012 73.1958 67.4586 76.8465 67.4586Z" fill="#44982F"/>
<path d="M76.8462 67.6285C70.3203 67.6285 64.9246 72.4571 64.0361 78.7343C67.4019 81.8435 71.9016 83.7443 76.8462 83.7443C81.7907 83.7443 86.2904 81.8435 89.6562 78.7343C88.7677 72.4571 83.372 67.6285 76.8462 67.6285Z" fill="#44982F"/>
<path d="M42.7669 77.1631C42.5892 77.1337 42.4116 77.1005 42.2364 77.0558L41.1818 76.813L40.6551 76.6904L40.1349 76.5422L39.4229 79.143L39.9815 79.3014L40.5465 79.433L41.6778 79.6936C41.8657 79.7409 42.0562 79.7766 42.2467 79.8086L42.8181 79.9108C43.199 79.9772 43.5799 80.05 43.9609 80.1113L44.3635 77.4454C44.0082 77.3879 43.6528 77.3202 43.2987 77.2576L42.7657 77.1631H42.7669Z" fill="#182633"/>
<path d="M51.5686 77.8235L51.0279 77.8376L49.9451 77.8644L48.8624 77.8363L48.3217 77.8235L48.0507 77.8171L47.781 77.7967L47.625 80.4882L47.9139 80.5099L48.2041 80.5176L48.7844 80.5329L49.9439 80.5623L51.1033 80.5342L51.6837 80.5189C51.8767 80.5163 52.0697 80.5086 52.2627 80.4908L52.1081 77.7992C51.9278 77.8171 51.7476 77.8222 51.5673 77.8248L51.5686 77.8235Z" fill="#182633"/>
<path d="M59.2107 76.702L58.684 76.8233L57.6307 77.066C57.2804 77.149 56.9212 77.1976 56.5671 77.2653C56.2117 77.3266 55.8576 77.3981 55.501 77.4505L55.9011 80.1165C56.2833 80.0603 56.663 79.9836 57.0452 79.9185C57.4248 79.8457 57.8096 79.792 58.1854 79.7039L59.3168 79.4433L59.8818 79.313L60.4404 79.1559L59.7309 76.5551L59.2107 76.702Z" fill="#182633"/>
<path d="M22.3783 65.5923L21.6701 64.7748L21.316 64.366L20.9823 63.9406L18.877 65.6268L19.2362 66.0828L19.6158 66.521L20.3764 67.3973C20.6308 67.6885 20.9069 67.9606 21.1715 68.2429C21.4425 68.5189 21.6982 68.8101 21.9807 69.0745L23.8777 67.1571C23.6131 66.9119 23.3766 66.6385 23.1235 66.3817C22.8768 66.1186 22.6199 65.8657 22.3821 65.5936L22.3783 65.5923Z" fill="#182633"/>
<path d="M24.7119 71.5387C25.9212 72.5031 27.1561 73.4394 28.4676 74.2608L29.9262 71.9921C28.7028 71.227 27.5523 70.3519 26.4236 69.4552L24.7119 71.5387Z" fill="#182633"/>
<path d="M33.8363 74.1931L32.8737 73.7L31.6299 76.0926L32.6628 76.6215L33.7199 77.1018C34.4192 77.4352 35.1453 77.7034 35.8649 77.9896L36.8199 75.468C36.15 75.201 35.4725 74.9532 34.8218 74.6402L33.8363 74.1944V74.1931Z" fill="#182633"/>
<path d="M14.0439 50.1599L11.4336 50.8395C11.8439 52.3302 12.2952 53.8133 12.8743 55.2478L15.3874 54.2668C14.8467 52.9293 14.4287 51.5485 14.0452 50.1599H14.0439Z" fill="#182633"/>
<path d="M18.3458 60.2118C18.1451 59.9116 17.9815 59.5897 17.7974 59.2806C17.6197 58.9664 17.4318 58.6585 17.263 58.3404L16.7696 57.3785L14.3574 58.587L14.8866 59.6191C15.0682 59.9602 15.2689 60.291 15.4593 60.6283C15.6575 60.9604 15.8352 61.3053 16.0486 61.6272L16.675 62.6032L18.93 61.1214L18.3458 60.2106V60.2118Z" fill="#182633"/>
<path d="M17.282 23.1822C17.4545 22.8654 17.6399 22.5563 17.8176 22.2433C18.164 21.611 18.5641 21.0106 18.9527 20.4026L16.7003 18.9182C16.2836 19.5697 15.8554 20.2148 15.4821 20.8931C15.2903 21.229 15.0922 21.5612 14.9081 21.901L14.3789 22.9331L16.7898 24.1441L17.2832 23.1822H17.282Z" fill="#182633"/>
<path d="M15.3926 27.2776L12.8794 26.2953C12.3004 27.7298 11.8478 29.2129 11.4375 30.7036L14.0478 31.3845C14.4313 29.9959 14.8506 28.6138 15.3926 27.2776Z" fill="#182633"/>
<path d="M12.9638 37.9351C12.9945 37.5761 13.0111 37.2159 13.052 36.8569L13.1888 35.7839C13.2335 35.4262 13.2744 35.0685 13.346 34.7147L10.6833 34.2766C10.6078 34.6559 10.5618 35.0404 10.5145 35.4237L10.3688 36.5746C10.3253 36.9591 10.3062 37.3449 10.2729 37.7307C10.2474 38.1164 10.2064 38.5009 10.1924 38.888L12.8871 39.0145C12.8999 38.6542 12.9382 38.2953 12.9625 37.9351H12.9638Z" fill="#182633"/>
<path d="M33.8757 7.34744L34.8613 6.9029C35.5119 6.59122 36.192 6.34723 36.8606 6.0777L35.9082 3.55481C35.1898 3.84223 34.4612 4.10665 33.7632 4.44006L32.706 4.91781L31.6719 5.44538L32.9131 7.83925L33.8757 7.34617V7.34744Z" fill="#182633"/>
<path d="M24.7266 10.0096L26.4382 12.0943C27.567 11.1963 28.7175 10.3226 29.9421 9.55866L28.4848 7.28998C27.172 8.11008 25.9371 9.04642 24.7278 10.0096H24.7266Z" fill="#182633"/>
<path d="M21.8022 12.6551L21.6015 12.8646L21.2014 13.2836C20.9368 13.5646 20.6633 13.8392 20.405 14.1267L19.6444 15.003L19.2648 15.4411C19.1421 15.5906 19.0245 15.7439 18.9043 15.8959L21.0084 17.5833C21.1209 17.4415 21.2296 17.2985 21.3446 17.1592L21.6987 16.7505L22.4069 15.9329C22.6472 15.6647 22.9029 15.4092 23.1496 15.146L23.5229 14.7539L23.7095 14.5584L23.9051 14.3719L22.0106 12.452L21.801 12.6525L21.8022 12.6551Z" fill="#182633"/>
<path d="M57.1428 4.39791C57.3205 4.42729 57.4982 4.4605 57.6733 4.50521L58.7267 4.74792L59.2533 4.87055L59.7736 5.01873L60.4856 2.41792L59.927 2.25952L59.362 2.12795L58.2307 1.86736C58.0428 1.8201 57.8523 1.78433 57.6618 1.75239L57.0904 1.6502C56.7095 1.58377 56.3285 1.51096 55.9476 1.44965L55.5449 4.1156C55.9003 4.17309 56.2557 4.24079 56.6098 4.30338L57.1428 4.39791Z" fill="#182633"/>
<path d="M51.7042 1.04343L51.1238 1.0281L49.9644 0.998718L48.8049 1.02682L48.2246 1.04215C48.0316 1.04471 47.8385 1.05237 47.6455 1.07025L47.8002 3.76176C47.9804 3.74388 48.1607 3.73877 48.3409 3.73621L48.8816 3.72216L49.9644 3.69533L51.0471 3.72344L51.5878 3.73621L51.8588 3.7426L52.1286 3.76304L52.2845 1.07153L51.9956 1.04981L51.7054 1.04215L51.7042 1.04343Z" fill="#182633"/>
<path d="M40.6985 4.85904L41.2252 4.73768L42.2785 4.49498C42.6288 4.41195 42.988 4.3634 43.3421 4.2957C43.6974 4.23439 44.0515 4.16285 44.4082 4.11048L44.0081 1.44452C43.6258 1.50073 43.2462 1.57737 42.864 1.64252C42.4843 1.71533 42.0995 1.76898 41.7237 1.85712L40.5924 2.11771L40.0274 2.24801L39.4688 2.40513L40.1782 5.00594L40.6985 4.85904Z" fill="#182633"/>
<path d="M77.5317 15.9687L78.2399 16.7862L78.594 17.195L78.9276 17.6204L81.033 15.9342L80.6738 15.4781L80.2941 15.04L79.5335 14.1637C79.2791 13.8724 79.003 13.6004 78.7384 13.318C78.4674 13.0421 78.2118 12.7509 77.9292 12.4865L76.0322 14.4038C76.2968 14.6491 76.5333 14.9225 76.7864 15.1792C77.0331 15.4424 77.2901 15.6953 77.5279 15.9674L77.5317 15.9687Z" fill="#182633"/>
<path d="M75.1986 10.0223C73.9893 9.05789 72.7545 8.12155 71.4429 7.30017L69.9844 9.56885C71.2077 10.334 72.3582 11.209 73.487 12.1058L75.1986 10.0223Z" fill="#182633"/>
<path d="M86.7268 35.8286L86.8636 36.9016C86.8993 37.2606 86.9198 37.6208 86.9492 37.9797C86.9556 38.0768 86.9633 38.1726 86.9709 38.2697C86.2014 38.1215 85.4331 37.9734 84.6636 37.8265C83.5399 37.6106 82.7116 38.6734 83.2191 39.7042C84.2507 41.8005 85.2836 43.898 86.3164 45.9942C86.6986 46.7722 87.7558 46.7658 88.326 46.2535C90.0632 44.69 91.8004 43.1252 93.5376 41.5616C93.9429 41.1963 94.0145 40.7556 93.8866 40.3685C93.8381 39.9278 93.5555 39.5369 92.9726 39.4245C91.8861 39.215 90.7995 39.0068 89.7129 38.7973C89.6976 38.4575 89.6631 38.119 89.6413 37.7792C89.6094 37.3934 89.5876 37.0076 89.548 36.6231L89.4023 35.4722C89.3524 35.089 89.3115 34.7045 89.2361 34.3251L86.5734 34.7594C86.645 35.1132 86.682 35.4722 86.7281 35.8286H86.7268ZM89.8714 41.4236C89.1875 42.0394 88.5036 42.6551 87.8197 43.2708L86.6002 40.7952C87.6906 41.0047 88.7798 41.2142 89.8702 41.4236H89.8714Z" fill="#182633"/>
<path d="M85.866 31.4011L88.4763 30.7215C88.066 29.2308 87.6147 27.7477 87.0356 26.3132L84.5225 27.2942C85.0632 28.6317 85.4812 30.0126 85.8647 31.4011H85.866Z" fill="#182633"/>
<path d="M81.5637 21.3491C81.7644 21.6493 81.928 21.9712 82.1121 22.2804C82.2898 22.5946 82.4777 22.9025 82.6464 23.2205L83.1399 24.1824L85.552 22.974L85.0228 21.9419C84.8413 21.6008 84.6406 21.2699 84.4501 20.9327C84.252 20.6006 84.0743 20.2557 83.8608 19.9338L83.2344 18.9578L80.9795 20.4396L81.5637 21.3504V21.3491Z" fill="#182633"/>
<path d="M83.7431 45.9572C75.8572 43.0383 66.5907 45.5714 61.2882 52.0888C55.9423 58.6598 55.1843 68.1075 59.6354 75.3683C64.0379 82.5499 72.5937 86.2442 80.8477 84.6219C90.1871 82.7875 96.9264 74.3132 97.0006 64.882C96.9354 56.4639 91.6521 48.8837 83.7431 45.9559V45.9572ZM82.7959 81.4398C75.8304 83.8989 68.0122 81.7337 63.276 76.0837C58.536 70.4298 57.9812 62.0986 61.774 55.8073C65.5565 49.5339 73.1101 46.1641 80.3121 47.637C88.4831 49.3078 94.3787 56.575 94.4439 64.8833C94.3864 72.2042 89.7615 78.9808 82.7972 81.4398H82.7959Z" fill="#182633"/>
<path d="M8.93845 50.2391C11.559 49.6183 14.1796 48.9974 16.8001 48.3766C17.6821 48.1684 18.1078 46.8539 17.3651 46.2395C15.5627 44.7513 13.7603 43.2619 11.9578 41.7737C11.3954 41.3087 10.3101 41.2103 9.94832 42.033C9.02666 44.1254 8.10499 46.2178 7.18332 48.3102C6.68989 49 7.10662 50.1829 8.0219 50.3477C8.33381 50.4473 8.66617 50.4281 8.93845 50.2404V50.2391ZM10.4239 47.2602C10.7958 46.4171 11.1666 45.5727 11.5386 44.7296C12.2493 45.3172 12.96 45.9036 13.6708 46.4912C12.588 46.7479 11.5066 47.0034 10.4239 47.2602Z" fill="#182633"/>
<path d="M40.3836 51.1013V48.7611C40.3836 47.5271 38.4648 47.5246 38.4648 48.7611V51.1013C38.4648 52.3353 40.3836 52.3378 40.3836 51.1013Z" fill="#182633"/>
<path d="M40.3836 56.6453V54.3051C40.3836 53.0711 38.4648 53.0686 38.4648 54.3051V56.6453C38.4648 57.8793 40.3836 57.8819 40.3836 56.6453Z" fill="#182633"/>
<path d="M37.6069 51.7452H35.265C34.0301 51.7452 34.0276 53.6626 35.265 53.6626H37.6069C38.8417 53.6626 38.8443 51.7452 37.6069 51.7452Z" fill="#182633"/>
<path d="M43.5825 51.7452H41.2406C40.0057 51.7452 40.0032 53.6626 41.2406 53.6626H43.5825C44.8173 53.6626 44.8199 51.7452 43.5825 51.7452Z" fill="#182633"/>
<path d="M65.2454 9.86266C67.494 9.86266 69.1724 8.10111 69.3897 5.95633C69.4064 5.87713 69.4179 5.79155 69.4128 5.6983C69.4166 5.60377 69.4064 5.51946 69.3897 5.44026C69.1737 3.29549 67.4953 1.53394 65.2454 1.53394C62.9956 1.53394 61.0781 3.436 61.0781 5.6983C61.0781 7.96059 62.9815 9.86266 65.2454 9.86266ZM67.494 5.6983C67.3649 8.57758 63.0058 8.61079 62.9969 5.6983C62.9892 2.78835 67.3636 2.81518 67.494 5.6983Z" fill="#182633"/>
<path d="M50.7808 20.6654C51.1253 19.8344 50.7304 18.8816 49.8987 18.5374C49.0671 18.1932 48.1137 18.5878 47.7692 19.4189C47.4248 20.2499 47.8197 21.2026 48.6513 21.5469C49.4829 21.8911 50.4363 21.4964 50.7808 20.6654Z" fill="#182633"/>
<path d="M18.8756 41.2793C29.3004 41.2793 37.7513 32.8344 37.7513 22.4171C37.7513 11.9997 29.3004 3.55481 18.8756 3.55481C8.45091 3.55481 0 11.9997 0 22.4171C0 32.8344 8.45091 41.2793 18.8756 41.2793Z" fill="#44982F"/>
<path d="M18.9539 25.0192C22.6046 25.0192 25.5641 22.0618 25.5641 18.4137C25.5641 14.7655 22.6046 11.8082 18.9539 11.8082C15.3032 11.8082 12.3438 14.7655 12.3438 18.4137C12.3438 22.0618 15.3032 25.0192 18.9539 25.0192Z" fill="white"/>
<path d="M18.9539 25.1903C13.2322 25.1903 8.37971 28.9025 6.67188 34.0479C9.74751 37.2695 14.0797 39.2827 18.876 39.2827C23.6722 39.2827 28.1118 37.2197 31.1938 33.9291C29.4502 28.8463 24.631 25.1916 18.9539 25.1916V25.1903Z" fill="white"/>
</svg>
