<svg width="300" height="160" viewBox="0 0 300 160" fill="none" xmlns="http://www.w3.org/2000/svg">
<path d="M0 10C0 4.47715 4.47715 0 10 0H290C295.523 0 300 4.47715 300 10V160H0V10Z" fill="white"/>
<g clip-path="url(#clip0_1701_473)">
<path d="M172.284 114.605H158.12V94.1629V94.1187H151.864V94.1629V114.605H137.656C135.913 114.605 134.528 115.977 134.528 117.703C134.528 119.428 135.913 120.8 137.656 120.8H172.284C174.026 120.8 175.412 119.428 175.412 117.703C175.412 116.021 173.982 114.605 172.284 114.605Z" fill="#141414"/>
<path d="M129.792 43.4107C128.094 41.7293 125.815 40.8 123.402 40.8C120.989 40.8 118.711 41.7293 117.013 43.4107L110.4 49.9593L114.823 54.3399L121.481 47.7912C122.017 47.2602 122.687 46.9947 123.402 46.9947C124.117 46.9947 124.832 47.2602 125.324 47.7912L135.198 57.57H144.045L129.792 43.4107Z" fill="#141414"/>
<path d="M190.157 59.4727C189.665 58.3223 188.548 57.5701 187.252 57.5701H144.09H135.243H122.643C121.392 57.5701 120.23 58.3223 119.738 59.4727C119.247 60.6232 119.515 61.9506 120.409 62.8356L151.82 94.1187V94.163H158.075V94.1187L189.486 62.8356C190.38 61.9948 190.648 60.6232 190.157 59.4727Z" fill="#E50A14"/>
</g>
<defs>
<clipPath id="clip0_1701_473">
<rect width="80" height="80" fill="white" transform="translate(110 40)"/>
</clipPath>
</defs>
</svg>
