<svg width="80" height="80" viewBox="0 0 80 80" fill="none" xmlns="http://www.w3.org/2000/svg">
<path d="M76.3796 26.3606L49.4415 12.6603C46.2763 11.0514 42.4894 12.4834 40.9767 15.8614L39.4226 19.339C43.0955 20.7599 45.7323 24.5084 45.7323 28.9093V60.7549C45.7323 60.8545 45.722 60.954 45.7168 61.0535L58.0772 67.3397C61.2424 68.9486 65.0293 67.5166 66.542 64.1385L79.379 35.389C80.8917 32.0165 79.5448 27.9694 76.3796 26.3606Z" fill="#E50A14"/>
<path d="M56.8341 40.0082C56.0518 41.7509 54.0418 42.5107 52.3427 41.7084C50.6435 40.9062 49.9027 38.8446 50.6849 37.1019C51.4672 35.3592 53.4772 34.5994 55.1763 35.4017C56.8703 36.204 57.6163 38.2655 56.8341 40.0082Z" fill="#141414"/>
<path d="M36.1903 24.3679H6.35117C2.84404 24.3679 0 27.2849 0 30.8819V61.486C0 65.0831 2.84404 68 6.35117 68H36.1903C39.6974 68 42.5414 65.0831 42.5414 61.486V30.8819C42.5414 27.2796 39.6974 24.3679 36.1903 24.3679Z" fill="#141414"/>
<path d="M30.3726 30.6587C32.2427 30.6587 33.7606 32.2155 33.7606 34.1335C33.7606 36.0516 32.2427 37.6084 30.3726 37.6084C28.5025 37.6084 26.9846 36.0516 26.9846 34.1335C26.9846 32.2155 28.5025 30.6587 30.3726 30.6587Z" fill="#E50A14"/>
<path d="M30.3726 42.7092C32.2427 42.7092 33.7606 44.266 33.7606 46.1841C33.7606 48.1021 32.2427 49.6589 30.3726 49.6589C28.5025 49.6589 26.9846 48.1021 26.9846 46.1841C26.9846 44.2607 28.5025 42.7092 30.3726 42.7092Z" fill="#E50A14"/>
<path d="M12.1744 61.7038C14.0455 61.7038 15.5623 60.1481 15.5623 58.229C15.5623 56.3099 14.0455 54.7542 12.1744 54.7542C10.3032 54.7542 8.78638 56.3099 8.78638 58.229C8.78638 60.1481 10.3032 61.7038 12.1744 61.7038Z" fill="#E50A14"/>
<path d="M12.1744 49.6533C14.0455 49.6533 15.5623 48.0976 15.5623 46.1785C15.5623 44.2594 14.0455 42.7036 12.1744 42.7036C10.3032 42.7036 8.78638 44.2594 8.78638 46.1785C8.78638 48.0976 10.3032 49.6533 12.1744 49.6533Z" fill="#E50A14"/>
<path d="M12.1744 37.6084C14.0455 37.6084 15.5623 36.0526 15.5623 34.1335C15.5623 32.2144 14.0455 30.6587 12.1744 30.6587C10.3032 30.6587 8.78638 32.2144 8.78638 34.1335C8.78638 36.0526 10.3032 37.6084 12.1744 37.6084Z" fill="#E50A14"/>
<path d="M30.3726 61.6985C28.5025 61.6985 26.9846 60.1417 26.9846 58.2236C26.9846 56.3056 28.5025 54.7488 30.3726 54.7488C32.2427 54.7488 33.7606 56.3056 33.7606 58.2236C33.7606 60.1417 32.2427 61.6985 30.3726 61.6985Z" fill="#E50A14"/>
</svg>
