<svg width="26" height="26" viewBox="0 0 26 26" fill="none" xmlns="http://www.w3.org/2000/svg">
<path fill-rule="evenodd" clip-rule="evenodd" d="M18.9063 12.9975V14.4C18.5316 14.2633 18.1367 14.1823 17.7215 14.1823H15.3671C13.4228 14.1823 11.8177 15.7772 11.8177 17.7215V22.4506C11.8177 24.3949 13.4278 26 15.3671 26H17.7215C19.6658 26 21.2709 24.3949 21.2709 22.4506V17.7215C21.2709 17.7114 21.2709 17.7063 21.2709 17.6962V12.9975V4.72913H9.45316H8.27342C3.71139 4.72913 0.00506321 8.43546 0.00506321 12.9975V17.676C0.00506321 17.6912 0 17.7063 0 17.7215V22.4506C0 24.3949 1.61013 26 3.54937 26H5.90886C7.85316 26 9.4481 24.3949 9.4481 22.4506V17.7215C9.4481 15.7772 7.85316 14.1823 5.90886 14.1823H3.5443C3.12911 14.1823 2.73418 14.2684 2.35949 14.4V12.9975C2.35949 9.70634 4.97215 7.08862 8.26835 7.08862H9.45316H18.9063" fill="#E50A14"/>
<path fill-rule="evenodd" clip-rule="evenodd" d="M22.4455 0H13.0025C11.0582 0 9.45315 1.60506 9.45315 3.54937V4.72911V7.09367V12.9975C9.44808 13.8785 10.3747 14.4557 11.1645 14.0608L15.6506 11.8177H18.7696H21.1747H22.3848C24.4 11.9241 25.9949 10.2228 25.9949 8.27848V3.54937C25.9949 1.60506 24.3899 0 22.4455 0Z" fill="#141414"/>
</svg>
