<svg width="40" height="40" viewBox="0 0 40 40" fill="none" xmlns="http://www.w3.org/2000/svg">
<path d="M16 38V34.3129C16.9344 34.2756 20.2161 34.1639 20.8255 33.9777C21.4755 33.7914 21.9631 33.3631 22.2881 32.6927C22.6537 32.0223 22.8366 30.9423 22.8366 29.4525V11.0503L16.1939 14.6816L14 11.3296L27.9557 2H31.6122V28.838C31.6122 29.8436 31.5919 30.8119 31.5513 31.743C31.5513 32.6741 31.5106 33.3818 31.4294 33.8659C32.0794 33.7914 32.892 33.7542 33.867 33.7542C34.8827 33.7169 35.5937 33.6983 36 33.6983V38H16Z" fill="#E50A14"/>
<path d="M4 22.0001H16V26.0001H4V22.0001Z" fill="#141414"/>
<path d="M8 18H12V30H8V18Z" fill="#141414"/>
</svg>
