<svg width="26" height="26" viewBox="0 0 26 26" fill="none" xmlns="http://www.w3.org/2000/svg">
<path d="M25.2877 11.6995C24.8284 11.2402 24.204 10.9821 23.5537 10.9821H18.0523C17.655 10.9821 17.335 11.3021 17.335 11.6995V11.7149C17.335 12.1123 17.015 12.4323 16.6177 12.4323H9.38227C8.98489 12.4323 8.66492 12.1123 8.66492 11.7149V11.6995C8.66492 11.3021 8.34495 10.9821 7.94757 10.9821H2.45136C1.80111 10.9821 1.17665 11.2402 0.717346 11.6995C0.258038 12.1588 0 12.7832 0 13.4335V23.5486C0 24.1988 0.258038 24.8233 0.717346 25.2826C1.17665 25.7419 1.80111 25.9999 2.45136 25.9999H23.5486C24.1988 25.9999 24.8233 25.7419 25.2826 25.2826C25.7419 24.8233 25.9999 24.1988 25.9999 23.5486V13.4335C26.0051 12.7884 25.747 12.1639 25.2877 11.6995Z" fill="#E50A14"/>
<path d="M16.3389 19.2181H9.66088C9.26866 19.2181 8.95386 18.9033 8.95386 18.5111V18.4802C8.95386 18.0879 9.26866 17.7731 9.66088 17.7731H16.3389C16.7311 17.7731 17.0459 18.0879 17.0459 18.4802V18.5111C17.0459 18.9033 16.7311 19.2181 16.3389 19.2181Z" fill="#141414"/>
<path d="M15.8899 12.1381C15.8899 13.7328 14.5946 15.0282 12.9999 15.0282C11.4052 15.0282 10.1099 13.7328 10.1099 12.1381C10.1099 10.5435 11.4052 9.24811 12.9999 9.24811C14.5946 9.24811 15.8899 10.5435 15.8899 12.1381Z" fill="#141414"/>
<path d="M11.2659 2.89003C11.2659 4.4847 9.97054 5.78005 8.37587 5.78005C6.78119 5.78005 5.48584 4.4847 5.48584 2.89003C5.48584 1.29535 6.78119 0 8.37587 0C9.97054 0 11.2659 1.29535 11.2659 2.89003Z" fill="#141414"/>
<path d="M22.2481 4.62404C22.2481 6.21871 20.9527 7.51406 19.358 7.51406C17.7634 7.51406 16.468 6.21871 16.468 4.62404C16.468 3.02936 17.7634 1.73401 19.358 1.73401C20.9527 1.73401 22.2481 3.02936 22.2481 4.62404Z" fill="#141414"/>
</svg>
