<svg width="18" height="18" viewBox="0 0 18 18" fill="none" xmlns="http://www.w3.org/2000/svg">
<path d="M14.5535 4.03729C13.5178 3.55271 12.4104 3.20053 11.2526 3C11.1104 3.25707 10.9443 3.60284 10.8298 3.8779C9.599 3.69281 8.37956 3.69281 7.17144 3.8779C7.05693 3.60284 6.88704 3.25707 6.74357 3C5.58454 3.20053 4.47584 3.554 3.44013 4.03985C1.3511 7.19666 0.784793 10.2751 1.06794 13.3097C2.4535 14.3444 3.79627 14.973 5.11638 15.3843C5.44233 14.9357 5.73302 14.4588 5.98345 13.9563C5.5065 13.775 5.04969 13.5514 4.61805 13.2917C4.73256 13.2069 4.84457 13.1182 4.95279 13.027C7.58546 14.2583 10.4459 14.2583 13.0472 13.027C13.1566 13.1182 13.2686 13.2069 13.3819 13.2917C12.949 13.5527 12.4909 13.7763 12.014 13.9576C12.2644 14.4588 12.5538 14.937 12.881 15.3856C14.2024 14.9743 15.5464 14.3457 16.932 13.3097C17.2642 9.79176 16.3644 6.74164 14.5535 4.03729ZM6.34212 11.4434C5.55181 11.4434 4.9037 10.7056 4.9037 9.80718C4.9037 8.90873 5.53797 8.16966 6.34212 8.16966C7.14628 8.16966 7.79437 8.90743 7.78053 9.80718C7.78178 10.7056 7.14628 11.4434 6.34212 11.4434ZM11.6578 11.4434C10.8675 11.4434 10.2194 10.7056 10.2194 9.80718C10.2194 8.90873 10.8537 8.16966 11.6578 8.16966C12.462 8.16966 13.1101 8.90743 13.0962 9.80718C13.0962 10.7056 12.462 11.4434 11.6578 11.4434Z" fill="#570191"/>
</svg>
