<svg width="40" height="40" viewBox="0 0 40 40" fill="none" xmlns="http://www.w3.org/2000/svg">
<path d="M5.86719 28H17H34.1328C37.3729 28 40 25.1391 40 21.6106C40 18.0927 37.3729 15.2212 34.1328 15.2212C34.0258 15.2212 33.909 15.1682 33.8312 15.0834C33.7533 14.9881 33.7144 14.8715 33.7144 14.7444V14.5642C33.7144 11.0358 31.0873 8.17484 27.8472 8.17484C26.1153 8.17484 24.5488 8.99073 23.4785 10.294C23.3812 10.4212 23.2255 10.4742 23.0795 10.4424C22.9336 10.4106 22.8071 10.3046 22.7585 10.1457C21.6006 6.56424 18.4675 4 14.7896 4C10.1289 4 6.34396 8.12185 6.34396 13.1974C6.34396 13.706 6.38288 14.1934 6.45099 14.6808C6.47045 14.8185 6.44126 14.9563 6.35369 15.0623C6.26612 15.1682 6.14936 15.2212 6.02287 15.2212H5.86719C2.6271 15.2212 0 18.0821 0 21.6106C0 25.1391 2.6271 28 5.86719 28Z" fill="#E50A14"/>
<path d="M28 28C28 32.4267 24.4267 36 20 36C15.5733 36 12 32.4267 12 28C12 23.5733 15.5733 20 20 20C24.4264 20 28 23.5733 28 28ZM23.4665 29.3333C23.4665 29.1202 23.4133 28.9066 23.2533 28.7466C22.9334 28.4267 22.4535 28.4267 22.1331 28.7466L20.7998 30.08V24C20.7998 23.5733 20.4263 23.2001 19.9999 23.2001C19.5732 23.2001 19.1997 23.5733 19.1997 24V30.08L17.9196 28.7999C17.5997 28.4799 17.1198 28.4799 16.7994 28.7999C16.4795 29.1198 16.4795 29.5997 16.7994 29.9201L19.5193 32.64C19.6261 32.7468 19.7861 32.8 19.946 32.8532H20.0528H20.106C20.3192 32.8532 20.4795 32.7464 20.6395 32.64L23.3062 29.9733C23.4133 29.7601 23.4665 29.5469 23.4665 29.3333Z" fill="#141414"/>
<path d="M23.4666 29.3334C23.4666 29.1202 23.4134 28.9067 23.2534 28.7467C22.9335 28.4268 22.4536 28.4268 22.1332 28.7467L20.7999 30.08V24C20.7999 23.5733 20.4264 23.2002 20 23.2002C19.5733 23.2002 19.1998 23.5733 19.1998 24V30.08L17.9197 28.7999C17.5998 28.48 17.1199 28.48 16.7995 28.7999C16.4796 29.1199 16.4796 29.5998 16.7995 29.9201L19.5194 32.64C19.6262 32.7468 19.7862 32.8 19.9461 32.8532H20.0529H20.1061C20.3193 32.8532 20.4796 32.7464 20.6396 32.64L23.3063 29.9734C23.4134 29.7602 23.4666 29.5469 23.4666 29.3334Z" fill="#E50A14"/>
</svg>
