<svg width="50" height="50" viewBox="0 0 50 50" fill="none" xmlns="http://www.w3.org/2000/svg">
<path d="M18.8889 0H1.11111C0.498019 0 0 0.498019 0 1.11111V18.8889C0 19.502 0.498019 20 1.11111 20H18.8889C19.502 20 20 19.502 20 18.8889V1.11111C20 0.498019 19.502 0 18.8889 0Z" fill="#F5F3F4"/>
<path d="M42.3477 39.9972L49.5075 32.8541C49.821 32.5405 49.9972 32.1153 49.9972 31.6719C49.9972 31.2285 49.821 30.8032 49.5075 30.4897C49.1939 30.1761 48.7687 30 48.3253 30C47.8819 30 47.4566 30.1761 47.1431 30.4897L40 37.6494L32.8569 30.4897C32.5434 30.1761 32.1181 30 31.6747 30C31.2313 30 30.8061 30.1761 30.4925 30.4897C30.179 30.8032 30.0028 31.2285 30.0028 31.6719C30.0028 32.1153 30.179 32.5405 30.4925 32.8541L37.6523 39.9972L30.4925 47.1403C30.3365 47.295 30.2126 47.4792 30.1281 47.6821C30.0435 47.885 30 48.1026 30 48.3224C30 48.5423 30.0435 48.7599 30.1281 48.9628C30.2126 49.1657 30.3365 49.3498 30.4925 49.5046C30.6473 49.6607 30.8315 49.7846 31.0344 49.8691C31.2373 49.9536 31.4549 49.9972 31.6747 49.9972C31.8945 49.9972 32.1122 49.9536 32.3151 49.8691C32.518 49.7846 32.7021 49.6607 32.8569 49.5046L40 42.3449L47.1431 49.5046C47.2979 49.6607 47.482 49.7846 47.6849 49.8691C47.8878 49.9536 48.1055 49.9972 48.3253 49.9972C48.5451 49.9972 48.7627 49.9536 48.9656 49.8691C49.1685 49.7846 49.3527 49.6607 49.5075 49.5046C49.6635 49.3498 49.7874 49.1657 49.8719 48.9628C49.9565 48.7599 50 48.5423 50 48.3224C50 48.1026 49.9565 47.885 49.8719 47.6821C49.7874 47.4792 49.6635 47.295 49.5075 47.1403L42.3477 39.9972Z" fill="#F5F3F4"/>
<path d="M40 20C45.5144 20 50 15.5134 50 10C50 4.4866 45.5144 0 40 0C34.4856 0 30 4.4866 30 10C30 15.5134 34.4856 20 40 20Z" fill="#141414"/>
<path d="M10.9936 30.5665C10.6171 29.8112 9.38241 29.8112 9.00602 30.5665L0.117042 48.3884C-0.0550864 48.7335 -0.0362293 49.1437 0.16615 49.4724C0.368031 49.8006 0.724684 50 1.11011 50H18.8881C19.2735 50 19.6301 49.7996 19.8335 49.4709C20.0369 49.1422 20.0547 48.7325 19.8826 48.3869L10.9936 30.5665Z" fill="#141414"/>
</svg>
