<svg width="26" height="26" viewBox="0 0 26 26" fill="none" xmlns="http://www.w3.org/2000/svg">
<g clip-path="url(#clip0_1701_28275)">
<path d="M14.0005 17.4718C13.8682 17.4754 13.7397 17.4271 13.6425 17.3374C13.5454 17.2476 13.4872 17.1235 13.4805 16.9915V16.044C13.4838 15.9791 13.4999 15.9156 13.5278 15.8571C13.5558 15.7985 13.595 15.746 13.6434 15.7026C13.6917 15.6592 13.7481 15.6257 13.8093 15.6041C13.8706 15.5825 13.9356 15.5732 14.0005 15.5767H21.8005C21.9328 15.5802 22.0612 15.532 22.1584 15.4422C22.2556 15.3525 22.3137 15.2284 22.3205 15.0964V13.6685H23.3995C24.0585 13.6438 24.7009 13.8791 25.1875 14.3237C25.6741 14.7683 25.9658 15.3863 25.9995 16.044V23.6376C25.9625 24.293 25.6693 24.9077 25.1831 25.3495C24.6969 25.7913 24.0564 26.0249 23.3995 26H14.0005C13.9356 26.0035 13.8706 25.9942 13.8093 25.9726C13.7481 25.951 13.6917 25.9175 13.6434 25.8741C13.595 25.8307 13.5558 25.7782 13.5278 25.7196C13.4999 25.661 13.4838 25.5975 13.4805 25.5327V24.6371C13.4872 24.5051 13.5454 24.381 13.6425 24.2912C13.7397 24.2015 13.8682 24.1532 14.0005 24.1568C14.0654 24.1603 14.1303 24.151 14.1916 24.1294C14.2529 24.1078 14.3093 24.0743 14.3576 24.0309C14.4059 23.9875 14.4451 23.935 14.4731 23.8764C14.501 23.8178 14.5171 23.7543 14.5205 23.6895C14.5137 23.5575 14.4556 23.4334 14.3584 23.3436C14.2612 23.2539 14.1328 23.2056 14.0005 23.2092C13.9356 23.2127 13.8706 23.2034 13.8093 23.1818C13.7481 23.1602 13.6917 23.1267 13.6434 23.0833C13.595 23.0399 13.5558 22.9874 13.5278 22.9288C13.4999 22.8702 13.4838 22.8067 13.4805 22.7419V21.7943C13.4821 21.7284 13.497 21.6635 13.5242 21.6034C13.5514 21.5433 13.5904 21.4893 13.6389 21.4445C13.6873 21.3997 13.7443 21.3651 13.8064 21.3427C13.8685 21.3203 13.9345 21.3106 14.0005 21.3141C14.0694 21.3255 14.1399 21.3218 14.2072 21.3032C14.2745 21.2847 14.337 21.2517 14.3903 21.2066C14.4436 21.1615 14.4864 21.1054 14.5157 21.0422C14.5451 20.9789 14.5603 20.91 14.5603 20.8403C14.5603 20.7705 14.5451 20.7016 14.5157 20.6384C14.4864 20.5751 14.4436 20.519 14.3903 20.4739C14.337 20.4288 14.2745 20.3958 14.2072 20.3773C14.1399 20.3587 14.0694 20.355 14.0005 20.3665C13.9345 20.37 13.8685 20.3602 13.8064 20.3378C13.7443 20.3154 13.6873 20.2808 13.6389 20.236C13.5904 20.1912 13.5514 20.1372 13.5242 20.0771C13.497 20.017 13.4821 19.9521 13.4805 19.8862V18.9386C13.4838 18.8738 13.4999 18.8103 13.5278 18.7517C13.5558 18.6931 13.595 18.6406 13.6434 18.5972C13.6917 18.5538 13.7481 18.5203 13.8093 18.4987C13.8706 18.4771 13.9356 18.4678 14.0005 18.4713C14.1328 18.4749 14.2612 18.4266 14.3584 18.3369C14.4556 18.2471 14.5137 18.123 14.5205 17.991C14.5171 17.9262 14.501 17.8627 14.4731 17.8041C14.4451 17.7455 14.4059 17.693 14.3576 17.6496C14.3093 17.6062 14.2529 17.5728 14.1916 17.5512C14.1303 17.5296 14.0654 17.5202 14.0005 17.5237V17.4718Z" fill="#141414"/>
<path d="M18.408 5.89312L17.108 6.54215C17.0397 6.57743 16.9639 6.59584 16.887 6.59584C16.8101 6.59584 16.7343 6.57743 16.666 6.54215L13.325 4.62103C13.2566 4.57949 13.1987 4.52274 13.1558 4.45519C13.113 4.38764 13.0864 4.31113 13.078 4.23161L13 2.77779L8.151 -0.026001L0 9.63151L4.212 12.0459L8.918 8.47625C8.99496 8.4249 9.08544 8.3975 9.178 8.3975C9.27056 8.3975 9.36104 8.4249 9.438 8.47625L15.236 11.7863C15.3172 11.832 15.3828 11.901 15.4245 11.9842C15.4662 12.0675 15.482 12.1613 15.47 12.2536L15.314 13.5516C15.314 13.5516 15.314 13.6165 15.314 13.6555V15.0833H20.93L23.231 8.69691L18.408 5.89312ZM10.543 6.13975C10.501 6.21238 10.4403 6.2724 10.3671 6.31351C10.2939 6.35462 10.211 6.3753 10.127 6.3734C10.0507 6.39651 9.96928 6.39651 9.893 6.3734L8.892 5.78928L8.307 6.80176C8.26566 6.8759 8.20539 6.93778 8.13231 6.9811C8.05924 7.02442 7.97598 7.04764 7.891 7.04839C7.80904 7.04502 7.72896 7.02281 7.657 6.98348C7.54962 6.91868 7.47185 6.81455 7.44027 6.6933C7.4087 6.57205 7.42583 6.44328 7.488 6.33446L8.06 5.32198L7.059 4.73785C6.95162 4.67305 6.87385 4.56892 6.84227 4.44767C6.8107 4.32642 6.82783 4.19765 6.89 4.08883C6.91487 4.03048 6.9517 3.97797 6.99812 3.93469C7.04454 3.89141 7.09952 3.85831 7.15952 3.83753C7.21952 3.81674 7.28322 3.80873 7.34651 3.814C7.4098 3.81928 7.47128 3.83773 7.527 3.86816L8.541 4.45228L9.1 3.42682C9.12849 3.37178 9.16796 3.32314 9.21597 3.28389C9.26399 3.24465 9.31953 3.21562 9.3792 3.1986C9.43886 3.18158 9.50138 3.17692 9.56291 3.18492C9.62444 3.19291 9.68369 3.21339 9.737 3.24509C9.84659 3.30776 9.92711 3.41094 9.96116 3.53238C9.99521 3.65381 9.98007 3.78374 9.919 3.89412L9.36 4.9066L10.4 5.49072C10.4523 5.52372 10.4976 5.56676 10.5332 5.61735C10.5687 5.66794 10.5939 5.72507 10.6072 5.78543C10.6205 5.84579 10.6217 5.90819 10.6106 5.96901C10.5996 6.02983 10.5766 6.08786 10.543 6.13975V6.13975ZM19.097 12.63C18.7211 12.6326 18.3528 12.5236 18.039 12.317C17.7252 12.1103 17.4799 11.8152 17.3342 11.4691C17.1886 11.1231 17.1491 10.7416 17.2209 10.3732C17.2927 10.0047 17.4724 9.66578 17.7373 9.39944C18.0022 9.13309 18.3404 8.9513 18.7089 8.87712C19.0774 8.80294 19.4597 8.8397 19.8073 8.98275C20.1549 9.1258 20.4521 9.3687 20.6612 9.68063C20.8703 9.99256 20.982 10.3595 20.982 10.7349C20.9889 10.9864 20.9453 11.2367 20.8537 11.4711C20.7621 11.7055 20.6244 11.9191 20.4486 12.0995C20.2729 12.2798 20.0627 12.4231 19.8306 12.5209C19.5984 12.6187 19.349 12.6691 19.097 12.669V12.63ZM19.097 9.78728C18.9093 9.78728 18.7258 9.84285 18.5698 9.94697C18.4137 10.0511 18.2921 10.1991 18.2202 10.3722C18.1484 10.5454 18.1296 10.7359 18.1662 10.9197C18.2029 11.1035 18.2932 11.2724 18.426 11.4049C18.5587 11.5374 18.7278 11.6277 18.9119 11.6642C19.0959 11.7008 19.2868 11.682 19.4602 11.6103C19.6336 11.5386 19.7818 11.4171 19.8861 11.2613C19.9903 11.1055 20.046 10.9223 20.046 10.7349C20.0359 10.4904 19.9315 10.2592 19.7546 10.0899C19.5777 9.92048 19.3421 9.82601 19.097 9.82622V9.78728Z" fill="#E50A14"/>
</g>
<defs>
<clipPath id="clip0_1701_28275">
<rect width="26" height="26" fill="white"/>
</clipPath>
</defs>
</svg>
