<svg width="26" height="26" viewBox="0 0 26 26" fill="none" xmlns="http://www.w3.org/2000/svg">
<path d="M5.4707 5.7627C5.63541 6.1544 5.8865 6.50384 6.20522 6.78489C6.52395 7.06594 6.90207 7.27135 7.31133 7.38576C6.9654 6.90691 6.74543 6.34878 6.67163 5.7627H5.4707Z" fill="#141414"/>
<path d="M12.8442 5.31958H7.52539C7.65117 8.84 12.7202 8.837 12.8442 5.31958Z" fill="#141414"/>
<path d="M13.6999 5.7627C13.6258 6.35022 13.4045 6.90951 13.0566 7.38874C13.4685 7.27706 13.8492 7.07239 14.1696 6.7905C14.4899 6.5086 14.7413 6.15698 14.9044 5.7627H13.6999Z" fill="#141414"/>
<path d="M6.18727 14.4218C6.35012 13.7323 6.69518 13.0991 7.18638 12.5885C7.67758 12.0778 8.2969 11.7084 8.97966 11.5189C9.12738 11.104 9.39584 10.7427 9.75053 10.4816H9.29891C9.18136 10.4816 9.06862 10.4349 8.9855 10.3518C8.90237 10.2686 8.85567 10.1559 8.85567 10.0384C8.85567 9.92083 8.90237 9.8081 8.9855 9.72499C9.06862 9.64187 9.18136 9.59518 9.29891 9.59518H9.74155V8.83396C9.28183 8.75769 8.83467 8.61906 8.41244 8.42191C7.49572 8.47546 6.59009 8.19932 5.85924 7.6434C5.1284 7.08749 4.62055 6.28849 4.4275 5.39081C4.41849 5.32749 4.42305 5.26297 4.44089 5.20154C4.45872 5.14011 4.48942 5.08318 4.53094 5.03453C4.57246 4.98587 4.62386 4.9466 4.68172 4.91933C4.73959 4.89206 4.80259 4.87741 4.86655 4.87634H6.63949C6.63997 4.75895 6.68682 4.64649 6.76984 4.56348C6.85286 4.48047 6.96532 4.43362 7.08273 4.43315H13.288C13.4054 4.43362 13.5179 4.48047 13.6009 4.56348C13.684 4.64649 13.7308 4.75895 13.7313 4.87634H15.5036C15.5676 4.87731 15.6307 4.8919 15.6886 4.91914C15.7465 4.94638 15.7979 4.98565 15.8395 5.03433C15.881 5.08301 15.9117 5.13998 15.9295 5.20145C15.9473 5.26292 15.9518 5.32747 15.9427 5.39081C15.7496 6.28838 15.2419 7.0873 14.5112 7.6432C13.7804 8.1991 12.8749 8.47531 11.9583 8.42191C11.5359 8.61906 11.0885 8.75769 10.6286 8.83396V9.59578H11.0719C11.1893 9.59625 11.3017 9.6431 11.3847 9.72611C11.4678 9.80912 11.5146 9.92158 11.5151 10.039H11.9583C12.3901 10.0395 12.8125 10.1654 13.174 10.4014C13.5355 10.6375 13.8207 10.9735 13.9948 11.3686H17.0178C17.2108 10.9404 17.5318 10.5826 17.9367 10.3445C18.3415 10.1063 18.8103 9.9996 19.2783 10.039C20.1336 7.7631 20.4936 5.92624 20.3331 3.49825C20.3213 3.38997 20.27 3.28984 20.189 3.21702C20.108 3.1442 20.003 3.10381 19.8941 3.10356C13.8307 3.10356 10.5202 0.147927 10.4903 0.116783C10.4078 0.0418714 10.3004 0.000366211 10.189 0.000366211C10.0776 0.000366211 9.97015 0.0418714 9.8877 0.116783C9.85655 0.147927 6.56822 3.10356 0.483899 3.10356C0.37501 3.10394 0.27007 3.14438 0.189094 3.21717C0.108118 3.28997 0.0567741 3.39002 0.0448557 3.49825C0.0316784 3.60425 -0.814662 11.9267 5.88659 15.6939L6.18727 14.4218Z" fill="#141414"/>
<path d="M11.072 15.3568C10.6813 15.3533 10.3004 15.4789 9.98841 15.7142C9.67646 15.9495 9.451 16.2813 9.34707 16.6579C9.24313 17.0346 9.26656 17.435 9.41369 17.797C9.56082 18.1589 9.82343 18.4622 10.1607 18.6595C10.4979 18.8568 10.8909 18.9373 11.2786 18.8882C11.6663 18.8392 12.0269 18.6635 12.3044 18.3884C12.5819 18.1133 12.7607 17.7543 12.8131 17.3671C12.8655 16.9799 12.7885 16.5863 12.594 16.2473C12.4402 15.9789 12.2187 15.7555 11.9517 15.5993C11.6847 15.443 11.3814 15.3594 11.072 15.3568Z" fill="#E50A14"/>
<path d="M18.3477 17.1296L19.9373 15.54L21.5264 17.1296L19.9373 18.7191L18.3477 17.1296Z" fill="#E50A14"/>
<path d="M23.959 14.6291C23.8089 14.0065 23.4688 13.4461 22.9858 13.0255C22.5028 12.6049 21.9009 12.3451 21.2636 12.282C21.267 12.1052 21.235 11.9295 21.1697 11.7651C21.1044 11.6008 21.007 11.4511 20.8833 11.3249C20.7595 11.1986 20.6118 11.0982 20.4488 11.0296C20.2858 10.9611 20.1107 10.9256 19.9339 10.9254H19.0474C18.6949 10.9259 18.357 11.0661 18.1077 11.3154C17.8584 11.5646 17.7182 11.9025 17.7177 12.255H13.2854C13.2849 11.9025 13.1446 11.5646 12.8954 11.3154C12.6461 11.0661 12.3082 10.9259 11.9556 10.9254H11.0692C10.8923 10.9256 10.7173 10.9611 10.5543 11.0296C10.3913 11.0982 10.2436 11.1986 10.1198 11.3249C9.99604 11.4511 9.89865 11.6008 9.83334 11.7651C9.76804 11.9295 9.73613 12.1052 9.73947 12.282C9.10213 12.3451 8.50023 12.6049 8.01726 13.0255C7.53428 13.4461 7.19418 14.0065 7.04411 14.6291L5.0783 22.7869C4.9983 23.1184 4.9844 23.4625 5.03739 23.7994C5.09037 24.1363 5.20921 24.4595 5.38711 24.7505C5.565 25.0415 5.79848 25.2946 6.07421 25.4954C6.34994 25.6962 6.66252 25.8407 6.9941 25.9207C7.32568 26.0007 7.66977 26.0146 8.00672 25.9616C8.34368 25.9086 8.6669 25.7898 8.95792 25.6119C9.24895 25.434 9.50209 25.2006 9.70289 24.9249C9.90368 24.6492 10.0482 24.3366 10.1282 24.0051C10.1931 23.4579 10.455 22.953 10.8651 22.5849C11.2752 22.2167 11.8053 22.0105 12.3564 22.0047H18.6533C19.2043 22.0106 19.7342 22.2169 20.1442 22.585C20.5541 22.9532 20.816 23.458 20.8809 24.0051C21.0514 24.6651 21.4745 25.2316 22.059 25.5825C22.6435 25.9333 23.3425 26.0404 24.0053 25.8805C24.668 25.7206 25.2413 25.3067 25.6015 24.7279C25.9618 24.1492 26.08 23.452 25.9308 22.7869L23.959 14.6291ZM19.0474 11.8142H19.9339C20.0514 11.8144 20.1641 11.8611 20.2471 11.9442C20.3302 12.0273 20.377 12.1399 20.3771 12.2574H18.6042C18.6042 12.1399 18.6509 12.0271 18.734 11.944C18.8171 11.8609 18.9299 11.8142 19.0474 11.8142V11.8142ZM11.0692 11.8142H11.9556C12.0732 11.8144 12.1858 11.8611 12.2689 11.9442C12.352 12.0273 12.3987 12.1399 12.3989 12.2574H10.6259C10.6259 12.1399 10.6726 12.0271 10.7558 11.944C10.8389 11.8609 10.9516 11.8142 11.0692 11.8142V11.8142ZM11.0692 19.7917C10.3641 19.7909 9.68813 19.5105 9.18956 19.012C8.69099 18.5135 8.41055 17.8376 8.40976 17.1325C8.53434 13.6133 13.604 13.6139 13.7286 17.1325C13.7278 17.8376 13.4474 18.5135 12.9488 19.012C12.4502 19.5105 11.7743 19.7909 11.0692 19.7917V19.7917ZM14.6151 19.7917C14.5271 19.793 14.4408 19.7681 14.367 19.7203C14.2933 19.6724 14.2355 19.6036 14.2009 19.5227C14.1663 19.4419 14.1566 19.3526 14.173 19.2662C14.1893 19.1798 14.231 19.1002 14.2927 19.0375C14.3544 18.9749 14.4334 18.932 14.5196 18.9144C14.6057 18.8967 14.6952 18.9051 14.7765 18.9385C14.8579 18.9718 14.9275 19.0286 14.9765 19.1016C15.0255 19.1746 15.0517 19.2606 15.0517 19.3485C15.0508 19.4639 15.0051 19.5744 14.9241 19.6567C14.8432 19.739 14.7334 19.7865 14.6181 19.7893L14.6151 19.7917ZM16.3874 19.7917C16.2995 19.7929 16.2132 19.7679 16.1396 19.72C16.0659 19.672 16.0081 19.6032 15.9737 19.5223C15.9392 19.4414 15.9296 19.3522 15.946 19.2658C15.9624 19.1794 16.0041 19.0999 16.0659 19.0373C16.1276 18.9747 16.2066 18.9319 16.2927 18.9143C16.3789 18.8967 16.4683 18.9052 16.5496 18.9385C16.631 18.9719 16.7006 19.0287 16.7495 19.1017C16.7985 19.1747 16.8247 19.2606 16.8247 19.3485C16.8239 19.4641 16.7781 19.5748 16.697 19.6571C16.6159 19.7394 16.5059 19.7868 16.3904 19.7893L16.3874 19.7917ZM22.4627 17.4458L20.2466 19.6618C20.2054 19.703 20.1565 19.7356 20.1027 19.7579C20.0489 19.7802 19.9912 19.7917 19.933 19.7917C19.8748 19.7917 19.8171 19.7802 19.7633 19.7579C19.7095 19.7356 19.6606 19.703 19.6194 19.6618L17.4033 17.4458C17.3621 17.4046 17.3294 17.3557 17.3071 17.3019C17.2848 17.2481 17.2733 17.1905 17.2733 17.1322C17.2733 17.074 17.2848 17.0163 17.3071 16.9626C17.3294 16.9088 17.3621 16.8599 17.4033 16.8187L19.6194 14.6027C19.6606 14.5615 19.7095 14.5289 19.7633 14.5066C19.8171 14.4843 19.8748 14.4728 19.933 14.4728C19.9912 14.4728 20.0489 14.4843 20.1027 14.5066C20.1565 14.5289 20.2054 14.5615 20.2466 14.6027L22.4627 16.8187C22.504 16.8598 22.5368 16.9087 22.5591 16.9625C22.5815 17.0163 22.593 17.074 22.593 17.1322C22.593 17.1905 22.5815 17.2482 22.5591 17.302C22.5368 17.3558 22.504 17.4047 22.4627 17.4458V17.4458Z" fill="#E50A14"/>
</svg>
