<svg width="80" height="80" viewBox="0 0 80 80" fill="none" xmlns="http://www.w3.org/2000/svg">
<path d="M79.8506 52.956C79.6171 52.5139 79.1743 52.2617 78.6814 52.2991L64.1092 53.4121C62.9885 53.4759 61.9679 53.0198 61.29 52.1746C56.7117 46.3759 51.7026 40.034 51.3083 39.5281C51.2962 39.5281 51.2962 39.5157 51.2962 39.5157C50.9519 39.0736 51.0005 38.4415 51.419 38.0757L57.2167 32.8702C57.6109 32.5168 57.7459 31.9362 57.5366 31.4303C57.3395 30.9384 56.8603 30.6348 56.3174 30.6597L43.0858 31.6326C42.3851 31.6825 41.683 31.4941 41.0309 31.0894C39.3809 30.104 37.6961 29.3085 35.9111 28.7014C36.2796 33.552 35.3697 38.4929 33.1905 42.9154C30.6428 48.0945 26.5194 52.2524 21.5588 54.8162C25.4366 57.8097 29.2764 59.4396 31.4298 60.1977C32.1562 60.4374 32.8083 60.9309 33.2269 61.5364L39.751 71.2517C40.0467 71.7062 40.5881 71.9086 41.0931 71.7576C41.6102 71.6066 41.9666 71.152 41.9924 70.6072L42.3002 64.3151C42.3123 64.0629 42.4231 63.8341 42.6081 63.6706C42.7066 63.5819 42.9281 63.4434 43.248 63.4932C47.5565 64.1127 51.9498 63.7967 54.8661 63.4044C56.2688 63.227 57.5988 63.9991 58.1887 65.3254C59.7447 68.7734 63.0204 72.6293 65.1966 74.9799C66.2748 76.1474 67.3637 76.2579 68.4586 75.5901C68.9439 75.2943 69.2153 74.7324 69.1456 74.158L67.7792 62.8892C74.2411 61.689 79.5216 54.6388 79.7551 54.3228C80.0357 53.9289 80.0857 53.3981 79.8506 52.956Z" fill="#141414"/>
<path d="M36.8467 52.8937C36.231 54.1453 35.0132 54.8645 33.7454 54.8645C33.2404 54.8645 32.7233 54.7508 32.2441 54.5235C31.6284 54.22 31.3584 53.4619 31.6541 52.8299C31.9499 52.1979 32.6884 51.9332 33.2905 52.2368C33.7955 52.4765 34.3975 52.2741 34.6447 51.7558C34.9025 51.2374 34.7069 50.6194 34.214 50.3532C33.6241 50.0248 33.389 49.2542 33.709 48.6346C34.029 48.0291 34.7797 47.7878 35.3833 48.1287C37.056 49.0534 37.7081 51.1502 36.8467 52.8937Z" fill="#E50A14"/>
<path d="M36.6739 45.4902C36.0582 45.1991 35.8004 44.441 36.0839 43.8105C36.3797 43.1785 37.1046 42.9139 37.7203 43.205C38.2374 43.4572 38.8273 43.2424 39.0866 42.738C39.3323 42.2196 39.1488 41.6016 38.6438 41.323C38.0539 40.9945 37.8188 40.2364 38.1509 39.6169C38.4709 38.9973 39.2095 38.77 39.8131 39.0985C41.4994 40.0325 42.1394 42.1184 41.278 43.8744C40.6623 45.1259 39.4567 45.8451 38.1767 45.8451C37.6717 45.8436 37.1667 45.7299 36.6739 45.4902Z" fill="#E50A14"/>
<path d="M43.6652 56.4181C43.0494 57.6696 41.8317 58.4013 40.5639 58.4013C40.0589 58.4013 39.5433 58.2876 39.0504 58.0479C38.4347 57.7444 38.1769 56.9987 38.4726 56.3683C38.7562 55.7362 39.4932 55.4592 40.1089 55.7627C40.6139 56.0149 41.216 55.8001 41.4632 55.2817C41.721 54.7758 41.5253 54.1578 41.0325 53.8791C40.4289 53.5507 40.2075 52.7801 40.5275 52.173C40.8475 51.5534 41.5981 51.3262 42.2017 51.6546C43.8744 52.5777 44.5144 54.6746 43.6652 56.4181Z" fill="#E50A14"/>
<path d="M44.9949 49.3693C44.4899 49.3693 43.9728 49.2557 43.4936 49.016C42.8779 48.7249 42.6079 47.9683 42.9037 47.3363C43.1994 46.7167 43.9258 46.4397 44.54 46.7417C45.045 46.9814 45.647 46.779 45.8942 46.2606C46.152 45.7423 45.9685 45.1243 45.4635 44.8581C44.8736 44.5296 44.6385 43.7591 44.9585 43.1395C45.2785 42.5339 46.0292 42.2927 46.6328 42.6211C48.307 43.5551 48.9591 45.6535 48.0977 47.397C47.4805 48.6486 46.2627 49.3693 44.9949 49.3693Z" fill="#E50A14"/>
<path d="M52.9203 54.8644C52.3046 56.116 51.099 56.8351 49.819 56.8351C49.314 56.8351 48.809 56.7215 48.3177 56.4818C47.702 56.1907 47.4442 55.4326 47.7277 54.8021C48.0235 54.1701 48.7499 53.9055 49.3777 54.1966C49.8827 54.4488 50.4726 54.2339 50.732 53.7296C50.9776 53.2112 50.7941 52.5932 50.3013 52.3146C49.6977 51.9861 49.4763 51.228 49.7963 50.6084C50.1163 49.9889 50.8669 49.7616 51.4584 50.0901C53.1417 51.0116 53.7832 53.1085 52.9203 54.8644Z" fill="#E50A14"/>
<path d="M14.6738 47.4235C14.5403 47.6057 14.4099 47.7909 14.2507 47.9528C13.365 48.8619 12.1943 49.3678 10.9401 49.3678C8.34386 49.3678 6.23894 47.2072 6.23894 44.5421V14.1324C8.41666 13.5767 10.0302 11.5421 10.0302 9.14171C10.0302 6.31167 7.77821 4 5.00905 4C2.25202 4 0 6.31167 0 9.14171C0 11.5421 1.61206 13.5751 3.77916 14.1324V44.5421C3.77916 48.5973 6.99114 51.8943 10.9417 51.8943C12.8494 51.8943 14.6465 51.1362 15.9992 49.7336C16.069 49.662 16.119 49.5749 16.1858 49.5001" fill="#E50A14"/>
<path d="M16.1842 49.5018C16.1842 49.5018 18.0223 51.6936 19.0747 52.7038C19.1976 52.8175 19.3204 52.9311 19.4432 53.0448C24.3795 50.7954 28.515 46.8289 31.0006 41.776C33.1055 37.4811 33.9047 32.6538 33.3633 27.9418C33.2405 27.9044 33.1298 27.878 33.007 27.853C24.146 25.8449 16.2798 28.7497 12.3793 30.6582C10.5822 31.5424 9.59802 33.6019 9.98018 35.6738C10.7855 40.0138 12.3641 43.9382 14.6738 47.4236L16.1842 49.5018ZM21.2039 34.0299C21.8075 32.8048 23.2603 32.3114 24.4538 32.9309C25.6473 33.5505 26.128 35.0402 25.5245 36.2669C24.9209 37.492 23.4681 37.9855 22.2746 37.3659C21.0811 36.7463 20.6003 35.255 21.2039 34.0299Z" fill="#141414"/>
<path d="M21.204 34.0299C21.8076 32.8048 23.2604 32.3113 24.4539 32.9309C25.6474 33.5504 26.1281 35.0402 25.5245 36.2668C24.921 37.4919 23.4681 37.9854 22.2746 37.3658C21.0811 36.7463 20.6004 35.255 21.204 34.0299Z" fill="#E50A14"/>
</svg>
