<svg width="50" height="50" viewBox="0 0 50 50" fill="none" xmlns="http://www.w3.org/2000/svg">
<g clip-path="url(#clip0_1813_839)">
<path d="M25.0623 41.4488C23.8018 41.4473 22.5702 41.0712 21.5237 40.3684C20.4772 39.6656 19.6628 38.6677 19.184 37.5012H0V45.7475C0.00096068 46.8751 0.4491 47.9561 1.24604 48.7534C2.04297 49.5507 3.12357 49.999 4.25061 50H45.7494C46.8765 49.9994 47.9573 49.5511 48.7543 48.7538C49.5513 47.9564 49.9994 46.8752 50 45.7475V37.5H30.9406C30.4621 38.6668 29.6478 39.6651 28.6013 40.3681C27.5547 41.0712 26.3229 41.4473 25.0623 41.4488Z" fill="#E50A14"/>
<rect y="30" width="50" height="7.5" fill="#E50A14"/>
<path d="M45.7519 15H4.25326C3.12574 15.0003 2.04446 15.4484 1.24696 16.2458C0.449458 17.0433 0.000961454 18.1248 0 19.2529V32.5H19.185C19.6625 31.3324 20.4765 30.3333 21.5234 29.6301C22.5703 28.9269 23.8027 28.5514 25.0637 28.5514C26.3246 28.5514 27.557 28.9269 28.6039 29.6301C29.6508 30.3333 30.4648 31.3324 30.9423 32.5H50.0027V19.2529C50.0018 18.1252 49.5536 17.0441 48.7566 16.2467C47.9597 15.4493 46.879 15.001 45.7519 15Z" fill="#141414"/>
<path d="M25.0031 42.5C26.9888 42.4924 28.8909 41.7001 30.2952 40.2958C31.6994 38.8915 32.4919 36.9889 32.5 35.0027C32.4897 34.2308 32.3679 33.4644 32.1384 32.7273C31.7192 31.4074 30.9427 30.2295 29.8951 29.3241C28.8475 28.4187 27.5697 27.8213 26.2033 27.5981C24.837 27.3748 23.4355 27.5345 22.1543 28.0594C20.8732 28.5843 19.7624 29.4538 18.9451 30.5717C18.1279 31.6895 17.6362 33.012 17.5244 34.3923C17.4127 35.7727 17.6854 37.157 18.3122 38.3918C18.9391 39.6266 19.8956 40.6636 21.0756 41.3878C22.2557 42.112 23.6132 42.4951 24.9977 42.4946L25.0031 42.5Z" fill="white"/>
<path d="M22.2855 9.74574C22.2856 9.27029 22.4152 8.80323 22.6614 8.39144C22.9076 7.97965 23.2617 7.63762 23.6882 7.39968C24.5569 6.91571 25.4369 6.91571 26.3043 7.39968C26.7311 7.63737 27.0855 7.97931 27.3319 8.39114C27.5784 8.80296 27.7082 9.27015 27.7082 9.74574V15H35V9.74574C35.0001 8.03469 34.5335 6.35377 33.6472 4.87194C32.7608 3.39011 31.486 2.15959 29.9508 1.30406C28.4506 0.450294 26.7409 0 24.9994 0C23.2578 0 21.5481 0.450294 20.0479 1.30406C18.5131 2.15984 17.2385 3.39044 16.3525 4.87224C15.4664 6.35404 14.9999 8.03483 15 9.74574L15 15H22.2918L22.2855 9.74574Z" fill="#141414"/>
</g>
<defs>
<clipPath id="clip0_1813_839">
<rect width="50" height="50" fill="white"/>
</clipPath>
</defs>
</svg>
