<svg width="70" height="70" viewBox="0 0 70 70" fill="none" xmlns="http://www.w3.org/2000/svg">
<g clip-path="url(#clip0_1401_11413)">
<path d="M23.1 31.8151L27.6894 45.8151H42.4681L47.0575 31.8151L35 23.3363L23.1 31.8151Z" fill="#141414"/>
<path d="M28.6212 1.63625L35 6.22562L41.3787 1.63625C41.8469 1.32562 41.6894 0.625625 41.1469 0.546875C39.1256 0.1575 37.1044 0 35.0044 0C32.9044 0 30.8831 0.1575 28.8619 0.546875C28.3106 0.625625 28.1575 1.32562 28.6212 1.63625Z" fill="#141414"/>
<path d="M35.9319 21.5469L48.2213 30.2575L61.0531 25.9787L63.8531 16.8787C64.085 16.1787 63.9319 15.4 63.5425 14.7787C59.2638 8.78937 53.2 4.27874 46.1213 1.86812C45.3425 1.63624 44.5638 1.71062 43.9425 2.17874L35.9319 7.93624V21.5469V21.5469Z" fill="white"/>
<path d="M8.78938 25.9043L21.8575 30.1831L34.0681 21.3937V7.9362L26.0575 2.1787C25.4363 1.71057 24.5788 1.55745 23.8788 1.86807C16.7213 4.2787 10.6575 8.86807 6.37875 14.9362C5.91063 15.5574 5.83625 16.3362 6.06813 17.0362L8.78938 25.9043Z" fill="white"/>
<path d="M68.9894 32.7469H68.8319L61.6744 27.6937L48.8425 32.1256L44.2531 46.3575L52.2637 57.1681L61.0531 57.0106C61.8319 57.0106 62.5319 56.6212 62.9212 56.0787C67.3531 50.1681 70 42.8575 70 34.9212V34.6894C70 33.915 69.6106 33.215 68.9894 32.7469Z" fill="white"/>
<path d="M68.6787 30.2574C69.0681 30.5681 69.6894 30.2574 69.6106 29.7149C69.0638 25.9831 67.9 22.4043 66.2681 19.2149C66.0363 18.7468 65.3362 18.8256 65.1787 19.2937L63 26.2937L68.6787 30.2574Z" fill="#141414"/>
<path d="M1.32125 30.1787L6.92125 26.2894L4.82125 19.4469C4.66375 18.9 3.96375 18.8256 3.73188 19.3681C2.1 22.5575 1.01063 25.9787 0.389377 29.5575C0.310627 30.1044 0.936253 30.4894 1.32125 30.1787Z" fill="#141414"/>
<path d="M58.8788 59.0363L52.4213 59.1938L50.5531 65.1831C50.3956 65.73 50.9425 66.1938 51.4106 65.8831C54.2894 64.3256 57.0106 62.3831 59.3425 60.0513C59.7319 59.6575 59.4213 58.9575 58.8788 59.0363Z" fill="#141414"/>
<path d="M13.125 43.75C5.84938 43.75 0 49.6475 0 56.9056C0 64.1637 5.915 70 13.125 70C20.4006 70 26.25 64.1025 26.25 56.9056C26.25 49.6519 20.405 43.75 13.125 43.75ZM14.49 63.6519V65.1437C14.49 65.4675 14.2319 65.6644 13.9694 65.6644H12.3463C12.0225 65.6644 11.8256 65.4062 11.8256 65.1437V63.7175C10.1369 63.525 8.8375 62.16 8.64062 60.4756C8.64062 60.3444 8.70625 60.1519 8.77187 60.0862C8.90312 59.955 9.03 59.8937 9.16125 59.8937H10.7844C11.0425 59.8937 11.2394 60.0862 11.305 60.2831C11.3706 60.6725 11.76 60.9962 12.215 60.9962H13.6456C14.4244 60.9962 15.0763 60.4144 15.1419 59.7625C15.2075 59.3731 15.0763 58.9838 14.7525 58.66C14.4944 58.3363 14.1006 58.205 13.7112 58.205H12.67C10.4606 58.205 8.575 56.5862 8.3825 54.5125C8.18562 52.3731 9.61625 50.4306 11.76 50.0413V48.5494C11.76 48.2256 12.0181 48.0287 12.2806 48.0287H13.9037C14.2275 48.0287 14.4244 48.2869 14.4244 48.5494V49.9756C16.1131 50.1681 17.4125 51.5331 17.6094 53.2175C17.6094 53.3487 17.5437 53.4756 17.4781 53.6069C17.3469 53.7381 17.22 53.7994 17.0887 53.7994H15.4656C15.2075 53.7994 15.0106 53.6069 14.945 53.41C14.8794 53.0206 14.49 52.6969 14.035 52.6969H12.6044C11.8256 52.6969 11.1737 53.2788 11.1081 53.9306C11.0425 54.32 11.1737 54.7094 11.4319 55.0331C11.69 55.3569 12.0838 55.4881 12.4731 55.4881H13.7069C14.875 55.4881 15.9819 56.0088 16.7606 56.8488C17.5394 57.6931 17.9288 58.8569 17.8019 60.025C17.675 61.8362 16.31 63.2625 14.49 63.6519Z" fill="white"/>
<path d="M13.125 42.4374C17.7887 42.4374 21.9144 44.6424 24.5525 48.0593L25.7469 46.4318L21.1575 32.2043L8.16812 27.7681L1.08937 32.7468C0.389374 33.2149 0 33.9149 0 34.6937V35.0043C0 39.3618 0.813749 43.5181 2.27062 47.3681C4.90875 44.3493 8.785 42.4374 13.125 42.4374Z" fill="#141414"/>
<path d="M42.4681 47.7574H27.5363L25.8169 49.9974C26.9325 52.0537 27.5625 54.4074 27.5625 56.9099C27.5625 61.1668 25.6988 65.0081 22.7369 67.6506C22.9206 67.7906 23.1175 67.9043 23.3363 67.9787C26.9938 69.2999 30.8788 69.9999 35.0044 69.9999C39.1256 69.9999 43.0938 69.2999 46.7469 67.9787C47.4469 67.7468 48.0681 67.1212 48.2256 66.4212L50.6363 58.4106L42.4681 47.7574Z" fill="#141414"/>
</g>
<defs>
<clipPath id="clip0_1401_11413">
<rect width="70" height="70" fill="white"/>
</clipPath>
</defs>
</svg>
