<svg width="30" height="30" viewBox="0 0 30 30" fill="none" xmlns="http://www.w3.org/2000/svg">
<g clip-path="url(#clip0_1374_20377)">
<path d="M9.90039 13.635L11.8673 19.635H18.201L20.1679 13.635L15.0004 10.0012L9.90039 13.635Z" fill="#010101"/>
<path d="M12.2661 0.70125L14.9998 2.66812L17.7336 0.70125C17.9342 0.568125 17.8667 0.268125 17.6342 0.234375C16.7679 0.0675 15.9017 0 15.0017 0C14.1017 0 13.2354 0.0675 12.3692 0.234375C12.1329 0.268125 12.0673 0.568125 12.2661 0.70125Z" fill="#010101"/>
<path d="M15.3984 9.23439L20.6653 12.9675L26.1647 11.1338L27.3647 7.23376C27.4641 6.93376 27.3984 6.60001 27.2316 6.33376C25.3978 3.76689 22.7991 1.83376 19.7653 0.800639C19.4316 0.701264 19.0978 0.733139 18.8316 0.933764L15.3984 3.40126V9.23439Z" fill="#E50A14"/>
<path d="M3.76767 11.1018L9.3683 12.9356L14.6014 9.16869V3.40119L11.1683 0.933692C10.902 0.733067 10.5345 0.667442 10.2345 0.800567C7.16705 1.83369 4.5683 3.80057 2.73455 6.40119C2.53392 6.66744 2.50205 7.00119 2.60142 7.30119L3.76767 11.1018Z" fill="#E50A14"/>
<path d="M29.5661 14.0344H29.4986L26.4311 11.8688L20.9317 13.7682L18.9648 19.8675L22.398 24.5006L26.1648 24.4331C26.4986 24.4331 26.7986 24.2663 26.9655 24.0338C28.8648 21.5006 29.9992 18.3675 29.9992 14.9663V14.8669C29.9992 14.535 29.8323 14.235 29.5661 14.0344Z" fill="#E50A14"/>
<path d="M29.4337 12.9675C29.6006 13.1006 29.8669 12.9675 29.8331 12.735C29.5988 11.1356 29.1 9.60187 28.4006 8.235C28.3013 8.03437 28.0012 8.06812 27.9337 8.26875L27 11.2687L29.4337 12.9675Z" fill="#141414"/>
<path d="M0.566343 12.9338L2.96634 11.2669L2.06634 8.33442C1.99884 8.10004 1.69884 8.06817 1.59947 8.30067C0.900092 9.66754 0.433218 11.1338 0.166968 12.6675C0.133218 12.9019 0.401343 13.0669 0.566343 12.9338Z" fill="#010101"/>
<path d="M25.2343 25.3012L22.4668 25.3687L21.6661 27.9356C21.5986 28.17 21.833 28.3687 22.0336 28.2356C23.2674 27.5681 24.4336 26.7356 25.433 25.7362C25.5999 25.5675 25.4668 25.2675 25.2343 25.3012Z" fill="#010101"/>
<path d="M5.625 18.75C2.50688 18.75 0 21.2775 0 24.3881C0 27.4987 2.535 30 5.625 30C8.74312 30 11.25 27.4725 11.25 24.3881C11.25 21.2794 8.745 18.75 5.625 18.75ZM6.21 27.2794V27.9187C6.21 28.0575 6.09938 28.1419 5.98688 28.1419H5.29125C5.1525 28.1419 5.06812 28.0312 5.06812 27.9187V27.3075C4.34437 27.225 3.7875 26.64 3.70312 25.9181C3.70312 25.8619 3.73125 25.7794 3.75937 25.7512C3.81562 25.695 3.87 25.6687 3.92625 25.6687H4.62188C4.7325 25.6687 4.81687 25.7512 4.845 25.8356C4.87312 26.0025 5.04 26.1412 5.235 26.1412H5.84813C6.18188 26.1412 6.46125 25.8919 6.48938 25.6125C6.5175 25.4456 6.46125 25.2788 6.3225 25.14C6.21188 25.0013 6.04312 24.945 5.87625 24.945H5.43C4.48312 24.945 3.675 24.2512 3.5925 23.3625C3.50813 22.4456 4.12125 21.6131 5.04 21.4463V20.8069C5.04 20.6681 5.15062 20.5837 5.26312 20.5837H5.95875C6.0975 20.5837 6.18188 20.6944 6.18188 20.8069V21.4181C6.90563 21.5006 7.4625 22.0856 7.54688 22.8075C7.54688 22.8637 7.51875 22.9181 7.49062 22.9744C7.43437 23.0306 7.38 23.0569 7.32375 23.0569H6.62812C6.5175 23.0569 6.43312 22.9744 6.405 22.89C6.37687 22.7231 6.21 22.5844 6.015 22.5844H5.40187C5.06812 22.5844 4.78875 22.8338 4.76062 23.1131C4.7325 23.28 4.78875 23.4469 4.89937 23.5856C5.01 23.7244 5.17875 23.7806 5.34563 23.7806H5.87438C6.375 23.7806 6.84937 24.0038 7.18312 24.3638C7.51687 24.7256 7.68375 25.2244 7.62938 25.725C7.575 26.5012 6.99 27.1125 6.21 27.2794Z" fill="#E50A14"/>
<path d="M5.625 18.1875C7.62375 18.1875 9.39187 19.1325 10.5225 20.5969L11.0344 19.8994L9.0675 13.8019L3.50062 11.9006L0.466875 14.0344C0.166875 14.235 0 14.535 0 14.8688V15.0019C0 16.8694 0.34875 18.6506 0.973125 20.3006C2.10375 19.0069 3.765 18.1875 5.625 18.1875Z" fill="#010101"/>
<path d="M18.2004 20.4675H11.801L11.0641 21.4275C11.5423 22.3088 11.8123 23.3175 11.8123 24.39C11.8123 26.2144 11.0135 27.8607 9.74414 28.9932C9.82289 29.0532 9.90726 29.1019 10.001 29.1338C11.5685 29.7 13.2335 30 15.0016 30C16.7679 30 18.4685 29.7 20.0341 29.1338C20.3341 29.0344 20.6004 28.7663 20.6679 28.4663L21.701 25.0332L18.2004 20.4675Z" fill="#141414"/>
</g>
<defs>
<clipPath id="clip0_1374_20377">
<rect width="30" height="30" fill="white"/>
</clipPath>
</defs>
</svg>
