<svg width="60" height="60" viewBox="0 0 60 60" fill="none" xmlns="http://www.w3.org/2000/svg">
<g clip-path="url(#clip0_1503_36157)">
<path d="M26.7996 3.13585H26.9364C27.6866 3.06818 28.5044 2.99907 29.2545 2.99907H29.4589C30.2091 2.9314 30.9592 2.31805 30.9592 1.50025C30.9558 1.10341 30.7967 0.723777 30.516 0.443155C30.2354 0.162533 29.8558 0.00338399 29.4589 0H29.1854C28.3176 0.00263479 27.4512 0.0709796 26.5938 0.204449C26.3984 0.219787 26.2083 0.275291 26.0353 0.367488C25.8624 0.459684 25.7103 0.586588 25.5887 0.740255C25.4671 0.893922 25.3785 1.07104 25.3284 1.26053C25.2784 1.45002 25.268 1.6478 25.298 1.84148C25.3671 2.59017 26.0481 3.13729 26.7982 3.13729L26.7996 3.13585Z" fill="#141414"/>
<path d="M10.0271 11.0461C10.4077 11.0437 10.7733 10.8977 11.0508 10.6372C11.6526 10.0336 12.2881 9.46442 12.9542 8.93246C13.5675 8.38678 13.7043 7.49988 13.1586 6.88653C12.6129 6.27318 11.7188 6.1364 11.1127 6.68208C10.3762 7.28219 9.67076 7.9194 8.99907 8.59123C8.38573 9.13691 8.38573 10.0915 8.99907 10.7048C9.29286 10.9282 9.65226 11.0482 10.0213 11.0461H10.0271Z" fill="#141414"/>
<path d="M1.43599 27.553H1.70811C2.39056 27.553 3.00391 27.0073 3.14789 26.2572C3.28467 25.4394 3.42001 24.5525 3.6259 23.7347C3.71621 23.3549 3.65196 22.9548 3.44729 22.6225C3.24262 22.2901 2.9143 22.0526 2.53454 21.9623C2.15479 21.872 1.75471 21.9362 1.42233 22.1409C1.08994 22.3456 0.852479 22.6739 0.76217 23.0537C0.556281 23.9391 0.353271 24.8937 0.216491 25.8483C0.183571 26.0404 0.189074 26.2371 0.232683 26.4271C0.276291 26.6171 0.35714 26.7965 0.470549 26.9551C0.583959 27.1136 0.727678 27.2481 0.893393 27.3507C1.05911 27.4533 1.24353 27.5221 1.43599 27.553Z" fill="#141414"/>
<path d="M17.7312 5.65835C17.9421 5.64368 18.1492 5.59506 18.3446 5.51438C19.1226 5.15832 19.9184 4.84259 20.7289 4.56844C20.9125 4.50123 21.081 4.39851 21.2249 4.26615C21.3688 4.13379 21.4852 3.97439 21.5675 3.79704C21.6498 3.6197 21.6964 3.42788 21.7045 3.23254C21.7127 3.0372 21.6823 2.84217 21.6151 2.65858C21.5478 2.47498 21.4451 2.30643 21.3128 2.16254C21.1804 2.01864 21.021 1.90223 20.8437 1.81994C20.6663 1.73765 20.4745 1.6911 20.2791 1.68294C20.0838 1.67478 19.8888 1.70518 19.7052 1.77239C18.8183 2.11218 17.9328 2.45341 17.1136 2.86374C16.3634 3.20353 16.0913 4.09044 16.4325 4.84056C16.6384 5.3848 17.1827 5.65835 17.7284 5.65835H17.7312Z" fill="#141414"/>
<path d="M35.7997 3.61409C36.6175 3.81854 37.4367 4.02299 38.2545 4.29511C38.4071 4.35167 38.5701 4.37522 38.7325 4.36422C39.0386 4.35905 39.3353 4.25728 39.5802 4.07343C39.8251 3.88959 40.0056 3.63308 40.096 3.34053C40.1632 3.15746 40.1916 2.96239 40.1792 2.76775C40.1669 2.57311 40.1142 2.38318 40.0243 2.21006C39.9345 2.03694 39.8096 1.88443 39.6576 1.76226C39.5056 1.64009 39.3298 1.55094 39.1414 1.50049C38.2545 1.22694 37.3014 0.954817 36.4145 0.750368C35.5967 0.544479 34.8465 1.09016 34.6421 1.84028C34.5818 2.22592 34.6659 2.62026 34.8785 2.94763C35.0911 3.27499 35.4171 3.51233 35.7939 3.61409H35.7997Z" fill="#141414"/>
<path d="M56.0519 22.9772C56.1424 23.2885 56.3305 23.5625 56.5883 23.759C56.8462 23.9554 57.1603 24.0639 57.4844 24.0686C57.6019 24.0791 57.7198 24.0556 57.8242 24.0009C58.6435 23.795 59.0524 22.9772 58.8479 22.1594C58.5744 21.2725 58.3022 20.3194 57.961 19.4325C57.8938 19.2489 57.7911 19.0804 57.6587 18.9365C57.5264 18.7926 57.367 18.6762 57.1896 18.5939C56.8314 18.4277 56.4219 18.4106 56.0512 18.5463C55.6804 18.6821 55.3787 18.9595 55.2125 19.3177C55.0463 19.6759 55.0292 20.0854 55.165 20.4562C55.5062 21.3402 55.7798 22.1594 56.0519 22.9772Z" fill="#141414"/>
<path d="M3.34475 35.1838C3.20797 34.366 3.07263 33.4791 3.00352 32.6613C2.93441 31.8435 2.18572 31.2964 1.36793 31.2964C0.971372 31.3362 0.606256 31.53 0.351035 31.8361C0.0958134 32.1422 -0.0291443 32.5362 0.0030121 32.9334C0.0680047 33.8745 0.2047 34.8092 0.41191 35.7295C0.47157 36.0807 0.656385 36.3984 0.932179 36.6239C1.20797 36.8494 1.55609 36.9674 1.91216 36.9561H2.18572C2.56227 36.8544 2.88803 36.6173 3.10058 36.2902C3.31312 35.9632 3.3975 35.5692 3.33755 35.1838H3.34475Z" fill="#141414"/>
<path d="M52.3023 14.8641C52.4371 15.0677 52.619 15.2359 52.8325 15.3544C53.046 15.4729 53.2849 15.5384 53.529 15.5451C53.825 15.5493 54.1136 15.4534 54.3482 15.273C54.6654 15.0491 54.8845 14.7122 54.9606 14.3316C55.0367 13.9509 54.9639 13.5556 54.7572 13.2271C54.2115 12.4769 53.6658 11.6592 53.0524 10.9767C52.7993 10.6691 52.4343 10.4747 52.0378 10.4362C51.6413 10.3977 51.2457 10.5184 50.9381 10.7715C50.6305 11.0247 50.4361 11.3897 50.3977 11.7862C50.3592 12.1827 50.4798 12.5783 50.733 12.8858C51.3139 13.4972 51.8391 14.1593 52.3023 14.8641Z" fill="#141414"/>
<path d="M44.0526 6.95393C44.8028 7.43194 45.4852 7.9085 46.1662 8.38651C46.4464 8.57849 46.7815 8.67401 47.1208 8.65863C47.3478 8.65549 47.5707 8.59819 47.7711 8.49151C47.9714 8.38483 48.1434 8.23184 48.2727 8.04528C48.5005 7.7352 48.5994 7.34894 48.5487 6.96751C48.498 6.58608 48.3015 6.23911 48.0005 5.99936C47.249 5.45368 46.4312 4.90801 45.681 4.43144C45 4.02254 44.0454 4.22699 43.6365 4.90944C43.5245 5.06899 43.446 5.24962 43.4059 5.4404C43.3657 5.63118 43.3647 5.82812 43.403 6.0193C43.4412 6.21047 43.5179 6.39188 43.6283 6.55254C43.7387 6.7132 43.8807 6.84976 44.0454 6.95393H44.0526Z" fill="#141414"/>
<path d="M28.3676 57.0688C27.5498 57.0012 26.6629 56.9248 25.8451 56.7967C25.6527 56.7653 25.4559 56.7721 25.2661 56.8168C25.0762 56.8615 24.897 56.9431 24.7387 57.057C24.5804 57.1709 24.4461 57.3149 24.3435 57.4807C24.2408 57.6465 24.1718 57.8309 24.1405 58.0234C24.1091 58.2159 24.1159 58.4127 24.1606 58.6025C24.2052 58.7923 24.2868 58.9715 24.4007 59.1298C24.6308 59.4495 24.9784 59.6647 25.3671 59.7281C26.3217 59.8634 27.2763 60.0002 28.1632 60.0002H28.2985C28.6637 59.9906 29.0124 59.8458 29.277 59.5939C29.5416 59.3421 29.7034 59.001 29.7311 58.6367C29.8002 57.8189 29.1178 57.0688 28.3676 57.0688Z" fill="#141414"/>
<path d="M37.1645 56.1155C36.3467 56.3199 35.5275 56.5244 34.7169 56.6612C34.3452 56.7173 34.0091 56.9133 33.7771 57.2091C33.5452 57.5049 33.4349 57.878 33.4689 58.2524C33.503 58.6267 33.6787 58.9739 33.9601 59.223C34.2416 59.4721 34.6076 59.6043 34.9832 59.5926H35.1891C36.1423 59.4572 37.0292 59.1837 37.9837 58.9792C38.803 58.7748 39.2119 57.957 39.0074 57.1392C38.9631 56.9455 38.8785 56.7633 38.7592 56.6044C38.6398 56.4456 38.4884 56.3136 38.3148 56.217C38.1411 56.1205 37.9491 56.0616 37.7512 56.0441C37.5532 56.0266 37.3538 56.0509 37.1659 56.1155H37.1645Z" fill="#141414"/>
<path d="M45.2775 52.2974C44.5758 52.7919 43.8471 53.2471 43.0948 53.6609C42.7566 53.8648 42.5107 54.1921 42.4089 54.5737C42.3071 54.9553 42.3574 55.3615 42.5492 55.7068C42.6838 55.9315 42.8734 56.1182 43.1001 56.2494C43.3268 56.3806 43.5831 56.452 43.845 56.457C44.0869 56.453 44.3231 56.3823 44.5274 56.2525C45.3452 55.7745 46.163 55.2979 46.9131 54.7522C47.2302 54.5284 47.4494 54.1914 47.5255 53.8108C47.6016 53.4302 47.5287 53.0349 47.322 52.7063C46.8455 52.0253 45.8909 51.8194 45.2775 52.2974Z" fill="#141414"/>
<path d="M19.6403 55.0931C18.8487 54.7709 18.0749 54.4066 17.3222 54.0018C16.5721 53.5928 15.6852 53.8664 15.344 54.6151C14.9351 55.3652 15.2087 56.2522 15.9588 56.5934C16.7766 57.0023 17.6635 57.4112 18.5504 57.8201C18.7464 57.8977 18.9534 57.9438 19.1637 57.9569C19.4504 57.9474 19.7291 57.8596 19.9695 57.703C20.2098 57.5464 20.4027 57.327 20.5272 57.0685C20.7993 56.2507 20.3832 55.3638 19.6403 55.0917V55.0931Z" fill="#141414"/>
<path d="M10.2309 48.6158C9.6852 48.0025 8.73062 48.0025 8.11728 48.5481C7.50393 49.0938 7.50393 50.0484 8.04961 50.6618C8.73062 51.3428 9.41308 52.0252 10.0941 52.6386C10.3677 52.9121 10.7766 52.9798 11.1178 52.9798C11.5293 52.9659 11.9199 52.7949 12.2091 52.5018C12.4683 52.2015 12.5986 51.8111 12.5716 51.4154C12.5447 51.0197 12.3627 50.6505 12.0652 50.3882C11.4518 49.8425 10.8385 49.2292 10.2237 48.6158H10.2309Z" fill="#141414"/>
<path d="M5.25308 41.2514C5.17253 41.0723 5.05751 40.9109 4.91457 40.7763C4.77164 40.6417 4.60359 40.5365 4.42002 40.4669C4.23646 40.3972 4.04097 40.3644 3.84473 40.3703C3.64848 40.3762 3.45531 40.4207 3.27626 40.5012C3.09721 40.5818 2.93577 40.6968 2.80117 40.8397C2.66657 40.9827 2.56144 41.1507 2.49179 41.3343C2.42213 41.5178 2.38931 41.7133 2.39521 41.9096C2.4011 42.1058 2.44559 42.299 2.52614 42.478C2.93359 43.2973 3.34393 44.1827 3.82194 45.002C3.95673 45.2265 4.14635 45.4131 4.373 45.5443C4.59964 45.6755 4.8559 45.747 5.11774 45.7521C5.35982 45.758 5.59761 45.6875 5.79732 45.5505C6.1361 45.3471 6.38247 45.0198 6.48431 44.638C6.58614 44.2562 6.53547 43.8497 6.34299 43.5046C6.0032 42.7545 5.59431 42.0044 5.25308 41.2542V41.2514Z" fill="#141414"/>
<path d="M6.55025 13.4993C5.86923 13.0904 4.91321 13.2949 4.50431 13.9773C4.02439 14.7951 3.54734 15.6134 3.07317 16.4321C2.73194 17.1808 3.00406 18.0677 3.75419 18.409C3.96409 18.5183 4.2009 18.5653 4.43664 18.5443C4.70563 18.5346 4.96724 18.4538 5.19486 18.3102C5.42248 18.1665 5.60797 17.9651 5.73245 17.7265C6.14135 16.9764 6.55169 16.2263 7.02825 15.4761C7.43859 14.8628 7.2327 13.9773 6.55169 13.4993H6.55025Z" fill="#141414"/>
<path d="M46.5743 43.3647C46.8464 43.0235 47.1199 42.6146 47.392 42.2734L44.5283 42.4102H44.393C44.1373 42.4038 43.8843 42.3577 43.6429 42.2734C41.0523 45.2137 37.5869 47.2455 33.7559 48.0699C33.9603 47.8641 34.0971 47.7287 34.0971 47.5919C34.0971 47.5243 34.3015 47.4552 34.4369 47.3875C34.7104 47.2507 35.0502 47.0463 35.187 46.8418C35.3929 46.5006 36.0062 45.8872 36.2784 45.7505C36.6196 45.546 38.8009 43.5677 38.9376 43.2956C39.2789 42.4778 39.7554 41.5909 40.029 41.3865C40.507 40.9776 40.0967 40.2951 39.8922 40.0216V39.9539C39.6878 39.6127 38.4611 39.4773 38.2566 39.545C38.0507 39.545 36.9608 38.9317 36.8917 38.7949C36.8917 38.4536 35.8695 37.4314 35.5959 37.4314C35.1791 37.3842 34.7924 37.1909 34.5046 36.8857C34.0957 36.4077 32.6631 36.0679 32.1865 36.0679C31.6958 36.0701 31.2093 35.9772 30.7539 35.7944C30.4141 35.659 29.7993 35.862 29.1183 36.1356C29.0442 36.1367 28.9722 36.1609 28.9124 36.2047C28.708 36.2738 27.4727 36.0003 27.2077 35.8649C27.1401 35.7958 27.071 35.3192 27.071 35.0457C27.083 34.8327 27.0362 34.6205 26.9356 34.4323C26.8679 34.297 26.5944 34.1602 25.981 34.0234C25.8443 33.9558 25.6398 33.9558 25.5721 33.8881C25.6007 33.7671 25.6494 33.6518 25.7161 33.5469C25.9119 33.0689 26.0559 32.7967 25.9119 32.5923C25.8428 32.5246 25.7751 32.4555 25.7075 32.4555C25.4339 32.3878 25.025 32.6614 24.6161 32.9335C24.4117 33.0703 24.1381 33.2748 24.0704 33.2748C23.7969 33.2748 23.388 33.0703 22.7746 32.7291C22.4349 32.5246 22.8423 31.4333 22.9791 30.9567C23.0109 30.763 23.0808 30.5775 23.185 30.411C23.185 30.2671 23.7983 30.1375 24.6838 30.1375C24.9831 30.1206 25.28 30.0753 25.5707 30.0021C25.8163 29.9347 26.0673 29.8889 26.3208 29.8654C26.4576 29.8654 26.6621 30.2066 26.7988 30.411C27.071 30.7523 27.2077 31.0244 27.4799 30.9567C27.8211 30.889 27.8211 30.411 27.7534 30.1389V29.8654C27.7534 29.6609 28.23 28.9108 28.5712 28.7063C29.0492 28.4342 29.5949 27.615 29.4581 27.2061C29.4581 27.0016 30.2082 26.5251 30.4804 26.3206C30.5828 26.269 30.6754 26.1998 30.7539 26.1162C30.8286 26.0439 30.9235 25.9962 31.026 25.9794C31.2996 25.8426 31.6394 25.6382 31.6394 25.2293C31.6394 24.9557 32.4586 24.8204 33.0043 24.7513C33.1396 24.7513 33.2087 24.6836 33.3441 24.6836C33.6853 24.6159 33.8221 24.5468 33.9574 24.4115C34.0265 24.2056 33.9574 24.0026 33.8898 23.7967C33.8898 23.729 33.8221 23.6613 33.8221 23.5922C33.6853 23.1833 33.7544 22.9112 34.1633 22.6377C34.3678 22.5023 34.6399 22.5023 34.9811 22.4332C35.3223 22.3641 35.7312 22.3655 36.0725 22.1611C36.1819 22.1436 36.2844 22.0961 36.3685 22.0239C36.4526 21.9517 36.5151 21.8577 36.549 21.7522C36.6182 21.5477 36.4814 21.3433 36.3446 21.2065C36.2769 21.1389 36.2093 21.0697 36.2093 21.0021C36.0034 20.5932 35.6636 20.3873 35.4591 20.1828C35.3223 20.1152 35.2532 19.5695 35.1179 19.2283C35.0502 19.0238 35.0502 18.8194 34.9811 18.7517C34.9279 18.6296 34.8308 18.532 34.709 18.4781C34.4354 18.4105 33.9589 18.5472 33.6853 18.6826C33.6853 18.6149 33.6176 18.5472 33.6176 18.4105C33.6242 18.2408 33.5768 18.0735 33.4823 17.9325L33.0734 17.5236C32.7998 17.2514 32.4586 16.9779 32.2542 16.7734C32.2104 16.7277 32.1572 16.6919 32.0983 16.6685C32.0394 16.6452 31.9762 16.6348 31.9129 16.6381C31.5732 16.7058 31.3687 17.047 31.0951 17.4559C31.0951 17.5236 31.0275 17.5236 31.0275 17.5927C30.6186 18.206 30.5495 18.6149 30.8907 18.8194C30.9099 18.8772 30.9137 18.9391 30.9019 18.9989C30.89 19.0587 30.8628 19.1144 30.823 19.1606C30.6877 19.5004 30.4818 19.7063 30.345 19.7063C30.0052 19.7063 29.8685 20.1828 29.8008 20.6608C29.7317 20.8653 29.7317 21.1374 29.664 21.2051C29.5963 21.1374 29.4596 20.8653 29.4596 20.0461V19.9784C29.4596 19.843 29.3919 19.7739 29.3919 19.7063C29.2551 19.5695 29.1183 19.6372 28.983 19.6372C28.7771 19.6372 28.7094 19.6372 28.7094 19.5695C28.505 19.2283 27.4827 18.8885 27.1415 18.7517V17.5927C27.2783 17.3868 28.7785 16.3645 29.1874 16.2278C29.664 16.0924 30.8921 15.2055 31.1643 15.0759C31.3687 14.9406 31.4378 14.7361 31.3687 14.667C31.301 14.2581 30.6186 13.986 30.2774 13.9169C30.0729 13.3712 29.664 13.3712 29.2551 13.3712C29.0026 13.3782 28.7502 13.354 28.5035 13.2992C27.5367 13.1246 26.551 13.0791 25.5721 13.1639C25.0265 13.2316 24.344 13.0948 23.7983 12.958C23.5773 12.8868 23.3488 12.8414 23.1173 12.8227C25.2239 11.9964 27.4688 11.5796 29.7317 11.5945C32.2542 11.5945 34.6399 12.1402 36.8903 13.0271L37.0962 13.6405C37.3683 14.1861 37.7095 15.0731 37.7095 15.8232C37.7095 16.5042 37.7772 17.2543 37.7095 17.4588C37.6418 17.6632 39.073 19.3002 39.4142 19.3694C39.7554 19.4385 39.9599 19.1635 40.1643 18.8913C40.3688 18.5501 40.6409 18.2103 41.2557 17.7323C41.7323 17.3234 42.8913 17.4588 43.2325 17.5279C43.835 18.1619 44.3826 18.8459 44.8695 19.5724C44.7328 19.6415 44.6651 19.7783 44.596 19.8459C44.3239 20.118 43.5737 20.8682 43.6414 21.4138C43.7091 21.9595 44.3239 22.7097 45.074 23.1185C45.3104 23.2458 45.5099 23.4319 45.6532 23.6589C45.7965 23.886 45.8787 24.1462 45.8918 24.4144C45.8918 24.5497 46.9831 25.2321 46.9831 25.2321C46.9831 25.2321 46.5051 26.119 46.3021 26.119C46.0991 26.119 45.8932 27.0045 45.8932 27.3457C45.8932 27.687 46.3698 28.3003 46.7787 28.7092C47.2567 29.0504 48.0068 28.0959 48.0068 28.0959C48.0745 28.6415 48.0745 29.2549 48.1422 29.8006C47.6656 29.8006 46.8464 30.1418 46.6419 30.3462C46.3021 30.6184 45.6873 32.8011 45.3461 33.0055C45.277 33.0732 45.1417 33.4144 45.0049 33.8233C45.2093 33.7556 45.4829 33.688 45.6859 33.6189L51.0045 32.6643C51.0736 31.8465 51.1412 31.0964 51.1412 30.2786C51.1412 18.4825 41.5278 8.86904 29.7317 8.86904C18.0694 8.59404 8.45312 18.2075 8.45312 30.0036C8.45312 41.7997 18.068 51.4146 29.8641 51.4146C35.1581 51.42 40.2637 49.4506 44.1828 45.8916C45.0637 45.1356 45.8637 44.2903 46.5699 43.3691L46.5743 43.3647ZM30.2097 47.7964C30.1158 48.0117 30.0668 48.2439 30.0657 48.4788H29.8613C19.7093 48.4788 11.3903 40.2231 11.3903 30.0007C11.3944 25.3376 13.1741 20.851 16.3676 17.453C16.5179 17.5592 16.6779 17.6508 16.8456 17.7266C16.981 17.8619 16.981 18.7488 16.9133 19.6357V19.7783C16.9133 19.7783 17.6634 21.6874 16.981 23.1877C16.2308 24.8247 16.3676 27.4149 16.7765 28.0296C17.1177 28.5062 18.8901 30.8243 19.1637 31.0287C19.3681 31.2332 19.9815 32.8702 19.9815 33.1423C20.0491 33.3467 21.2082 34.7793 22.3672 34.7102C23.0496 34.7102 23.8674 35.1191 24.4131 35.3236C24.6867 35.4603 24.8911 35.5971 25.0265 35.5971C25.0956 35.5971 25.1632 35.7325 25.2309 35.8692C25.4368 36.1428 25.6398 36.6194 26.3223 36.9606C26.4896 37.0784 26.6735 37.1705 26.8679 37.2342C27.4813 37.5739 28.3682 38.0519 28.4359 38.1873C28.4359 38.2564 28.3005 38.3932 28.1638 38.5285C27.7549 39.0065 27.1401 39.6875 27.3445 40.7112C27.6181 42.0747 29.5272 43.7794 30.2097 44.1206C30.6186 44.4619 30.4141 47.2565 30.2097 47.8021V47.7964Z" fill="#E50A14"/>
<path d="M30.21 47.7965C30.1161 48.0118 30.0671 48.244 30.066 48.4789H29.8616C19.7097 48.4789 11.3906 40.2232 11.3906 30.0008C11.3947 25.3377 13.1744 20.8511 16.368 17.4531C16.5182 17.5593 16.6783 17.6509 16.846 17.7267C16.9813 17.862 16.9813 18.7489 16.9136 19.6358V19.7783C16.9136 19.7783 17.6638 21.6875 16.9813 23.1877C16.2312 24.8248 16.368 27.4149 16.7769 28.0297C17.1181 28.5063 18.8905 30.8243 19.164 31.0288C19.3685 31.2332 19.9818 32.8703 19.9818 33.1424C20.0495 33.3468 21.2085 34.7794 22.3675 34.7103C23.05 34.7103 23.8678 35.1192 24.4135 35.3237C24.687 35.4604 24.8915 35.5972 25.0268 35.5972C25.0959 35.5972 25.1636 35.7325 25.2313 35.8693C25.4371 36.1429 25.6402 36.6195 26.3226 36.9607C26.4899 37.0784 26.6738 37.1706 26.8683 37.2342C27.4816 37.574 28.3685 38.052 28.4362 38.1874C28.4362 38.2565 28.3009 38.3933 28.1641 38.5286C27.7552 39.0066 27.1404 39.6876 27.3449 40.7113C27.6184 42.0748 29.5276 43.7795 30.21 44.1207C30.6189 44.4619 30.4145 47.2566 30.21 47.8022V47.7965Z" fill="#141414"/>
<path d="M59.8068 42.39L56.2807 36.6478L57.6721 33.4247C57.8687 32.9636 57.9702 32.4665 57.9702 31.9642C57.9702 31.4618 57.8687 30.9647 57.6721 30.5036C57.5992 30.3101 57.4537 30.1537 57.2674 30.0688C57.0811 29.9839 56.8692 29.9773 56.6781 30.0506C56.2055 30.2206 55.7722 30.487 55.405 30.8334C55.0379 31.1798 54.7446 31.5988 54.5434 32.0646L53.153 35.2888L46.5989 36.4979C46.2015 36.5478 45.9037 36.8509 45.7601 37.2029L45.0146 38.9149C45.002 38.9481 44.9975 38.984 45.0014 39.0194C45.0052 39.0548 45.0175 39.0887 45.037 39.1183C45.0565 39.1479 45.0828 39.1723 45.1136 39.1895C45.1443 39.2066 45.1787 39.216 45.2138 39.2169L51.6684 38.9149L50.1239 43.3938L47.5918 43.7458C47.2941 43.7969 47.0456 43.9479 46.9459 44.2499L46.7478 44.7528C46.7359 44.7824 46.7303 44.8143 46.7315 44.8462C46.7327 44.8782 46.7406 44.9095 46.7547 44.9381C46.7688 44.9667 46.7887 44.9919 46.8132 45.012C46.8377 45.0322 46.8662 45.0468 46.8967 45.0548L49.4288 45.7599C49.3795 46.2129 49.628 46.6159 50.0747 46.8232C50.472 47.0242 50.968 46.8732 51.2668 46.5712L53.4508 47.9812C53.504 48.0038 53.5634 48.0061 53.6181 47.9877C53.6728 47.9693 53.7192 47.9316 53.7486 47.8813L53.9478 47.3772C54.0045 47.2463 54.0252 47.1022 54.0076 46.9603C53.9901 46.8184 53.935 46.6839 53.8482 46.5712L52.3562 44.4572L54.5916 40.2771L58.7646 45.3079C58.8632 45.4143 59.0624 45.4143 59.1117 45.2579L59.8571 43.5459C60.0553 43.0929 60.0553 42.6899 59.8068 42.3879V42.39Z" fill="#E50A14"/>
</g>
<defs>
<clipPath id="clip0_1503_36157">
<rect width="60" height="60" fill="white"/>
</clipPath>
</defs>
</svg>
