<svg width="70" height="70" viewBox="0 0 70 70" fill="none" xmlns="http://www.w3.org/2000/svg">
<path d="M70 35C70 54.3289 54.3289 70 35 70C15.6711 70 0 54.3289 0 35C0 15.6711 15.6711 0 35 0C54.3329 0 70 15.6711 70 35Z" fill="#182633"/>
<path d="M53.3435 43.77C50.8998 43.77 48.4561 43.77 46.0124 43.77C45.8942 43.77 45.7759 43.7782 45.6577 43.7619C45.2478 43.7211 44.9482 43.4355 44.893 43.0113C44.8694 42.8644 44.8773 42.7094 44.8773 42.5626C44.8773 37.5208 44.8773 32.479 44.8773 27.4372C44.8773 27.4127 44.8773 27.3801 44.8773 27.3556C44.8142 26.5317 45.3345 26.2135 45.973 26.2135C50.8919 26.238 55.8187 26.2298 60.7455 26.2298C60.8401 26.2298 60.9269 26.2298 61.0215 26.238C61.4471 26.2788 61.7546 26.5724 61.8097 27.013C61.8255 27.1598 61.8255 27.3148 61.8255 27.4617C61.8255 32.4872 61.8176 37.5208 61.8334 42.5463C61.8334 43.3132 61.5969 43.8026 60.6273 43.7863C58.1994 43.7455 55.7714 43.77 53.3435 43.77Z" fill="white"/>
<path d="M43.6954 35.0488C43.656 40.2375 39.5963 44.3818 34.5828 44.3329C29.6323 44.2921 25.6357 40.0661 25.6751 34.9183C25.7145 29.7867 29.7821 25.6342 34.7483 25.6668C39.7067 25.6995 43.7348 29.9254 43.6954 35.0488Z" fill="white"/>
<path d="M17.7761 43.7128C14.8358 43.7128 11.8955 43.7128 8.95513 43.7128C8.82112 43.7128 8.69499 43.721 8.56098 43.7047C8.24567 43.6639 8.08801 43.3947 8.20625 43.0846C8.24567 42.9867 8.30873 42.897 8.35603 42.7991C11.32 37.4799 14.2919 32.1608 17.2558 26.8416C17.311 26.7437 17.3583 26.6458 17.4214 26.5642C17.6342 26.2624 17.9574 26.2705 18.1702 26.5805C18.2175 26.6458 18.2491 26.7192 18.2885 26.7926C21.2682 32.1363 24.2401 37.4799 27.2356 42.8073C27.5667 43.3947 27.3459 43.7291 26.7232 43.721C23.7435 43.6965 20.7558 43.7128 17.7761 43.7128Z" fill="white"/>
</svg>
