<svg width="50" height="50" viewBox="0 0 50 50" fill="none" xmlns="http://www.w3.org/2000/svg">
<g clip-path="url(#clip0_1601_18949)">
<path fill-rule="evenodd" clip-rule="evenodd" d="M34.367 37.9397C37.1008 35.9571 39.1831 33.1329 40.2305 29.8505C42.2598 30.5238 45.3926 31.5899 46.945 32.1198C47.6744 29.8786 48.0734 27.4877 48.0734 25.0033C48.0734 22.5095 47.6713 20.1124 46.9356 17.8617L40.165 19.9721C39.1021 16.7801 37.0603 14.0307 34.3951 12.0856C35.2482 10.912 36.4548 9.24809 37.4381 7.89206C37.8704 7.29589 38.2595 6.75923 38.5566 6.34989C34.7473 3.57558 30.0653 1.9328 25.0029 1.92969V9.02133H24.9967C21.4898 9.02133 18.2448 10.1591 15.6077 12.0793C14.367 10.3711 12.4094 7.68406 11.4369 6.34989C7.54658 9.18344 4.57588 13.1984 3.05469 17.868L9.81279 20.0157C9.29533 21.5868 9.01167 23.2607 9.01167 25.0033C9.01167 26.7208 9.2891 28.3792 9.79409 29.9316C8.31705 30.414 6.20861 31.1012 4.57399 31.634C3.9904 31.8242 3.4672 31.9947 3.05469 32.1292C4.579 36.805 7.55593 40.8293 11.4524 43.666L15.7137 37.9989C18.3321 39.8755 21.5366 40.9852 24.9998 40.9852H25.0061V48.0768C30.0684 48.0737 34.7504 46.4309 38.5566 43.6566L34.367 37.9397ZM10.9381 25.0001C10.9381 17.2476 17.2473 10.9384 24.9998 10.9384C32.7523 10.9384 39.0615 17.2476 39.0615 25.0001C39.0615 32.7526 32.7523 39.0619 24.9998 39.0619C17.2473 39.0619 10.9381 32.7526 10.9381 25.0001Z" fill="#E50A14"/>
<path d="M33.0082 26.0226C30.8885 29.9845 25.0001 34.2115 25.0001 34.2115C24.9284 34.1741 19.1148 29.9845 16.992 26.0226C16.3592 24.838 15.9727 23.4135 16.169 22.0668C16.6273 18.9434 20.583 17.7557 23.0581 19.4359C23.6628 19.8474 24.1834 20.3836 24.5294 21.0288C24.7133 21.3717 24.8692 21.7489 25.0001 22.1448C25.131 21.7489 25.2869 21.3717 25.4708 21.0288C25.8168 20.3836 26.3374 19.8443 26.9421 19.4359C29.4172 17.7557 33.3729 18.9434 33.8311 22.0668C34.0275 23.4135 33.6441 24.838 33.0082 26.0226Z" fill="#E50A14"/>
<path d="M25 0C11.2157 0 0 11.2157 0 25C0 38.7843 11.2157 50 25 50C38.7843 50 50 38.7843 50 25C50 11.2157 38.7843 0 25 0ZM40.2307 29.8504C39.1833 33.1328 37.101 35.957 34.3672 37.9395L38.5567 43.6565C34.7506 46.4308 30.0686 48.0736 25.0062 48.0767V40.985C25.0031 40.985 25 40.985 25 40.985C21.5368 40.985 18.3323 39.8753 15.7138 37.9988L11.4526 43.6658C7.55611 40.8292 4.57918 36.8049 3.05486 32.1291C4.62282 31.6178 7.7899 30.586 9.79426 29.9314C9.28928 28.3791 9.01185 26.7207 9.01185 25.0031C9.01185 23.2606 9.29551 21.5867 9.81297 20.0156L3.05486 17.8678C4.57606 13.1983 7.54676 9.1833 11.437 6.34976C12.4096 7.68392 14.3672 10.3709 15.6079 12.0792C18.245 10.159 21.49 9.0212 24.9969 9.0212C25 9.0212 25.0031 9.0212 25.0031 9.0212V1.92955C30.0655 1.93267 34.7475 3.57544 38.5567 6.34976C37.5842 7.69016 35.6234 10.3959 34.3953 12.0854C37.0605 14.0306 39.1022 16.7799 40.1652 19.9719L46.9358 17.8616C47.6714 20.1122 48.0736 22.5094 48.0736 25.0031C48.0736 27.4875 47.6746 29.8784 46.9451 32.1197C45.3928 31.5898 42.26 30.5237 40.2307 29.8504Z" fill="#141414"/>
</g>
<defs>
<clipPath id="clip0_1601_18949">
<rect width="50" height="50" fill="white"/>
</clipPath>
</defs>
</svg>
