<svg width="20" height="20" viewBox="0 0 20 20" fill="none" xmlns="http://www.w3.org/2000/svg">
<path d="M19.2867 18.57H18.1167L10.2833 8.35333C10.1467 8.17667 9.85333 8.17667 9.71667 8.35333L1.88333 18.57H0.713333C0.32 18.57 0 18.89 0 19.2833C0 19.6767 0.32 19.9967 0.713333 19.9967H2.85667C3.25 19.9967 3.57 19.6767 3.57 19.2833C3.57 18.89 3.25 18.57 2.85667 18.57H2.78333L10 9.16L17.2167 18.5733H17.1433C16.75 18.5733 16.43 18.8933 16.43 19.2867C16.43 19.68 16.75 20 17.1433 20H19.2867C19.68 20 20 19.68 20 19.2867C20 18.89 19.68 18.57 19.2867 18.57Z" fill="#141414"/>
<path d="M10 10.7133C9.90667 10.7133 9.81667 10.7 9.72667 10.6867L7.54667 13.5333C7.73667 13.7267 7.85667 13.9933 7.85667 14.2867C7.85667 14.88 7.37667 15.3567 6.78667 15.3567C6.59333 15.3567 6.41667 15.3 6.26 15.2133L5.68333 15.9667C6.95333 16.71 8.42667 17.1433 10.0033 17.1433C11.58 17.1433 13.0533 16.71 14.3233 15.9667L10.2733 10.6867C10.1833 10.7 10.0933 10.7133 10 10.7133ZM11.43 14.6433C11.43 15.2367 10.95 15.7133 10.36 15.7133C9.76667 15.7133 9.29 15.2333 9.29 14.6433C9.29 14.0533 9.77 13.5733 10.36 13.5733C10.95 13.57 11.43 14.05 11.43 14.6433Z" fill="#141414"/>
<path d="M8.24 9.19C8.22667 9.10333 8.21333 9.01667 8.21333 8.92667C8.21333 7.94 9.01333 7.14 10 7.14C10.9867 7.14 11.7867 7.94 11.7867 8.92667C11.7867 9.01667 11.7733 9.10333 11.76 9.19L16.0067 14.68C17.5867 13.1267 18.57 10.9633 18.57 8.57C18.57 3.83667 14.7333 0 10 0C5.26667 0 1.43 3.83667 1.43 8.57C1.43 10.9633 2.41333 13.1233 3.99333 14.68L8.24 9.19ZM13.57 3.21333C14.1633 3.21333 14.64 3.69333 14.64 4.28333C14.64 4.87333 14.16 5.35333 13.57 5.35333C12.9767 5.35333 12.5 4.87333 12.5 4.28333C12.5 3.69333 12.98 3.21333 13.57 3.21333ZM6.78667 3.21333C7.38 3.21333 7.85667 3.69333 7.85667 4.28333C7.85667 4.87333 7.37667 5.35333 6.78667 5.35333C6.19333 5.35333 5.71667 4.87333 5.71667 4.28333C5.71667 3.69333 6.19333 3.21333 6.78667 3.21333ZM6.43 7.85667C7.02333 7.85667 7.5 8.33667 7.5 8.92667C7.5 9.51667 7.02 10 6.43 10C5.83667 10 5.36 9.52 5.36 8.93C5.36 8.34 5.83667 7.85667 6.43 7.85667ZM3.93 6.07C4.52333 6.07 5 6.55 5 7.14C5 7.73 4.52 8.21 3.93 8.21C3.33667 8.21 2.86 7.73 2.86 7.14C2.86 6.55 3.33667 6.07 3.93 6.07ZM2.85667 10.7133C2.85667 10.12 3.33667 9.64333 3.92667 9.64333C4.52 9.64333 4.99667 10.1233 4.99667 10.7133C4.99667 11.3033 4.51667 11.7833 3.92667 11.7833C3.33667 11.7867 2.85667 11.3067 2.85667 10.7133Z" fill="white"/>
</svg>
