<svg width="26" height="26" viewBox="0 0 26 26" fill="none" xmlns="http://www.w3.org/2000/svg">
<path d="M25.0727 24.141H23.5517L13.3683 10.8593C13.1907 10.6297 12.8093 10.6297 12.6317 10.8593L2.44833 24.141H0.927333C0.416 24.141 0 24.557 0 25.0683C0 25.5797 0.416 25.9957 0.927333 25.9957H3.71367C4.225 25.9957 4.641 25.5797 4.641 25.0683C4.641 24.557 4.225 24.141 3.71367 24.141H3.61833L13 11.908L22.3817 24.1453H22.2863C21.775 24.1453 21.359 24.5613 21.359 25.0727C21.359 25.584 21.775 26 22.2863 26H25.0727C25.584 26 26 25.584 26 25.0727C26 24.557 25.584 24.141 25.0727 24.141Z" fill="#141414"/>
<path d="M13 13.9273C12.8787 13.9273 12.7617 13.91 12.6447 13.8927L9.81067 17.5933C10.0577 17.8447 10.2137 18.1913 10.2137 18.5727C10.2137 19.344 9.58967 19.9637 8.82267 19.9637C8.57133 19.9637 8.34167 19.89 8.138 19.7773L7.38833 20.7567C9.03933 21.723 10.9547 22.2863 13.0043 22.2863C15.054 22.2863 16.9693 21.723 18.6203 20.7567L13.3553 13.8927C13.2383 13.91 13.1213 13.9273 13 13.9273ZM14.859 19.0363C14.859 19.8077 14.235 20.4273 13.468 20.4273C12.6967 20.4273 12.077 19.8033 12.077 19.0363C12.077 18.2693 12.701 17.6453 13.468 17.6453C14.235 17.641 14.859 18.265 14.859 19.0363Z" fill="#141414"/>
<path d="M10.712 11.947C10.6947 11.8343 10.6773 11.7217 10.6773 11.6047C10.6773 10.322 11.7173 9.282 13 9.282C14.2827 9.282 15.3227 10.322 15.3227 11.6047C15.3227 11.7217 15.3053 11.8343 15.288 11.947L20.8087 19.084C22.8627 17.0647 24.141 14.2523 24.141 11.141C24.141 4.98767 19.1533 0 13 0C6.84666 0 1.85899 4.98767 1.85899 11.141C1.85899 14.2523 3.13733 17.0603 5.19133 19.084L10.712 11.947ZM17.641 4.17733C18.4123 4.17733 19.032 4.80133 19.032 5.56833C19.032 6.33533 18.408 6.95933 17.641 6.95933C16.8697 6.95933 16.25 6.33533 16.25 5.56833C16.25 4.80133 16.874 4.17733 17.641 4.17733ZM8.82266 4.17733C9.59399 4.17733 10.2137 4.80133 10.2137 5.56833C10.2137 6.33533 9.58966 6.95933 8.82266 6.95933C8.05133 6.95933 7.43166 6.33533 7.43166 5.56833C7.43166 4.80133 8.05133 4.17733 8.82266 4.17733ZM8.35899 10.2137C9.13033 10.2137 9.74999 10.8377 9.74999 11.6047C9.74999 12.3717 9.12599 13 8.35899 13C7.58766 13 6.96799 12.376 6.96799 11.609C6.96799 10.842 7.58766 10.2137 8.35899 10.2137ZM5.10899 7.891C5.88033 7.891 6.49999 8.515 6.49999 9.282C6.49999 10.049 5.87599 10.673 5.10899 10.673C4.33766 10.673 3.71799 10.049 3.71799 9.282C3.71799 8.515 4.33766 7.891 5.10899 7.891ZM3.71366 13.9273C3.71366 13.156 4.33766 12.5363 5.10466 12.5363C5.87599 12.5363 6.49566 13.1603 6.49566 13.9273C6.49566 14.6943 5.87166 15.3183 5.10466 15.3183C4.33766 15.3227 3.71366 14.6987 3.71366 13.9273Z" fill="#E50A14"/>
</svg>
