<svg width="80" height="80" viewBox="0 0 80 80" fill="none" xmlns="http://www.w3.org/2000/svg">
<path d="M77.4193 40C77.4193 43.178 77.0197 46.2639 76.2705 49.2121L61.7083 45.3103C62.1247 43.6075 62.3475 41.8296 62.3475 40C62.3475 38.1705 62.1255 36.3924 61.7083 34.6898L76.2705 30.7879C77.0197 33.7361 77.4193 36.822 77.4193 40ZM2.58276 40C2.58276 36.822 2.98231 33.7361 3.73148 30.7879L18.2938 34.6898C17.8773 36.3925 17.6545 38.1705 17.6545 40C17.6545 41.8296 17.8773 43.6076 18.2938 45.3103L3.73148 49.2121C2.98231 46.2639 2.58276 43.178 2.58276 40ZM55.4445 23.8633C52.885 21.4129 49.7454 19.5643 46.2554 18.5454L50.1573 3.98309C56.2367 5.69966 61.6915 8.91921 66.0965 13.2113L55.4445 23.8633ZM33.746 18.5454C30.256 19.5642 27.1164 21.4129 24.5569 23.8641L13.9049 13.2121C18.3101 8.92 23.7648 5.70033 29.8441 3.98388L33.746 18.5454ZM24.5569 56.1377C27.1164 58.5881 30.256 60.4367 33.746 61.4564L29.8441 76.0187C23.7648 74.3021 18.3099 71.0826 13.9049 66.7897L24.5569 56.1377ZM46.2574 61.4556C49.7474 60.4368 52.887 58.5881 55.4465 56.1377L66.0985 66.7897C61.6933 71.0818 56.2386 74.3015 50.1593 76.0179L46.2574 61.4556Z" fill="#E50A14"/>
<path d="M58.3742 14.173C58.3719 14.0877 58.3665 14.0024 58.3573 13.9179C58.3535 13.8856 58.3481 13.8533 58.3435 13.8211C58.3358 13.7658 58.3266 13.7104 58.3158 13.6559C58.3074 13.6136 58.2989 13.5706 58.2889 13.5291C58.2774 13.4807 58.2636 13.4323 58.2497 13.3846C58.229 13.3109 58.2052 13.2379 58.1791 13.1656C58.1691 13.1388 58.1598 13.1119 58.1491 13.085C58.0799 12.9075 57.9946 12.7369 57.8955 12.574C57.8917 12.5678 57.8878 12.5617 57.884 12.5555C57.4737 11.8924 56.829 11.3699 56.0222 11.1348C54.341 10.6453 52.586 11.5682 52.022 13.2063C52.0043 13.257 51.9844 13.3054 51.9698 13.3577C51.4649 15.0911 52.4592 16.9106 54.1927 17.4155C55.9262 17.9204 57.7403 16.9214 58.2453 15.188C58.2737 15.092 58.296 14.9959 58.3144 14.8999C58.319 14.8761 58.3236 14.8515 58.3282 14.8277C58.3444 14.7339 58.3582 14.6394 58.3659 14.5464C58.3667 14.5334 58.3667 14.5203 58.3682 14.5072C58.3743 14.4258 58.3766 14.3459 58.3759 14.2652C58.3751 14.2337 58.3751 14.2037 58.3743 14.173L58.3742 14.173Z" fill="#141414"/>
<path d="M50.1146 47.9079C49.9955 47.8895 49.8741 47.8757 49.7504 47.8757C49.5706 47.8757 49.3962 47.8972 49.2279 47.9341L48.9782 47.6843L43.1946 41.8937L43.1047 41.8031C43.6587 40.7243 43.7102 39.4556 43.2584 38.343C43.2292 38.2685 43.1939 38.1955 43.1593 38.1225L43.2523 38.0303L49.0405 32.2497L49.2027 32.0876C49.9357 32.2067 50.7133 31.9885 51.281 31.4237C52.1424 30.5624 52.2085 29.2076 51.4854 28.268C51.424 28.1865 51.3556 28.1058 51.281 28.0321C50.3459 27.0947 48.8262 27.0947 47.8902 28.0305C47.7312 28.1896 47.6021 28.364 47.4968 28.55C47.2279 29.031 47.138 29.585 47.2241 30.1151L47.0658 30.2742L41.259 36.0731L41.1807 36.1514C40.0235 35.6082 38.6666 35.6274 37.5255 36.2145L37.4924 36.1814L31.7103 30.3916L31.5858 30.2671C31.7149 29.6209 31.5781 28.9324 31.1724 28.3784C31.101 28.2808 31.0249 28.1856 30.9381 28.098C30.0022 27.1621 28.4816 27.159 27.5457 28.0949C27.4112 28.2294 27.299 28.3754 27.2038 28.5283C26.6298 29.4541 26.7412 30.6851 27.5441 31.4881C28.1343 32.0782 28.9572 32.2964 29.7201 32.1412L29.8407 32.2618L35.6428 38.0715L35.6789 38.1076C35.1387 39.2287 35.1326 40.5403 35.6574 41.6668L35.5828 41.7406L29.7377 47.578L29.5556 47.7601C29.5141 47.7555 29.4726 47.7486 29.4311 47.7463C28.778 47.7148 28.1141 47.9438 27.6147 48.4432C26.9324 49.1232 26.7472 50.1121 27.0592 50.9628C27.1736 51.2809 27.3573 51.5783 27.6116 51.8334C28.549 52.7708 30.0665 52.7708 31.004 51.8365C31.6056 51.2348 31.82 50.3942 31.6479 49.6204L31.787 49.4813L37.5406 43.7353L37.6259 43.6501C38.7569 44.1925 40.0815 44.1925 41.2126 43.6493L41.3071 43.7438L47.0877 49.532L47.3935 49.8379C47.3674 49.9792 47.352 50.1237 47.352 50.2728C47.352 50.4633 47.3766 50.6446 47.4166 50.8214C47.6655 51.8825 48.6152 52.674 49.7501 52.674C50.7075 52.674 51.5381 52.1115 51.9199 51.2955C52.0675 50.9874 52.1489 50.6416 52.1489 50.2774C52.1489 49.9132 52.0675 49.5666 51.9199 49.257C51.5842 48.547 50.9141 48.0306 50.1142 47.9077L50.1146 47.9079Z" fill="#E50A14"/>
<path d="M40 0C17.9434 0 0 17.944 0 40C0 62.056 17.944 80 40 80C62.056 80 80 62.056 80 40C80 17.944 62.056 0 40 0V0ZM77.4192 40C77.4192 43.178 77.0197 46.2639 76.2705 49.2121L61.7082 45.3102C62.1247 43.6075 62.3475 41.8296 62.3475 40C62.3475 38.1704 62.1255 36.3924 61.7082 34.6897L76.2705 30.7879C77.0197 33.7361 77.4192 36.822 77.4192 40ZM2.58274 40C2.58274 36.822 2.98229 33.7361 3.73146 30.7879L18.2937 34.6897C17.8773 36.3925 17.6545 38.1704 17.6545 40C17.6545 41.8296 17.8773 43.6076 18.2937 45.3102L3.73146 49.2121C2.98229 46.2639 2.58274 43.178 2.58274 40ZM57.7881 35.0202C57.7904 35.0287 57.7927 35.0379 57.7957 35.0463C57.8557 35.2607 57.9118 35.4766 57.964 35.6941C58.2952 37.0772 58.4758 38.5172 58.4758 40.0002C58.4758 41.4831 58.2952 42.9238 57.964 44.307C57.9125 44.5237 57.8557 44.7388 57.7965 44.9524C57.7934 44.9624 57.7904 44.9732 57.7881 44.9832C57.546 45.8461 57.2433 46.6836 56.8837 47.4912C56.8837 47.4912 56.8837 47.4919 56.8829 47.4919C56.6117 48.1005 56.3081 48.6922 55.9754 49.2646C55.9747 49.2661 55.9739 49.2669 55.9731 49.2684C55.0826 50.796 53.9799 52.1852 52.7045 53.3953C50.6198 55.3732 48.0774 56.8707 45.2519 57.7098C44.8762 57.822 44.495 57.9204 44.1101 58.008C44.0555 58.0203 44.0018 58.0333 43.9464 58.0456C43.7828 58.081 43.6183 58.114 43.4531 58.1455C43.3463 58.1655 43.2395 58.1847 43.1327 58.2031C42.9898 58.2277 42.8461 58.2531 42.7017 58.2746C42.4619 58.3099 42.2214 58.3407 41.9786 58.3668C41.881 58.3776 41.7827 58.3852 41.6843 58.3937C41.493 58.4114 41.3017 58.426 41.1088 58.4375C41.0189 58.4429 40.929 58.4483 40.8391 58.4521C40.5609 58.4652 40.282 58.4736 40.0008 58.4736C39.7196 58.4736 39.4406 58.4652 39.1625 58.4521C39.0726 58.4483 38.9827 58.4429 38.8936 58.4375C38.7007 58.426 38.5086 58.4114 38.3173 58.3937C38.2189 58.3845 38.1206 58.3768 38.023 58.3668C37.7809 58.3407 37.5397 58.3099 37.2999 58.2746C37.1555 58.2531 37.0126 58.2277 36.8689 58.2031C36.7621 58.1847 36.6553 58.1663 36.5492 58.1455C36.384 58.114 36.2188 58.081 36.0552 58.0448C36.0021 58.0333 35.9491 58.0203 35.8961 58.008C35.5096 57.9196 35.1262 57.8205 34.7497 57.7083C31.9244 56.8692 29.3818 55.3709 27.2971 53.3924C26.6601 52.7877 26.0662 52.1384 25.5199 51.4499C25.5191 51.4492 25.5183 51.4476 25.5176 51.4469C24.972 50.7592 24.4749 50.0307 24.0307 49.2685C24.0292 49.2655 24.0277 49.2624 24.0254 49.2593C23.6934 48.69 23.3914 48.0998 23.121 47.4936C23.1202 47.4913 23.1187 47.4897 23.1179 47.4874C23.028 47.2854 22.9412 47.081 22.8582 46.875C22.8574 46.8735 22.8574 46.872 22.8566 46.8712C22.61 46.2573 22.3948 45.6264 22.2143 44.9825C22.2112 44.9717 22.2081 44.961 22.2051 44.951C22.1459 44.7374 22.0898 44.5222 22.0376 44.3056C21.7056 42.9225 21.5258 41.4819 21.5258 39.9987C21.5258 38.5157 21.7064 37.0751 22.0376 35.6919C22.089 35.4752 22.1451 35.26 22.2051 35.0464C22.2081 35.0357 22.2112 35.0257 22.2143 35.0149C22.3949 34.3703 22.6092 33.7402 22.8566 33.1262C22.8574 33.1247 22.8582 33.1232 22.859 33.1216C22.9419 32.9157 23.028 32.7121 23.1179 32.51C23.1187 32.5077 23.1202 32.5054 23.121 32.5023C23.3907 31.8968 23.6934 31.3075 24.0246 30.7381C24.0269 30.7343 24.0284 30.7304 24.0307 30.7273C24.4749 29.9659 24.9712 29.239 25.516 28.5514C25.5176 28.5498 25.5191 28.5483 25.5199 28.546C26.0654 27.8575 26.6594 27.209 27.2956 26.6043C29.3816 24.6243 31.9266 23.1258 34.7542 22.2868C35.1277 22.1762 35.5065 22.0786 35.8884 21.991C35.9445 21.9779 35.999 21.9649 36.0551 21.9526C36.218 21.9172 36.3824 21.8842 36.5469 21.8527C36.6544 21.8319 36.762 21.8135 36.8696 21.7951C37.0125 21.7705 37.1547 21.7451 37.2991 21.7236C37.5389 21.6883 37.7801 21.6575 38.0229 21.6314C38.1205 21.6206 38.2189 21.6137 38.3165 21.6045C38.5078 21.5868 38.6999 21.5722 38.8927 21.5607C38.9819 21.5553 39.0718 21.55 39.1617 21.5461C39.4398 21.533 39.7187 21.5246 40 21.5246C40.2812 21.5246 40.5601 21.533 40.8383 21.5461C40.9282 21.55 41.0181 21.5553 41.1072 21.5607C41.3001 21.5722 41.4922 21.5876 41.6835 21.6045C41.7811 21.6137 41.8794 21.6214 41.977 21.6314C42.2198 21.6575 42.4611 21.6883 42.7008 21.7236C42.8445 21.7451 42.9874 21.7697 43.1304 21.7951C43.2379 21.8135 43.3463 21.8327 43.4531 21.8527C43.6175 21.8842 43.7819 21.9165 43.9448 21.9526C44.0009 21.9649 44.0555 21.9787 44.1116 21.991C44.4942 22.0786 44.873 22.1762 45.2457 22.2868C48.0726 23.1259 50.6167 24.6235 52.7028 26.6027C53.3406 27.2082 53.9353 27.8583 54.4824 28.5475H54.4831C55.0294 29.2367 55.5274 29.9652 55.9722 30.729C55.973 30.7313 55.9746 30.7328 55.9753 30.7343C56.308 31.306 56.6115 31.8969 56.882 32.5055C56.882 32.5062 56.8828 32.5062 56.8828 32.507C56.9735 32.7098 57.0603 32.915 57.144 33.1225C57.3907 33.741 57.6066 34.3734 57.7879 35.0204L57.7881 35.0202ZM55.4445 23.8633C52.885 21.4129 49.7454 19.5643 46.2554 18.5454L50.1573 3.98308C56.2366 5.69965 61.6915 8.9192 66.0965 13.2113L55.4445 23.8633ZM33.746 18.5454C30.256 19.5642 27.1164 21.4129 24.5569 23.8641L13.9049 13.2121C18.3101 8.91999 23.7647 5.70032 29.8441 3.98387L33.746 18.5454ZM24.5569 56.1377C27.1164 58.588 30.256 60.4367 33.746 61.4564L29.8441 76.0187C23.7647 74.3021 18.3099 71.0826 13.9049 66.7897L24.5569 56.1377ZM46.2574 61.4556C49.7473 60.4367 52.8869 58.588 55.4465 56.1377L66.0985 66.7897C61.6932 71.0818 56.2386 74.3015 50.1592 76.0179L46.2574 61.4556Z" fill="#141414"/>
</svg>
