<svg width="26" height="26" viewBox="0 0 26 26" fill="none" xmlns="http://www.w3.org/2000/svg">
<path d="M9.82222 0H0.577778C0.25897 0 0 0.25897 0 0.577778V9.82222C0 10.141 0.25897 10.4 0.577778 10.4H9.82222C10.141 10.4 10.4 10.141 10.4 9.82222V0.577778C10.4 0.25897 10.141 0 9.82222 0Z" fill="#141414"/>
<path d="M22.0209 20.7985L25.744 17.0841C25.907 16.921 25.9986 16.6999 25.9986 16.4693C25.9986 16.2388 25.907 16.0176 25.744 15.8546C25.5809 15.6916 25.3598 15.6 25.1292 15.6C24.8987 15.6 24.6775 15.6916 24.5145 15.8546L20.8001 19.5777L17.0857 15.8546C16.9226 15.6916 16.7015 15.6 16.4709 15.6C16.2404 15.6 16.0192 15.6916 15.8562 15.8546C15.6932 16.0176 15.6016 16.2388 15.6016 16.4693C15.6016 16.6999 15.6932 16.921 15.8562 17.0841L19.5793 20.7985L15.8562 24.5129C15.7751 24.5934 15.7106 24.6892 15.6667 24.7947C15.6227 24.9002 15.6001 25.0133 15.6001 25.1276C15.6001 25.2419 15.6227 25.3551 15.6667 25.4606C15.7106 25.5661 15.7751 25.6619 15.8562 25.7424C15.9367 25.8235 16.0325 25.888 16.138 25.9319C16.2435 25.9759 16.3566 25.9985 16.4709 25.9985C16.5852 25.9985 16.6984 25.9759 16.8039 25.9319C16.9094 25.888 17.0052 25.8235 17.0857 25.7424L20.8001 22.0193L24.5145 25.7424C24.595 25.8235 24.6908 25.888 24.7963 25.9319C24.9018 25.9759 25.0149 25.9985 25.1292 25.9985C25.2435 25.9985 25.3567 25.9759 25.4622 25.9319C25.5677 25.888 25.6635 25.8235 25.744 25.7424C25.8251 25.6619 25.8896 25.5661 25.9335 25.4606C25.9775 25.3551 26.0001 25.2419 26.0001 25.1276C26.0001 25.0133 25.9775 24.9002 25.9335 24.7947C25.8896 24.6892 25.8251 24.5934 25.744 24.5129L22.0209 20.7985Z" fill="#141414"/>
<path d="M20.8001 10.4C23.6676 10.4 26.0001 8.06697 26.0001 5.2C26.0001 2.33303 23.6676 0 20.8001 0C17.9326 0 15.6001 2.33303 15.6001 5.2C15.6001 8.06697 17.9326 10.4 20.8001 10.4Z" fill="#E50A14"/>
<path d="M5.71667 15.8946C5.5209 15.5018 4.87885 15.5018 4.68313 15.8946L0.060862 25.1619C-0.028645 25.3414 -0.0188392 25.5547 0.086398 25.7256C0.191376 25.8963 0.376836 26 0.577257 26H9.82179C10.0222 26 10.2077 25.8958 10.3134 25.7249C10.4192 25.5539 10.4285 25.3409 10.339 25.1612L5.71667 15.8946Z" fill="#E50A14"/>
</svg>
