<svg width="80" height="80" viewBox="0 0 80 80" fill="none" xmlns="http://www.w3.org/2000/svg">
<path d="M46.8101 63.5302V4.24624C46.8086 3.12051 46.3396 2.04128 45.506 1.24527C44.6724 0.449248 43.5423 0.00142065 42.3634 0H4.44666C3.26781 0.00148508 2.13769 0.449333 1.30411 1.24534C0.470541 2.04134 0.00155517 3.12053 0 4.24624V63.5302C0.00155517 64.6559 0.470541 65.7351 1.30411 66.5311C2.13769 67.3271 3.26781 67.7749 4.44666 67.7764H42.3626C43.5416 67.7752 44.672 67.3274 45.5057 66.5314C46.3395 65.7354 46.8086 64.656 46.8101 63.5302Z" fill="#141414"/>
<path d="M30.2807 28.6275C28.0163 27.1091 25.5647 25.1253 24.2892 24.064C24.0442 23.8597 23.7299 23.747 23.4046 23.747C23.0793 23.747 22.765 23.8597 22.52 24.064C21.2446 25.1248 18.793 27.1086 16.5285 28.6275C15.4746 29.3198 14.6313 30.266 14.0842 31.3702C13.5371 32.4744 13.3057 33.6972 13.4136 34.9144C13.4243 35.0203 13.4374 35.1277 13.4529 35.2365C13.5467 35.9855 13.8033 36.7075 14.2063 37.3562C14.6093 38.005 15.1497 38.5662 15.7931 39.004C16.521 39.5037 17.3873 39.787 18.2833 39.8184C19.1792 39.8498 20.0649 39.6278 20.8293 39.1804C21.0593 39.0469 21.2982 38.8932 21.541 38.7216V41.65C21.541 42.1271 21.0485 42.9517 20.6156 43.5843C20.5573 43.6695 20.5242 43.7683 20.5198 43.87C20.5154 43.9718 20.5399 44.0727 20.5907 44.1623C20.6415 44.2518 20.7167 44.3266 20.8084 44.3786C20.9001 44.4307 21.0048 44.4581 21.1114 44.4579H25.6979C25.8045 44.4581 25.9092 44.4307 26.0009 44.3786C26.0925 44.3266 26.1677 44.2518 26.2186 44.1623C26.2694 44.0727 26.2939 43.9718 26.2895 43.87C26.2851 43.7683 26.252 43.6695 26.1936 43.5843C25.7607 42.9517 25.2685 42.1271 25.2685 41.65V38.7216C25.511 38.8924 25.75 39.0469 25.9802 39.1804C26.7446 39.6278 27.6302 39.8498 28.5261 39.8184C29.422 39.787 30.2883 39.5037 31.0162 39.004C31.6595 38.5662 32.2 38.0049 32.6029 37.3561C33.0059 36.7073 33.2624 35.9853 33.3561 35.2363C33.3718 35.1274 33.3849 35.02 33.3954 34.9141C33.5033 33.697 33.272 32.4743 32.725 31.3701C32.1779 30.266 31.3346 29.3197 30.2807 28.6275V28.6275Z" fill="#E50A14"/>
<path d="M12.4361 12.225C10.8928 9.42788 9.99988 6.24198 9.78138 5.40859C9.78568 5.21214 9.71891 5.02028 9.59234 4.86536C9.46576 4.71044 9.28712 4.60193 9.08653 4.55812C8.94517 4.5264 8.79804 4.5264 8.65669 4.55812C8.45605 4.60194 8.27738 4.71048 8.15079 4.86545C8.02421 5.02043 7.95748 5.21234 7.96183 5.40884C7.74333 6.24222 6.85093 9.42788 5.30712 12.225C5.0729 12.2326 4.85118 12.3278 4.68977 12.49C4.52836 12.6523 4.4402 12.8686 4.44429 13.0923C4.44838 13.3161 4.5444 13.5294 4.71164 13.6861C4.87888 13.8429 5.10395 13.9306 5.3383 13.9304H6.62809C6.81103 13.9311 6.98976 13.878 7.13999 13.7783C7.29022 13.6786 7.40467 13.5371 7.46778 13.3732C7.5309 13.2092 7.53963 13.0307 7.49277 12.8618C7.44592 12.6929 7.34576 12.5419 7.2059 12.4293C7.3347 12.1794 7.45839 11.9291 7.57696 11.6784H10.1663C10.2855 11.9285 10.4092 12.1788 10.5373 12.4293C10.3974 12.5419 10.2973 12.6929 10.2504 12.8618C10.2036 13.0307 10.2123 13.2093 10.2755 13.3733C10.3386 13.5373 10.4531 13.6787 10.6034 13.7784C10.7537 13.878 10.9324 13.9311 11.1154 13.9304H12.4052C12.6395 13.9305 12.8645 13.8428 13.0317 13.686C13.1989 13.5292 13.2949 13.316 13.2989 13.0922C13.303 12.8685 13.2148 12.6522 13.0534 12.49C12.892 12.3278 12.6703 12.2326 12.4361 12.225V12.225ZM8.1213 10.2383C8.40241 9.53965 8.65209 8.86733 8.87161 8.24113C9.09139 8.86733 9.34157 9.53965 9.62192 10.2383H8.1213Z" fill="#E50A14"/>
<path d="M41.471 53.8414H40.1812C39.9983 53.8407 39.8195 53.8938 39.6693 53.9935C39.5191 54.0932 39.4046 54.2346 39.3415 54.3986C39.2784 54.5626 39.2697 54.7411 39.3165 54.91C39.3634 55.0789 39.4635 55.2299 39.6034 55.3425C39.4746 55.5924 39.3508 55.8427 39.2321 56.0934H36.643C36.5238 55.843 36.4 55.5927 36.2717 55.3425C36.4116 55.2299 36.5117 55.0789 36.5586 54.91C36.6054 54.7411 36.5967 54.5626 36.5336 54.3986C36.4705 54.2346 36.356 54.0932 36.2058 53.9935C36.0556 53.8938 35.8768 53.8407 35.6939 53.8414H34.4039C34.1695 53.8412 33.9445 53.929 33.7773 54.0858C33.6101 54.2426 33.5142 54.4558 33.5101 54.6796C33.5061 54.9033 33.5942 55.1196 33.7556 55.2818C33.917 55.444 34.1387 55.5392 34.3729 55.5467C35.9165 58.3439 36.8092 61.5295 37.0277 62.3629C37.0234 62.5594 37.0901 62.7512 37.2167 62.9062C37.3433 63.0611 37.5219 63.1696 37.7225 63.2134C37.8639 63.2451 38.011 63.2451 38.1524 63.2134C38.3529 63.1696 38.5316 63.0611 38.6582 62.9062C38.7847 62.7512 38.8515 62.5594 38.8472 62.3629C39.0657 61.5293 39.9581 58.3439 41.5019 55.5467C41.7361 55.5392 41.9578 55.444 42.1193 55.2818C42.2807 55.1195 42.3688 54.9032 42.3647 54.6794C42.3607 54.4557 42.2646 54.2424 42.0974 54.0856C41.9301 53.9289 41.7051 53.8412 41.4707 53.8414H41.471ZM37.9377 59.5306C37.7179 58.9044 37.4677 58.2319 37.1871 57.5334H38.688C38.4076 58.2319 38.1572 58.9044 37.9377 59.5306Z" fill="#E50A14"/>
<path d="M77.9298 26.0351L49.6143 10.5463C49.5372 10.5041 49.4498 10.482 49.3609 10.4821C49.2721 10.4823 49.1848 10.5048 49.1079 10.5474C49.031 10.5899 48.9671 10.651 48.9228 10.7245C48.8784 10.7981 48.855 10.8814 48.855 10.9663V11.3692C48.8551 11.5912 48.9166 11.8093 49.0333 12.0014C49.15 12.1934 49.3177 12.3527 49.5195 12.463L77.0428 27.5179C77.5779 27.8105 77.9694 28.294 78.1312 28.8622C78.2931 29.4304 78.212 30.0367 77.9058 30.5478L49.9618 77.175C49.6559 77.6854 49.1504 78.059 48.5563 78.214C47.9623 78.3689 47.3281 78.2925 46.7929 78.0016L32.4307 70.0604C32.0389 69.8437 31.594 69.7296 31.1412 69.7297H30.1062C29.9972 69.7297 29.8913 69.764 29.8049 69.8274C29.7184 69.8907 29.6562 69.9795 29.628 70.0799C29.5997 70.1804 29.6069 70.287 29.6485 70.3832C29.6901 70.4794 29.7638 70.5597 29.8581 70.6119L45.9011 79.4819C46.8482 79.9988 47.9715 80.1356 49.0241 79.8622C50.0768 79.5887 50.9727 78.9274 51.5151 78.0235L79.4567 31.3961C79.9986 30.4918 80.1421 29.419 79.8558 28.4137C79.5694 27.4083 78.8766 26.5527 77.9298 26.0351V26.0351Z" fill="#E50A14"/>
<path d="M39.5249 69.7297C39.3781 69.7297 39.2355 69.7763 39.1194 69.8621C39.0033 69.948 38.9204 70.0682 38.8836 70.2039C38.8468 70.3396 38.8583 70.4831 38.9162 70.612C38.974 70.7408 39.0751 70.8476 39.2034 70.9157L45.8118 74.4437C46.3611 74.7435 47.0124 74.8228 47.6228 74.6642C48.2332 74.5057 48.7528 74.1222 49.0674 73.5981L74.2766 31.5352C74.4322 31.2755 74.5327 30.9891 74.5724 30.6924C74.6121 30.3956 74.5901 30.0943 74.5079 29.8057C74.4256 29.517 74.2846 29.2466 74.0929 29.01C73.9012 28.7734 73.6625 28.5752 73.3906 28.4266L50.7522 16.0576C50.5617 15.9549 50.3463 15.9017 50.1276 15.9032C49.9088 15.9047 49.6942 15.9609 49.5053 16.0662C49.3163 16.1716 49.1596 16.3223 49.0506 16.5035C48.9417 16.6847 48.8844 16.89 48.8844 17.0989L48.8545 63.5302C48.8545 64.3442 48.6866 65.1502 48.3604 65.9022C48.0342 66.6543 47.556 67.3376 46.9533 67.9132C46.3505 68.4888 45.635 68.9454 44.8474 69.2569C44.0599 69.5684 43.2158 69.7287 42.3634 69.7287L39.5249 69.7297Z" fill="#E50A14"/>
</svg>
