<svg width="80" height="80" viewBox="0 0 80 80" fill="none" xmlns="http://www.w3.org/2000/svg">
<g clip-path="url(#clip0_1401_11440)">
<path d="M27.1106 34.4357C24.2953 33.8036 21.7522 35.2464 20.649 37.5143C19.2915 36.6893 18.2349 35.4393 17.6689 33.9357C19.8897 33.15 21.4907 31.0571 21.4907 28.5714C21.4907 25.4143 18.9261 22.8571 15.7598 22.8571C12.5935 22.8571 10.0289 25.4143 10.0289 28.5714C10.0289 31.0571 11.6299 33.15 13.8507 33.9357C13.2848 35.4393 12.2281 36.6893 10.8706 37.5143C9.76381 35.2464 7.22429 33.8036 4.40897 34.4357C2.28852 34.9107 0.558498 36.675 0.125096 38.8C-0.634253 42.4786 2.16674 45.7143 5.72709 45.7143C7.99797 45.7143 9.9429 44.3857 10.8706 42.4786C11.1858 42.6714 11.4831 42.8857 11.7625 43.125C13.7504 44.8143 14.3163 47.6571 13.5641 50.1536L11.458 57.1429H20.0544L17.9519 50.15C17.1997 47.6572 17.7656 44.8107 19.7535 43.1214C20.0329 42.8857 20.3302 42.6679 20.6454 42.475C21.5731 44.3857 23.5181 45.7107 25.7889 45.7107C29.3493 45.7107 32.1503 42.475 31.3981 38.7929C30.9575 36.675 29.2311 34.9107 27.1106 34.4357Z" fill="#141414"/>
<path d="M64.4692 22.8571C64.4692 22.8571 48.9383 36.9643 48.9383 41.2571C48.9383 44.8821 52.5202 47.6 56.0733 48.3429C56.7037 48.5143 57.3628 48.5714 58.0219 48.5714C59.3973 48.5714 60.6867 48.2857 61.8616 47.7143C62.6926 49.3143 62.2628 50.1429 62.2628 50.1429L60.171 57.1429H68.7674L66.6756 50.1429C66.6756 50.1429 66.2458 49.3143 67.0767 47.7143C68.2516 48.2857 69.541 48.5714 70.9165 48.5714C71.5755 48.5714 72.2346 48.5143 72.865 48.3429C76.4182 47.6 80 44.8821 80 41.2571C80 36.9643 64.4692 22.8571 64.4692 22.8571Z" fill="#141414"/>
<path d="M56.4674 16.725C49.5723 13.2857 43.9775 7.71071 40.5318 0.835714L40.1127 0L39.6936 0.835714C36.2443 7.71071 30.6531 13.2893 23.758 16.725L22.9199 17.1429L23.758 17.5607C30.6531 21 36.2479 26.575 39.6936 33.45L40.1127 34.2857L40.5318 33.45C43.9811 26.575 49.5723 20.9964 56.4674 17.5607L57.3055 17.1429L56.4674 16.725Z" fill="#E50A14"/>
<path d="M57.3055 58.5714H57.1622C56.4602 53.7321 52.3268 50 47.2764 50C44.4646 50 41.9323 51.1607 40.1127 53.0143C38.2931 51.1571 35.7608 50 32.949 50C27.9022 50 23.7652 53.7321 23.0632 58.5714H22.9199L23.0488 58.7321C22.9951 59.1536 22.9199 59.5679 22.9199 60C22.9199 63.4679 24.6965 66.5036 27.3936 68.2821C31.3265 70.8786 35.0838 73.7286 38.0281 77.4L40.1127 80L42.1973 77.4C45.1416 73.7286 48.8989 70.8786 52.8318 68.2821C55.5253 66.5036 57.3055 63.4679 57.3055 60C57.3055 59.5643 57.2303 59.15 57.1766 58.7321L57.3055 58.5714Z" fill="#E50A14"/>
</g>
<defs>
<clipPath id="clip0_1401_11440">
<rect width="80" height="80" fill="white"/>
</clipPath>
</defs>
</svg>
