<svg width="50" height="50" viewBox="0 0 50 50" fill="none" xmlns="http://www.w3.org/2000/svg">
<g clip-path="url(#clip0_1398_23037)">
<path fill-rule="evenodd" clip-rule="evenodd" d="M20.5245 3.54639L7.51046 9.75144C6.86562 10.0582 6.58879 10.8187 6.89396 11.4458L13.0671 24.1016C13.3725 24.7286 14.1519 24.9884 14.7966 24.6819L27.8107 18.4769C28.4555 18.17 28.7323 17.4096 28.4272 16.7825L22.2488 4.12811C21.9434 3.50108 21.1694 3.23988 20.5245 3.54639Z" fill="#141414"/>
<path fill-rule="evenodd" clip-rule="evenodd" d="M25.7707 16.6785C25.2689 18.0744 23.7048 18.8171 22.2884 18.3372C20.8678 17.864 20.1299 16.3484 20.6369 14.9512C21.1401 13.5607 22.6972 12.8141 24.1191 13.2924C25.5341 13.7672 26.2791 15.2866 25.7707 16.6785ZM16.7228 21.8544C15.3627 22.5034 13.7339 21.9577 13.0878 20.6353C12.4469 19.3114 13.0267 17.716 14.387 17.067C15.7471 16.418 17.3706 16.9651 18.0168 18.2875C18.663 19.6099 18.0842 21.2106 16.7228 21.8544ZM9.54285 11.5504C10.0498 10.1531 11.6087 9.41181 13.0304 9.89023C14.4454 10.365 15.1837 11.8804 14.682 13.2763C14.1735 14.6681 12.6161 15.4149 11.1997 14.935C9.77773 14.4567 9.03966 12.9408 9.54285 11.5504ZM18.596 6.37306C19.9561 5.7241 21.5796 6.2712 22.2257 7.59361C22.8719 8.91609 22.2921 10.5114 20.9321 11.1604C19.572 11.8094 17.9486 11.2623 17.3024 9.93985C16.6562 8.61737 17.2346 7.01685 18.596 6.37306Z" fill="#E50A14"/>
<path d="M23.8995 0.435883L8.31675 4.61128C6.48523 5.10203 5.39797 6.98523 5.88872 8.81675L10.0641 24.3995C10.5549 26.2311 12.4381 27.3183 14.2696 26.8276L29.8524 22.6522C31.6839 22.1614 32.7712 20.2782 32.2804 18.4467L28.105 2.86391C27.6135 1.02969 25.7311 -0.0548704 23.8995 0.435883Z" fill="#141414"/>
<path d="M21.7185 4.45316C22.6951 4.19148 23.7002 4.77175 23.9619 5.74838C24.2236 6.72501 23.6433 7.73007 22.6667 7.99176C21.69 8.25344 20.685 7.67317 20.4233 6.69654C20.1616 5.71991 20.7419 4.71485 21.7185 4.45316Z" fill="#E50A14"/>
<path d="M16.4518 22.8067C17.429 22.5449 18.0089 21.5405 17.747 20.5633C17.4852 19.5862 16.4808 19.0063 15.5037 19.2681C14.5265 19.5299 13.9466 20.5343 14.2085 21.5115C14.4703 22.4886 15.4747 23.0685 16.4518 22.8067Z" fill="#E50A14"/>
<path d="M19.5573 15.3985C20.5345 15.1367 21.1143 14.1323 20.8525 13.1551C20.5907 12.178 19.5863 11.5981 18.6091 11.8599C17.632 12.1217 17.0521 13.1261 17.3139 14.1033C17.5758 15.0804 18.5801 15.6603 19.5573 15.3985Z" fill="#E50A14"/>
<path d="M13.1628 10.5381C14.1399 10.2763 14.7198 9.27192 14.458 8.29476C14.1962 7.31761 13.1918 6.73772 12.2146 6.99955C11.2375 7.26138 10.6576 8.26577 10.9194 9.24293C11.1812 10.2201 12.1856 10.8 13.1628 10.5381Z" fill="#E50A14"/>
<path d="M25.9557 20.2579C24.9791 20.5196 23.9741 19.9393 23.7124 18.9627C23.4507 17.986 24.0309 16.981 25.0076 16.7193C25.9842 16.4576 26.9893 17.0379 27.251 18.0145C27.5126 18.9911 26.9324 19.9962 25.9557 20.2579Z" fill="#E50A14"/>
<path fill-rule="evenodd" clip-rule="evenodd" d="M15.8378 28.6768L1.353 31.3592C0.63546 31.4915 0.161149 32.1688 0.296504 32.8683L3.04213 46.9911C3.17778 47.6907 3.8783 48.1532 4.59558 48.0212L19.0804 45.3388C19.7979 45.2065 20.2722 44.5292 20.1369 43.8297L17.3857 29.7069C17.25 29.0073 16.5553 28.5448 15.8378 28.6768Z" fill="#141414"/>
<path fill-rule="evenodd" clip-rule="evenodd" d="M17.5442 43.0251C16.6799 44.2701 14.9398 44.5894 13.6688 43.7413C12.3919 42.8985 12.0644 41.2077 12.9343 39.9628C13.7986 38.7236 15.5329 38.3985 16.8097 39.2466C18.0806 40.0893 18.4141 41.7859 17.5442 43.0251ZM7.24585 45.7407C5.73195 46.0215 4.26875 45.0522 3.9808 43.5762C3.69836 42.1001 4.69247 40.679 6.20668 40.3982C7.72058 40.1174 9.17815 41.0866 9.46619 42.5626C9.75422 44.0386 8.75969 45.4653 7.24585 45.7407ZM2.88467 33.6727C3.75455 32.4277 5.48908 32.1084 6.76566 32.9565C8.03662 33.7992 8.36452 35.4901 7.5002 36.735C6.63032 37.9742 4.89578 38.2993 3.62482 37.4512C2.34793 36.6031 2.02037 34.9119 2.88467 33.6727ZM13.1886 30.9571C14.7025 30.6763 16.16 31.6456 16.4481 33.1216C16.7361 34.5976 15.742 36.0188 14.2281 36.2996C12.7142 36.5804 11.2567 35.6112 10.9686 34.1352C10.6806 32.6591 11.6747 31.2325 13.1886 30.9571Z" fill="#E50A14"/>
<path d="M19.9916 26.5H3.5084C1.57105 26.5 0 28.0711 0 30.0084L0 46.4916C0 48.4289 1.57105 50 3.5084 50H19.9916C21.9289 50 23.5 48.4289 23.5 46.4916V30.0084C23.5 28.0682 21.9289 26.5 19.9916 26.5Z" fill="#141414"/>
<path d="M16.7778 29.8882C17.8108 29.8882 18.6493 30.7267 18.6493 31.7597C18.6493 32.7928 17.8108 33.6312 16.7778 33.6312C15.7447 33.6312 14.9062 32.7928 14.9062 31.7597C14.9063 30.7267 15.7447 29.8882 16.7778 29.8882Z" fill="#E50A14"/>
<path d="M6.727 46.6088C7.76062 46.6088 8.59853 45.7709 8.59853 44.7373C8.59853 43.7036 7.76062 42.8657 6.727 42.8657C5.69338 42.8657 4.85547 43.7036 4.85547 44.7373C4.85547 45.7709 5.69338 46.6088 6.727 46.6088Z" fill="#E50A14"/>
<path d="M6.727 33.6312C7.76062 33.6312 8.59853 32.7933 8.59853 31.7597C8.59853 30.7261 7.76062 29.8882 6.727 29.8882C5.69338 29.8882 4.85547 30.7261 4.85547 31.7597C4.85547 32.7933 5.69338 33.6312 6.727 33.6312Z" fill="#E50A14"/>
<path d="M16.7778 46.6059C15.7447 46.6059 14.9062 45.7674 14.9062 44.7343C14.9062 43.7013 15.7447 42.8628 16.7778 42.8628C17.8108 42.8628 18.6493 43.7013 18.6493 44.7343C18.6493 45.7674 17.8108 46.6059 16.7778 46.6059Z" fill="#E50A14"/>
<path fill-rule="evenodd" clip-rule="evenodd" d="M41.6657 25.812L25.6926 26.424C24.9015 26.4537 24.2861 27.1066 24.3219 27.879L25.0584 43.4733C25.0946 44.2457 25.7743 44.852 26.5652 44.8226L42.5382 44.2106C43.3294 44.181 43.9447 43.528 43.909 42.7556L43.1665 27.1605C43.1304 26.388 42.4568 25.7827 41.6657 25.812Z" fill="#141414"/>
<path fill-rule="evenodd" clip-rule="evenodd" d="M41.2479 41.4856C40.1248 42.687 38.2064 42.7574 36.9746 41.6477C35.7355 40.5429 35.6486 38.676 36.7776 37.4755C37.8997 36.2803 39.8127 36.2028 41.0509 37.3134C42.2836 38.4173 42.376 40.2912 41.2479 41.4856ZM29.7648 42.7888C28.0953 42.8532 26.676 41.5833 26.5979 39.9534C26.5258 38.3242 27.8158 36.954 29.4856 36.8895C31.1551 36.8251 32.5684 38.0941 32.6466 39.724C32.7247 41.354 31.4334 42.7302 29.7648 42.7888ZM26.9718 29.1478C28.1008 27.9473 30.0132 27.876 31.2511 28.9866C32.4839 30.0905 32.5712 31.9574 31.4482 33.1588C30.3201 34.3532 28.4067 34.4306 27.1748 33.3209C25.9366 32.2103 25.8497 30.3431 26.9718 29.1478ZM38.4608 27.8456C40.1303 27.7811 41.5436 29.0501 41.6218 30.6801C41.6999 32.3101 40.4099 33.6804 38.7404 33.7449C37.0709 33.8093 35.6576 32.5403 35.5795 30.9103C35.5014 29.2803 36.7922 27.9042 38.4608 27.8456Z" fill="#E50A14"/>
<path d="M46.4659 24.1252L28.7671 21.544C26.6869 21.2406 24.754 22.6815 24.4506 24.7618L21.8694 42.4606C21.566 44.5408 23.0069 46.4737 25.0872 46.7771L42.7859 49.3583C44.8662 49.6617 46.7991 48.2208 47.1025 46.1405L49.6837 28.4418C49.9875 26.3585 48.5462 24.4286 46.4659 24.1252Z" fill="#E50A14"/>
<path d="M42.4861 27.2599C43.5954 27.4216 44.3644 28.4532 44.2026 29.5625C44.0408 30.6717 43.0092 31.4407 41.9 31.279C40.7907 31.1172 40.0217 30.0856 40.1835 28.9763C40.3453 27.8671 41.3769 27.0981 42.4861 27.2599Z" fill="#141414"/>
<path d="M29.0718 43.6398C30.1817 43.8017 31.2126 43.0332 31.3745 41.9233C31.5363 40.8135 30.7678 39.7826 29.658 39.6207C28.5481 39.4588 27.5172 40.2273 27.3554 41.3372C27.1935 42.447 27.962 43.4779 29.0718 43.6398Z" fill="#141414"/>
<path d="M35.482 37.4572C36.5918 37.619 37.6228 36.8506 37.7846 35.7407C37.9465 34.6309 37.178 33.6 36.0681 33.4381C34.9583 33.2762 33.9274 34.0447 33.7655 35.1546C33.6037 36.2644 34.3722 37.2953 35.482 37.4572Z" fill="#141414"/>
</g>
<defs>
<clipPath id="clip0_1398_23037">
<rect width="50" height="50" fill="white"/>
</clipPath>
</defs>
</svg>
