<svg width="80" height="80" viewBox="0 0 80 80" fill="none" xmlns="http://www.w3.org/2000/svg">
<path d="M66.9537 42.3044C66.9512 40.2734 65.2926 38.6278 63.2457 38.6253H61.988V13.3391C62.0131 11.7258 61.3517 10.1746 60.1641 9.07091C53.828 3.39072 42.7643 0 30.5731 0C18.3694 0 7.61134 3.40066 1.79385 9.09825C0.651398 10.2194 0.00501075 11.7457 0 13.3391V79.1299C0 79.6097 0.393344 80 0.876882 80H63.2457C65.2926 79.9975 66.9512 78.3519 66.9537 76.3209V42.3044ZM41.2886 8.82232C41.3412 8.76763 41.4139 8.73283 41.489 8.7204L44.0921 8.34504L45.2571 6.00584C45.3423 5.83432 45.5503 5.76471 45.7231 5.84923C45.7908 5.88403 45.8484 5.93872 45.881 6.00584L47.0435 8.34504L49.644 8.7204C49.8345 8.74775 49.9672 8.92424 49.9397 9.11317C49.9297 9.18774 49.8921 9.25735 49.8395 9.30955L47.9554 11.1317L48.3989 13.7021C48.4314 13.891 48.3037 14.07 48.1133 14.1023C48.0381 14.1147 47.9604 14.1023 47.8928 14.0675L45.5653 12.8544L43.2378 14.0675C43.0674 14.157 42.857 14.0923 42.7668 13.9233C42.7317 13.8562 42.7192 13.7791 42.7317 13.7046L43.1752 11.1342L41.2936 9.31204C41.1583 9.18029 41.1533 8.96153 41.2886 8.82232ZM26.0935 7.9647C26.1561 7.90007 26.2363 7.86029 26.3265 7.84787L29.3305 7.41532L30.6733 4.71319C30.771 4.51432 31.0141 4.43478 31.212 4.53173C31.2922 4.5715 31.3548 4.63365 31.3949 4.71319L32.7378 7.41532L35.7417 7.84787C35.9622 7.88018 36.115 8.08154 36.0824 8.30029C36.0699 8.3873 36.0273 8.46685 35.9647 8.52899L33.79 10.632L34.3036 13.6026C34.3412 13.8189 34.1934 14.0252 33.9754 14.0625C33.8877 14.0774 33.7975 14.0625 33.7199 14.0227L31.0316 12.6207L28.3433 14.0227C28.1454 14.1247 27.9024 14.0501 27.7997 13.8562C27.7596 13.7791 27.7445 13.6896 27.7596 13.6026L28.2732 10.632L26.0985 8.53148C25.9432 8.37487 25.9407 8.1238 26.0935 7.9647ZM12.2287 8.82232C12.2814 8.76763 12.3515 8.73283 12.4267 8.72289L15.0298 8.34752L16.1923 6.00833C16.2774 5.8368 16.4879 5.7672 16.6608 5.85172C16.7284 5.88652 16.7835 5.94121 16.8186 6.00833L17.9811 8.34752L20.5842 8.72289C20.7746 8.75023 20.9074 8.92673 20.8798 9.11317C20.8698 9.18774 20.8322 9.25735 20.7771 9.31204L18.8956 11.1342L19.339 13.7046C19.3716 13.8935 19.2438 14.0725 19.0534 14.1048C18.9782 14.1172 18.9006 14.1048 18.8329 14.07L16.5054 12.8569L14.1779 14.07C14.0076 14.1595 13.7971 14.0948 13.7069 13.9258C13.6718 13.8587 13.6593 13.7816 13.6718 13.707L14.1178 11.1342L12.2338 9.31204C12.0985 9.1778 12.0935 8.95905 12.2287 8.82232ZM12.2012 72.6493C12.1987 73.8251 11.2391 74.7772 10.0541 74.7772H8.12744C6.9424 74.7747 5.98284 73.8226 5.98284 72.6493V68.0604C5.98284 66.8846 6.94491 65.9325 8.12744 65.93H10.0541C11.2391 65.93 12.1987 66.8846 12.2012 68.0604V72.6493ZM21.8168 72.6493C21.8143 73.8251 20.8548 74.7772 19.6697 74.7772H17.7431C16.558 74.7747 15.5985 73.8226 15.5985 72.6493V68.0604C15.5985 66.8846 16.5605 65.9325 17.7456 65.93H19.6722C20.8573 65.93 21.8168 66.8846 21.8193 68.0604V72.6493H21.8168ZM31.4475 72.6493C31.4475 73.8251 30.4854 74.7772 29.3029 74.7772H27.3763C26.1912 74.7747 25.2317 73.8226 25.2317 72.6493V68.0604C25.2342 66.8846 26.1937 65.9325 27.3763 65.93H29.3029C30.4879 65.9325 31.4475 66.8846 31.4475 68.0604V72.6493ZM54.6548 70.7228C54.6523 71.8389 53.7428 72.7438 52.6179 72.7438H40.1637C39.0388 72.7413 38.1268 71.8389 38.1268 70.7228V69.7806C38.1293 68.6645 39.0388 67.7596 40.1637 67.7596H52.6179C53.7428 67.7596 54.6548 68.6645 54.6548 69.7806V70.7228ZM60.2343 19.7477V58.6141C60.2343 59.3947 59.5954 60.0286 58.8087 60.0286H3.17932C2.39264 60.0286 1.75376 59.3947 1.75376 58.6141V19.7477C1.75376 18.9671 2.39264 18.3332 3.17932 18.3332H58.8062C59.5954 18.3307 60.2343 18.9646 60.2343 19.7477Z" fill="#141414"/>
<path d="M66.9537 61.7687H68.2891C72.6259 61.7637 76.1434 58.2761 76.1484 53.9706V32.627C79.5557 30.9714 80.9663 26.8896 79.3002 23.5088C78.1477 21.1696 75.7501 19.688 73.1269 19.688C69.3338 19.688 66.2572 22.7382 66.2572 26.5018C66.2572 29.1045 67.7504 31.481 70.1054 32.6245V53.4485C70.1029 54.7288 69.0582 55.7678 67.7679 55.7678H66.9562L66.9537 61.7687ZM5.98032 72.6468V68.0579C5.98032 66.8821 6.94238 65.93 8.12492 65.9276H10.0516C11.2366 65.9276 12.1962 66.8821 12.1962 68.0579V72.6468C12.1937 73.8227 11.2341 74.7747 10.0516 74.7747H8.12492C6.94238 74.7747 5.98282 73.8227 5.98032 72.6468ZM15.5985 72.6468V68.0579C15.5985 66.8821 16.5605 65.93 17.7456 65.9276H19.6722C20.8572 65.9276 21.8168 66.8821 21.8193 68.0579V72.6468C21.8168 73.8227 20.8572 74.7747 19.6722 74.7747H17.7456C16.5605 74.7772 15.5985 73.8227 15.5985 72.6468ZM25.2266 72.6468V68.0579C25.2266 66.8821 26.1887 65.93 27.3712 65.9276H29.2979C30.4829 65.93 31.4425 66.8821 31.4425 68.0579V72.6468C31.4425 73.8227 30.4804 74.7747 29.2979 74.7747H27.3712C26.1887 74.7747 25.2291 73.8227 25.2266 72.6468ZM38.1268 70.7228V69.7806C38.1268 68.6645 39.0388 67.7596 40.1637 67.7596H52.6179C53.7428 67.7596 54.6548 68.6645 54.6548 69.7806V70.7228C54.6523 71.8389 53.7428 72.7438 52.6179 72.7438H40.1637C39.0388 72.7438 38.1268 71.8389 38.1268 70.7228ZM41.489 8.72291L44.0896 8.34755L45.2546 6.00835C45.3398 5.83683 45.5477 5.76722 45.7206 5.85174C45.7883 5.88655 45.8459 5.94123 45.8784 6.00835L47.0409 8.34755L49.6415 8.72291C49.8319 8.75026 49.9647 8.92675 49.9372 9.11568C49.9271 9.19026 49.8896 9.25986 49.8369 9.31455L47.9554 11.1367L48.3989 13.7071C48.4314 13.896 48.3037 14.075 48.1132 14.1073C48.0381 14.1197 47.9604 14.1073 47.8928 14.0725L45.5653 12.8594L43.2378 14.0725C43.0674 14.162 42.857 14.0973 42.7668 13.9283C42.7317 13.8612 42.7192 13.7841 42.7317 13.7096L43.1751 11.1392L41.2936 9.31703C41.1558 9.18528 41.1533 8.96653 41.2861 8.82732C41.3412 8.76766 41.4114 8.73286 41.489 8.72291ZM26.3265 7.84789L29.3304 7.41535L30.6733 4.71322C30.771 4.51435 31.014 4.4348 31.212 4.53175C31.2921 4.57152 31.3548 4.63367 31.3949 4.71322L32.7377 7.41535L35.7417 7.84789C35.9622 7.88021 36.115 8.08156 36.0824 8.30032C36.0699 8.38732 36.0273 8.46687 35.9647 8.52902L33.79 10.6321L34.3036 13.6027C34.3412 13.8189 34.1934 14.0253 33.9754 14.0625C33.8877 14.0775 33.7975 14.0625 33.7199 14.0228L31.0316 12.6207L28.3433 14.0228C28.1454 14.1247 27.9024 14.0501 27.7996 13.8562C27.7596 13.7792 27.7445 13.6897 27.7596 13.6027L28.2732 10.6345L26.0985 8.53399C25.9382 8.37986 25.9356 8.12879 26.0885 7.9697C26.1561 7.90009 26.2388 7.86032 26.3265 7.84789ZM12.4267 8.72291L15.0272 8.34755L16.1897 6.00835C16.2749 5.83683 16.4854 5.76722 16.6582 5.85174C16.7259 5.88655 16.781 5.94123 16.8161 6.00835L17.9786 8.34755L20.5817 8.72291C20.7721 8.75026 20.9048 8.92675 20.8773 9.11319C20.8673 9.18777 20.8297 9.25737 20.7746 9.31206L18.893 11.1342L19.3365 13.7046C19.3691 13.8935 19.2413 14.0725 19.0509 14.1048C18.9757 14.1172 18.898 14.1048 18.8304 14.07L16.5029 12.8569L14.1754 14.07C14.005 14.1595 13.7946 14.0949 13.7044 13.9258C13.6693 13.8587 13.6568 13.7816 13.6693 13.7071L14.1153 11.1367L12.2337 9.31455C12.0959 9.18031 12.0934 8.96156 12.2287 8.82483C12.2813 8.76766 12.3515 8.73286 12.4267 8.72291ZM74.3947 53.9731C74.3896 57.3165 71.6588 60.0261 68.2891 60.0311H66.9537V57.5154H67.7654C70.0253 57.5129 71.8542 55.6958 71.8567 53.456V35.7865L74.3921 36.4602V53.9731H74.3947Z" fill="#E50A14"/>
<path d="M19.4968 25.8878H6.15819C5.67466 25.8878 5.28131 26.278 5.28131 26.7578V48.4146C5.28131 48.8944 5.67466 49.2847 6.15819 49.2847H19.4968C19.9804 49.2847 20.3737 48.8944 20.3737 48.4146V26.7578C20.3737 26.278 19.9829 25.8878 19.4968 25.8878ZM16.0244 38.7272C16.0244 38.8664 15.9617 39.0007 15.8515 39.0877C14.7917 39.9428 14.0476 41.1211 13.7319 42.4411C13.6919 42.6151 13.5365 42.7369 13.3561 42.7344H9.89371C9.71833 42.7344 9.57553 42.5927 9.57553 42.4212C9.57553 42.3914 9.58054 42.3616 9.58805 42.3342C9.83609 41.4667 10.5652 39.3611 12.131 37.7503H10.2044C9.96386 37.7503 9.76844 37.5564 9.76844 37.3177L9.75591 34.7921C9.75591 34.5535 9.94883 34.3571 10.1893 34.3571H10.1919H15.5884C15.8289 34.3571 16.0244 34.551 16.0244 34.7896V38.7272V38.7272Z" fill="#E50A14"/>
<path d="M37.6633 25.8878H24.3247C23.8412 25.8878 23.4478 26.278 23.4478 26.7578V48.4146C23.4478 48.8944 23.8412 49.2847 24.3247 49.2847H37.6633C38.1469 49.2847 38.5402 48.8944 38.5402 48.4146V26.7578C38.5402 26.278 38.1494 25.8878 37.6633 25.8878ZM34.1909 38.7272C34.1909 38.8664 34.1282 39.0007 34.018 39.0877C32.9582 39.9428 32.2141 41.1211 31.8984 42.4411C31.8584 42.6151 31.703 42.7369 31.5226 42.7344H28.0577C27.8823 42.7344 27.7395 42.5952 27.7395 42.4212C27.7395 42.3914 27.7445 42.3616 27.752 42.3342C28.0001 41.4667 28.7291 39.3611 30.295 37.7503H28.3684C28.1279 37.7503 27.9324 37.5564 27.9324 37.3177L27.9199 34.7921C27.9199 34.5535 28.1128 34.3571 28.3533 34.3571H28.3558H33.7524C33.9929 34.3571 34.1884 34.551 34.1884 34.7896L34.1909 38.7272Z" fill="#E50A14"/>
<path d="M55.8298 25.8878H42.4912C42.0076 25.8878 41.6143 26.278 41.6143 26.7578V48.4146C41.6143 48.8944 42.0076 49.2847 42.4912 49.2847H55.8298C56.3134 49.2847 56.7067 48.8944 56.7067 48.4146V26.7578C56.7067 26.278 56.3134 25.8878 55.8298 25.8878ZM52.3574 38.7272C52.3574 38.8664 52.2947 39.0007 52.1845 39.0877C51.1247 39.9428 50.3806 41.1211 50.0649 42.4411C50.0249 42.6151 49.8695 42.7369 49.6891 42.7344H46.2242C46.0488 42.7344 45.906 42.5952 45.906 42.4212C45.906 42.3914 45.911 42.3616 45.9185 42.3342C46.1666 41.4667 46.8956 39.3611 48.4615 37.7503H46.5349C46.2943 37.7503 46.0989 37.5564 46.0989 37.3177L46.0864 34.7921C46.0864 34.5535 46.2793 34.3571 46.5198 34.3571H46.5223H51.9189C52.1594 34.3571 52.3549 34.551 52.3549 34.7896L52.3574 38.7272Z" fill="#E50A14"/>
</svg>
