<svg width="40" height="40" viewBox="0 0 40 40" fill="none" xmlns="http://www.w3.org/2000/svg">
<path d="M39.8377 28.5187L31.7518 20.0443V11.5619C31.7518 10.12 30.6307 8.94386 29.2562 8.94386C27.8817 8.94386 26.7606 10.12 26.7606 11.5619V14.7599L19.1509 6.81721C18.1603 5.77805 16.5708 5.77805 15.5802 6.81721C14.5897 7.85637 14.5897 9.52386 15.5802 10.563L20.5715 15.7991C20.1875 15.936 19.7959 16.1616 19.4964 16.4757C18.8514 17.1524 18.6364 18.103 18.8514 19.0052C18.2909 19.0535 17.7764 19.3193 17.3464 19.7704C16.7013 20.4471 16.4863 21.3977 16.7013 22.2999C16.1408 22.3482 15.6263 22.614 15.1963 23.0651C14.7202 23.5646 14.4668 24.2412 14.4668 24.9179C14.4668 25.5946 14.7279 26.2712 15.1963 26.7707L17.9914 29.7029C19.9264 31.7329 22.7215 32.5465 25.3861 31.9101L31.0224 37.8228C31.1529 37.9597 31.3218 38 31.4984 38C31.6751 38 31.844 37.9517 31.9745 37.8228L39.8453 29.4773C40.0527 29.1954 40.0527 28.7926 39.8377 28.5187Z" fill="#141414"/>
<path d="M31.452 36.3244L26.0308 30.6372C25.9002 30.5002 25.7313 30.46 25.5547 30.46C25.5086 30.46 25.4241 30.46 25.3858 30.5083C23.0667 31.185 20.5711 30.5083 18.8895 28.7522L16.0944 25.8119C15.6183 25.3125 15.6183 24.507 16.0944 24.0075C16.5705 23.5081 17.3383 23.5081 17.8144 24.0075C18.0755 24.2814 18.4595 24.2814 18.7205 24.0075C18.8511 23.8706 18.8895 23.6934 18.8895 23.5081C18.8895 23.3309 18.8434 23.1456 18.7205 23.0086L18.2444 22.5092C18.0294 22.2836 17.8989 21.9695 17.8989 21.607C17.8989 21.2445 18.0294 20.9303 18.2444 20.7048C18.7205 20.2053 19.4884 20.2053 19.9645 20.7048C20.2256 20.9787 20.6095 20.9787 20.8706 20.7048C21.0011 20.5678 21.0395 20.3906 21.0395 20.2053C21.0395 20.02 20.9935 19.8428 20.8706 19.7059L20.3945 19.2064C19.9184 18.707 19.9184 17.9015 20.3945 17.402C20.8706 16.9026 21.6385 16.9026 22.1146 17.402C22.3757 17.6759 22.7596 17.6759 23.0207 17.402C23.2818 17.1281 23.2818 16.7254 23.0207 16.4515L16.486 9.54791C16.0099 9.04847 16.0099 8.24292 16.486 7.74348C16.9621 7.24404 17.73 7.24404 18.206 7.74348L26.8908 16.8542C27.0597 17.0315 27.3669 17.1281 27.5819 16.9912C27.843 16.9026 27.9658 16.6287 27.9658 16.3629V11.5376C27.9658 10.8126 28.5264 10.2729 29.1714 10.2729C29.8164 10.2729 30.377 10.861 30.377 11.5376V20.2859C30.377 20.4631 30.4615 20.6484 30.5459 20.7853L38.4551 28.9939L31.452 36.3244Z" fill="#E50A14"/>
<path d="M17.4309 14.9855C17.7765 14.9855 18.076 14.6713 18.076 14.3088C18.076 13.9463 17.7765 13.6321 17.4309 13.6321C14.7203 13.6321 12.5319 11.3283 12.5319 8.49273C12.5319 5.65719 14.7664 3.35332 17.4309 3.35332C20.0955 3.35332 22.33 5.65719 22.33 8.49273C22.33 8.85522 22.6295 9.16939 22.9751 9.16939C23.3206 9.16939 23.6201 8.85522 23.6201 8.49273C23.6201 4.9322 20.825 2 17.4309 2C14.2519 2 11.6257 4.5697 11.2802 7.81607H3.4094L4.18496 7.41329C4.48444 7.23607 4.61498 6.82524 4.48444 6.51108C4.3155 6.19691 3.92388 6.05997 3.62441 6.19691L0.353226 7.8644C0.307153 7.8644 0.268759 7.91273 0.222686 7.95301L0.176613 8.00134C0.13054 8.04968 0.0921457 8.08995 0.0921457 8.13829V8.18662C0.0460727 8.23495 0.0460729 8.27523 0.0460729 8.32356V8.3719C0.0460729 8.42023 0 8.46051 0 8.54912C0 8.63773 -1.19e-07 8.68606 0.0460729 8.72634V8.77467C0.0460729 8.823 0.0921457 8.86328 0.0921457 8.91161V8.95995C0.138219 9.00828 0.138219 9.04856 0.176613 9.09689L0.222686 9.14522C0.268759 9.19356 0.307153 9.19356 0.353226 9.23383L3.62441 10.9013C3.70888 10.9497 3.79334 10.9899 3.92388 10.9899C4.18496 10.9899 4.39997 10.853 4.48444 10.6274C4.65337 10.3133 4.53051 9.90244 4.18496 9.72522L3.4094 9.1855H11.2802C11.6257 12.4158 14.2519 14.9855 17.4309 14.9855Z" fill="#141414"/>
</svg>
