<svg width="80" height="80" viewBox="0 0 80 80" fill="none" xmlns="http://www.w3.org/2000/svg">
<g clip-path="url(#clip0_1701_1498)">
<path d="M66.1182 26.1995C67.3629 26.5478 68.2683 25.1619 67.5898 24.009C66.7899 22.8286 66.0716 21.5943 65.4398 20.315C67.0514 19.3425 68.4086 17.9969 69.3983 16.3903C70.3465 14.6979 70.8527 12.7916 70.8698 10.8492C70.8698 4.84456 66.1182 0 60.2342 0H45.5278C44.1147 0.0094055 42.7173 0.299911 41.4164 0.85477C40.1154 1.40963 38.9365 2.21787 37.9477 3.23291C36.527 4.69958 35.5466 6.53939 35.1191 8.54103H44.9616C52.4295 8.54103 58.5381 14.7739 58.5381 22.3926V23.0843C60.5735 24.1219 63.2897 25.3925 66.1182 26.2067V26.1995Z" fill="#E50A14"/>
<path d="M45.0779 10.813H30.3691C24.4875 10.813 19.7287 15.672 19.7287 21.6742C19.7162 23.5944 20.2126 25.4832 21.167 27.1465C22.1214 28.8097 23.4992 30.1873 25.1588 31.1376C24.5927 32.2929 23.9142 33.6763 23.0088 34.8316C22.218 35.8716 23.2357 37.2551 24.4804 37.0245C28.4389 35.9845 32.0605 33.9021 34.2106 32.5234H45.0708C50.9548 32.5234 55.7064 27.6741 55.7064 21.6742C55.7064 15.7872 50.9548 10.8226 45.0708 10.8226L45.0779 10.813ZM29.6907 24.213C29.2126 24.2197 28.7433 24.0832 28.3425 23.821C27.9417 23.5588 27.6276 23.1827 27.44 22.7405C27.2524 22.2983 27.1999 21.81 27.2891 21.3377C27.3783 20.8654 27.6052 20.4304 27.9409 20.0881C28.2767 19.7458 28.7061 19.5116 29.1745 19.4153C29.643 19.3191 30.1294 19.3651 30.5718 19.5475C31.0142 19.7299 31.3926 20.0404 31.659 20.4397C31.9254 20.8389 32.0676 21.3088 32.0677 21.7895C31.953 23.0625 30.9353 24.213 29.6907 24.213ZM37.7247 24.213C37.0854 24.213 36.4723 23.9577 36.0203 23.5032C35.5682 23.0487 35.3143 22.4323 35.3143 21.7895C35.3143 21.1468 35.5682 20.5303 36.0203 20.0758C36.4723 19.6214 37.0854 19.366 37.7247 19.366C38.0411 19.3607 38.3552 19.4199 38.6481 19.5403C38.941 19.6607 39.2065 19.8396 39.4286 20.0662C39.6506 20.2928 39.8245 20.5624 39.9399 20.8586C40.0552 21.1549 40.1094 21.4716 40.0994 21.7895C39.9871 23.0625 38.9694 24.213 37.7247 24.213ZM45.7564 24.213C45.2783 24.2197 44.809 24.0832 44.4082 23.821C44.0075 23.5588 43.6933 23.1827 43.5057 22.7405C43.3181 22.2983 43.2656 21.81 43.3548 21.3377C43.444 20.8654 43.6709 20.4304 44.0066 20.0881C44.3424 19.7458 44.7718 19.5116 45.2403 19.4153C45.7087 19.3191 46.1951 19.3651 46.6375 19.5475C47.0799 19.7299 47.4584 20.0404 47.7247 20.4397C47.9911 20.8389 48.1334 21.3088 48.1334 21.7895C48.0187 23.0625 47.001 24.213 45.7683 24.213H45.7564Z" fill="#E50A14"/>
<path d="M26.2474 57.1473C26.1229 57.0902 25.9877 57.0607 25.8509 57.0607C25.714 57.0607 25.5788 57.0902 25.4543 57.1473C23.0723 58.9452 20.1742 59.917 17.1957 59.9166C14.2202 59.8981 11.3279 58.9282 8.93707 57.1473C8.88654 57.0927 8.82535 57.0491 8.75733 57.0193C8.6893 56.9895 8.6159 56.9741 8.5417 56.9741C8.4675 56.9741 8.3941 56.9895 8.32607 57.0193C8.25804 57.0491 8.19686 57.0927 8.14633 57.1473C2.71624 60.7261 0 67.7659 0 75.8458C0 81.3845 34.506 81.3845 34.506 75.8458C34.3937 67.7659 31.6775 60.7261 26.2474 57.1473V57.1473Z" fill="#E50A14"/>
<path d="M27.4947 47.5615C27.4947 53.362 22.884 58.0648 17.1983 58.0648C11.5126 58.0648 6.9043 53.3548 6.9043 47.5615C6.9043 41.7682 11.5126 37.0581 17.1983 37.0581C22.884 37.0581 27.4947 41.7586 27.4947 47.5615Z" fill="#E50A14"/>
<path d="M71.7436 55.5961C71.6191 55.539 71.4838 55.5094 71.347 55.5094C71.2102 55.5094 71.0749 55.539 70.9504 55.5961C68.569 57.3955 65.6708 58.369 62.6918 58.3702C59.7161 58.3508 56.8237 57.3801 54.4332 55.5985C54.3826 55.5438 54.3215 55.5003 54.2534 55.4705C54.1854 55.4407 54.112 55.4253 54.0378 55.4253C53.9636 55.4253 53.8902 55.4407 53.8222 55.4705C53.7541 55.5003 53.693 55.5438 53.6424 55.5985C48.2123 59.1772 45.4961 66.2171 45.4961 74.297C45.4961 79.8381 80.0022 79.8381 80.0022 74.297C79.8899 66.2195 77.1737 59.1772 71.7436 55.5985V55.5961Z" fill="#141414"/>
<path d="M72.8716 46.0029C72.8716 51.8034 68.2633 56.5062 62.5776 56.5062C56.8919 56.5062 52.2812 51.8034 52.2812 46.0029C52.2812 40.2024 56.8895 35.4995 62.5776 35.4995C68.2657 35.4995 72.8716 40.2024 72.8716 46.0029" fill="#141414"/>
</g>
<defs>
<clipPath id="clip0_1701_1498">
<rect width="80" height="80" fill="white"/>
</clipPath>
</defs>
</svg>
