<svg width="80" height="80" viewBox="0 0 80 80" fill="none" xmlns="http://www.w3.org/2000/svg">
<g clip-path="url(#clip0_1801_2239)">
<path fill-rule="evenodd" clip-rule="evenodd" d="M22.1722 -0.00294491C24.1675 -0.0312926 26.1152 0.613184 27.7072 1.82852C29.0467 2.89955 29.6935 4.19551 29.6935 5.49146V74.4838C29.6935 75.7762 29.0467 77.0721 27.7072 78.1574C26.102 79.3518 24.1606 79.996 22.1669 79.996C20.1732 79.996 18.2318 79.3518 16.6266 78.1574C15.2835 77.0685 14.6367 75.7726 14.6367 74.4838V5.49146C14.6367 4.19908 15.2835 2.91027 16.6266 1.82852C18.2221 0.612142 20.1735 -0.0323176 22.1722 -0.00294491V-0.00294491Z" fill="#E50A14"/>
<path fill-rule="evenodd" clip-rule="evenodd" d="M57.8773 -0.00304666C59.8757 -0.0307852 61.8266 0.613505 63.4228 1.82842C64.7695 2.89945 65.4163 4.19898 65.4163 5.49136V74.4837C65.4163 75.7725 64.7659 77.0685 63.4228 78.1573C61.8163 79.3517 59.8738 79.996 57.879 79.996C55.8843 79.996 53.9417 79.3517 52.3352 78.1573C50.9886 77.0685 50.3418 75.7725 50.3418 74.4837V5.49136C50.3418 4.20255 50.9886 2.91373 52.3317 1.82842C53.9282 0.613992 55.8789 -0.0302424 57.8773 -0.00304666V-0.00304666Z" fill="#E50A14"/>
<path fill-rule="evenodd" clip-rule="evenodd" d="M10.1297 5.14863C10.9506 5.13804 11.7525 5.39882 12.413 5.89122C12.922 6.30178 13.0527 6.6695 13.0527 6.93726V73.0557C13.0527 73.327 12.9255 73.684 12.4165 74.091C11.7454 74.5728 10.9425 74.8316 10.1191 74.8316C9.29579 74.8316 8.49286 74.5728 7.82174 74.091C7.31278 73.6804 7.18555 73.327 7.18555 73.0557V6.93726C7.18555 6.6695 7.31632 6.30535 7.82528 5.89478C8.49059 5.3981 9.29901 5.13595 10.1262 5.14863H10.1297Z" fill="#E50A14"/>
<path fill-rule="evenodd" clip-rule="evenodd" d="M69.9192 5.14878C70.7401 5.13819 71.5419 5.39897 72.2024 5.89137C72.7114 6.30193 72.8422 6.66965 72.8422 6.93741V73.0558C72.8422 73.3271 72.7149 73.6842 72.206 74.0911C71.5361 74.576 70.7327 74.8367 69.9086 74.8367C69.0845 74.8367 68.2811 74.576 67.6112 74.0911C67.1057 73.6842 66.9785 73.3271 66.9785 73.0558V6.93741C66.9785 6.66965 67.1093 6.3055 67.6147 5.89137C68.2764 5.39846 69.0794 5.13767 69.9015 5.14878H69.9192Z" fill="#E50A14"/>
<path fill-rule="evenodd" clip-rule="evenodd" d="M0 31.239H5.96264V48.754H0V31.239Z" fill="#141414"/>
<path fill-rule="evenodd" clip-rule="evenodd" d="M74.0684 31.239H79.9992V48.754H74.0684V31.239Z" fill="#141414"/>
<path fill-rule="evenodd" clip-rule="evenodd" d="M31.2734 31.4534H48.762V48.5221H31.2734V31.4534Z" fill="#141414"/>
</g>
<defs>
<clipPath id="clip0_1801_2239">
<rect width="80" height="80" fill="white"/>
</clipPath>
</defs>
</svg>
