<svg width="50" height="50" viewBox="0 0 50 50" fill="none" xmlns="http://www.w3.org/2000/svg">
<g clip-path="url(#clip0_1813_8498)">
<path d="M31.4867 20.7373L32.7548 17.4209C33.018 16.7374 32.4904 15.9472 31.751 15.9472H16.3324L13.0044 24.2626L12.3185 18.4201H12.7936C12.9334 18.4198 13.0674 18.3643 13.1663 18.2658C13.2652 18.1672 13.3208 18.0337 13.3211 17.8944V16.3162C13.3208 16.1769 13.2652 16.0433 13.1663 15.9448C13.0674 15.8463 12.9334 15.7908 12.7936 15.7905H10.2051C10.0652 15.7908 9.93124 15.8463 9.83238 15.9448C9.73351 16.0433 9.67784 16.1769 9.67754 16.3162V17.8955C9.67784 18.0348 9.73351 18.1684 9.83238 18.2669C9.93124 18.3654 10.0652 18.4209 10.2051 18.4212H10.6813L9.99428 24.2637L6.66742 16.1584C3.65619 16.843 1.27954 19.3158 0.962806 22.4744L0.0125932 31.3655C-0.0443485 31.7903 0.0672335 32.2205 0.323614 32.5646C0.579994 32.9087 0.960953 33.1396 1.38549 33.2081C2.33571 33.4182 3.65619 33.576 4.97667 33.7338L5.82205 47.8951C5.87447 49.1054 6.87821 50 8.09274 50H14.9595C15.5335 49.9955 16.085 49.7769 16.5053 49.3872C16.9256 48.9976 17.1842 48.4653 17.2302 47.8951L18.3923 23.6313C18.395 23.3443 18.4547 23.0606 18.5678 22.7966C18.6809 22.5325 18.8452 22.2934 19.0514 22.0928C19.2575 21.8923 19.5013 21.7343 19.7689 21.6279C20.0365 21.5216 20.3225 21.4689 20.6106 21.473H30.5365C30.7479 21.4499 30.9488 21.3688 31.1167 21.2387C31.2847 21.1086 31.4131 20.9347 31.4878 20.7362L31.4867 20.7373Z" fill="#E50A14"/>
<path d="M18.7081 7.21065C18.7081 8.63679 18.2837 10.0309 17.4887 11.2167C16.6936 12.4025 15.5635 13.3267 14.2413 13.8724C12.9191 14.4182 11.4642 14.561 10.0606 14.2828C8.65695 14.0045 7.36763 13.3178 6.35568 12.3094C5.34372 11.3009 4.65457 10.0161 4.37537 8.61738C4.09617 7.21865 4.23946 5.76883 4.78713 4.45126C5.3348 3.13368 6.26224 2.00753 7.45218 1.21521C8.64212 0.422897 10.0411 0 11.4722 0C12.4225 0 13.3634 0.186508 14.2413 0.548878C15.1192 0.911247 15.9169 1.44238 16.5888 2.11195C17.2607 2.78152 17.7937 3.57642 18.1573 4.45126C18.521 5.32609 18.7081 6.26374 18.7081 7.21065" fill="#141414"/>
<path d="M37.5 25C35.0277 25 32.611 25.7331 30.5554 27.1066C28.4998 28.4801 26.8976 30.4324 25.9515 32.7165C25.0054 35.0005 24.7579 37.5139 25.2402 39.9386C25.7225 42.3634 26.913 44.5907 28.6612 46.3388C30.4093 48.087 32.6366 49.2775 35.0614 49.7598C37.4861 50.2421 39.9995 49.9946 42.2835 49.0485C44.5676 48.1024 46.5199 46.5002 47.8934 44.4446C49.2669 42.389 50 39.9723 50 37.5C50 34.1848 48.683 31.0054 46.3388 28.6612C43.9946 26.317 40.8152 25 37.5 25Z" fill="#E50A14"/>
<path fill-rule="evenodd" clip-rule="evenodd" d="M37.5 30C36.6716 30 36 30.6716 36 31.5V36H31.5C30.6716 36 30 36.6716 30 37.5C30 38.3284 30.6716 39 31.5 39H36V43.5C36 44.3284 36.6716 45 37.5 45C38.3284 45 39 44.3284 39 43.5V39H43.5C44.3284 39 45 38.3284 45 37.5C45 36.6716 44.3284 36 43.5 36H39V31.5C39 30.6716 38.3284 30 37.5 30Z" fill="#141414"/>
</g>
<defs>
<clipPath id="clip0_1813_8498">
<rect width="50" height="50" fill="white"/>
</clipPath>
</defs>
</svg>
