<svg width="36" height="36" viewBox="0 0 36 36" fill="none" xmlns="http://www.w3.org/2000/svg">
<circle cx="18" cy="18" r="18" fill="#C13584"/>
<path d="M18 9.39188C20.8036 9.39188 21.1357 9.40259 22.2429 9.45311C23.2666 9.49979 23.8226 9.67084 24.1926 9.81464C24.6827 10.0051 25.0325 10.2326 25.3999 10.6001C25.7673 10.9675 25.9949 11.3173 26.1854 11.8074C26.3291 12.1774 26.5002 12.7333 26.5469 13.7571C26.5974 14.8643 26.6081 15.1964 26.6081 17.9999C26.6081 20.8036 26.5974 21.1357 26.5469 22.2429C26.5002 23.2666 26.3291 23.8226 26.1854 24.1925C25.9949 24.6827 25.7673 25.0324 25.3999 25.3998C25.0325 25.7673 24.6827 25.9948 24.1926 26.1853C23.8226 26.3291 23.2666 26.5001 22.2429 26.5468C21.1359 26.5973 20.8038 26.608 18 26.608C15.1962 26.608 14.8642 26.5973 13.7571 26.5468C12.7334 26.5001 12.1774 26.3291 11.8074 26.1853C11.3173 25.9948 10.9675 25.7673 10.6001 25.3998C10.2327 25.0324 10.0051 24.6827 9.81465 24.1925C9.67085 23.8226 9.4998 23.2666 9.45312 22.2429C9.4026 21.1357 9.39189 20.8036 9.39189 17.9999C9.39189 15.1964 9.4026 14.8643 9.45312 13.7571C9.4998 12.7333 9.67085 12.1774 9.81465 11.8074C10.0051 11.3173 10.2327 10.9675 10.6001 10.6001C10.9675 10.2326 11.3173 10.0051 11.8074 9.81464C12.1774 9.67084 12.7334 9.49979 13.7571 9.45311C14.8643 9.40259 15.1964 9.39188 18 9.39188ZM18 7.5C15.1484 7.5 14.7908 7.51209 13.6709 7.56319C12.5533 7.61416 11.79 7.79167 11.1221 8.05121C10.4316 8.31955 9.84607 8.67858 9.26231 9.2623C8.67858 9.84607 8.31955 10.4316 8.05126 11.1221C7.79168 11.79 7.61416 12.5532 7.56319 13.6708C7.51209 14.7908 7.5 15.1483 7.5 17.9999C7.5 20.8516 7.51209 21.2092 7.56319 22.3291C7.61416 23.4467 7.79168 24.21 8.05126 24.8778C8.31955 25.5683 8.67858 26.1539 9.26231 26.7376C9.84607 27.3214 10.4316 27.6804 11.1221 27.9487C11.79 28.2083 12.5533 28.3858 13.6709 28.4367C14.7908 28.4878 15.1484 28.4999 18 28.4999C20.8516 28.4999 21.2092 28.4878 22.3291 28.4367C23.4467 28.3858 24.21 28.2083 24.8779 27.9487C25.5684 27.6804 26.1539 27.3214 26.7377 26.7376C27.3214 26.1539 27.6805 25.5683 27.9488 24.8778C28.2083 24.21 28.3858 23.4467 28.4368 22.3291C28.4879 21.2092 28.5 20.8516 28.5 17.9999C28.5 15.1483 28.4879 14.7908 28.4368 13.6708C28.3858 12.5532 28.2083 11.79 27.9488 11.1221C27.6805 10.4316 27.3214 9.84607 26.7377 9.2623C26.1539 8.67858 25.5684 8.31955 24.8779 8.05121C24.21 7.79167 23.4467 7.61416 22.3291 7.56319C21.2092 7.51209 20.8516 7.5 18 7.5Z" fill="white"/>
<path d="M18.0049 12.613C15.027 12.613 12.613 15.027 12.613 18.0048C12.613 20.9827 15.027 23.3967 18.0049 23.3967C20.9827 23.3967 23.3968 20.9827 23.3968 18.0048C23.3968 15.027 20.9827 12.613 18.0049 12.613ZM18.0049 21.5048C16.0719 21.5048 14.5049 19.9378 14.5049 18.0048C14.5049 16.0719 16.0719 14.5049 18.0049 14.5049C19.9379 14.5049 21.5049 16.0719 21.5049 18.0048C21.5049 19.9378 19.9379 21.5048 18.0049 21.5048Z" fill="white"/>
<path d="M24.8694 12.3966C24.8694 13.0925 24.3053 13.6566 23.6094 13.6566C22.9136 13.6566 22.3494 13.0925 22.3494 12.3966C22.3494 11.7007 22.9136 11.1366 23.6094 11.1366C24.3053 11.1366 24.8694 11.7007 24.8694 12.3966Z" fill="white"/>
</svg>
