<svg width="60" height="60" viewBox="0 0 60 60" fill="none" xmlns="http://www.w3.org/2000/svg">
<g clip-path="url(#clip0_1801_3796)">
<path d="M29.0822 0C24.5549 0.148951 20.3871 3.31754 17.2712 8.59851C16.2726 10.3047 15.3804 12.2004 14.6348 14.2857L29.0822 14.3805V0Z" fill="#E50A14"/>
<path d="M35.7383 0C38.5212 1.62492 40.9713 4.29248 42.9553 7.65064C44.167 9.69533 45.1923 12.0108 46.0312 14.5295L55.9114 14.5972C51.6504 7.14963 44.3668 1.69262 35.7383 0Z" fill="#141414"/>
<path d="M30.7988 0.0947266V14.4075L44.2476 14.5023C43.4886 12.3358 42.5831 10.3588 41.5445 8.59845C38.6817 3.75079 34.9133 0.676988 30.7988 0.0947266Z" fill="#E50A14"/>
<path d="M22.3704 0.460449C14.7406 2.49159 8.29581 7.51529 4.31445 14.2045L12.8497 14.2722C13.6753 11.8619 14.674 9.62768 15.8324 7.66424C17.6433 4.5769 19.8804 2.09891 22.3704 0.460449Z" fill="#141414"/>
<path d="M3.35624 15.9512C1.3589 19.8781 0.173815 24.2924 0.0273438 28.9776H10.4268C10.5067 24.333 11.1592 19.9593 12.3176 16.0189L3.43613 15.9512C3.39619 15.9512 3.38287 15.9512 3.35624 15.9512Z" fill="#141414"/>
<path d="M14.0472 16.0327C12.8621 19.919 12.1697 24.3198 12.0898 28.9914H29.0805V16.141L14.0472 16.0327Z" fill="#E50A14"/>
<path d="M30.7988 16.168V28.9913H46.7109C46.6311 24.4144 45.952 20.0948 44.7935 16.2628L30.7988 16.168Z" fill="#E50A14"/>
<path d="M46.6055 16.2896C47.7107 20.1623 48.3232 24.4548 48.4031 28.991H60.0009C59.8545 24.4683 58.7493 20.1758 56.8851 16.3573L46.6055 16.2896Z" fill="#141414"/>
<path d="M0 30.7108C0.106525 35.0981 1.13182 39.2687 2.86285 43.006H2.88948L12.0905 43.0737C11.0519 39.2822 10.4794 35.1116 10.4128 30.6973L0 30.7108Z" fill="#141414"/>
<path d="M12.0898 30.7109C12.1564 35.1388 12.7689 39.3365 13.8342 43.0874L29.0672 43.2092V30.7245H12.0898V30.7109Z" fill="#E50A14"/>
<path d="M30.7988 30.7109V43.2228L44.8734 43.3176C45.9919 39.5126 46.6444 35.2336 46.7109 30.7109H30.7988Z" fill="#E50A14"/>
<path d="M48.3889 30.7109C48.3223 35.2201 47.7231 39.4855 46.6445 43.3446L56.9641 43.4124C58.815 39.5667 59.8935 35.2607 60.0001 30.7109H48.3889Z" fill="#141414"/>
<path d="M3.74219 44.7666C7.72355 52.0516 14.5411 57.5222 22.6903 59.594C20.0538 57.942 17.7102 55.3692 15.8194 52.16C14.5411 49.9934 13.4626 47.529 12.6104 44.8343L3.74219 44.7666Z" fill="#141414"/>
<path d="M14.3945 44.8613C15.1802 47.2039 16.1522 49.3569 17.2574 51.2391C20.3732 56.5201 24.541 59.6751 29.0683 59.8241V44.9561L14.3945 44.8613Z" fill="#E50A14"/>
<path d="M30.7988 44.9829V59.7426C34.9133 59.1738 38.6817 56.0865 41.5445 51.2388C42.6231 49.4108 43.5418 47.339 44.3141 45.0777L30.7988 44.9829Z" fill="#E50A14"/>
<path d="M46.1109 45.105C45.2587 47.6913 44.1935 50.0745 42.9684 52.1598C40.9045 55.6669 38.308 58.4022 35.3652 60C44.2201 58.3751 51.7168 52.8233 56.031 45.1591L46.1109 45.105Z" fill="#141414"/>
</g>
<defs>
<clipPath id="clip0_1801_3796">
<rect width="60" height="60" fill="white"/>
</clipPath>
</defs>
</svg>
