<svg width="50" height="50" viewBox="0 0 50 50" fill="none" xmlns="http://www.w3.org/2000/svg">
<path d="M46.6228 25.5665C46.0368 25.5861 45.4558 25.4521 44.9374 25.1776L32.638 17.955C32.1347 17.6564 31.7178 17.2317 31.4282 16.7227C31.1386 16.2138 30.9863 15.6381 30.9863 15.0524C30.9863 14.4666 31.1386 13.891 31.4282 13.382C31.7178 12.8731 32.1347 12.4484 32.638 12.1498L44.9374 4.92716C45.4484 4.63183 46.028 4.47595 46.618 4.4751C47.2081 4.47425 47.7881 4.62846 48.3 4.92232C48.8119 5.21618 49.2379 5.6394 49.5353 6.1497C49.8327 6.66 49.9912 7.23952 49.9949 7.83035V22.1581C50.0194 22.6093 49.9492 23.0607 49.7889 23.4831C49.6286 23.9055 49.3817 24.2896 49.0641 24.6106C48.7466 24.9317 48.3654 25.1826 47.9451 25.3473C47.5248 25.5119 47.0737 25.5866 46.6228 25.5665Z" fill="#E50A14"/>
<path d="M3.3727 45.5207C2.93178 45.5408 2.49144 45.47 2.07893 45.3129C1.66641 45.1557 1.29049 44.9154 0.974411 44.607C0.658336 44.2985 0.408834 43.9284 0.241339 43.5195C0.0738432 43.1106 -0.00808328 42.6717 0.000628581 42.2298V27.8348C-0.00471898 27.2398 0.147143 26.6539 0.440823 26.1366C0.734503 25.6192 1.15956 25.1888 1.67291 24.889C2.18626 24.5891 2.76965 24.4305 3.36396 24.4292C3.95827 24.4279 4.54236 24.5839 5.05703 24.8815L17.4452 32.0539C17.9482 32.3528 18.3648 32.7775 18.6542 33.2864C18.9436 33.7953 19.0958 34.3709 19.0958 34.9565C19.0958 35.5421 18.9436 36.1177 18.6542 36.6266C18.3648 37.1355 17.9482 37.5602 17.4452 37.8591L5.05931 45.1319C4.54032 45.4058 3.95907 45.5398 3.3727 45.5207Z" fill="#E50A14"/>
<circle cx="25" cy="2.5" r="2.5" fill="#141414"/>
<ellipse cx="25" cy="10" rx="2.5" ry="2.5" fill="#141414"/>
<ellipse cx="25" cy="17.5" rx="2.5" ry="2.5" fill="#141414"/>
<circle cx="25" cy="25" r="2.5" fill="#141414"/>
<ellipse cx="25" cy="32.5" rx="2.5" ry="2.5" fill="#141414"/>
<circle cx="25" cy="40" r="2.5" fill="#141414"/>
<circle cx="25" cy="47.5" r="2.5" fill="#141414"/>
</svg>
