<svg width="36" height="36" viewBox="0 0 36 36" fill="none" xmlns="http://www.w3.org/2000/svg">
<circle cx="18" cy="18" r="18" fill="#0077B5"/>
<path fill-rule="evenodd" clip-rule="evenodd" d="M14.4066 10.9744C14.4066 12.0508 13.631 12.9219 12.4179 12.9219C11.2522 12.9219 10.4765 12.0508 10.5005 10.9744C10.4765 9.84574 11.2522 9 12.4412 9C13.6309 9 14.3834 9.84574 14.4066 10.9744ZM10.5981 26.9983V14.4604H14.2858V26.9975L10.5981 26.9983Z" fill="white"/>
<path fill-rule="evenodd" clip-rule="evenodd" d="M17.2416 18.4617C17.2416 16.8979 17.1929 15.5647 17.1441 14.4621H20.3473L20.5176 16.1798H20.5903C21.0757 15.3847 22.2887 14.1807 24.2541 14.1807C26.6801 14.1807 28.5 15.873 28.5 19.5635V27H24.8122V20.0518C24.8122 18.4356 24.2789 17.3338 22.9443 17.3338C21.9249 17.3338 21.3187 18.0773 21.0764 18.7947C20.9789 19.0515 20.9309 19.4097 20.9309 19.7696V27H17.2431V18.4617H17.2416Z" fill="white"/>
</svg>
