<svg width="26" height="26" viewBox="0 0 26 26" fill="none" xmlns="http://www.w3.org/2000/svg">
<g clip-path="url(#clip0_1801_6555)">
<path d="M10.6781 6.50037H9.28516V7.89328C9.28507 7.71034 9.32105 7.52917 9.39102 7.36014C9.46099 7.19111 9.56359 7.03752 9.69295 6.90816C9.82231 6.7788 9.9759 6.6762 10.1449 6.60623C10.314 6.53626 10.4951 6.50028 10.6781 6.50037V6.50037Z" fill="#E50A14"/>
<path d="M12.0707 7.89328V6.50037H10.6777C10.8607 6.50028 11.0418 6.53626 11.2109 6.60623C11.3799 6.6762 11.5335 6.7788 11.6629 6.90816C11.7922 7.03752 11.8948 7.19111 11.9648 7.36014C12.0348 7.52917 12.0707 7.71034 12.0707 7.89328Z" fill="#E50A14"/>
<path d="M13 21.3575H15.7859V24.1434H13V21.3575Z" fill="#141414"/>
<path d="M10.6777 9.2855H12.0707V7.89258C12.0707 8.07552 12.0348 8.25669 11.9648 8.42572C11.8948 8.59476 11.7922 8.74834 11.6629 8.8777C11.5335 9.00706 11.3799 9.10966 11.2109 9.17963C11.0418 9.24961 10.8607 9.28558 10.6777 9.2855V9.2855Z" fill="#E50A14"/>
<path d="M13 17.6431H15.7859V20.4289H13V17.6431Z" fill="#141414"/>
<path d="M9.28516 17.6431H12.071V20.4289H9.28516V17.6431Z" fill="#141414"/>
<path d="M12.0707 22.7499V21.3569H10.6777C10.8607 21.3569 11.0418 21.3928 11.2109 21.4628C11.3799 21.5328 11.5335 21.6354 11.6629 21.7647C11.7922 21.8941 11.8948 22.0477 11.9648 22.2167C12.0348 22.3858 12.0707 22.5669 12.0707 22.7499V22.7499Z" fill="#E50A14"/>
<path d="M10.6777 24.1428H12.0707V22.7499C12.0707 22.9328 12.0348 23.114 11.9648 23.283C11.8948 23.4521 11.7922 23.6056 11.6629 23.735C11.5335 23.8644 11.3799 23.967 11.2109 24.0369C11.0418 24.1069 10.8607 24.1429 10.6777 24.1428Z" fill="#E50A14"/>
<path d="M11.1435 7.89327C11.1435 7.9851 11.1162 8.07487 11.0652 8.15123C11.0142 8.22758 10.9417 8.2871 10.8568 8.32224C10.772 8.35738 10.6786 8.36658 10.5886 8.34866C10.4985 8.33075 10.4158 8.28652 10.3508 8.22159C10.2859 8.15665 10.2417 8.07392 10.2238 7.98385C10.2058 7.89379 10.215 7.80043 10.2502 7.71558C10.2853 7.63074 10.3448 7.55823 10.4212 7.50721C10.4976 7.45619 10.5873 7.42896 10.6792 7.42896C10.8023 7.42896 10.9204 7.47787 11.0075 7.56495C11.0946 7.65203 11.1435 7.77012 11.1435 7.89327Z" fill="#E50A14"/>
<path d="M9.28516 13.9286V16.0575L11.4141 13.9286H9.28516Z" fill="#E50A14"/>
<path d="M9.28516 10.2141H12.071V13H9.28516V10.2141Z" fill="#141414"/>
<path d="M9.28516 7.89319V9.28611H10.6781C10.4951 9.28619 10.314 9.25022 10.1449 9.18024C9.9759 9.11027 9.82231 9.00767 9.69295 8.87831C9.56359 8.74895 9.46099 8.59537 9.39102 8.42633C9.32105 8.2573 9.28507 8.07613 9.28516 7.89319V7.89319Z" fill="#E50A14"/>
<path d="M13 13.9286H15.7859V16.7144H13V13.9286Z" fill="#141414"/>
<path d="M19.5004 11.607V10.2141H18.1074C18.2904 10.214 18.4715 10.25 18.6406 10.32C18.8096 10.3899 18.9632 10.4925 19.0926 10.6219C19.2219 10.7513 19.3245 10.9049 19.3945 11.0739C19.4645 11.2429 19.5004 11.4241 19.5004 11.607Z" fill="#E50A14"/>
<path d="M18.1074 13H19.5004V11.6071C19.5004 11.79 19.4645 11.9712 19.3945 12.1402C19.3245 12.3092 19.2219 12.4628 19.0926 12.5922C18.9632 12.7215 18.8096 12.8241 18.6406 12.8941C18.4715 12.9641 18.2904 13.0001 18.1074 13Z" fill="#E50A14"/>
<path d="M18.5712 11.6071C18.5712 11.699 18.544 11.7887 18.493 11.8651C18.4419 11.9414 18.3694 12.001 18.2846 12.0361C18.1997 12.0712 18.1064 12.0804 18.0163 12.0625C17.9262 12.0446 17.8435 12.0004 17.7786 11.9354C17.7136 11.8705 17.6694 11.7878 17.6515 11.6977C17.6336 11.6076 17.6428 11.5143 17.6779 11.4294C17.7131 11.3446 17.7726 11.2721 17.8489 11.2211C17.9253 11.1701 18.0151 11.1428 18.1069 11.1428C18.23 11.1428 18.3481 11.1917 18.4352 11.2788C18.5223 11.3659 18.5712 11.484 18.5712 11.6071" fill="#E50A14"/>
<path d="M18.1078 10.2141H16.7148V11.607C16.7148 11.4241 16.7507 11.2429 16.8207 11.0739C16.8907 10.9049 16.9933 10.7513 17.1226 10.6219C17.252 10.4925 17.4056 10.3899 17.5746 10.32C17.7437 10.25 17.9248 10.214 18.1078 10.2141V10.2141Z" fill="#E50A14"/>
<path d="M16.7148 6.50037H19.5007V9.28621H16.7148V6.50037Z" fill="#141414"/>
<path d="M12.0709 16.7145V14.5856L9.94141 16.7145H12.0709Z" fill="#E50A14"/>
<path d="M16.7148 21.3575H19.5007V24.1434H16.7148V21.3575Z" fill="#141414"/>
<path d="M13 6.50037H15.7859V9.28621H13V6.50037Z" fill="#141414"/>
<path d="M13 10.2141H15.7859V13H13V10.2141Z" fill="#141414"/>
<path d="M16.7148 13.9286H19.5007V16.7144H16.7148V13.9286Z" fill="#141414"/>
<path d="M16.7148 17.6431H19.5007V20.4289H16.7148V17.6431Z" fill="#141414"/>
<path d="M16.7148 11.6071V13H18.1078C17.9248 13.0001 17.7437 12.9641 17.5746 12.8941C17.4056 12.8241 17.252 12.7215 17.1226 12.5922C16.9933 12.4628 16.8907 12.3092 16.8207 12.1402C16.7507 11.9712 16.7148 11.79 16.7148 11.6071V11.6071Z" fill="#E50A14"/>
<path d="M1.85742 21.3575H4.64327V24.1434H1.85742V21.3575Z" fill="#141414"/>
<path d="M4.64293 15.3215V13.9286H3.25C3.43294 13.9285 3.61411 13.9645 3.78315 14.0345C3.95218 14.1044 4.10577 14.207 4.23513 14.3364C4.36449 14.4657 4.46709 14.6193 4.53706 14.7884C4.60704 14.9574 4.64301 15.1386 4.64293 15.3215V15.3215Z" fill="#E50A14"/>
<path d="M3.25035 13.9286H1.85742V15.3215C1.85734 15.1386 1.89331 14.9574 1.96328 14.7884C2.03326 14.6193 2.13586 14.4657 2.26522 14.3364C2.39458 14.207 2.54817 14.1044 2.7172 14.0345C2.88624 13.9645 3.0674 13.9285 3.25035 13.9286V13.9286Z" fill="#E50A14"/>
<path d="M1.85742 10.2141H4.64327V13H1.85742V10.2141Z" fill="#141414"/>
<path d="M3.71377 15.3215C3.71377 15.4133 3.68654 15.5031 3.63552 15.5794C3.5845 15.6558 3.51199 15.7153 3.42715 15.7505C3.34231 15.7856 3.24895 15.7948 3.15888 15.7769C3.06882 15.759 2.98608 15.7147 2.92115 15.6498C2.85621 15.5849 2.81199 15.5021 2.79408 15.4121C2.77616 15.322 2.78536 15.2286 2.8205 15.1438C2.85564 15.059 2.91515 14.9864 2.99151 14.9354C3.06786 14.8844 3.15763 14.8572 3.24947 14.8572C3.37261 14.8572 3.49071 14.9061 3.57778 14.9932C3.66486 15.0802 3.71377 15.1983 3.71377 15.3215" fill="#E50A14"/>
<path d="M3.25 16.7145H4.64293V15.3215C4.64301 15.5045 4.60704 15.6856 4.53706 15.8547C4.46709 16.0237 4.36449 16.1773 4.23513 16.3067C4.10577 16.436 3.95218 16.5386 3.78315 16.6086C3.61411 16.6786 3.43294 16.7145 3.25 16.7145V16.7145Z" fill="#E50A14"/>
<path d="M1.85742 6.50037H4.64327V9.28621H1.85742V6.50037Z" fill="#141414"/>
<path d="M1.85742 17.6431H4.64327V20.4289H1.85742V17.6431Z" fill="#141414"/>
<path d="M0 3.71385H21.3575V-0.000610352H0V3.71385ZM7.4283 1.39231H13.9286C14.0518 1.39231 14.1699 1.44123 14.2569 1.5283C14.344 1.61538 14.3929 1.73348 14.3929 1.85662C14.3929 1.97976 14.344 2.09786 14.2569 2.18494C14.1699 2.27201 14.0518 2.32093 13.9286 2.32093H7.4283C7.30516 2.32093 7.18706 2.27201 7.09999 2.18494C7.01291 2.09786 6.96399 1.97976 6.96399 1.85662C6.96399 1.73348 7.01291 1.61538 7.09999 1.5283C7.18706 1.44123 7.30516 1.39231 7.4283 1.39231V1.39231Z" fill="#141414"/>
<path d="M1.85742 15.3215V16.7145H3.25035C3.0674 16.7145 2.88624 16.6786 2.7172 16.6086C2.54817 16.5386 2.39458 16.436 2.26522 16.3067C2.13586 16.1773 2.03326 16.0237 1.96328 15.8547C1.89331 15.6856 1.85734 15.5045 1.85742 15.3215Z" fill="#E50A14"/>
<path d="M0 26H21.3575V4.64307H0V26ZM0.928616 6.03536C0.928616 5.91222 0.977534 5.79412 1.06461 5.70705C1.15168 5.61997 1.26978 5.57106 1.39292 5.57106H19.9646C20.0877 5.57122 20.2057 5.62019 20.2928 5.70723C20.3798 5.79427 20.4288 5.91227 20.4289 6.03536V24.6077C20.4288 24.7308 20.3798 24.8488 20.2928 24.9358C20.2057 25.0229 20.0877 25.0718 19.9646 25.072H1.3923C1.26915 25.072 1.15106 25.0231 1.06398 24.936C0.976907 24.8489 0.927989 24.7308 0.927989 24.6077L0.928616 6.03536Z" fill="#141414"/>
<path d="M10.6781 21.3575H9.28516V22.7505C9.28507 22.5675 9.32105 22.3864 9.39102 22.2173C9.46099 22.0483 9.56359 21.8947 9.69295 21.7653C9.82231 21.636 9.9759 21.5334 10.1449 21.4634C10.314 21.3934 10.4951 21.3575 10.6781 21.3575Z" fill="#E50A14"/>
<path d="M5.57094 6.50037H8.35616V9.28621H5.57031L5.57094 6.50037Z" fill="#141414"/>
<path d="M5.57094 21.3575H8.35616V24.1434H5.57031L5.57094 21.3575Z" fill="#141414"/>
<path d="M5.57094 10.2141H8.35616V13H5.57031L5.57094 10.2141Z" fill="#141414"/>
<path d="M9.28516 22.7499V24.1428H10.6781C10.4951 24.1429 10.314 24.1069 10.1449 24.0369C9.9759 23.967 9.82231 23.8644 9.69295 23.735C9.56359 23.6056 9.46099 23.4521 9.39102 23.283C9.32105 23.114 9.28507 22.9328 9.28516 22.7499V22.7499Z" fill="#E50A14"/>
<path d="M11.1435 22.7498C11.1436 22.8417 11.1165 22.9315 11.0655 23.0079C11.0146 23.0844 10.9421 23.144 10.8573 23.1792C10.7724 23.2145 10.6791 23.2238 10.589 23.2059C10.4988 23.1881 10.4161 23.1439 10.3511 23.079C10.2861 23.0141 10.2418 22.9313 10.2238 22.8413C10.2058 22.7512 10.215 22.6578 10.2501 22.5729C10.2853 22.488 10.3448 22.4155 10.4211 22.3644C10.4975 22.3134 10.5873 22.2861 10.6791 22.2861C10.8023 22.2861 10.9204 22.3351 11.0075 22.4221C11.0945 22.5092 11.1435 22.6273 11.1435 22.7504" fill="#E50A14"/>
<path d="M5.57094 17.6431H8.35616V20.4289H5.57031L5.57094 17.6431Z" fill="#141414"/>
<path d="M5.57094 13.9286H8.35616V16.7144H5.57031L5.57094 13.9286Z" fill="#141414"/>
<path d="M24.1426 7.42834H25.9998V9.28558H24.1426V7.42834Z" fill="#141414"/>
<path d="M25.7762 6.12077C25.7368 5.96396 25.6461 5.82482 25.5185 5.72541C25.391 5.62601 25.2339 5.57202 25.0722 5.57202C24.9105 5.57202 24.7535 5.62601 24.6259 5.72541C24.4984 5.82482 24.4077 5.96396 24.3683 6.12077L24.2754 6.50037H25.8722L25.7762 6.12077Z" fill="#E50A14"/>
<path d="M24.1426 10.2141H25.9998V22.2861H24.1426V10.2141Z" fill="#E50A14"/>
<path d="M24.1426 25.5357C24.1427 25.6587 24.1917 25.7767 24.2788 25.8638C24.3658 25.9508 24.4838 25.9998 24.6069 26H25.5355C25.6586 25.9998 25.7766 25.9508 25.8636 25.8638C25.9507 25.7767 25.9996 25.6587 25.9998 25.5357V23.2141H24.1426V25.5357Z" fill="#141414"/>
</g>
<defs>
<clipPath id="clip0_1801_6555">
<rect width="26" height="26" fill="white"/>
</clipPath>
</defs>
</svg>
