<svg width="26" height="26" viewBox="0 0 26 26" fill="none" xmlns="http://www.w3.org/2000/svg">
<path d="M7.06178 17.8956H1.13525C0.625574 17.8956 0.210938 18.3278 0.210938 18.8594V25.0365C0.210938 25.5678 0.625584 25.9999 1.13525 25.9999H7.06178C7.57145 25.9999 7.98609 25.5678 7.98609 25.0365L7.98628 18.8594C7.98628 18.328 7.57145 17.8958 7.06177 17.8958L7.06178 17.8956ZM1.9899 24.9072C1.58573 24.9072 1.25936 24.5672 1.25936 24.1457C1.25936 23.7296 1.58572 23.3843 1.9899 23.3843C2.39408 23.3843 2.72045 23.7295 2.72045 24.1457C2.72045 24.567 2.39408 24.9072 1.9899 24.9072V24.9072ZM1.9899 20.5115C1.58573 20.5115 1.25936 20.1715 1.25936 19.7501C1.25936 19.3339 1.58553 18.9886 1.9899 18.9886C2.39407 18.9886 2.72045 19.3339 2.72045 19.7501C2.72045 20.1713 2.39408 20.5115 1.9899 20.5115V20.5115ZM4.09866 22.7093C3.69449 22.7093 3.36811 22.3691 3.36811 21.9478C3.36811 21.5316 3.69448 21.1864 4.09866 21.1864C4.50284 21.1864 4.8292 21.5316 4.8292 21.9478C4.82902 22.3693 4.50284 22.7093 4.09866 22.7093ZM6.20722 24.9072C5.80305 24.9072 5.47668 24.5672 5.47668 24.1457C5.47668 23.7296 5.80304 23.3843 6.20722 23.3843C6.6114 23.3843 6.93777 23.7295 6.93777 24.1457C6.93777 24.567 6.6114 24.9072 6.20722 24.9072ZM6.20722 20.5115C5.80305 20.5115 5.47668 20.1715 5.47668 19.7501C5.47668 19.3339 5.80304 18.9886 6.20722 18.9886C6.6114 18.9886 6.93777 19.3339 6.93777 19.7501C6.93777 20.1713 6.6114 20.5115 6.20722 20.5115Z" fill="#141414"/>
<path d="M1.98836 24.9072C1.58419 24.9072 1.25781 24.5672 1.25781 24.1458C1.25781 23.7296 1.58418 23.3843 1.98836 23.3843C2.39254 23.3843 2.7189 23.7296 2.7189 24.1458C2.7189 24.567 2.39254 24.9072 1.98836 24.9072ZM1.98836 20.5115C1.58419 20.5115 1.25781 20.1716 1.25781 19.7501C1.25781 19.3339 1.58399 18.9886 1.98836 18.9886C2.39253 18.9886 2.7189 19.3339 2.7189 19.7501C2.7189 20.1713 2.39254 20.5115 1.98836 20.5115ZM4.09712 22.7093C3.69295 22.7093 3.36657 22.3691 3.36657 21.9478C3.36657 21.5316 3.69294 21.1864 4.09712 21.1864C4.5013 21.1864 4.82766 21.5316 4.82766 21.9478C4.82747 22.3693 4.5013 22.7093 4.09712 22.7093ZM6.20568 24.9072C5.80151 24.9072 5.47514 24.5672 5.47514 24.1458C5.47514 23.7296 5.8015 23.3843 6.20568 23.3843C6.60986 23.3843 6.93623 23.7296 6.93623 24.1458C6.93623 24.567 6.60986 24.9072 6.20568 24.9072ZM6.20568 20.5115C5.80151 20.5115 5.47514 20.1716 5.47514 19.7501C5.47514 19.3339 5.8015 18.9886 6.20568 18.9886C6.60986 18.9886 6.93623 19.3339 6.93623 19.7501C6.93623 20.1713 6.60986 20.5115 6.20568 20.5115Z" fill="#E50A14"/>
<path d="M1.67119 4.40147L0.574077 5.13152C-0.00253572 5.51984 -0.173849 6.32593 0.19366 6.92828L4.21573 13.4997C4.20264 13.4533 1.6897 4.46799 1.67117 4.40112L1.67119 4.40147Z" fill="#E50A14"/>
<path d="M5.45359 16.3771V1.51062L2.77458 2.18922C2.13941 2.38474 1.73976 3.09723 1.93765 3.79823C1.90529 3.68205 2.36165 5.31133 5.45364 16.3771H5.45359Z" fill="#141414"/>
<path d="M20.543 6.80496V22.154L23.2081 21.276C23.8725 21.0719 24.2525 20.3489 24.0588 19.6629C22.5053 14.3356 20.5561 6.85447 20.543 6.80457V6.80496Z" fill="#141414"/>
<path d="M7.12044 0.00012207H18.8801C19.5669 0.00012207 20.1258 0.584302 20.1258 1.30267V22.1582C20.1258 22.8764 19.5669 23.4608 18.8801 23.4608H8.40458L8.40476 18.8591C8.40476 18.0865 7.80182 17.4582 7.06098 17.4582H5.875V1.30272C5.875 0.584552 6.43366 0.00012207 7.12044 0.00012207Z" fill="#141414"/>
<path d="M25.8066 16.5338L22 10.5303L24.331 19.0559L25.4266 18.3274C26.0032 17.9405 26.1739 17.1356 25.8066 16.5338L25.8066 16.5338Z" fill="#141414"/>
<path d="M14.5158 8.4812C13.9842 8.4812 13.4821 8.75178 13.1724 9.20541C13.0938 9.32062 12.9094 9.32062 12.8308 9.20541C12.5211 8.75179 12.0175 8.4812 11.4831 8.4812C10.5706 8.4812 9.82812 9.25706 9.82812 10.2109C9.82812 12.0971 12.3928 14.3986 13.0016 14.9183C13.6104 14.3986 16.1751 12.0969 16.1751 10.2109C16.1751 9.25706 15.4307 8.4812 14.5158 8.4812H14.5158Z" fill="#E50A14"/>
<path d="M8.93939 1.48047C8.77986 1.48047 8.6293 1.56176 8.53653 1.69783C8.45835 1.81304 8.27375 1.81381 8.19483 1.69802C8.10169 1.56176 7.95038 1.48047 7.78991 1.48047C7.51591 1.48047 7.29297 1.71381 7.29297 2.00037C7.29297 2.54677 7.97899 3.26689 8.36557 3.60899C8.75216 3.26687 9.43816 2.54677 9.43816 2.00037C9.43816 1.71362 9.21429 1.48047 8.93935 1.48047L8.93939 1.48047Z" fill="#E50A14"/>
<path d="M18.2091 19.7886C18.0498 19.7886 17.8988 19.8699 17.8059 20.0059C17.7666 20.0636 17.7028 20.0977 17.6351 20.0977C17.567 20.0977 17.5036 20.0636 17.4644 20.0059C17.3714 19.8701 17.2201 19.7886 17.0596 19.7886C16.7854 19.7886 16.5625 20.0217 16.5625 20.3083C16.5625 20.8547 17.2485 21.575 17.6351 21.9173C18.0217 21.5752 18.7079 20.8547 18.7079 20.3083C18.7081 20.0217 18.4842 19.7886 18.2091 19.7886H18.2091Z" fill="#E50A14"/>
</svg>
