<svg width="300" height="160" viewBox="0 0 300 160" fill="none" xmlns="http://www.w3.org/2000/svg">
<path d="M0 10C0 4.47715 4.47715 0 10 0H290C295.523 0 300 4.47715 300 10V160H0V10Z" fill="white"/>
<path d="M149.903 94.9547C148.736 90.5085 145.236 89.6193 142.174 87.8853C140.618 86.996 138.674 81.6606 138.868 77.0811C135.368 79.8822 133.229 82.0163 130.312 83.617C122.583 88.4188 123.701 96.0218 122 104.87H132.257L134.007 99.7121L134.396 104.87H149.903H165.41L165.799 99.7121L167.743 104.87H178C176.25 96.0218 177.222 88.3744 169.493 83.617C166.576 82.0163 164.438 79.8822 160.986 77.0366C161.181 81.6606 159.431 86.9516 157.681 87.8408C154.569 89.6193 151.264 90.5085 149.903 94.9547Z" fill="#E50A14"/>
<path d="M147.302 108C148.977 108 150.837 108 152.698 108C153.442 108 154 108.817 154 109.43C154 112.494 154 115.557 154 118.57C154 119.387 153.442 120 152.698 120C150.837 120 148.977 120 147.302 120C146.558 120 146 119.387 146 118.57C146 115.506 146 112.443 146 109.43C146 108.817 146.558 108 147.302 108Z" fill="#141414"/>
<path d="M130.448 108H135.843C136.587 108 137.146 108.817 137.146 109.43V118.57C137.146 119.387 136.587 120 135.843 120H130.448C129.704 120 129.146 119.387 129.146 118.57V109.43C129.146 108.817 129.704 108 130.448 108Z" fill="#E50A14"/>
<path d="M163.302 108H168.698C169.442 108 170 108.817 170 109.43V118.57C170 119.387 169.442 120 168.698 120H163.302C162.558 120 162 119.387 162 118.57V109.43C162 108.817 162.558 108 163.302 108Z" fill="#E50A14"/>
<path d="M142.903 40L146.208 41.6006C145.625 41.9563 144.847 42.312 144.264 42.8455L141.931 41.9563L142.903 40Z" fill="#141414"/>
<path d="M158.215 47.2917L160.743 48.5367L160.354 49.2481L158.215 48.3588V47.8253C158.215 47.6474 158.215 47.4696 158.215 47.2917Z" fill="#141414"/>
<path d="M141.59 43.9126H143.146C142.563 44.624 142.174 45.3354 141.979 46.0468H141.59V43.9126Z" fill="#141414"/>
<path d="M157.097 44.4463L161.569 44.6241V45.3355L157.68 45.5134C157.631 45.1577 157.486 44.802 157.097 44.4463Z" fill="#141414"/>
<path d="M149.902 42.6677C146.402 42.6677 143.68 44.9797 143.68 47.8253V48.181C145.625 47.6474 147.569 47.2917 149.902 47.2917C152.236 47.2917 154.375 47.6474 156.319 48.181V47.8253C156.319 44.9797 153.402 42.6677 149.902 42.6677Z" fill="#141414"/>
<path d="M153.402 71.3901C152.236 71.2123 151.263 69.4338 149.902 70.1452C148.541 69.4338 147.569 71.2123 146.402 71.3901C149.125 73.5243 150.875 73.5243 153.402 71.3901Z" fill="#141414"/>
<path d="M141.396 59.6966L141.201 56.851C141.201 56.851 139.257 60.408 138.674 64.6318C135.757 60.5414 136.924 49.2036 149.903 49.2036C163.076 49.2036 164.049 60.5414 161.326 64.6318C160.743 60.3635 158.799 56.851 158.799 56.851L158.41 59.6966H141.396Z" fill="#141414"/>
</svg>
