<svg width="60" height="60" viewBox="0 0 60 60" fill="none" xmlns="http://www.w3.org/2000/svg">
<g clip-path="url(#clip0_1503_36149)">
<path d="M34.0566 54.8227C33.6225 55.3167 33.2511 55.7494 32.8184 56.1809C32.5085 56.1809 32.2614 56.2421 31.9515 56.2421V52.2913C30.0321 49.9451 28.7311 47.9703 27.8028 45.933H21.2391C19.1477 41.4959 17.9484 36.6935 17.7088 31.7968H27.2445C28.0957 29.5439 29.4263 27.5015 31.1448 25.81C31.3932 25.5623 31.6403 25.3773 31.8887 25.1309V15.1333H40.4333C41.228 16.9432 41.8501 18.8237 42.2912 20.7499C42.6011 20.7499 43.468 20.6887 43.468 20.6887C44.3412 20.6787 45.2131 20.7617 46.0686 20.9363C45.6424 18.9601 45.0628 17.0199 44.3349 15.1333H51.7654C54.092 18.5239 55.5776 22.4168 56.0998 26.4917C57.8398 28.3972 59.1119 30.6796 59.8157 33.159C59.9406 32.0934 60.0026 31.0214 60.0014 29.9485C60.1321 13.4648 46.6269 0.0078125 30.0321 0.0078125C13.4987 0.0078125 0 13.4648 0 30.0085C0 46.5521 13.4987 59.9453 30.0935 59.9453C32.7044 59.9325 35.3039 59.6011 37.834 58.9586C36.4101 57.4152 35.1091 56.057 34.0566 54.8227ZM32.9413 3.8335C35.1606 6.13012 37.0752 8.70113 38.6381 11.4836H31.8887V3.70967C32.2331 3.78126 32.5831 3.8227 32.9347 3.8335H32.9413ZM28.2343 3.77223V11.55H22.4812C24.0199 8.69868 25.9574 6.07987 28.2356 3.77223H28.2343ZM8.22943 15.1919H16.6511C15.0675 19.3414 14.1681 23.719 13.9877 28.155H3.71593C4.0767 23.5178 5.63374 19.0523 8.23597 15.1919H8.22943ZM9.09631 45.933C5.95992 41.8658 4.08719 36.9718 3.70939 31.8555H13.9877C14.2405 36.712 15.3092 41.4917 17.1492 45.9956L9.09631 45.933ZM20.6141 15.1919H28.1676V28.155H17.6474C17.8989 23.698 18.9037 19.3153 20.6193 15.1919H20.6141ZM23.2147 49.5749H28.2369V56.0623C26.287 54.1283 24.6007 51.9471 23.2213 49.5749H23.2147Z" fill="#E50A14"/>
<path d="M32.9409 3.8333C35.1602 6.12992 37.0748 8.70093 38.6377 11.4834H31.8883V3.70947C32.2327 3.78107 32.5827 3.8225 32.9343 3.8333H32.9409ZM8.22903 15.1917H16.6507C15.0671 19.3412 14.1677 23.7188 13.9873 28.1548H3.71552C4.07629 23.5176 5.63334 19.0522 8.23556 15.1917H8.22903ZM9.0959 45.9328C5.95952 41.8656 4.08679 36.9716 3.70898 31.8553H13.9873C14.2401 36.7118 15.3088 41.4915 17.1488 45.9954L9.0959 45.9328ZM23.2143 49.5747H28.2365V56.0621C26.2866 54.1281 24.6003 51.9469 23.2209 49.5747H23.2143Z" fill="#141414"/>
<path d="M43.468 24.2041H43.2823C41.433 24.2052 39.6028 24.5773 37.9007 25.2984C36.1987 26.0195 34.6597 27.0747 33.3754 28.4013C30.712 31.0564 29.2881 34.4507 29.3496 38.0313C29.4123 45.5627 31.9515 48.2779 42.724 59.8227C42.8482 59.9465 43.0339 60.0078 43.3438 60.0078H43.5294C43.7766 60.0078 44.025 59.9465 44.1479 59.8227C54.8616 48.2792 57.3994 45.5627 57.4609 38.0313C57.4609 34.4507 56.037 31.0564 53.4364 28.4013C50.7115 25.6861 47.1826 24.2041 43.4667 24.2041H43.468ZM43.4065 46.6772C41.7655 46.6772 40.1612 46.1921 38.7967 45.2831C37.4322 44.3742 36.3687 43.0823 35.7407 41.5709C35.1127 40.0594 34.9484 38.3962 35.2685 36.7916C35.5887 35.1871 36.379 33.7132 37.5394 32.5563C38.6998 31.3995 40.1782 30.6117 41.7878 30.2925C43.3973 29.9734 45.0657 30.1372 46.5818 30.7632C48.098 31.3893 49.3938 32.4495 50.3056 33.8098C51.2173 35.1701 51.7039 36.7694 51.7039 38.4054C51.7039 40.5992 50.8297 42.7032 49.2737 44.2544C47.7176 45.8057 45.6071 46.6772 43.4065 46.6772Z" fill="#141414"/>
</g>
<defs>
<clipPath id="clip0_1503_36149">
<rect width="60" height="60" fill="white"/>
</clipPath>
</defs>
</svg>
