<svg width="134" height="26" viewBox="0 0 134 26" fill="none" xmlns="http://www.w3.org/2000/svg">
<path fill-rule="evenodd" clip-rule="evenodd" d="M5.99252 2H64.0075C65.6633 2 67 3.33333 67 4.98507V26H5.99252C4.33666 26 3 24.6667 3 23.0149V4.98507C3 3.34328 4.33666 2 5.99252 2Z" fill="#E50A14"/>
<path d="M6 22.1593V5.84067C6 5.58352 6.20836 5.36594 6.46633 5.34616C7.54782 5.27693 8.55986 5.21759 9.51236 5.16814C10.5939 5.1088 11.6059 5.06923 12.5385 5.03956C13.4712 5.01978 14.3245 5 15.1083 5C17.2812 5 19.0076 5.13847 20.2975 5.41539C21.5873 5.69231 22.5101 6.12747 23.0657 6.74066C23.6213 7.35385 23.9091 8.14506 23.9091 9.12418C23.9091 10.0539 23.6809 10.8154 23.2245 11.4088C22.7681 12.0022 21.9941 12.5066 20.9027 12.922V12.9714C22.2422 13.2582 23.284 13.7923 24.0281 14.5736C24.7723 15.3549 25.1394 16.3242 25.1394 17.4714C25.1394 18.5 24.9707 19.3703 24.6334 20.0725C24.296 20.7747 23.7602 21.3385 23.0062 21.7736C22.2521 22.2088 21.2302 22.5154 19.9502 22.7132C18.6604 22.9011 17.053 23 15.1083 23C14.384 23 13.7788 23 13.2728 22.9901C12.7668 22.9802 12.3103 22.9703 11.8837 22.9703C11.4571 22.9604 10.9907 22.9407 10.4946 22.911C9.98861 22.8813 9.38338 22.8418 8.67892 22.8022C8.07368 22.7626 7.33946 22.7231 6.47625 22.6736C6.21828 22.6341 6 22.4165 6 22.1593ZM12.6278 11.9725H16.0608C16.3982 11.9725 16.676 11.933 16.9042 11.8637C17.1324 11.7846 17.3011 11.6758 17.4102 11.5176C17.5194 11.3593 17.569 11.1418 17.569 10.8846C17.569 10.5978 17.4995 10.3802 17.3606 10.2121C17.2217 10.044 16.9538 9.92527 16.5569 9.84615C16.1601 9.76703 15.6044 9.73736 14.89 9.73736C14.7015 9.73736 14.5428 9.73736 14.4039 9.73736C14.265 9.73736 14.1261 9.73736 14.007 9.74725C13.878 9.75714 13.7589 9.76703 13.6399 9.77692C13.5208 9.78681 13.3819 9.7967 13.2132 9.80659C13.0446 9.81648 12.856 9.82637 12.6378 9.84615V11.9725H12.6278ZM12.6278 18.2033C12.7767 18.2033 12.9453 18.2132 13.114 18.2231C13.2926 18.2429 13.4712 18.2527 13.6696 18.2626C13.8582 18.2725 14.0467 18.2824 14.2352 18.2923C14.4237 18.3022 14.5725 18.3022 14.6817 18.3022C15.664 18.3022 16.4081 18.2725 16.9141 18.2033C17.4201 18.1341 17.7575 18.0154 17.946 17.8374C18.1345 17.6593 18.2238 17.422 18.2238 17.1253C18.2238 16.6901 18.0651 16.3934 17.7575 16.2352C17.4499 16.0769 16.8447 15.9978 15.9418 15.9978H12.6278V18.2033Z" fill="white"/>
<path d="M26.7467 22.2582V5.74176C26.7467 5.46484 26.965 5.24725 27.2428 5.24725H43.0286C43.3064 5.24725 43.5247 5.46484 43.5247 5.74176V9.67802C43.5247 9.95495 43.3064 10.1725 43.0286 10.1725H33.2158V11.8242H41.5039C41.7817 11.8242 42 12.0418 42 12.3187V15.7011C42 15.978 41.7817 16.1956 41.5039 16.1956H33.2158V17.867H43.5843C43.8621 17.867 44.0804 18.0846 44.0804 18.3615V22.2484C44.0804 22.5253 43.8621 22.7429 43.5843 22.7429H27.2428C26.965 22.7527 26.7467 22.5253 26.7467 22.2582Z" fill="white"/>
<path d="M58.9335 10.6967C58.6557 10.6967 58.4374 10.9143 58.4374 11.1912V22.2484C58.4374 22.5253 58.2191 22.7429 57.9413 22.7429H52.3155C52.0377 22.7429 51.8195 22.5253 51.8195 22.2484V10.6967H45.9953C45.7175 10.6967 45.4992 10.4791 45.4992 10.2022V5.74176C45.4992 5.46484 45.7175 5.24725 45.9953 5.24725C52.9969 5.24725 59.9984 5.24725 67 5.24725V10.6967C64.3112 10.6967 61.6223 10.6967 58.9335 10.6967Z" fill="white"/>
<path fill-rule="evenodd" clip-rule="evenodd" d="M7.59724 1.29391H8.88896C9.01198 1.29391 9.1145 1.18956 9.1145 1.06434V0.229566C9.1145 0.104349 9.01198 0 8.88896 0H7.59724C7.47422 0 7.3717 0.104349 7.3717 0.229566V1.06434C7.3717 1.18956 7.47422 1.29391 7.59724 1.29391Z" fill="#E50A14"/>
<path fill-rule="evenodd" clip-rule="evenodd" d="M6.36702 3.13046H7.65873C7.78175 3.13046 7.88427 3.02611 7.88427 2.90089V2.06611C7.88427 1.9409 7.78175 1.83655 7.65873 1.83655H6.36702C6.244 1.83655 6.14148 1.9409 6.14148 2.06611V2.90089C6.14148 3.02611 6.244 3.13046 6.36702 3.13046Z" fill="white"/>
<path fill-rule="evenodd" clip-rule="evenodd" d="M1.01558 3.16171H2.3073C2.43032 3.16171 2.53283 3.05736 2.53283 2.93214V2.09736C2.53283 1.97215 2.43032 1.8678 2.3073 1.8678H1.01558C0.892558 1.8678 0.790039 1.97215 0.790039 2.09736V2.93214C0.790039 3.05736 0.892558 3.16171 1.01558 3.16171Z" fill="#E50A14"/>
<path fill-rule="evenodd" clip-rule="evenodd" d="M2.8404 7.63827H4.13212C4.25514 7.63827 4.35766 7.53392 4.35766 7.4087V6.57393C4.35766 6.44871 4.25514 6.34436 4.13212 6.34436H2.8404C2.71738 6.34436 2.61487 6.44871 2.61487 6.57393V7.4087C2.61487 7.53392 2.71738 7.63827 2.8404 7.63827Z" fill="white"/>
<path fill-rule="evenodd" clip-rule="evenodd" d="M0.226242 12H1.51796C1.64098 12 1.7435 11.8956 1.7435 11.7704V10.9356C1.7435 10.8104 1.64098 10.7061 1.51796 10.7061H0.226242C0.103221 10.7061 0.000706897 10.8104 0.000706897 10.9356V11.7704C-0.00954483 11.8956 0.0929698 12 0.226242 12Z" fill="#E50A14"/>
<path fill-rule="evenodd" clip-rule="evenodd" d="M22.4827 4.87301H23.7745C23.8975 4.87301 24 4.76866 24 4.64345V3.80867C24 3.68345 23.8975 3.5791 23.7745 3.5791H22.4827C22.3597 3.5791 22.2572 3.68345 22.2572 3.80867V4.64345C22.2572 4.76866 22.3597 4.87301 22.4827 4.87301Z" fill="white"/>
<path d="M72 18.1214C72 15.4527 73.8727 13.2427 76.5956 13.2427C77.7799 13.2427 78.8327 13.6597 79.5615 14.4624V13.4304H81.1304V22.8124H79.5615V21.7803C78.8327 22.583 77.7799 23 76.5956 23C73.8828 23 72 20.79 72 18.1214ZM79.5615 19.9561V16.2554C79.0351 15.3902 78.0633 14.7126 76.7171 14.7126C74.8748 14.7126 73.6196 16.2345 73.6196 18.1109C73.6196 19.9873 74.8748 21.5093 76.7171 21.5093C78.0735 21.5197 79.0351 20.8421 79.5615 19.9561Z" fill="white"/>
<path d="M83.3675 18.1214C83.3675 15.4527 85.2402 13.2427 87.9631 13.2427C89.1474 13.2427 90.2002 13.6597 90.929 14.4624V9.11467H92.498V22.8124H90.929V21.7803C90.2002 22.583 89.1474 23 87.9631 23C85.2503 23 83.3675 20.79 83.3675 18.1214ZM90.929 19.9561V16.2554C90.4026 15.3902 89.4309 14.7126 88.0846 14.7126C86.2423 14.7126 84.9871 16.2345 84.9871 18.1109C84.9871 19.9873 86.2423 21.5093 88.0846 21.5093C89.441 21.5197 90.4026 20.8421 90.929 19.9561Z" fill="white"/>
<path d="M94.0872 13.4304H95.8384L98.9561 20.5294L102.074 13.4304H103.825L99.614 22.8124H98.2981L94.0872 13.4304Z" fill="white"/>
<path d="M105.07 10.1467C105.07 9.53164 105.576 9 106.204 9C106.831 9 107.317 9.52122 107.317 10.1467C107.317 10.7826 106.821 11.2934 106.204 11.2934C105.586 11.2934 105.07 10.7826 105.07 10.1467ZM105.394 13.4304H106.963V22.8124H105.394V13.4304Z" fill="white"/>
<path d="M109.119 20.8213L110.394 20.0916C110.718 21.0506 111.71 21.5719 112.712 21.5719C113.583 21.5719 114.302 21.1236 114.302 20.3105C114.302 19.6329 113.897 19.2264 112.712 18.8511L111.801 18.5488C110.303 18.1005 109.524 17.1206 109.524 15.8071C109.544 14.1914 110.911 13.2323 112.662 13.2323C114.008 13.2323 115.071 13.8161 115.668 14.8689L114.504 15.6925C114.099 15.0879 113.482 14.6188 112.611 14.6188C111.842 14.6188 111.103 15.0462 111.103 15.7446C111.103 16.3075 111.397 16.7766 112.399 17.0998L113.401 17.4229C114.97 17.9129 115.881 18.7573 115.881 20.1854C115.881 21.9888 114.535 23 112.712 23C111.063 23 109.666 22.2911 109.119 20.8213Z" fill="white"/>
<path d="M117.409 18.1214C117.409 15.4214 119.434 13.2427 122.187 13.2427C124.92 13.2427 126.945 15.4214 126.945 18.1214C126.945 20.8213 124.92 23 122.187 23C119.424 23 117.409 20.8213 117.409 18.1214ZM125.335 18.1214C125.335 16.245 124.08 14.7439 122.187 14.7439C120.294 14.7439 119.019 16.245 119.019 18.1214C119.019 19.9978 120.294 21.4989 122.187 21.4989C124.08 21.4989 125.335 19.9978 125.335 18.1214Z" fill="white"/>
<path d="M129.172 13.4304H130.741V14.8168C131.105 14.0454 132.107 13.3366 133.2 13.3366C133.514 13.3366 133.767 13.3783 134 13.4304L133.798 15.0462C133.544 14.9523 133.271 14.9315 133.018 14.9315C132.107 14.9315 131.105 15.5674 130.741 16.7349V22.8124H129.172V13.4304Z" fill="white"/>
</svg>
