<svg width="80" height="80" viewBox="0 0 80 80" fill="none" xmlns="http://www.w3.org/2000/svg">
<path d="M34.2012 13.6288V21.316L37.0514 20.346V12.7275L34.2012 13.6288Z" fill="#E50A14"/>
<path d="M28.5 15.4313V23.252L31.3502 22.282V14.53L28.5 15.4313Z" fill="#E50A14"/>
<path d="M18.8535 18.4845L20.9122 25.8301L25.2202 24.3653L20.8506 17.8542L18.8535 18.4845Z" fill="#E50A14"/>
<path d="M25.65 16.3386L23.6973 16.9552L25.65 19.873V16.3386Z" fill="#E50A14"/>
<path d="M79.8023 4.34921V0L72.8848 5.03645L74.5198 11.2333L77.5625 9.07346C78.2294 8.48354 78.7718 7.76165 79.1568 6.95159C79.5418 6.14154 79.7614 5.26018 79.8023 4.36099V4.34921Z" fill="#E50A14"/>
<path d="M15.676 17.5165V13.1575C15.676 12.3868 15.3757 11.6476 14.8412 11.1026C14.3067 10.5576 13.5818 10.2515 12.8258 10.2515C12.0699 10.2515 11.345 10.5576 10.8105 11.1026C10.2759 11.6476 9.97566 12.3868 9.97566 13.1575C9.97566 15.0843 9.22494 16.9322 7.88866 18.2946C6.55237 19.6571 4.73998 20.4225 2.85019 20.4225H0V26.2345H7.12547C9.39259 26.2325 11.5663 25.3133 13.1694 23.6788C14.7725 22.0443 15.674 19.828 15.676 17.5165V17.5165Z" fill="#141414"/>
<path d="M39.9004 11.8224V19.3741L42.7506 18.4081V10.9231L39.9004 11.8224Z" fill="#E50A14"/>
<path d="M51.3008 8.21931V15.2998C52.8734 14.4073 54.2058 13.1332 55.1799 11.5902C56.1541 10.0473 56.74 8.28311 56.8856 6.4541L51.3008 8.21931Z" fill="#E50A14"/>
<path d="M45.6016 10.0199V17.4381L48.4516 16.4721V9.1167L45.6016 10.0199Z" fill="#E50A14"/>
<path d="M12.4316 27.7978L35.5065 46.0958L38.0563 43.4961L26.8866 26.8612L20.3928 29.0662C20.2103 29.1283 20.0172 29.152 19.8254 29.1359C19.6336 29.1197 19.447 29.0641 19.2769 28.9723C19.1068 28.8805 18.9567 28.7545 18.8357 28.6019C18.7147 28.4493 18.6253 28.2733 18.5729 28.0844L17.1498 23.0225C16.0711 25.0536 14.4276 26.7143 12.4258 27.7958L12.4316 27.7978Z" fill="#E50A14"/>
<path d="M77.9885 35.5477L74.9496 24.0178L68.5039 28.3985L69.7634 38.6932L77.9885 35.5477Z" fill="#E50A14"/>
<path d="M78.7321 38.3652L69.8965 41.7464C69.8796 41.9683 69.8513 42.1892 69.8117 42.4081C69.7358 42.7162 69.7298 43.0379 69.7944 43.3486C70.0944 44.6555 70.8111 45.8239 71.8322 46.671C72.8533 47.518 74.1211 47.9959 75.4371 48.0296C76.4094 47.9727 77.3446 47.6289 78.1289 47.0402C78.9132 46.4514 79.5128 45.643 79.8549 44.7133C80.0433 44.0163 80.04 43.28 79.8453 42.5848L78.7321 38.3652Z" fill="#E50A14"/>
<path d="M74.1624 21.051L70.1587 5.88867H59.794C59.6299 8.81864 58.6521 11.6406 56.9746 14.0255L67.216 25.7752L74.1624 21.051ZM66.9753 11.7046H69.8274V14.6126H66.9753V11.7046Z" fill="#E50A14"/>
<path d="M11.3984 37.1322L34.1094 54.1874C34.1402 54.0009 34.1864 53.8242 34.2134 53.6357C34.4309 52.0311 34.4503 50.4051 34.2712 48.7956L11.3984 30.6584V37.1322Z" fill="#141414"/>
<path d="M8.55058 39.3117V29.1406H0V49.3787C2.37307 49.0266 4.54272 47.8158 6.1126 45.9675C7.68248 44.1192 8.54783 41.7567 8.55058 39.3117V39.3117Z" fill="#141414"/>
<path d="M7.12547 79.9941H19.9513C19.9513 79.9941 20.1439 69.8819 19.9648 68.5782C19.5576 65.5912 18.2013 62.8226 16.1036 60.6966C14.984 59.5962 13.6793 58.7103 12.252 58.0812L13.3959 55.4127C15.1388 56.1821 16.7318 57.2649 18.0987 58.6093C21.1082 61.6341 22.8487 65.7317 22.9536 70.039C26.4201 67.6592 31.2635 63.4082 33.3722 57.2329L11.3295 40.6863C11.0187 43.6485 9.72705 46.4143 7.66744 48.5275C5.60783 50.6406 2.90333 51.975 0 52.3104V71.4037C1.99161 71.7489 3.7993 72.8012 5.1033 74.3743C6.40731 75.9475 7.1236 77.9402 7.12547 80V79.9941Z" fill="#E50A14"/>
<path d="M59.5223 32.5729C60.7327 33.566 62.0394 34.4305 63.422 35.153C64.2366 35.6419 64.9453 36.0445 65.5577 36.3959C65.9699 36.6296 66.3281 36.8436 66.6882 37.0517L65.6155 28.316L55.0351 16.1794C53.6591 17.3908 52.0614 18.3124 50.3343 18.8911L29.7031 25.9009L40.1025 41.4029L55.9884 25.2038C56.1985 24.9889 56.4694 24.8465 56.7629 24.7965C57.0565 24.7465 57.358 24.7915 57.6252 24.9251C57.8924 25.0587 58.1119 25.2743 58.2528 25.5416C58.3938 25.8088 58.4491 26.1144 58.4111 26.4153C58.0664 29.1643 58.4419 31.2417 59.5184 32.569L59.5223 32.5729Z" fill="#E50A14"/>
<path d="M55.6267 53.8418C64.0598 53.5296 69.0804 45.3476 69.6254 44.4169L67.1777 42.9286C66.7136 43.714 62.4499 50.6825 55.5247 50.9378C50.1825 51.0988 45.7936 47.3053 43.6733 45.4713C42.7034 44.6306 41.8018 43.7113 40.9772 42.7224L38.8164 44.6133C39.1727 45.0472 39.5559 45.4497 39.9411 45.8542C40.384 54.8413 46.2539 62.4107 54.1342 63.9893C55.113 64.1852 56.1083 64.2825 57.1058 64.2799C64.7782 64.2799 71.8959 58.4345 74.0528 49.8677L71.5185 49.0823C69.4482 57.3173 62.0166 62.6109 54.608 61.1187C51.6829 60.4181 49.0217 58.8627 46.9505 56.6432C44.8793 54.4237 43.4881 51.6364 42.9473 48.6228C45.4508 50.7022 49.8378 53.8399 55.1376 53.8399C55.3013 53.8399 55.465 53.8301 55.6306 53.8301L55.6267 53.8418Z" fill="#141414"/>
</svg>
