<svg width="40" height="40" viewBox="0 0 40 40" fill="none" xmlns="http://www.w3.org/2000/svg">
<path d="M36 36H20.4986V35.1314H23.4901L16.7365 23.0629L9.52975 35.1314H14.3343V36H4.95184V35.1314H7.98867L15.9207 21.6914L6.44759 4.91429H4V4H19.2748V4.91429H16.1926L22.3116 15.9771L29.1558 4.91429H24.4419V4H33.7337V4.91429H30.7422L23.0822 17.2571L33.3711 35.1314H36V36Z" fill="#E50A14"/>
<path d="M24 18.3038C24 17.0474 24.4764 16.0159 25.4292 15.2096C26.3819 14.4032 27.8111 14 29.7166 14C31.6222 14 33.0842 14.4032 34.1027 15.2096C35.1376 16.0159 35.655 17.2255 35.655 18.8383C35.655 19.3633 35.614 19.8415 35.5318 20.2729C35.4497 20.6854 35.2608 21.1261 34.9651 21.5949C34.6858 22.045 34.4066 22.4482 34.1273 22.8045C33.8645 23.1608 33.4045 23.6296 32.7474 24.211C31.7618 25.1111 30.7269 26.0113 29.6427 26.9114C28.5585 27.7928 27.9261 28.3085 27.7454 28.4585L26.2423 29.6962H32.1561C33.2895 29.6962 34.0945 29.4149 34.5708 28.8523C35.0472 28.2897 35.384 27.4083 35.5811 26.2082H36L35.7536 34H24.1725V30.737L26.6612 28.121C28.3532 26.3582 29.5524 24.7923 30.2587 23.4233C30.9651 22.0356 31.3183 20.5166 31.3183 18.8664C31.3183 17.1974 31.1622 16.0628 30.8501 15.4627C30.538 14.8439 30.0123 14.5345 29.2731 14.5345C28.5339 14.5345 28.0164 14.7501 27.7207 15.1814C27.4251 15.6128 27.2772 16.0253 27.2772 16.4191C27.2772 16.8129 27.3265 17.1599 27.4251 17.4599H28.1643C28.2957 17.8537 28.3614 18.3319 28.3614 18.8945C28.3614 19.4383 28.1561 19.9165 27.7454 20.3291C27.3347 20.7229 26.7926 20.9198 26.1191 20.9198C25.4456 20.9198 24.9199 20.676 24.5421 20.1885C24.1807 19.6821 24 19.0539 24 18.3038Z" fill="#141414"/>
</svg>
