<svg width="80" height="80" viewBox="0 0 80 80" fill="none" xmlns="http://www.w3.org/2000/svg">
<path d="M34.1259 60H45.8741C46.8045 63.8126 49.8615 70.9081 60 76H20C30.1089 70.9333 33.1955 63.8126 34.1259 60V60Z" fill="#141414"/>
<path d="M49.891 20.4638L53.7314 12.4633L52 0H42L50.929 11.9185C51.0941 12.1475 51.1958 12.4161 51.2239 12.697C51.252 12.978 51.2055 13.2613 51.089 13.5185L47.5687 21.2163L49.731 23.2639V21.1514C49.7318 20.9131 49.7865 20.678 49.891 20.4638Z" fill="#141414"/>
<path d="M44 48H36V60H44V48Z" fill="#E50A14"/>
<path d="M15.9844 78.3999C15.9841 78.6099 16.0252 78.8179 16.1054 79.012C16.1856 79.2061 16.3032 79.3825 16.4516 79.5312C16.6001 79.6798 16.7763 79.7977 16.9703 79.8781C17.1643 79.9585 17.3723 79.9999 17.5823 79.9999H62.3861C62.8103 79.9994 63.2169 79.8306 63.5169 79.5307C63.8169 79.2307 63.9856 78.8241 63.9862 78.3999V73.5996H15.9844V78.3999Z" fill="#E50A14"/>
<path d="M16.7832 23.6467C15.1267 21.4086 14.0994 18.7679 13.8078 15.9988H16.7832V6.40041H5.67954C5.28182 6.39836 4.89759 6.54451 4.60176 6.81034C4.30593 7.07618 4.11971 7.44266 4.07941 7.83833C4.06427 7.99833 2.25439 28.5119 16.7832 34.4798V23.6467Z" fill="#141414"/>
<path d="M75.8893 7.83852C75.8491 7.44265 75.6629 7.07593 75.3671 6.80974C75.0714 6.54355 74.6871 6.39694 74.2892 6.39845H63.1855V15.999H66.1609C65.8703 18.7683 64.8428 21.4092 63.1855 23.6469V34.48C77.7187 28.5121 75.9888 7.99853 75.8893 7.83852Z" fill="#141414"/>
<path d="M63.9883 26.3517V1.60012C63.9886 1.38991 63.9474 1.18171 63.8671 0.987454C63.7868 0.793194 63.6689 0.616688 63.5203 0.46805C63.3716 0.319411 63.1951 0.201563 63.0008 0.121252C62.8066 0.0409411 62.5984 -0.000254901 62.3882 2.97387e-05H50.3872C50.1132 0.00366085 49.8446 0.0760786 49.606 0.210626C49.3673 0.345173 49.1663 0.537535 49.0214 0.770038C48.8766 1.00254 48.7924 1.26773 48.7768 1.54123C48.7611 1.81474 48.8145 2.08779 48.9319 2.33529L53.7323 12.4634L49.892 20.4638C49.7875 20.678 49.7328 20.9131 49.732 21.1514V23.264L47.5697 21.2163L51.0899 13.5186C51.2064 13.2614 51.253 12.978 51.2249 12.6971C51.1968 12.4161 51.095 12.1476 50.9299 11.9185L42.9293 0.720069C42.7829 0.497437 42.5832 0.314942 42.3483 0.189186C42.1134 0.0634301 41.8508 -0.00159565 41.5843 2.97387e-05H17.5823C17.3723 2.95465e-05 17.1643 0.041434 16.9703 0.121872C16.7763 0.202311 16.6001 0.320205 16.4516 0.468815C16.3032 0.617425 16.1856 0.793837 16.1054 0.987955C16.0252 1.18207 15.9841 1.39009 15.9844 1.60012V35.4874H16.1271C16.5488 38.6723 18.0237 41.6246 20.3172 43.8745C22.6106 46.1244 25.5908 47.5425 28.7833 47.9032V49.5984H51.1851V47.9032C54.3704 47.5444 57.345 46.1331 59.6375 43.8927C61.93 41.6523 63.4094 38.7111 63.8413 35.5349H63.9883V26.3517Z" fill="#E50A14"/>
</svg>
