<svg width="26" height="26" viewBox="0 0 26 26" fill="none" xmlns="http://www.w3.org/2000/svg">
<g clip-path="url(#clip0_1801_6882)">
<path d="M4.94141 4.87476H21.0595V21.1252H4.94141V4.87476Z" fill="#E50A14"/>
<path d="M4.93972 24.375C4.9358 24.5895 4.97481 24.8026 5.05441 25.0015C5.13402 25.2004 5.25259 25.3812 5.40304 25.5328C5.55349 25.6845 5.73272 25.8041 5.93004 25.8843C6.12735 25.9646 6.33868 26.0039 6.55141 26H19.4455C19.6583 26.0039 19.8696 25.9646 20.0669 25.8843C20.2642 25.8041 20.4435 25.6845 20.5939 25.5328C20.7444 25.3812 20.8629 25.2004 20.9425 25.0015C21.0221 24.8026 21.0611 24.5895 21.0572 24.375V22.2083H4.93972V24.375ZM11.9239 23.2896H14.073V24.3732H11.9239V23.2896Z" fill="#141414"/>
<path d="M19.4472 0H6.5531C6.12603 0.00125532 5.71682 0.172856 5.41484 0.477317C5.11285 0.781778 4.94265 1.19436 4.94141 1.62493V3.79169H21.0595V1.62493C21.0595 0.758339 20.3073 0 19.4478 0H19.4472ZM15.149 2.71039H10.8507V1.62493H15.149V2.71039Z" fill="#141414"/>
<path d="M23.3125 8.6665H24.385V18.4167H23.3125V8.6665Z" fill="#141414"/>
<path d="M24.9258 10.8333H26.0006V16.7917H24.9258V10.8333Z" fill="#141414"/>
<path d="M1.61328 8.6665H2.68813V18.4167H1.61328V8.6665Z" fill="#141414"/>
<path d="M0 10.2914H1.07426V16.2498H0V10.2914Z" fill="#141414"/>
</g>
<defs>
<clipPath id="clip0_1801_6882">
<rect width="26" height="26" fill="white"/>
</clipPath>
</defs>
</svg>
