<svg width="80" height="80" viewBox="0 0 80 80" fill="none" xmlns="http://www.w3.org/2000/svg">
<path d="M30.1346 19.8998C30.4666 21.9633 31.4357 23.8713 32.9062 25.3566C34.3768 26.8418 36.275 27.83 38.3352 28.1826V38.3338H31.6682V41.6663H48.3347V38.3338H41.6678V28.1826C43.7281 27.8305 45.6267 26.8425 47.0973 25.3572C48.5679 23.8718 49.5369 21.9635 49.8684 19.8998C50.9014 19.6817 51.8554 19.1863 52.6281 18.4669C56.5445 14.8672 56.6543 5.99886 56.6543 4.99966V3.3325H50.002V0H30.001V3.3325H23.334V4.99966C23.334 5.99886 23.4493 14.8654 27.3602 18.4651C28.1339 19.1865 29.0901 19.6826 30.1254 19.8998H30.1346ZM50.002 6.66682H53.2687C53.0527 9.53266 52.3353 14.2157 50.3863 16.0165C50.2527 16.1153 50.1355 16.216 50.002 16.3001V6.66682ZM30.001 6.66682V16.3001C29.8651 16.2174 29.7371 16.1225 29.6185 16.0165C27.6511 14.2157 26.9338 9.56743 26.7343 6.66682H30.001Z" fill="#E50A14"/>
<path d="M26.666 44.9988H53.3339V79.9983H26.666V44.9988Z" fill="#E50A14"/>
<path d="M0 68H24V80H0V68Z" fill="#141414"/>
<path d="M56 56H80V80H56V56Z" fill="#141414"/>
</svg>
