<svg width="20" height="20" viewBox="0 0 20 20" fill="none" xmlns="http://www.w3.org/2000/svg">
<circle cx="10" cy="10" r="10" fill="#141414"/>
<path fill-rule="evenodd" clip-rule="evenodd" d="M8.19734 13.2759H11.8026V6.72429H8.19734V13.2759Z" fill="#EE6624"/>
<path fill-rule="evenodd" clip-rule="evenodd" d="M8.42632 10C8.42632 8.67104 9.04166 7.48715 10 6.72434C9.29907 6.16603 8.41469 5.83334 7.45366 5.83334C5.17814 5.83334 3.33333 7.69889 3.33333 10C3.33333 12.3011 5.17814 14.1667 7.45366 14.1667C8.41469 14.1667 9.29907 13.834 10 13.2757C9.04166 12.5129 8.42632 11.329 8.42632 10Z" fill="#E11E27"/>
<path fill-rule="evenodd" clip-rule="evenodd" d="M16.6667 9.9997C16.6667 12.3011 14.8219 14.1664 12.5466 14.1664C11.5853 14.1664 10.7012 13.8337 10.0003 13.2754C10.9586 12.5129 11.5737 11.329 11.5737 9.9997C11.5737 8.67073 10.9586 7.48685 10.0003 6.72404C10.7012 6.16603 11.5853 5.83334 12.5466 5.83334C14.8219 5.83334 16.6667 7.69859 16.6667 9.9997Z" fill="#F79E1E"/>
</svg>
