<svg width="100" height="100" viewBox="0 0 100 100" fill="none" xmlns="http://www.w3.org/2000/svg">
<path d="M84.4547 11.3761C81.3703 13.6514 75.202 16.6851 67.491 14.7892C53.8682 11.5024 50.0127 0 50.0127 0C50.0127 0 46.1314 11.4902 32.5343 14.7892C24.7078 16.6851 18.6546 13.6265 15.4413 11.3888H13V73.3276C13 74.9713 13.3853 78.005 15.9688 81.1651C19.1688 84.9572 24.5665 87.3969 32.0334 88.4587C38.0738 89.3059 42.443 91.1515 45.5274 94.096C47.8407 96.2581 50.0256 100 50.0256 100C50.0256 100 52.2748 96.1829 54.4726 94.096C57.5827 91.1515 61.9911 89.3177 67.967 88.4587C75.4464 87.3952 80.8183 84.9196 84.0312 81.1144C86.6147 78.0299 87 74.9337 87 73.3788V11.4395H84.5454" fill="white"/>
<path d="M84.7108 13.7777C84.7108 13.7777 77.2954 19.4535 66.8475 16.8871C54.6767 13.8914 49.8834 4.9292 49.8834 4.9292C49.8834 4.9292 45.1537 13.9041 32.9188 16.8871C22.6377 19.4155 15.1836 13.7275 15.1836 13.7275V73.2639C15.1845 75.2865 16.0445 83.8823 32.4046 86.1577C38.8432 87.0741 43.6498 89.1031 47.0555 92.3768C48.2995 93.5497 49.2403 94.7413 49.9603 95.8402C50.6837 94.7442 51.6309 93.5527 52.8643 92.3768C56.322 89.1031 61.1281 87.0682 67.5155 86.1577C83.837 83.8447 84.6077 75.2493 84.7366 73.2639V13.7275" fill="#013369"/>
<path d="M50.0136 89.9122C50.0136 89.9122 54.7433 84.1734 66.9778 82.3156C81.1144 80.1789 80.6006 73.6817 80.6006 73.3534V42.1309H19.2982V73.3534C19.2982 73.6817 18.8819 80.1789 32.9206 82.3156C45.2066 84.1865 49.8852 89.9122 49.8852 89.9122" fill="white"/>
<path d="M35.6185 64.9724L35.6164 50.1827L33.7275 49.1399V45.2971H42.3505V49.1399L40.5514 50.1827V80.3942L35.9506 79.0417L29.2934 59.7018L29.2921 72.468L31.4129 74.0609V77.9929L22.1726 75.6792V72.3294L24.2931 71.5152V50.1523L22.1211 49.0973V45.2544H29.1121L35.6409 64.9737" fill="#E50A14"/>
<path d="M51.5545 78.4979L53.4051 80.6722V84.515L44.2422 81.1526V77.8911L46.2595 77.0765V50.1519L44.2546 49.1526V45.259H60.1904V53.0838H56.6949L55.636 49.873H51.5876V58.9235H54.6209L55.8155 57.2047H58.2577V65.2572H55.8155L54.6651 63.6262H51.5807V78.5427" fill="#E50A14"/>
<path d="M61.7076 79.8883V76.0455L63.9822 74.2121V50.1949L62.041 49.1956V45.3025H71.2048V49.1956L69.4057 50.1949V72.8224L73.351 71.7742L74.107 65.8588H77.8727V75.7434L61.6797 79.991" fill="#E50A14"/>
<path d="M20.9049 35.7727L18.1289 33.7248H21.5217L22.6412 30.5647L23.7603 33.7248H27.1531L24.3772 35.785L25.3974 38.9962L22.6343 37.0872L19.8713 38.9962L20.892 35.785" fill="white"/>
<path d="M32.9224 35.7727L30.1465 33.7248H33.5393L34.6588 30.5647L35.7779 33.7248H39.1707L36.3947 35.785L37.415 38.9962L34.6519 37.0872L31.8889 38.9962L32.9091 35.785" fill="white"/>
<path d="M20.9049 25.1548L18.1289 23.1068H21.5217L22.6412 19.9468L23.7603 23.1068H27.1531L24.3772 25.1671L25.3974 28.3779L22.6343 26.4693L19.8713 28.3779L20.892 25.1671" fill="white"/>
<path d="M32.9224 25.1548L30.1465 23.1068H33.5393L34.6588 19.9468L35.7779 23.1068H39.1707L36.3947 25.1671L37.415 28.3779L34.6519 26.4693L31.8889 28.3779L32.9091 25.1671" fill="white"/>
<path d="M80.0865 38.9328L77.323 37.0242L74.56 38.9328L75.5802 35.722L72.8047 33.6618H76.1971L77.3161 30.5017L78.4356 33.6618H81.828L79.0521 35.722L80.0736 38.9328" fill="white"/>
<path d="M68.0045 38.9328L65.2414 37.0242L62.4779 38.9328L63.4986 35.722L60.7227 33.6618H64.1151L65.2341 30.5017L66.3549 33.6618H69.7477L66.9713 35.722L67.9933 38.9328" fill="white"/>
<path d="M80.0865 28.3144L77.323 26.4058L74.56 28.3144L75.5802 25.1036L72.8047 23.0434H76.1971L77.3161 19.8833L78.4356 23.0434H81.828L79.0521 25.1036L80.0736 28.3144" fill="white"/>
<path d="M68.0045 28.3144L65.2414 26.4058L62.4779 28.3144L63.4986 25.1036L60.7227 23.0434H64.1151L65.2341 19.8833L66.3549 23.0434H69.7477L66.9713 25.1036L67.9933 28.3144" fill="white"/>
<path d="M52.5848 22.7526C51.3497 21.7516 49.9631 21.1089 48.4978 20.7933C48.8539 20.4621 49.219 20.1773 49.5386 19.9145C51.3764 20.3492 52.6101 21.1596 53.4586 21.8488C53.1579 22.1522 52.8662 22.4475 52.5899 22.75L52.5848 22.7526ZM50.7982 24.8635C49.6207 23.8913 48.1889 23.1696 46.5698 22.8409C46.8181 22.5261 47.1085 22.191 47.3873 21.88C48.6262 22.0964 50.2148 22.7386 51.6028 23.8647C51.3201 24.1984 51.0559 24.5369 50.8059 24.8593L50.7982 24.8635ZM49.1915 27.0758C47.9217 26.0356 46.4414 25.3946 44.9889 25.1288C44.9889 25.1288 45.4348 24.4135 45.6879 24.0434C47.4612 24.3894 48.9007 25.2062 49.9162 26.0407C49.6568 26.4045 49.411 26.7539 49.1911 27.0746V27.0758H49.1915ZM57.5838 16.5085C57.5838 16.5085 56.1439 17.2454 54.1394 19.1881C54.5918 19.4395 55.1004 19.7911 55.3921 20.0298C55.0888 20.2943 54.7791 20.5799 54.4917 20.8478C53.1802 19.7902 51.8313 19.2549 50.7771 19.0027C51.1268 18.7563 51.4984 18.5134 51.8648 18.278C52.4297 18.4196 52.9774 18.6384 52.9774 18.6384C55.2396 16.9445 57.2058 16.2114 57.2058 16.2114C57.2058 16.2114 56.9781 16.102 56.3733 16.11C47.4672 16.2229 39.2807 22.7585 40.8229 33.9326C40.9887 35.1199 41.4578 37.2824 42.054 38.2305C42.2521 36.3723 42.9643 32.2514 45.0744 27.8271C44.3407 27.5681 43.7376 27.462 43.7376 27.462C43.9532 27.0171 44.2531 26.4497 44.2531 26.4497C45.8206 26.7391 47.1961 27.3826 48.3908 28.3202C48.1043 28.7765 47.9105 29.0735 47.7731 29.3089C47.3542 28.984 46.9302 28.7047 46.4624 28.4495C44.0847 32.5323 42.9923 36.3879 42.5425 38.3974C42.567 38.5221 42.8251 38.5859 43.0335 38.5592C52.788 37.317 57.2986 32.4161 58.7128 27.1198C59.626 23.6437 59.3271 20.0032 58.1032 17.0328C58.0173 16.8241 57.8502 16.4781 57.5658 16.503" fill="white"/>
</svg>
