<svg width="100" height="100" viewBox="0 0 100 100" fill="none" xmlns="http://www.w3.org/2000/svg">
<path d="M89.9829 47.921C88.6651 44.6291 87.4213 41.5197 87.42 36.2742C87.42 32.403 88.2355 28.5854 89.844 24.9261L92.6219 18.6029L92.8225 18.1466L92.3451 18.0053L85.8084 16.0723C83.1041 15.2737 81.1277 13.2108 79.9343 9.94084L77.0531 2.03352L76.8402 1.44946L76.3624 1.84571L69.937 7.17635C67.6991 9.03382 65.4056 9.97594 63.1204 9.97594C59.4872 9.97594 56.2644 8.06406 54.4597 6.2746L50.3216 2.1735L50.0137 1.86809L49.7058 2.1735L45.5686 6.2746C43.7643 8.06406 40.5414 9.97594 36.9065 9.97594C34.6209 9.97594 32.3274 9.03426 30.0891 7.17679L23.6632 1.84615L23.1854 1.4499L22.9725 2.03396L20.0909 9.94172C18.8988 13.2108 16.9232 15.2737 14.2168 16.0727L7.68048 18.0057L7.20312 18.147L7.4037 18.6034L10.1811 24.9266C11.7897 28.5854 12.6056 32.4034 12.6056 36.2746C12.6056 41.5219 11.3605 44.633 10.0423 47.9272C8.70307 51.2726 7.31918 54.7304 7.31918 60.5508C7.31918 63.9388 7.8793 67.2395 8.98423 70.3612C12.3748 79.9509 20.9681 87.5792 31.4112 90.2713C34.451 91.0409 36.7243 91.4745 38.7301 91.858C40.8357 92.2604 42.6589 92.6092 44.9309 93.2411C45.7521 94.1121 49.6524 98.3361 49.6935 98.3809L50.0146 98.7293L50.336 98.3809C50.3767 98.3361 54.2762 94.1139 55.0977 93.2411C57.3698 92.6092 59.1942 92.2604 61.2999 91.858C63.3056 91.4745 65.579 91.0401 68.6174 90.2721C75.1099 88.5976 81.0708 84.9393 85.4002 79.9702C90.1808 74.486 92.7082 67.7705 92.7082 60.5499C92.7082 55.1916 91.5616 51.8786 90.1764 48.4033L89.9829 47.921Z" fill="white"/>
<path d="M90.623 25.2758L94 17.5949L86.0395 15.2416C83.6142 14.5237 81.8305 12.6394 80.7352 9.64281L77.2198 0L69.3728 6.51016C67.2921 8.23599 65.1852 9.1101 63.1072 9.1101C60.3293 9.1101 57.1674 7.75506 55.0512 5.65887L50 0.650753L44.9462 5.65931C42.8322 7.7555 39.6694 9.11054 36.892 9.11054C34.8144 9.11054 32.707 8.23643 30.6263 6.5106L22.7806 0.000438567L19.2635 9.64325C18.1717 12.6403 16.3871 14.5245 13.9587 15.242L6 17.5953L9.37653 25.2762C10.9365 28.8218 11.7261 32.5223 11.7261 36.2741C11.7261 46.6567 6.44188 49.0184 6.44188 60.5503C6.44188 77.164 19.2639 88.0359 31.1786 91.1084C37.1985 92.5767 39.0169 92.6754 44.4526 94.0182C44.898 94.4973 50 100 50 100C50 100 55.1025 94.4965 55.5465 94.0182C60.9823 92.6754 62.8015 92.5767 68.8214 91.1084C80.7352 88.035 93.559 77.1644 93.559 60.5503C93.559 49.0188 88.2739 46.6567 88.2739 36.2741C88.273 32.5205 89.064 28.8214 90.623 25.2758ZM89.7572 48.5668C91.029 51.7574 92.2579 55.0862 92.2579 60.5507C92.2579 75.7269 80.9804 86.6273 68.4978 89.8468C62.3259 91.4086 59.4512 91.5604 54.8511 92.8527C54.2515 93.4828 50.0026 98.0846 50.0026 98.0846C50.0026 98.0846 45.752 93.4815 45.1529 92.8527C40.5527 91.5613 37.6789 91.4086 31.5079 89.8468C21.8658 87.3614 12.9479 80.2927 9.38441 70.2155C8.33248 67.2417 7.7452 64.0094 7.7452 60.5516C7.7452 49.218 13.0307 47.071 13.0307 36.2754C13.0307 31.8509 11.9691 27.9345 10.5695 24.7505L7.79118 18.4273L14.3279 16.4944C17.1732 15.6536 19.2464 13.4999 20.4889 10.093L23.3705 2.18526L29.7964 7.51547C31.9104 9.26982 34.3261 10.4156 36.8937 10.4156C40.332 10.4156 43.7361 8.69718 45.8632 6.58739L50.0004 2.48629L54.1385 6.58739C56.2665 8.69718 59.6706 10.4156 63.1076 10.4156C65.6722 10.4156 68.0901 9.26982 70.2036 7.51547L76.6299 2.18483L79.5111 10.0926C80.7549 13.4999 82.825 15.6536 85.6721 16.4939L92.2093 18.4269L89.4309 24.7501C88.0317 27.9341 86.9697 31.8505 86.9697 36.275C86.9719 41.8671 88.3904 45.1362 89.7572 48.5668Z" fill="#141414"/>
<path d="M88.1142 20.3554C88.1142 20.3554 78.0258 19.4742 75.2922 7.18497C75.2922 7.18497 69.2424 13.4283 63.11 13.4283C55.2051 13.4283 50.0024 6.69482 50.0024 6.69482C50.0024 6.69482 44.7996 13.4283 36.8943 13.4283C30.7614 13.4283 24.7121 7.18497 24.7121 7.18497C21.978 19.4756 11.8879 20.3554 11.8879 20.3554C11.8879 20.3554 15.9927 27.6321 15.9927 36.2486C15.9927 37.3802 15.9357 38.4237 15.8368 39.4053C14.9675 48.0126 10.7168 51.4651 10.7168 60.5493C10.7168 71.6937 18.3361 83.3937 32.2469 86.9199C38.8567 88.5931 43.4188 89.0196 46.7778 90.2347C47.2074 90.6375 50.0028 93.6732 50.0028 93.6732C50.0028 93.6732 52.7973 90.6375 53.2265 90.2347C56.5855 89.0196 61.1484 88.5935 67.7561 86.9199C81.6682 83.3937 89.2866 71.695 89.2866 60.5493C89.2866 50.4313 84.0116 47.3026 84.0116 36.249C84.0103 27.6321 88.1142 20.3554 88.1142 20.3554ZM86.3217 60.5497C86.3217 73.4318 76.3038 81.6327 67.0155 83.9957C59.6598 85.8655 54.8517 86.08 51.6219 87.6404C51.6219 87.6404 50.446 88.7168 50.0024 89.2123C49.5565 88.7168 48.3828 87.6404 48.3828 87.6404C45.1526 86.08 40.3449 85.8655 32.9888 83.9957C23.7009 81.6314 13.6817 73.4323 13.6817 60.5497C13.6817 51.3365 18.9602 47.9533 18.9602 36.2494C18.9602 28.3632 15.9848 22.2861 15.9848 22.2861C15.9848 22.2861 22.8513 20.8982 26.05 12.1891C26.05 12.1891 30.6059 16.45 36.8952 16.45C44.772 16.45 50.0032 10.9083 50.0032 10.9083C50.0032 10.9083 55.2336 16.45 63.1108 16.45C69.3992 16.45 73.9547 12.1891 73.9547 12.1891C77.1543 20.8982 84.0212 22.2861 84.0212 22.2861C84.0212 22.2861 81.0445 28.3636 81.0445 36.2494C81.0428 47.9533 86.3217 51.3365 86.3217 60.5497Z" fill="#141414"/>
<path d="M63.1082 19.8264C57.2258 19.8264 52.6278 17.2554 50.0002 15.3198C47.3708 17.2554 42.7742 19.8264 36.8926 19.8264C33.0094 19.8264 29.7038 18.51 27.3739 17.2028C25.2052 20.8304 22.4843 22.9389 20.3161 24.1302C21.248 26.9259 22.3297 31.2459 22.3297 36.2488C22.3297 45.8837 19.046 50.3964 17.6582 55.8503L65.8173 19.6136C64.9533 19.7492 64.0476 19.8264 63.1082 19.8264Z" fill="#141414"/>
<path d="M77.6701 36.2499C77.6701 31.247 78.7532 26.9265 79.6842 24.1313C77.8291 23.1102 75.5636 21.4169 73.5929 18.6743L17.0625 61.2106C17.3327 69.5756 22.7286 75.6663 28.8909 78.8402L78.0774 41.8298C77.8238 40.1671 77.6701 38.3285 77.6701 36.2499ZM42.1968 65.0717L37.8227 68.3614L33.1052 61.1237V71.9136L28.9671 75.0265V59.7669C28.9671 57.6111 26.9131 57.5536 26.9131 57.5536L32.7785 53.1401L38.0596 61.244V49.1662L42.1977 46.0524V65.0717H42.1968ZM58.8855 52.5152L54.8398 55.5601V48.6059L50.1705 52.1172V59.0736L45.9189 62.2721V47.0112C45.9189 44.8549 43.865 44.7974 43.865 44.7974L50.1705 40.0535V47.0823L54.8398 43.5705V36.543L58.8855 33.4946V52.5152ZM74.1543 41.0259L62.4171 49.8578V34.5982C62.4171 32.4406 60.3631 32.3836 60.3631 32.3836L66.6677 27.6396V41.8043L74.1548 36.1727C74.1543 36.1727 73.8999 37.9823 74.1543 41.0259Z" fill="#141414"/>
<path d="M33.1582 80.5426C33.378 80.6049 33.5988 80.6664 33.8182 80.7199C39.645 82.2044 46.7716 82.9688 48.9232 84.2014C49.4089 84.5573 50.0032 85.1887 50.0032 85.1887C50.0032 85.1887 50.5962 84.5573 51.0814 84.2014C53.2348 82.9688 60.3609 82.2044 66.1882 80.7199C74.2603 78.6623 82.9531 71.4781 82.9531 60.5492C82.9531 55.1018 80.5685 51.5163 79.0037 46.0439L33.1582 80.5426Z" fill="#141414"/>
</svg>
