<svg width="26" height="26" viewBox="0 0 26 26" fill="none" xmlns="http://www.w3.org/2000/svg">
<g clip-path="url(#clip0_1801_7270)">
<path d="M9.22816 17.1572H7.35742L8.29279 18.0968L9.22816 17.1572Z" fill="#E50A14"/>
<path d="M7.80664 18.8851C8.08748 19.5805 8.33235 20.29 8.54027 21.0109L9.22907 20.3177L7.80664 18.8851Z" fill="#E50A14"/>
<path d="M10.4961 20.3172L11.4309 19.3782L12.3662 20.3196L11.4309 21.2611L10.4961 20.3172Z" fill="#E50A14"/>
<path d="M15.2031 18.7375L16.1379 17.796L17.0732 18.7375L16.1379 19.6789L15.2031 18.7375Z" fill="#E50A14"/>
<path d="M13.6348 20.3172L14.5695 19.3782L15.5049 20.3196L14.5695 21.2611L13.6348 20.3172Z" fill="#E50A14"/>
<path d="M11.4309 18.0968L12.3662 17.1548H10.4961L11.4309 18.0968Z" fill="#E50A14"/>
<path d="M6.72461 6.32104H19.2763V14.4481H6.72461V6.32104Z" fill="#141414"/>
<path d="M5.82812 15.3512H20.173V16.2542H5.82812V15.3512Z" fill="#E50A14"/>
<path d="M15.5049 17.1572H13.6348L14.5695 18.0968L15.5049 17.1572Z" fill="#E50A14"/>
<path d="M8.92773 18.7375L9.86249 17.796L10.7979 18.7375L9.86249 19.6789L8.92773 18.7375Z" fill="#E50A14"/>
<path d="M12.0645 18.7375L12.9998 17.796L13.9352 18.7375L12.9998 19.6789L12.0645 18.7375Z" fill="#E50A14"/>
<path d="M12.0645 21.8974L12.9998 20.9559L13.9352 21.8974L12.9998 22.8388L12.0645 21.8974Z" fill="#E50A14"/>
<path d="M16.1385 25.9999L16.6528 25.4819C16.7065 24.7591 16.796 24.0412 16.9212 23.3281L15.2031 25.0579L16.1385 25.9999Z" fill="#E50A14"/>
<path d="M15.2031 21.898L16.1379 20.9565L17.0732 21.898L16.1379 22.8394L15.2031 21.898Z" fill="#E50A14"/>
<path d="M16.7715 20.3178L17.4609 21.0115C17.599 20.5344 17.7531 20.0619 17.9231 19.5942L17.7068 19.3782L16.7715 20.3178Z" fill="#E50A14"/>
<path d="M18.2818 18.6783C18.4966 18.1629 18.7317 17.6559 18.9869 17.1572H16.7715L18.2818 18.6783Z" fill="#E50A14"/>
<path d="M24.6557 0.000610738H1.34489C0.988351 0.00109502 0.646552 0.143957 0.394441 0.397873C0.142329 0.65179 0.000480836 0.996035 0 1.35513V16.7057C0.000480836 17.0648 0.142329 17.409 0.394441 17.6629C0.646552 17.9169 0.988351 18.0597 1.34489 18.0602H6.46214C6.31674 17.7551 6.16953 17.4537 6.0096 17.1572H5.37956C5.32067 17.1573 5.26234 17.1457 5.20791 17.123C5.15348 17.1003 5.10403 17.0671 5.06239 17.0251C5.02074 16.9832 4.98773 16.9334 4.96523 16.8786C4.94273 16.8238 4.93118 16.765 4.93126 16.7057V14.8997C4.93126 14.7799 4.97849 14.6651 5.06257 14.5804C5.14664 14.4957 5.26066 14.4482 5.37956 14.4482H5.82786V5.86957C5.82786 5.74982 5.87509 5.63498 5.95916 5.55031C6.04323 5.46563 6.15726 5.41806 6.27615 5.41806H19.7251C19.7839 5.41806 19.8422 5.42975 19.8965 5.45244C19.9509 5.47514 20.0003 5.50841 20.0418 5.55034C20.0834 5.59228 20.1164 5.64206 20.1388 5.69683C20.1613 5.75161 20.1728 5.81031 20.1727 5.86957V14.4476H20.621C20.6799 14.4475 20.7383 14.4591 20.7927 14.4818C20.8471 14.5044 20.8966 14.5377 20.9382 14.5796C20.9799 14.6216 21.0129 14.6714 21.0354 14.7262C21.0579 14.781 21.0694 14.8397 21.0693 14.8991V16.7051C21.0693 16.8248 21.0221 16.9397 20.938 17.0243C20.854 17.109 20.7399 17.1566 20.621 17.1566H19.991C19.8311 17.4531 19.6839 17.7557 19.5385 18.0596H24.6557C25.0123 18.0591 25.354 17.9163 25.6062 17.6623C25.8583 17.4084 26.0001 17.0642 26.0006 16.7051V1.35452C26.0001 0.995425 25.8583 0.65118 25.6062 0.397264C25.354 0.143348 25.0123 0.000484277 24.6557 0V0.000610738ZM25.104 16.7057C25.104 16.8254 25.0568 16.9403 24.9727 17.025C24.8886 17.1096 24.7746 17.1572 24.6557 17.1572H21.9665V16.2542H24.208V1.80602H1.79319V16.2542H4.03467V17.1572H1.34489C1.226 17.1572 1.11197 17.1096 1.0279 17.025C0.943825 16.9403 0.896594 16.8254 0.896594 16.7057V1.35513C0.896594 1.23538 0.943825 1.12054 1.0279 1.03586C1.11197 0.95119 1.226 0.903621 1.34489 0.903621H24.6563C24.7752 0.903621 24.8892 0.95119 24.9733 1.03586C25.0574 1.12054 25.1046 1.23538 25.1046 1.35513L25.104 16.7057Z" fill="#141414"/>
<path d="M9.8627 20.9559L8.80859 22.0176C8.93278 22.5362 9.03456 23.0597 9.12059 23.5869L10.7975 21.898L9.8627 20.9559Z" fill="#E50A14"/>
<path d="M9.28387 24.7003L9.27539 24.6918C9.30447 24.9548 9.32991 25.219 9.34991 25.485L9.86363 26.0024L10.7984 25.0609L9.86363 24.1189L9.28387 24.7003Z" fill="#E50A14"/>
<path d="M13.6348 23.4783L14.5695 22.5369L15.5049 23.4783L14.5695 24.4198L13.6348 23.4783Z" fill="#E50A14"/>
<path d="M10.4961 23.4783L11.4309 22.5369L12.3662 23.4783L11.4309 24.4198L10.4961 23.4783Z" fill="#E50A14"/>
<path d="M12.0645 25.0579L12.9998 24.1165L13.9352 25.0579L12.9998 25.9994L12.0645 25.0579Z" fill="#E50A14"/>
</g>
<defs>
<clipPath id="clip0_1801_7270">
<rect width="26" height="26" fill="white"/>
</clipPath>
</defs>
</svg>
