<svg width="20" height="20" viewBox="0 0 20 20" fill="none" xmlns="http://www.w3.org/2000/svg">
<circle cx="10" cy="10" r="10" fill="#83BA3B"/>
<path d="M18.8317 8.58671C18.5981 8.41831 18.2445 8.33338 17.781 8.33338H16.5672L16.116 10.9109H14.5258L14.628 10.3261H15.5859L15.6994 9.6693L14.7421 9.67075L14.8446 9.08858H15.8312L15.9625 8.33353H13.9588L13.5304 10.7785H12.7952L13.2264 8.3334H12.179L11.7507 10.7783H11.0344L11.4661 8.3334H10.4192L9.96742 10.9109H8.36587L8.46712 10.3261H9.42883L9.54247 9.67305L8.58168 9.67204L8.68361 9.08871H9.68132L9.81176 8.33334H3.568L3.21262 10.3758L2.50489 8.33334H1.4182L0.833336 11.6667H1.87113L2.22514 9.56786L2.91191 11.6667H6.63127L7.08349 9.08839H7.66519L7.21297 11.6667H16.9994L17.2831 10.0392L17.7421 11.6667H18.7804L18.3048 10.3368L18.4136 10.3122C18.6533 10.2581 18.8402 10.142 18.9704 9.96796C19.1004 9.79231 19.1667 9.5668 19.1667 9.29592C19.1667 8.98055 19.057 8.74853 18.8314 8.58652L18.8317 8.58671ZM5.72817 10.9109H4.13958L4.2422 10.3261H5.23862L5.35157 9.66744H4.36475L4.45979 9.08874H6.04606L5.72787 10.9109L5.72817 10.9109ZM17.9761 9.78812C17.8717 9.86493 17.7203 9.90232 17.5133 9.90232H17.3081L17.4655 9.0078H17.6165C17.7884 9.0078 17.9137 9.03679 18.0002 9.09592C18.0677 9.14229 18.148 9.23404 18.148 9.40751C18.1478 9.61737 18.0544 9.73012 17.9759 9.78809L17.9761 9.78812Z" fill="white"/>
</svg>
