<svg width="28" height="28" viewBox="0 0 28 28" fill="none" xmlns="http://www.w3.org/2000/svg">
<path fill-rule="evenodd" clip-rule="evenodd" d="M12.0338 6.66647C9.45645 6.66647 7.36716 4.8229 7.36716 2.54884C7.36716 1.74065 7.63099 0.986824 8.08698 0.350679C8.21232 0.175757 8.02739 -0.0639538 7.8109 0.0157685C7.61415 0.0881797 7.42137 0.168836 7.23335 0.257502C6.89865 0.415236 6.5867 0.59498 6.30004 0.792847C4.70641 1.89231 3.89324 3.54945 4.30683 5.08735L4.25368 5.13207C1.6303 7.37721 0 10.5206 0 14C0 17.6434 1.78764 20.9184 4.63113 23.1793C4.14252 24.778 2.98769 26.2133 1.16664 27.4853L0.992988 27.6571C0.954908 27.6948 0.933842 27.7436 0.933842 27.7941C0.933842 27.9078 1.0383 28 1.16717 28H1.39997C5.21978 28 7.56408 27.0499 9.41202 25.6744C10.8494 26.114 12.3931 26.353 14 26.353C21.0956 26.353 26.9583 21.6953 27.8753 15.656C27.9168 15.6529 27.9583 15.65 28 15.647L27.8777 15.6399C27.9584 15.1033 28 14.5559 28 14C28 12.3743 27.6441 10.8219 26.9972 9.40029L26.4615 8.36693L26.4491 8.34321C26.4183 8.29048 26.3871 8.23798 26.3552 8.18571C25.7591 7.28115 24.4705 6.90626 23.3693 7.35045C23.3282 7.36702 23.2876 7.38467 23.2477 7.40334L12.6114 12.3719C10.2799 13.4609 7.38937 12.6761 6.15512 10.619C5.79054 10.0115 5.59996 9.33449 5.59996 8.64701C5.59996 8.11166 5.6681 7.59032 5.79715 7.08974C7.18584 8.02976 9.28068 8.30082 11.2965 7.6534C11.802 7.49115 12.2692 7.28178 12.6915 7.03538C12.9005 6.91342 12.7351 6.62626 12.4857 6.64742C12.337 6.66002 12.1862 6.66647 12.0338 6.66647Z" fill="#005F8E"/>
<path fill-rule="evenodd" clip-rule="evenodd" d="M12.0338 6.66647C9.45645 6.66647 7.36716 4.8229 7.36716 2.54884C7.36716 1.74065 7.63099 0.986824 8.08698 0.350679C8.21232 0.175757 8.02739 -0.0639538 7.8109 0.0157685C7.61415 0.0881797 7.42137 0.168836 7.23335 0.257502C6.89865 0.415236 6.5867 0.59498 6.30004 0.792847C4.70641 1.89231 3.89324 3.54945 4.30683 5.08735L4.25368 5.13207C1.6303 7.37721 0 10.5206 0 14C0 17.6434 1.78764 20.9184 4.63113 23.1793C4.14252 24.778 2.98769 26.2133 1.16664 27.4853L0.992988 27.6571C0.954908 27.6948 0.933842 27.7436 0.933842 27.7941C0.933842 27.9078 1.0383 28 1.16717 28H1.39997C5.21978 28 7.56408 27.0499 9.41202 25.6744C10.8494 26.114 12.3931 26.353 14 26.353C21.0956 26.353 26.9583 21.6953 27.8753 15.656C27.9168 15.6529 27.9583 15.65 28 15.647L27.8777 15.6399C27.9584 15.1033 28 14.5559 28 14C28 12.9124 27.8407 11.8577 27.5418 10.853C27.1845 9.97499 26.1276 9.45668 25.0759 9.67943C25.0083 9.69374 24.9416 9.71101 24.876 9.73115L13.093 13.3474C10.151 14.2504 6.93638 12.8779 5.91307 10.282C5.70583 9.75628 5.59996 9.20366 5.59996 8.64701C5.59996 8.11166 5.6681 7.59032 5.79715 7.08974C7.18584 8.02976 9.28068 8.30082 11.2965 7.6534C11.802 7.49115 12.2692 7.28178 12.6915 7.03538C12.9005 6.91342 12.7351 6.62626 12.4857 6.64742C12.337 6.66002 12.1862 6.66647 12.0338 6.66647Z" fill="#009E9E"/>
<path fill-rule="evenodd" clip-rule="evenodd" d="M12.0338 6.66647C9.45645 6.66647 7.36716 4.8229 7.36716 2.54884C7.36716 1.74065 7.63099 0.986824 8.08698 0.350679C8.21232 0.175757 8.02739 -0.0639538 7.8109 0.0157685C7.61415 0.0881797 7.42137 0.168836 7.23335 0.257502C6.89865 0.415236 6.5867 0.59498 6.30004 0.792847C4.70641 1.89231 3.89324 3.54945 4.30683 5.08735L4.25368 5.13207C1.6303 7.37721 0 10.5206 0 14C0 17.6434 1.78764 20.9184 4.63113 23.1793C4.14252 24.778 2.98769 26.2133 1.16664 27.4853L0.992988 27.6571C0.954908 27.6948 0.933842 27.7436 0.933842 27.7941C0.933842 27.9078 1.0383 28 1.16717 28H1.39997C5.21978 28 7.56408 27.0499 9.41202 25.6744C10.8494 26.114 12.3931 26.353 14 26.353C21.0955 26.353 26.9583 21.6953 27.875 15.656C27.9165 15.6529 27.9582 15.65 28 15.647L27.8774 15.6399C27.951 15.15 27.9922 14.6511 27.9987 14.1449C27.9624 13.3063 27.1804 12.6362 26.221 12.6362C26.1231 12.6362 26.0252 12.6433 25.9286 12.6575L13.4254 14.4963C9.76426 15.0347 6.30162 12.8524 5.69146 9.62187C5.63055 9.29972 5.59996 8.97367 5.59996 8.64701C5.59996 8.11166 5.6681 7.59032 5.79715 7.08974C7.18584 8.02976 9.28068 8.30082 11.2965 7.6534C11.802 7.49115 12.2692 7.28178 12.6915 7.03538C12.9005 6.91342 12.7351 6.62626 12.4857 6.64742C12.337 6.66002 12.1862 6.66647 12.0338 6.66647Z" fill="#2DE09F"/>
<path fill-rule="evenodd" clip-rule="evenodd" d="M13.9999 26.3529C12.3929 26.3529 10.8492 26.114 9.41174 25.6742C13.8854 22.3442 15.4509 16.5212 28 15.647L27.8748 15.6566C26.9577 21.6957 21.0953 26.3529 13.9999 26.3529Z" fill="#E7F0EE"/>
<path d="M14.2334 18.1176C14.8777 18.1176 15.4 17.6568 15.4 17.0882C15.4 16.5197 14.8777 16.0588 14.2334 16.0588C13.589 16.0588 13.0667 16.5197 13.0667 17.0882C13.0667 17.6568 13.589 18.1176 14.2334 18.1176Z" fill="#E7F0EE"/>
</svg>
