<svg width="70" height="70" viewBox="0 0 70 70" fill="none" xmlns="http://www.w3.org/2000/svg">
<path d="M70 35C70 54.3289 54.3289 70 35 70C15.6711 70 0 54.3289 0 35C0 15.6711 15.6711 0 35 0C54.3329 0 70 15.6711 70 35Z" fill="#1D2B2F"/>
<path fill-rule="evenodd" clip-rule="evenodd" d="M40.2327 14.436H29.768C25.4216 14.436 22.4463 14.4419 20.214 14.7358C18.063 15.019 17.0301 15.523 16.3177 16.2205C15.6054 16.918 15.0906 17.9295 14.8014 20.0356C14.5013 22.2214 14.4953 25.1347 14.4953 29.3906V40.6095C14.4953 44.8654 14.5013 47.7786 14.8014 49.9644C15.0906 52.0704 15.6054 53.0821 16.3177 53.7794C17.0301 54.477 18.063 54.9811 20.214 55.2643C22.4463 55.5581 25.4216 55.5639 29.768 55.5639H40.2327C44.5791 55.5639 47.5543 55.5581 49.7866 55.2643C51.9377 54.9811 52.9707 54.477 53.683 53.7794C54.3952 53.0821 54.91 52.0704 55.1993 49.9644C55.4993 47.7786 55.5055 44.8654 55.5055 40.6095V29.3906C55.5055 25.1347 55.4993 22.2214 55.1993 20.0356C54.91 17.9295 54.3952 16.918 53.683 16.2205C52.9707 15.523 51.9377 15.019 49.7866 14.7358C47.5543 14.4419 44.5791 14.436 40.2327 14.436ZM14.3178 14.2623C11.667 16.8579 11.667 21.0354 11.667 29.3906V40.6095C11.667 48.9646 11.667 53.1421 14.3178 55.7376C16.9687 58.3334 21.2351 58.3334 29.768 58.3334H40.2327C48.7655 58.3334 53.032 58.3334 55.6829 55.7376C58.3337 53.1421 58.3337 48.9646 58.3337 40.6095V29.3906C58.3337 21.0354 58.3337 16.8579 55.6829 14.2623C53.032 11.6667 48.7655 11.6667 40.2327 11.6667H29.768C21.2351 11.6667 16.9687 11.6667 14.3178 14.2623Z" fill="white"/>
<path d="M40.3943 23.8932V40.345L29.5907 23.8932H24.8193V47.2528H29.1476V30.6008L40.1557 47.2528H44.7225V23.8932H40.3943Z" fill="white"/>
</svg>
