<svg width="30" height="30" viewBox="0 0 30 30" fill="none" xmlns="http://www.w3.org/2000/svg">
<path d="M8.147 20.6488H1.3087C0.720614 20.6488 0.242188 21.1475 0.242188 21.7608V28.8883C0.242188 29.5013 0.720625 29.9999 1.3087 29.9999H8.147C8.73509 29.9999 9.21352 29.5013 9.21352 28.8883L9.21374 21.7608C9.21374 21.1477 8.73508 20.649 8.147 20.649L8.147 20.6488ZM2.29484 28.7391C1.82849 28.7391 1.4519 28.3468 1.4519 27.8605C1.4519 27.3803 1.82848 26.9819 2.29484 26.9819C2.7612 26.9819 3.13778 27.3802 3.13778 27.8605C3.13778 28.3465 2.7612 28.7391 2.29484 28.7391V28.7391ZM2.29484 23.6671C1.82849 23.6671 1.4519 23.2749 1.4519 22.7885C1.4519 22.3083 1.82826 21.91 2.29484 21.91C2.76119 21.91 3.13778 22.3083 3.13778 22.7885C3.13778 23.2746 2.7612 23.6671 2.29484 23.6671V23.6671ZM4.72802 26.203C4.26167 26.203 3.88508 25.8105 3.88508 25.3244C3.88508 24.8442 4.26166 24.4458 4.72802 24.4458C5.19438 24.4458 5.57096 24.8442 5.57096 25.3244C5.57074 25.8107 5.19438 26.203 4.72802 26.203ZM7.16098 28.7391C6.69463 28.7391 6.31804 28.3468 6.31804 27.8605C6.31804 27.3803 6.69462 26.9819 7.16098 26.9819C7.62734 26.9819 8.00392 27.3802 8.00392 27.8605C8.00392 28.3465 7.62734 28.7391 7.16098 28.7391ZM7.16098 23.6671C6.69463 23.6671 6.31804 23.2749 6.31804 22.7885C6.31804 22.3083 6.69462 21.91 7.16098 21.91C7.62734 21.91 8.00392 22.3083 8.00392 22.7885C8.00392 23.2746 7.62734 23.6671 7.16098 23.6671Z" fill="#141414"/>
<path d="M2.29411 28.7391C1.82776 28.7391 1.45117 28.3469 1.45117 27.8605C1.45117 27.3803 1.82775 26.982 2.29411 26.982C2.76047 26.982 3.13705 27.3803 3.13705 27.8605C3.13705 28.3466 2.76047 28.7391 2.29411 28.7391ZM2.29411 23.6672C1.82776 23.6672 1.45117 23.2749 1.45117 22.7886C1.45117 22.3084 1.82753 21.91 2.29411 21.91C2.76046 21.91 3.13705 22.3084 3.13705 22.7886C3.13705 23.2747 2.76047 23.6672 2.29411 23.6672ZM4.72729 26.2031C4.26094 26.2031 3.88435 25.8106 3.88435 25.3245C3.88435 24.8442 4.26093 24.4459 4.72729 24.4459C5.19365 24.4459 5.57023 24.8442 5.57023 25.3245C5.57001 25.8108 5.19365 26.2031 4.72729 26.2031ZM7.16025 28.7391C6.6939 28.7391 6.31731 28.3469 6.31731 27.8605C6.31731 27.3803 6.69389 26.982 7.16025 26.982C7.62661 26.982 8.00319 27.3803 8.00319 27.8605C8.00319 28.3466 7.62661 28.7391 7.16025 28.7391ZM7.16025 23.6672C6.6939 23.6672 6.31731 23.2749 6.31731 22.7886C6.31731 22.3084 6.69389 21.91 7.16025 21.91C7.62661 21.91 8.00319 22.3084 8.00319 22.7886C8.00319 23.2747 7.62661 23.6672 7.16025 23.6672Z" fill="#E50A14"/>
<path d="M1.92829 5.07865L0.662397 5.92102C-0.00292583 6.36907 -0.200594 7.29918 0.223454 7.99419L4.86431 15.5766C4.8492 15.523 1.94966 5.15541 1.92828 5.07825L1.92829 5.07865Z" fill="#141414"/>
<path d="M6.2953 18.8966V1.74292L3.20415 2.52592C2.47126 2.75152 2.01012 3.57362 2.23845 4.38247C2.20112 4.24842 2.72768 6.12836 6.29536 18.8966H6.2953Z" fill="#E50A14"/>
<path d="M23.7051 7.85178V25.5622L26.7803 24.5491C27.5468 24.3137 27.9853 23.4794 27.7618 22.6879C25.9693 16.541 23.7202 7.9089 23.7051 7.85132V7.85178Z" fill="#E50A14"/>
<path d="M8.21439 0.000244141H21.7833C22.5757 0.000244141 23.2205 0.674298 23.2205 1.50319V25.5672C23.2205 26.3959 22.5757 27.0702 21.7833 27.0702H9.69608L9.6963 21.7606C9.6963 20.8692 9.00059 20.1442 8.14578 20.1442H6.77734V1.50325C6.77734 0.674586 7.42195 0.000244141 8.21439 0.000244141Z" fill="#141414"/>
<path d="M29.777 19.0774L25.3848 12.1503L28.0743 21.9876L29.3385 21.147C30.0039 20.7005 30.2009 19.7718 29.777 19.0774L29.777 19.0774Z" fill="#141414"/>
<path d="M16.7468 9.78601C16.1334 9.78601 15.554 10.0982 15.1966 10.6216C15.106 10.7546 14.8932 10.7546 14.8026 10.6216C14.4452 10.0982 13.8641 9.78601 13.2475 9.78601C12.1946 9.78601 11.3379 10.6812 11.3379 11.7818C11.3379 13.9582 14.2972 16.6137 14.9996 17.2134C15.7021 16.6137 18.6614 13.958 18.6614 11.7818C18.6614 10.6812 17.8025 9.78601 16.7468 9.78601H16.7468Z" fill="#E50A14"/>
<path d="M10.3138 1.70825C10.1297 1.70825 9.95598 1.80205 9.84894 1.95905C9.75873 2.09198 9.54574 2.09288 9.45467 1.95927C9.3472 1.80205 9.17261 1.70825 8.98746 1.70825C8.6713 1.70825 8.41406 1.97749 8.41406 2.30814C8.41406 2.9386 9.20562 3.76951 9.65167 4.16424C10.0977 3.76948 10.8893 2.9386 10.8893 2.30814C10.8893 1.97727 10.631 1.70825 10.3137 1.70825L10.3138 1.70825Z" fill="#E50A14"/>
<path d="M21.0093 22.8329C20.8255 22.8329 20.6513 22.9267 20.544 23.0837C20.4987 23.1503 20.4251 23.1896 20.347 23.1896C20.2685 23.1896 20.1953 23.1503 20.15 23.0837C20.0427 22.9269 19.8681 22.8329 19.683 22.8329C19.3666 22.8329 19.1094 23.1019 19.1094 23.4325C19.1094 24.063 19.9009 24.8941 20.347 25.2891C20.7931 24.8943 21.5848 24.063 21.5848 23.4325C21.585 23.1019 21.3267 22.8329 21.0093 22.8329H21.0093Z" fill="#E50A14"/>
</svg>
