<svg width="30" height="30" viewBox="0 0 30 30" fill="none" xmlns="http://www.w3.org/2000/svg">
<path d="M23.2119 7.75736C23.0574 7.74733 22.8999 7.74231 22.7413 7.74231C22.4744 7.74231 22.2577 7.95905 22.2577 8.22595C22.2577 8.36142 22.2537 8.49487 22.2456 8.62832C22.2396 8.72365 22.2336 8.81797 22.2246 8.91329C22.2185 8.97149 22.2125 9.02969 22.2055 9.08788C22.1975 9.15612 22.1884 9.22134 22.1784 9.28957C22.1664 9.37085 22.1533 9.45212 22.1373 9.53541C22.1272 9.5916 22.1162 9.6498 22.1042 9.70599C22.067 9.87255 22.0269 10.0411 21.9807 10.2057C21.9637 10.2659 21.9456 10.3281 21.9265 10.3873C21.5322 11.6436 20.7997 12.7855 19.7993 13.6705C19.7491 13.7146 19.699 13.7598 19.6468 13.8019C19.5234 13.9043 19.3969 14.0056 19.2655 14.0999C19.1341 14.1952 19.0026 14.2856 18.8651 14.3688C18.7939 14.415 18.7196 14.4601 18.6464 14.5023C18.5731 14.5444 18.4989 14.5856 18.4236 14.6257C18.3674 14.6588 18.3092 14.6899 18.249 14.719C18.2139 14.7361 18.1798 14.7541 18.1447 14.7692C18.0092 14.8354 17.8738 14.8966 17.7343 14.9508C17.5025 15.0471 17.2617 15.1304 17.0179 15.2007C16.9386 15.2258 16.8553 15.2468 16.774 15.2669C16.7098 15.2819 16.6446 15.298 16.5804 15.311C16.5493 15.3211 16.5162 15.3261 16.485 15.3321C16.4329 15.3442 16.3807 15.3532 16.3265 15.3632C16.2954 15.3712 16.2663 15.3753 16.2352 15.3783C16.183 15.3903 16.1288 15.3973 16.0747 15.4054C16.0305 15.4134 15.9853 15.4184 15.9412 15.4224C15.9001 15.4284 15.8579 15.4345 15.8158 15.4375C15.7365 15.4475 15.6572 15.4545 15.576 15.4606C15.4806 15.4686 15.3843 15.4746 15.29 15.4776C15.1937 15.4816 15.0963 15.4836 15 15.4836C14.9037 15.4836 14.8063 15.4816 14.71 15.4776C14.6147 15.4736 14.5184 15.4676 14.424 15.4606C14.3428 15.4545 14.2635 15.4475 14.1842 15.4375C14.1421 15.4335 14.0989 15.4274 14.0588 15.4224C14.0146 15.4184 13.9695 15.4124 13.9253 15.4054C13.8712 15.3973 13.817 15.3903 13.7648 15.3783C13.7337 15.3743 13.7046 15.3702 13.6735 15.3632C13.6193 15.3532 13.5671 15.3442 13.515 15.3321C13.4838 15.3261 13.4507 15.3201 13.4196 15.311C13.3554 15.298 13.2902 15.2819 13.226 15.2669C13.1447 15.2478 13.0614 15.2258 12.9821 15.2007C12.7383 15.1314 12.4985 15.0481 12.2657 14.9508C12.1262 14.8966 11.9908 14.8344 11.8553 14.7692C11.8202 14.7541 11.7861 14.7361 11.751 14.719C11.6907 14.6899 11.6325 14.6588 11.5764 14.6257C11.5011 14.5846 11.4269 14.5444 11.3536 14.5023C11.2804 14.4601 11.2061 14.415 11.1349 14.3688C10.9974 14.2856 10.8659 14.1942 10.7345 14.0999C10.603 14.0046 10.4766 13.9043 10.3532 13.8019C10.301 13.7598 10.2509 13.7146 10.2007 13.6705C9.20028 12.7855 8.46879 11.6436 8.07345 10.3873C8.05438 10.3271 8.03632 10.2649 8.01927 10.2057C7.97311 10.0411 7.93197 9.87255 7.89585 9.70599C7.8838 9.6498 7.87277 9.5916 7.86273 9.53541C7.84768 9.45212 7.83363 9.37085 7.82159 9.28957C7.81156 9.22134 7.80253 9.15612 7.7945 9.08788C7.78647 9.02969 7.78045 8.97149 7.77543 8.91329C7.7654 8.81797 7.76039 8.72365 7.75436 8.62832C7.74634 8.49487 7.74232 8.36142 7.74232 8.22595C7.74232 7.95905 7.52559 7.74231 7.25868 7.74231C7.10014 7.74231 6.94361 7.74833 6.78808 7.75736C3.00421 7.99918 0 11.1559 0 15V25.6452C0 28.0473 1.95264 30 4.35481 30H25.6452C28.0474 30 30 28.0473 30 25.6452V15C29.999 11.1559 26.9958 7.99918 23.2119 7.75736ZM29.0317 25.6452C29.0317 27.5125 27.5125 29.0327 25.6442 29.0327H4.3538C2.48645 29.0327 0.966285 27.5135 0.966285 25.6452V15C0.966285 11.6887 3.53702 8.96647 6.78808 8.72666C6.79811 8.8852 6.81116 9.04374 6.83022 9.20127C6.84427 9.31165 6.85932 9.42001 6.87839 9.53039C6.88641 9.5926 6.89745 9.65281 6.90949 9.71401C6.92153 9.77623 6.93257 9.83743 6.94662 9.89964C6.95063 9.9167 6.95465 9.93677 6.95866 9.95383C6.97271 10.0221 6.98776 10.0893 7.00482 10.1555C7.15533 10.7806 7.38009 11.3867 7.67209 11.9576C7.70921 12.0289 7.74533 12.0991 7.78447 12.1704C8.21393 12.956 8.77182 13.6745 9.4411 14.2876C9.48926 14.3317 9.53943 14.3769 9.59061 14.421C9.77223 14.5816 9.96388 14.7341 10.1636 14.8796C11.5744 15.9071 13.245 16.4509 14.999 16.4509C16.753 16.4509 18.4226 15.9071 19.8344 14.8796C20.0341 14.7341 20.2258 14.5816 20.4074 14.421C20.4576 14.3769 20.5077 14.3317 20.5569 14.2876C21.0586 13.829 21.4961 13.3122 21.8633 12.7523C21.9446 12.6299 22.0219 12.5065 22.0951 12.3791C22.1363 12.3098 22.1744 12.2396 22.2135 12.1704C22.2527 12.0991 22.2888 12.0289 22.3259 11.9576C22.6179 11.3867 22.8427 10.7806 22.9932 10.1555C23.0102 10.0893 23.0263 10.0221 23.0393 9.95383C23.0433 9.93677 23.0474 9.9167 23.0514 9.89964C23.0654 9.83743 23.0765 9.77623 23.0885 9.71401C23.1005 9.6518 23.1116 9.5916 23.1196 9.53039C23.1387 9.42001 23.1547 9.31165 23.1678 9.20127C23.1868 9.04474 23.2009 8.8862 23.2099 8.72666C26.462 8.96647 29.0317 11.6877 29.0317 15V25.6452Z" fill="#141414"/>
<path d="M23.2104 8.72668C23.2004 8.88522 23.1873 9.04376 23.1683 9.2013C23.1542 9.31167 23.1392 9.42004 23.1201 9.53042C23.1121 9.59263 23.1011 9.65283 23.089 9.71404C23.077 9.77625 23.0659 9.83746 23.0519 9.89967C23.0479 9.91673 23.0439 9.9368 23.0398 9.95386C23.0258 10.0221 23.0107 10.0893 22.9937 10.1555C22.8432 10.7807 22.6184 11.3867 22.3264 11.9577C22.2893 12.0289 22.2532 12.0992 22.214 12.1704C22.1749 12.2396 22.1368 12.3099 22.0956 12.3791C22.0224 12.5065 21.9451 12.631 21.8638 12.7524C21.4956 13.3113 21.0591 13.829 20.5574 14.2876C20.5092 14.3317 20.4591 14.3769 20.4079 14.421C20.2263 14.5816 20.0346 14.7341 19.8349 14.8796C18.4242 15.9071 16.7535 16.4509 14.9995 16.4509C13.2455 16.4509 11.5759 15.9071 10.1641 14.8796C9.96439 14.7341 9.77274 14.5816 9.59112 14.421C9.54095 14.3769 9.49078 14.3317 9.44161 14.2876C8.77233 13.6745 8.21444 12.9561 7.78498 12.1704C7.74585 12.0992 7.70972 12.0289 7.6726 11.9577C7.3806 11.3867 7.15584 10.7807 7.00533 10.1555C6.98827 10.0893 6.97221 10.0221 6.95917 9.95386C6.95516 9.9368 6.95114 9.91673 6.94713 9.89967C6.93308 9.83746 6.92204 9.77625 6.91 9.71404C6.89796 9.65183 6.88692 9.59163 6.8789 9.53042C6.85983 9.42004 6.84378 9.31167 6.83073 9.2013C6.81167 9.04477 6.79762 8.88623 6.78859 8.72668C3.53754 8.9665 0.966797 11.6888 0.966797 15V25.6452C0.966797 27.5126 2.48596 29.0327 4.35431 29.0327H25.6447C27.512 29.0327 29.0322 27.5136 29.0322 25.6452V15C29.0322 11.6888 26.4615 8.9665 23.2104 8.72668ZM11.612 24.6779C11.612 26.0115 10.5263 27.0971 9.19276 27.0971H5.3216C3.98807 27.0971 2.90238 26.0115 2.90238 24.6779V18.8712C2.90238 17.5376 3.98807 16.452 5.3216 16.452H9.19276C10.5263 16.452 11.612 17.5376 11.612 18.8712V24.6779ZM14.9995 25.1616C14.1978 25.1616 13.5476 24.5113 13.5476 23.7096C13.5476 22.9079 14.1978 22.2577 14.9995 22.2577C15.8012 22.2577 16.4514 22.9079 16.4514 23.7096C16.4514 24.5113 15.8012 25.1616 14.9995 25.1616ZM14.9995 21.2904C14.1978 21.2904 13.5476 20.6402 13.5476 19.8385C13.5476 19.0367 14.1978 18.3865 14.9995 18.3865C15.8012 18.3865 16.4514 19.0367 16.4514 19.8385C16.4514 20.6402 15.8012 21.2904 14.9995 21.2904ZM27.0966 24.6779C27.0966 26.0115 26.0109 27.0971 24.6774 27.0971H20.8062C19.4727 27.0971 18.387 26.0115 18.387 24.6779V18.8712C18.387 17.5376 19.4727 16.452 20.8062 16.452H24.6774C26.0109 16.452 27.0966 17.5376 27.0966 18.8712V24.6779Z" fill="#141414"/>
<path d="M11.612 24.6779C11.612 26.0114 10.5263 27.0971 9.19273 27.0971H5.32157C3.98803 27.0971 2.90234 26.0114 2.90234 24.6779V18.8711C2.90234 17.5376 3.98803 16.4519 5.32157 16.4519H9.19273C10.5263 16.4519 11.612 17.5376 11.612 18.8711V24.6779ZM27.0966 24.6779C27.0966 26.0114 26.0109 27.0971 24.6774 27.0971H20.8062C19.4727 27.0971 18.387 26.0114 18.387 24.6779V18.8711C18.387 17.5376 19.4727 16.4519 20.8062 16.4519H24.6774C26.0109 16.4519 27.0966 17.5376 27.0966 18.8711V24.6779Z" fill="#E50A14"/>
<path d="M14.9988 25.1615C14.1971 25.1615 13.5469 24.5113 13.5469 23.7096C13.5469 22.9078 14.1971 22.2576 14.9988 22.2576C15.8005 22.2576 16.4507 22.9078 16.4507 23.7096C16.4507 24.5113 15.8005 25.1615 14.9988 25.1615ZM14.9988 21.2903C14.1971 21.2903 13.5469 20.6401 13.5469 19.8384C13.5469 19.0367 14.1971 18.3865 14.9988 18.3865C15.8005 18.3865 16.4507 19.0367 16.4507 19.8384C16.4507 20.6401 15.8005 21.2903 14.9988 21.2903Z" fill="#E50A14"/>
<path d="M23.2114 7.75738C23.1722 7.04897 23.0408 6.3526 22.8241 5.68433C21.7203 2.28377 18.5756 0 14.9985 0C11.4213 0 8.2766 2.28376 7.17285 5.68232V5.68433C6.95611 6.3536 6.82467 7.04897 6.78553 7.75738C6.7755 7.9119 6.77148 8.06944 6.77148 8.22597C6.77148 8.39454 6.7775 8.56111 6.78654 8.72767C6.79657 8.88621 6.80961 9.04475 6.82868 9.20229C6.84273 9.31266 6.85778 9.42103 6.87684 9.53141C6.88487 9.59362 6.89591 9.65382 6.90795 9.71503C6.91999 9.77724 6.93103 9.83845 6.94507 9.90066C6.94909 9.91772 6.9531 9.93779 6.95712 9.95485C6.97116 10.0231 6.98621 10.0903 7.00327 10.1565C7.15378 10.7817 7.37855 11.3877 7.67054 11.9587C7.70767 12.0299 7.74379 12.1001 7.78292 12.1714C8.21238 12.9571 8.77028 13.6755 9.43956 14.2886C9.48772 14.3327 9.53789 14.3779 9.58906 14.422C9.77068 14.5826 9.96233 14.7351 10.162 14.8806C11.5728 15.9081 13.2435 16.4519 14.9975 16.4519C16.7514 16.4519 18.4211 15.9081 19.8329 14.8806C20.0326 14.7351 20.2242 14.5826 20.4058 14.422C20.456 14.3779 20.5062 14.3327 20.5553 14.2886C21.0571 13.83 21.4945 13.3133 21.8618 12.7534C21.9411 12.6309 22.0183 12.5055 22.0936 12.3801C22.1347 12.3109 22.1728 12.2406 22.212 12.1714C22.2511 12.1001 22.2872 12.0299 22.3244 11.9587C22.6164 11.3877 22.8411 10.7817 22.9916 10.1565C23.0087 10.0903 23.0247 10.0231 23.0378 9.95485C23.0418 9.93779 23.0458 9.91772 23.0498 9.90066C23.0639 9.83845 23.0749 9.77724 23.087 9.71503C23.099 9.65282 23.11 9.59261 23.1181 9.53141C23.1371 9.42103 23.1532 9.31266 23.1662 9.20229C23.1853 9.04576 23.1993 8.88722 23.2084 8.72767C23.2184 8.56111 23.2234 8.39454 23.2234 8.22597C23.2244 8.06843 23.2204 7.9119 23.2114 7.75738ZM22.2451 8.62834C22.2391 8.72366 22.2331 8.81798 22.224 8.9133C22.218 8.9715 22.212 9.0297 22.205 9.0879C22.1969 9.15412 22.1899 9.22135 22.1779 9.28958C22.1658 9.37086 22.1528 9.45214 22.1367 9.53542C22.1267 9.59161 22.1157 9.64981 22.1036 9.706C22.0665 9.87257 22.0263 10.0411 21.9802 10.2057C21.9631 10.2659 21.9451 10.3281 21.926 10.3873C21.5317 11.6436 20.7992 12.7855 19.7988 13.6705C19.7486 13.7146 19.6984 13.7598 19.6463 13.8019C19.5228 13.9043 19.3964 14.0056 19.265 14.0999C19.1335 14.1953 19.0021 14.2856 18.8646 14.3689C18.7934 14.417 18.7191 14.4622 18.6459 14.5023C18.5726 14.5465 18.4984 14.5876 18.4231 14.6257C18.3669 14.6588 18.3087 14.6899 18.2485 14.719C18.2134 14.7361 18.1793 14.7542 18.1442 14.7692C18.0087 14.8354 17.8732 14.8966 17.7338 14.9508C17.502 15.0472 17.2611 15.1304 17.0173 15.2007C16.938 15.2258 16.8548 15.2468 16.7735 15.2669C16.7093 15.284 16.6461 15.3 16.5798 15.3111C16.5487 15.3211 16.5156 15.3261 16.4845 15.3321C16.4323 15.3442 16.3802 15.3552 16.326 15.3632C16.2949 15.3713 16.2658 15.3753 16.2347 15.3783C16.1825 15.3903 16.1283 15.3973 16.0741 15.4054C16.03 15.4134 15.9848 15.4184 15.9407 15.4224C15.8995 15.4305 15.8574 15.4345 15.8152 15.4375C15.736 15.4475 15.6567 15.4545 15.5754 15.4606C15.4801 15.4686 15.3838 15.4746 15.2894 15.4776C15.1931 15.4816 15.0958 15.4836 14.9995 15.4836C14.9031 15.4836 14.8058 15.4816 14.7095 15.4776C14.6141 15.4736 14.5178 15.4676 14.4235 15.4606C14.3422 15.4545 14.263 15.4475 14.1837 15.4375C14.1415 15.4335 14.0984 15.4295 14.0583 15.4224C14.0141 15.4184 13.969 15.4124 13.9248 15.4054C13.8706 15.3973 13.8164 15.3903 13.7643 15.3783C13.7332 15.3743 13.7041 15.3703 13.6729 15.3632C13.6188 15.3552 13.5666 15.3442 13.5144 15.3321C13.4833 15.3261 13.4502 15.3201 13.4191 15.3111C13.3529 15.299 13.2896 15.284 13.2254 15.2669C13.1442 15.2478 13.0609 15.2258 12.9816 15.2007C12.7378 15.1314 12.498 15.0482 12.2652 14.9508C12.1257 14.8966 11.9902 14.8344 11.8548 14.7692C11.8196 14.7542 11.7855 14.7361 11.7504 14.719C11.6902 14.6899 11.632 14.6588 11.5758 14.6257C11.5006 14.5866 11.4263 14.5465 11.3531 14.5023C11.2798 14.4612 11.2056 14.417 11.1343 14.3689C10.9969 14.2856 10.8654 14.1943 10.734 14.0999C10.6025 14.0046 10.4761 13.9043 10.3527 13.8019C10.3005 13.7598 10.2503 13.7146 10.2001 13.6705C9.19974 12.7855 8.46825 11.6436 8.07291 10.3873C8.05384 10.3271 8.03578 10.2649 8.01872 10.2057C7.97257 10.0411 7.93143 9.87257 7.89531 9.706C7.88326 9.64981 7.87223 9.59161 7.86219 9.53542C7.84714 9.45214 7.83309 9.37086 7.82105 9.28958C7.80901 9.22135 7.80199 9.15412 7.79396 9.0879C7.78593 9.0297 7.77991 8.9715 7.7749 8.9133C7.76486 8.81798 7.75984 8.72366 7.75382 8.62834C7.7458 8.49488 7.74178 8.36143 7.74178 8.22597C7.74178 7.62191 7.81503 7.02589 7.96253 6.44893C8.00167 6.29239 8.04582 6.13686 8.09599 5.98234C8.14616 5.82781 8.20034 5.6763 8.26055 5.52779C9.29607 2.92996 11.7233 1.16697 14.5158 0.98535C14.6764 0.97331 14.8369 0.968293 14.9995 0.968293C15.162 0.968293 15.3226 0.974313 15.4831 0.98535C18.2756 1.16697 20.7008 2.92896 21.7364 5.52779C21.7986 5.6773 21.8528 5.82982 21.9029 5.98435C21.9531 6.13687 21.9983 6.29239 22.0364 6.44893C22.1839 7.02388 22.2571 7.62191 22.2571 8.22597C22.2571 8.36143 22.2531 8.49488 22.2451 8.62834Z" fill="#141414"/>
<path d="M8.70889 25.1615H5.80602C5.63845 25.1615 5.48292 25.0752 5.39462 24.9317C5.30632 24.7893 5.29829 24.6106 5.37355 24.4611C6.03981 23.1286 6.89472 21.9757 7.91419 21.0335C8.11989 20.8438 8.23327 20.5739 8.22524 20.294C8.2112 19.7903 7.78976 19.3688 7.28605 19.3548C7.02316 19.3488 6.7723 19.4441 6.58366 19.6287C6.39502 19.8123 6.29067 20.0592 6.29067 20.3231C6.29067 20.59 6.07393 20.8067 5.80702 20.8067C5.54011 20.8067 5.32338 20.59 5.32338 20.3231C5.32338 19.7963 5.53108 19.3036 5.90937 18.9353C6.28766 18.5681 6.78936 18.3724 7.31314 18.3885C8.32157 18.4166 9.16544 19.2595 9.19354 20.2689C9.20859 20.8278 8.98282 21.3666 8.57142 21.7459C7.82087 22.4393 7.16564 23.2611 6.61878 24.1952H8.70989C8.9768 24.1952 9.19354 24.412 9.19354 24.6789C9.19253 24.9448 8.9758 25.1615 8.70889 25.1615Z" fill="#141414"/>
<path d="M22.7422 18.3876C21.6756 18.3876 20.8066 19.2565 20.8066 20.3232V23.226C20.8066 24.2927 21.6756 25.1616 22.7422 25.1616C23.8088 25.1616 24.6778 24.2927 24.6778 23.226V20.3232C24.6778 19.2565 23.8088 18.3876 22.7422 18.3876ZM23.7095 23.226C23.7095 23.7598 23.276 24.1933 22.7422 24.1933C22.2084 24.1933 21.7749 23.7598 21.7749 23.226V20.3232C21.7749 19.7893 22.2084 19.3559 22.7422 19.3559C23.276 19.3559 23.7095 19.7893 23.7095 20.3232V23.226Z" fill="#141414"/>
<path d="M14.5087 11.9936V12.9437C14.5087 13.2342 14.7445 13.47 15.035 13.47C15.3255 13.47 15.5613 13.2342 15.5613 12.9437V12.0193C16.8445 11.8159 17.6681 10.7822 17.745 9.77746C17.8168 8.84621 17.2683 7.75948 15.5613 7.36647V5.08706C16.1713 5.32799 16.4925 5.96021 16.6429 6.37201C16.742 6.6454 17.0445 6.78551 17.3179 6.68641C17.5912 6.5873 17.7314 6.28486 17.6323 6.01147C17.4306 5.45785 16.848 4.25492 15.5596 3.99007V3.49625C15.5596 3.20577 15.3238 2.96997 15.0333 2.96997C14.7428 2.96997 14.507 3.20577 14.507 3.49625V3.98665C13.3827 4.2122 12.665 5.13832 12.5967 6.03881C12.5318 6.88291 13.0153 7.862 14.507 8.24133V10.8932C13.803 10.6216 13.434 9.89878 13.2614 9.43059C13.1623 9.1572 12.8598 9.01708 12.5864 9.11619C12.3131 9.21529 12.1729 9.51773 12.272 9.79284C12.4942 10.3926 13.123 11.6946 14.5087 11.9936ZM16.6976 9.69544C16.6583 10.2132 16.2294 10.7617 15.5647 10.9411V8.45663C16.3234 8.69072 16.7403 9.13328 16.6976 9.69544ZM13.6493 6.11912C13.68 5.70561 14.003 5.26818 14.5087 5.08193V7.13921C13.9295 6.92734 13.6151 6.5668 13.6493 6.11912Z" fill="#E50A14"/>
</svg>
