<svg width="28" height="28" viewBox="0 0 28 28" fill="none" xmlns="http://www.w3.org/2000/svg">
<path d="M28 14C28 21.7316 21.7316 28 14 28C6.26844 28 0 21.7316 0 14C0 6.26844 6.26844 0 14 0C21.7332 0 28 6.26844 28 14Z" fill="#2081E2"/>
<path d="M6.90703 14.4706L6.96742 14.3757L10.6094 8.67827C10.6626 8.59486 10.7877 8.60349 10.828 8.69409C11.4364 10.0577 11.9614 11.7535 11.7155 12.8093C11.6105 13.2437 11.3228 13.832 10.9992 14.3757C10.9575 14.4548 10.9114 14.5325 10.8625 14.6072C10.8395 14.6418 10.8007 14.6619 10.759 14.6619H7.01346C6.91277 14.6619 6.8538 14.5526 6.90703 14.4706Z" fill="white"/>
<path d="M23.1405 15.5292V16.431C23.1405 16.4828 23.1088 16.5288 23.0628 16.549C22.7809 16.6698 21.8157 17.1128 21.4144 17.6709C20.3903 19.0963 19.6078 21.1345 17.8588 21.1345H10.5619C7.97575 21.1345 5.88004 19.0316 5.88004 16.4368V16.3534C5.88004 16.2843 5.93612 16.2282 6.00517 16.2282H10.0729C10.1534 16.2282 10.2124 16.303 10.2052 16.3821C10.1764 16.6468 10.2254 16.9172 10.3505 17.1631C10.5921 17.6537 11.0927 17.96 11.6335 17.96H13.6472V16.3879H11.6565C11.5544 16.3879 11.494 16.2699 11.553 16.1865C11.5745 16.1534 11.599 16.1189 11.6249 16.0801C11.8133 15.8125 12.0823 15.3969 12.3498 14.9236C12.5325 14.6043 12.7094 14.2634 12.8518 13.9211C12.8806 13.8592 12.9036 13.7959 12.9266 13.7341C12.9654 13.6248 13.0057 13.5226 13.0345 13.4205C13.0633 13.3342 13.0863 13.2436 13.1093 13.1587C13.1769 12.8682 13.2056 12.5604 13.2056 12.2411C13.2056 12.1159 13.1999 11.985 13.1884 11.8599C13.1826 11.7233 13.1654 11.5866 13.1481 11.4499C13.1366 11.3291 13.115 11.2097 13.092 11.0846C13.0633 10.9019 13.023 10.7207 12.9769 10.538L12.9611 10.469C12.9266 10.3438 12.8978 10.2245 12.8576 10.0993C12.7439 9.70663 12.6131 9.32404 12.475 8.96589C12.4246 8.82349 12.3671 8.68685 12.3095 8.55021C12.2247 8.34452 12.1384 8.15753 12.0593 7.9806C12.019 7.90005 11.9845 7.82669 11.95 7.7519C11.9111 7.66703 11.8709 7.58216 11.8306 7.50163C11.8018 7.43978 11.7687 7.38224 11.7457 7.3247L11.4997 6.87018C11.4652 6.80833 11.5228 6.73497 11.5904 6.75367L13.1294 7.17079H13.1337C13.1366 7.17079 13.1381 7.17224 13.1395 7.17224L13.3423 7.22833L13.5653 7.29163L13.6472 7.31462V6.39983C13.6472 5.95825 14.0011 5.6001 14.4383 5.6001C14.657 5.6001 14.8555 5.68928 14.9979 5.83454C15.1403 5.97983 15.2294 6.17833 15.2294 6.39983V7.75767L15.3934 7.80367C15.4064 7.80801 15.4193 7.81375 15.4308 7.82237C15.4711 7.85259 15.5286 7.89716 15.602 7.95185C15.6595 7.99785 15.7214 8.05396 15.7962 8.1115C15.9443 8.23087 16.1212 8.38478 16.3154 8.56171C16.3672 8.60629 16.4175 8.65232 16.4636 8.69835C16.7139 8.93137 16.9943 9.20465 17.2619 9.50671C17.3367 9.59158 17.41 9.67788 17.4848 9.76849C17.5596 9.86055 17.6387 9.95116 17.7077 10.0418C17.7984 10.1626 17.8962 10.2877 17.981 10.4186C18.0213 10.4805 18.0673 10.5438 18.1062 10.6056C18.2155 10.771 18.3119 10.9422 18.4039 11.1134C18.4428 11.1925 18.483 11.2788 18.5176 11.3636C18.6197 11.5923 18.7002 11.8254 18.752 12.0584C18.7678 12.1087 18.7793 12.1634 18.7851 12.2123V12.2238C18.8023 12.2928 18.8081 12.3662 18.8139 12.441C18.8369 12.6798 18.8254 12.9185 18.7736 13.1587C18.752 13.2609 18.7232 13.3572 18.6887 13.4594C18.6542 13.5572 18.6197 13.6593 18.5751 13.7557C18.4888 13.9556 18.3867 14.1555 18.2658 14.3425C18.227 14.4116 18.181 14.4849 18.1349 14.554C18.0846 14.6273 18.0328 14.6963 17.9868 14.764C17.9235 14.8503 17.8559 14.9409 17.7869 15.0214C17.725 15.1063 17.6617 15.1912 17.5927 15.266C17.4963 15.3796 17.4042 15.4875 17.3079 15.591C17.2504 15.6586 17.1885 15.7277 17.1252 15.7895C17.0634 15.8585 17.0001 15.9204 16.9425 15.9779C16.8462 16.0743 16.7656 16.1491 16.698 16.211L16.5398 16.3562C16.5168 16.3764 16.4866 16.3879 16.4549 16.3879H15.2294V17.96H16.7714C17.1166 17.96 17.4445 17.8378 17.7092 17.6134C17.7998 17.5343 18.1954 17.1919 18.6628 16.6756C18.6786 16.6583 18.6988 16.6453 18.7218 16.6396L22.9808 15.4084C23.0599 15.3853 23.1405 15.4457 23.1405 15.5292Z" fill="white"/>
</svg>
