<svg width="80" height="80" viewBox="0 0 80 80" fill="none" xmlns="http://www.w3.org/2000/svg">
<g clip-path="url(#clip0_1801_933)">
<path d="M68.7843 44.8719C68.7852 45.9022 68.4002 46.8954 67.7053 47.6557C67.0103 48.4161 66.0558 48.8884 65.03 48.9795H60.9921L56.1016 40.7437H64.6574C65.7509 40.7469 66.7987 41.1829 67.5719 41.9564C68.3452 42.7299 68.781 43.778 68.7843 44.8719V44.8719Z" fill="#E50A14"/>
<path d="M75.8033 14.2913C75.8012 15.3282 75.4103 16.3266 74.7079 17.089C74.0054 17.8515 73.0426 18.3226 72.0097 18.4092H64.8343L57.543 10.1631H71.6764C72.7699 10.1664 73.8177 10.6024 74.5909 11.3758C75.3642 12.1493 75.8 13.1975 75.8033 14.2913V14.2913Z" fill="#E50A14"/>
<path d="M77.1061 34.6653C77.1021 35.6955 76.7144 36.6872 76.0186 37.4468C75.3229 38.2063 74.3691 38.6791 73.3435 38.7728H59.3755V38.7936H54.9444L50.1719 30.7421C52.494 30.0278 58.2786 29.0568 62.9726 34.8206L63.552 35.5266L64.3075 34.9986C67.3933 32.7813 68.8462 31.4191 69.5312 30.5661H73.4801C74.4808 30.688 75.4023 31.1724 76.0704 31.9277C76.7385 32.6829 77.1069 33.6568 77.1061 34.6653V34.6653Z" fill="#E50A14"/>
<path d="M79.9877 24.4981C79.9848 25.529 79.5975 26.5217 78.9016 27.2821C78.2058 28.0426 77.2514 28.516 76.2251 28.6098H73.5864C73.3918 28.5911 73.1848 28.5704 72.9799 28.5704H69.9024H69.8838C69.7762 28.4545 68.849 27.3158 70.0204 25.2765L70.3722 24.6699L66.5703 20.3699H75.8609C76.9544 20.3731 78.0021 20.8091 78.7754 21.5826C79.5486 22.3561 79.9844 23.4042 79.9877 24.4981V24.4981Z" fill="#E50A14"/>
<path d="M7.67563 7.73043V44.9383C7.67399 45.3826 7.49678 45.8082 7.18265 46.1223C6.86851 46.4364 6.44292 46.6136 5.99866 46.6153H1.65098C1.20836 46.6115 0.785102 46.4332 0.473079 46.1193C0.161055 45.8053 -0.0145512 45.381 -0.015625 44.9383V7.73043C-0.0145512 7.28779 0.161055 6.86344 0.473079 6.54947C0.785102 6.23551 1.20836 6.05728 1.65098 6.05347H5.99866C6.44292 6.0551 6.86851 6.23231 7.18265 6.54645C7.49678 6.86058 7.67399 7.28617 7.67563 7.73043V7.73043Z" fill="#141414"/>
<path d="M51.1039 4.33928C49.6552 5.5939 46.1555 7.08453 37.7941 7.08453C37.256 7.08453 36.6766 7.08453 36.1095 7.0659L35.7659 7.05555L35.501 7.26258C27.8434 13.0077 23.789 20.7425 23.789 29.6469V45.3628C19.6621 43.9694 13.5277 42.0979 9.63477 41.8039V11.8608C11.2718 11.6537 14.3949 10.4115 19.4945 5.39929C23.0456 1.92536 27.8187 -0.0143908 32.7856 -0.00218682C33.51 -0.00967592 34.2338 0.0394696 34.9505 0.144804L35.0291 0.16344H35.116C42.4011 0.202776 50.5058 0.536098 52.1325 0.991569C52.3395 1.56919 52.6334 3.0122 51.0977 4.33514L51.1039 4.33928Z" fill="#141414"/>
<path d="M68.7563 79.997H22.8105C23.2617 70.0451 30.4268 67.9396 31.8383 66.803H59.7493C61.1587 67.9416 68.3155 70.0451 68.7646 79.997H68.7563Z" fill="#E50A14"/>
<path d="M48.3188 29.3509L47.3398 29.8022L64.3335 58.4328L59.7265 64.8508H31.3126C29.1641 62.9215 27.2846 60.712 25.7246 58.2816V50.373H29.4603V52.6503H31.4099V46.1371H29.4603V48.4145H25.7267V38.891H29.4624V41.1683H31.412V34.6675H29.4624V36.9449H25.7267V29.6449C25.7251 28.5306 25.7942 27.4172 25.9336 26.3117L29.8059 27.0177L29.4023 29.2536L31.325 29.6056L32.482 23.2021L30.5593 22.8501L30.1578 25.0902L26.2482 24.3759C27.0432 20.5247 28.7772 16.9296 31.2961 13.9104L34.4315 16.3327L33.0407 18.138L34.5888 19.3326L38.5584 14.1672L37.0103 12.9809L35.6278 14.7841L32.5896 12.4405C33.7629 11.2019 35.0351 10.0608 36.3936 9.02861C36.8634 9.03896 37.3332 9.04931 37.7843 9.04931C44.2933 9.04931 48.9293 8.157 51.595 6.40137L67.9926 24.9328C67.0406 27.0032 67.5787 28.5518 68.032 29.3344C67.4421 30.0693 65.6395 31.5703 63.8762 32.885C60.4261 29.0901 56.5248 28.2661 53.7909 28.2661C51.9086 28.2524 50.0432 28.6222 48.3084 29.353L48.3188 29.3509Z" fill="#E50A14"/>
</g>
<defs>
<clipPath id="clip0_1801_933">
<rect width="80" height="80" fill="white"/>
</clipPath>
</defs>
</svg>
