<svg width="50" height="50" viewBox="0 0 50 50" fill="none" xmlns="http://www.w3.org/2000/svg">
<path d="M48.6303 22.4989C47.747 21.6156 46.5461 21.1194 45.2956 21.1194H34.7161C33.9519 21.1194 33.3365 21.7347 33.3365 22.4989V22.5287C33.3365 23.2929 32.7212 23.9082 31.957 23.9082H18.0428C17.2786 23.9082 16.6633 23.2929 16.6633 22.5287V22.4989C16.6633 21.7347 16.048 21.1194 15.2838 21.1194H4.71416C3.46367 21.1194 2.2628 21.6156 1.37951 22.4989C0.496227 23.3822 0 24.583 0 25.8335V45.2856C0 46.5361 0.496227 47.737 1.37951 48.6203C2.2628 49.5036 3.46367 49.9998 4.71416 49.9998H45.2857C46.5362 49.9998 47.7371 49.5036 48.6203 48.6203C49.5036 47.737 49.9999 46.5361 49.9999 45.2856V25.8335C50.0098 24.593 49.5135 23.3921 48.6303 22.4989Z" fill="#F5F3F4"/>
<path d="M31.4208 36.9581H18.5784C17.8241 36.9581 17.2188 36.3527 17.2188 35.5984V35.5389C17.2188 34.7846 17.8241 34.1792 18.5784 34.1792H31.4208C32.175 34.1792 32.7804 34.7846 32.7804 35.5389V35.5984C32.7804 36.3527 32.175 36.9581 31.4208 36.9581Z" fill="#141414"/>
<path d="M30.5569 23.3424C30.5569 26.4091 28.0658 28.9002 24.9992 28.9002C21.9325 28.9002 19.4414 26.4091 19.4414 23.3424C19.4414 20.2757 21.9325 17.7847 24.9992 17.7847C28.0658 17.7847 30.5569 20.2757 30.5569 23.3424Z" fill="#141414"/>
<path d="M21.6663 5.55774C21.6663 8.62443 19.1752 11.1155 16.1085 11.1155C13.0418 11.1155 10.5508 8.62443 10.5508 5.55774C10.5508 2.49106 13.0418 0 16.1085 0C19.1752 0 21.6663 2.49106 21.6663 5.55774Z" fill="#141414"/>
<path d="M42.7835 8.89246C42.7835 11.9591 40.2924 14.4502 37.2257 14.4502C34.159 14.4502 31.668 11.9591 31.668 8.89246C31.668 5.82578 34.159 3.33472 37.2257 3.33472C40.2924 3.33472 42.7835 5.82578 42.7835 8.89246Z" fill="#141414"/>
</svg>
