<svg width="80" height="120" viewBox="0 0 80 120" fill="none" xmlns="http://www.w3.org/2000/svg">
<path d="M66.4455 36.5794L53.5397 75.5843C53.156 76.7342 52.0928 77.4105 50.8904 77.3704L27.4453 75.7811C26.1988 75.6684 25.0379 76.5075 24.813 77.7576L21.6011 89.9651C15.9068 87.0464 10.9334 82.5619 7.37033 76.6772C-2.96706 59.604 2.14176 37.2331 18.7979 26.637C34.8162 16.4466 55.7146 20.9643 66.4455 36.5794Z" fill="#E50A14"/>
<path d="M17.6179 25.174C0.182036 36.2662 -5.26654 59.8596 5.59872 77.8045C9.2498 83.8346 15.1592 88.73 21.3301 91.9494L22.425 92.4604L26.4386 78.334C26.5192 77.9808 26.8736 77.7553 27.1742 77.7654L50.6633 79.4272C51.6091 79.53 52.5208 79.252 53.3004 78.756C54.1509 78.2149 54.8255 77.3832 55.1824 76.3511L68.8605 36.3517C57.372 19.8096 34.3449 14.5328 17.6179 25.174ZM52.7019 76.6205C52.6213 76.9737 52.3378 77.154 51.9223 77.1164L28.9218 75.9492C27.9759 75.8464 27.0643 76.1245 26.2847 76.6205C25.3633 77.2066 24.6618 78.1561 24.278 79.3059L21.4842 87.8259C16.8505 85.0374 12.1411 80.9889 9.23788 76.1939C-0.52766 60.0652 4.33916 38.754 20.0739 28.744C34.9582 19.2751 55.2993 23.8453 65.6808 38.0726L52.7019 76.6205Z" fill="#141414"/>
<path d="M27.5473 48.6743C26.9314 47.6572 27.518 46.6802 28.8647 45.8235C30.424 44.8315 33.3177 44.0976 36.033 43.8798C36.5902 43.8272 36.9544 43.2936 36.9471 42.7951L36.5342 39.0323C36.5269 38.5338 36.0772 38.1154 35.5908 38.1229C33.5746 38.198 31.4067 38.6714 29.3171 39.5982C28.8478 39.7961 28.3444 39.6132 28.0804 39.1773L26.3209 36.2712C26.0569 35.8353 25.4386 35.6248 24.9425 35.9405L22.6035 37.4284C22.1783 37.699 21.9729 38.3328 22.2809 38.8413L24.0844 41.8201C24.3483 42.256 24.2408 42.7269 23.9304 43.025C21.0122 45.9885 20.2495 49.5934 22.185 52.7901C26.8038 60.4185 36.4971 51.1323 38.6965 54.7648C39.4003 55.9273 38.7599 57.1397 37.1298 58.1768C35.2161 59.3942 31.7212 60.1081 28.7419 59.89C28.1407 59.8699 27.6617 60.376 27.713 60.9471L28.0819 64.6373C28.1601 65.0907 28.4949 65.4815 28.9543 65.5918C31.5181 65.7722 34.3311 65.3916 36.934 64.3395C37.4033 64.1416 37.9067 64.3245 38.1267 64.6878L40.0182 67.8118C40.3261 68.3204 40.9004 68.4582 41.3966 68.1425L43.7355 66.6546C44.1608 66.384 44.3661 65.7502 44.0582 65.2417L42.1667 62.1176C41.9027 61.6817 42.0103 61.2108 42.3916 60.8676C45.3978 58.0494 46.5588 54.2917 44.4034 50.7318C39.5279 43.166 29.6587 52.1616 27.5473 48.6743Z" fill="#141414"/>
<path d="M20.1001 103.701C19.6748 103.971 19.1616 104.097 18.6581 103.914C17.6952 103.621 17.0793 102.603 17.3653 101.616L23.4591 78.1157C24.058 76.024 25.9546 74.6161 28.0588 74.6864L51.5479 76.3483C51.8485 76.3583 52.2029 76.1328 52.3276 75.8523L71.1778 18.7754C71.4638 17.7883 72.5441 17.3024 73.507 17.5955C74.4699 17.8887 74.944 18.996 74.658 19.983L55.8078 77.0599C55.1209 79.0064 53.3221 80.2514 51.2887 80.1361L27.7996 78.4742C27.499 78.4641 27.1446 78.6896 27.064 79.0428L20.9702 102.543C20.7917 103.06 20.4545 103.475 20.1001 103.701Z" fill="#E50A14"/>
<path d="M79.1376 26.8949C78.2871 27.436 77.1384 27.1604 76.6105 26.2886L72.8275 20.0405L66.3068 24.1888C65.4563 24.7299 64.3076 24.4543 63.7797 23.5825C63.2519 22.7106 63.5207 21.5332 64.3713 20.9921L71.5299 16.438C72.8766 15.5813 74.7144 16.0223 75.5502 17.4027L79.7292 24.3046C80.257 25.1764 79.9881 26.3538 79.1376 26.8949Z" fill="#E50A14"/>
</svg>
