<svg width="60" height="60" viewBox="0 0 60 60" fill="none" xmlns="http://www.w3.org/2000/svg">
<g clip-path="url(#clip0_1801_1244)">
<path d="M59.9589 38.6809C58.3377 32.1118 52.098 27.1846 44.6113 27.1846C42.7397 27.1846 40.9932 27.5413 39.3707 28.0062C38.7472 30.5875 37.1247 33.2853 35.0039 35.045C38.9629 36.1057 42.4335 38.3755 44.868 41.4965H57.4689C59.0914 41.4965 60.2144 40.0887 59.9653 38.6809H59.9589Z" fill="#E50A14"/>
<path d="M44.6132 24.8397C48.6057 24.8397 51.8494 19.5606 51.8494 15.8034C51.8494 14.91 51.6623 14.0253 51.2986 13.1999C50.935 12.3744 50.4019 11.6244 49.73 10.9927C49.058 10.3609 48.2603 9.85978 47.3824 9.51788C46.5045 9.17598 45.5635 9 44.6132 9C43.6629 9 42.7219 9.17598 41.844 9.51788C40.9661 9.85978 40.1683 10.3609 39.4964 10.9927C38.8245 11.6244 38.2914 12.3744 37.9278 13.1999C37.5641 14.0253 37.377 14.91 37.377 15.8034C37.377 19.557 40.6207 24.8397 44.6132 24.8397V24.8397Z" fill="#141414"/>
<path d="M25.0236 34.9283C22.7776 33.1686 21.2802 30.4708 20.6568 27.8895C19.0342 27.3033 17.2878 27.0679 15.4161 27.0679C7.92946 27.0679 1.69101 31.9951 0.0684791 38.5642C-0.310912 39.972 0.942343 41.3798 2.43967 41.3798H15.167C17.5992 38.2597 21.0671 35.9899 25.0236 34.9283V34.9283Z" fill="#E50A14"/>
<path d="M15.4159 24.8397C19.4084 24.8397 22.6522 19.5606 22.6522 15.8034C22.6522 13.999 21.8898 12.2686 20.5328 10.9927C19.1757 9.71679 17.3351 9 15.4159 9C13.4968 9 11.6562 9.71679 10.2991 10.9927C8.94208 12.2686 8.17969 13.999 8.17969 15.8034C8.17842 19.5606 11.4235 24.8397 15.4159 24.8397Z" fill="#E50A14"/>
<path d="M30.0135 36.688C22.5268 36.688 16.2884 41.6152 14.6659 48.1843C14.5777 48.5208 14.5726 48.8719 14.6509 49.2106C14.7292 49.5492 14.8889 49.8666 15.1177 50.1383C15.3466 50.41 15.6385 50.6289 15.9712 50.7782C16.3038 50.9276 16.6684 51.0034 17.037 50.9998H42.8647C43.2332 51.0032 43.5976 50.9273 43.9301 50.7778C44.2627 50.6284 44.5544 50.4095 44.7831 50.1378C45.0118 49.8661 45.1714 49.5488 45.2496 49.2103C45.3279 48.8717 45.3228 48.5207 45.2346 48.1843C43.7385 41.6152 37.4988 36.688 30.0122 36.688H30.0135Z" fill="#E50A14"/>
<path d="M30.0136 34.4589C34.006 34.4589 37.2498 29.1797 37.2498 25.4225C37.2498 23.6182 36.4874 21.8877 35.1304 20.6118C33.7733 19.3359 31.9328 18.6191 30.0136 18.6191C28.0944 18.6191 26.2538 19.3359 24.8968 20.6118C23.5397 21.8877 22.7773 23.6182 22.7773 25.4225C22.7773 29.1797 26.0211 34.4589 30.0136 34.4589Z" fill="#E50A14"/>
</g>
<defs>
<clipPath id="clip0_1801_1244">
<rect width="60" height="60" fill="white"/>
</clipPath>
</defs>
</svg>
