<svg width="81" height="80" viewBox="0 0 81 80" fill="none" xmlns="http://www.w3.org/2000/svg">
<g clip-path="url(#clip0_1801_2006)">
<path d="M21.7086 18.4435C21.5648 18.7538 21.3259 19.0105 21.0264 19.1764C20.7269 19.3424 20.3823 19.409 20.0424 19.3667C19.882 19.3908 19.7181 19.3583 19.579 19.2749C13.374 19.2749 8.18781 24.3591 7.91012 30.6436C8.74319 35.2652 11.522 38.5011 16.1528 40.2576C16.5302 40.3945 16.8476 40.6588 17.0501 41.0048C17.2526 41.3508 17.3273 41.7567 17.2613 42.1519C17.1954 42.5471 16.9929 42.9069 16.6889 43.1687C16.385 43.4305 15.9989 43.5779 15.5974 43.5853C15.3768 43.6002 15.1555 43.5683 14.9482 43.4916C8.92896 41.1808 6.34371 37.0217 5.13126 33.4169C2.26049 34.988 0.500486 38.0483 0.500486 41.5614C0.487934 42.7924 0.718606 44.0137 1.17931 45.1557C1.64002 46.2977 2.32173 47.3378 3.18547 48.2167C3.46165 48.5116 3.63019 48.8908 3.6639 49.293C3.69761 49.6953 3.59451 50.0972 3.37125 50.4338C2.19524 52.1467 1.58034 54.1814 1.61124 56.2577C1.61124 59.4916 3.09356 62.5421 5.68664 64.3923H17.0778C17.6332 63.2818 18.3743 61.1564 17.6332 59.1227C16.9839 57.2745 15.2259 55.7951 12.2612 54.7802C11.8313 54.6208 11.4824 54.2974 11.2913 53.8813C11.1003 53.4651 11.0827 52.9902 11.2424 52.5611C11.4021 52.132 11.7261 51.7838 12.1431 51.5931C12.5601 51.4024 13.0359 51.3849 13.4659 51.5443C17.4474 52.93 19.9486 55.1491 20.8735 58.0142C21.5692 60.0951 21.5041 62.3547 20.6897 64.3923H33.8409V52.5494C30.4128 48.5758 25.2266 50.5158 25.1347 50.5158C24.2097 50.8866 23.2828 50.424 22.9112 49.4989C22.5397 48.5738 23.0051 47.6507 23.932 47.2798C25.9678 46.5421 30.1351 45.9878 33.8409 48.1132V14.3762C32.5414 13.642 31.0729 13.2579 29.5797 13.2617C26.2455 13.2617 23.1909 15.2017 21.7086 18.4376V18.4435ZM26.7089 26.9471C26.7089 26.9471 23.6544 28.7953 23.4686 31.4769C23.3767 33.1398 24.3936 34.8046 26.617 36.6528C26.9629 36.9416 27.1845 37.3518 27.2362 37.7988C27.2878 38.2459 27.1656 38.6956 26.8947 39.0554C26.7442 39.2568 26.5485 39.4202 26.3234 39.5327C26.0983 39.6452 25.8499 39.7037 25.5982 39.7034C25.1967 39.7081 24.8053 39.5774 24.4874 39.3325C21.339 36.7446 19.8567 34.0629 20.1343 31.2915C20.5059 26.8553 24.9509 24.1737 25.1367 24.082C25.5447 23.8616 26.0219 23.806 26.4699 23.9266C26.9178 24.0472 27.3023 24.3347 27.544 24.7299C27.7278 25.4677 27.544 26.4865 26.7089 26.9471V26.9471Z" fill="#E50A14"/>
<path d="M65.9772 47.8341C66.7522 47.8456 67.5257 47.9076 68.2926 48.0195C69.8632 46.267 70.7217 43.9925 70.6999 41.6414C70.6999 38.222 68.848 35.0779 66.0691 33.5067C64.9584 37.2032 62.2714 41.2706 56.2522 43.5814C56.0456 43.6583 55.8249 43.6902 55.6049 43.6751C55.2641 43.6576 54.9353 43.544 54.6566 43.3474C54.3779 43.1508 54.1609 42.8794 54.0307 42.5645C53.6591 41.6414 54.1226 40.6246 54.9557 40.3474C59.5864 38.4972 62.2714 35.273 63.1983 30.7334C62.8268 24.3572 57.8264 19.273 51.7153 19.273C51.4739 19.3387 51.2243 19.3696 50.9741 19.3648C50.3249 19.3648 49.5837 18.9959 49.306 18.4416C47.7318 15.2994 44.7691 13.3575 41.4349 13.3575C39.972 13.353 38.5341 13.7355 37.2676 14.466V48.1113C40.8795 45.9859 45.0468 46.5401 47.1764 47.3735C47.3946 47.4482 47.5956 47.5657 47.7676 47.7191C47.9395 47.8725 48.079 48.0587 48.1778 48.2667C48.2765 48.4748 48.3326 48.7004 48.3426 48.9304C48.3527 49.1604 48.3165 49.39 48.2363 49.6058C48.156 49.8216 48.0333 50.0192 47.8753 50.187C47.7174 50.3547 47.5274 50.4892 47.3165 50.5826C47.1057 50.6759 46.8783 50.7262 46.6477 50.7305C46.4171 50.7348 46.1879 50.6929 45.9737 50.6075C45.788 50.5157 40.6937 48.6675 37.2676 52.6411V64.3806H48.1034C48.7506 55.1373 56.5299 47.8341 65.9772 47.8341V47.8341ZM46.7149 39.2467C46.4028 39.5013 46.0067 39.6307 45.6041 39.6097C45.1426 39.6097 44.5853 39.4262 44.3076 38.9637C44.1608 38.7905 44.0511 38.589 43.9854 38.3719C43.9197 38.1547 43.8993 37.9263 43.9255 37.701C43.9517 37.4756 44.024 37.258 44.1378 37.0616C44.2516 36.8652 44.4046 36.6942 44.5873 36.5592C46.8088 34.8027 47.8276 33.0461 47.7357 31.3833C47.5499 28.7954 44.4934 26.9471 44.4934 26.9471C44.2927 26.8318 44.1167 26.6781 43.9755 26.4949C43.8343 26.3117 43.7307 26.1025 43.6705 25.8793C43.6103 25.6562 43.5947 25.4233 43.6247 25.1941C43.6547 24.9649 43.7296 24.7439 43.8451 24.5436C43.9607 24.3433 44.1146 24.1677 44.2982 24.0268C44.4818 23.8858 44.6914 23.7824 44.915 23.7223C45.1386 23.6622 45.3719 23.6467 45.6016 23.6766C45.8312 23.7065 46.0527 23.7813 46.2534 23.8966C46.4372 23.9903 50.8842 26.67 51.2538 31.1062C51.3476 33.9732 49.8653 36.7446 46.7169 39.2408L46.7149 39.2467Z" fill="#E50A14"/>
<path d="M19.4862 11.6241C19.9497 12.6409 20.8766 13.2869 21.8935 13.2869C22.2397 13.2706 22.5823 13.2089 22.9124 13.1035C23.2317 12.9739 23.5217 12.7818 23.7654 12.5384C24.0091 12.2951 24.2014 12.0055 24.331 11.6868C24.4606 11.368 24.5249 11.0266 24.52 10.6826C24.5152 10.3386 24.4413 9.99909 24.3028 9.68409L20.7828 5.08395C20.5102 4.45035 19.9975 3.95016 19.3566 3.69268C18.7157 3.43519 17.9987 3.44133 17.3623 3.70977C16.7259 3.97821 16.2219 4.48711 15.9603 5.12529C15.6987 5.76347 15.7008 6.47904 15.9662 7.11566L19.4862 11.6241Z" fill="#141414"/>
<path d="M48.1026 13.1036C48.4326 13.2095 48.7751 13.2719 49.1214 13.289C49.644 13.2857 50.1533 13.125 50.5829 12.8279C51.0124 12.5309 51.342 12.1113 51.5287 11.6242L55.0487 7.02405C55.3189 6.3866 55.3243 5.66813 55.0638 5.02669C54.8032 4.38525 54.298 3.87338 53.6593 3.6037C53.0206 3.33402 52.3007 3.32861 51.658 3.58867C51.0153 3.84872 50.5024 4.35293 50.2322 4.99038L46.7122 9.59054C46.4461 10.2421 46.4422 10.971 46.7012 11.6255C46.9602 12.2799 47.4622 12.8093 48.1026 13.1036V13.1036Z" fill="#141414"/>
<path d="M38.194 7.9278V2.58795C38.194 1.90158 37.9208 1.24333 37.4345 0.757992C36.9482 0.272657 36.2886 0 35.6009 0C34.9132 0 34.2536 0.272657 33.7673 0.757992C33.281 1.24333 33.0078 1.90158 33.0078 2.58795V7.9278C33.0078 8.61416 33.281 9.27242 33.7673 9.75775C34.2536 10.2431 34.9132 10.5157 35.6009 10.5157C36.2886 10.5157 36.9482 10.2431 37.4345 9.75775C37.9208 9.27242 38.194 8.61416 38.194 7.9278V7.9278Z" fill="#141414"/>
<path d="M65.9769 51.3472C62.1704 51.3503 58.5208 52.8607 55.8292 55.547C53.1377 58.2332 51.6242 61.8756 51.6211 65.6745C51.6211 73.5301 58.1057 79.9999 65.9769 79.9999C67.8761 80.0221 69.7608 79.6678 71.5218 78.9578C73.2829 78.2478 74.8853 77.196 76.2361 75.8635C77.5869 74.531 78.6594 72.9442 79.3914 71.195C80.1233 69.4458 80.5002 67.5691 80.5002 65.6736C80.5002 63.778 80.1233 61.9013 79.3914 60.1521C78.6594 58.403 77.5869 56.8162 76.2361 55.4836C74.8853 54.1511 73.2829 53.0994 71.5218 52.3893C69.7608 51.6793 67.8761 51.325 65.9769 51.3472V51.3472ZM72.8214 63.8243L65.4215 71.2271C65.2176 71.4343 64.9741 71.5985 64.7053 71.7098C64.4365 71.8211 64.148 71.8773 63.8571 71.8751C63.5769 71.8868 63.2977 71.8345 63.0408 71.7222C62.7839 71.6099 62.5561 71.4406 62.3747 71.2271L58.6611 67.5189C58.2558 67.1144 58.0281 66.5657 58.0281 65.9936C58.0281 65.4216 58.2558 64.8729 58.6611 64.4684C59.0664 64.0639 59.6162 63.8366 60.1894 63.8366C60.7626 63.8366 61.3123 64.0639 61.7177 64.4684L63.8473 66.5938L69.7746 60.688C70.182 60.2882 70.7305 60.0642 71.3019 60.0642C71.8732 60.0642 72.4217 60.2882 72.8292 60.688C73.7561 61.6131 73.7561 62.9988 72.8292 63.8321L72.8214 63.8243Z" fill="#141414"/>
</g>
<defs>
<clipPath id="clip0_1801_2006">
<rect width="80" height="80" fill="white" transform="translate(0.5)"/>
</clipPath>
</defs>
</svg>
