<svg width="80" height="80" viewBox="0 0 80 80" fill="none" xmlns="http://www.w3.org/2000/svg">
<path d="M40.0045 19.0928C38.4553 19.0895 36.94 19.5548 35.6503 20.43C34.3605 21.3052 33.3544 22.5508 32.7592 24.0092C32.164 25.4676 32.0064 27.0733 32.3065 28.6231C32.6066 30.1729 33.3507 31.597 34.4449 32.7154C35.539 33.8337 36.9339 34.596 38.453 34.9057C39.9722 35.2154 41.5473 35.0586 42.979 34.4552C44.4107 33.8517 45.6347 32.8288 46.4961 31.5158C47.3574 30.2028 47.8175 28.6588 47.8179 27.0791C47.8099 24.9668 46.9848 22.9431 45.5217 21.4477C44.0587 19.9523 42.076 19.106 40.0045 19.0928V19.0928Z" fill="#E50A14"/>
<path d="M34.7886 36.8262C33.6026 36.8305 32.4262 37.0429 31.3108 37.454V37.454C31.2962 37.4602 31.2821 37.4674 31.2685 37.4755C30.3126 37.8255 29.4118 38.3155 28.5943 38.93C28.5497 38.9635 28.5027 38.9947 28.458 39.0306C28.0693 39.334 27.7018 39.6646 27.3583 40.0202C27.3277 40.0514 27.3019 40.0825 27.2737 40.1137C26.9808 40.4254 26.7069 40.7551 26.4536 41.1009C26.3831 41.1967 26.3126 41.2926 26.2444 41.3908C25.9951 41.7525 25.7691 42.1303 25.5676 42.5218C25.5042 42.6416 25.4501 42.7614 25.3914 42.8908C25.2387 43.2191 25.1 43.5569 24.9778 43.9019C24.9355 44.0218 24.8862 44.1416 24.8486 44.2614C24.7235 44.6767 24.6223 45.0992 24.5454 45.5265C24.5149 45.699 24.4867 45.8764 24.4655 46.0513C24.4144 46.4382 24.3846 46.8278 24.3762 47.2182C24.3762 47.3021 24.3574 47.3787 24.3574 47.4578V56.3235C24.3562 56.5574 24.4004 56.7893 24.4876 57.0057C24.5747 57.2222 24.7031 57.4188 24.8652 57.5844C25.0274 57.7499 25.22 57.881 25.4322 57.9702C25.6443 58.0594 25.8716 58.1048 26.1011 58.1038H28.3029C28.3029 58.0176 28.2888 57.9313 28.2888 57.8426C28.6366 52.8946 30.7562 49.1135 34.791 47.1847C36.4143 46.3709 38.1966 45.9409 40.0054 45.9267C40.5885 45.9307 41.1706 45.9788 41.7467 46.0704C42.9572 46.255 44.1316 46.6326 45.2269 47.1894C49.3228 49.5209 51.6891 53.4913 51.7267 57.8474C51.7267 57.9361 51.715 58.02 51.7126 58.1086H53.9145C54.1439 58.1093 54.3713 58.0636 54.5834 57.9744C54.7955 57.8851 54.9882 57.754 55.1505 57.5886C55.3127 57.4231 55.4413 57.2266 55.5288 57.0103C55.6163 56.7941 55.6611 56.5623 55.6605 56.3283V47.4626C55.6605 47.3811 55.644 47.3045 55.6417 47.223C55.6322 46.8327 55.6024 46.4432 55.5524 46.0561C55.5312 45.8788 55.503 45.7038 55.4725 45.5313C55.396 45.0945 55.2924 44.6632 55.1623 44.2398C55.1317 44.1416 55.0894 44.0505 55.0565 43.9547C54.927 43.5779 54.7764 43.2091 54.6054 42.85C54.5607 42.7566 54.5208 42.6608 54.4738 42.5673C54.2575 42.1518 54.0141 41.7515 53.7453 41.3692C53.7006 41.3021 53.6536 41.2398 53.6066 41.1752C53.3305 40.792 53.0298 40.4278 52.7066 40.0849L52.6831 40.0562C52.329 39.689 51.9497 39.3478 51.5481 39.0354L51.4565 38.9659C50.6297 38.3346 49.7148 37.8331 48.7424 37.4779L48.7165 37.4635C47.5992 37.0542 46.4212 36.8434 45.234 36.8405H34.7886V36.8262Z" fill="#E50A14"/>
<path d="M40.0059 47.7002C39.6462 47.7043 39.287 47.7274 38.9297 47.7697L40.9506 49.5189L43.8269 48.4765C42.6155 47.9647 41.3172 47.7009 40.0059 47.7002V47.7002Z" fill="#141414"/>
<path d="M36.8065 48.251C35.3627 48.7491 34.0494 49.5769 32.9668 50.6711V50.6711L34.0407 54.7445L35.876 55.4633L39.4784 53.3428L39.8309 50.8891L36.8065 48.251Z" fill="#141414"/>
<path d="M45.5951 49.4443L45.5434 49.7295L41.5486 51.1791L41.2031 53.5465L44.2744 56.3524L46.4716 55.9546L47.5596 51.8165L47.9473 51.7135C47.2902 50.8332 46.4964 50.0684 45.5974 49.4491L45.5951 49.4443Z" fill="#141414"/>
<path d="M31.6162 52.375C30.6578 53.8967 30.1166 55.6524 30.0488 57.4596L32.3376 55.1234L31.6162 52.375Z" fill="#141414"/>
<path d="M48.9537 53.3643L48.1406 56.4529L49.9665 58.3147C49.9783 58.1589 49.9876 58.0056 49.9923 57.8498C49.9885 56.2934 49.6339 54.7587 48.956 53.3643H48.9537Z" fill="#141414"/>
<path d="M40.1643 54.9746L36.9238 56.8843L37.7016 60.6175L41.4286 61.0081L42.9466 57.5241L40.1643 54.9746Z" fill="#141414"/>
<path d="M33.5276 56.4219L30.9169 59.0792L30.5597 59.441L30.1484 59.3308C30.2914 60.2959 30.5691 61.2351 30.9733 62.1199L35.0151 62.52L36.049 61.195L35.1843 57.0832L33.5276 56.4219Z" fill="#141414"/>
<path d="M46.8767 57.6729L44.6161 58.085L42.9336 61.9332L43.7185 63.4284H47.9483L48.1245 63.7399C48.815 62.759 49.3283 61.6603 49.6402 60.4955L46.8767 57.6729Z" fill="#141414"/>
<path d="M37.3638 62.3594L36.4121 63.5814L38.1604 67.5087L37.9677 67.7866C38.6388 67.9283 39.3222 67.9998 40.0075 67.9999H40.0874L42.2023 64.3002L41.4151 62.7931L37.3638 62.3594Z" fill="#141414"/>
<path d="M32.0938 64.0225C33.1423 65.4201 34.5285 66.5164 36.1168 67.2045L34.822 64.3028L32.0938 64.0225Z" fill="#141414"/>
<path d="M43.6963 65.1973L42.2559 67.7276C43.9926 67.3215 45.5911 66.4487 46.8852 65.1997L43.6963 65.1973Z" fill="#141414"/>
</svg>
