<svg width="80" height="80" viewBox="0 0 80 80" fill="none" xmlns="http://www.w3.org/2000/svg">
<path d="M75.2484 9.08349L71.4871 8.76367C71.6483 9.35001 71.702 9.93635 71.702 10.576V71.3423C71.702 75.7132 68.1019 79.2846 63.6958 79.2846H61.2778L69.0154 79.9775C71.8632 80.244 74.4424 78.1119 74.6574 75.2868L79.9769 14.7337C80.2456 11.8553 78.15 9.29671 75.2484 9.08349Z" fill="#141414"/>
<path d="M68.9078 71.2891V10.5228C68.9078 7.64436 66.5435 5.35229 63.6957 5.35229H60.4717C60.6329 5.83203 60.7404 6.36507 60.7941 6.8981L66.1137 67.4512C66.4898 71.8221 63.2121 75.66 58.8597 76.0331L53.9163 76.4595H63.6957C66.5435 76.5128 68.9078 74.1675 68.9078 71.2891Z" fill="#141414"/>
<path d="M57.0328 64.093L46.3936 4.28615C45.9101 1.46105 43.1697 -0.404584 40.3218 0.0751497L4.32067 6.36499C1.47281 6.84473 -0.407843 9.56322 0.0757549 12.3883L10.7149 72.2484C11.1985 75.0735 13.9389 76.9392 16.7867 76.4595L52.7879 70.1696C55.6357 69.6366 57.5164 66.9181 57.0328 64.093Z" fill="#141414"/>
<path d="M42.0413 44.8503C39.8382 47.9419 36.0232 49.2212 32.5305 48.3151C32.7992 49.1146 33.0141 49.701 33.1216 49.9675C33.8739 51.4067 36.5605 52.4728 36.0232 53.752C35.4859 55.0313 34.4112 53.6454 31.4022 54.1785C28.3931 54.7115 27.8558 56.3639 26.8886 55.3512C25.9214 54.3384 28.0707 52.4194 28.2856 50.8203C28.3394 50.5538 28.3394 49.9142 28.2856 49.0613C25.3303 51.0869 21.3003 51.1935 18.1301 49.008C14.1001 46.2362 13.1329 40.7459 15.927 36.7481C18.6137 32.9103 25.8676 23.5288 25.8676 23.5288C25.8676 23.5288 35.9157 29.872 39.7845 32.5904C43.8682 35.3622 44.8354 40.8525 42.0413 44.8503Z" fill="#E50A14"/>
<path d="M63.3196 67.7175L58 7.16442C57.7313 4.33932 55.2059 2.20716 52.358 2.47368L48.8654 2.79351C48.9728 3.11333 49.0803 3.48645 49.134 3.80628L59.7732 63.6664C60.5254 67.984 57.6238 72.0884 53.2715 72.888L42.6323 74.7536L58.5373 73.3677C61.4389 73.0479 63.5882 70.5426 63.3196 67.7175Z" fill="#141414"/>
</svg>
