<svg width="14" height="17" viewBox="0 0 14 17" fill="none" xmlns="http://www.w3.org/2000/svg">
<path d="M10.6005 6.76501C10.3446 6.6188 10.0157 6.6188 9.72324 6.76501L7.67624 7.97128L6.28721 8.7389L4.27676 9.94517C4.02089 10.0914 3.69191 10.0914 3.39948 9.94517L1.82768 8.99478C1.5718 8.84856 1.38903 8.55614 1.38903 8.22715V6.39948C1.38903 6.10705 1.53525 5.81462 1.82768 5.63185L3.39948 4.71802C3.65535 4.5718 3.98433 4.5718 4.27676 4.71802L5.84856 5.66841C6.10444 5.81462 6.28721 6.10705 6.28721 6.43603V7.6423L7.67624 6.83812V5.5953C7.67624 5.30287 7.53003 5.01044 7.2376 4.82768L4.31332 3.10966C4.05744 2.96345 3.72846 2.96345 3.43603 3.10966L0.438642 4.86423C0.146214 5.01044 0 5.30287 0 5.5953V9.03133C0 9.32376 0.146214 9.61619 0.438642 9.79896L3.39948 11.517C3.65535 11.6632 3.98433 11.6632 4.27676 11.517L6.28721 10.3473L7.67624 9.54308L9.68668 8.37337C9.94256 8.22715 10.2715 8.22715 10.564 8.37337L12.1358 9.28721C12.3916 9.43342 12.5744 9.72585 12.5744 10.0548V11.8825C12.5744 12.1749 12.4282 12.4674 12.1358 12.6501L10.6005 13.564C10.3446 13.7102 10.0157 13.7102 9.72324 13.564L8.15144 12.6501C7.89556 12.5039 7.71279 12.2115 7.71279 11.8825V10.7128L6.32376 11.517V12.7232C6.32376 13.0157 6.46997 13.3081 6.7624 13.4909L9.72324 15.2089C9.97911 15.3551 10.3081 15.3551 10.6005 15.2089L13.5614 13.4909C13.8172 13.3446 14 13.0522 14 12.7232V9.25065C14 8.95822 13.8538 8.6658 13.5614 8.48303L10.6005 6.76501Z" fill="#8247E5"/>
</svg>
