<svg width="20" height="20" viewBox="0 0 20 20" fill="none" xmlns="http://www.w3.org/2000/svg">
<path d="M8.53147 15H11.4685C11.7011 15.9532 12.4654 17.727 15 19H5C7.52723 17.7333 8.29887 15.9532 8.53147 15V15Z" fill="#141414"/>
<path d="M12.4728 5.11595L13.4328 3.11584L13 0H10.5L12.7322 2.97961C12.7735 3.03688 12.799 3.10401 12.806 3.17425C12.813 3.24449 12.8014 3.31534 12.7722 3.37964L11.8922 5.30406L12.4328 5.81598V5.28785C12.433 5.22826 12.4466 5.1695 12.4728 5.11595Z" fill="#141414"/>
<path d="M11 12H9V15H11V12Z" fill="white"/>
<path d="M3.99585 19.6C3.99578 19.6525 4.00606 19.7045 4.02611 19.753C4.04615 19.8015 4.07557 19.8456 4.11267 19.8828C4.14977 19.9199 4.19384 19.9494 4.24234 19.9695C4.29085 19.9896 4.34284 20 4.39535 20H15.5963C15.7023 19.9998 15.804 19.9577 15.879 19.8827C15.954 19.8077 15.9962 19.706 15.9963 19.6V18.3999H3.99585V19.6Z" fill="white"/>
<path d="M4.19579 5.91169C3.78167 5.35214 3.52484 4.69198 3.45194 3.99969H4.19579V1.6001H1.41989C1.32045 1.59959 1.2244 1.63613 1.15044 1.70259C1.07648 1.76905 1.02993 1.86066 1.01985 1.95958C1.01607 1.99958 0.563598 7.12797 4.19579 8.61994V5.91169Z" fill="#141414"/>
<path d="M18.9723 1.95957C18.9622 1.8606 18.9157 1.76892 18.8417 1.70237C18.7678 1.63583 18.6717 1.59917 18.5723 1.59955H15.7964V3.99968H16.5402C16.4675 4.69202 16.2107 5.35225 15.7964 5.91168V8.61993C19.4296 7.12796 18.9972 1.99957 18.9723 1.95957Z" fill="#141414"/>
<path d="M15.9968 6.58793V0.40003C15.9969 0.347478 15.9866 0.295428 15.9665 0.246863C15.9464 0.198298 15.917 0.154172 15.8798 0.117012C15.8427 0.0798528 15.7985 0.0503908 15.75 0.030313C15.7014 0.0102353 15.6494 -6.37253e-05 15.5968 7.43469e-06H12.5966C12.5281 0.000915212 12.4609 0.0190196 12.4013 0.0526564C12.3416 0.0862932 12.2913 0.134384 12.2551 0.19251C12.2189 0.250635 12.1979 0.316933 12.194 0.385309C12.19 0.453685 12.2034 0.521947 12.2327 0.583823L13.4328 3.11585L12.4728 5.11596C12.4466 5.16951 12.433 5.22828 12.4328 5.28786V5.816L11.8922 5.30408L12.7722 3.37965C12.8014 3.31535 12.813 3.2445 12.806 3.17427C12.799 3.10403 12.7735 3.03689 12.7322 2.97963L10.7321 0.180017C10.6955 0.124359 10.6456 0.0787356 10.5868 0.0472966C10.5281 0.0158575 10.4624 -0.000398911 10.3958 7.43469e-06H4.39535C4.34284 7.38661e-06 4.29085 0.0103585 4.24234 0.0304681C4.19384 0.0505777 4.14977 0.0800512 4.11267 0.117204C4.07557 0.154356 4.04615 0.198459 4.02611 0.246989C4.00606 0.295519 3.99578 0.347524 3.99585 0.40003V8.87184H4.03153C4.13696 9.66807 4.5057 10.4062 5.07906 10.9686C5.65242 11.5311 6.39745 11.8856 7.19557 11.9758V12.3996H12.796V11.9758C13.5924 11.8861 14.336 11.5333 14.9091 10.9732C15.4823 10.4131 15.8521 9.67777 15.9601 8.88373H15.9968V6.58793Z" fill="white"/>
</svg>
