<svg width="50" height="50" viewBox="0 0 50 50" fill="none" xmlns="http://www.w3.org/2000/svg">
<path d="M5 15C5 12.2386 7.23858 10 10 10H40C42.7614 10 45 12.2386 45 15V45C45 47.7614 42.7614 50 40 50H10C7.23858 50 5 47.7614 5 45V15Z" fill="#F5F3F4"/>
<path d="M31.6459 10C33.3885 9.33233 35.0082 8.55128 35.7385 7.9529C37.9656 6.01288 38.0885 3.01467 36.0639 1.25102C35.0516 0.369188 33.6777 -0.0528291 32.2171 0.0164573C30.7999 0.0857437 29.4622 0.61484 28.4138 1.53446C27.3581 2.45408 26.0276 5.02398 25.0153 7.21595C24.003 5.03027 22.6653 2.49187 21.6169 1.53446C19.3898 -0.40556 15.948 -0.512639 13.9233 1.25102C11.8987 3.01467 12.0578 6.01288 14.2487 7.9529C14.979 8.58908 16.5987 9.32603 18.3413 10" fill="#141414"/>
<path d="M33.9171 33.7144C32.5497 37.4899 28.9477 40.0001 24.9987 40.0001C20.9987 40.0001 17.3967 37.4899 16.0804 33.7756C15.7334 32.745 16.2538 31.6634 17.2232 31.2654C18.2538 30.8675 19.3355 31.4389 19.7334 32.4083C20.5293 34.6328 22.6518 36.0614 24.9885 36.0614C27.3252 36.0614 29.4477 34.5716 30.2436 32.4083C30.5906 31.3777 31.7334 30.8675 32.7538 31.2042C33.7946 31.6022 34.315 32.6838 33.9171 33.7144Z" fill="#141414"/>
<path d="M18.2551 26.5715C20.0528 26.5715 21.5102 25.1141 21.5102 23.3164C21.5102 21.5186 20.0528 20.0613 18.2551 20.0613C16.4574 20.0613 15 21.5186 15 23.3164C15 25.1141 16.4574 26.5715 18.2551 26.5715Z" fill="#141414"/>
<path d="M31.7434 26.5102C33.5411 26.5102 34.9985 25.0528 34.9985 23.2551C34.9985 21.4574 33.5411 20 31.7434 20C29.9456 20 28.4883 21.4574 28.4883 23.2551C28.4883 25.0528 29.9456 26.5102 31.7434 26.5102Z" fill="#141414"/>
</svg>
