<svg width="80" height="80" viewBox="0 0 80 80" fill="none" xmlns="http://www.w3.org/2000/svg">
<path d="M5.4195 74.5756V15.1028H0V80H79.9999V74.5756H5.4195Z" fill="#E50A14"/>
<path d="M8.89648 72.2719H22.0332V30.8674L8.89648 42.1393V72.2719Z" fill="#E50A14"/>
<path d="M38.652 43.231V72.2734H25.5117V30.8743L33.3109 36.9952L38.652 43.231Z" fill="#E50A14"/>
<path d="M55.2698 33.335V72.2718H42.1348V41.1572L55.2698 33.335Z" fill="#E50A14"/>
<path d="M71.8883 33.335H58.748V72.2736H71.8883V33.335Z" fill="#E50A14"/>
<path d="M80.0001 18.6777H65.5742L75.7739 28.8734C78.2541 26.0245 79.7377 22.4452 80.0001 18.6777V18.6777Z" fill="#141414"/>
<path d="M63.8105 0V16.1808H79.9976C79.6974 11.9886 77.8956 8.045 74.9226 5.07309C71.9495 2.10118 68.0044 0.300074 63.8105 0V0Z" fill="#E50A14"/>
<path d="M74.0128 30.6393L61.6757 18.3069C61.5562 18.19 61.4624 18.0495 61.4005 17.8942C61.3444 17.7461 61.3144 17.5894 61.3116 17.431V0C58.5475 0.196855 55.8697 1.04744 53.4989 2.48165C51.1281 3.91587 49.1322 5.89268 47.6756 8.24919C46.219 10.6057 45.3434 13.2745 45.1209 16.0356C44.8984 18.7967 45.3355 21.5711 46.3961 24.1303C47.4567 26.6894 49.1104 28.9601 51.221 30.7551C53.3316 32.55 55.8387 33.818 58.5357 34.4545C61.2327 35.091 64.0424 35.0778 66.7332 34.416C69.4241 33.7542 71.9192 32.4627 74.0128 30.648V30.6393Z" fill="#141414"/>
<path d="M38.652 41.1849V45.1447L28.562 41.1135L25.5117 30.8743L33.3109 36.9952L38.652 41.1849Z" fill="#141414"/>
</svg>
