<svg width="80" height="120" viewBox="0 0 80 120" fill="none" xmlns="http://www.w3.org/2000/svg">
<path fill-rule="evenodd" clip-rule="evenodd" d="M41.5903 26C41.0797 26 40.5883 26.1953 40.2171 26.546L12.6877 52.546C11.3721 53.7884 12.2514 56 14.0609 56H65.4792C70.9963 56 73.5889 62.8191 69.4654 66.4845L41.3287 91.4948L38.6713 88.5052L66.8079 63.4948C68.1824 62.273 67.3182 60 65.4792 60H14.0609C8.63244 60 5.9946 53.3652 9.94116 49.6379L37.4706 23.6379C38.5844 22.586 40.0583 22 41.5903 22H68V26H41.5903Z" fill="#141414"/>
<rect x="28" y="4" width="24" height="32" rx="2" fill="#E50A14"/>
<path d="M39.9998 16C36.3731 16 33.3651 18.1798 32.7891 20.9918C32.5638 21.0401 32.3617 21.1661 32.2165 21.3487C32.0714 21.5313 31.9922 21.7593 31.9922 21.9946C31.9922 22.2298 32.0714 22.4578 32.2165 22.6404C32.3617 22.823 32.5638 22.949 32.7891 22.9973C33.3651 25.8093 36.3731 27.9891 39.9998 27.9891C43.6265 27.9891 46.6345 25.8093 47.2105 22.9973C47.4358 22.949 47.638 22.823 47.7831 22.6404C47.9282 22.4578 48.0074 22.2298 48.0074 21.9946C48.0074 21.7593 47.9282 21.5313 47.7831 21.3487C47.638 21.1661 47.4358 21.0401 47.2105 20.9918C46.6345 18.1798 43.6265 16 39.9998 16ZM39.7865 26.2888C39.8406 26.2859 39.8947 26.2941 39.9457 26.3129C39.9966 26.3317 40.0434 26.3608 40.0832 26.3984C40.1229 26.436 40.155 26.4813 40.1773 26.5318C40.1996 26.5822 40.2118 26.6367 40.2132 26.6921C40.223 26.7559 40.2192 26.8211 40.202 26.8832C40.1848 26.9453 40.1546 27.0029 40.1136 27.052C40.0725 27.1011 40.0215 27.1405 39.9642 27.1675C39.9068 27.1946 39.8443 27.2085 39.7812 27.2085C39.718 27.2085 39.6555 27.1946 39.5981 27.1675C39.5407 27.1405 39.4898 27.1011 39.4487 27.052C39.4076 27.0029 39.3775 26.9453 39.3603 26.8832C39.3431 26.8211 39.3393 26.7559 39.3492 26.6921C39.3519 26.6363 39.3654 26.5815 39.3888 26.531C39.4123 26.4805 39.4453 26.4352 39.4859 26.3977C39.5265 26.3603 39.574 26.3314 39.6256 26.3127C39.6772 26.294 39.7318 26.2859 39.7865 26.2888ZM45.2585 21.3624C45.2851 21.3651 45.311 21.3732 45.3346 21.3862C45.3582 21.3992 45.379 21.4169 45.3959 21.4382C45.4128 21.4595 45.4253 21.4839 45.4328 21.5102C45.4404 21.5365 45.4428 21.5641 45.4398 21.5913C45.4414 21.616 45.4378 21.6408 45.4292 21.664C45.4206 21.6872 45.4073 21.7083 45.3902 21.7259C45.373 21.7434 45.3524 21.757 45.3297 21.7657C45.307 21.7745 45.2827 21.7782 45.2585 21.7766C45.2318 21.7796 45.2049 21.7772 45.1791 21.7695C45.1534 21.7618 45.1295 21.7489 45.1086 21.7317C45.0878 21.7145 45.0705 21.6932 45.0578 21.6691C45.045 21.645 45.0371 21.6185 45.0345 21.5913C45.0371 21.5314 45.0615 21.4748 45.103 21.4324C45.1444 21.39 45.1999 21.3651 45.2585 21.3624ZM45.9838 19.2915C46.0169 19.2915 46.0497 19.2983 46.0802 19.3116C46.1107 19.3249 46.1382 19.3443 46.1612 19.3688C46.1841 19.3932 46.2019 19.4222 46.2136 19.4538C46.2253 19.4855 46.2306 19.5193 46.2291 19.5531C46.2369 19.5912 46.2362 19.6305 46.2272 19.6683C46.2182 19.706 46.201 19.7412 46.177 19.7714C46.153 19.8015 46.1228 19.8258 46.0884 19.8425C46.0541 19.8592 46.0165 19.8678 45.9785 19.8678C45.9405 19.8678 45.9029 19.8592 45.8686 19.8425C45.8342 19.8258 45.8039 19.8015 45.7799 19.7714C45.7559 19.7412 45.7388 19.706 45.7298 19.6683C45.7207 19.6305 45.7201 19.5912 45.7278 19.5531C45.7263 19.5184 45.7319 19.4837 45.7442 19.4512C45.7565 19.4188 45.7753 19.3893 45.7994 19.3647C45.8235 19.3401 45.8523 19.3209 45.8841 19.3083C45.9158 19.2957 45.9498 19.29 45.9838 19.2915ZM39.3492 25.2534C39.417 25.2534 39.4821 25.281 39.5301 25.33C39.5782 25.3791 39.6051 25.4456 39.6051 25.515C39.6056 25.5877 39.5797 25.658 39.5324 25.7123C39.4851 25.7667 39.4199 25.8012 39.3492 25.8093C39.2775 25.8037 39.2107 25.7699 39.163 25.715C39.1152 25.6601 39.0902 25.5884 39.0931 25.515C39.0916 25.4802 39.0972 25.4455 39.1095 25.4131C39.1219 25.3806 39.1407 25.3512 39.1647 25.3266C39.1888 25.302 39.2177 25.2828 39.2494 25.2702C39.2812 25.2576 39.3151 25.2519 39.3492 25.2534ZM38.1865 26.2561C38.2267 26.248 38.2682 26.249 38.308 26.2592C38.3478 26.2693 38.3848 26.2884 38.4165 26.315C38.4482 26.3416 38.4738 26.375 38.4913 26.4129C38.5088 26.4508 38.5179 26.4922 38.5179 26.5341C38.5179 26.576 38.5088 26.6173 38.4913 26.6552C38.4738 26.6931 38.4482 26.7265 38.4165 26.7531C38.3848 26.7797 38.3478 26.7988 38.308 26.809C38.2682 26.8191 38.2267 26.8202 38.1865 26.812C38.1153 26.8124 38.0465 26.786 37.9934 26.7377C37.9402 26.6894 37.9064 26.6227 37.8985 26.5504C37.8985 26.4724 37.9288 26.3975 37.9828 26.3423C38.0368 26.2871 38.1101 26.2561 38.1865 26.2561ZM46.1651 20.5123C46.2613 20.5123 46.3536 20.5513 46.4216 20.6208C46.4896 20.6903 46.5278 20.7846 46.5278 20.8828C46.5278 20.9811 46.4896 21.0754 46.4216 21.1449C46.3536 21.2144 46.2613 21.2534 46.1651 21.2534C46.0689 21.2534 45.9767 21.2144 45.9087 21.1449C45.8407 21.0754 45.8025 20.9811 45.8025 20.8828C45.8025 20.7846 45.8407 20.6903 45.9087 20.6208C45.9767 20.5513 46.0689 20.5123 46.1651 20.5123ZM46.4105 22.2561C46.536 22.2561 46.6564 22.3063 46.7462 22.3959C46.8359 22.4855 46.8877 22.6075 46.8905 22.7357C46.8877 22.7973 46.8731 22.8577 46.8475 22.9135C46.8219 22.9693 46.7858 23.0194 46.7412 23.0609C46.6966 23.1024 46.6444 23.1345 46.5877 23.1554C46.5309 23.1762 46.4707 23.1855 46.4105 23.1826C46.3531 23.1841 46.296 23.1736 46.2429 23.1515C46.1897 23.1295 46.1416 23.0965 46.1015 23.0545C46.0614 23.0125 46.0303 22.9625 46.01 22.9077C45.9898 22.8528 45.9808 22.7943 45.9838 22.7357C45.9809 22.6756 45.9897 22.6154 46.0096 22.5588C46.0295 22.5021 46.0601 22.45 46.0998 22.4055C46.1394 22.3609 46.1872 22.3248 46.2406 22.2992C46.2939 22.2736 46.3516 22.2589 46.4105 22.2561ZM45.0345 22.5504C45.0829 22.5472 45.1315 22.5546 45.1769 22.5721C45.2223 22.5896 45.2636 22.6168 45.2979 22.6518C45.3322 22.6869 45.3588 22.7291 45.3759 22.7755C45.393 22.8219 45.4003 22.8715 45.3971 22.921C45.4016 22.9723 45.3955 23.024 45.3793 23.0729C45.3631 23.1217 45.3371 23.1665 45.3029 23.2044C45.2688 23.2424 45.2273 23.2726 45.1811 23.2933C45.1348 23.3139 45.0849 23.3245 45.0345 23.3243C44.9306 23.3215 44.8318 23.2781 44.7584 23.2031C44.685 23.128 44.6425 23.0271 44.6398 22.921C44.6412 22.8699 44.6525 22.8197 44.6732 22.7732C44.694 22.7267 44.7236 22.6849 44.7604 22.6504C44.7972 22.6158 44.8404 22.5891 44.8875 22.572C44.9346 22.5548 44.9846 22.5475 45.0345 22.5504ZM45.1091 24.327C45.1852 24.3255 45.2607 24.3397 45.3312 24.3688C45.4018 24.3978 45.4659 24.4411 45.5197 24.4961C45.5734 24.551 45.6158 24.6165 45.6442 24.6886C45.6727 24.7606 45.6866 24.8378 45.6851 24.9155C45.6851 25.0716 45.6245 25.2213 45.5164 25.3317C45.4084 25.4421 45.2619 25.5041 45.1091 25.5041C44.9564 25.5041 44.8099 25.4421 44.7019 25.3317C44.5938 25.2213 44.5331 25.0716 44.5331 24.9155C44.5317 24.8378 44.5456 24.7606 44.574 24.6886C44.6025 24.6165 44.6449 24.551 44.6986 24.4961C44.7524 24.4411 44.8165 24.3978 44.887 24.3688C44.9575 24.3397 45.0331 24.3255 45.1091 24.327ZM43.0825 23.7711C43.2466 23.7711 43.4039 23.8377 43.5199 23.9563C43.6359 24.0748 43.7011 24.2356 43.7011 24.4033C43.6811 24.5608 43.6057 24.7055 43.4889 24.8103C43.3721 24.9152 43.2219 24.973 43.0665 24.973C42.911 24.973 42.7609 24.9152 42.6441 24.8103C42.5273 24.7055 42.4518 24.5608 42.4318 24.4033C42.4317 24.3174 42.4487 24.2325 42.4818 24.1536C42.5148 24.0746 42.5633 24.0034 42.6242 23.9443C42.6851 23.8852 42.7571 23.8393 42.8359 23.8095C42.9147 23.7797 42.9986 23.7667 43.0825 23.7711ZM42.7945 26.0708C42.8327 26.0693 42.8708 26.0759 42.9064 26.0901C42.9421 26.1044 42.9744 26.126 43.0015 26.1536C43.0285 26.1813 43.0497 26.2143 43.0636 26.2507C43.0775 26.2871 43.084 26.3261 43.0825 26.3651C43.0857 26.4046 43.0805 26.4443 43.0672 26.4815C43.0538 26.5187 43.0327 26.5525 43.0053 26.5805C42.9779 26.6086 42.9448 26.6301 42.9084 26.6437C42.872 26.6574 42.8331 26.6627 42.7945 26.6594C42.7558 26.6609 42.7172 26.6543 42.681 26.6402C42.6448 26.6261 42.6118 26.6046 42.5839 26.5772C42.556 26.5497 42.5339 26.5167 42.5187 26.4803C42.5036 26.4439 42.4958 26.4047 42.4958 26.3651C42.501 26.287 42.5345 26.2136 42.5897 26.1592C42.6449 26.1049 42.7178 26.0734 42.7945 26.0708ZM40.9812 24.8828C41.0887 24.8828 41.1939 24.9154 41.2834 24.9765C41.3728 25.0376 41.4425 25.1244 41.4837 25.226C41.5249 25.3275 41.5357 25.4393 41.5147 25.5471C41.4937 25.655 41.4419 25.754 41.3658 25.8317C41.2897 25.9095 41.1928 25.9624 41.0873 25.9839C40.9817 26.0053 40.8724 25.9943 40.7729 25.9522C40.6735 25.9102 40.5886 25.8389 40.5288 25.7475C40.469 25.6561 40.4371 25.5486 40.4371 25.4387C40.4424 25.293 40.5014 25.1547 40.6023 25.0516C40.7032 24.9485 40.8386 24.8882 40.9812 24.8828Z" fill="#141414"/>
<rect x="56" y="4" width="24" height="32" rx="2" fill="#E50A14"/>
<path d="M73.8022 17.6567L64.6289 24.7692L65.4289 27.9526L75.9996 19.7514L73.8022 17.6567Z" fill="#141414"/>
<path d="M60.832 23.562L60 25.7395L64.5547 27.9999L63.808 24.8756L60.832 23.562Z" fill="#141414"/>
<path d="M73.0445 17.1124L70.4418 16L61.3965 22.8757L64.0098 23.9763L73.0445 17.1124Z" fill="#141414"/>
<rect y="44" width="24" height="32" rx="2" fill="#E50A14"/>
<path d="M6.20971 53.3974C6.3127 53.2958 6.45217 53.2387 6.59757 53.2387C6.74298 53.2387 6.88247 53.2958 6.98547 53.3974L8.95717 55.36H6.43596C6.31015 55.3579 6.18661 55.3934 6.08151 55.4618C5.9764 55.5303 5.89464 55.6287 5.8469 55.7439C5.79917 55.8592 5.78767 55.986 5.81395 56.1078C5.84024 56.2297 5.90307 56.3408 5.99421 56.4267L12.2757 62.6774V66.7734H9.44203C9.27629 66.7734 9.11734 66.8385 9.00015 66.9546C8.88295 67.0706 8.8171 67.2279 8.8171 67.392C8.8171 67.5561 8.88295 67.7135 9.00015 67.8295C9.11734 67.9455 9.27629 68.0107 9.44203 68.0107H16.37C16.5357 68.0107 16.6947 67.9455 16.8119 67.8295C16.9291 67.7135 16.9949 67.5561 16.9949 67.392C16.9949 67.2279 16.9291 67.0706 16.8119 66.9546C16.6947 66.8385 16.5357 66.7734 16.37 66.7734H13.5255V62.6667L19.807 56.416C19.8982 56.3302 19.961 56.219 19.9873 56.0972C20.0136 55.9753 20.0021 55.8485 19.9544 55.7332C19.9066 55.618 19.8248 55.5197 19.7197 55.4512C19.6146 55.3827 19.4911 55.3472 19.3653 55.3494H10.7457L7.87973 52.512C7.54237 52.1785 7.08511 51.9912 6.60836 51.9912C6.1316 51.9912 5.67435 52.1785 5.33698 52.512L4.01172 53.824L4.89523 54.6987L6.20971 53.3974Z" fill="#141414"/>
<rect x="56" y="44" width="24" height="32" rx="2" fill="#E50A14"/>
<path d="M69.4452 57.1736H65.2931V58.7842C64.1493 59.2129 63.2069 59.9824 62.6258 60.9619C62.0448 61.9414 61.8609 63.0705 62.1054 64.1575C62.35 65.2444 63.008 66.2222 63.9675 66.9246C64.927 67.6271 66.129 68.0109 67.3692 68.0109C68.6093 68.0109 69.8113 67.6271 70.7708 66.9246C71.7303 66.2222 72.3883 65.2444 72.6328 64.1575C72.8774 63.0705 72.6936 61.9414 72.1125 60.9619C71.5314 59.9824 70.5889 59.2129 69.4452 58.7842V57.1736ZM66.868 56.0322V54.3362C66.8385 53.875 66.9772 53.4176 67.2634 53.0329C67.5496 52.6482 67.9677 52.3569 68.4549 52.2029C68.7831 52.0649 69.1422 51.9956 69.5049 52.0002C69.8596 51.9999 70.2115 52.0577 70.5429 52.1709C71.019 52.334 71.4241 52.6291 71.699 53.013C71.9738 53.3969 72.1039 53.8494 72.0701 54.3042V56.0856C72.0633 56.2689 72.116 56.45 72.2218 56.6072C72.3277 56.7643 72.4822 56.8906 72.6667 56.9709C72.8136 56.9827 72.9613 56.9827 73.1082 56.9709C73.2337 56.9972 73.3644 56.9972 73.49 56.9709C73.5982 56.9333 73.6959 56.875 73.7763 56.8002L74.1939 56.6829L74.5041 57.4509C74.3357 57.5873 74.147 57.7022 73.9433 57.7922C73.6725 57.8995 73.3805 57.9576 73.0843 57.9629C72.7996 57.9574 72.5193 57.8993 72.261 57.7922C71.8968 57.6438 71.5895 57.4028 71.3773 57.0993C71.1652 56.7959 71.0575 56.4433 71.0679 56.0856V54.3362C71.0873 54.0728 71.0168 53.8103 70.8655 53.5836C70.7141 53.3569 70.4893 53.1767 70.2207 53.0669C70.0042 53.008 69.7789 52.9792 69.5526 52.9816C69.324 52.9752 69.0965 53.0116 68.8844 53.0882C68.6044 53.1841 68.3651 53.356 68.2003 53.58C68.0355 53.8039 67.9534 54.0684 67.9657 54.3362V56.0322H66.868ZM74.3848 52.5762L74.2178 53.8882L72.5474 54.1336L73.8121 55.2002L73.3826 56.3096L74.5757 55.9896L75.2081 57.4616L76.0313 55.8189L77.9881 55.6482L76.6041 54.5389L77.141 52.7789L75.6138 53.5149L74.3848 52.5762Z" fill="#141414"/>
<rect x="28" y="84" width="24" height="32" rx="2" fill="#E50A14"/>
<path d="M35.5277 101.825C36.1786 99.09 35.8307 96.0034 34.2819 94.7155C34.136 94.5878 33.0587 94.3324 32.924 94.1408C32.6546 93.7257 33.4627 91.8312 34.2034 92.0121C34.2034 92.0121 43.3613 95.2052 44.4162 101.783L43.8326 101.687C42.9236 96.8655 37.0989 94.4814 35.1237 93.8428C35.871 95.0062 36.3565 96.3037 36.5497 97.6536C36.7428 99.0035 36.6394 100.377 36.2459 101.687C36.0029 101.685 35.7608 101.718 35.5277 101.783V101.825ZM44.506 107.999C43.6441 108.011 42.8084 107.718 42.1627 107.177C41.517 106.635 41.1079 105.884 41.0157 105.072C40.6004 102.049 43.5857 102.177 44.506 102.528C45.3814 102.177 48.3666 102.049 47.9626 105.072C47.8912 105.886 47.4928 106.644 46.8497 107.189C46.2066 107.733 45.3677 108.023 44.506 107.999ZM35.5277 107.999C34.6659 108.011 33.8301 107.718 33.1844 107.177C32.5387 106.635 32.1296 105.884 32.0374 105.072C31.6333 102.049 34.6186 102.177 35.5277 102.528C36.4143 102.177 39.3996 102.049 38.9843 105.072C38.9 105.882 38.4979 106.632 37.8577 107.174C37.2175 107.716 36.3859 108.01 35.5277 107.999Z" fill="#141414"/>
</svg>
