<svg width="80" height="120" viewBox="0 0 80 120" fill="none" xmlns="http://www.w3.org/2000/svg">
<g clip-path="url(#clip0_1801_1858)">
<path d="M29.8005 9.41248L5.2298 16.0487C2.34189 16.8287 0.629885 19.8307 1.40663 22.7527L8.01526 47.6131C8.792 50.5351 11.7638 52.2721 14.6517 51.4921L39.2223 44.8559C42.1103 44.0759 43.8223 41.0739 43.0455 38.1519L36.4369 13.2915C35.659 10.3652 32.6884 8.63249 29.8005 9.41248Z" fill="#141414"/>
<path d="M26.3679 15.8166C27.9079 15.4007 29.4939 16.3277 29.9081 17.8858C30.3223 19.4439 29.4086 21.0461 27.8686 21.462C26.3287 21.8779 24.7427 20.9509 24.3285 19.3928C23.9143 17.8347 24.828 16.2325 26.3679 15.8166Z" fill="#E50A14"/>
<path d="M18.0874 45.0826C19.6281 44.6664 20.5412 43.0653 20.1268 41.5064C19.7124 39.9475 18.1274 39.021 16.5867 39.4372C15.0459 39.8533 14.1328 41.4544 14.5472 43.0134C14.9616 44.5723 16.5466 45.4987 18.0874 45.0826Z" fill="#E50A14"/>
<path d="M22.9721 33.2711C24.5129 32.8549 25.426 31.2538 25.0116 29.6949C24.5972 28.1359 23.0122 27.2095 21.4714 27.6257C19.9307 28.0418 19.0176 29.6429 19.432 31.2018C19.8464 32.7608 21.4314 33.6872 22.9721 33.2711Z" fill="#E50A14"/>
<path d="M12.8843 25.5091C14.425 25.093 15.3381 23.4918 14.9237 21.9329C14.5093 20.374 12.9243 19.4476 11.3835 19.8637C9.84278 20.2798 8.92969 21.881 9.3441 23.4399C9.75851 24.9988 11.3435 25.9252 12.8843 25.5091Z" fill="#E50A14"/>
<path d="M33.0718 41.0308C31.5318 41.4467 29.9458 40.5197 29.5316 38.9616C29.1174 37.4035 30.0311 35.8013 31.571 35.3854C33.111 34.9695 34.697 35.8965 35.1112 37.4546C35.5254 39.0127 34.6117 40.6149 33.0718 41.0308Z" fill="#E50A14"/>
<path fill-rule="evenodd" clip-rule="evenodd" d="M54.9211 76.0246L33.2137 82.8384C32.1383 83.175 31.5341 84.3125 31.8681 85.3728L38.6299 106.776C38.9644 107.836 40.1213 108.425 41.1964 108.089L62.9038 101.275C63.9793 100.939 64.5834 99.8013 64.2495 98.741L57.4791 77.3388C57.1447 76.2785 55.9966 75.6884 54.9211 76.0246Z" fill="#141414"/>
<path fill-rule="evenodd" clip-rule="evenodd" d="M60.1319 97.9675C59.0328 100.057 56.4246 100.871 54.3238 99.7882C52.215 98.7149 51.4073 96.1522 52.5148 94.0618C53.6149 91.9814 56.2131 91.1594 58.3228 92.2411C60.4226 93.3155 61.2404 95.886 60.1319 97.9675ZM44.8447 104.066C42.576 104.779 40.1588 103.543 39.4505 101.307C38.7507 99.0689 40.0167 96.6824 42.2859 95.9695C44.5546 95.2566 46.9632 96.4931 47.6715 98.7298C48.3799 100.966 47.1142 103.362 44.8447 104.066ZM35.9793 86.1459C37.0868 84.0555 39.6866 83.2425 41.7959 84.3242C43.8957 85.3986 44.704 87.9613 43.605 90.0506C42.4964 92.132 39.8977 92.954 37.797 91.8713C35.6871 90.7896 34.8793 88.2264 35.9793 86.1459ZM51.275 80.0464C53.5437 79.3336 55.9523 80.57 56.6606 82.8067C57.3689 85.0435 56.103 87.43 53.8344 88.1429C51.5656 88.8557 49.1571 87.6193 48.4487 85.3826C47.7404 83.1458 49.0054 80.7508 51.275 80.0464Z" fill="#E50A14"/>
<path d="M60.8936 71.887L35.639 74.9062C32.6707 75.2611 30.5479 77.9857 30.8984 80.9908L33.8807 106.558C34.2312 109.563 36.9225 111.712 39.8908 111.357L65.1454 108.338C68.1136 107.983 70.2365 105.259 69.8859 102.254L66.9037 76.6863C66.5527 73.6768 63.8619 71.5322 60.8936 71.887Z" fill="#141414"/>
<path d="M56.5823 77.7312C58.1651 77.5419 59.6014 78.6889 59.7883 80.2913C59.9752 81.8937 58.8423 83.3479 57.2595 83.5371C55.6767 83.7263 54.2404 82.5793 54.0535 80.9769C53.8665 79.3745 54.9995 77.9204 56.5823 77.7312Z" fill="#E50A14"/>
<path d="M44.2068 105.508C45.7904 105.319 46.9226 103.866 46.7356 102.263C46.5486 100.659 45.1132 99.513 43.5296 99.7024C41.9459 99.8917 40.8137 101.345 41.0007 102.948C41.1877 104.551 42.6231 105.698 44.2068 105.508Z" fill="#E50A14"/>
<path d="M41.8572 85.3784C43.4408 85.1891 44.573 83.7359 44.386 82.1326C44.199 80.5294 42.7636 79.3832 41.1799 79.5725C39.5963 79.7618 38.4641 81.215 38.6511 82.8182C38.8381 84.4215 40.2735 85.5677 41.8572 85.3784Z" fill="#E50A14"/>
<path d="M59.6072 103.662C58.0244 103.852 56.588 102.705 56.4011 101.102C56.2142 99.4998 57.3471 98.0456 58.9299 97.8564C60.5127 97.6672 61.9491 98.8142 62.136 100.417C62.3229 102.019 61.19 103.473 59.6072 103.662Z" fill="#E50A14"/>
<path d="M74.0488 32.6498L46.0865 28.5392C42.7999 28.0561 39.7444 30.362 39.2631 33.6886L35.168 61.9922C34.6867 65.3188 36.9615 68.4083 40.2481 68.8914L68.2104 73.002C71.497 73.4851 74.5524 71.1792 75.0337 67.8526L79.1289 39.549C79.6109 36.2175 77.3353 33.1329 74.0488 32.6498Z" fill="#E50A14"/>
<path d="M67.755 37.6662C69.5075 37.9238 70.7215 39.5726 70.4649 41.3465C70.2082 43.1204 68.5775 44.3511 66.825 44.0934C65.0725 43.8358 63.8585 42.187 64.1151 40.4131C64.3718 38.6392 66.0025 37.4086 67.755 37.6662Z" fill="#141414"/>
<path d="M46.5477 63.8708C48.3011 64.1285 49.9308 62.8987 50.1875 61.1239C50.4443 59.349 49.2311 57.7013 47.4776 57.4435C45.7242 57.1858 44.0946 58.4156 43.8378 60.1904C43.581 61.9653 44.7942 63.613 46.5477 63.8708Z" fill="#141414"/>
<path d="M56.6825 53.9789C58.4359 54.2367 60.0655 53.0069 60.3223 51.232C60.5791 49.4572 59.3658 47.8094 57.6124 47.5517C55.8589 47.2939 54.2293 48.5238 53.9725 50.2986C53.7157 52.0734 54.929 53.7212 56.6825 53.9789Z" fill="#141414"/>
<path d="M36.5115 56.5223L13.0418 50.2599C10.2833 49.5238 7.43156 51.2117 6.67347 54.0291L0.223556 78.0001C-0.534533 80.8176 1.08767 83.6992 3.84617 84.4353L27.3159 90.6977C30.0744 91.4338 32.9261 89.7459 33.6842 86.9285L40.1341 62.9575C40.8933 60.1359 39.27 57.2584 36.5115 56.5223Z" fill="#E50A14"/>
<path d="M30.6101 60.2286C32.081 60.6211 32.9468 62.159 32.5426 63.6614C32.1383 65.1637 30.6164 66.0645 29.1454 65.6721C27.6745 65.2796 26.8087 63.7416 27.213 62.2393C27.6172 60.7369 29.1392 59.8361 30.6101 60.2286Z" fill="#141414"/>
<path d="M28.071 69.6674C29.542 70.0598 30.4077 71.5978 30.0035 73.1001C29.5993 74.6025 28.0773 75.5033 26.6064 75.1108C25.1354 74.7183 24.2697 73.1804 24.6739 71.678C25.0793 70.1715 26.6001 69.2749 28.071 69.6674Z" fill="#141414"/>
<path d="M9.75286 80.7258C11.2246 81.1185 12.7455 80.2183 13.15 78.7151C13.5544 77.2119 12.6892 75.675 11.2175 75.2823C9.7458 74.8896 8.22486 75.7898 7.8204 77.293C7.41594 78.7962 8.28113 80.3331 9.75286 80.7258Z" fill="#141414"/>
<path d="M12.2939 71.2873C13.7656 71.68 15.2865 70.7798 15.691 69.2766C16.0955 67.7735 15.2303 66.2366 13.7585 65.8439C12.2868 65.4512 10.7659 66.3514 10.3614 67.8545C9.95696 69.3577 10.8221 70.8946 12.2939 71.2873Z" fill="#141414"/>
<path d="M14.831 61.853C16.3027 62.2457 17.8236 61.3455 18.2281 59.8423C18.6326 58.3391 17.7674 56.8022 16.2956 56.4095C14.8239 56.0168 13.303 56.917 12.8985 58.4202C12.4941 59.9234 13.3593 61.4603 14.831 61.853Z" fill="#141414"/>
<path d="M24.0693 84.541C22.5983 84.1485 21.7326 82.6105 22.1368 81.1082C22.541 79.6058 24.063 78.705 25.5339 79.0975C27.0049 79.49 27.8706 81.0279 27.4664 82.5303C27.0621 84.0326 25.5402 84.9334 24.0693 84.541Z" fill="#141414"/>
</g>
<defs>
<clipPath id="clip0_1801_1858">
<rect width="80" height="120" fill="white"/>
</clipPath>
</defs>
</svg>
