<svg width="50" height="50" viewBox="0 0 50 50" fill="none" xmlns="http://www.w3.org/2000/svg">
<path d="M48.7768 17.2756C47.1323 12.2099 43.9155 7.85485 39.6988 4.78272C35.5764 1.77976 30.5012 0.00314446 25.011 0H24.9921C19.5019 0.00314446 14.4268 1.77976 10.3044 4.78272C6.08767 7.85171 2.87089 12.2068 1.22634 17.2756C0.433934 19.7095 0 22.3036 0 25.0016C0 27.6964 0.43079 30.2905 1.22005 32.7244C2.8646 37.7932 6.08138 42.1483 10.2981 45.2173C14.4236 48.2234 19.5019 50 24.9953 50H25.0047C30.4949 49.9969 35.5701 48.2202 39.6925 45.2173C43.9092 42.1451 47.126 37.7901 48.7705 32.7244C49.5598 30.2905 49.9906 27.6964 49.9906 25.0016C50 22.3036 49.5661 19.7095 48.7768 17.2756ZM24.9984 48.4152C19.8541 48.4152 15.0997 46.7518 11.2351 43.9375L13.5966 40.6893C16.7977 43.0193 20.7377 44.3997 25.0016 44.3997H25.0079V48.4152H24.9984ZM24.9984 9.84844C33.369 9.84844 40.1516 16.6342 40.1516 25.0016C40.1516 33.3721 33.3658 40.1547 24.9984 40.1547C16.6279 40.1547 9.84529 33.369 9.84529 25.0016C9.84529 16.631 16.631 9.84844 24.9984 9.84844ZM38.7649 43.9375L36.4034 40.6893C39.6736 38.3058 42.1703 34.9286 43.447 30.9949C45.0821 31.5263 46.4342 31.9665 47.2675 32.237C45.7267 36.982 42.7143 41.0603 38.7649 43.9375ZM47.2675 17.7662L43.447 19.0082C42.1703 15.0777 39.6736 11.6974 36.4034 9.31702C37.419 7.92089 38.2492 6.7763 38.7649 6.0688C42.7143 8.94283 45.7267 13.0212 47.2675 17.7662ZM24.9984 1.58795H25.0047V5.60342H24.989C20.7283 5.60342 16.7914 6.98384 13.5935 9.31388C12.5778 7.91774 11.7477 6.77316 11.232 6.06566C15.0997 3.25451 19.8541 1.58795 24.9984 1.58795ZM2.73253 17.7662L6.55305 19.0082C5.93988 20.8949 5.60342 22.9105 5.60342 25.0016C5.60342 27.0926 5.93988 29.1051 6.5499 30.9918C4.91479 31.5232 3.56267 31.9634 2.72939 32.2338C1.99044 29.9541 1.58481 27.5266 1.58481 25.0016C1.58795 22.4766 1.99359 20.0459 2.73253 17.7662Z" fill="#141414"/>
<path d="M24.9986 48.4151C19.8543 48.4151 15.0998 46.7517 11.2353 43.9374L13.5968 40.6892C16.7978 43.0192 20.7378 44.3997 25.0017 44.3997H25.008V48.4151H24.9986ZM38.765 43.9374L36.4035 40.6892C39.6738 38.3057 42.1705 34.9286 43.4471 30.9948C45.0822 31.5263 46.4343 31.9665 47.2676 32.2369C45.7268 36.9819 42.7145 41.0603 38.765 43.9374ZM47.2676 17.7661L43.4471 19.0082C42.1705 15.0776 39.6738 11.6973 36.4035 9.31696C37.4192 7.92083 38.2493 6.77624 38.765 6.06874C42.7145 8.94277 45.7268 13.0211 47.2676 17.7661ZM24.9986 1.58789H25.0049V5.60336H24.9892C20.7284 5.60336 16.7916 6.98378 13.5936 9.31382C12.578 7.91768 11.7478 6.7731 11.2322 6.0656C15.0998 3.25445 19.8543 1.58789 24.9986 1.58789ZM2.73269 17.7661L6.5532 19.0082C5.94003 20.8949 5.60358 22.9104 5.60358 25.0015C5.60358 27.0926 5.94003 29.105 6.55006 30.9917C4.91494 31.5231 3.56282 31.9633 2.72954 32.2338C1.9906 29.954 1.58496 27.5265 1.58496 25.0015C1.58811 22.4765 1.99374 20.0458 2.73269 17.7661Z" fill="#E50A14"/>
<path d="M24.0989 31.9477V33.696C24.0989 34.2306 24.5329 34.6645 25.0674 34.6645C25.602 34.6645 26.0359 34.2306 26.0359 33.696V31.9948C28.3974 31.6207 29.913 29.7183 30.0545 27.8693C30.1866 26.1556 29.1772 24.1557 26.0359 23.4325V19.2378C27.1585 19.6811 27.7497 20.8446 28.0264 21.6024C28.2087 22.1055 28.7653 22.3634 29.2684 22.181C29.7715 21.9986 30.0294 21.442 29.847 20.9389C29.476 19.9201 28.4037 17.7064 26.0328 17.219V16.3103C26.0328 15.7757 25.5988 15.3418 25.0643 15.3418C24.5297 15.3418 24.0958 15.7757 24.0958 16.3103V17.2128C22.0267 17.6278 20.7061 19.3321 20.5803 20.9892C20.4608 22.5426 21.3507 24.3444 24.0958 25.0424V29.9226C22.8003 29.4227 22.1211 28.0926 21.8035 27.231C21.6211 26.7279 21.0645 26.47 20.5614 26.6524C20.0583 26.8348 19.8005 27.3914 19.9828 27.8976C20.3916 29.0013 21.5488 31.3974 24.0989 31.9477ZM28.127 27.7184C28.0547 28.6712 27.2654 29.6805 26.0422 30.0107V25.4386C27.4384 25.8694 28.2056 26.6839 28.127 27.7184ZM22.5173 21.137C22.5739 20.3761 23.1682 19.5711 24.0989 19.2283V23.0143C23.033 22.6244 22.4544 21.9609 22.5173 21.137Z" fill="#E50A14"/>
</svg>
