<svg width="26" height="26" viewBox="0 0 26 26" fill="none" xmlns="http://www.w3.org/2000/svg">
<path fill-rule="evenodd" clip-rule="evenodd" d="M25.9891 11.5322C26.1672 9.49014 24.2733 8.89431 23.5179 8.89431C20.5989 8.89431 20.5688 8.89431 17.6552 8.89431C18.076 7.9789 18.5886 5.54142 17.9412 2.19395C17.6876 0.86688 16.9106 -0.0160293 15.9178 0.000220591C15.1193 0.0164705 14.3531 0.633965 14.2722 1.40313C14.1858 2.25353 13.9754 3.46144 13.7812 4.28477C13.1553 6.92808 9.79383 10.4164 7.66797 11.6297V24.5375C9.10859 25.3554 10.6733 25.6425 12.3459 25.61C14.9844 25.5613 19.6331 25.6046 20.9982 25.5938C21.964 25.5883 22.9298 25.1225 23.3938 23.9525C24.0251 22.3546 22.3957 21.553 22.3957 21.553C22.3957 21.553 24.1816 21.6396 24.5917 20.0309C25.0125 18.3788 23.3669 17.7234 23.3669 17.7234C24.4783 17.6042 25.1906 17.3117 25.4603 16.3042C25.7787 15.118 25.0179 14.2297 23.8147 13.7151C23.9873 13.6989 25.8272 13.4009 25.9891 11.5322Z" fill="#E50A14"/>
<path fill-rule="evenodd" clip-rule="evenodd" d="M5.81644 9.58228H0.906457C0.404668 9.58228 0 9.98852 0 10.4923V25.0901C0 25.5938 0.404668 26 0.906457 26H5.81644C6.31822 26 6.72289 25.5938 6.72289 25.0901V10.4923C6.72289 9.98852 6.31283 9.58228 5.81644 9.58228Z" fill="#141414"/>
</svg>
