<svg width="85" height="84" viewBox="0 0 85 84" fill="none" xmlns="http://www.w3.org/2000/svg">
<g clip-path="url(#clip0_47_5260)">
<path d="M71.2264 21.3024C73.5929 20.2399 74.65 17.4601 73.5874 15.0936C72.5249 12.7272 69.7451 11.6701 67.3786 12.7326C65.0122 13.7952 63.9551 16.575 65.0177 18.9414C66.0802 21.3079 68.86 22.365 71.2264 21.3024Z" fill="#F30269"/>
<path d="M70.248 71.9567C72.0823 70.1224 72.0823 67.1485 70.248 65.3142C68.4137 63.4799 65.4397 63.4799 63.6054 65.3142C61.7712 67.1485 61.7712 70.1224 63.6055 71.9567C65.4397 73.791 68.4137 73.791 70.248 71.9567Z" fill="#F30269"/>
<path d="M15.7487 71.2822C18.3428 71.2822 20.4457 69.1793 20.4457 66.5852C20.4457 63.9912 18.3428 61.8882 15.7487 61.8882C13.1547 61.8882 11.0518 63.9912 11.0518 66.5852C11.0518 69.1793 13.1547 71.2822 15.7487 71.2822Z" fill="#F30269"/>
<path d="M20.3251 18.4481C20.9078 15.9203 19.331 13.3988 16.8032 12.8161C14.2754 12.2334 11.7539 13.8103 11.1712 16.3381C10.5885 18.8659 12.1654 21.3874 14.6932 21.97C17.221 22.5527 19.7425 20.9758 20.3251 18.4481Z" fill="#F30269"/>
<path d="M57.2963 33.3142L57.2798 38.9478L57.276 40.2435L57.2709 42.0368L57.2456 50.7683C57.2456 50.7911 57.2329 50.8114 57.2138 50.8228L42.1228 59.5924C42.0797 59.6178 42.0264 59.5861 42.0264 59.5366L42.0759 42.0825C42.0759 42.0596 42.0886 42.038 42.1076 42.0266L57.1986 33.2571C57.2418 33.2317 57.2951 33.2634 57.2951 33.3129L57.2963 33.3142Z" fill="#F30269"/>
<path d="M58.552 47.4762C58.5583 45.1855 58.5647 42.8947 58.571 40.604C58.5761 38.9364 55.9846 38.9338 55.9795 40.604C55.9744 42.4416 55.9693 44.278 55.9643 46.1157C55.9605 47.277 55.9579 48.4382 55.9541 49.5994C55.9541 49.7149 55.944 49.8444 55.9351 49.9764C55.5988 50.1832 55.2396 50.4739 55.0391 50.5906C54.1685 51.097 53.2979 51.6021 52.4273 52.1085C50.153 53.4296 47.8788 54.752 45.6045 56.0732C44.8608 56.5047 44.1171 56.9374 43.3734 57.3689C43.4699 52.5476 43.3633 47.7085 43.3721 42.8884C43.3721 42.8693 43.3747 42.8452 43.3772 42.816C43.4648 42.7627 43.5524 42.7094 43.6387 42.6536C47.8013 40.3438 51.8879 37.8779 55.996 35.4653C55.9947 35.9793 55.9935 36.492 55.9922 37.006C55.9871 38.6736 58.5786 38.6762 58.5837 37.006L58.5901 34.8435C58.5926 34.1619 58.7411 33.2253 58.3857 32.606C58.3197 32.4905 58.2334 32.3903 58.137 32.3027C57.788 31.9144 57.2448 31.6758 56.7676 31.4004C55.5721 30.71 54.3779 30.0208 53.1824 29.3304C50.3116 27.673 47.4409 26.0155 44.5702 24.3581C43.9521 24.0014 43.3328 23.5585 42.6792 23.2666C41.7731 22.8605 41.1525 23.3428 40.4062 23.7755C37.7563 25.315 35.1064 26.8557 32.4565 28.3951C30.4221 29.5766 28.1618 30.6249 26.2518 32.0007C25.8292 32.3052 25.6287 32.6542 25.5893 33.0032C25.4942 33.3688 25.465 33.7761 25.4637 34.1353C25.4548 37.1634 25.4459 40.1902 25.4383 43.2183C25.4307 45.688 25.2949 48.1971 25.4167 50.6642C25.4624 51.5843 26.0335 51.9105 26.7227 52.3077C27.7874 52.9232 28.8535 53.5375 29.9183 54.153C32.8677 55.8562 35.8158 57.558 38.7653 59.2612C39.5597 59.7193 40.3428 60.2156 41.155 60.6407C41.3276 60.7308 41.4951 60.7879 41.6576 60.8209C41.787 60.8641 41.9241 60.8895 42.0624 60.8895C42.6272 60.8895 43.1082 60.5214 43.5777 60.2486C44.3671 59.7891 45.1578 59.331 45.9472 58.8716C48.2861 57.5123 50.6264 56.1519 52.9654 54.7926C54.5416 53.8763 56.1648 53.0121 57.7068 52.0374C59.0381 51.196 58.5507 48.8316 58.5545 47.4762H58.552ZM40.7565 51.2785C40.7514 53.0958 40.7463 54.9132 40.7413 56.7306C40.7413 56.9565 40.74 57.1824 40.7387 57.4083C39.6194 56.7623 38.5013 56.1163 37.3819 55.4703C34.6876 53.9144 31.9933 52.3585 29.2977 50.8025C28.9017 50.5741 28.5058 50.3457 28.1098 50.1172C28.0908 50.1071 28.0616 50.0855 28.0273 50.0627C28.0248 49.8368 28.007 49.607 28.0083 49.3938C28.0172 46.3734 28.026 43.3529 28.0336 40.3324C28.0387 38.7206 28.0425 37.1101 28.0476 35.4983V35.4425C28.0971 35.4704 28.1466 35.4996 28.1961 35.5275C28.6454 35.7877 29.0959 36.0466 29.5452 36.3067C31.4209 37.3906 33.2979 38.4731 35.1737 39.5569C36.2347 40.1699 37.2969 40.7829 38.3579 41.3959C39.1625 41.8604 39.962 42.3414 40.773 42.7957C40.7743 42.9366 40.7781 43.0787 40.7768 43.2209C40.7692 45.9063 40.7616 48.5918 40.754 51.2772L40.7565 51.2785ZM43.0967 39.9554C42.768 40.1458 42.4152 40.3248 42.0751 40.5177C41.8352 40.3895 41.5979 40.2715 41.3961 40.156C38.8033 38.6597 36.2105 37.1621 33.619 35.6658C32.506 35.0237 31.3917 34.3802 30.2787 33.7381C29.9678 33.5579 29.6556 33.3789 29.3446 33.1987C33.1329 30.9968 36.9212 28.7949 40.7095 26.5942C41.103 26.3658 41.4964 26.1374 41.8898 25.9089C41.9063 25.8988 41.933 25.8861 41.9647 25.8708C42.1614 25.98 42.3683 26.079 42.5523 26.1856C45.1806 27.7034 47.809 29.2213 50.4373 30.7379C51.8625 31.5603 53.2864 32.3827 54.7117 33.205C53.6583 33.8168 52.6062 34.4285 51.5528 35.0402C49.7812 36.0694 48.0107 37.0987 46.2391 38.1279C45.2745 38.6889 44.31 39.2486 43.3468 39.8095C43.263 39.8577 43.1805 39.906 43.0967 39.9542V39.9554Z" fill="#182633"/>
<path d="M40.7042 10.4169V14.6836C40.7042 16.3512 43.2957 16.3538 43.2957 14.6836V10.4156C45.4925 9.85085 47.0675 7.90149 47.2718 5.5879C47.2883 5.49526 47.2946 5.39627 47.2908 5.29093C47.2946 5.18559 47.2883 5.0866 47.2718 4.99396C47.0294 2.25394 44.8529 0 41.9999 0C39.1469 0 36.709 2.41512 36.709 5.29093C36.709 7.71493 38.4337 9.828 40.7042 10.4181V10.4169ZM44.6993 5.28966C44.5711 8.76068 39.3005 8.78606 39.3005 5.28966C39.3005 1.79326 44.5711 1.81864 44.6993 5.28966Z" fill="#182633"/>
<path d="M41.9999 17.0137C41.298 17.0454 40.7041 17.5835 40.7041 18.3095V20.0824C40.7041 20.7601 41.3006 21.4099 41.9999 21.3782C42.7017 21.3464 43.2956 20.8083 43.2956 20.0824V18.3095C43.2956 17.6317 42.6991 16.982 41.9999 17.0137Z" fill="#182633"/>
<path d="M47.2708 78.4121C47.0665 76.1048 45.4915 74.1428 43.2947 73.5806V63.9176C43.2947 62.2499 40.7032 62.2474 40.7032 63.9176V73.5857C38.4327 74.1783 36.708 76.2787 36.708 78.7091C36.708 81.5773 39.1219 84.0101 41.9989 84C44.8519 83.9898 47.0272 81.7537 47.2708 79.0073C47.2873 78.9146 47.2937 78.8157 47.2899 78.7103C47.2937 78.605 47.2873 78.506 47.2708 78.4134V78.4121ZM39.3008 78.7091C39.3008 75.2127 44.5714 75.238 44.6996 78.7091C44.5714 82.1801 39.3008 82.2055 39.3008 78.7091Z" fill="#182633"/>
<path d="M10.5806 42C10.5704 39.147 8.33426 36.9718 5.5879 36.7281C5.49526 36.7116 5.39627 36.7053 5.29093 36.7091C5.18559 36.7053 5.0866 36.7116 4.99396 36.7281C2.25394 36.9705 0 39.147 0 42C0 44.853 2.41512 47.2909 5.29093 47.2909C8.16674 47.2909 10.592 44.8771 10.5819 42H10.5806ZM5.28966 44.6994C1.79326 44.6994 1.81864 39.4288 5.28966 39.3006C8.76068 39.4288 8.78606 44.6994 5.28966 44.6994Z" fill="#182633"/>
<path d="M12.9411 40.7042C11.2735 40.7042 11.271 43.2957 12.9411 43.2957H20.0811C21.7488 43.2957 21.7513 40.7042 20.0811 40.7042H12.9411Z" fill="#182633"/>
<path d="M79.0062 36.7281C78.9135 36.7116 78.8145 36.7053 78.7092 36.7091C78.6038 36.7053 78.5048 36.7116 78.4122 36.7281C76.105 36.9324 74.1429 38.5074 73.5807 40.7042H63.9177C62.2501 40.7042 62.2475 43.2958 63.9177 43.2958H73.5858C74.1784 45.5662 76.2788 47.2909 78.7092 47.2909C81.5774 47.2909 84.0103 44.8771 84.0001 42C83.99 39.147 81.7538 36.9718 79.0074 36.7281H79.0062ZM78.7092 44.6981C75.2128 44.6981 75.2382 39.4275 78.7092 39.2993C82.1802 39.4275 82.2056 44.6981 78.7092 44.6981Z" fill="#182633"/>
<path d="M22.1959 59.9719C21.5156 60.6521 20.8354 61.3324 20.1564 62.0113C17.3491 60.0264 13.5684 60.4618 11.0746 62.7081C11.0251 62.7487 10.9756 62.7918 10.9274 62.8413C10.8652 62.901 10.8119 62.9619 10.765 63.0241C8.80038 65.2273 8.2407 68.3341 9.50855 71.0512C10.7548 73.7252 13.6865 75.4335 16.6295 75.1593C19.6564 74.8789 22.2949 72.7379 23.0474 69.7593C23.569 67.6932 23.135 65.5522 21.9725 63.8592C22.6578 63.1738 23.3431 62.4885 24.0285 61.8032C25.2087 60.6229 23.3774 58.7903 22.1959 59.9706V59.9719ZM19.3251 71.2403C17.5293 73.0285 14.5545 73.0349 12.76 71.2403C10.9325 69.4128 11.015 66.5129 12.76 64.6752C14.6015 62.9276 17.4938 62.8515 19.3251 64.6752C21.1184 66.4596 21.1184 69.456 19.3251 71.2403Z" fill="#182633"/>
<path d="M25.5853 56.5821C25.178 56.9895 24.7706 57.3968 24.3644 57.803C23.8847 58.2827 23.8492 59.1622 24.3644 59.6356C24.8822 60.1102 25.6843 60.1483 26.197 59.6356C26.6044 59.2282 27.0118 58.8208 27.4179 58.4147C27.8977 57.9349 27.9332 57.0554 27.4179 56.5821C26.9001 56.1074 26.0981 56.0693 25.5853 56.5821Z" fill="#182633"/>
<path d="M58.4148 27.4179C60.2271 25.6056 62.0394 23.7933 63.8517 21.9811C65.2084 22.9164 66.8747 23.4012 68.5449 23.2464C71.5717 22.9659 74.2102 20.8249 74.9628 17.8463C75.6988 14.9299 74.5376 11.8599 72.0996 10.1174C69.2886 8.10839 65.4914 8.54115 62.99 10.7951C62.9405 10.8357 62.891 10.8789 62.8427 10.9284C62.7806 10.988 62.7273 11.0489 62.6803 11.1111C60.7157 13.3143 60.156 16.4211 61.4239 19.1382C61.5914 19.4961 61.7894 19.835 62.0127 20.1561C60.203 21.9658 58.392 23.7768 56.5822 25.5866C55.4019 26.7669 57.2333 28.5995 58.4148 27.4192V27.4179ZM71.2405 12.7597C73.0337 14.5441 73.0337 17.5404 71.2405 19.3248C69.4447 21.113 66.4699 21.1193 64.6753 19.3248C62.8478 17.4973 62.9303 14.5974 64.6753 12.7597C66.5168 11.0121 69.4091 10.936 71.2405 12.7597Z" fill="#182633"/>
<path d="M73.0729 62.8426C73.0133 62.7804 72.9523 62.7271 72.8902 62.6802C70.687 60.7156 67.5802 60.1559 64.863 61.4238C64.5051 61.59 64.1663 61.7893 63.8452 62.0126C62.0354 60.2029 60.2244 58.3918 58.4147 56.5821C57.2344 55.4018 55.4018 57.2331 56.5821 58.4147C58.3944 60.227 60.2066 62.0393 62.0189 63.8516C61.0836 65.2082 60.5988 66.8746 60.7536 68.5447C61.0341 71.5716 63.1751 74.2101 66.1537 74.9626C69.0701 75.6987 72.1401 74.5375 73.8826 72.0995C75.8916 69.2884 75.4588 65.4913 73.2049 62.9898C73.1643 62.9403 73.1211 62.8908 73.0716 62.8426H73.0729ZM71.2403 71.2403C69.4559 73.0336 66.4596 73.0336 64.6752 71.2403C62.887 69.4445 62.8807 66.4697 64.6752 64.6752C66.4697 62.8807 69.4026 62.9302 71.2403 64.6752C72.9879 66.5167 73.064 69.409 71.2403 71.2403Z" fill="#182633"/>
<path d="M14.2394 23.0471C16.3055 23.5687 18.4465 23.1346 20.1395 21.9721C21.9543 23.7869 23.7704 25.603 25.5853 27.4179C26.7655 28.5982 28.5981 26.7668 27.4179 25.5853C25.6081 23.7755 23.7983 21.9658 21.9873 20.1547C23.9722 17.3475 23.5369 13.5668 21.2906 11.073C21.25 11.0235 21.2068 10.974 21.1573 10.9258C21.0977 10.8636 21.0368 10.8103 20.9746 10.7633C18.7714 8.79873 15.6646 8.23906 12.9474 9.5069C10.2734 10.7532 8.56519 13.6848 8.83932 16.6279C9.1198 19.6547 11.2608 22.2932 14.2394 23.0458V23.0471ZM12.7596 12.7596C14.5871 10.9321 17.4871 11.0146 19.3247 12.7596C21.0723 14.6011 21.1484 17.4934 19.3247 19.3248C17.5404 21.118 14.544 21.118 12.7596 19.3248C10.9714 17.529 10.9651 14.5542 12.7596 12.7596Z" fill="#182633"/>
</g>
<defs>
<clipPath id="clip0_47_5260">
<rect width="84" height="84" fill="white" transform="translate(0.333008)"/>
</clipPath>
</defs>
</svg>
