<svg width="50" height="50" viewBox="0 0 50 50" fill="none" xmlns="http://www.w3.org/2000/svg">
<path d="M42.7829 32.2669V6.88554C42.7829 5.72029 41.8469 4.78809 40.7238 4.78809H31.7804C31.4268 4.78809 31.1356 5.0847 31.1356 5.44487L31.0316 9.17368L28.8062 9.06775V5.44487C28.8062 5.0847 28.515 4.78809 28.1614 4.78809H13.5607C13.2072 4.78809 12.916 5.0847 12.916 5.44487L12.812 9.17368L10.5865 9.06775V5.44487C10.5865 5.0847 10.2953 4.78809 9.94176 4.78809H2.05907C0.91514 4.78809 0 5.74147 0 6.88554V43.2838C0 44.4491 0.935939 45.3813 2.05907 45.3813H33.0699C33.2571 45.8262 33.4859 46.2923 33.7978 46.716C35.2953 48.8983 37.7912 49.9999 41.223 49.9999C46.069 49.9999 50 45.9745 50 41.0381C50 36.6737 46.8802 33.0084 42.7829 32.2669Z" fill="#141414"/>
<path d="M40.7038 13.1357H2.05988C1.62311 13.1357 1.26953 13.4959 1.26953 13.9408V43.2841C1.26953 43.729 1.62311 44.0891 2.05988 44.0891H32.6755C32.4259 43.0086 32.3219 41.8222 32.4467 41.123C32.4467 41.1018 32.4467 41.1019 32.4467 41.0807C32.4467 36.1442 36.3985 32.1188 41.2446 32.1188C41.3278 32.1188 41.411 32.1188 41.4942 32.14V13.9408C41.4942 13.4959 41.1406 13.1357 40.7038 13.1357Z" fill="#E50A14"/>
<path d="M23.9591 25.9536H18.801C18.4474 25.9536 18.1562 26.2502 18.1562 26.6104V31.8646C18.1562 32.2248 18.4474 32.5214 18.801 32.5214H23.9591C24.3127 32.5214 24.6038 32.2248 24.6038 31.8646V26.6104C24.6038 26.2502 24.3127 25.9536 23.9591 25.9536Z" fill="#141414"/>
<path d="M23.9591 17.9023H18.801C18.4474 17.9023 18.1562 18.199 18.1562 18.5591V23.8134C18.1562 24.1735 18.4474 24.4701 18.801 24.4701H23.9591C24.3127 24.4701 24.6038 24.1735 24.6038 23.8134V18.5591C24.6038 18.199 24.3127 17.9023 23.9591 17.9023Z" fill="#141414"/>
<path d="M23.9591 34.0254H18.801C18.4474 34.0254 18.1562 34.322 18.1562 34.6822V39.9364C18.1562 40.2966 18.4474 40.5932 18.801 40.5932H23.9591C24.3127 40.5932 24.6038 40.2966 24.6038 39.9364V34.6822C24.6038 34.322 24.3127 34.0254 23.9591 34.0254Z" fill="#141414"/>
<path d="M14.0606 25.9536H8.90257C8.549 25.9536 8.25781 26.2502 8.25781 26.6104V31.8646C8.25781 32.2248 8.549 32.5214 8.90257 32.5214H14.0606C14.4142 32.5214 14.7054 32.2248 14.7054 31.8646V26.6104C14.7054 26.2502 14.435 25.9536 14.0606 25.9536Z" fill="#141414"/>
<path d="M14.0606 17.9023H8.90257C8.549 17.9023 8.25781 18.199 8.25781 18.5591V23.8134C8.25781 24.1735 8.549 24.4701 8.90257 24.4701H14.0606C14.4142 24.4701 14.7054 24.1735 14.7054 23.8134V18.5591C14.7054 18.199 14.435 17.9023 14.0606 17.9023Z" fill="#141414"/>
<path d="M14.0606 34.0254H8.90257C8.549 34.0254 8.25781 34.322 8.25781 34.6822V39.9364C8.25781 40.2966 8.549 40.5932 8.90257 40.5932H14.0606C14.4142 40.5932 14.7054 40.2966 14.7054 39.9364V34.6822C14.7054 34.322 14.435 34.0254 14.0606 34.0254Z" fill="#141414"/>
<path d="M33.838 25.9536H28.6799C28.3263 25.9536 28.0352 26.2502 28.0352 26.6104V31.8646C28.0352 32.2248 28.3263 32.5214 28.6799 32.5214H33.838C34.1916 32.5214 34.4827 32.2248 34.4827 31.8646V26.6104C34.4827 26.2502 34.1916 25.9536 33.838 25.9536Z" fill="#141414"/>
<path d="M33.838 17.9023H28.6799C28.3263 17.9023 28.0352 18.199 28.0352 18.5591V23.8134C28.0352 24.1735 28.3263 24.4701 28.6799 24.4701H33.838C34.1916 24.4701 34.4827 24.1735 34.4827 23.8134V18.5591C34.4827 18.199 34.1916 17.9023 33.838 17.9023Z" fill="#141414"/>
<path d="M31.0111 10.4873H28.8896C28.1201 10.4873 27.4961 9.8517 27.4961 9.0678V1.41949C27.4961 0.635593 28.1201 0 28.8896 0H31.0111C31.7806 0 32.4046 0.635593 32.4046 1.41949V9.0678C32.3838 9.8517 31.7598 10.4873 31.0111 10.4873Z" fill="#E50A14"/>
<path d="M28.8891 1.31348L28.7852 9.06771L31.0106 9.17365C31.073 9.17365 31.1146 9.13127 31.1146 9.06771V1.41941L28.8891 1.31348Z" fill="#141414"/>
<path d="M12.8118 10.4873H10.6904C9.92084 10.4873 9.29688 9.8517 9.29688 9.0678V1.41949C9.29688 0.635593 9.92084 0 10.6904 0H12.8118C13.5814 0 14.2054 0.635593 14.2054 1.41949V9.0678C14.1846 9.8517 13.5814 10.4873 12.8118 10.4873Z" fill="#E50A14"/>
<path d="M10.6899 1.31348L10.5859 9.06771L12.8114 9.17365C12.8738 9.17365 12.9154 9.13127 12.9154 9.06771V1.41941L10.6899 1.31348Z" fill="#141414"/>
<path d="M33.6947 41.2502C33.6531 41.6104 33.4659 44.3646 35.1922 46.4409C36.4609 47.9663 38.4992 48.7502 41.2238 48.7502C45.3628 48.7502 48.7322 45.318 48.7322 41.1019C48.7322 36.8858 45.3628 33.4536 41.2238 33.4536C37.0849 33.4536 33.7155 36.8858 33.7155 41.1019C33.7155 41.1231 33.7155 41.1867 33.6947 41.2502Z" fill="#E50A14"/>
<path d="M41.7021 35.4238C41.3485 35.4238 41.0573 35.7204 41.0573 36.0806V41.5255H37.0432C36.6896 41.5255 36.3984 41.8221 36.3984 42.1823C36.3984 42.5425 36.6896 42.8391 37.0432 42.8391H41.7021C41.8269 42.8391 41.9517 42.7967 42.0557 42.7331C42.2221 42.606 42.3469 42.4154 42.3469 42.1823V36.1018C42.3469 35.7204 42.0557 35.4238 41.7021 35.4238Z" fill="#141414"/>
</svg>
