<svg width="80" height="120" viewBox="0 0 80 120" fill="none" xmlns="http://www.w3.org/2000/svg">
<path d="M4 15C4 11.134 7.22355 8 11.2 8H18.4C22.3764 8 25.6 11.134 25.6 15V29C25.6 32.866 22.3764 36 18.4 36H11.2C7.22355 36 4 32.866 4 29V15Z" fill="#141414"/>
<path d="M10.7745 23.5972C11.3604 21.2038 11.0472 18.503 9.65336 17.3761C9.52205 17.2643 8.5524 17.0409 8.43119 16.8732C8.18878 16.51 8.91602 14.8523 9.58266 15.0106C9.58266 15.0106 17.8247 17.8045 18.7742 23.5599L18.249 23.4761C17.4308 19.2573 12.1886 17.1712 10.4109 16.6125C11.0835 17.6304 11.5205 18.7657 11.6943 19.9469C11.8681 21.1281 11.7751 22.3297 11.421 23.4761C11.2022 23.4746 10.9844 23.5028 10.7745 23.5599V23.5972ZM18.855 28.9987C18.0793 29.0098 17.3272 28.7533 16.746 28.2795C16.1649 27.8057 15.7967 27.1488 15.7137 26.4377C15.34 23.7928 18.0267 23.9045 18.855 24.2118C19.6428 23.9045 22.3296 23.7928 21.966 26.4377C21.9017 27.1506 21.5432 27.8137 20.9644 28.2902C20.3856 28.7667 19.6306 29.0203 18.855 28.9987V28.9987ZM10.7745 28.9987C9.99888 29.0098 9.24672 28.7533 8.66559 28.2795C8.08445 27.8057 7.71627 27.1488 7.63324 26.4377C7.26962 23.7928 9.95638 23.9045 10.7745 24.2118C11.5725 23.9045 14.2592 23.7928 13.8855 26.4377C13.8096 27.1464 13.4477 27.803 12.8715 28.2774C12.2953 28.7517 11.5469 29.0092 10.7745 28.9987V28.9987Z" fill="#E50A14"/>
<path d="M29.1992 15C29.1992 11.134 32.4228 8 36.3992 8H43.5992C47.5757 8 50.7992 11.134 50.7992 15V29C50.7992 32.866 47.5757 36 43.5992 36H36.3992C32.4228 36 29.1992 32.866 29.1992 29V15Z" fill="#E50A14"/>
<path d="M45.3996 22.3032C45.3996 22.5359 45.2947 22.7602 45.1101 22.9056C43.3353 24.3347 42.0891 26.3038 41.5605 28.5097C41.4933 28.8005 41.2332 29.0041 40.9311 28.9999H35.1325C34.8388 28.9999 34.5996 28.7631 34.5996 28.4765C34.5996 28.4266 34.608 28.3768 34.6206 28.3311C35.036 26.8813 36.257 23.3626 38.8793 20.6706H35.6528C35.25 20.6706 34.9227 20.3466 34.9227 19.9478L34.9017 15.727C34.9017 15.3282 35.2248 15 35.6276 15H44.6695C45.0723 15 45.3996 15.324 45.3996 15.7228V22.3032Z" fill="#141414"/>
<path d="M54.4004 15C54.4004 11.134 57.6239 8 61.6004 8H68.8004C72.7768 8 76.0004 11.134 76.0004 15V29C76.0004 32.866 72.7768 36 68.8004 36H61.6004C57.6239 36 54.4004 32.866 54.4004 29V15Z" fill="#E50A14"/>
<path d="M71.6911 21.6222C69.9729 25.1917 65.1999 29 65.1999 29C65.1418 28.9663 60.4294 25.1917 58.7087 21.6222C58.1958 20.555 57.8824 19.2715 58.0416 18.0583C58.4131 15.2442 61.6195 14.1742 63.6257 15.6879C64.1159 16.0586 64.5379 16.5417 64.8184 17.1231C64.9674 17.432 65.0938 17.7718 65.1999 18.1285C65.306 17.7718 65.4324 17.432 65.5814 17.1231C65.8619 16.5417 66.2839 16.0558 66.7741 15.6879C68.7803 14.1742 71.9867 15.2442 72.3582 18.0583C72.5174 19.2715 72.2066 20.555 71.6911 21.6222Z" fill="#141414"/>
<path d="M0 52C0 47.5817 3.58172 44 8 44H16C20.4183 44 24 47.5817 24 52V68C24 72.4183 20.4183 76 16 76H8C3.58172 76 0 72.4183 0 68V52Z" fill="#E50A14"/>
<path d="M18 60.3466C18 60.6124 17.8835 60.8688 17.6783 61.035C15.7063 62.6682 14.3217 64.9186 13.7343 67.4397C13.6597 67.772 13.3706 68.0047 13.035 67.9999H6.59208C6.26573 67.9999 6 67.7293 6 67.4017C6 67.3447 6.00932 67.2878 6.02331 67.2355C6.48485 65.5786 7.84149 61.5572 10.7552 58.4807H7.17016C6.72261 58.4807 6.35897 58.1104 6.35897 57.6546L6.33566 52.8309C6.33566 52.3751 6.69464 52 7.14219 52H17.1888C17.6364 52 18 52.3703 18 52.8261V60.3466Z" fill="#141414"/>
<path d="M28 52C28 47.5817 31.5817 44 36 44H44C48.4183 44 52 47.5817 52 52V68C52 72.4183 48.4183 76 44 76H36C31.5817 76 28 72.4183 28 68V52Z" fill="#141414"/>
<path d="M47.2123 59.5682C45.3033 63.6477 39.9999 68 39.9999 68C39.9353 67.9615 34.6993 63.6477 32.7874 59.5682C32.2175 58.3485 31.8694 56.8817 32.0463 55.4952C32.459 52.2791 36.0217 51.0562 38.2508 52.7862C38.7955 53.2099 39.2643 53.7619 39.576 54.4263C39.7416 54.7794 39.882 55.1678 39.9999 55.5754C40.1178 55.1678 40.2582 54.7794 40.4238 54.4263C40.7355 53.7619 41.2043 53.2067 41.749 52.7862C43.9781 51.0562 47.5408 52.2791 47.9535 55.4952C48.1304 56.8817 47.7851 58.3485 47.2123 59.5682Z" fill="#E50A14"/>
<path d="M56 52C56 47.5817 59.5817 44 64 44H72C76.4183 44 80 47.5817 80 52V68C80 72.4183 76.4183 76 72 76H64C59.5817 76 56 72.4183 56 68V52Z" fill="#E50A14"/>
<path d="M63.5277 61.8254C64.1786 59.09 63.8307 56.0034 62.2819 54.7155C62.136 54.5878 61.0587 54.3324 60.924 54.1408C60.6546 53.7257 61.4627 51.8312 62.2034 52.0121C62.2034 52.0121 71.3613 55.2052 72.4162 61.7828L71.8326 61.687C70.9236 56.8655 65.0989 54.4814 63.1237 53.8428C63.871 55.0062 64.3565 56.3037 64.5497 57.6536C64.7428 59.0035 64.6394 60.3768 64.2459 61.687C64.0029 61.6852 63.7608 61.7175 63.5277 61.7828V61.8254ZM72.506 67.9986C71.6441 68.0112 70.8084 67.718 70.1627 67.1766C69.517 66.6351 69.1079 65.8843 69.0157 65.0716C68.6004 62.0489 71.5857 62.1766 72.506 62.5278C73.3814 62.1766 76.3666 62.0489 75.9626 65.0716C75.8912 65.8864 75.4928 66.6442 74.8497 67.1888C74.2066 67.7333 73.3677 68.0232 72.506 67.9986V67.9986ZM63.5277 67.9986C62.6659 68.0112 61.8301 67.718 61.1844 67.1766C60.5387 66.6351 60.1296 65.8843 60.0374 65.0716C59.6333 62.0489 62.6186 62.1766 63.5277 62.5278C64.4143 62.1766 67.3996 62.0489 66.9843 65.0716C66.9 65.8816 66.4979 66.632 65.8577 67.1741C65.2175 67.7163 64.3859 68.0105 63.5277 67.9986V67.9986Z" fill="#141414"/>
<path d="M4 91C4 87.134 7.22355 84 11.2 84H18.4C22.3764 84 25.6 87.134 25.6 91V105C25.6 108.866 22.3764 112 18.4 112H11.2C7.22355 112 4 108.866 4 105V91Z" fill="#E50A14"/>
<path d="M21.2907 97.6222C19.5725 101.192 14.7995 105 14.7995 105C14.7414 104.966 10.029 101.192 8.3083 97.6222C7.79537 96.555 7.48206 95.2715 7.64124 94.0583C8.01267 91.2442 11.2191 90.1742 13.2253 91.6879C13.7155 92.0586 14.1375 92.5417 14.418 93.1231C14.567 93.432 14.6934 93.7718 14.7995 94.1285C14.9056 93.7718 15.032 93.432 15.1811 93.1231C15.4615 92.5417 15.8835 92.0558 16.3737 91.6879C18.3799 90.1742 21.5863 91.2442 21.9578 94.0583C22.117 95.2715 21.8062 96.555 21.2907 97.6222Z" fill="#141414"/>
<path d="M29.1992 91C29.1992 87.134 32.4228 84 36.3992 84H43.5992C47.5757 84 50.7992 87.134 50.7992 91V105C50.7992 108.866 47.5757 112 43.5992 112H36.3992C32.4228 112 29.1992 108.866 29.1992 105V91Z" fill="#E50A14"/>
<path d="M35.9737 99.5972C36.5596 97.2038 36.2465 94.503 34.8526 93.3761C34.7213 93.2643 33.7516 93.0409 33.6304 92.8732C33.388 92.51 34.1152 90.8523 34.7819 91.0106C34.7819 91.0106 43.024 93.8045 43.9734 99.5599L43.4482 99.4761C42.63 95.2573 37.3878 93.1712 35.6101 92.6125C36.2828 93.6304 36.7197 94.7657 36.8935 95.9469C37.0674 97.1281 36.9743 98.3297 36.6202 99.4761C36.4014 99.4746 36.1836 99.5028 35.9737 99.5599V99.5972ZM44.0542 104.999C43.2786 105.01 42.5264 104.753 41.9453 104.279C41.3641 103.806 40.9959 103.149 40.9129 102.438C40.5392 99.7928 43.226 99.9045 44.0542 100.212C44.842 99.9045 47.5288 99.7928 47.1652 102.438C47.1009 103.151 46.7424 103.814 46.1636 104.29C45.5848 104.767 44.8298 105.02 44.0542 104.999V104.999ZM35.9737 104.999C35.1981 105.01 34.4459 104.753 33.8648 104.279C33.2837 103.806 32.9155 103.149 32.8325 102.438C32.4688 99.7928 35.1556 99.9045 35.9737 100.212C36.7717 99.9045 39.4584 99.7928 39.0847 102.438C39.0088 103.146 38.6469 103.803 38.0707 104.277C37.4945 104.752 36.7461 105.009 35.9737 104.999V104.999Z" fill="#141414"/>
<path d="M54.4004 91C54.4004 87.134 57.6239 84 61.6004 84H68.8004C72.7768 84 76.0004 87.134 76.0004 91V105C76.0004 108.866 72.7768 112 68.8004 112H61.6004C57.6239 112 54.4004 108.866 54.4004 105V91Z" fill="#141414"/>
<path d="M70.6008 98.3032C70.6008 98.5359 70.4959 98.7602 70.3113 98.9056C68.5364 100.335 67.2903 102.304 66.7616 104.51C66.6945 104.801 66.4343 105.004 66.1322 105H60.3336C60.0399 105 59.8008 104.763 59.8008 104.476C59.8008 104.427 59.8092 104.377 59.8218 104.331C60.2371 102.881 61.4581 99.3626 64.0805 96.6706H60.8539C60.4511 96.6706 60.1239 96.3466 60.1239 95.9478L60.1029 91.727C60.1029 91.3282 60.426 91 60.8288 91H69.8707C70.2735 91 70.6008 91.324 70.6008 91.7228V98.3032Z" fill="#E50A14"/>
</svg>
