<svg width="26" height="26" viewBox="0 0 26 26" fill="none" xmlns="http://www.w3.org/2000/svg">
<g clip-path="url(#clip0_1501_22039)">
<path d="M9.42486 12.1069H3.77698H3.27813C3.15772 11.0319 3.17492 9.95702 3.17492 8.87123V5.04927V4.90812C6.26549 4.56067 9.26431 3.71375 12.0452 2.38367V4.98955V8.48578V11.5097C12.0452 11.7106 12.0452 11.906 12.0395 12.1069H9.42486Z" fill="#141414"/>
<path d="M19.9467 12.1069H14.2989H13.9319V11.792V8.89843V5.4022V2.37829C13.9319 2.37286 13.9319 2.37286 13.9319 2.36743C14.62 2.6986 15.3195 3.00262 16.0362 3.27949C17.5614 3.86582 19.144 4.31642 20.7667 4.60958C21.4433 4.73444 22.1199 4.83216 22.8022 4.90817V6.63457V10.1199C22.8022 10.7877 22.7793 11.45 22.699 12.1069H19.9467Z" fill="#E50A14"/>
<path d="M19.7174 19.0233C19.6887 19.0559 19.6543 19.1048 19.6371 19.1265C19.5855 19.1862 19.5339 19.2405 19.488 19.3002C19.2988 19.5174 19.0981 19.7345 18.8974 19.9463C18.4846 20.3697 18.0431 20.7769 17.5729 21.1515C17.4582 21.2492 17.3435 21.3361 17.2231 21.4284C17.1715 21.4664 17.1199 21.5044 17.0741 21.5424C17.0511 21.5586 16.9594 21.6292 17.011 21.5912C17.0052 21.5967 16.9995 21.5967 16.9995 21.6021C16.753 21.7758 16.5064 21.9441 16.2484 22.107C16.0649 22.221 15.8871 22.3296 15.6979 22.4381C15.1131 22.791 14.5282 23.1385 13.9434 23.4913C13.9376 23.4913 13.9376 23.4968 13.9319 23.4968V21.0158V17.5195V14.4956C13.9319 14.2947 13.9319 14.0993 13.9376 13.8984H16.558H22.2059H22.3492C22.1657 14.5662 21.9364 15.2285 21.6612 15.8691C21.1967 16.8952 20.6119 17.8724 19.9181 18.779C19.8493 18.855 19.7862 18.9365 19.7174 19.0233Z" fill="#E50A14"/>
<path d="M10.4342 22.5196C10.3138 22.4436 10.1876 22.373 10.0615 22.3024C9.81492 22.1558 9.5741 22.0038 9.33901 21.8409C9.2186 21.7595 9.10392 21.6781 8.98924 21.5966C8.96057 21.5749 8.9319 21.5532 8.90323 21.5369L8.75989 21.4283C8.28397 21.0646 7.831 20.6737 7.40095 20.2557C7.1888 20.0494 6.98811 19.8431 6.78743 19.6259C6.68995 19.5174 6.59248 19.4088 6.495 19.3002C6.45486 19.2514 6.41473 19.2079 6.37459 19.1591C6.34592 19.1211 6.24271 18.9908 6.23697 18.9853C5.48584 18.0136 4.83791 16.9875 4.32759 15.8746C4.04663 15.2285 3.81727 14.5608 3.63379 13.8876H6.03629H11.6842H12.0569V14.2025V17.0961V20.5923V23.4859C11.5122 23.1656 10.9732 22.8399 10.4342 22.5196Z" fill="#E50A14"/>
<path d="M23.754 3.21972C23.754 3.21972 23.7482 3.21972 23.754 3.21972C23.3469 3.18715 22.9455 3.14915 22.5441 3.10029C20.4398 2.81798 18.3756 2.28595 16.4146 1.52047C15.4226 1.11873 14.4708 0.646413 13.5247 0.152381C13.3756 0.0492317 13.1921 -0.00505775 13.0029 0.000371179C12.9341 0.0058001 12.871 0.011229 12.808 0.0275158C12.7105 0.0438026 12.6187 0.0763763 12.527 0.125237C11.558 0.624698 10.5832 1.10787 9.56832 1.52047C7.61306 2.28052 5.56606 2.81255 3.46746 3.09486C3.06035 3.14372 2.65325 3.18715 2.24041 3.21972C1.73009 3.25773 1.30005 3.59432 1.30005 4.11007V6.76481V10.223C1.30005 11.1622 1.37459 12.096 1.53514 13.0189C1.53514 13.0895 1.54661 13.1601 1.55807 13.2361C2.09706 16.0863 3.49039 18.7627 5.50872 20.9397C6.52362 22.0309 7.7048 22.981 8.99493 23.7682C9.53391 24.0994 10.0786 24.4197 10.6176 24.74C11.2483 25.1146 11.8791 25.4946 12.5155 25.8746C12.6704 25.9669 12.8366 26.0049 13.0029 25.9995C13.1577 25.9995 13.3183 25.9615 13.4616 25.8746C14.5912 25.2014 15.715 24.5283 16.8446 23.8496C19.3274 22.3675 21.3973 20.2774 22.7563 17.8127C23.5361 16.4066 24.098 14.8919 24.3962 13.3338C24.4076 13.3012 24.4191 13.2687 24.4248 13.2361C24.4306 13.2198 24.4306 13.2035 24.4363 13.1872C24.442 13.1655 24.442 13.1438 24.4478 13.1221C24.6083 12.1937 24.7 11.26 24.7 10.3153V9.03953V5.10899V4.11007C24.6943 3.64318 24.2585 3.19801 23.754 3.21972ZM20.7666 4.61496C21.4432 4.73982 22.1198 4.83754 22.8021 4.91355V6.63995V10.1199C22.8021 10.7876 22.7792 11.45 22.6989 12.1069H19.9409H14.293H13.9318V11.7866V8.89295V5.39672V2.37281C14.6199 2.69855 15.3137 3.008 16.0304 3.28487C17.5671 3.87119 19.1496 4.3218 20.7666 4.61496ZM3.18076 8.87124V5.04927V4.90812C6.27133 4.56067 9.27015 3.71376 12.0511 2.38367V4.98955V8.48578V11.5097C12.0511 11.7106 12.0511 11.906 12.0454 12.1069H9.42497H3.77709H3.28397C3.15783 11.0319 3.18076 9.95702 3.18076 8.87124ZM10.4341 22.5196C10.3137 22.4435 10.1876 22.373 10.0614 22.3024C9.81487 22.1558 9.57405 22.0038 9.33896 21.8409C9.21855 21.7595 9.10387 21.6781 8.98919 21.5966C8.96052 21.5749 8.93185 21.5532 8.90319 21.5369L8.75984 21.4283C8.28393 21.0646 7.83095 20.6737 7.40091 20.2557C7.18875 20.0494 6.98807 19.8431 6.78738 19.6259C6.6899 19.5174 6.59243 19.4088 6.49495 19.3002C6.45481 19.2513 6.41468 19.2079 6.37454 19.159C6.34587 19.121 6.24266 18.9908 6.23693 18.9853C5.48579 18.0135 4.83786 16.9875 4.32754 15.8745C4.04658 15.2285 3.81723 14.5607 3.63374 13.8876H6.03624H11.6841H12.0511V14.2024V17.0961V20.5923V23.4805C11.5121 23.1602 10.9731 22.8399 10.4341 22.5196ZM21.6611 15.8583C21.1966 16.8843 20.6118 17.8615 19.918 18.7682C19.8492 18.855 19.7861 18.9365 19.7173 19.0233C19.6886 19.0559 19.6542 19.1048 19.637 19.1265C19.5854 19.1862 19.5338 19.2405 19.4879 19.3002C19.2987 19.5174 19.098 19.7345 18.8974 19.9462C18.4845 20.3697 18.043 20.7769 17.5728 21.1515C17.4581 21.2492 17.3435 21.336 17.2231 21.4283C17.1715 21.4663 17.1198 21.5043 17.074 21.5423C17.051 21.5586 16.9593 21.6292 17.0109 21.5912C17.0052 21.5966 16.9994 21.5966 16.9994 21.6021C16.7529 21.7758 16.5063 21.9441 16.2483 22.107C16.0648 22.221 15.8871 22.3295 15.6978 22.4381C15.113 22.791 14.5281 23.1384 13.9433 23.4913C13.9375 23.4913 13.9375 23.4968 13.9318 23.4968V21.0157V17.5195V14.4956C13.9318 14.2947 13.9318 14.0993 13.9375 13.8984H16.5579H22.2058H22.3492C22.1657 14.5607 21.9363 15.2176 21.6611 15.8583Z" fill="#141414"/>
</g>
<defs>
<clipPath id="clip0_1501_22039">
<rect width="26" height="26" fill="white"/>
</clipPath>
</defs>
</svg>
