<svg width="50" height="50" viewBox="0 0 50 50" fill="none" xmlns="http://www.w3.org/2000/svg">
<path d="M18.1262 23.2825H7.26491H6.30558C6.07402 21.2153 6.1071 19.1481 6.1071 17.0601V9.71014V9.4387C12.0505 8.77052 17.8175 7.14184 23.1654 4.58398V9.5953V16.3188V22.134C23.1654 22.5203 23.1654 22.8962 23.1544 23.2825H18.1262Z" fill="#141414"/>
<path d="M38.36 23.2825H27.4987H26.793V22.677V17.1123V10.3888V4.57362C26.793 4.56318 26.793 4.56317 26.793 4.55273C28.1162 5.18959 29.4614 5.77424 30.8398 6.3067C33.7729 7.43424 36.8162 8.30078 39.9368 8.86455C41.238 9.10468 42.5391 9.2926 43.8513 9.43877V12.7588V19.4614C43.8513 20.7455 43.8072 22.0193 43.6528 23.2825H38.36Z" fill="#F5F3F4"/>
<path d="M37.9189 36.5834C37.8638 36.646 37.7976 36.74 37.7645 36.7817C37.6653 36.8966 37.5661 37.001 37.4778 37.1158C37.114 37.5334 36.728 37.951 36.3421 38.3582C35.5482 39.1725 34.6991 39.9556 33.7949 40.6759C33.5744 40.8639 33.3539 41.0309 33.1223 41.2084C33.0231 41.2815 32.9238 41.3546 32.8356 41.4276C32.7915 41.459 32.6151 41.5947 32.7143 41.5216C32.7033 41.532 32.6923 41.532 32.6923 41.5425C32.2181 41.8766 31.744 42.2002 31.2478 42.5134C30.8949 42.7327 30.5531 42.9415 30.1892 43.1503C29.0645 43.8289 27.9397 44.4971 26.815 45.1757C26.804 45.1757 26.804 45.1861 26.793 45.1861V40.4149V33.6914V27.8762C26.793 27.4899 26.793 27.1141 26.804 26.7278H31.8432H42.7045H42.9802C42.6273 28.0119 42.1863 29.2856 41.657 30.5176C40.7638 32.4908 39.6391 34.37 38.3049 36.1136C38.1725 36.2597 38.0512 36.4163 37.9189 36.5834Z" fill="#F5F3F4"/>
<path d="M20.066 43.3068C19.8344 43.1606 19.5918 43.0249 19.3492 42.8892C18.8751 42.6073 18.412 42.3149 17.9599 42.0017C17.7283 41.8451 17.5078 41.6885 17.2872 41.5319C17.2321 41.4902 17.177 41.4484 17.1218 41.4171L16.8462 41.2083C15.9309 40.5088 15.0598 39.7571 14.2328 38.9532C13.8248 38.5565 13.4389 38.1597 13.053 37.7421C12.8655 37.5333 12.6781 37.3245 12.4906 37.1157C12.4134 37.0217 12.3362 36.9382 12.259 36.8443C12.2039 36.7712 12.0054 36.5206 11.9944 36.5102C10.5499 34.6414 9.30389 32.6682 8.32251 30.5279C7.7822 29.2855 7.34114 28.0014 6.98828 26.7068H11.6085H22.4698H23.1865V27.3123V32.877V39.6005V45.1651C22.139 44.5492 21.1025 43.9227 20.066 43.3068Z" fill="#F5F3F4"/>
<path d="M45.6806 6.19178C45.6806 6.19178 45.6696 6.19178 45.6806 6.19178C44.8977 6.12914 44.1258 6.05605 43.354 5.96209C39.3072 5.4192 35.3375 4.39606 31.5664 2.92398C29.6588 2.1514 27.8283 1.2431 26.0089 0.293041C25.7222 0.0946763 25.3694 -0.00972644 25.0055 0.000713806C24.8732 0.011154 24.7519 0.0215943 24.6306 0.052915C24.4431 0.0842357 24.2667 0.146878 24.0903 0.24084C22.2268 1.20134 20.3522 2.13052 18.4005 2.92398C14.6404 4.38562 10.7039 5.40876 6.66809 5.95165C5.8852 6.04561 5.1023 6.12914 4.30838 6.19178C3.327 6.26486 2.5 6.91215 2.5 7.90398V13.0093V19.6597C2.5 21.4658 2.64335 23.2616 2.95209 25.0364C2.95209 25.1721 2.97415 25.3079 2.9962 25.454C4.03271 30.9351 6.7122 36.0822 10.5936 40.2687C12.5453 42.3672 14.8168 44.1943 17.2978 45.7081C18.3344 46.3449 19.3819 46.9609 20.4184 47.5769C21.6313 48.2973 22.8443 49.0281 24.0682 49.7589C24.366 49.9364 24.6857 50.0095 25.0055 49.999C25.3032 49.999 25.612 49.9259 25.8876 49.7589C28.0599 48.4643 30.2211 47.1697 32.3934 45.8647C37.168 43.0145 41.1486 38.995 43.7619 34.2551C45.2616 31.5511 46.3422 28.6383 46.9156 25.6419C46.9376 25.5793 46.9597 25.5167 46.9707 25.454C46.9817 25.4227 46.9817 25.3914 46.9928 25.3601C47.0038 25.3183 47.0038 25.2765 47.0148 25.2348C47.3236 23.4495 47.5 21.6538 47.5 19.8372V17.3837V9.82498V7.90398C47.489 7.00612 46.6509 6.15002 45.6806 6.19178ZM39.9357 8.87492C41.2368 9.11504 42.538 9.30297 43.8502 9.44913V12.7691V19.4613C43.8502 20.7455 43.806 22.0192 43.6517 23.2825H38.3478H27.4865H26.7918V22.6665V17.1018V10.3783V4.5631C28.115 5.18951 29.4493 5.78461 30.8276 6.31706C33.7828 7.44461 36.8261 8.31115 39.9357 8.87492ZM6.11676 17.0601V9.71014V9.43869C12.0602 8.77052 17.8271 7.14184 23.1751 4.58398V9.5953V16.3188V22.134C23.1751 22.5203 23.1751 22.8962 23.1641 23.2825H18.1248H7.26354H6.31524C6.07265 21.2153 6.11676 19.1481 6.11676 17.0601ZM20.0655 43.3068C19.834 43.1607 19.5914 43.0249 19.3488 42.8892C18.8747 42.6073 18.4115 42.315 17.9594 42.0018C17.7279 41.8452 17.5074 41.6886 17.2868 41.532C17.2317 41.4902 17.1766 41.4485 17.1214 41.4171L16.8457 41.2083C15.9305 40.5088 15.0594 39.7572 14.2324 38.9533C13.8244 38.5565 13.4385 38.1598 13.0526 37.7422C12.8651 37.5334 12.6777 37.3246 12.4902 37.1158C12.413 37.0218 12.3358 36.9383 12.2586 36.8443C12.2035 36.7712 12.005 36.5207 11.994 36.5102C10.5495 34.6414 9.30348 32.6682 8.3221 30.528C7.78179 29.2856 7.34072 28.0014 6.98787 26.7068H11.6081H22.4694H23.1751V27.3124V32.877V39.6005V45.1548C22.1386 44.5388 21.1021 43.9228 20.0655 43.3068ZM41.6558 30.4967C40.7627 32.4699 39.638 34.3491 38.3037 36.0926C38.1714 36.2597 38.0501 36.4163 37.9178 36.5833C37.8627 36.646 37.7965 36.7399 37.7634 36.7817C37.6642 36.8965 37.5649 37.0009 37.4767 37.1158C37.1128 37.5334 36.7269 37.951 36.341 38.3582C35.547 39.1725 34.698 39.9555 33.7938 40.6759C33.5733 40.8638 33.3527 41.0309 33.1212 41.2083C33.0219 41.2814 32.9227 41.3545 32.8345 41.4276C32.7904 41.4589 32.6139 41.5946 32.7132 41.5215C32.7022 41.532 32.6911 41.532 32.6911 41.5424C32.217 41.8765 31.7428 42.2002 31.2466 42.5134C30.8938 42.7326 30.5519 42.9414 30.1881 43.1502C29.0633 43.8288 27.9386 44.497 26.8139 45.1756C26.8029 45.1756 26.8029 45.1861 26.7918 45.1861V40.4149V33.6914V27.8762C26.7918 27.4899 26.7918 27.114 26.8029 26.7277H31.8421H42.7034H42.979C42.6262 28.0014 42.1851 29.2647 41.6558 30.4967Z" fill="#141414"/>
</svg>
