<svg width="20" height="20" viewBox="0 0 20 20" fill="none" xmlns="http://www.w3.org/2000/svg">
<circle cx="10" cy="10" r="10" fill="#862565"/>
<path fill-rule="evenodd" clip-rule="evenodd" d="M13.2745 8.70126C13.6146 8.70126 13.8902 8.4324 13.8902 8.10086C13.8902 7.76912 13.6146 7.5 13.2745 7.5C12.9349 7.5 12.6594 7.76912 12.6594 8.10086C12.6594 8.4324 12.9349 8.70126 13.2745 8.70126ZM8.55921 9.02551C8.53143 9.09361 8.33147 9.64483 7.84788 10.2161V7.77338L6.55936 8.02191V12.4496H7.84788V11.081C8.22108 11.6272 8.40536 12.4496 8.40536 12.4496H9.94874C9.79607 11.8303 9.12827 10.6882 9.12827 10.6882C9.72761 9.94661 9.99087 9.15642 10.0327 9.02551H8.55921ZM11.9467 8.97929C10.7926 9.01544 10.2067 9.52076 10.2067 10.5253V12.4496H11.4658V10.8804C11.4658 10.2789 11.5465 10.021 12.2779 9.99645V8.99691C12.1548 8.97142 11.9467 8.97929 11.9467 8.97929ZM4.39838 9.51308C4.24056 9.50294 3.87517 9.4799 3.87517 9.15888C3.87517 8.7715 4.40123 8.7715 4.59854 8.7715C4.94547 8.7715 5.3948 8.87155 5.71567 8.96522C5.71567 8.96522 5.89467 9.0268 6.047 9.08987L6.06115 9.09361V8.03269L6.04171 8.02707C5.66302 7.89777 5.22269 7.77338 4.40632 7.77338C2.99874 7.77338 2.5 8.57364 2.5 9.25919C2.5 9.65438 2.67357 10.5845 4.2856 10.6917C4.42226 10.6999 4.78494 10.7203 4.78494 11.0521C4.78494 11.326 4.48801 11.4875 3.98861 11.4875C3.44132 11.4875 2.91043 11.3513 2.58797 11.2221V12.3148C3.07071 12.4383 3.61489 12.5 4.25266 12.5C5.62896 12.5 6.24537 11.7429 6.24537 10.9924C6.24537 10.1416 5.5556 9.58873 4.39838 9.51308ZM12.6504 12.4496H13.8993V9.02938H12.6504V12.4496ZM16.2509 7.99144V12.4496H17.5V7.77338L16.2509 7.99144ZM14.4283 7.99144L15.6762 7.77338V12.4496H14.4283V7.99144Z" fill="white"/>
</svg>
