<svg width="80" height="80" viewBox="0 0 80 80" fill="none" xmlns="http://www.w3.org/2000/svg">
<path d="M30.2222 0H1.77778C0.79683 0 0 0.79683 0 1.77778V30.2222C0 31.2032 0.79683 32 1.77778 32H30.2222C31.2032 32 32 31.2032 32 30.2222V1.77778C32 0.79683 31.2032 0 30.2222 0Z" fill="#141414"/>
<path d="M67.7564 63.9955L79.212 52.5665C79.7136 52.0648 79.9955 51.3844 79.9955 50.675C79.9955 49.9655 79.7136 49.2851 79.212 48.7835C78.7103 48.2818 78.0299 48 77.3205 48C76.611 48 75.9306 48.2818 75.429 48.7835L64 60.2391L52.571 48.7835C52.0694 48.2818 51.389 48 50.6795 48C49.9701 48 49.2897 48.2818 48.788 48.7835C48.2864 49.2851 48.0045 49.9655 48.0045 50.675C48.0045 51.3844 48.2864 52.0648 48.788 52.5665L60.2436 63.9955L48.788 75.4244C48.5383 75.6721 48.3401 75.9667 48.2049 76.2914C48.0696 76.616 48 76.9642 48 77.3159C48 77.6676 48.0696 78.0158 48.2049 78.3405C48.3401 78.6651 48.5383 78.9598 48.788 79.2074C49.0357 79.4571 49.3303 79.6553 49.655 79.7906C49.9796 79.9258 50.3278 79.9955 50.6795 79.9955C51.0312 79.9955 51.3794 79.9258 51.7041 79.7906C52.0287 79.6553 52.3234 79.4571 52.571 79.2074L64 67.7518L75.429 79.2074C75.6766 79.4571 75.9713 79.6553 76.2959 79.7906C76.6206 79.9258 76.9688 79.9955 77.3205 79.9955C77.6722 79.9955 78.0204 79.9258 78.345 79.7906C78.6697 79.6553 78.9643 79.4571 79.212 79.2074C79.4617 78.9598 79.6599 78.6651 79.7951 78.3405C79.9304 78.0158 80 77.6676 80 77.3159C80 76.9642 79.9304 76.616 79.7951 76.2914C79.6599 75.9667 79.4617 75.6721 79.212 75.4244L67.7564 63.9955Z" fill="#141414"/>
<path d="M64 32C72.8231 32 80 24.8214 80 16C80 7.17857 72.8231 0 64 0C55.1769 0 48 7.17857 48 16C48 24.8214 55.1769 32 64 32Z" fill="#E50A14"/>
<path d="M17.5898 48.9064C16.9874 47.6979 15.0118 47.6979 14.4096 48.9064L0.187268 77.4214C-0.0881383 77.9736 -0.0579668 78.63 0.26584 79.1559C0.58885 79.681 1.15949 80 1.77618 80H30.2209C30.8376 80 31.4082 79.6794 31.7336 79.1535C32.059 78.6276 32.0876 77.972 31.8122 77.419L17.5898 48.9064Z" fill="#E50A14"/>
</svg>
