<svg width="26" height="26" viewBox="0 0 26 26" fill="none" xmlns="http://www.w3.org/2000/svg">
<path d="M25.3639 8.98333C24.5088 6.34916 22.836 4.08452 20.6434 2.48701C18.4997 0.925476 15.8606 0.00163512 13.0057 0H12.9959C10.141 0.00163512 7.50192 0.925476 5.35828 2.48701C3.16559 4.08289 1.49286 6.34753 0.637695 8.98333C0.225646 10.2489 0 11.5979 0 13.0008C0 14.4021 0.224011 15.7511 0.634425 17.0167C1.48959 19.6525 3.16232 21.9171 5.35501 23.513C7.50028 25.0762 10.141 26 12.9975 26H13.0025C15.8574 25.9984 18.4964 25.0745 20.6401 23.513C22.8328 21.9155 24.5055 19.6508 25.3607 17.0167C25.7711 15.7511 25.9951 14.4021 25.9951 13.0008C26 11.5979 25.7744 10.2489 25.3639 8.98333ZM12.9992 25.1759C10.3241 25.1759 7.85183 24.3109 5.84227 22.8475L7.07025 21.1584C8.7348 22.37 10.7836 23.0879 13.0008 23.0879H13.0041V25.1759H12.9992ZM12.9992 5.12119C17.3519 5.12119 20.8788 8.64977 20.8788 13.0008C20.8788 17.3535 17.3502 20.8804 12.9992 20.8804C8.6465 20.8804 5.11955 17.3519 5.11955 13.0008C5.11955 8.64814 8.64814 5.12119 12.9992 5.12119ZM20.1577 22.8475L18.9298 21.1584C20.6303 19.919 21.9286 18.1629 22.5924 16.1174C23.4427 16.3937 24.1458 16.6226 24.5791 16.7632C23.7779 19.2306 22.2114 21.3514 20.1577 22.8475ZM24.5791 9.23841L22.5924 9.88428C21.9286 7.84039 20.6303 6.08264 18.9298 4.84485C19.4579 4.11886 19.8896 3.52368 20.1577 3.15578C22.2114 4.65027 23.7779 6.77102 24.5791 9.23841ZM12.9992 0.825734H13.0025V2.91378H12.9943C10.7787 2.91378 8.73153 3.6316 7.06861 4.84322C6.54047 4.11723 6.1088 3.52204 5.84064 3.15414C7.85183 1.69235 10.3241 0.825734 12.9992 0.825734ZM1.42092 9.23841L3.40758 9.88428C3.08874 10.8654 2.91378 11.9135 2.91378 13.0008C2.91378 14.0882 3.08874 15.1346 3.40595 16.1157C2.55569 16.3921 1.85259 16.621 1.41928 16.7616C1.03503 15.5761 0.824099 14.3138 0.824099 13.0008C0.825734 11.6878 1.03666 10.4239 1.42092 9.23841Z" fill="#141414"/>
<path d="M12.9993 25.1759C10.3243 25.1759 7.85195 24.3109 5.84239 22.8474L7.07037 21.1584C8.73492 22.37 10.7837 23.0878 13.0009 23.0878H13.0042V25.1759H12.9993ZM20.1578 22.8474L18.9299 21.1584C20.6304 19.9189 21.9287 18.1628 22.5925 16.1173C23.4428 16.3936 24.1459 16.6226 24.5792 16.7632C23.778 19.2306 22.2116 21.3513 20.1578 22.8474ZM24.5792 9.23836L22.5925 9.88423C21.9287 7.84034 20.6304 6.08259 18.9299 4.8448C19.458 4.11881 19.8897 3.52363 20.1578 3.15573C22.2116 4.65022 23.778 6.77097 24.5792 9.23836ZM12.9993 0.825684H13.0026V2.91373H12.9944C10.7788 2.91373 8.73165 3.63154 7.06873 4.84317C6.54059 4.11717 6.10892 3.52199 5.84076 3.15409C7.85195 1.6923 10.3243 0.825684 12.9993 0.825684ZM1.42104 9.23836L3.4077 9.88423C3.08886 10.8653 2.9139 11.9134 2.9139 13.0008C2.9139 14.0881 3.08886 15.1346 3.40607 16.1157C2.55581 16.392 1.85271 16.6209 1.4194 16.7615C1.03515 15.5761 0.824219 14.3138 0.824219 13.0008C0.825854 11.6878 1.03678 10.4238 1.42104 9.23836Z" fill="#E50A14"/>
<path d="M12.5302 16.6128V17.522C12.5302 17.7999 12.7558 18.0256 13.0338 18.0256C13.3118 18.0256 13.5374 17.7999 13.5374 17.522V16.6374C14.7654 16.4428 15.5535 15.4535 15.6271 14.4921C15.6958 13.601 15.1709 12.561 13.5374 12.1849V10.0037C14.1211 10.2342 14.4286 10.8392 14.5724 11.2333C14.6673 11.4949 14.9567 11.629 15.2183 11.5342C15.4799 11.4393 15.614 11.1499 15.5192 10.8883C15.3262 10.3585 14.7687 9.20739 13.5358 8.95395V8.4814C13.5358 8.20343 13.3101 7.97778 13.0322 7.97778C12.7542 7.97778 12.5285 8.20343 12.5285 8.4814V8.95068C11.4526 9.16651 10.7659 10.0527 10.7005 10.9145C10.6383 11.7222 11.1011 12.6591 12.5285 13.0221V15.5598C11.8549 15.2998 11.5017 14.6082 11.3365 14.1602C11.2417 13.8985 10.9523 13.7645 10.6907 13.8593C10.4291 13.9541 10.295 14.2436 10.3898 14.5068C10.6024 15.0807 11.2041 16.3267 12.5302 16.6128ZM14.6248 14.4136C14.5872 14.909 14.1767 15.4339 13.5407 15.6056V13.2281C14.2667 13.4522 14.6656 13.8757 14.6248 14.4136ZM11.7077 10.9913C11.7371 10.5956 12.0462 10.177 12.5302 9.99879V11.9675C11.9759 11.7647 11.675 11.4197 11.7077 10.9913Z" fill="#E50A14"/>
</svg>
