<svg width="80" height="80" viewBox="0 0 80 80" fill="none" xmlns="http://www.w3.org/2000/svg">
<g clip-path="url(#clip0_1532_16155)">
<path fill-rule="evenodd" clip-rule="evenodd" d="M32.8374 5.67403L12.0149 15.6021C10.9831 16.093 10.5402 17.3097 11.0285 18.3131L20.9055 38.5623C21.3942 39.5656 22.6413 39.9812 23.6727 39.4908L44.4952 29.5628C45.527 29.0719 45.9699 27.8552 45.4816 26.8518L35.5963 6.60478C35.1075 5.60153 33.8692 5.18361 32.8374 5.67403Z" fill="#141414"/>
<path fill-rule="evenodd" clip-rule="evenodd" d="M41.233 26.6854C40.4302 28.9189 37.9276 30.1071 35.6614 29.3394C33.3884 28.5822 32.2077 26.1573 33.0189 23.9217C33.8241 21.697 36.3155 20.5023 38.5905 21.2677C40.8546 22.0273 42.0465 24.4584 41.233 26.6854ZM26.7564 34.9669C24.5803 36.0052 21.9742 35.1321 20.9404 33.0162C19.9149 30.898 20.8426 28.3455 23.0192 27.307C25.1953 26.2686 27.7929 27.144 28.8268 29.2599C29.8607 31.3757 28.9346 33.9368 26.7564 34.9669ZM15.2685 18.4804C16.0797 16.2447 18.5739 15.0587 20.8486 15.8242C23.1126 16.5838 24.2939 19.0085 23.4911 21.2418C22.6776 23.4688 20.1857 24.6636 17.9195 23.8958C15.6443 23.1305 14.4634 20.7051 15.2685 18.4804ZM29.7536 10.1967C31.9297 9.15837 34.5272 10.0337 35.5611 12.1496C36.595 14.2656 35.6673 16.8181 33.4913 17.8564C31.3152 18.8948 28.7176 18.0194 27.6837 15.9036C26.6498 13.7876 27.5753 11.2268 29.7536 10.1967Z" fill="#E50A14"/>
<path d="M38.2393 0.697463L13.3068 7.37809C10.3764 8.1633 8.63675 11.1764 9.42195 14.1069L16.1026 39.0393C16.8878 41.9697 19.9009 43.7094 22.8313 42.9242L47.7638 36.2435C50.6942 35.4583 52.4339 32.4452 51.6487 29.5148L44.968 4.58231C44.1817 1.64755 41.1697 -0.0877434 38.2393 0.697463Z" fill="#141414"/>
<path d="M34.7515 7.12501C36.3141 6.70632 37.9222 7.63475 38.3409 9.19736C38.7596 10.76 37.8312 12.3681 36.2686 12.7868C34.706 13.2055 33.0979 12.277 32.6792 10.7144C32.2605 9.15181 33.1889 7.54371 34.7515 7.12501Z" fill="#E50A14"/>
<path d="M26.3225 36.4911C27.886 36.0722 28.8138 34.4652 28.3949 32.9017C27.976 31.3383 26.3689 30.4104 24.8055 30.8294C23.242 31.2483 22.3142 32.8553 22.7331 34.4188C23.1521 35.9822 24.7591 36.91 26.3225 36.4911Z" fill="#E50A14"/>
<path d="M31.2903 24.6378C32.8538 24.2189 33.7816 22.6119 33.3627 21.0484C32.9437 19.485 31.3367 18.5572 29.7733 18.9761C28.2098 19.395 27.282 21.002 27.7009 22.5655C28.1198 24.1289 29.7269 25.0568 31.2903 24.6378Z" fill="#E50A14"/>
<path d="M21.0628 16.861C22.6262 16.4421 23.554 14.835 23.1351 13.2716C22.7162 11.7081 21.1092 10.7803 19.5457 11.1992C17.9823 11.6182 17.0544 13.2252 17.4734 14.7886C17.8923 16.3521 19.4993 17.2799 21.0628 16.861Z" fill="#E50A14"/>
<path d="M41.5271 32.4123C39.9645 32.831 38.3564 31.9025 37.9377 30.3399C37.519 28.7773 38.4475 27.1692 40.0101 26.7505C41.5727 26.3318 43.1808 27.2602 43.5995 28.8228C44.0182 30.3855 43.0897 31.9936 41.5271 32.4123Z" fill="#E50A14"/>
<path fill-rule="evenodd" clip-rule="evenodd" d="M25.3392 45.8829L2.16358 50.1747C1.01552 50.3864 0.256618 51.4701 0.473185 52.5894L4.86618 75.1858C5.08323 76.3052 6.20407 77.0451 7.35171 76.834L30.5274 72.5421C31.6754 72.3305 32.4343 71.2468 32.2178 70.1275L27.8159 47.5311C27.5989 46.4117 26.4873 45.6718 25.3392 45.8829Z" fill="#141414"/>
<path fill-rule="evenodd" clip-rule="evenodd" d="M28.069 68.8396C26.6861 70.8316 23.902 71.3425 21.8684 69.9855C19.8254 68.6371 19.3014 65.9317 20.6932 63.9399C22.0761 61.9572 24.8509 61.437 26.8938 62.794C28.9273 64.1424 29.4608 66.8569 28.069 68.8396ZM11.5916 73.1845C9.1694 73.6338 6.8283 72.083 6.36757 69.7214C5.91566 67.3597 7.50624 65.0859 9.92897 64.6365C12.3512 64.1872 14.6833 65.7381 15.1442 68.0997C15.605 70.4613 14.0138 72.744 11.5916 73.1845ZM4.61376 53.8757C6.00557 51.8838 8.78082 51.3729 10.8233 52.7299C12.8569 54.0782 13.3815 56.7836 11.9986 58.7755C10.6068 60.7582 7.83154 61.2784 5.79801 59.9214C3.75498 58.5644 3.23088 55.8585 4.61376 53.8757ZM21.1 49.5308C23.5222 49.0816 25.8544 50.6324 26.3152 52.994C26.776 55.3557 25.1854 57.6295 22.7633 58.0789C20.3411 58.5281 18.0089 56.9773 17.5481 54.6157C17.0873 52.254 18.6779 49.9714 21.1 49.5308Z" fill="#E50A14"/>
<path d="M31.9866 42.3999H5.61344C2.51369 42.3999 0 44.9136 0 48.0133L0 74.3865C0 77.4862 2.51369 79.9999 5.61344 79.9999H31.9866C35.0863 79.9999 37.6 77.4862 37.6 74.3865V48.0133C37.6 44.909 35.0863 42.3999 31.9866 42.3999Z" fill="#141414"/>
<path d="M26.8445 47.821C28.4974 47.821 29.839 49.1626 29.839 50.8155C29.839 52.4684 28.4974 53.8099 26.8445 53.8099C25.1916 53.8099 23.8501 52.4684 23.8501 50.8155C23.8501 49.1626 25.1916 47.821 26.8445 47.821Z" fill="#E50A14"/>
<path d="M10.7603 74.5741C12.4141 74.5741 13.7548 73.2334 13.7548 71.5797C13.7548 69.9259 12.4141 68.5852 10.7603 68.5852C9.10653 68.5852 7.76587 69.9259 7.76587 71.5797C7.76587 73.2334 9.10653 74.5741 10.7603 74.5741Z" fill="#E50A14"/>
<path d="M10.7603 53.8099C12.4141 53.8099 13.7548 52.4693 13.7548 50.8155C13.7548 49.1617 12.4141 47.821 10.7603 47.821C9.10653 47.821 7.76587 49.1617 7.76587 50.8155C7.76587 52.4693 9.10653 53.8099 10.7603 53.8099Z" fill="#E50A14"/>
<path d="M26.8445 74.5695C25.1916 74.5695 23.8501 73.2279 23.8501 71.575C23.8501 69.9221 25.1916 68.5806 26.8445 68.5806C28.4974 68.5806 29.839 69.9221 29.839 71.575C29.839 73.2279 28.4974 74.5695 26.8445 74.5695Z" fill="#E50A14"/>
<path fill-rule="evenodd" clip-rule="evenodd" d="M66.6626 41.2987L41.1057 42.2778C39.8398 42.3253 38.8552 43.37 38.9125 44.6058L40.091 69.5566C40.1487 70.7925 41.2364 71.7626 42.5017 71.7155L68.0586 70.7364C69.3245 70.6889 70.309 69.6442 70.2518 68.4084L69.0638 43.4562C69.006 42.2203 67.9283 41.2517 66.6626 41.2987Z" fill="#141414"/>
<path fill-rule="evenodd" clip-rule="evenodd" d="M65.9986 66.3759C64.2018 68.2982 61.1323 68.4108 59.1613 66.6353C57.1788 64.8675 57.0398 61.8806 58.8461 59.9598C60.6415 58.0474 63.7023 57.9234 65.6834 59.7004C67.6558 61.4666 67.8035 64.4649 65.9986 66.3759ZM47.6257 68.4609C44.9545 68.564 42.6835 66.5322 42.5587 63.9243C42.4433 61.3177 44.5072 59.1252 47.179 59.0222C49.8502 58.919 52.1115 60.9494 52.2365 63.5574C52.3615 66.1653 50.2954 68.3672 47.6257 68.4609ZM43.1569 46.6355C44.9632 44.7146 48.0232 44.6005 50.0038 46.3775C51.9762 48.1437 52.1159 51.1308 50.319 53.053C48.5141 54.964 45.4527 55.0879 43.4817 53.3124C41.5005 51.5354 41.3615 48.5479 43.1569 46.6355ZM61.5393 44.5518C64.2105 44.4487 66.4718 46.4791 66.5968 49.087C66.7218 51.6951 64.6578 53.8875 61.9867 53.9907C59.3155 54.0938 57.0542 52.0634 56.9292 49.4555C56.8042 46.8474 58.8696 44.6456 61.5393 44.5518Z" fill="#E50A14"/>
<path d="M74.3455 38.5998L46.0274 34.4699C42.6991 33.9845 39.6064 36.2899 39.121 39.6182L34.9911 67.9363C34.5057 71.2647 36.8111 74.3574 40.1394 74.8428L68.4575 78.9727C71.7859 79.4581 74.8786 77.1526 75.364 73.8243L79.4939 45.5062C79.98 42.1729 77.6738 39.0852 74.3455 38.5998Z" fill="#E50A14"/>
<path d="M67.9755 43.6154C69.7503 43.8742 70.9807 45.5248 70.7219 47.2996C70.4631 49.0744 68.8125 50.3048 67.0377 50.046C65.2629 49.7871 64.0325 48.1366 64.2913 46.3618C64.5502 44.587 66.2007 43.3566 67.9755 43.6154Z" fill="#141414"/>
<path d="M46.5155 69.8228C48.2912 70.0818 49.9407 68.8522 50.1997 67.0765C50.4587 65.3007 49.2291 63.6512 47.4533 63.3923C45.6776 63.1333 44.0281 64.3629 43.7691 66.1386C43.5101 67.9144 44.7397 69.5638 46.5155 69.8228Z" fill="#141414"/>
<path d="M56.7716 59.9312C58.5473 60.1902 60.1968 58.9606 60.4558 57.1848C60.7148 55.4091 59.4852 53.7596 57.7094 53.5007C55.9337 53.2417 54.2842 54.4713 54.0252 56.247C53.7662 58.0228 54.9958 59.6722 56.7716 59.9312Z" fill="#141414"/>
</g>
<defs>
<clipPath id="clip0_1532_16155">
<rect width="80" height="80" fill="white"/>
</clipPath>
</defs>
</svg>
