<svg width="160" height="80" viewBox="0 0 160 80" fill="none" xmlns="http://www.w3.org/2000/svg">
<path d="M30 31.8151L31.2106 30.397C31.7214 30.8323 32.2957 31.1891 32.9141 31.4554C33.5111 31.7013 34.1528 31.8236 34.7996 31.8151C35.317 31.8424 35.8303 31.7093 36.2674 31.4342C36.4402 31.3165 36.5807 31.158 36.6761 30.9732C36.7715 30.7885 36.8187 30.5832 36.8137 30.3758C36.827 30.127 36.7553 29.8808 36.6101 29.6771C36.4136 29.4341 36.1547 29.2476 35.8602 29.1373C35.342 28.9209 34.8038 28.7543 34.2532 28.6399C33.6987 28.5232 33.1542 28.364 32.6248 28.1637C32.2086 28.0089 31.8157 27.7987 31.457 27.5391C31.1235 27.2973 30.861 26.9723 30.6964 26.5973C30.5284 26.1765 30.4482 25.7265 30.4607 25.2743C30.4462 24.8264 30.5352 24.3812 30.7208 23.9722C30.9065 23.5633 31.1838 23.2014 31.532 22.9141C32.3209 22.2847 33.3151 21.961 34.3282 22.0038C35.8285 21.9865 37.2877 22.4883 38.4529 23.4221L37.3815 24.9143C36.5072 24.2089 35.4241 23.8041 34.2961 23.7609C33.812 23.7321 33.3323 23.8663 32.9354 24.1417C32.7786 24.2522 32.6509 24.3983 32.5633 24.5678C32.4756 24.7373 32.4306 24.9253 32.432 25.1156C32.4193 25.3807 32.4986 25.642 32.6569 25.8565C32.8793 26.0948 33.1543 26.2795 33.4604 26.3963C34.0031 26.6061 34.562 26.7725 35.1317 26.8937C36.1375 27.0821 37.0865 27.4946 37.9065 28.1001C38.2077 28.3631 38.4443 28.6905 38.5984 29.0572C38.7525 29.424 38.8199 29.8205 38.7957 30.2169C38.8154 30.6846 38.7239 31.1504 38.5286 31.5769C38.3332 32.0033 38.0395 32.3785 37.6708 32.6725C36.8258 33.3042 35.7831 33.6227 34.7246 33.5722C32.982 33.5951 31.2948 32.9675 30 31.8151Z" fill="white"/>
<path d="M41.2603 33.4559V22.2053H43.2636V33.4559H41.2603Z" fill="white"/>
<path d="M46.3155 33.4559V22.2053H48.169L54.2649 29.9843V22.2053H56.2575V33.4559H54.5863L48.3082 25.4543V33.4559H46.3155Z" fill="white"/>
<path d="M58.6477 27.8251C58.6474 27.0631 58.7966 26.3085 59.087 25.6026C59.3699 24.9153 59.7764 24.2842 60.2869 23.7398C60.8206 23.2034 61.4582 22.7784 62.1617 22.4908C62.905 22.1709 63.708 22.0087 64.5187 22.0145C65.3459 21.9955 66.1698 22.1247 66.9506 22.3957C67.6601 22.6607 68.3166 23.0477 68.8897 23.5388L67.6148 25.0311C67.1816 24.6577 66.6941 24.3508 66.1685 24.1207C65.6157 23.9089 65.0257 23.8081 64.4329 23.8243C63.768 23.8191 63.1161 24.0068 62.5581 24.3641C61.9886 24.722 61.5292 25.2273 61.2297 25.8249C60.9071 26.4431 60.7416 27.1296 60.7476 27.8251C60.7359 28.5403 60.8976 29.2482 61.2189 29.8892C61.5225 30.4858 61.9953 30.9822 62.5796 31.3179C63.1922 31.6754 63.8929 31.8586 64.6043 31.8471C65.5948 31.8724 66.5662 31.5748 67.3684 31.0003V28.8835H64.4544V27.169H69.2968V31.8894C67.9889 33.0343 66.2982 33.6601 64.5508 33.6463C63.4653 33.6672 62.3935 33.4043 61.4439 32.8843C60.5616 32.3916 59.8432 31.6562 59.3762 30.7675C58.8888 29.8621 58.6384 28.8506 58.6477 27.8251V27.8251Z" fill="white"/>
<path d="M70.9155 33.4559L75.9186 22.1311H77.7828L82.7752 33.4559H80.6325L79.4862 30.7357H74.1295L72.9618 33.4559H70.9155ZM74.8688 28.9895H78.7577L76.7864 24.4913L74.8688 28.9895Z" fill="white"/>
<path d="M84.7232 33.4559V22.2053H89.2228C90.3706 22.1508 91.4965 22.5291 92.3726 23.2637C92.7625 23.6103 93.0702 24.0374 93.2739 24.5148C93.4776 24.9923 93.5722 25.5082 93.551 26.026C93.5685 26.7794 93.3475 27.5194 92.9189 28.1427C92.5105 28.7258 91.9417 29.1812 91.2798 29.4551C90.5528 29.7494 89.7726 29.8937 88.9871 29.8787H86.7159V33.4771L84.7232 33.4559ZM86.7159 28.058H89.0514C89.6932 28.0887 90.3248 27.8898 90.8298 27.4973C91.0482 27.3172 91.2217 27.0899 91.3369 26.8329C91.4521 26.576 91.5059 26.2961 91.4941 26.0154C91.5114 25.7334 91.4612 25.4514 91.3477 25.1921C91.2341 24.9328 91.0604 24.7037 90.8406 24.5231C90.3204 24.1569 89.689 23.9776 89.0514 24.0151H86.7159V28.058Z" fill="white"/>
<path d="M95.0833 27.8354C95.0767 27.066 95.2261 26.3032 95.5225 25.5917C95.8091 24.9045 96.2233 24.2763 96.7438 23.7395C97.2874 23.2051 97.9316 22.7806 98.6401 22.4904C99.3984 22.1704 100.215 22.0083 101.04 22.0142C101.863 22.0091 102.679 22.1677 103.44 22.4801C104.143 22.7572 104.781 23.1747 105.314 23.7064C105.847 24.2382 106.263 24.8727 106.536 25.5705C107.121 27.0178 107.121 28.632 106.536 30.0793C106.249 30.7691 105.831 31.3979 105.304 31.9315C104.764 32.4706 104.119 32.8954 103.408 33.1803C102.647 33.4908 101.831 33.649 101.008 33.6459C99.9306 33.6598 98.8691 33.3895 97.933 32.8627C97.0363 32.3641 96.2951 31.6319 95.7904 30.746C95.306 29.8517 95.0625 28.8494 95.0833 27.8354ZM97.2259 27.8354C97.2193 28.5356 97.3887 29.2267 97.7188 29.8465C98.0355 30.4463 98.5137 30.948 99.1008 31.2963C99.6969 31.6668 100.389 31.858 101.093 31.8467C101.785 31.8569 102.465 31.6761 103.057 31.3245C103.65 30.9729 104.131 30.4646 104.447 29.8571C104.764 29.231 104.928 28.5407 104.928 27.8408C104.928 27.1409 104.764 26.4505 104.447 25.8245C104.126 25.221 103.645 24.7157 103.054 24.3638C102.451 24.0108 101.762 23.8248 101.061 23.8248C100.36 23.8248 99.6719 24.0108 99.0687 24.3638C98.4877 24.713 98.0166 25.2152 97.708 25.8139C97.3613 26.433 97.1771 27.1279 97.1724 27.8354H97.2259Z" fill="white"/>
<path d="M109.386 33.4556V22.2049H114.475C115.596 22.1436 116.701 22.4899 117.582 23.1786C117.944 23.5092 118.229 23.9149 118.414 24.367C118.599 24.819 118.681 25.3059 118.653 25.7928C118.685 26.5877 118.422 27.367 117.914 27.9837C117.392 28.5799 116.696 29.0013 115.921 29.1902L118.996 33.4238H116.639L113.81 29.4972H111.336V33.4238L109.386 33.4556ZM111.389 27.7824H114.314C114.929 27.8155 115.537 27.6317 116.028 27.2638C116.235 27.0947 116.4 26.8808 116.51 26.6385C116.619 26.3962 116.671 26.1322 116.66 25.8669C116.675 25.6054 116.626 25.3442 116.518 25.1049C116.41 24.8657 116.245 24.6552 116.039 24.491C115.53 24.1452 114.919 23.9776 114.303 24.0148H111.389V27.7824Z" fill="white"/>
<path d="M121.138 33.4559V22.2053H129.569V23.9516H123.141V26.9151H128.851V28.672H123.141V31.6991H129.666V33.4559H121.138Z" fill="white"/>
<path d="M30 54.8142L32.0141 52.4646C32.8628 53.2085 33.8199 53.8221 34.8532 54.285C35.8431 54.6958 36.9079 54.9013 37.9815 54.8884C38.8446 54.9362 39.7005 54.7099 40.4241 54.2426C40.7138 54.0496 40.9493 53.7873 41.1085 53.4801C41.2677 53.1729 41.3456 52.8308 41.3347 52.4858C41.3527 52.0726 41.2363 51.6648 41.0026 51.3217C40.6611 50.9278 40.227 50.6225 39.7385 50.4326C38.8789 50.0713 37.9854 49.7948 37.0709 49.607C36.1502 49.4034 35.2446 49.1382 34.3603 48.8132C33.672 48.5482 33.0233 48.1922 32.432 47.7548C31.8735 47.3585 31.4332 46.8211 31.1571 46.199C30.8747 45.4957 30.7399 44.7431 30.7607 43.9868C30.7392 43.2408 30.8912 42.4999 31.2051 41.821C31.519 41.1421 31.9864 40.5433 32.5712 40.0708C33.8888 39.0272 35.5441 38.4897 37.2315 38.5574C39.726 38.517 42.1547 39.3492 44.0881 40.907L42.3096 43.3941C40.8559 42.219 39.0548 41.543 37.178 41.468C36.3739 41.4247 35.5782 41.6481 34.9175 42.1029C34.6565 42.2889 34.4445 42.534 34.2991 42.8176C34.1537 43.1012 34.0792 43.415 34.0818 43.7328C34.0646 44.172 34.1966 44.6043 34.4568 44.9607C34.8164 45.3633 35.2735 45.669 35.7852 45.8496C36.6881 46.2056 37.6199 46.4854 38.5707 46.6858C40.2459 47.0008 41.8277 47.6844 43.1989 48.6861C43.6923 49.1268 44.0794 49.6715 44.3316 50.2796C44.5838 50.8877 44.6946 51.5439 44.6559 52.2C44.6903 52.9776 44.5396 53.7522 44.2159 54.4618C43.8921 55.1713 43.4043 55.7961 42.7917 56.2855C41.3891 57.3392 39.6558 57.8712 37.8957 57.7884C34.9769 57.8243 32.1537 56.7609 30 54.8142V54.8142Z" fill="white"/>
<path d="M78.7573 57.5342V38.8324H92.7918V41.743H82.0784V46.6644H91.6134V49.6068H82.1213V54.6554H92.9632V57.5659L78.7573 57.5342Z" fill="white"/>
<path d="M96.8516 57.5342V38.8325H110.897V41.743H100.183V46.6645H109.675V49.6069H100.183V54.6554H111.025V57.566L96.8516 57.5342Z" fill="white"/>
<path d="M114.968 38.8324H118.707L114.968 42.5262V38.8324Z" fill="#3BA8FF"/>
<path d="M127.706 40.5471C126.237 39.3434 124.362 38.7313 122.456 38.8326H121.192L114.968 44.9817V57.5344H118.3V51.5651H122.071C123.377 51.5822 124.674 51.341 125.885 50.8558C126.988 50.3972 127.936 49.6374 128.617 48.6651C129.335 47.6283 129.709 46.3967 129.688 45.1406C129.72 44.278 129.559 43.4191 129.217 42.6251C128.874 41.8311 128.358 41.1214 127.706 40.5471V40.5471ZM125.135 47.6277C124.293 48.2849 123.238 48.6162 122.167 48.5592H118.3V41.8277H122.167C123.235 41.7662 124.292 42.073 125.156 42.6957C125.519 42.9961 125.806 43.3769 125.992 43.8073C126.178 44.2376 126.259 44.7054 126.228 45.1724C126.245 45.6367 126.156 46.099 125.967 46.5243C125.778 46.9497 125.493 47.3268 125.135 47.6277V47.6277Z" fill="white"/>
<path d="M70.8823 38.8324L66.3719 52.9512L63.0508 42.8544L61.4331 47.7758L64.9042 57.9998H67.7754L74.3748 38.8324H70.8823Z" fill="white"/>
<path d="M62.6871 38.7796H59.8695L55.22 52.9514L50.7096 38.8326H47.1206L53.7093 58H56.5805L62.6871 38.7796Z" fill="white"/>
</svg>
