<svg width="230" height="36" viewBox="0 0 230 36" fill="none" xmlns="http://www.w3.org/2000/svg">
<path d="M65 9.8151L66.2106 8.39702C66.7214 8.83232 67.2957 9.18912 67.9141 9.45541C68.5111 9.70134 69.1528 9.82364 69.7996 9.8151C70.317 9.84236 70.8303 9.70929 71.2674 9.43423C71.4402 9.31651 71.5807 9.15803 71.6761 8.97324C71.7715 8.78846 71.8187 8.5832 71.8137 8.37583C71.827 8.12702 71.7553 7.88084 71.6101 7.67712C71.4136 7.43406 71.1547 7.24762 70.8602 7.13733C70.342 6.92087 69.8038 6.75432 69.2532 6.63992C68.6987 6.52321 68.1542 6.36402 67.6248 6.16369C67.2086 6.00889 66.8157 5.79872 66.457 5.53914C66.1235 5.29726 65.861 4.9723 65.6964 4.59729C65.5284 4.17649 65.4482 3.72648 65.4607 3.27429C65.4462 2.82636 65.5352 2.38116 65.7208 1.97223C65.9065 1.5633 66.1838 1.20139 66.532 0.91409C67.3209 0.284711 68.3151 -0.0390175 69.3282 0.00375619C70.8285 -0.0135432 72.2877 0.488276 73.4529 1.4221L72.3815 2.91434C71.5072 2.20888 70.4241 1.80408 69.2961 1.76086C68.812 1.73208 68.3323 1.86627 67.9354 2.14174C67.7786 2.25219 67.6509 2.39835 67.5633 2.56783C67.4756 2.73732 67.4306 2.92532 67.432 3.11564C67.4193 3.38071 67.4986 3.64205 67.6569 3.85646C67.8793 4.0948 68.1543 4.27949 68.4604 4.39625C69.0031 4.60613 69.562 4.77245 70.1317 4.89367C71.1375 5.08207 72.0865 5.49462 72.9065 6.10012C73.2077 6.36307 73.4443 6.69045 73.5984 7.05723C73.7525 7.42401 73.8199 7.82053 73.7957 8.21692C73.8154 8.68457 73.7239 9.15044 73.5286 9.57686C73.3332 10.0033 73.0395 10.3785 72.6708 10.6725C71.8258 11.3042 70.7831 11.6227 69.7246 11.5722C67.982 11.5951 66.2948 10.9675 65 9.8151Z" fill="#014586"/>
<path d="M76.2598 11.4557V0.205078H78.2632V11.4557H76.2598Z" fill="#014586"/>
<path d="M81.3164 11.4557V0.205078H83.1699L89.2658 7.98413V0.205078H91.2584V11.4557H89.5871L83.3091 3.45417V11.4557H81.3164Z" fill="#014586"/>
<path d="M93.6487 5.82511C93.6483 5.06315 93.7975 4.3085 94.088 3.60263C94.3709 2.91527 94.7774 2.28417 95.2879 1.73985C95.8215 1.20335 96.4592 0.77841 97.1627 0.490752C97.906 0.170886 98.7089 0.00868395 99.5196 0.0145262C100.347 -0.00448629 101.171 0.124716 101.952 0.395662C102.661 0.660661 103.318 1.04774 103.891 1.53881L102.616 3.03106C102.183 2.65772 101.695 2.35076 101.169 2.12072C100.617 1.90886 100.027 1.80808 99.4339 1.82434C98.769 1.81905 98.1171 2.00675 97.5591 2.36413C96.9896 2.72203 96.5302 3.22729 96.2306 3.82485C95.908 4.44312 95.7426 5.12955 95.7485 5.82511C95.7369 6.54035 95.8985 7.24818 96.2199 7.88919C96.5234 8.48584 96.9962 8.98215 97.5805 9.31786C98.1931 9.67541 98.8939 9.85856 99.6053 9.84706C100.596 9.87241 101.567 9.5748 102.369 9.00029V6.8835H99.4554V5.16904H104.298V9.88944C102.99 11.0343 101.299 11.6601 99.5518 11.6463C98.4663 11.6672 97.3945 11.4043 96.4449 10.8843C95.5626 10.3916 94.8442 9.65616 94.3772 8.76748C93.8898 7.86205 93.6394 6.85056 93.6487 5.82511Z" fill="#014586"/>
<path d="M105.916 11.4556L110.919 0.130859H112.783L117.776 11.4556H115.633L114.487 8.73549H109.13L107.962 11.4556H105.916ZM109.869 6.98924H113.758L111.787 2.49106L109.869 6.98924Z" fill="#014586"/>
<path d="M119.723 11.456V0.205355H124.222C125.37 0.15089 126.496 0.529207 127.372 1.26375C127.762 1.61031 128.07 2.03744 128.273 2.51491C128.477 2.99238 128.572 3.5083 128.55 4.02602C128.568 4.77942 128.347 5.51942 127.918 6.14281C127.51 6.72585 126.941 7.18124 126.279 7.45521C125.552 7.74949 124.772 7.89373 123.987 7.87872H121.715V11.4772L119.723 11.456ZM121.715 6.05805H124.051C124.693 6.08879 125.324 5.88982 125.829 5.49733C126.048 5.31727 126.221 5.08994 126.336 4.83299C126.451 4.57604 126.505 4.2962 126.494 4.01542C126.511 3.73346 126.461 3.45143 126.347 3.19217C126.234 2.93291 126.06 2.70378 125.84 2.52318C125.32 2.15693 124.688 1.97766 124.051 2.01517H121.715V6.05805Z" fill="#014586"/>
<path d="M130.083 5.835C130.077 5.06561 130.226 4.30284 130.523 3.59134C130.809 2.90409 131.223 2.27588 131.744 1.73914C132.287 1.20468 132.932 0.780233 133.64 0.490051C134.398 0.170054 135.215 0.0079727 136.04 0.0138249C136.863 0.00876023 137.679 0.167319 138.44 0.479715C139.143 0.756833 139.781 1.17431 140.314 1.70607C140.847 2.23783 141.263 2.87237 141.536 3.57015C142.121 5.01743 142.121 6.63164 141.536 8.07892C141.249 8.76869 140.831 9.39753 140.304 9.93112C139.764 10.4702 139.119 10.8951 138.408 11.1799C137.647 11.4904 136.831 11.6487 136.008 11.6456C134.931 11.6595 133.869 11.3891 132.933 10.8624C132.036 10.3637 131.295 9.63155 130.79 8.74559C130.306 7.8513 130.063 6.84903 130.083 5.835ZM132.226 5.835C132.219 6.53527 132.389 7.22637 132.719 7.84611C133.035 8.44597 133.514 8.94762 134.101 9.29597C134.697 9.66643 135.389 9.85766 136.093 9.84636C136.785 9.85655 137.465 9.67575 138.057 9.32414C138.65 8.97253 139.131 8.46425 139.447 7.8567C139.764 7.23067 139.928 6.54034 139.928 5.84043C139.928 5.14051 139.764 4.45018 139.447 3.82415C139.126 3.22062 138.645 2.71529 138.054 2.36343C137.451 2.01045 136.762 1.82442 136.061 1.82442C135.36 1.82442 134.672 2.01045 134.069 2.36343C133.488 2.71266 133.017 3.21485 132.708 3.81356C132.361 4.4326 132.177 5.12752 132.172 5.835H132.226Z" fill="#014586"/>
<path d="M144.387 11.4558V0.205185H149.476C150.597 0.143884 151.702 0.490175 152.582 1.17883C152.945 1.5094 153.23 1.91519 153.415 2.3672C153.6 2.8192 153.682 3.30617 153.654 3.79303C153.686 4.58797 153.423 5.36727 152.915 5.98398C152.393 6.5801 151.696 7.00154 150.922 7.19044L153.997 11.424H151.64L148.811 7.49742H146.336V11.424L144.387 11.4558ZM146.39 5.78269H149.315C149.93 5.81576 150.538 5.63199 151.029 5.26409C151.236 5.09494 151.401 4.88108 151.51 4.63877C151.62 4.39645 151.672 4.13241 151.661 3.86719C151.675 3.6056 151.627 3.34443 151.519 3.10518C151.41 2.86593 151.246 2.65542 151.04 2.49123C150.531 2.14547 149.92 1.97785 149.304 2.015H146.39V5.78269Z" fill="#014586"/>
<path d="M156.137 11.4557V0.205078H164.568V1.95133H158.14V4.91489H163.85V6.67173H158.14V9.69885H164.665V11.4557H156.137Z" fill="#014586"/>
<path d="M65 32.8143L67.0141 30.4647C67.8628 31.2086 68.8199 31.8222 69.8532 32.2851C70.8431 32.6959 71.9079 32.9013 72.9815 32.8884C73.8446 32.9363 74.7005 32.7099 75.4241 32.2427C75.7138 32.0497 75.9493 31.7874 76.1085 31.4802C76.2677 31.1729 76.3456 30.8309 76.3347 30.4859C76.3527 30.0727 76.2363 29.6649 76.0026 29.3218C75.6611 28.9279 75.227 28.6225 74.7385 28.4326C73.8789 28.0714 72.9854 27.7949 72.0709 27.6071C71.1502 27.4035 70.2446 27.1383 69.3603 26.8133C68.672 26.5483 68.0233 26.1922 67.432 25.7549C66.8735 25.3585 66.4332 24.8212 66.1571 24.199C65.8747 23.4958 65.7399 22.7432 65.7607 21.9869C65.7392 21.2408 65.8912 20.4999 66.2051 19.821C66.519 19.1421 66.9864 18.5434 67.5712 18.0709C68.8888 17.0272 70.5441 16.4897 72.2315 16.5575C74.726 16.5171 77.1547 17.3493 79.0881 18.9071L77.3096 21.3941C75.8559 20.219 74.0548 19.5431 72.178 19.4681C71.3739 19.4247 70.5782 19.6481 69.9175 20.1029C69.6565 20.2889 69.4445 20.5341 69.2991 20.8177C69.1537 21.1012 69.0792 21.415 69.0818 21.7329C69.0646 22.172 69.1966 22.6044 69.4568 22.9608C69.8164 23.3634 70.2735 23.6691 70.7852 23.8497C71.6881 24.2057 72.6199 24.4854 73.5707 24.6859C75.2459 25.0009 76.8277 25.6845 78.1989 26.6861C78.6923 27.1268 79.0794 27.6715 79.3316 28.2797C79.5838 28.8878 79.6946 29.544 79.6559 30.2001C79.6903 30.9776 79.5396 31.7523 79.2159 32.4618C78.8921 33.1714 78.4043 33.7962 77.7917 34.2856C76.3891 35.3392 74.6558 35.8712 72.8957 35.7884C69.9769 35.8244 67.1537 34.7609 65 32.8143Z" fill="#014586"/>
<path d="M113.758 35.5338V16.832H127.792V19.7426H117.079V24.6641H126.614V27.6064H117.122V32.655H127.964V35.5656L113.758 35.5338Z" fill="#014586"/>
<path d="M131.852 35.5338V16.832H145.897V19.7426H135.183V24.6641H144.675V27.6064H135.183V32.655H146.025V35.5656L131.852 35.5338Z" fill="#014586"/>
<path d="M149.969 16.832H153.708L149.969 20.5258V16.832Z" fill="#0089D0"/>
<path d="M162.707 18.5476C161.238 17.3439 159.363 16.7318 157.457 16.8331H156.193L149.969 22.9822V35.5349H153.301V29.5656H157.072C158.378 29.5827 159.675 29.3414 160.886 28.8563C161.989 28.3977 162.936 27.6379 163.618 26.6656C164.336 25.6288 164.71 24.3972 164.689 23.1411C164.721 22.2785 164.56 21.4196 164.218 20.6256C163.875 19.8316 163.359 19.1219 162.707 18.5476ZM160.136 25.6282C159.294 26.2853 158.239 26.6167 157.168 26.5597H153.301V19.8282H157.168C158.236 19.7667 159.293 20.0735 160.157 20.6961C160.52 20.9966 160.807 21.3774 160.993 21.8078C161.179 22.2381 161.26 22.7059 161.228 23.1729C161.246 23.6372 161.157 24.0995 160.968 24.5248C160.779 24.9502 160.494 25.3273 160.136 25.6282Z" fill="#014586"/>
<path d="M105.883 16.832L101.372 30.9509L98.0513 20.854L96.4336 25.7754L99.9047 35.9994H102.776L109.375 16.832H105.883Z" fill="#014586"/>
<path d="M97.6876 16.7793H94.87L90.2205 30.9511L85.7101 16.8323H82.1211L88.7098 35.9997H91.581L97.6876 16.7793Z" fill="#014586"/>
</svg>
