<svg width="40" height="40" viewBox="0 0 40 40" fill="none" xmlns="http://www.w3.org/2000/svg">
<path d="M3.19922 5.42896H15.9991V34.5714H3.19922V5.42896Z" fill="#E50A14"/>
<path d="M38.4002 36.2858H24V37.9999H39.9997V2H24V3.7144H38.4002V36.2858Z" fill="#141414"/>
<path d="M24 5.42896H36.7999V34.5714H24V5.42896Z" fill="#E50A14"/>
<path d="M1.59945 3.7144H15.9997V2H0V37.9999H15.9997V36.2858H1.59945V3.7144Z" fill="#141414"/>
<path d="M19 0H21V6H19V0Z" fill="#141414"/>
<path d="M19 8H21V14H19V8Z" fill="#E50A14"/>
<path d="M19 16H21V22H19V16Z" fill="#141414"/>
<path d="M19 24H21V30H19V24Z" fill="#E50A14"/>
<path d="M19 32H21V38H19V32Z" fill="#141414"/>
</svg>
