<svg width="80" height="80" viewBox="0 0 80 80" fill="none" xmlns="http://www.w3.org/2000/svg">
<path d="M0 12C0 9.79086 1.79086 8 4 8H76C78.2091 8 80 9.79086 80 12V68C80 70.2091 78.2091 72 76 72H4C1.79086 72 0 70.2091 0 68V12Z" fill="#E50A14"/>
<path d="M4 28C4 25.7909 5.79086 24 8 24H32C34.2091 24 36 25.7909 36 28V60C36 62.2091 34.2091 64 32 64H8C5.79086 64 4 62.2091 4 60V28Z" fill="#141414"/>
<path d="M44 28C44 25.7909 45.7909 24 48 24H72C74.2091 24 76 25.7909 76 28V60C76 62.2091 74.2091 64 72 64H48C45.7909 64 44 62.2091 44 60V28Z" fill="#141414"/>
<path d="M32 14C32 12.8954 32.8954 12 34 12H46C47.1046 12 48 12.8954 48 14C48 15.1046 47.1046 16 46 16H34C32.8954 16 32 15.1046 32 14Z" fill="#141414"/>
<path d="M13.0143 49.252C13.3983 49.252 13.7543 49.18 14.0823 49.036C14.4183 48.892 14.7063 48.696 14.9463 48.448C15.1863 48.192 15.3743 47.896 15.5103 47.56C15.6543 47.216 15.7263 46.844 15.7263 46.444C15.7263 45.996 15.6583 45.596 15.5223 45.244C15.3943 44.892 15.2103 44.596 14.9703 44.356C14.7303 44.116 14.4383 43.932 14.0943 43.804C13.7583 43.676 13.3823 43.612 12.9663 43.612C12.5903 43.612 12.2463 43.68 11.9343 43.816C11.6223 43.944 11.3503 44.132 11.1183 44.38C10.8943 44.628 10.7183 44.924 10.5903 45.268C10.4623 45.612 10.3983 46 10.3983 46.432C10.3983 46.864 10.4503 47.252 10.5543 47.596C10.6583 47.94 10.8183 48.236 11.0343 48.484C11.2503 48.732 11.5223 48.924 11.8503 49.06C12.1783 49.188 12.5663 49.252 13.0143 49.252ZM12.4143 41.236C12.9743 41.028 13.5983 40.924 14.2863 40.924C14.9183 40.924 15.5423 41.028 16.1583 41.236C16.7743 41.444 17.3263 41.764 17.8143 42.196C18.3023 42.628 18.6943 43.176 18.9903 43.84C19.2943 44.496 19.4463 45.272 19.4463 46.168C19.4463 46.984 19.2943 47.76 18.9903 48.496C18.6863 49.224 18.2543 49.864 17.6943 50.416C17.1423 50.96 16.4743 51.392 15.6903 51.712C14.9063 52.032 14.0383 52.192 13.0863 52.192C12.1103 52.192 11.2343 52.04 10.4583 51.736C9.68227 51.424 9.02227 50.992 8.47827 50.44C7.94227 49.888 7.53027 49.228 7.24227 48.46C6.96227 47.692 6.82227 46.848 6.82227 45.928C6.82227 44.208 7.48627 42.46 8.81427 40.684L12.7503 35.368C12.9343 35.136 13.1983 34.936 13.5423 34.768C13.8943 34.6 14.2943 34.516 14.7423 34.516H18.0543L12.8703 40.708L12.4143 41.236Z" fill="white"/>
<path d="M26.9601 49.384C27.3761 49.384 27.7361 49.32 28.0401 49.192C28.3441 49.064 28.5921 48.892 28.7841 48.676C28.9841 48.452 29.1281 48.192 29.2161 47.896C29.3121 47.592 29.3601 47.268 29.3601 46.924C29.3601 46.548 29.3201 46.204 29.2401 45.892C29.1601 45.58 29.0281 45.316 28.8441 45.1C28.6601 44.876 28.4121 44.704 28.1001 44.584C27.7961 44.456 27.4161 44.392 26.9601 44.392C26.5041 44.392 26.1201 44.456 25.8081 44.584C25.5041 44.704 25.2601 44.876 25.0761 45.1C24.8921 45.316 24.7601 45.58 24.6801 45.892C24.6001 46.204 24.5601 46.548 24.5601 46.924C24.5601 47.268 24.6041 47.592 24.6921 47.896C24.7881 48.192 24.9321 48.452 25.1241 48.676C25.3241 48.892 25.5721 49.064 25.8681 49.192C26.1721 49.32 26.5361 49.384 26.9601 49.384ZM26.9601 37.036C26.5841 37.036 26.2681 37.096 26.0121 37.216C25.7561 37.336 25.5441 37.496 25.3761 37.696C25.2161 37.888 25.1001 38.112 25.0281 38.368C24.9561 38.624 24.9201 38.888 24.9201 39.16C24.9201 39.464 24.9481 39.76 25.0041 40.048C25.0601 40.336 25.1641 40.592 25.3161 40.816C25.4681 41.04 25.6761 41.22 25.9401 41.356C26.2041 41.492 26.5441 41.56 26.9601 41.56C27.3761 41.56 27.7161 41.492 27.9801 41.356C28.2441 41.22 28.4521 41.04 28.6041 40.816C28.7561 40.592 28.8601 40.336 28.9161 40.048C28.9721 39.76 29.0001 39.464 29.0001 39.16C29.0001 38.888 28.9641 38.624 28.8921 38.368C28.8201 38.112 28.7001 37.888 28.5321 37.696C28.3721 37.496 28.1601 37.336 27.8961 37.216C27.6401 37.096 27.3281 37.036 26.9601 37.036ZM30.2601 42.88C30.7801 43.064 31.2241 43.292 31.5921 43.564C31.9681 43.836 32.2721 44.148 32.5041 44.5C32.7441 44.852 32.9201 45.24 33.0321 45.664C33.1441 46.08 33.2001 46.524 33.2001 46.996C33.2001 47.78 33.0481 48.492 32.7441 49.132C32.4481 49.772 32.0241 50.32 31.4721 50.776C30.9281 51.224 30.2721 51.572 29.5041 51.82C28.7361 52.068 27.8881 52.192 26.9601 52.192C26.0321 52.192 25.1841 52.068 24.4161 51.82C23.6481 51.572 22.9881 51.224 22.4361 50.776C21.8921 50.32 21.4681 49.772 21.1641 49.132C20.8681 48.492 20.7201 47.78 20.7201 46.996C20.7201 46.524 20.7761 46.08 20.8881 45.664C21.0001 45.24 21.1721 44.852 21.4041 44.5C21.6441 44.148 21.9481 43.836 22.3161 43.564C22.6921 43.292 23.1401 43.064 23.6601 42.88C22.8681 42.52 22.2761 42.024 21.8841 41.392C21.4921 40.752 21.2961 39.984 21.2961 39.088C21.2961 38.408 21.4361 37.78 21.7161 37.204C21.9961 36.62 22.3881 36.116 22.8921 35.692C23.3961 35.268 23.9921 34.936 24.6801 34.696C25.3761 34.448 26.1361 34.324 26.9601 34.324C27.7841 34.324 28.5401 34.448 29.2281 34.696C29.9241 34.936 30.5241 35.268 31.0281 35.692C31.5321 36.116 31.9241 36.62 32.2041 37.204C32.4841 37.78 32.6241 38.408 32.6241 39.088C32.6241 39.984 32.4281 40.752 32.0361 41.392C31.6441 42.024 31.0521 42.52 30.2601 42.88Z" fill="white"/>
<path d="M53.0388 49.384C53.4548 49.384 53.8148 49.32 54.1188 49.192C54.4228 49.064 54.6708 48.892 54.8628 48.676C55.0628 48.452 55.2068 48.192 55.2948 47.896C55.3908 47.592 55.4388 47.268 55.4388 46.924C55.4388 46.548 55.3988 46.204 55.3188 45.892C55.2388 45.58 55.1068 45.316 54.9228 45.1C54.7388 44.876 54.4908 44.704 54.1788 44.584C53.8748 44.456 53.4948 44.392 53.0388 44.392C52.5828 44.392 52.1988 44.456 51.8868 44.584C51.5828 44.704 51.3388 44.876 51.1548 45.1C50.9708 45.316 50.8388 45.58 50.7588 45.892C50.6788 46.204 50.6388 46.548 50.6388 46.924C50.6388 47.268 50.6828 47.592 50.7708 47.896C50.8668 48.192 51.0108 48.452 51.2028 48.676C51.4028 48.892 51.6508 49.064 51.9468 49.192C52.2508 49.32 52.6148 49.384 53.0388 49.384ZM53.0388 37.036C52.6628 37.036 52.3468 37.096 52.0908 37.216C51.8348 37.336 51.6228 37.496 51.4548 37.696C51.2948 37.888 51.1788 38.112 51.1068 38.368C51.0348 38.624 50.9988 38.888 50.9988 39.16C50.9988 39.464 51.0268 39.76 51.0828 40.048C51.1388 40.336 51.2428 40.592 51.3948 40.816C51.5468 41.04 51.7548 41.22 52.0188 41.356C52.2828 41.492 52.6228 41.56 53.0388 41.56C53.4548 41.56 53.7948 41.492 54.0588 41.356C54.3228 41.22 54.5308 41.04 54.6828 40.816C54.8348 40.592 54.9388 40.336 54.9948 40.048C55.0508 39.76 55.0788 39.464 55.0788 39.16C55.0788 38.888 55.0428 38.624 54.9708 38.368C54.8988 38.112 54.7788 37.888 54.6108 37.696C54.4508 37.496 54.2388 37.336 53.9748 37.216C53.7188 37.096 53.4068 37.036 53.0388 37.036ZM56.3388 42.88C56.8588 43.064 57.3028 43.292 57.6708 43.564C58.0468 43.836 58.3508 44.148 58.5828 44.5C58.8228 44.852 58.9988 45.24 59.1108 45.664C59.2228 46.08 59.2788 46.524 59.2788 46.996C59.2788 47.78 59.1268 48.492 58.8228 49.132C58.5268 49.772 58.1028 50.32 57.5508 50.776C57.0068 51.224 56.3508 51.572 55.5828 51.82C54.8148 52.068 53.9668 52.192 53.0388 52.192C52.1108 52.192 51.2628 52.068 50.4948 51.82C49.7268 51.572 49.0668 51.224 48.5148 50.776C47.9708 50.32 47.5468 49.772 47.2428 49.132C46.9468 48.492 46.7988 47.78 46.7988 46.996C46.7988 46.524 46.8548 46.08 46.9668 45.664C47.0788 45.24 47.2508 44.852 47.4828 44.5C47.7228 44.148 48.0268 43.836 48.3948 43.564C48.7708 43.292 49.2188 43.064 49.7388 42.88C48.9468 42.52 48.3548 42.024 47.9628 41.392C47.5708 40.752 47.3748 39.984 47.3748 39.088C47.3748 38.408 47.5148 37.78 47.7948 37.204C48.0748 36.62 48.4668 36.116 48.9708 35.692C49.4748 35.268 50.0708 34.936 50.7588 34.696C51.4548 34.448 52.2148 34.324 53.0388 34.324C53.8628 34.324 54.6188 34.448 55.3068 34.696C56.0028 34.936 56.6028 35.268 57.1068 35.692C57.6108 36.116 58.0028 36.62 58.2828 37.204C58.5628 37.78 58.7028 38.408 58.7028 39.088C58.7028 39.984 58.5068 40.752 58.1148 41.392C57.7228 42.024 57.1308 42.52 56.3388 42.88Z" fill="white"/>
<path d="M71.7127 48.64C72.1127 48.64 72.4287 48.752 72.6607 48.976C72.8927 49.192 73.0087 49.48 73.0087 49.84V52H60.7207V50.8C60.7207 50.568 60.7687 50.32 60.8647 50.056C60.9607 49.792 61.1287 49.552 61.3687 49.336L66.4087 44.26C66.8407 43.828 67.2167 43.416 67.5367 43.024C67.8567 42.632 68.1207 42.248 68.3287 41.872C68.5367 41.488 68.6927 41.108 68.7967 40.732C68.9007 40.348 68.9527 39.944 68.9527 39.52C68.9527 38.824 68.7847 38.292 68.4487 37.924C68.1207 37.548 67.6167 37.36 66.9367 37.36C66.3847 37.36 65.9167 37.508 65.5327 37.804C65.1567 38.092 64.8967 38.452 64.7527 38.884C64.5847 39.324 64.3647 39.616 64.0927 39.76C63.8207 39.904 63.4327 39.936 62.9287 39.856L60.9607 39.508C61.0887 38.636 61.3327 37.876 61.6927 37.228C62.0607 36.58 62.5127 36.04 63.0487 35.608C63.5927 35.176 64.2127 34.856 64.9087 34.648C65.6047 34.432 66.3527 34.324 67.1527 34.324C68.0167 34.324 68.7927 34.452 69.4807 34.708C70.1767 34.956 70.7687 35.304 71.2567 35.752C71.7447 36.2 72.1167 36.736 72.3727 37.36C72.6367 37.976 72.7687 38.656 72.7687 39.4C72.7687 40.04 72.6767 40.632 72.4927 41.176C72.3167 41.72 72.0727 42.24 71.7607 42.736C71.4487 43.224 71.0847 43.7 70.6687 44.164C70.2607 44.62 69.8247 45.084 69.3607 45.556L65.9407 49.06C66.3807 48.924 66.8167 48.82 67.2487 48.748C67.6807 48.676 68.0807 48.64 68.4487 48.64H71.7127Z" fill="white"/>
</svg>
