<svg width="50" height="50" viewBox="0 0 50 50" fill="none" xmlns="http://www.w3.org/2000/svg">
<path fill-rule="evenodd" clip-rule="evenodd" d="M36.3583 24.9952V27.6923C35.6378 27.4294 34.8783 27.2736 34.0798 27.2736H29.5521C25.813 27.2736 22.7264 30.3408 22.7264 34.0799V43.1743C22.7264 46.9134 25.8228 50 29.5521 50H34.0798C37.8189 50 40.9056 46.9134 40.9056 43.1743V34.0799C40.9056 34.0604 40.9056 34.0507 40.9056 34.0312V24.9952V9.09448H18.1792H15.9104C7.13729 9.09448 0.00973695 16.222 0.00973695 24.9952V33.9922C0.00973695 34.0215 0 34.0507 0 34.0799V43.1743C0 46.9134 3.0964 50 6.8257 50H11.3632C15.1022 50 18.1694 46.9134 18.1694 43.1743V34.0799C18.1694 30.3408 15.1022 27.2736 11.3632 27.2736H6.81597C6.01753 27.2736 5.25803 27.4392 4.53749 27.6923V24.9952C4.53749 18.666 9.56183 13.632 15.9007 13.632H18.1792H36.3583" fill="#F5F3F4"/>
<path fill-rule="evenodd" clip-rule="evenodd" d="M43.1651 0H25.0054C21.2664 0 18.1797 3.08666 18.1797 6.82571V9.09445V13.6417V24.9951C18.17 26.6894 19.9519 27.7994 21.4709 27.0399L30.0979 22.7264H36.096H40.7211H43.0483C46.9236 22.9309 49.9908 19.6592 49.9908 15.9202V6.82571C49.9908 3.08666 46.9042 0 43.1651 0Z" fill="#141414"/>
</svg>
