<svg width="80" height="80" viewBox="0 0 80 80" fill="none" xmlns="http://www.w3.org/2000/svg">
<path d="M28.3111 52.6453C28.8225 52.6422 29.3138 52.4459 29.6866 52.0958L36.0073 45.8656L38.4915 48.3383C38.8438 48.6905 39.3215 48.8884 39.8196 48.8884C40.3178 48.8884 40.7955 48.6905 41.1478 48.3383L48.0199 41.4658L50.2196 43.6657C50.3693 43.823 50.5618 43.9328 50.7733 43.9817C50.9848 44.0305 51.206 44.0162 51.4095 43.9404C51.868 43.8495 52.1427 43.4819 52.2356 43.0252L53.884 34.3185C53.9317 34.1412 53.9314 33.9544 53.8831 33.7772C53.8348 33.6001 53.7403 33.439 53.6092 33.3104C53.4742 33.1851 53.3154 33.088 53.1423 33.0249C52.9692 32.9618 52.7853 32.9338 52.6013 32.9428L43.8951 34.5932C43.4366 34.6841 43.1618 34.9589 42.978 35.4175C42.93 35.6237 42.9299 35.8383 42.9779 36.0446C43.0259 36.2509 43.1206 36.4435 43.2547 36.6074L45.4525 38.8073L39.9483 44.308L37.4738 41.8334C36.7406 41.1001 35.4598 41.1001 34.8175 41.8334L27.2121 49.4392C26.86 49.7916 26.6621 50.2693 26.6621 50.7675C26.6621 51.2657 26.86 51.7435 27.2121 52.0958C27.3031 52.4615 27.7616 52.6453 28.3111 52.6453Z" fill="#E50A14"/>
<path d="M27.4856 61.3499H31.8832C32.0291 61.3556 32.1745 61.3311 32.3104 61.2779C32.4463 61.2247 32.5698 61.144 32.673 61.0407C32.7762 60.9375 32.8569 60.8141 32.9101 60.6782C32.9633 60.5422 32.9878 60.3968 32.9821 60.2509V53.3784L31.8832 54.4774C30.9681 55.4854 29.6835 55.944 28.3098 55.944C27.7859 55.934 27.2642 55.8725 26.7524 55.7602L26.3867 55.6693V60.3419C26.41 60.6171 26.536 60.8736 26.7395 61.0603C26.9431 61.247 27.2094 61.3504 27.4856 61.3499V61.3499Z" fill="#E50A14"/>
<path d="M48.1026 46.2312L47.9188 46.0474L47.0946 46.8735V60.2511C47.0888 60.3971 47.1134 60.5427 47.1667 60.6788C47.22 60.8149 47.301 60.9384 47.4044 61.0416C47.5078 61.1449 47.6315 61.2256 47.7676 61.2787C47.9038 61.3318 48.0494 61.3561 48.1954 61.3501H52.593C52.7389 61.3558 52.8843 61.3313 53.0202 61.2781C53.1562 61.2249 53.2796 61.1441 53.3828 61.0409C53.486 60.9377 53.5668 60.8142 53.62 60.6783C53.6732 60.5424 53.6977 60.3969 53.692 60.2511V46.2312L53.2334 46.5059C52.4567 47.0019 51.5441 47.2421 50.6239 47.1928C49.7036 47.1435 48.8219 46.8072 48.1026 46.2312V46.2312Z" fill="#E50A14"/>
<path d="M37.1977 51.4553L36.7489 51.1806V60.2511C36.7431 60.3971 36.7677 60.5428 36.821 60.6788C36.8743 60.8149 36.9553 60.9384 37.0587 61.0417C37.1621 61.1449 37.2858 61.2256 37.4219 61.2787C37.558 61.3318 37.7037 61.3561 37.8497 61.3501H42.2472C42.3931 61.3558 42.5385 61.3313 42.6744 61.2781C42.8104 61.2249 42.9338 61.1441 43.037 61.0409C43.1402 60.9377 43.2209 60.8143 43.2741 60.6783C43.3274 60.5424 43.3519 60.397 43.3462 60.2511V50.6311L42.8876 50.9968C41.9786 51.7236 40.8456 52.1127 39.6818 52.0977C38.8139 52.1128 37.9584 51.8907 37.2074 51.4553H37.1977Z" fill="#E50A14"/>
<path d="M19.0571 17.1428C13.8489 21.0416 9.82115 26.3059 7.41983 32.3526C7.28522 32.6829 7.21894 33.037 7.22499 33.3936C7.23104 33.7502 7.3093 34.1018 7.45505 34.4273C7.60079 34.7528 7.81099 35.0454 8.07295 35.2874C8.33491 35.5294 8.64321 35.7158 8.9792 35.8353C9.30577 35.9399 9.64467 36.001 9.98718 36.0172C10.531 36.0281 11.0642 35.8651 11.5089 35.5519C11.9536 35.2387 12.2868 34.7916 12.4597 34.2758C14.4695 29.1705 17.8647 24.7277 22.2629 21.4478C23.4546 20.5307 23.7294 18.8822 22.8123 17.6903C22.6048 17.4038 22.342 17.1618 22.0395 16.9785C21.7369 16.7952 21.4007 16.6743 21.0506 16.6231C20.7006 16.5719 20.3439 16.5913 20.0015 16.6802C19.6591 16.7692 19.3379 16.9258 19.0571 17.1409V17.1428Z" fill="#141414"/>
<path d="M52.6835 71.8466C48.7288 73.7123 44.4109 74.6816 40.0383 74.685C35.6634 74.7059 31.3407 73.7347 27.395 71.8447C26.7539 71.5604 26.027 71.5382 25.3697 71.7829C24.7124 72.0275 24.177 72.5196 23.8777 73.154C23.5785 73.7883 23.5394 74.5146 23.7686 75.1774C23.9978 75.8403 24.4772 76.3872 25.1043 76.7011C29.7834 78.8742 34.8803 80 40.0393 80C45.1983 80 50.2952 78.8742 54.9742 76.7011C55.2959 76.5553 55.585 76.3465 55.8245 76.0869C56.064 75.8274 56.249 75.5225 56.3686 75.1902C56.4882 74.8579 56.5399 74.505 56.5207 74.1524C56.5016 73.7997 56.4119 73.4545 56.257 73.1372C55.6166 71.8544 53.9663 71.2023 52.6835 71.8544V71.8466Z" fill="#141414"/>
<path d="M67.6181 34.2777C67.8134 34.7789 68.1521 35.2114 68.5919 35.5212C69.0317 35.8309 69.553 36.0041 70.0907 36.0191C70.4343 35.999 70.7738 35.9339 71.1006 35.8256C71.767 35.5679 72.3047 35.0573 72.5964 34.405C72.8881 33.7526 72.9102 33.0115 72.658 32.3429C70.2567 26.2961 66.229 21.0319 61.0208 17.133C59.8309 16.2179 58.1806 16.4926 57.2636 17.6826C57.05 17.9642 56.8947 18.2856 56.8066 18.6279C56.7185 18.9703 56.6995 19.3267 56.7507 19.6765C56.8018 20.0262 56.9221 20.3623 57.1045 20.6651C57.2869 20.9679 57.5278 21.2313 57.813 21.44C62.1926 24.7392 65.5839 29.176 67.6181 34.2681V34.2777Z" fill="#141414"/>
<path d="M51.6749 26.9505C51.6749 21.6355 49.8427 16.9628 46.1784 14.581C46.0939 14.5356 45.9995 14.5119 45.9036 14.5119C45.8078 14.5119 45.7134 14.5356 45.6289 14.581C44 15.7549 42.0473 16.395 40.0396 16.4133C38.0249 16.4387 36.0589 15.7942 34.4502 14.581C34.2684 14.4882 34.0846 14.3972 33.9008 14.581C30.2365 16.9628 28.4043 21.6355 28.4043 26.9505C28.4043 30.6151 51.6749 30.6151 51.6749 26.9505V26.9505Z" fill="#E50A14"/>
<path d="M47.0041 6.96544C47.0041 8.34308 46.5956 9.68978 45.8303 10.8352C45.065 11.9807 43.9772 12.8735 42.7045 13.4007C41.4319 13.9279 40.0314 14.0658 38.6804 13.797C37.3293 13.5283 36.0883 12.8649 35.1142 11.8908C34.1401 10.9166 33.4768 9.6755 33.2081 8.32434C32.9393 6.97317 33.0772 5.57265 33.6044 4.29989C34.1316 3.02712 35.0243 1.93926 36.1697 1.17389C37.315 0.408516 38.6616 0 40.0392 0C41.8864 0 43.658 0.733858 44.9641 2.04013C46.2703 3.34641 47.0041 5.11809 47.0041 6.96544" fill="#E50A14"/>
<path d="M17.7741 54.4368C17.6897 54.3914 17.5953 54.3677 17.4994 54.3677C17.4035 54.3677 17.3091 54.3914 17.2247 54.4368C15.5957 55.6107 13.643 56.2508 11.6353 56.2691C9.62118 56.295 7.65562 55.6504 6.04788 54.4368C5.86408 54.3459 5.68029 54.2433 5.49842 54.4368C1.8341 56.8186 0 61.4932 0 66.8063C0 70.4709 23.2725 70.4709 23.2725 66.8063C23.3635 61.4932 21.5313 56.8186 17.7741 54.4368V54.4368Z" fill="#E50A14"/>
<path d="M18.5978 46.8233C18.5978 48.201 18.1893 49.5477 17.424 50.6931C16.6587 51.8386 15.5709 52.7314 14.2983 53.2586C13.0256 53.7858 11.6252 53.9237 10.2741 53.6549C8.92305 53.3862 7.68201 52.7228 6.70795 51.7486C5.73389 50.7745 5.07054 49.5334 4.8018 48.1822C4.53306 46.8311 4.67099 45.4305 5.19814 44.1578C5.7253 42.885 6.61802 41.7972 7.76339 41.0318C8.90877 40.2664 10.2554 39.8579 11.6329 39.8579C13.4801 39.8579 15.2517 40.5918 16.5578 41.898C17.864 43.2043 18.5978 44.976 18.5978 46.8233Z" fill="#E50A14"/>
<path d="M74.4909 54.4368C74.4065 54.3914 74.3121 54.3677 74.2162 54.3677C74.1203 54.3677 74.0259 54.3914 73.9415 54.4368C72.3125 55.6107 70.3598 56.2508 68.3521 56.2691C66.338 56.295 64.3724 55.6504 62.7647 54.4368C62.5809 54.3459 62.3971 54.2433 62.2152 54.4368C58.5509 56.8186 56.7168 61.4932 56.7168 66.8063C56.7168 70.4709 79.9894 70.4709 79.9894 66.8063C80.0803 61.4932 78.2481 56.8186 74.4909 54.4368V54.4368Z" fill="#E50A14"/>
<path d="M75.4045 46.8233C75.4045 48.201 74.996 49.5477 74.2307 50.6931C73.4654 51.8386 72.3776 52.7314 71.1049 53.2586C69.8322 53.7858 68.4318 53.9237 67.0807 53.6549C65.7297 53.3862 64.4887 52.7228 63.5146 51.7486C62.5405 50.7745 61.8772 49.5334 61.6084 48.1822C61.3397 46.8311 61.4776 45.4305 62.0048 44.1578C62.5319 42.885 63.4247 41.7972 64.57 41.0318C65.7154 40.2664 67.062 39.8579 68.4395 39.8579C70.2868 39.8579 72.0583 40.5918 73.3645 41.898C74.6707 43.2043 75.4045 44.976 75.4045 46.8233Z" fill="#E50A14"/>
</svg>
