<svg width="320" height="36" viewBox="0 0 320 36" fill="none" xmlns="http://www.w3.org/2000/svg">
<path d="M110 9.8151L111.211 8.39702C111.721 8.83232 112.296 9.18912 112.914 9.45541C113.511 9.70134 114.153 9.82364 114.8 9.8151C115.317 9.84236 115.83 9.70929 116.267 9.43423C116.44 9.31651 116.581 9.15803 116.676 8.97324C116.771 8.78846 116.819 8.5832 116.814 8.37583C116.827 8.12702 116.755 7.88084 116.61 7.67712C116.414 7.43406 116.155 7.24762 115.86 7.13733C115.342 6.92087 114.804 6.75432 114.253 6.63992C113.699 6.52321 113.154 6.36402 112.625 6.16369C112.209 6.00889 111.816 5.79872 111.457 5.53914C111.123 5.29726 110.861 4.9723 110.696 4.59729C110.528 4.17649 110.448 3.72648 110.461 3.27429C110.446 2.82636 110.535 2.38116 110.721 1.97223C110.906 1.5633 111.184 1.20139 111.532 0.91409C112.321 0.284711 113.315 -0.0390175 114.328 0.00375619C115.829 -0.0135432 117.288 0.488276 118.453 1.4221L117.382 2.91434C116.507 2.20888 115.424 1.80408 114.296 1.76086C113.812 1.73208 113.332 1.86627 112.935 2.14174C112.779 2.25219 112.651 2.39835 112.563 2.56783C112.476 2.73732 112.431 2.92532 112.432 3.11564C112.419 3.38071 112.499 3.64205 112.657 3.85646C112.879 4.0948 113.154 4.27949 113.46 4.39625C114.003 4.60613 114.562 4.77245 115.132 4.89367C116.138 5.08207 117.087 5.49462 117.906 6.10012C118.208 6.36307 118.444 6.69045 118.598 7.05723C118.752 7.424 118.82 7.82053 118.796 8.21692C118.815 8.68457 118.724 9.15044 118.529 9.57686C118.333 10.0033 118.039 10.3785 117.671 10.6725C116.826 11.3042 115.783 11.6227 114.725 11.5722C112.982 11.5951 111.295 10.9675 110 9.8151Z" fill="#014586"/>
<path d="M121.26 11.4557V0.205078H123.264V11.4557H121.26Z" fill="#014586"/>
<path d="M126.315 11.4557V0.205078H128.169L134.265 7.98413V0.205078H136.257V11.4557H134.586L128.308 3.45417V11.4557H126.315Z" fill="#014586"/>
<path d="M138.648 5.82511C138.647 5.06315 138.797 4.3085 139.087 3.60263C139.37 2.91527 139.776 2.28417 140.287 1.73985C140.821 1.20335 141.458 0.77841 142.162 0.490752C142.905 0.170886 143.708 0.00868395 144.519 0.0145262C145.346 -0.00448629 146.17 0.124716 146.951 0.395662C147.66 0.660661 148.317 1.04774 148.89 1.53881L147.615 3.03106C147.182 2.65772 146.694 2.35076 146.169 2.12072C145.616 1.90886 145.026 1.80808 144.433 1.82434C143.768 1.81905 143.116 2.00675 142.558 2.36413C141.989 2.72203 141.529 3.22729 141.23 3.82485C140.907 4.44312 140.742 5.12955 140.748 5.82511C140.736 6.54035 140.898 7.24818 141.219 7.88919C141.522 8.48584 141.995 8.98215 142.58 9.31786C143.192 9.67541 143.893 9.85856 144.604 9.84706C145.595 9.87241 146.566 9.5748 147.368 9.00029V6.8835H144.454V5.16904H149.297V9.88944C147.989 11.0343 146.298 11.6601 144.551 11.6463C143.465 11.6672 142.393 11.4043 141.444 10.8843C140.562 10.3916 139.843 9.65616 139.376 8.76748C138.889 7.86205 138.638 6.85056 138.648 5.82511V5.82511Z" fill="#014586"/>
<path d="M150.916 11.4556L155.919 0.130859H157.783L162.775 11.4556H160.633L159.486 8.73549H154.13L152.962 11.4556H150.916ZM154.869 6.98924H158.758L156.786 2.49106L154.869 6.98924Z" fill="#014586"/>
<path d="M164.723 11.456V0.205355H169.223C170.371 0.15089 171.496 0.529207 172.372 1.26375C172.762 1.61031 173.07 2.03744 173.274 2.51491C173.478 2.99238 173.572 3.5083 173.551 4.02602C173.568 4.77941 173.347 5.51942 172.919 6.14281C172.51 6.72585 171.942 7.18124 171.28 7.45521C170.553 7.74949 169.773 7.89373 168.987 7.87872H166.716V11.4772L164.723 11.456ZM166.716 6.05805H169.051C169.693 6.08879 170.325 5.88982 170.83 5.49733C171.048 5.31727 171.222 5.08994 171.337 4.83299C171.452 4.57604 171.506 4.2962 171.494 4.01542C171.511 3.73346 171.461 3.45143 171.348 3.19217C171.234 2.93291 171.06 2.70378 170.84 2.52318C170.32 2.15693 169.689 1.97766 169.051 2.01517H166.716V6.05805Z" fill="#014586"/>
<path d="M175.083 5.835C175.077 5.06561 175.226 4.30284 175.523 3.59134C175.809 2.90409 176.223 2.27588 176.744 1.73914C177.287 1.20468 177.932 0.780233 178.64 0.490051C179.398 0.170054 180.215 0.0079727 181.04 0.0138249C181.863 0.00876023 182.679 0.167319 183.44 0.479715C184.143 0.756833 184.781 1.17431 185.314 1.70607C185.847 2.23783 186.263 2.87237 186.536 3.57015C187.121 5.01743 187.121 6.63164 186.536 8.07892C186.249 8.76869 185.831 9.39753 185.304 9.93112C184.764 10.4702 184.119 10.8951 183.408 11.1799C182.647 11.4904 181.831 11.6487 181.008 11.6456C179.931 11.6595 178.869 11.3891 177.933 10.8624C177.036 10.3637 176.295 9.63155 175.79 8.74559C175.306 7.8513 175.063 6.84903 175.083 5.835ZM177.226 5.835C177.219 6.53527 177.389 7.22637 177.719 7.84611C178.035 8.44597 178.514 8.94762 179.101 9.29597C179.697 9.66643 180.389 9.85766 181.093 9.84636C181.785 9.85655 182.465 9.67575 183.057 9.32414C183.65 8.97253 184.131 8.46425 184.447 7.8567C184.764 7.23067 184.928 6.54034 184.928 5.84043C184.928 5.14051 184.764 4.45018 184.447 3.82415C184.126 3.22062 183.645 2.71529 183.054 2.36343C182.451 2.01045 181.762 1.82442 181.061 1.82442C180.36 1.82442 179.672 2.01045 179.069 2.36343C178.488 2.71266 178.017 3.21485 177.708 3.81356C177.361 4.4326 177.177 5.12752 177.172 5.835H177.226Z" fill="#014586"/>
<path d="M189.386 11.4558V0.205185H194.475C195.596 0.143884 196.701 0.490175 197.581 1.17883C197.944 1.5094 198.229 1.91519 198.414 2.3672C198.599 2.8192 198.681 3.30617 198.653 3.79303C198.685 4.58797 198.422 5.36727 197.914 5.98398C197.392 6.5801 196.695 7.00154 195.921 7.19044L198.996 11.424H196.639L193.81 7.49742H191.336V11.424L189.386 11.4558ZM191.389 5.78269H194.314C194.929 5.81576 195.537 5.63199 196.028 5.26409C196.235 5.09494 196.4 4.88108 196.509 4.63877C196.619 4.39645 196.671 4.13241 196.66 3.86719C196.674 3.6056 196.626 3.34443 196.518 3.10518C196.409 2.86593 196.245 2.65542 196.039 2.49123C195.53 2.14547 194.919 1.97785 194.303 2.015H191.389V5.78269Z" fill="#014586"/>
<path d="M201.138 11.4557V0.205078H209.569V1.95133H203.141V4.91489H208.851V6.67173H203.141V9.69885H209.666V11.4557H201.138Z" fill="#014586"/>
<path d="M110 32.8143L112.014 30.4647C112.863 31.2086 113.82 31.8222 114.853 32.2851C115.843 32.6959 116.908 32.9013 117.981 32.8884C118.845 32.9363 119.7 32.7099 120.424 32.2427C120.714 32.0497 120.949 31.7874 121.109 31.4802C121.268 31.1729 121.346 30.8309 121.335 30.4859C121.353 30.0727 121.236 29.6649 121.003 29.3218C120.661 28.9279 120.227 28.6225 119.738 28.4326C118.879 28.0714 117.985 27.7949 117.071 27.6071C116.15 27.4035 115.245 27.1383 114.36 26.8133C113.672 26.5483 113.023 26.1922 112.432 25.7549C111.874 25.3585 111.433 24.8212 111.157 24.199C110.875 23.4958 110.74 22.7432 110.761 21.9869C110.739 21.2408 110.891 20.4999 111.205 19.821C111.519 19.1421 111.986 18.5434 112.571 18.0709C113.889 17.0272 115.544 16.4897 117.232 16.5575C119.726 16.5171 122.155 17.3493 124.088 18.9071L122.31 21.3941C120.856 20.219 119.055 19.5431 117.178 19.4681C116.374 19.4247 115.578 19.6481 114.917 20.1029C114.657 20.2889 114.444 20.5341 114.299 20.8177C114.154 21.1012 114.079 21.415 114.082 21.7329C114.065 22.172 114.197 22.6044 114.457 22.9608C114.816 23.3634 115.273 23.6691 115.785 23.8497C116.688 24.2057 117.62 24.4854 118.571 24.6859C120.246 25.0009 121.828 25.6845 123.199 26.6861C123.692 27.1268 124.079 27.6715 124.332 28.2797C124.584 28.8878 124.695 29.544 124.656 30.2001C124.69 30.9776 124.54 31.7523 124.216 32.4618C123.892 33.1714 123.404 33.7962 122.792 34.2856C121.389 35.3392 119.656 35.8712 117.896 35.7884C114.977 35.8244 112.154 34.7609 110 32.8143V32.8143Z" fill="#014586"/>
<path d="M158.757 35.5338V16.832H172.792V19.7426H162.078V24.6641H171.613V27.6064H162.121V32.655H172.963V35.5656L158.757 35.5338Z" fill="#014586"/>
<path d="M176.852 35.5338V16.832H190.897V19.7426H180.183V24.6641H189.675V27.6064H180.183V32.655H191.025V35.5656L176.852 35.5338Z" fill="#014586"/>
<path d="M194.968 16.832H198.707L194.968 20.5258V16.832Z" fill="#0089D0"/>
<path d="M207.706 18.5476C206.237 17.3439 204.362 16.7318 202.456 16.8331H201.192L194.968 22.9822V35.5349H198.3V29.5656H202.071C203.377 29.5827 204.674 29.3414 205.885 28.8563C206.988 28.3977 207.936 27.6379 208.617 26.6656C209.335 25.6288 209.709 24.3972 209.688 23.1411C209.72 22.2785 209.559 21.4196 209.217 20.6256C208.874 19.8316 208.358 19.1219 207.706 18.5476V18.5476ZM205.135 25.6282C204.293 26.2853 203.238 26.6167 202.167 26.5597H198.3V19.8282H202.167C203.235 19.7667 204.292 20.0735 205.156 20.6961C205.519 20.9966 205.806 21.3774 205.992 21.8078C206.178 22.2381 206.259 22.7059 206.228 23.1729C206.245 23.6372 206.156 24.0995 205.967 24.5248C205.778 24.9502 205.493 25.3273 205.135 25.6282V25.6282Z" fill="#014586"/>
<path d="M150.882 16.832L146.372 30.9509L143.051 20.854L141.433 25.7754L144.904 35.9994H147.775L154.375 16.832H150.882Z" fill="#014586"/>
<path d="M142.687 16.7793H139.87L135.22 30.9511L130.71 16.8323H127.121L133.709 35.9997H136.581L142.687 16.7793Z" fill="#014586"/>
</svg>
