<svg width="80" height="80" viewBox="0 0 80 80" fill="none" xmlns="http://www.w3.org/2000/svg">
<g clip-path="url(#clip0_1801_9074)">
<path d="M15.6666 12C14.1174 11.9967 12.6021 12.4621 11.3124 13.3372C10.0226 14.2124 9.0165 15.458 8.42129 16.9164C7.82607 18.3749 7.66853 19.9806 7.96859 21.5303C8.26866 23.0801 9.01285 24.5043 10.107 25.6226C11.2011 26.741 12.596 27.5032 14.1151 27.8129C15.6343 28.1226 17.2094 27.9658 18.6411 27.3624C20.0728 26.759 21.2968 25.736 22.1582 24.423C23.0196 23.11 23.4796 21.566 23.48 19.9863C23.472 17.8741 22.6469 15.8503 21.1838 14.3549C19.7208 12.8595 17.7381 12.0133 15.6666 12Z" fill="#141414"/>
<path d="M64.3295 12C62.7811 12.0005 61.2676 12.4691 59.9803 13.3465C58.6931 14.224 57.6898 15.4709 57.0975 16.9297C56.5052 18.3885 56.3503 19.9936 56.6525 21.5421C56.9547 23.0906 57.7004 24.513 58.7953 25.6294C59.8902 26.7458 61.2851 27.5062 62.8037 27.8143C64.3223 28.1224 65.8965 27.9645 67.3271 27.3605C68.7577 26.7566 69.9806 25.7336 70.8411 24.421C71.7017 23.1085 72.1612 21.5652 72.1617 19.9863C72.158 17.8694 71.3316 15.8402 69.8636 14.3433C68.3956 12.8464 66.4056 12.0038 64.3295 12V12Z" fill="#141414"/>
<path d="M40.0045 19.0928C38.4553 19.0895 36.94 19.5548 35.6503 20.43C34.3605 21.3052 33.3544 22.5508 32.7592 24.0092C32.164 25.4676 32.0064 27.0733 32.3065 28.6231C32.6066 30.1729 33.3507 31.597 34.4449 32.7154C35.539 33.8337 36.9339 34.596 38.453 34.9057C39.9722 35.2154 41.5473 35.0586 42.979 34.4552C44.4107 33.8517 45.6347 32.8288 46.4961 31.5158C47.3574 30.2028 47.8175 28.6588 47.8179 27.0791C47.8099 24.9668 46.9848 22.9431 45.5217 21.4477C44.0587 19.9523 42.076 19.106 40.0045 19.0928V19.0928Z" fill="#E50A14"/>
<path d="M10.4398 29.7334C8.18083 29.7436 5.98597 30.5003 4.18438 31.8899C4.18438 31.8899 4.17028 31.8899 4.16558 31.9043C3.33663 32.5434 2.60495 33.304 1.99427 34.1615L1.96137 34.2094C1.66196 34.635 1.39261 35.0818 1.15536 35.5464C1.15536 35.5656 1.14126 35.5871 1.13186 35.6063C0.895501 36.0799 0.69441 36.5709 0.530287 37.0751C0.370643 37.5738 0.248101 38.084 0.163703 38.6015L0.135502 38.786C0.0523174 39.3138 0.00832821 39.8472 0.00390784 40.3818V49.2475C0.00359761 49.4816 0.0486246 49.7134 0.136405 49.9297C0.224186 50.146 0.352992 50.3425 0.515431 50.5079C0.677871 50.6733 0.870749 50.8044 1.08299 50.8936C1.29523 50.9829 1.52266 51.0284 1.75223 51.0278C8.70324 51.0278 15.673 51.0278 22.6146 51.0278V47.4815C22.6146 47.1293 22.6381 47.0359 22.6358 47.1988C22.6446 46.7436 22.6784 46.2892 22.7368 45.8378V45.8378C22.7627 45.6389 22.7932 45.4329 22.8308 45.2244C22.9199 44.7248 23.0383 44.2311 23.1857 43.746C23.2538 43.5231 23.3126 43.3866 23.3337 43.3267C23.4744 42.9244 23.6359 42.5301 23.8178 42.1454V42.1454C23.8624 42.0519 23.9259 41.9057 24.0222 41.7165C24.258 41.262 24.5209 40.8227 24.8094 40.401V40.401C24.9011 40.2668 24.981 40.1614 25.0444 40.0655C25.3402 39.6635 25.6587 39.2794 25.9985 38.9154V38.9154C25.9726 38.9441 25.9985 38.9154 26.0948 38.8075C26.4957 38.3943 26.9236 38.0092 27.3755 37.655V37.655L27.5283 37.5376C28.3862 36.898 29.3223 36.3752 30.3129 35.9825C29.7303 34.6912 28.9015 33.531 27.8747 32.5696C26.848 31.6082 25.6438 30.8648 24.3324 30.3827V30.4043C23.2182 29.9811 22.0388 29.7645 20.8499 29.7645V29.7645C17.3689 29.7645 13.8902 29.7645 10.414 29.7645L10.4398 29.7334Z" fill="#141414"/>
<path d="M59.1209 29.7336C57.9327 29.7335 56.754 29.9501 55.6407 30.3733V30.3518C54.3291 30.8335 53.1247 31.5767 52.0979 32.5382C51.0711 33.4996 50.2424 34.66 49.6602 35.9515C50.6507 36.3442 51.5869 36.867 52.4448 37.5066L52.5975 37.6264C53.0504 37.9786 53.4776 38.3638 53.8759 38.779C53.9722 38.8772 54.0028 38.9132 53.9746 38.8868C54.3149 39.2503 54.6335 39.6344 54.9286 40.0369C54.9968 40.128 55.0767 40.2382 55.1636 40.3724C55.4538 40.793 55.7168 41.2324 55.9508 41.6879C56.0472 41.8748 56.1106 42.0209 56.1553 42.1168C56.3354 42.502 56.4961 42.8963 56.637 43.2981C56.6582 43.358 56.7169 43.4922 56.7874 43.7174C56.9342 44.2025 57.052 44.6962 57.1399 45.1958C57.1775 45.4043 57.208 45.6103 57.2362 45.8092C57.2948 46.2606 57.3285 46.715 57.3373 47.1702C57.3373 47.0049 57.3584 47.1007 57.3584 47.453V50.9969C64.3 51.0088 71.2698 50.9969 78.2209 50.9969C78.4516 51.0016 78.681 50.9596 78.8957 50.8733C79.1104 50.787 79.3061 50.6581 79.4716 50.494C79.6371 50.33 79.769 50.1341 79.8596 49.9177C79.9503 49.7012 79.9979 49.4686 79.9997 49.2333V40.3676C79.9953 39.8323 79.9513 39.298 79.8681 38.7694L79.8399 38.5873C79.7555 38.069 79.633 37.558 79.4734 37.0586C79.3104 36.5538 79.1093 36.0627 78.8718 35.5897C78.8718 35.5706 78.8577 35.549 78.8483 35.5322C78.6138 35.0665 78.3451 34.6196 78.0446 34.1952L78.0094 34.1473C77.3996 33.2892 76.6687 32.5277 75.8404 31.8877C75.8328 31.8837 75.8257 31.8789 75.8192 31.8733C74.0167 30.4855 71.8225 29.729 69.5638 29.7168V29.7168C66.0828 29.7168 62.6042 29.7168 59.1279 29.7168L59.1209 29.7336Z" fill="#141414"/>
<path d="M34.7867 36.8262C33.6007 36.8305 32.4242 37.0429 31.3088 37.454V37.454C31.2943 37.4602 31.2802 37.4674 31.2666 37.4755C30.3107 37.8255 29.4098 38.3155 28.5924 38.93C28.5477 38.9635 28.5007 38.9947 28.4561 39.0306C28.0673 39.334 27.6999 39.6646 27.3563 40.0202C27.3258 40.0514 27.2999 40.0825 27.2717 40.1137C26.9789 40.4254 26.705 40.7551 26.4516 41.1009C26.3811 41.1967 26.3106 41.2926 26.2425 41.3908C25.9932 41.7525 25.7671 42.1303 25.5657 42.5218C25.5022 42.6416 25.4482 42.7614 25.3894 42.8908C25.2367 43.2191 25.0981 43.5569 24.9759 43.9019C24.9336 44.0218 24.8842 44.1416 24.8466 44.2614C24.7216 44.6767 24.6204 45.0992 24.5435 45.5265C24.5129 45.699 24.4847 45.8764 24.4636 46.0513C24.4125 46.4382 24.3826 46.8278 24.3743 47.2182C24.3743 47.3021 24.3555 47.3787 24.3555 47.4578V56.3235C24.3543 56.5574 24.3985 56.7893 24.4856 57.0057C24.5728 57.2222 24.7011 57.4188 24.8633 57.5844C25.0254 57.7499 25.2181 57.881 25.4302 57.9702C25.6423 58.0594 25.8697 58.1048 26.0991 58.1038H28.301C28.301 58.0176 28.2869 57.9313 28.2869 57.8426C28.6347 52.8946 30.7543 49.1135 34.789 47.1847C36.4123 46.3709 38.1947 45.9409 40.0035 45.9267C40.5866 45.9307 41.1686 45.9788 41.7448 46.0704C42.9552 46.255 44.1296 46.6326 45.225 47.1894C49.3208 49.5209 51.6872 53.4913 51.7248 57.8474C51.7248 57.9361 51.713 58.02 51.7107 58.1086H53.9125C54.142 58.1093 54.3693 58.0636 54.5814 57.9744C54.7935 57.8851 54.9863 57.754 55.1485 57.5886C55.3108 57.4231 55.4393 57.2266 55.5269 57.0103C55.6144 56.7941 55.6591 56.5623 55.6585 56.3283V47.4626C55.6585 47.3811 55.6421 47.3045 55.6397 47.223C55.6303 46.8327 55.6005 46.4432 55.5504 46.0561C55.5293 45.8788 55.5011 45.7038 55.4705 45.5313C55.3941 45.0945 55.2904 44.6632 55.1603 44.2398C55.1298 44.1416 55.0875 44.0505 55.0546 43.9547C54.9251 43.5779 54.7744 43.2091 54.6034 42.85C54.5588 42.7566 54.5188 42.6608 54.4718 42.5673C54.2555 42.1518 54.0121 41.7515 53.7433 41.3692C53.6987 41.3021 53.6517 41.2398 53.6047 41.1752C53.3285 40.792 53.0278 40.4278 52.7047 40.0849L52.6812 40.0562C52.327 39.689 51.9477 39.3478 51.5462 39.0354L51.4545 38.9659C50.6277 38.3346 49.7129 37.8331 48.7404 37.4779L48.7146 37.4635C47.5972 37.0542 46.4193 36.8434 45.232 36.8405H34.7867V36.8262Z" fill="#E50A14"/>
<path d="M40.004 47.7002C39.6443 47.7043 39.2851 47.7274 38.9277 47.7697L40.9486 49.5189L43.8249 48.4765C42.6135 47.9647 41.3152 47.7009 40.004 47.7002V47.7002Z" fill="#E50A14"/>
<path d="M36.8065 48.251C35.3627 48.7491 34.0494 49.5769 32.9668 50.6711V50.6711L34.0407 54.7445L35.876 55.4633L39.4784 53.3428L39.8309 50.8891L36.8065 48.251Z" fill="#E50A14"/>
<path d="M45.5951 49.4443L45.5434 49.7295L41.5486 51.1791L41.2031 53.5465L44.2744 56.3524L46.4716 55.9546L47.5596 51.8165L47.9473 51.7135C47.2902 50.8332 46.4964 50.0684 45.5974 49.4491L45.5951 49.4443Z" fill="#E50A14"/>
<path d="M31.6142 52.375C30.6559 53.8967 30.1147 55.6524 30.0469 57.4596L32.3357 55.1234L31.6142 52.375Z" fill="#E50A14"/>
<path d="M48.9517 53.3643L48.1387 56.4529L49.9645 58.3147C49.9763 58.1589 49.9857 58.0056 49.9904 57.8498C49.9866 56.2934 49.632 54.7587 48.9541 53.3643H48.9517Z" fill="#E50A14"/>
<path d="M40.1643 54.9746L36.9238 56.8843L37.7016 60.6175L41.4286 61.0081L42.9466 57.5241L40.1643 54.9746Z" fill="#E50A14"/>
<path d="M33.5256 56.4219L30.9149 59.0792L30.5577 59.441L30.1465 59.3308C30.2894 60.2959 30.5672 61.2351 30.9713 62.1199L35.0131 62.52L36.0471 61.195L35.1823 57.0832L33.5256 56.4219Z" fill="#E50A14"/>
<path d="M46.8748 57.6729L44.6142 58.085L42.9316 61.9332L43.7165 63.4284H47.9463L48.1226 63.7399C48.813 62.759 49.3263 61.6603 49.6382 60.4955L46.8748 57.6729Z" fill="#E50A14"/>
<path d="M37.3619 62.3594L36.4102 63.5814L38.1585 67.5087L37.9658 67.7866C38.6368 67.9283 39.3203 67.9998 40.0055 67.9999H40.0854L42.2003 64.3002L41.4131 62.7931L37.3619 62.3594Z" fill="#E50A14"/>
<path d="M32.0918 64.0225C33.1404 65.4201 34.5265 66.5164 36.1148 67.2045L34.82 64.3028L32.0918 64.0225Z" fill="#E50A14"/>
<path d="M43.6963 65.1963L42.2559 67.7266C43.9926 67.3206 45.5911 66.4477 46.8852 65.1987L43.6963 65.1963Z" fill="#E50A14"/>
</g>
<defs>
<clipPath id="clip0_1801_9074">
<rect width="80" height="80" fill="white"/>
</clipPath>
</defs>
</svg>
