<svg width="50" height="50" viewBox="0 0 50 50" fill="none" xmlns="http://www.w3.org/2000/svg">
<g clip-path="url(#clip0_1398_23033)">
<path d="M46.875 0H3.125C1.40179 0 0 1.40254 0 3.12667V46.8733C0 48.5975 1.40179 50 3.125 50H46.875C48.5982 50 50 48.5975 50 46.8733V3.12667C50 1.40254 48.5982 0 46.875 0Z" fill="#141414"/>
<path d="M47.9213 46.8645C47.9213 47.4362 47.457 47.9097 46.8767 47.9097H3.12667C2.55525 47.9097 2.08203 47.4451 2.08203 46.8645V3.12675C2.08203 2.55501 2.54632 2.08154 3.12667 2.08154H46.8767C47.4481 2.08154 47.9213 2.54608 47.9213 3.12675V46.8645Z" fill="#E50A14"/>
<path d="M36.9844 4.60938H24.4844V25.4509H45.3147V4.60938H36.9844ZM32.8147 6.69978H36.9844V10.8717H32.8147V6.69978ZM36.9844 17.1161H32.8147V12.9442H36.9844V17.1161ZM26.5647 6.69978H30.7344V10.8717H26.5647V6.69978ZM26.5647 12.9531H30.7344V17.125H26.5647V12.9531ZM30.7344 23.3694H26.5647V19.1975H30.7344V23.3694ZM36.9844 23.3694H32.8147V19.1975H36.9844V23.3694ZM43.2344 23.3694H39.0647V19.1975H43.2344V23.3694ZM43.2344 17.1161H39.0647V12.9442H43.2344V17.1161ZM43.2344 6.69978V10.8717H39.0647V6.69978H43.2344Z" fill="#141414"/>
<path d="M20.3225 23.3696H5.72433C5.1529 23.3696 4.67969 23.8342 4.67969 24.4148C4.67969 24.9866 5.14397 25.46 5.72433 25.46H20.3225C20.894 25.46 21.3672 24.9955 21.3672 24.4148C21.3672 23.8431 20.9029 23.3696 20.3225 23.3696Z" fill="#141414"/>
<path d="M13.0268 4.60938C8.42857 4.60938 4.6875 8.35245 4.6875 12.9531C4.6875 17.5538 8.42857 21.2969 13.0268 21.2969C17.625 21.2969 21.3661 17.5538 21.3661 12.9531C21.3661 8.35245 17.625 4.60938 13.0268 4.60938Z" fill="#141414"/>
<path d="M16.1501 11.917H9.90011C9.32868 11.917 8.85547 12.3815 8.85547 12.9622C8.85547 13.5429 9.31975 14.0074 9.90011 14.0074H16.1501C16.7215 14.0074 17.1948 13.5429 17.1948 12.9622C17.1948 12.3815 16.7215 11.917 16.1501 11.917Z" fill="#E50A14"/>
<path d="M24.4844 29.748C21.0379 29.748 18.2344 32.5531 18.2344 36.0014V39.1281C18.2344 42.5763 21.0379 45.3814 24.4844 45.3814C27.9308 45.3814 30.7344 42.5763 30.7344 39.1281V36.0014C30.7344 32.5531 27.9308 29.748 24.4844 29.748ZM24.4844 40.1643C22.1897 40.1643 20.3147 38.2973 20.3147 35.9925C20.3147 33.6966 22.1808 31.8206 24.4844 31.8206C26.779 31.8206 28.654 33.6877 28.654 35.9925C28.654 38.2973 26.779 40.1643 24.4844 40.1643Z" fill="#141414"/>
<path d="M24.4827 43.2909C22.8756 43.2909 21.4738 42.3708 20.7773 41.0308C21.8131 41.799 23.0988 42.2457 24.4827 42.2457C25.8666 42.2457 27.1523 41.7901 28.1881 41.0308C27.4916 42.3708 26.0988 43.2909 24.4827 43.2909Z" fill="#E50A14"/>
<path d="M24.4827 38.0825C25.0544 38.0825 25.5279 37.618 25.5279 37.0373V34.9558C25.5279 34.3752 25.0634 33.9106 24.4827 33.9106C23.911 33.9106 23.4375 34.3752 23.4375 34.9558V37.0373C23.4375 37.618 23.911 38.0825 24.4827 38.0825Z" fill="#141414"/>
</g>
<defs>
<clipPath id="clip0_1398_23033">
<rect width="50" height="50" fill="white"/>
</clipPath>
</defs>
</svg>
