<svg width="70" height="70" viewBox="0 0 70 70" fill="none" xmlns="http://www.w3.org/2000/svg">
<path d="M68.2875 24.1859C65.9852 17.0939 61.4817 10.9968 55.5783 6.69581C49.8069 2.49167 42.7017 0.00440224 35.0154 0H34.989C27.3027 0.00440224 20.1975 2.49167 14.4261 6.69581C8.52273 10.9924 4.01924 17.0895 1.71687 24.1859C0.607508 27.5932 0 31.2251 0 35.0022C0 38.7749 0.603105 42.4068 1.70807 45.8141C4.01044 52.9105 8.51393 59.0076 14.4173 63.3042C20.1931 67.5127 27.3027 70 34.9934 70H35.0066C42.6929 69.9956 49.7981 67.5083 55.5695 63.3042C61.4729 59.0032 65.9764 52.9061 68.2787 45.8141C69.3837 42.4068 69.9868 38.7749 69.9868 35.0022C70 31.2251 69.3925 27.5932 68.2875 24.1859ZM34.9978 67.7813C27.7957 67.7813 21.1395 65.4525 15.7292 61.5125L19.0353 56.965C23.5168 60.227 29.0328 62.1596 35.0022 62.1596H35.011V67.7813H34.9978ZM34.9978 13.7878C46.7166 13.7878 56.2122 23.2878 56.2122 35.0022C56.2122 46.721 46.7122 56.2166 34.9978 56.2166C23.279 56.2166 13.7834 46.7166 13.7834 35.0022C13.7834 23.2834 23.2834 13.7878 34.9978 13.7878ZM54.2708 61.5125L50.9647 56.965C55.543 53.6281 59.0384 48.9001 60.8257 43.3929C63.1149 44.1368 65.0079 44.7532 66.1744 45.1318C64.0173 51.7747 59.8 57.4844 54.2708 61.5125ZM66.1744 24.8727L60.8257 26.6115C59.0384 21.1087 55.543 16.3763 50.9647 13.0438C52.3866 11.0892 53.5488 9.48683 54.2708 8.49632C59.8 12.52 64.0173 18.2297 66.1744 24.8727ZM34.9978 2.22313H35.0066V7.84479H34.9846C29.0196 7.84479 23.508 9.77737 19.0309 13.0394C17.609 11.0848 16.4468 9.48242 15.7248 8.49192C21.1396 4.55632 27.7957 2.22313 34.9978 2.22313ZM3.82555 24.8727L9.17426 26.6115C8.31583 29.2529 7.84479 32.0747 7.84479 35.0022C7.84479 37.9297 8.31583 40.7471 9.16986 43.3885C6.8807 44.1324 4.98774 44.7488 3.82114 45.1274C2.78662 41.9357 2.21873 38.5372 2.21873 35.0022C2.22313 31.4672 2.79102 28.0643 3.82555 24.8727Z" fill="white"/>
<path d="M34.9978 67.7813C27.7957 67.7813 21.1395 65.4525 15.7292 61.5125L19.0353 56.965C23.5168 60.227 29.0328 62.1596 35.0022 62.1596H35.011V67.7813H34.9978ZM54.2708 61.5125L50.9647 56.965C55.543 53.6281 59.0384 48.9001 60.8257 43.3929C63.1149 44.1369 65.0078 44.7532 66.1744 45.1318C64.0173 51.7747 59.8 57.4845 54.2708 61.5125ZM66.1744 24.8727L60.8257 26.6115C59.0384 21.1088 55.543 16.3763 50.9647 13.0438C52.3866 11.0893 53.5488 9.48684 54.2708 8.49634C59.8 12.52 64.0173 18.2297 66.1744 24.8727ZM34.9978 2.22314H35.0066V7.8448H34.9846C29.0196 7.8448 23.5079 9.77739 19.0309 13.0394C17.6089 11.0849 16.4468 9.48244 15.7248 8.49193C21.1395 4.55633 27.7957 2.22314 34.9978 2.22314ZM3.82554 24.8727L9.17426 26.6115C8.31582 29.2529 7.84478 32.0747 7.84478 35.0022C7.84478 37.9297 8.31582 40.7471 9.16986 43.3885C6.88069 44.1325 4.98773 44.7488 3.82114 45.1274C2.78661 41.9357 2.21872 38.5372 2.21872 35.0022C2.22312 31.4672 2.79101 28.0643 3.82554 24.8727Z" fill="#141414"/>
<path d="M33.7388 44.7267V47.1744C33.7388 47.9228 34.3463 48.5303 35.0947 48.5303C35.843 48.5303 36.4505 47.9228 36.4505 47.1744V44.7928C39.7566 44.2689 41.8785 41.6056 42.0766 39.017C42.2615 36.6178 40.8484 33.818 36.4505 32.8055V26.9329C38.0221 27.5536 38.8498 29.1824 39.2372 30.2434C39.4925 30.9477 40.2717 31.3087 40.976 31.0534C41.6804 30.7981 42.0414 30.0189 41.7861 29.3145C41.2666 27.8882 39.7654 24.789 36.4461 24.1067V22.8344C36.4461 22.086 35.8386 21.4785 35.0902 21.4785C34.3419 21.4785 33.7344 22.086 33.7344 22.8344V24.0978C30.8377 24.6789 28.9887 27.065 28.8127 29.3849C28.6454 31.5596 29.8912 34.0821 33.7344 35.0594V41.8917C31.9206 41.1917 30.9698 39.3296 30.5251 38.1234C30.2698 37.419 29.4906 37.058 28.7862 37.3134C28.0819 37.5687 27.7209 38.3479 27.9762 39.0567C28.5485 40.6018 30.1685 43.9563 33.7388 44.7267ZM39.378 38.8057C39.2768 40.1396 38.1718 41.5527 36.4593 42.015V35.6141C38.4139 36.2172 39.4881 37.3574 39.378 38.8057ZM31.5244 29.5918C31.6037 28.5265 32.4357 27.3995 33.7388 26.9197V32.22C32.2464 31.6741 31.4364 30.7452 31.5244 29.5918Z" fill="#141414"/>
</svg>
