<svg width="80" height="80" viewBox="0 0 80 80" fill="none" xmlns="http://www.w3.org/2000/svg">
<path d="M33.2316 33.6404C31.901 33.3248 30.5382 33.1657 29.1707 33.1665C27.9701 33.1664 26.7726 33.2881 25.5966 33.5298V33.5298C21.3535 34.409 17.5843 36.8228 15.0113 40.3085C12.4384 43.7941 11.2427 48.1065 11.6535 52.4191C12.0643 56.7316 14.0527 60.7408 17.2375 63.6783C20.4223 66.6159 24.5795 68.275 28.9123 68.3377C33.245 68.4004 37.4485 66.8624 40.7171 64.0183C43.9857 61.1742 46.0893 57.2241 46.6248 52.9253C47.1604 48.6265 46.0901 44.2813 43.6192 40.7226C41.1483 37.1639 37.4505 34.642 33.2347 33.6404H33.2316ZM36.1231 61.1643C33.5445 62.885 30.4197 63.5897 27.3519 63.1424C24.2841 62.6952 21.4907 61.1276 19.5111 58.7423C17.5315 56.357 16.5059 53.3231 16.6324 50.2263C16.7588 47.1294 18.0283 44.1892 20.1958 41.9731C22.3633 39.7571 25.2751 38.4223 28.3692 38.2264C31.4633 38.0306 34.5202 38.9876 36.95 40.9127C39.3797 42.8378 41.01 45.5944 41.5261 48.6506C42.0422 51.7068 41.4076 54.8457 39.7447 57.4616C38.8052 58.9318 37.5723 60.1923 36.1231 61.1643V61.1643Z" fill="#E50A14"/>
<path d="M36.1223 61.1643C33.5437 62.885 30.4189 63.5898 27.3511 63.1425C24.2832 62.6952 21.4899 61.1276 19.5103 58.7423C17.5307 56.357 16.5051 53.3231 16.6315 50.2263C16.758 47.1295 18.0275 44.1892 20.195 41.9732C22.3625 39.7571 25.2743 38.4223 28.3684 38.2265C31.4625 38.0306 34.5194 38.9876 36.9492 40.9127C39.3789 42.8378 41.0092 45.5945 41.5253 48.6506C42.0414 51.7068 41.4068 54.8458 39.7439 57.4616C38.8044 58.9318 37.5715 60.1924 36.1223 61.1643Z" fill="#E50A14"/>
<path d="M56.1744 43.1751C55.6008 41.2431 54.8243 39.3771 53.8579 37.6084C51.1267 36.834 48.6387 35.3745 46.6305 33.3684C44.6222 31.3623 43.1602 28.8763 42.3833 26.1464C36.5384 22.9676 29.7698 21.9196 23.2368 23.1818C16.7039 24.444 10.8133 27.938 6.57404 33.0651C2.3348 38.1922 0.0107592 44.6335 3.72656e-05 51.2854C-0.0106847 57.9374 2.29258 64.3861 6.51527 69.5269C8.17126 71.5425 10.0946 73.3229 12.232 74.8187V74.8187C16.1869 77.5856 20.7764 79.3099 25.5752 79.8318C30.3741 80.3537 35.227 79.6563 39.6845 77.8043L39.9121 77.7095C40.5298 77.4485 41.0185 76.9529 41.2706 76.3316C41.5228 75.7104 41.5178 75.0145 41.2567 74.397C40.9956 73.7794 40.4999 73.2909 39.8785 73.0388C39.2571 72.7867 38.561 72.7917 37.9433 73.0527L37.8295 73.1001C34.2195 74.6181 30.2886 75.2151 26.3906 74.8373C22.4925 74.4594 18.7496 73.1186 15.4986 70.9355C12.2475 68.7524 9.59047 65.7954 7.76644 62.3307C5.9424 58.866 5.00865 55.0023 5.04918 51.0873C5.08972 47.1722 6.10327 43.3286 7.99865 39.9024C9.89403 36.4762 12.6117 33.5749 15.9073 31.4595C19.2028 29.3441 22.9727 28.0811 26.8777 27.784C30.7828 27.4869 34.7005 28.165 38.2782 29.7575C43.5989 32.1404 47.8581 36.395 50.2459 41.7123C51.9536 45.532 52.6139 49.7371 52.1591 53.8961C51.7042 58.0551 50.1506 62.0182 47.6577 65.3787C46.6246 66.7669 45.4431 68.0381 44.1341 69.1699L47.7177 72.762C51.7898 69.1406 54.7467 64.4353 56.2431 59.1961C57.7395 53.9568 57.7135 48.4001 56.168 43.1751H56.1744Z" fill="#141414"/>
<path d="M58.3511 0.00631514C55.5088 0.00631514 52.6943 0.566004 50.0683 1.65342C47.4423 2.74084 45.0563 4.33469 43.0464 6.34397C41.0366 8.35326 39.4423 10.7386 38.3546 13.3639C37.2669 15.9891 36.707 18.8029 36.707 21.6444C36.7071 22.3777 36.744 23.1105 36.8176 23.8401C37.3213 28.7992 39.5228 33.4321 43.0499 36.9553C46.5769 40.4785 51.2129 42.6756 56.1737 43.1751C56.8879 43.2446 57.6148 43.2825 58.3511 43.2825C64.0923 43.2825 69.5984 41.0025 73.658 36.9439C77.7177 32.8854 79.9983 27.3809 79.9983 21.6413C79.9983 15.9016 77.7177 10.3971 73.658 6.33858C69.5984 2.28006 64.0923 0 58.3511 0V0.00631514Z" fill="#E50A14"/>
<path d="M38.8157 72.9043C38.5195 72.904 38.2255 72.9553 37.9469 73.0559L37.8331 73.1033C37.2939 73.3289 36.8495 73.7343 36.5757 74.2507C36.3019 74.767 36.2155 75.3622 36.3314 75.935C36.4473 76.5078 36.7581 77.0228 37.2111 77.3922C37.6641 77.7616 38.2311 77.9626 38.8157 77.961C39.1132 77.9618 39.4085 77.9093 39.6876 77.8062L39.9151 77.7114C40.4334 77.4642 40.852 77.0478 41.102 76.531C41.352 76.0141 41.4185 75.4275 41.2905 74.8678C41.1625 74.3082 40.8476 73.8087 40.3978 73.4518C39.948 73.0949 39.39 72.9018 38.8157 72.9043V72.9043Z" fill="#141414"/>
<path d="M30.6842 49.4717C30.1716 49.4715 29.6703 49.6233 29.244 49.9079C28.8176 50.1926 28.4853 50.5973 28.2891 51.0708C28.0929 51.5443 28.0416 52.0653 28.1416 52.568C28.2417 53.0707 28.4887 53.5324 28.8513 53.8947L30.621 55.6639L36.1229 61.1643L44.1339 69.17L47.7176 72.7621L50.4701 75.5139C50.9611 75.9728 51.6113 76.223 52.2834 76.2117C52.9555 76.2004 53.5969 75.9285 54.0722 75.4533C54.5475 74.9781 54.8195 74.3369 54.8308 73.665C54.8421 72.9931 54.5918 72.3431 54.1327 71.8522L51.2665 68.9867L47.6575 65.3788L43.385 61.1043L39.7445 57.4679L34.2868 52.0023L32.514 50.2299C32.2739 49.9893 31.9887 49.7985 31.6747 49.6684C31.3607 49.5383 31.0241 49.4714 30.6842 49.4717V49.4717Z" fill="#141414"/>
<path d="M29.3881 50.7212V50.7402H29.3692H29.3881V50.7212ZM29.3881 45.6867C28.3823 45.6823 27.3978 45.9767 26.5595 46.5326C25.7213 47.0885 25.0672 47.8808 24.6801 48.809C24.293 49.7371 24.1904 50.7593 24.3853 51.7459C24.5802 52.7324 25.0639 53.6388 25.775 54.3501C26.486 55.0614 27.3924 55.5455 28.3791 55.741C29.3658 55.9365 30.3883 55.8346 31.317 55.4482C32.2456 55.0617 33.0385 54.4083 33.5951 53.5706C34.1516 52.733 34.4468 51.7489 34.443 50.7433C34.443 49.3972 33.9081 48.1062 32.956 47.1543C32.0039 46.2025 30.7125 45.6677 29.366 45.6677L29.3881 45.6867Z" fill="#141414"/>
<path d="M29.3882 36.9088V36.9435H29.3692V36.9246H29.3882V36.9088ZM29.3882 31.8711C28.383 31.8667 27.3991 32.1607 26.5612 32.7159C25.7233 33.2711 25.0692 34.0625 24.6816 34.9897C24.294 35.9169 24.1905 36.9383 24.3842 37.9244C24.5778 38.9105 25.0599 39.817 25.7694 40.5289C26.4788 41.2408 27.3837 41.7261 28.3694 41.9234C29.355 42.1207 30.3771 42.0211 31.306 41.6371C32.2349 41.2531 33.029 40.6021 33.5874 39.7665C34.1459 38.9309 34.4437 37.9484 34.4431 36.9435C34.4435 36.2769 34.3125 35.6167 34.0575 35.0007C33.8025 34.3847 33.4285 33.825 32.957 33.3536C32.4855 32.8822 31.9256 32.5084 31.3094 32.2534C30.6933 31.9985 30.0329 31.8675 29.3661 31.8679L29.3882 31.8711Z" fill="#141414"/>
<path d="M11.5931 69.7657V69.8004H11.5741V69.7846V69.7688H11.5899L11.5931 69.7657ZM11.5899 64.7153C10.5861 64.7147 9.60454 65.0116 8.76942 65.5685C7.9343 66.1255 7.28307 66.9174 6.89804 67.8442C6.51302 68.7711 6.41147 69.7912 6.60625 70.7757C6.80102 71.7603 7.28337 72.665 7.99232 73.3755C8.70128 74.086 9.60503 74.5705 10.5893 74.7677C11.5736 74.9648 12.5943 74.8659 13.5224 74.4832C14.4504 74.1006 15.2442 73.4515 15.8033 72.618C16.3625 71.7845 16.6619 70.804 16.6638 69.8004C16.6642 69.1338 16.5332 68.4736 16.2782 67.8576C16.0232 67.2416 15.6492 66.6819 15.1777 66.2105C14.7062 65.7391 14.1463 65.3652 13.5301 65.1103C12.914 64.8554 12.2536 64.7244 11.5868 64.7248L11.5899 64.7153Z" fill="#141414"/>
<path d="M53.0886 11.7085C52.5763 11.7089 52.0757 11.8611 51.6499 12.1459C51.2242 12.4308 50.8924 12.8354 50.6967 13.3086C50.5009 13.7819 50.4498 14.3025 50.55 14.8048C50.6501 15.307 50.897 15.7683 51.2593 16.1303L58.63 23.4989C59.1209 23.9577 59.7709 24.2079 60.4428 24.1966C61.1147 24.1853 61.7559 23.9135 62.2311 23.4384C62.7063 22.9634 62.9782 22.3223 62.9895 21.6506C63.0008 20.9789 62.7506 20.329 62.2917 19.8383L54.921 12.4665C54.6805 12.2258 54.3949 12.0349 54.0804 11.9048C53.7659 11.7747 53.4289 11.708 53.0886 11.7085V11.7085Z" fill="#141414"/>
<path d="M60.5166 19.2529C60.1768 19.2527 59.8403 19.3195 59.5264 19.4496C59.2125 19.5797 58.9274 19.7704 58.6874 20.011L51.3136 27.3701C51.0732 27.6111 50.8826 27.897 50.7527 28.2117C50.6228 28.5263 50.5562 28.8634 50.5566 29.2038C50.5571 29.5441 50.6246 29.8811 50.7553 30.1953C50.886 30.5096 51.0773 30.7951 51.3183 31.0355C51.5594 31.2758 51.8454 31.4664 52.1601 31.5962C52.4748 31.7261 52.812 31.7927 53.1525 31.7922C53.493 31.7918 53.83 31.7243 54.1444 31.5936C54.4587 31.463 54.7443 31.2717 54.9847 31.0307L62.349 23.6747C62.7116 23.3125 62.9585 22.851 63.0585 22.3484C63.1586 21.8459 63.1073 21.325 62.9111 20.8516C62.7149 20.3782 62.3827 19.9736 61.9565 19.6891C61.5302 19.4045 61.0292 19.2527 60.5166 19.2529V19.2529Z" fill="#141414"/>
<path d="M63.6046 26.6488H53.176C52.8283 26.6367 52.4817 26.6946 52.1569 26.8193C51.8321 26.9439 51.5357 27.1327 51.2854 27.3743C51.0351 27.6159 50.8361 27.9054 50.7001 28.2256C50.5642 28.5458 50.4941 28.89 50.4941 29.2379C50.4941 29.5857 50.5642 29.9299 50.7001 30.2501C50.8361 30.5703 51.0351 30.8598 51.2854 31.1014C51.5357 31.343 51.8321 31.5318 52.1569 31.6564C52.4817 31.7811 52.8283 31.8391 53.176 31.8269H63.6046C63.9523 31.8391 64.2989 31.7811 64.6237 31.6564C64.9485 31.5318 65.2449 31.343 65.4951 31.1014C65.7454 30.8598 65.9444 30.5703 66.0804 30.2501C66.2163 29.9299 66.2864 29.5857 66.2864 29.2379C66.2864 28.89 66.2163 28.5458 66.0804 28.2256C65.9444 27.9054 65.7454 27.6159 65.4951 27.3743C65.2449 27.1327 64.9485 26.9439 64.6237 26.8193C64.2989 26.6946 63.9523 26.6367 63.6046 26.6488V26.6488Z" fill="#141414"/>
<path d="M63.6039 11.4619H53.1753C52.4881 11.4619 51.8289 11.7349 51.343 12.2207C50.857 12.7065 50.584 13.3655 50.584 14.0526C50.584 14.7396 50.857 15.3986 51.343 15.8844C51.8289 16.3702 52.4881 16.6432 53.1753 16.6432H63.6039C64.2912 16.6432 64.9503 16.3702 65.4363 15.8844C65.9223 15.3986 66.1953 14.7396 66.1953 14.0526C66.1953 13.3655 65.9223 12.7065 65.4363 12.2207C64.9503 11.7349 64.2912 11.4619 63.6039 11.4619Z" fill="#141414"/>
</svg>
