<svg width="230" height="36" viewBox="0 0 230 36" fill="none" xmlns="http://www.w3.org/2000/svg">
<path d="M60 14.5427V10.4222H83.087V14.5427H74.0466V35.5971H69.0517V14.5427H60Z" fill="#014586"/>
<path d="M84.5561 23.0345C84.5502 19.6171 86.0413 16.3314 88.7147 13.871C90.0608 12.6561 91.672 11.6975 93.4497 11.0537C95.3449 10.3459 97.3827 9.98764 99.439 10.0009C101.487 9.98021 103.519 10.321 105.417 11.0035C107.182 11.6382 108.782 12.5868 110.118 13.7907C111.425 14.9865 112.457 16.3963 113.158 17.9416C114.257 20.3243 114.553 22.939 114.009 25.4681C113.466 27.9971 112.106 30.3317 110.095 32.1883C108.742 33.397 107.127 34.3518 105.349 34.9956C103.45 35.6857 101.412 36.0268 99.3599 35.9982C96.6692 36.0377 94.017 35.4278 91.6868 34.2336C89.4754 33.1146 87.6536 31.4773 86.4207 29.5012C85.1838 27.5234 84.5417 25.2964 84.5561 23.0345ZM89.7883 23.0345C89.7707 24.6046 90.1899 26.1543 91.0088 27.5462C91.8084 28.9105 93.0146 30.0541 94.4961 30.8521C95.9776 31.6501 97.6776 32.072 99.4108 32.072C101.144 32.072 102.844 31.6501 104.325 30.8521C105.807 30.0541 107.013 28.9105 107.813 27.5462C108.633 26.148 109.049 24.5906 109.022 23.0145C109.041 21.4463 108.617 19.8988 107.79 18.5129C107.011 17.1736 105.84 16.0447 104.4 15.2444C103.296 14.6334 102.062 14.232 100.774 14.0651C99.4869 13.8982 98.1745 13.9695 96.9198 14.2746C95.6651 14.5798 94.4951 15.112 93.4836 15.838C92.4721 16.564 91.6411 17.4678 91.0427 18.4928C90.2079 19.8915 89.7769 21.4519 89.7883 23.0345Z" fill="#014586"/>
<path d="M140.28 23.0346C140.275 21.3135 140.659 19.6089 141.41 18.0217C142.11 16.4739 143.147 15.0637 144.461 13.8711C145.805 12.654 147.416 11.695 149.196 11.0537C151.087 10.3468 153.121 9.98853 155.174 10.001C157.225 9.97924 159.261 10.3201 161.163 11.0036C162.921 11.6575 164.512 12.6192 165.841 13.8309C167.145 15.0271 168.173 16.4368 168.87 17.9815C169.609 19.5718 169.993 21.2743 170 22.9945C170.001 26.4189 168.506 29.7105 165.83 32.1784C164.482 33.389 162.871 34.3441 161.095 34.9857C159.191 35.6747 157.15 36.0157 155.095 35.9882C152.408 36.0265 149.76 35.4166 147.433 34.2237C145.218 33.1049 143.393 31.468 142.155 29.4915C140.916 27.5178 140.27 25.294 140.28 23.0346ZM145.5 23.0346C145.483 24.6047 145.902 26.1544 146.721 27.5463C147.5 28.8856 148.671 30.0144 150.111 30.8147C151.221 31.4365 152.464 31.847 153.762 32.0198C155.06 32.1925 156.385 32.124 157.651 31.8185C158.918 31.5131 160.099 30.9774 161.12 30.2454C162.141 29.5134 162.979 28.601 163.581 27.5664C164.396 26.1664 164.812 24.6102 164.79 23.0346C164.809 21.4664 164.386 19.919 163.559 18.533C162.763 17.1846 161.567 16.0545 160.101 15.2646C158.996 14.6566 157.762 14.2574 156.475 14.0921C155.188 13.9268 153.877 13.9989 152.623 14.3038C151.37 14.6087 150.2 15.14 149.189 15.8643C148.177 16.5885 147.344 17.4902 146.743 18.5129C145.921 19.9083 145.495 21.4602 145.5 23.0346Z" fill="#014586"/>
<path d="M129.498 10.4323L124.775 14.623V35.6372H129.77V14.5427H138.81V10.4323H129.498Z" fill="#014586"/>
<path d="M115.724 10.4323V14.5427H121.103L125.736 10.4323H115.724Z" fill="#014586"/>
<path d="M115.723 10.4326V14.5431H121.102L125.735 10.4326H115.723Z" fill="#0089D0"/>
</svg>
