<svg width="320" height="36" viewBox="0 0 320 36" fill="none" xmlns="http://www.w3.org/2000/svg">
<path d="M105 14.5427V10.4222H128.087V14.5427H119.047V35.5971H114.052V14.5427H105Z" fill="#014586"/>
<path d="M129.556 23.0345C129.55 19.6171 131.041 16.3314 133.715 13.871C135.061 12.6561 136.672 11.6975 138.45 11.0537C140.345 10.3459 142.383 9.98764 144.439 10.0009C146.487 9.98021 148.519 10.321 150.417 11.0035C152.182 11.6382 153.782 12.5868 155.118 13.7907C156.425 14.9865 157.457 16.3963 158.158 17.9416C159.257 20.3243 159.553 22.939 159.009 25.4681C158.466 27.9971 157.106 30.3317 155.095 32.1883C153.742 33.397 152.127 34.3518 150.349 34.9956C148.45 35.6857 146.412 36.0268 144.36 35.9982C141.669 36.0377 139.017 35.4278 136.687 34.2336C134.475 33.1146 132.654 31.4773 131.421 29.5012C130.184 27.5234 129.542 25.2964 129.556 23.0345ZM134.788 23.0345C134.771 24.6046 135.19 26.1543 136.009 27.5462C136.808 28.9105 138.015 30.0541 139.496 30.8521C140.978 31.6501 142.678 32.072 144.411 32.072C146.144 32.072 147.844 31.6501 149.325 30.8521C150.807 30.0541 152.013 28.9105 152.813 27.5462C153.633 26.148 154.049 24.5906 154.022 23.0145C154.041 21.4463 153.617 19.8988 152.79 18.5129C152.011 17.1736 150.84 16.0447 149.4 15.2444C148.296 14.6334 147.062 14.232 145.774 14.0651C144.487 13.8982 143.175 13.9695 141.92 14.2746C140.665 14.5798 139.495 15.112 138.484 15.838C137.472 16.564 136.641 17.4678 136.043 18.4928C135.208 19.8915 134.777 21.4519 134.788 23.0345Z" fill="#014586"/>
<path d="M185.28 23.0346C185.275 21.3135 185.659 19.6089 186.41 18.0217C187.11 16.4739 188.147 15.0637 189.461 13.8711C190.805 12.654 192.416 11.695 194.196 11.0537C196.087 10.3468 198.121 9.98853 200.174 10.001C202.225 9.97924 204.261 10.3201 206.163 11.0036C207.921 11.6575 209.512 12.6192 210.841 13.8309C212.145 15.0271 213.173 16.4368 213.87 17.9815C214.609 19.5718 214.993 21.2743 215 22.9945C215.001 26.4189 213.506 29.7105 210.83 32.1784C209.482 33.389 207.871 34.3441 206.095 34.9857C204.191 35.6747 202.15 36.0157 200.095 35.9882C197.408 36.0265 194.76 35.4166 192.433 34.2237C190.218 33.1049 188.393 31.468 187.155 29.4915C185.916 27.5178 185.27 25.294 185.28 23.0346ZM190.5 23.0346C190.483 24.6047 190.902 26.1544 191.721 27.5463C192.5 28.8856 193.671 30.0144 195.111 30.8147C196.221 31.4365 197.464 31.847 198.762 32.0198C200.06 32.1925 201.385 32.124 202.651 31.8185C203.918 31.5131 205.099 30.9774 206.12 30.2454C207.141 29.5134 207.979 28.601 208.581 27.5664C209.396 26.1664 209.812 24.6102 209.79 23.0346C209.809 21.4664 209.386 19.919 208.559 18.533C207.763 17.1846 206.567 16.0545 205.101 15.2646C203.996 14.6566 202.762 14.2574 201.475 14.0921C200.188 13.9268 198.877 13.9989 197.623 14.3038C196.37 14.6087 195.2 15.14 194.189 15.8643C193.177 16.5885 192.344 17.4902 191.743 18.5129C190.921 19.9083 190.495 21.4602 190.5 23.0346Z" fill="#014586"/>
<path d="M174.498 10.4323L169.775 14.623V35.6372H174.77V14.5427H183.81V10.4323H174.498Z" fill="#014586"/>
<path d="M160.724 10.4323V14.5427H166.103L170.736 10.4323H160.724Z" fill="#014586"/>
<path d="M160.724 10.4326V14.5431H166.103L170.736 10.4326H160.724Z" fill="#0089D0"/>
</svg>
