<svg width="160" height="80" viewBox="0 0 160 80" fill="none" xmlns="http://www.w3.org/2000/svg">
<path d="M25 30.2669V25.4895H48.087V30.2669H39.0466V54.6778H34.0517V30.2669H25Z" fill="white"/>
<path d="M49.5561 40.1125C49.5502 36.1502 51.0413 32.3407 53.7147 29.4881C55.0608 28.0796 56.672 26.9681 58.4497 26.2216C60.3449 25.401 62.3827 24.9857 64.439 25.001C66.4868 24.9771 68.519 25.3722 70.417 26.1635C72.182 26.8994 73.7818 27.9992 75.118 29.395C76.4249 30.7814 77.4573 32.416 78.1579 34.2076C79.2572 36.9702 79.553 40.0017 79.0093 42.934C78.4657 45.8662 77.106 48.573 75.0954 50.7256C73.7416 52.127 72.1274 53.2339 70.3491 53.9804C68.4497 54.7805 66.4122 55.176 64.3599 55.1428C61.6692 55.1887 59.017 54.4815 56.6868 53.097C54.4754 51.7996 52.6536 49.9012 51.4207 47.6101C50.1838 45.317 49.5417 42.7349 49.5561 40.1125ZM54.7883 40.1125C54.7707 41.9329 55.1899 43.7296 56.0088 45.3434C56.8084 46.9252 58.0146 48.2511 59.4961 49.1763C60.9776 50.1016 62.6776 50.5908 64.4108 50.5908C66.144 50.5908 67.8439 50.1016 69.3254 49.1763C70.8069 48.2511 72.0132 46.9252 72.8127 45.3434C73.6331 43.7223 74.0486 41.9167 74.0218 40.0892C74.0407 38.271 73.6173 36.4769 72.7901 34.87C72.0105 33.3172 70.8397 32.0084 69.3999 31.0805C68.2961 30.3721 67.0617 29.9067 65.7743 29.7132C64.4869 29.5196 63.1745 29.6023 61.9198 29.9561C60.665 30.3099 59.4951 30.9269 58.4836 31.7687C57.4721 32.6104 56.6411 33.6584 56.0427 34.8467C55.2079 36.4683 54.7769 38.2776 54.7883 40.1125Z" fill="white"/>
<path d="M105.28 40.1126C105.275 38.117 105.659 36.1408 106.41 34.3005C107.11 32.506 108.147 30.8709 109.461 29.4882C110.805 28.0772 112.416 26.9653 114.196 26.2217C116.087 25.402 118.121 24.9867 120.174 25.0011C122.225 24.9759 124.261 25.3711 126.163 26.1636C127.921 26.9217 129.512 28.0367 130.841 29.4417C132.145 30.8285 133.173 32.4629 133.87 34.254C134.609 36.0977 134.993 38.0717 135 40.0661C135.001 44.0364 133.506 47.8528 130.83 50.714C129.482 52.1176 127.871 53.225 126.095 53.9689C124.191 54.7677 122.15 55.1631 120.095 55.1313C117.408 55.1756 114.76 54.4685 112.433 53.0854C110.218 51.7883 108.393 49.8904 107.155 47.5988C105.916 45.3104 105.27 42.7322 105.28 40.1126ZM110.5 40.1126C110.483 41.933 110.902 43.7297 111.721 45.3435C112.5 46.8963 113.671 48.2051 115.111 49.133C116.221 49.8539 117.464 50.3298 118.762 50.5301C120.06 50.7305 121.385 50.651 122.651 50.2969C123.918 49.9427 125.099 49.3216 126.12 48.4729C127.141 47.6242 127.979 46.5664 128.581 45.3668C129.396 43.7436 129.812 41.9394 129.79 40.1126C129.809 38.2944 129.386 36.5002 128.559 34.8934C127.763 33.33 126.567 32.0197 125.101 31.1038C123.996 30.399 122.762 29.9362 121.475 29.7445C120.188 29.5528 118.877 29.6364 117.623 29.99C116.37 30.3435 115.2 30.9594 114.189 31.7991C113.177 32.6389 112.344 33.6842 111.743 34.8701C110.921 36.4878 110.495 38.2872 110.5 40.1126Z" fill="white"/>
<path d="M94.4985 25.5012L89.7748 30.36V54.7243H94.7697V30.2669H103.81V25.5012H94.4985Z" fill="white"/>
<path d="M80.7235 25.5012V30.2669H86.1025L90.7358 25.5012H80.7235Z" fill="white"/>
</svg>
