<svg width="28" height="28" viewBox="0 0 28 28" fill="none" xmlns="http://www.w3.org/2000/svg">
<path d="M28 14C28 21.7316 21.7316 28 14 28C6.26844 28 0 21.7316 0 14C0 6.26844 6.26844 0 14 0C21.7332 0 28 6.26844 28 14Z" fill="#8F4AFF"/>
<path d="M20.9146 8.3999H7.08542L4.66666 12.7341L14 23.3332L23.3333 12.7341L20.9146 8.3999ZM20.2782 9.56736L21.695 12.1065H19.1489L20.2782 9.56736ZM19.071 9.51148L18.0375 11.8362L15.4543 9.51148H19.071ZM16.6643 12.1065H11.3357L14 9.70861L16.6643 12.1065ZM12.5453 9.51148L9.96207 11.8362L8.92813 9.51148H12.5453ZM7.72135 9.56736L8.85069 12.1065H6.30458L7.72135 9.56736ZM6.58722 13.2185H9.3453L12.1597 19.5476L6.58722 13.2185ZM10.5772 13.2185H17.4231L14 20.9153L10.5772 13.2185ZM15.8399 19.5476L18.6543 13.2185H21.4128L15.8399 19.5476Z" fill="white"/>
</svg>
