<svg width="18" height="18" viewBox="0 0 18 18" fill="none" xmlns="http://www.w3.org/2000/svg">
<path d="M17 3.5392C16.4114 3.80032 15.7786 3.97672 15.1147 4.05608C15.7924 3.64984 16.313 3.00656 16.558 2.24C15.9237 2.61624 15.2212 2.88936 14.4734 3.03656C13.8747 2.39856 13.0216 2 12.0774 2C10.2646 2 8.79479 3.46968 8.79479 5.28249C8.79479 5.53977 8.82383 5.79033 8.87983 6.03057C6.15166 5.89369 3.73294 4.5868 2.1139 2.6008C1.83133 3.0856 1.66941 3.64944 1.66941 4.25105C1.66941 5.38993 2.24894 6.39465 3.12974 6.98329C2.59166 6.96625 2.08549 6.81857 1.64293 6.57273C1.64256 6.58641 1.64256 6.60017 1.64256 6.61401C1.64256 8.20441 2.77408 9.53105 4.27577 9.83281C4.00033 9.90785 3.71032 9.94793 3.41096 9.94793C3.19944 9.94793 2.99385 9.92729 2.79336 9.88905C3.21113 11.1931 4.42337 12.1422 5.85985 12.1686C4.73641 13.0491 3.32104 13.5739 1.78304 13.5739C1.51808 13.5739 1.2568 13.5583 1 13.5279C2.45272 14.4594 4.17817 15.0028 6.03193 15.0028C12.0698 15.0028 15.3716 10.001 15.3716 5.66305C15.3716 5.52073 15.3684 5.3792 15.3621 5.23832C16.0034 4.7756 16.5599 4.19752 16.9999 3.5392H17Z" fill="#570191"/>
</svg>
