<svg width="36" height="36" viewBox="0 0 36 36" fill="none" xmlns="http://www.w3.org/2000/svg">
<circle cx="18" cy="18" r="18" fill="#1DA1F2"/>
<path d="M25.1683 14.2229C25.8728 13.6807 26.5068 13.0301 27 12.2711C26.3659 12.5602 25.6262 12.7771 24.8865 12.8494C25.6614 12.3795 26.225 11.6566 26.5068 10.753C25.8023 11.1867 24.9922 11.512 24.182 11.6928C23.4775 10.9337 22.5264 10.5 21.4697 10.5C19.4266 10.5 17.771 12.1988 17.771 14.2952C17.771 14.5843 17.8063 14.8735 17.8767 15.1627C14.8121 14.9819 12.0646 13.4639 10.2329 11.1867C9.91585 11.7289 9.73973 12.3795 9.73973 13.1024C9.73973 14.4036 10.3738 15.5602 11.3953 16.247C10.7965 16.2108 10.1977 16.0663 9.7045 15.7771V15.8133C9.7045 17.6566 10.9726 19.1747 12.6634 19.5361C12.3816 19.6084 12.0294 19.6807 11.7123 19.6807C11.4658 19.6807 11.2544 19.6446 11.0078 19.6084C11.4658 21.1265 12.8395 22.2108 14.4599 22.247C13.1918 23.259 11.6067 23.8735 9.88063 23.8735C9.5636 23.8735 9.2818 23.8373 9 23.8012C10.6204 24.8855 12.5577 25.5 14.6712 25.5C21.4697 25.5 25.1683 19.753 25.1683 14.7289C25.1683 14.5482 25.1683 14.4036 25.1683 14.2229Z" fill="white"/>
</svg>
