<svg width="80" height="80" viewBox="0 0 80 80" fill="none" xmlns="http://www.w3.org/2000/svg">
<g clip-path="url(#clip0_1801_5727)">
<path d="M74.4615 40H5.53846C4.68956 40 4 40.6896 4 41.5385V66.4615C4 67.3125 4.68956 68 5.53846 68H14.4615C15.3104 68 16 67.3125 16 66.4615V52H64V66.4615C64 67.3125 64.6875 68 65.5385 68H74.4615C75.3125 68 76 67.3125 76 66.4615V41.5385C76 40.6896 75.3125 40 74.4615 40Z" fill="#E50A14"/>
<path d="M52 27.2727V44H28V27.2727C28 20.2549 33.3832 14.5454 40 14.5454C46.6154 14.5454 52 20.2549 52 27.2727Z" fill="#E50A14"/>
<path d="M39.9995 21.8184C43.087 21.8184 45.5995 24.2655 45.5995 27.2729C45.5995 28.2762 44.7653 29.0911 43.7328 29.0911C42.7003 29.0911 41.8661 28.2762 41.8661 27.2729C41.8661 26.2713 41.0278 25.4547 39.9995 25.4547C38.9695 25.4547 38.1328 24.6398 38.1328 23.6365C38.1328 22.6333 38.9695 21.8184 39.9995 21.8184Z" fill="#141414"/>
<path d="M13.8667 25.4542H21.3333C22.3633 25.4542 23.2 24.6393 23.2 23.6361C23.2 22.6328 22.3633 21.8179 21.3333 21.8179H13.8667C12.8367 21.8179 12 22.6328 12 23.6361C12 24.6393 12.8367 25.4542 13.8667 25.4542Z" fill="#141414"/>
<path d="M56.8008 23.6365C56.8008 24.6398 57.635 25.4547 58.6674 25.4547H66.1341C67.1666 25.4547 68.0008 24.6398 68.0008 23.6365C68.0008 22.6333 67.1666 21.8184 66.1341 21.8184H58.6674C57.635 21.8184 56.8008 22.6333 56.8008 23.6365Z" fill="#141414"/>
<path d="M39.9995 10.9091C41.0295 10.9091 41.8661 10.0942 41.8661 9.09093V1.81819C41.8661 0.814942 41.0295 0 39.9995 0C38.9695 0 38.1328 0.814942 38.1328 1.81819V9.09093C38.1328 10.0942 38.9695 10.9091 39.9995 10.9091Z" fill="#141414"/>
<path d="M27.4792 14.0137C27.8434 14.3676 28.3217 14.5462 28.7992 14.5462C29.2767 14.5462 29.755 14.3676 30.1192 14.0137C30.8492 13.3027 30.8492 12.1533 30.1192 11.4431L26.3859 7.80672C25.6559 7.09568 24.4759 7.09568 23.7467 7.80672C23.0167 8.51777 23.0167 9.66711 23.7467 10.3773L27.4792 14.0137Z" fill="#141414"/>
<path d="M54.9331 14.5452C55.4106 14.5452 55.8889 14.3666 56.2531 14.0127L59.9864 10.3763C60.7164 9.6653 60.7164 8.51596 59.9864 7.80575C59.2564 7.0947 58.0764 7.0947 57.3472 7.80575L53.6139 11.4421C52.8839 12.1532 52.8839 13.3025 53.6139 14.0127C53.9772 14.3666 54.4556 14.5452 54.9331 14.5452H54.9331Z" fill="#141414"/>
<path d="M33.5394 72.3078C33.5394 74.8565 31.4727 76.9231 28.924 76.9231C26.3752 76.9231 24.3086 74.8565 24.3086 72.3078C24.3086 69.759 26.3752 67.6924 28.924 67.6924C31.4727 67.6924 33.5394 69.759 33.5394 72.3078Z" fill="#141414"/>
<path d="M58.1546 75.3844C58.1546 77.9332 56.088 79.9998 53.5392 79.9998C50.9905 79.9998 48.9238 77.9332 48.9238 75.3844C48.9238 72.8357 50.9905 70.769 53.5392 70.769C56.088 70.769 58.1546 72.8357 58.1546 75.3844Z" fill="#141414"/>
<path d="M42.7698 60.0002C42.7698 62.5489 40.7032 64.6155 38.1544 64.6155C35.6057 64.6155 33.5391 62.5489 33.5391 60.0002C33.5391 57.4514 35.6057 55.3848 38.1544 55.3848C40.7032 55.3848 42.7698 57.4514 42.7698 60.0002Z" fill="#141414"/>
</g>
<defs>
<clipPath id="clip0_1801_5727">
<rect width="80" height="80" fill="white"/>
</clipPath>
</defs>
</svg>
