<svg width="70" height="70" viewBox="0 0 70 70" fill="none" xmlns="http://www.w3.org/2000/svg">
<path d="M70 35C70 54.3289 54.3289 70 35 70C15.6711 70 0 54.3289 0 35C0 15.6711 15.6711 0 35 0C54.3329 0 70 15.6711 70 35Z" fill="#7635E9"/>
<path d="M57.892 27.7718L52.1625 29.8767C51.9333 29.9519 51.6659 29.7263 51.8569 29.5008L58.2358 14.3906C58.3122 14.1651 58.083 13.9396 57.8538 14.0147L45.7453 18.1494C45.4779 18.2245 45.287 18.4125 45.2106 18.638L36.9982 38.8601C36.8836 39.1232 37.1509 39.3863 37.4183 39.2736L42.5368 37.4318C42.8041 37.319 43.0715 37.6197 42.9187 37.8828L35.3939 50.3619C35.2411 50.625 34.8209 50.625 34.6681 50.3619L27.1433 37.8828C26.9905 37.6197 27.2197 37.319 27.5253 37.4318L32.6437 39.2736C32.9111 39.3487 33.1784 39.1232 33.0639 38.8601L24.8133 18.638C24.6987 18.4125 24.5077 18.2245 24.2785 18.1494L12.17 14.0147C11.9026 13.9396 11.7116 14.1651 11.788 14.3906L18.1669 29.5384C18.2433 29.7639 18.0142 29.9894 17.785 29.9143L12.0936 27.7718C11.8262 27.659 11.5588 27.9597 11.7116 28.2228L28.633 55.5489C28.824 55.8121 29.1295 56 29.4351 56H40.5123C40.8561 56 41.1617 55.8496 41.3144 55.5865L58.274 28.2228C58.465 27.9597 58.1594 27.659 57.892 27.7718Z" fill="white"/>
</svg>
