<svg width="20" height="20" viewBox="0 0 20 20" fill="none" xmlns="http://www.w3.org/2000/svg">
<circle cx="10" cy="10" r="10" fill="#00579F"/>
<path d="M8.88888 12.4283H7.53876L8.38322 7.5882H9.73326L8.88888 12.4283Z" fill="white"/>
<path d="M13.7831 7.70606C13.5168 7.60813 13.0945 7.5 12.5722 7.5C11.2389 7.5 10.3 8.15905 10.2943 9.10129C10.2832 9.79647 10.9665 10.1826 11.4775 10.4144C11.9999 10.6512 12.1774 10.8058 12.1774 11.017C12.1721 11.3412 11.7553 11.4907 11.3666 11.4907C10.8276 11.4907 10.5388 11.4136 10.0999 11.2332L9.92209 11.1559L9.73316 12.2424C10.0498 12.3761 10.6332 12.4948 11.2389 12.5C12.6555 12.5 13.5778 11.8511 13.5887 10.847C13.5941 10.2961 13.2333 9.87387 12.4555 9.52888C11.9833 9.30742 11.6941 9.15809 11.6941 8.93149C11.6996 8.7255 11.9387 8.51451 12.4717 8.51451C12.9106 8.50417 13.2331 8.60197 13.4774 8.69984L13.5995 8.75123L13.7831 7.70606Z" fill="white"/>
<path fill-rule="evenodd" clip-rule="evenodd" d="M16.1998 7.5882H17.2441L18.3333 12.4283H17.0833C17.0833 12.4283 16.9609 11.8721 16.9222 11.7022H15.1887C15.1386 11.8309 14.9054 12.4283 14.9054 12.4283H13.4887L15.4942 7.98978C15.6331 7.67566 15.8778 7.5882 16.1998 7.5882ZM16.1166 9.35896C16.1166 9.35896 15.6888 10.4351 15.5776 10.7132H16.6998C16.6443 10.4712 16.3886 9.31262 16.3886 9.31262L16.2943 8.89557C16.2545 9.00296 16.1971 9.15061 16.1583 9.2502C16.132 9.31771 16.1144 9.36313 16.1166 9.35896Z" fill="white"/>
<path d="M6.41112 7.5882L5.08891 10.8887L4.94443 10.2193C4.69998 9.44694 3.93334 8.60777 3.0778 8.19051L4.2889 12.4232H5.71661L7.83876 7.5882H6.41112Z" fill="white"/>
<path d="M3.8611 7.58811H1.68889L1.66667 7.68591C3.36113 8.08756 4.48333 9.05574 4.94439 10.2194L4.47218 7.99497C4.39444 7.68584 4.15553 7.59831 3.8611 7.58811Z" fill="#FAA61A"/>
</svg>
