<svg width="26" height="26" viewBox="0 0 26 26" fill="none" xmlns="http://www.w3.org/2000/svg">
<path d="M10.9232 4.65507H8.10539L7.23569 1.85891C7.13209 1.52502 6.83545 1.30005 6.49964 1.30005C6.16408 1.30005 5.86769 1.52502 5.76332 1.85891L4.89058 4.65507H2.07501C1.73945 4.65507 1.4418 4.8811 1.33721 5.21393C1.23462 5.5473 1.34782 5.91179 1.61844 6.11671L3.89913 7.84603L3.02813 10.6425C2.92555 10.974 3.03748 11.3403 3.30937 11.5452C3.57999 11.7512 3.94763 11.7512 4.22001 11.5452L6.49992 9.81645L8.78035 11.5452C8.91629 11.6491 9.07649 11.7 9.23542 11.7C9.39385 11.7 9.55431 11.6491 9.6905 11.5452C9.96289 11.34 10.0748 10.974 9.97224 10.6425L9.10073 7.8463L11.3814 6.11698C11.6518 5.91178 11.7647 5.54704 11.6626 5.2142C11.5575 4.8811 11.2599 4.65508 10.9233 4.65508L10.9232 4.65507Z" fill="#E50A14"/>
<path d="M14.2998 2.60005C14.2998 1.88208 14.8818 1.30005 15.5998 1.30005H23.3998C24.1178 1.30005 24.6998 1.88208 24.6998 2.60005V10.4C24.6998 11.118 24.1178 11.7 23.3998 11.7H15.5998C14.8818 11.7 14.2998 11.118 14.2998 10.4V2.60005Z" fill="#141414"/>
<path d="M23.9232 17.6551H21.1054L20.2357 14.8589C20.1321 14.525 19.8355 14.3 19.4996 14.3C19.1641 14.3 18.8677 14.525 18.7633 14.8589L17.8906 17.6551H15.075C14.7395 17.6551 14.4418 17.8811 14.3372 18.2139C14.2346 18.5473 14.3478 18.9118 14.6184 19.1167L16.8991 20.846L16.0281 23.6425C15.9255 23.974 16.0375 24.3403 16.3094 24.5452C16.58 24.7512 16.9476 24.7512 17.22 24.5452L19.4999 22.8164L21.7803 24.5452C21.9163 24.6491 22.0765 24.7 22.2354 24.7C22.3939 24.7 22.5543 24.6491 22.6905 24.5452C22.9629 24.34 23.0748 23.974 22.9722 23.6425L22.1007 20.8463L24.3814 19.117C24.6518 18.9118 24.7647 18.547 24.6626 18.2142C24.5575 17.8811 24.2599 17.6551 23.9233 17.6551L23.9232 17.6551Z" fill="#E50A14"/>
<path d="M1.2998 15.6C1.2998 14.8821 1.88183 14.3 2.5998 14.3H10.3998C11.1178 14.3 11.6998 14.8821 11.6998 15.6V23.4C11.6998 24.118 11.1178 24.7 10.3998 24.7H2.5998C1.88183 24.7 1.2998 24.118 1.2998 23.4V15.6Z" fill="#141414"/>
</svg>
